# Tiled2Unity generated file. Do not modify by hand.
# Wavefront file for 'Level3_mesh_0130.obj'

# Vertices (Count = 20)
v -176 -16 0
v -192 -16 0
v -192 0 0
v -176 0 0
v -112 -32 0
v -128 -32 0
v -128 -16 0
v -112 -16 0
v -112 -48 0
v -128 -48 0
v -128 -32 0
v -112 -32 0
v -224 -48 0
v -240 -48 0
v -240 -32 0
v -224 -32 0
v -224 -64 0
v -240 -64 0
v -240 -48 0
v -224 -48 0

# Texture cooridinates (Count = 10)
vt 0.8461539 0.76
vt 0.9230769 0.76
vt 0.9230769 0.8
vt 0.8461539 0.8
vt 0.6923077 0.52
vt 0.7692308 0.52
vt 0.7692308 0.56
vt 0.6923077 0.56
vt 0.6923077 0.48
vt 0.7692308 0.48

# Normal
vn 0 0 -1

# Mesh description
g Level3_mesh_0130

# Faces
f 1/1/1 2/2/1 3/3/1 4/4/1
f 5/5/1 6/6/1 7/7/1 8/8/1
f 9/9/1 10/10/1 11/6/1 12/5/1
f 13/5/1 14/6/1 15/7/1 16/8/1
f 17/9/1 18/10/1 19/6/1 20/5/1

