# Tiled2Unity generated file. Do not modify by hand.
# Wavefront file for 'Level3_mesh_0087.obj'

# Vertices (Count = 24)
v -64 -16 0
v -80 -16 0
v -80 0 0
v -64 0 0
v -80 -16 0
v -96 -16 0
v -96 0 0
v -80 0 0
v -96 -16 0
v -112 -16 0
v -112 0 0
v -96 0 0
v -112 -16 0
v -128 -16 0
v -128 0 0
v -112 0 0
v -128 -16 0
v -144 -16 0
v -144 0 0
v -128 0 0
v -144 -16 0
v -160 -16 0
v -160 0 0
v -144 0 0

# Texture cooridinates (Count = 8)
vt 0.173913 0.8571429
vt 0.2173913 0.8571429
vt 0.2173913 0.9285714
vt 0.173913 0.9285714
vt 0.1304348 0.9285714
vt 0.173913 1
vt 0.1304348 1
vt 0.2173913 1

# Normal
vn 0 0 -1

# Mesh description
g Level3_mesh_0087

# Faces
f 1/1/1 2/2/1 3/3/1 4/4/1
f 5/5/1 6/4/1 7/6/1 8/7/1
f 9/5/1 10/4/1 11/6/1 12/7/1
f 13/5/1 14/4/1 15/6/1 16/7/1
f 17/5/1 18/4/1 19/6/1 20/7/1
f 21/4/1 22/3/1 23/8/1 24/6/1

