# Tiled2Unity generated file. Do not modify by hand.
# Wavefront file for 'Level3_mesh_0067.obj'

# Vertices (Count = 92)
v 0 -176 0
v -16 -176 0
v -16 -160 0
v 0 -160 0
v -16 -176 0
v -32 -176 0
v -32 -160 0
v -16 -160 0
v -32 -176 0
v -48 -176 0
v -48 -160 0
v -32 -160 0
v -48 -176 0
v -64 -176 0
v -64 -160 0
v -48 -160 0
v -64 -176 0
v -80 -176 0
v -80 -160 0
v -64 -160 0
v -80 -176 0
v -96 -176 0
v -96 -160 0
v -80 -160 0
v -96 -176 0
v -112 -176 0
v -112 -160 0
v -96 -160 0
v -112 -176 0
v -128 -176 0
v -128 -160 0
v -112 -160 0
v -128 -176 0
v -144 -176 0
v -144 -160 0
v -128 -160 0
v 0 -192 0
v -16 -192 0
v -16 -176 0
v 0 -176 0
v -16 -192 0
v -32 -192 0
v -32 -176 0
v -16 -176 0
v -32 -192 0
v -48 -192 0
v -48 -176 0
v -32 -176 0
v -48 -192 0
v -64 -192 0
v -64 -176 0
v -48 -176 0
v -64 -192 0
v -80 -192 0
v -80 -176 0
v -64 -176 0
v -80 -192 0
v -96 -192 0
v -96 -176 0
v -80 -176 0
v -96 -192 0
v -112 -192 0
v -112 -176 0
v -96 -176 0
v -112 -192 0
v -128 -192 0
v -128 -176 0
v -112 -176 0
v -128 -192 0
v -144 -192 0
v -144 -176 0
v -128 -176 0
v -144 -256 0
v -160 -256 0
v -160 -240 0
v -144 -240 0
v -160 -256 0
v -176 -256 0
v -176 -240 0
v -160 -240 0
v -176 -256 0
v -192 -256 0
v -192 -240 0
v -176 -240 0
v -192 -256 0
v -208 -256 0
v -208 -240 0
v -192 -240 0
v -208 -256 0
v -224 -256 0
v -224 -240 0
v -208 -240 0

# Texture cooridinates (Count = 17)
vt 0.07692308 0.76
vt 0.1538462 0.76
vt 0.1538462 0.8
vt 0.07692308 0.8
vt 0.2307692 0.76
vt 0.2307692 0.8
vt 0.3076923 0.76
vt 0.3076923 0.8
vt 0.3846154 0.76
vt 0.3846154 0.8
vt 0.07692308 0.72
vt 0.1538462 0.72
vt 0.2307692 0.72
vt 0.3076923 0.72
vt 0.3846154 0.72
vt 0 0.76
vt 0 0.8

# Normal
vn 0 0 -1

# Mesh description
g Level3_mesh_0067

# Faces
f 1/1/1 2/2/1 3/3/1 4/4/1
f 5/1/1 6/2/1 7/3/1 8/4/1
f 9/2/1 10/5/1 11/6/1 12/3/1
f 13/1/1 14/2/1 15/3/1 16/4/1
f 17/1/1 18/2/1 19/3/1 20/4/1
f 21/2/1 22/5/1 23/6/1 24/3/1
f 25/1/1 26/2/1 27/3/1 28/4/1
f 29/5/1 30/7/1 31/8/1 32/6/1
f 33/7/1 34/9/1 35/10/1 36/8/1
f 37/11/1 38/12/1 39/2/1 40/1/1
f 41/11/1 42/12/1 43/2/1 44/1/1
f 45/12/1 46/13/1 47/5/1 48/2/1
f 49/11/1 50/12/1 51/2/1 52/1/1
f 53/11/1 54/12/1 55/2/1 56/1/1
f 57/12/1 58/13/1 59/5/1 60/2/1
f 61/11/1 62/12/1 63/2/1 64/1/1
f 65/13/1 66/14/1 67/7/1 68/5/1
f 69/14/1 70/15/1 71/9/1 72/7/1
f 73/16/1 74/1/1 75/4/1 76/17/1
f 77/1/1 78/2/1 79/3/1 80/4/1
f 81/2/1 82/5/1 83/6/1 84/3/1
f 85/5/1 86/7/1 87/8/1 88/6/1
f 89/7/1 90/9/1 91/10/1 92/8/1

