# Tiled2Unity generated file. Do not modify by hand.
# Wavefront file for 'Level3_mesh_0128.obj'

# Vertices (Count = 80)
v -224 -96 0
v -240 -96 0
v -240 -80 0
v -224 -80 0
v -240 -96 0
v -256 -96 0
v -256 -80 0
v -240 -80 0
v -240 -112 0
v -256 -112 0
v -256 -96 0
v -240 -96 0
v -240 -128 0
v -256 -128 0
v -256 -112 0
v -240 -112 0
v -224 -144 0
v -240 -144 0
v -240 -128 0
v -224 -128 0
v -240 -144 0
v -256 -144 0
v -256 -128 0
v -240 -128 0
v -224 -160 0
v -240 -160 0
v -240 -144 0
v -224 -144 0
v -240 -160 0
v -256 -160 0
v -256 -144 0
v -240 -144 0
v -144 -192 0
v -160 -192 0
v -160 -176 0
v -144 -176 0
v -160 -192 0
v -176 -192 0
v -176 -176 0
v -160 -176 0
v -144 -208 0
v -160 -208 0
v -160 -192 0
v -144 -192 0
v -160 -208 0
v -176 -208 0
v -176 -192 0
v -160 -192 0
v -144 -224 0
v -160 -224 0
v -160 -208 0
v -144 -208 0
v -160 -224 0
v -176 -224 0
v -176 -208 0
v -160 -208 0
v -144 -240 0
v -160 -240 0
v -160 -224 0
v -144 -224 0
v -160 -240 0
v -176 -240 0
v -176 -224 0
v -160 -224 0
v -208 -240 0
v -224 -240 0
v -224 -224 0
v -208 -224 0
v -144 -256 0
v -160 -256 0
v -160 -240 0
v -144 -240 0
v -160 -256 0
v -176 -256 0
v -176 -240 0
v -160 -240 0
v -208 -256 0
v -224 -256 0
v -224 -240 0
v -208 -240 0

# Texture cooridinates (Count = 27)
vt 0.7692308 0.84
vt 0.8461539 0.84
vt 0.8461539 0.88
vt 0.7692308 0.88
vt 0.9230769 0.84
vt 0.9230769 0.88
vt 0.8461539 0.8
vt 0.9230769 0.8
vt 0.7692308 0.8
vt 0.7692308 0.76
vt 0.8461539 0.76
vt 0.9230769 0.76
vt 0.7692308 0.52
vt 0.8461539 0.52
vt 0.8461539 0.56
vt 0.7692308 0.56
vt 0.9230769 0.52
vt 0.9230769 0.56
vt 0.7692308 0.48
vt 0.8461539 0.48
vt 0.9230769 0.48
vt 0.7692308 0.44
vt 0.8461539 0.44
vt 0.9230769 0.44
vt 0.6923077 0.52
vt 0.6923077 0.56
vt 0.6923077 0.48

# Normal
vn 0 0 -1

# Mesh description
g Level3_mesh_0128

# Faces
f 1/1/1 2/2/1 3/3/1 4/4/1
f 5/2/1 6/5/1 7/6/1 8/3/1
f 9/7/1 10/8/1 11/5/1 12/2/1
f 13/7/1 14/8/1 15/5/1 16/2/1
f 17/9/1 18/7/1 19/2/1 20/1/1
f 21/7/1 22/8/1 23/5/1 24/2/1
f 25/10/1 26/11/1 27/7/1 28/9/1
f 29/11/1 30/12/1 31/8/1 32/7/1
f 33/13/1 34/14/1 35/15/1 36/16/1
f 37/14/1 38/17/1 39/18/1 40/15/1
f 41/19/1 42/20/1 43/14/1 44/13/1
f 45/20/1 46/21/1 47/17/1 48/14/1
f 49/22/1 50/23/1 51/20/1 52/19/1
f 53/23/1 54/24/1 55/21/1 56/20/1
f 57/22/1 58/23/1 59/20/1 60/19/1
f 61/23/1 62/24/1 63/21/1 64/20/1
f 65/25/1 66/13/1 67/16/1 68/26/1
f 69/22/1 70/23/1 71/20/1 72/19/1
f 73/23/1 74/24/1 75/21/1 76/20/1
f 77/27/1 78/19/1 79/13/1 80/25/1

