# Tiled2Unity generated file. Do not modify by hand.
# Wavefront file for 'Level3_mesh_0012.obj'

# Vertices (Count = 1024)
v 0 -16 0
v -16 -16 0
v -16 0 0
v 0 0 0
v -16 -16 0
v -32 -16 0
v -32 0 0
v -16 0 0
v -32 -16 0
v -48 -16 0
v -48 0 0
v -32 0 0
v -48 -16 0
v -64 -16 0
v -64 0 0
v -48 0 0
v -64 -16 0
v -80 -16 0
v -80 0 0
v -64 0 0
v -80 -16 0
v -96 -16 0
v -96 0 0
v -80 0 0
v -96 -16 0
v -112 -16 0
v -112 0 0
v -96 0 0
v -112 -16 0
v -128 -16 0
v -128 0 0
v -112 0 0
v -128 -16 0
v -144 -16 0
v -144 0 0
v -128 0 0
v -144 -16 0
v -160 -16 0
v -160 0 0
v -144 0 0
v -160 -16 0
v -176 -16 0
v -176 0 0
v -160 0 0
v -176 -16 0
v -192 -16 0
v -192 0 0
v -176 0 0
v -192 -16 0
v -208 -16 0
v -208 0 0
v -192 0 0
v -208 -16 0
v -224 -16 0
v -224 0 0
v -208 0 0
v -224 -16 0
v -240 -16 0
v -240 0 0
v -224 0 0
v -240 -16 0
v -256 -16 0
v -256 0 0
v -240 0 0
v 0 -32 0
v -16 -32 0
v -16 -16 0
v 0 -16 0
v -16 -32 0
v -32 -32 0
v -32 -16 0
v -16 -16 0
v -32 -32 0
v -48 -32 0
v -48 -16 0
v -32 -16 0
v -48 -32 0
v -64 -32 0
v -64 -16 0
v -48 -16 0
v -64 -32 0
v -80 -32 0
v -80 -16 0
v -64 -16 0
v -80 -32 0
v -96 -32 0
v -96 -16 0
v -80 -16 0
v -96 -32 0
v -112 -32 0
v -112 -16 0
v -96 -16 0
v -112 -32 0
v -128 -32 0
v -128 -16 0
v -112 -16 0
v -128 -32 0
v -144 -32 0
v -144 -16 0
v -128 -16 0
v -144 -32 0
v -160 -32 0
v -160 -16 0
v -144 -16 0
v -160 -32 0
v -176 -32 0
v -176 -16 0
v -160 -16 0
v -176 -32 0
v -192 -32 0
v -192 -16 0
v -176 -16 0
v -192 -32 0
v -208 -32 0
v -208 -16 0
v -192 -16 0
v -208 -32 0
v -224 -32 0
v -224 -16 0
v -208 -16 0
v -224 -32 0
v -240 -32 0
v -240 -16 0
v -224 -16 0
v -240 -32 0
v -256 -32 0
v -256 -16 0
v -240 -16 0
v 0 -48 0
v -16 -48 0
v -16 -32 0
v 0 -32 0
v -16 -48 0
v -32 -48 0
v -32 -32 0
v -16 -32 0
v -32 -48 0
v -48 -48 0
v -48 -32 0
v -32 -32 0
v -48 -48 0
v -64 -48 0
v -64 -32 0
v -48 -32 0
v -64 -48 0
v -80 -48 0
v -80 -32 0
v -64 -32 0
v -80 -48 0
v -96 -48 0
v -96 -32 0
v -80 -32 0
v -96 -48 0
v -112 -48 0
v -112 -32 0
v -96 -32 0
v -112 -48 0
v -128 -48 0
v -128 -32 0
v -112 -32 0
v -128 -48 0
v -144 -48 0
v -144 -32 0
v -128 -32 0
v -144 -48 0
v -160 -48 0
v -160 -32 0
v -144 -32 0
v -160 -48 0
v -176 -48 0
v -176 -32 0
v -160 -32 0
v -176 -48 0
v -192 -48 0
v -192 -32 0
v -176 -32 0
v -192 -48 0
v -208 -48 0
v -208 -32 0
v -192 -32 0
v -208 -48 0
v -224 -48 0
v -224 -32 0
v -208 -32 0
v -224 -48 0
v -240 -48 0
v -240 -32 0
v -224 -32 0
v -240 -48 0
v -256 -48 0
v -256 -32 0
v -240 -32 0
v 0 -64 0
v -16 -64 0
v -16 -48 0
v 0 -48 0
v -16 -64 0
v -32 -64 0
v -32 -48 0
v -16 -48 0
v -32 -64 0
v -48 -64 0
v -48 -48 0
v -32 -48 0
v -48 -64 0
v -64 -64 0
v -64 -48 0
v -48 -48 0
v -64 -64 0
v -80 -64 0
v -80 -48 0
v -64 -48 0
v -80 -64 0
v -96 -64 0
v -96 -48 0
v -80 -48 0
v -96 -64 0
v -112 -64 0
v -112 -48 0
v -96 -48 0
v -112 -64 0
v -128 -64 0
v -128 -48 0
v -112 -48 0
v -128 -64 0
v -144 -64 0
v -144 -48 0
v -128 -48 0
v -144 -64 0
v -160 -64 0
v -160 -48 0
v -144 -48 0
v -160 -64 0
v -176 -64 0
v -176 -48 0
v -160 -48 0
v -176 -64 0
v -192 -64 0
v -192 -48 0
v -176 -48 0
v -192 -64 0
v -208 -64 0
v -208 -48 0
v -192 -48 0
v -208 -64 0
v -224 -64 0
v -224 -48 0
v -208 -48 0
v -224 -64 0
v -240 -64 0
v -240 -48 0
v -224 -48 0
v -240 -64 0
v -256 -64 0
v -256 -48 0
v -240 -48 0
v 0 -80 0
v -16 -80 0
v -16 -64 0
v 0 -64 0
v -16 -80 0
v -32 -80 0
v -32 -64 0
v -16 -64 0
v -32 -80 0
v -48 -80 0
v -48 -64 0
v -32 -64 0
v -48 -80 0
v -64 -80 0
v -64 -64 0
v -48 -64 0
v -64 -80 0
v -80 -80 0
v -80 -64 0
v -64 -64 0
v -80 -80 0
v -96 -80 0
v -96 -64 0
v -80 -64 0
v -96 -80 0
v -112 -80 0
v -112 -64 0
v -96 -64 0
v -112 -80 0
v -128 -80 0
v -128 -64 0
v -112 -64 0
v -128 -80 0
v -144 -80 0
v -144 -64 0
v -128 -64 0
v -144 -80 0
v -160 -80 0
v -160 -64 0
v -144 -64 0
v -160 -80 0
v -176 -80 0
v -176 -64 0
v -160 -64 0
v -176 -80 0
v -192 -80 0
v -192 -64 0
v -176 -64 0
v -192 -80 0
v -208 -80 0
v -208 -64 0
v -192 -64 0
v -208 -80 0
v -224 -80 0
v -224 -64 0
v -208 -64 0
v -224 -80 0
v -240 -80 0
v -240 -64 0
v -224 -64 0
v -240 -80 0
v -256 -80 0
v -256 -64 0
v -240 -64 0
v 0 -96 0
v -16 -96 0
v -16 -80 0
v 0 -80 0
v -16 -96 0
v -32 -96 0
v -32 -80 0
v -16 -80 0
v -32 -96 0
v -48 -96 0
v -48 -80 0
v -32 -80 0
v -48 -96 0
v -64 -96 0
v -64 -80 0
v -48 -80 0
v -64 -96 0
v -80 -96 0
v -80 -80 0
v -64 -80 0
v -80 -96 0
v -96 -96 0
v -96 -80 0
v -80 -80 0
v -96 -96 0
v -112 -96 0
v -112 -80 0
v -96 -80 0
v -112 -96 0
v -128 -96 0
v -128 -80 0
v -112 -80 0
v -128 -96 0
v -144 -96 0
v -144 -80 0
v -128 -80 0
v -144 -96 0
v -160 -96 0
v -160 -80 0
v -144 -80 0
v -160 -96 0
v -176 -96 0
v -176 -80 0
v -160 -80 0
v -176 -96 0
v -192 -96 0
v -192 -80 0
v -176 -80 0
v -192 -96 0
v -208 -96 0
v -208 -80 0
v -192 -80 0
v -208 -96 0
v -224 -96 0
v -224 -80 0
v -208 -80 0
v -224 -96 0
v -240 -96 0
v -240 -80 0
v -224 -80 0
v -240 -96 0
v -256 -96 0
v -256 -80 0
v -240 -80 0
v 0 -112 0
v -16 -112 0
v -16 -96 0
v 0 -96 0
v -16 -112 0
v -32 -112 0
v -32 -96 0
v -16 -96 0
v -32 -112 0
v -48 -112 0
v -48 -96 0
v -32 -96 0
v -48 -112 0
v -64 -112 0
v -64 -96 0
v -48 -96 0
v -64 -112 0
v -80 -112 0
v -80 -96 0
v -64 -96 0
v -80 -112 0
v -96 -112 0
v -96 -96 0
v -80 -96 0
v -96 -112 0
v -112 -112 0
v -112 -96 0
v -96 -96 0
v -112 -112 0
v -128 -112 0
v -128 -96 0
v -112 -96 0
v -128 -112 0
v -144 -112 0
v -144 -96 0
v -128 -96 0
v -144 -112 0
v -160 -112 0
v -160 -96 0
v -144 -96 0
v -160 -112 0
v -176 -112 0
v -176 -96 0
v -160 -96 0
v -176 -112 0
v -192 -112 0
v -192 -96 0
v -176 -96 0
v -192 -112 0
v -208 -112 0
v -208 -96 0
v -192 -96 0
v -208 -112 0
v -224 -112 0
v -224 -96 0
v -208 -96 0
v -224 -112 0
v -240 -112 0
v -240 -96 0
v -224 -96 0
v -240 -112 0
v -256 -112 0
v -256 -96 0
v -240 -96 0
v 0 -128 0
v -16 -128 0
v -16 -112 0
v 0 -112 0
v -16 -128 0
v -32 -128 0
v -32 -112 0
v -16 -112 0
v -32 -128 0
v -48 -128 0
v -48 -112 0
v -32 -112 0
v -48 -128 0
v -64 -128 0
v -64 -112 0
v -48 -112 0
v -64 -128 0
v -80 -128 0
v -80 -112 0
v -64 -112 0
v -80 -128 0
v -96 -128 0
v -96 -112 0
v -80 -112 0
v -96 -128 0
v -112 -128 0
v -112 -112 0
v -96 -112 0
v -112 -128 0
v -128 -128 0
v -128 -112 0
v -112 -112 0
v -128 -128 0
v -144 -128 0
v -144 -112 0
v -128 -112 0
v -144 -128 0
v -160 -128 0
v -160 -112 0
v -144 -112 0
v -160 -128 0
v -176 -128 0
v -176 -112 0
v -160 -112 0
v -176 -128 0
v -192 -128 0
v -192 -112 0
v -176 -112 0
v -192 -128 0
v -208 -128 0
v -208 -112 0
v -192 -112 0
v -208 -128 0
v -224 -128 0
v -224 -112 0
v -208 -112 0
v -224 -128 0
v -240 -128 0
v -240 -112 0
v -224 -112 0
v -240 -128 0
v -256 -128 0
v -256 -112 0
v -240 -112 0
v 0 -144 0
v -16 -144 0
v -16 -128 0
v 0 -128 0
v -16 -144 0
v -32 -144 0
v -32 -128 0
v -16 -128 0
v -32 -144 0
v -48 -144 0
v -48 -128 0
v -32 -128 0
v -48 -144 0
v -64 -144 0
v -64 -128 0
v -48 -128 0
v -64 -144 0
v -80 -144 0
v -80 -128 0
v -64 -128 0
v -80 -144 0
v -96 -144 0
v -96 -128 0
v -80 -128 0
v -96 -144 0
v -112 -144 0
v -112 -128 0
v -96 -128 0
v -112 -144 0
v -128 -144 0
v -128 -128 0
v -112 -128 0
v -128 -144 0
v -144 -144 0
v -144 -128 0
v -128 -128 0
v -144 -144 0
v -160 -144 0
v -160 -128 0
v -144 -128 0
v -160 -144 0
v -176 -144 0
v -176 -128 0
v -160 -128 0
v -176 -144 0
v -192 -144 0
v -192 -128 0
v -176 -128 0
v -192 -144 0
v -208 -144 0
v -208 -128 0
v -192 -128 0
v -208 -144 0
v -224 -144 0
v -224 -128 0
v -208 -128 0
v -224 -144 0
v -240 -144 0
v -240 -128 0
v -224 -128 0
v -240 -144 0
v -256 -144 0
v -256 -128 0
v -240 -128 0
v 0 -160 0
v -16 -160 0
v -16 -144 0
v 0 -144 0
v -16 -160 0
v -32 -160 0
v -32 -144 0
v -16 -144 0
v -32 -160 0
v -48 -160 0
v -48 -144 0
v -32 -144 0
v -48 -160 0
v -64 -160 0
v -64 -144 0
v -48 -144 0
v -64 -160 0
v -80 -160 0
v -80 -144 0
v -64 -144 0
v -80 -160 0
v -96 -160 0
v -96 -144 0
v -80 -144 0
v -96 -160 0
v -112 -160 0
v -112 -144 0
v -96 -144 0
v -112 -160 0
v -128 -160 0
v -128 -144 0
v -112 -144 0
v -128 -160 0
v -144 -160 0
v -144 -144 0
v -128 -144 0
v -144 -160 0
v -160 -160 0
v -160 -144 0
v -144 -144 0
v -160 -160 0
v -176 -160 0
v -176 -144 0
v -160 -144 0
v -176 -160 0
v -192 -160 0
v -192 -144 0
v -176 -144 0
v -192 -160 0
v -208 -160 0
v -208 -144 0
v -192 -144 0
v -208 -160 0
v -224 -160 0
v -224 -144 0
v -208 -144 0
v -224 -160 0
v -240 -160 0
v -240 -144 0
v -224 -144 0
v -240 -160 0
v -256 -160 0
v -256 -144 0
v -240 -144 0
v 0 -176 0
v -16 -176 0
v -16 -160 0
v 0 -160 0
v -16 -176 0
v -32 -176 0
v -32 -160 0
v -16 -160 0
v -32 -176 0
v -48 -176 0
v -48 -160 0
v -32 -160 0
v -48 -176 0
v -64 -176 0
v -64 -160 0
v -48 -160 0
v -64 -176 0
v -80 -176 0
v -80 -160 0
v -64 -160 0
v -80 -176 0
v -96 -176 0
v -96 -160 0
v -80 -160 0
v -96 -176 0
v -112 -176 0
v -112 -160 0
v -96 -160 0
v -112 -176 0
v -128 -176 0
v -128 -160 0
v -112 -160 0
v -128 -176 0
v -144 -176 0
v -144 -160 0
v -128 -160 0
v -144 -176 0
v -160 -176 0
v -160 -160 0
v -144 -160 0
v -160 -176 0
v -176 -176 0
v -176 -160 0
v -160 -160 0
v -176 -176 0
v -192 -176 0
v -192 -160 0
v -176 -160 0
v -192 -176 0
v -208 -176 0
v -208 -160 0
v -192 -160 0
v -208 -176 0
v -224 -176 0
v -224 -160 0
v -208 -160 0
v -224 -176 0
v -240 -176 0
v -240 -160 0
v -224 -160 0
v -240 -176 0
v -256 -176 0
v -256 -160 0
v -240 -160 0
v 0 -192 0
v -16 -192 0
v -16 -176 0
v 0 -176 0
v -16 -192 0
v -32 -192 0
v -32 -176 0
v -16 -176 0
v -32 -192 0
v -48 -192 0
v -48 -176 0
v -32 -176 0
v -48 -192 0
v -64 -192 0
v -64 -176 0
v -48 -176 0
v -64 -192 0
v -80 -192 0
v -80 -176 0
v -64 -176 0
v -80 -192 0
v -96 -192 0
v -96 -176 0
v -80 -176 0
v -96 -192 0
v -112 -192 0
v -112 -176 0
v -96 -176 0
v -112 -192 0
v -128 -192 0
v -128 -176 0
v -112 -176 0
v -128 -192 0
v -144 -192 0
v -144 -176 0
v -128 -176 0
v -144 -192 0
v -160 -192 0
v -160 -176 0
v -144 -176 0
v -160 -192 0
v -176 -192 0
v -176 -176 0
v -160 -176 0
v -176 -192 0
v -192 -192 0
v -192 -176 0
v -176 -176 0
v -192 -192 0
v -208 -192 0
v -208 -176 0
v -192 -176 0
v -208 -192 0
v -224 -192 0
v -224 -176 0
v -208 -176 0
v -224 -192 0
v -240 -192 0
v -240 -176 0
v -224 -176 0
v -240 -192 0
v -256 -192 0
v -256 -176 0
v -240 -176 0
v 0 -208 0
v -16 -208 0
v -16 -192 0
v 0 -192 0
v -16 -208 0
v -32 -208 0
v -32 -192 0
v -16 -192 0
v -32 -208 0
v -48 -208 0
v -48 -192 0
v -32 -192 0
v -48 -208 0
v -64 -208 0
v -64 -192 0
v -48 -192 0
v -64 -208 0
v -80 -208 0
v -80 -192 0
v -64 -192 0
v -80 -208 0
v -96 -208 0
v -96 -192 0
v -80 -192 0
v -96 -208 0
v -112 -208 0
v -112 -192 0
v -96 -192 0
v -112 -208 0
v -128 -208 0
v -128 -192 0
v -112 -192 0
v -128 -208 0
v -144 -208 0
v -144 -192 0
v -128 -192 0
v -144 -208 0
v -160 -208 0
v -160 -192 0
v -144 -192 0
v -160 -208 0
v -176 -208 0
v -176 -192 0
v -160 -192 0
v -176 -208 0
v -192 -208 0
v -192 -192 0
v -176 -192 0
v -192 -208 0
v -208 -208 0
v -208 -192 0
v -192 -192 0
v -208 -208 0
v -224 -208 0
v -224 -192 0
v -208 -192 0
v -224 -208 0
v -240 -208 0
v -240 -192 0
v -224 -192 0
v -240 -208 0
v -256 -208 0
v -256 -192 0
v -240 -192 0
v 0 -224 0
v -16 -224 0
v -16 -208 0
v 0 -208 0
v -16 -224 0
v -32 -224 0
v -32 -208 0
v -16 -208 0
v -32 -224 0
v -48 -224 0
v -48 -208 0
v -32 -208 0
v -48 -224 0
v -64 -224 0
v -64 -208 0
v -48 -208 0
v -64 -224 0
v -80 -224 0
v -80 -208 0
v -64 -208 0
v -80 -224 0
v -96 -224 0
v -96 -208 0
v -80 -208 0
v -96 -224 0
v -112 -224 0
v -112 -208 0
v -96 -208 0
v -112 -224 0
v -128 -224 0
v -128 -208 0
v -112 -208 0
v -128 -224 0
v -144 -224 0
v -144 -208 0
v -128 -208 0
v -144 -224 0
v -160 -224 0
v -160 -208 0
v -144 -208 0
v -160 -224 0
v -176 -224 0
v -176 -208 0
v -160 -208 0
v -176 -224 0
v -192 -224 0
v -192 -208 0
v -176 -208 0
v -192 -224 0
v -208 -224 0
v -208 -208 0
v -192 -208 0
v -208 -224 0
v -224 -224 0
v -224 -208 0
v -208 -208 0
v -224 -224 0
v -240 -224 0
v -240 -208 0
v -224 -208 0
v -240 -224 0
v -256 -224 0
v -256 -208 0
v -240 -208 0
v 0 -240 0
v -16 -240 0
v -16 -224 0
v 0 -224 0
v -16 -240 0
v -32 -240 0
v -32 -224 0
v -16 -224 0
v -32 -240 0
v -48 -240 0
v -48 -224 0
v -32 -224 0
v -48 -240 0
v -64 -240 0
v -64 -224 0
v -48 -224 0
v -64 -240 0
v -80 -240 0
v -80 -224 0
v -64 -224 0
v -80 -240 0
v -96 -240 0
v -96 -224 0
v -80 -224 0
v -96 -240 0
v -112 -240 0
v -112 -224 0
v -96 -224 0
v -112 -240 0
v -128 -240 0
v -128 -224 0
v -112 -224 0
v -128 -240 0
v -144 -240 0
v -144 -224 0
v -128 -224 0
v -144 -240 0
v -160 -240 0
v -160 -224 0
v -144 -224 0
v -160 -240 0
v -176 -240 0
v -176 -224 0
v -160 -224 0
v -176 -240 0
v -192 -240 0
v -192 -224 0
v -176 -224 0
v -192 -240 0
v -208 -240 0
v -208 -224 0
v -192 -224 0
v -208 -240 0
v -224 -240 0
v -224 -224 0
v -208 -224 0
v -224 -240 0
v -240 -240 0
v -240 -224 0
v -224 -224 0
v -240 -240 0
v -256 -240 0
v -256 -224 0
v -240 -224 0
v 0 -256 0
v -16 -256 0
v -16 -240 0
v 0 -240 0
v -16 -256 0
v -32 -256 0
v -32 -240 0
v -16 -240 0
v -32 -256 0
v -48 -256 0
v -48 -240 0
v -32 -240 0
v -48 -256 0
v -64 -256 0
v -64 -240 0
v -48 -240 0
v -64 -256 0
v -80 -256 0
v -80 -240 0
v -64 -240 0
v -80 -256 0
v -96 -256 0
v -96 -240 0
v -80 -240 0
v -96 -256 0
v -112 -256 0
v -112 -240 0
v -96 -240 0
v -112 -256 0
v -128 -256 0
v -128 -240 0
v -112 -240 0
v -128 -256 0
v -144 -256 0
v -144 -240 0
v -128 -240 0
v -144 -256 0
v -160 -256 0
v -160 -240 0
v -144 -240 0
v -160 -256 0
v -176 -256 0
v -176 -240 0
v -160 -240 0
v -176 -256 0
v -192 -256 0
v -192 -240 0
v -176 -240 0
v -192 -256 0
v -208 -256 0
v -208 -240 0
v -192 -240 0
v -208 -256 0
v -224 -256 0
v -224 -240 0
v -208 -240 0
v -224 -256 0
v -240 -256 0
v -240 -240 0
v -224 -240 0
v -240 -256 0
v -256 -256 0
v -256 -240 0
v -240 -240 0

# Texture cooridinates (Count = 22)
vt 0 0.4285714
vt 0.04347826 0.4285714
vt 0.04347826 0.5
vt 0 0.5
vt 0.04347826 0.6428571
vt 0.08695652 0.6428571
vt 0.08695652 0.7142857
vt 0.04347826 0.7142857
vt 0.04347826 0.5714285
vt 0 0.5714285
vt 0.1304348 0.4285714
vt 0.173913 0.4285714
vt 0.173913 0.5
vt 0.1304348 0.5
vt 0.08695652 0.5714285
vt 0.1304348 0.5714285
vt 0.1304348 0.6428571
vt 0.173913 0.5714285
vt 0.1304348 0.7857143
vt 0.173913 0.7857143
vt 0.173913 0.8571429
vt 0.1304348 0.8571429

# Normal
vn 0 0 -1

# Mesh description
g Level3_mesh_0012

# Faces
f 1/1/1 2/2/1 3/3/1 4/4/1
f 5/5/1 6/6/1 7/7/1 8/8/1
f 9/1/1 10/2/1 11/3/1 12/4/1
f 13/4/1 14/3/1 15/9/1 16/10/1
f 17/11/1 18/12/1 19/13/1 20/14/1
f 21/15/1 22/16/1 23/17/1 24/6/1
f 25/11/1 26/12/1 27/13/1 28/14/1
f 29/5/1 30/6/1 31/7/1 32/8/1
f 33/1/1 34/2/1 35/3/1 36/4/1
f 37/14/1 38/13/1 39/18/1 40/16/1
f 41/4/1 42/3/1 43/9/1 44/10/1
f 45/14/1 46/13/1 47/18/1 48/16/1
f 49/5/1 50/6/1 51/7/1 52/8/1
f 53/11/1 54/12/1 55/13/1 56/14/1
f 57/11/1 58/12/1 59/13/1 60/14/1
f 61/1/1 62/2/1 63/3/1 64/4/1
f 65/15/1 66/16/1 67/17/1 68/6/1
f 69/4/1 70/3/1 71/9/1 72/10/1
f 73/1/1 74/2/1 75/3/1 76/4/1
f 77/4/1 78/3/1 79/9/1 80/10/1
f 81/5/1 82/6/1 83/7/1 84/8/1
f 85/1/1 86/2/1 87/3/1 88/4/1
f 89/4/1 90/3/1 91/9/1 92/10/1
f 93/11/1 94/12/1 95/13/1 96/14/1
f 97/1/1 98/2/1 99/3/1 100/4/1
f 101/1/1 102/2/1 103/3/1 104/4/1
f 105/11/1 106/12/1 107/13/1 108/14/1
f 109/11/1 110/12/1 111/13/1 112/14/1
f 113/4/1 114/3/1 115/9/1 116/10/1
f 117/11/1 118/12/1 119/13/1 120/14/1
f 121/11/1 122/12/1 123/13/1 124/14/1
f 125/11/1 126/12/1 127/13/1 128/14/1
f 129/14/1 130/13/1 131/18/1 132/16/1
f 133/14/1 134/13/1 135/18/1 136/16/1
f 137/14/1 138/13/1 139/18/1 140/16/1
f 141/14/1 142/13/1 143/18/1 144/16/1
f 145/14/1 146/13/1 147/18/1 148/16/1
f 149/14/1 150/13/1 151/18/1 152/16/1
f 153/14/1 154/13/1 155/18/1 156/16/1
f 157/14/1 158/13/1 159/18/1 160/16/1
f 161/14/1 162/13/1 163/18/1 164/16/1
f 165/14/1 166/13/1 167/18/1 168/16/1
f 169/14/1 170/13/1 171/18/1 172/16/1
f 173/14/1 174/13/1 175/18/1 176/16/1
f 177/14/1 178/13/1 179/18/1 180/16/1
f 181/14/1 182/13/1 183/18/1 184/16/1
f 185/14/1 186/13/1 187/18/1 188/16/1
f 189/14/1 190/13/1 191/18/1 192/16/1
f 193/14/1 194/13/1 195/18/1 196/16/1
f 197/14/1 198/13/1 199/18/1 200/16/1
f 201/14/1 202/13/1 203/18/1 204/16/1
f 205/14/1 206/13/1 207/18/1 208/16/1
f 209/14/1 210/13/1 211/18/1 212/16/1
f 213/14/1 214/13/1 215/18/1 216/16/1
f 217/14/1 218/13/1 219/18/1 220/16/1
f 221/14/1 222/13/1 223/18/1 224/16/1
f 225/14/1 226/13/1 227/18/1 228/16/1
f 229/14/1 230/13/1 231/18/1 232/16/1
f 233/14/1 234/13/1 235/18/1 236/16/1
f 237/14/1 238/13/1 239/18/1 240/16/1
f 241/14/1 242/13/1 243/18/1 244/16/1
f 245/14/1 246/13/1 247/18/1 248/16/1
f 249/14/1 250/13/1 251/18/1 252/16/1
f 253/14/1 254/13/1 255/18/1 256/16/1
f 257/14/1 258/13/1 259/18/1 260/16/1
f 261/14/1 262/13/1 263/18/1 264/16/1
f 265/14/1 266/13/1 267/18/1 268/16/1
f 269/14/1 270/13/1 271/18/1 272/16/1
f 273/14/1 274/13/1 275/18/1 276/16/1
f 277/14/1 278/13/1 279/18/1 280/16/1
f 281/14/1 282/13/1 283/18/1 284/16/1
f 285/14/1 286/13/1 287/18/1 288/16/1
f 289/14/1 290/13/1 291/18/1 292/16/1
f 293/14/1 294/13/1 295/18/1 296/16/1
f 297/14/1 298/13/1 299/18/1 300/16/1
f 301/14/1 302/13/1 303/18/1 304/16/1
f 305/14/1 306/13/1 307/18/1 308/16/1
f 309/14/1 310/13/1 311/18/1 312/16/1
f 313/14/1 314/13/1 315/18/1 316/16/1
f 317/14/1 318/13/1 319/18/1 320/16/1
f 321/15/1 322/16/1 323/17/1 324/6/1
f 325/4/1 326/3/1 327/9/1 328/10/1
f 329/11/1 330/12/1 331/13/1 332/14/1
f 333/4/1 334/3/1 335/9/1 336/10/1
f 337/11/1 338/12/1 339/13/1 340/14/1
f 341/1/1 342/2/1 343/3/1 344/4/1
f 345/15/1 346/16/1 347/17/1 348/6/1
f 349/5/1 350/6/1 351/7/1 352/8/1
f 353/5/1 354/6/1 355/7/1 356/8/1
f 357/11/1 358/12/1 359/13/1 360/14/1
f 361/15/1 362/16/1 363/17/1 364/6/1
f 365/15/1 366/16/1 367/17/1 368/6/1
f 369/4/1 370/3/1 371/9/1 372/10/1
f 373/15/1 374/16/1 375/17/1 376/6/1
f 377/4/1 378/3/1 379/9/1 380/10/1
f 381/4/1 382/3/1 383/9/1 384/10/1
f 385/14/1 386/13/1 387/18/1 388/16/1
f 389/14/1 390/13/1 391/18/1 392/16/1
f 393/14/1 394/13/1 395/18/1 396/16/1
f 397/14/1 398/13/1 399/18/1 400/16/1
f 401/14/1 402/13/1 403/18/1 404/16/1
f 405/14/1 406/13/1 407/18/1 408/16/1
f 409/14/1 410/13/1 411/18/1 412/16/1
f 413/14/1 414/13/1 415/18/1 416/16/1
f 417/14/1 418/13/1 419/18/1 420/16/1
f 421/14/1 422/13/1 423/18/1 424/16/1
f 425/14/1 426/13/1 427/18/1 428/16/1
f 429/14/1 430/13/1 431/18/1 432/16/1
f 433/14/1 434/13/1 435/18/1 436/16/1
f 437/14/1 438/13/1 439/18/1 440/16/1
f 441/14/1 442/13/1 443/18/1 444/16/1
f 445/14/1 446/13/1 447/18/1 448/16/1
f 449/19/1 450/20/1 451/21/1 452/22/1
f 453/19/1 454/20/1 455/21/1 456/22/1
f 457/19/1 458/20/1 459/21/1 460/22/1
f 461/19/1 462/20/1 463/21/1 464/22/1
f 465/19/1 466/20/1 467/21/1 468/22/1
f 469/19/1 470/20/1 471/21/1 472/22/1
f 473/19/1 474/20/1 475/21/1 476/22/1
f 477/19/1 478/20/1 479/21/1 480/22/1
f 481/19/1 482/20/1 483/21/1 484/22/1
f 485/19/1 486/20/1 487/21/1 488/22/1
f 489/19/1 490/20/1 491/21/1 492/22/1
f 493/19/1 494/20/1 495/21/1 496/22/1
f 497/19/1 498/20/1 499/21/1 500/22/1
f 501/19/1 502/20/1 503/21/1 504/22/1
f 505/19/1 506/20/1 507/21/1 508/22/1
f 509/19/1 510/20/1 511/21/1 512/22/1
f 513/19/1 514/20/1 515/21/1 516/22/1
f 517/19/1 518/20/1 519/21/1 520/22/1
f 521/19/1 522/20/1 523/21/1 524/22/1
f 525/19/1 526/20/1 527/21/1 528/22/1
f 529/19/1 530/20/1 531/21/1 532/22/1
f 533/19/1 534/20/1 535/21/1 536/22/1
f 537/19/1 538/20/1 539/21/1 540/22/1
f 541/19/1 542/20/1 543/21/1 544/22/1
f 545/19/1 546/20/1 547/21/1 548/22/1
f 549/19/1 550/20/1 551/21/1 552/22/1
f 553/19/1 554/20/1 555/21/1 556/22/1
f 557/19/1 558/20/1 559/21/1 560/22/1
f 561/19/1 562/20/1 563/21/1 564/22/1
f 565/19/1 566/20/1 567/21/1 568/22/1
f 569/19/1 570/20/1 571/21/1 572/22/1
f 573/19/1 574/20/1 575/21/1 576/22/1
f 577/19/1 578/20/1 579/21/1 580/22/1
f 581/19/1 582/20/1 583/21/1 584/22/1
f 585/19/1 586/20/1 587/21/1 588/22/1
f 589/19/1 590/20/1 591/21/1 592/22/1
f 593/19/1 594/20/1 595/21/1 596/22/1
f 597/19/1 598/20/1 599/21/1 600/22/1
f 601/19/1 602/20/1 603/21/1 604/22/1
f 605/19/1 606/20/1 607/21/1 608/22/1
f 609/19/1 610/20/1 611/21/1 612/22/1
f 613/19/1 614/20/1 615/21/1 616/22/1
f 617/19/1 618/20/1 619/21/1 620/22/1
f 621/19/1 622/20/1 623/21/1 624/22/1
f 625/19/1 626/20/1 627/21/1 628/22/1
f 629/19/1 630/20/1 631/21/1 632/22/1
f 633/19/1 634/20/1 635/21/1 636/22/1
f 637/19/1 638/20/1 639/21/1 640/22/1
f 641/19/1 642/20/1 643/21/1 644/22/1
f 645/19/1 646/20/1 647/21/1 648/22/1
f 649/19/1 650/20/1 651/21/1 652/22/1
f 653/19/1 654/20/1 655/21/1 656/22/1
f 657/19/1 658/20/1 659/21/1 660/22/1
f 661/19/1 662/20/1 663/21/1 664/22/1
f 665/19/1 666/20/1 667/21/1 668/22/1
f 669/19/1 670/20/1 671/21/1 672/22/1
f 673/19/1 674/20/1 675/21/1 676/22/1
f 677/19/1 678/20/1 679/21/1 680/22/1
f 681/19/1 682/20/1 683/21/1 684/22/1
f 685/19/1 686/20/1 687/21/1 688/22/1
f 689/19/1 690/20/1 691/21/1 692/22/1
f 693/19/1 694/20/1 695/21/1 696/22/1
f 697/19/1 698/20/1 699/21/1 700/22/1
f 701/19/1 702/20/1 703/21/1 704/22/1
f 705/19/1 706/20/1 707/21/1 708/22/1
f 709/19/1 710/20/1 711/21/1 712/22/1
f 713/19/1 714/20/1 715/21/1 716/22/1
f 717/19/1 718/20/1 719/21/1 720/22/1
f 721/19/1 722/20/1 723/21/1 724/22/1
f 725/19/1 726/20/1 727/21/1 728/22/1
f 729/19/1 730/20/1 731/21/1 732/22/1
f 733/19/1 734/20/1 735/21/1 736/22/1
f 737/19/1 738/20/1 739/21/1 740/22/1
f 741/19/1 742/20/1 743/21/1 744/22/1
f 745/19/1 746/20/1 747/21/1 748/22/1
f 749/19/1 750/20/1 751/21/1 752/22/1
f 753/19/1 754/20/1 755/21/1 756/22/1
f 757/19/1 758/20/1 759/21/1 760/22/1
f 761/19/1 762/20/1 763/21/1 764/22/1
f 765/19/1 766/20/1 767/21/1 768/22/1
f 769/19/1 770/20/1 771/21/1 772/22/1
f 773/19/1 774/20/1 775/21/1 776/22/1
f 777/19/1 778/20/1 779/21/1 780/22/1
f 781/19/1 782/20/1 783/21/1 784/22/1
f 785/19/1 786/20/1 787/21/1 788/22/1
f 789/19/1 790/20/1 791/21/1 792/22/1
f 793/19/1 794/20/1 795/21/1 796/22/1
f 797/19/1 798/20/1 799/21/1 800/22/1
f 801/19/1 802/20/1 803/21/1 804/22/1
f 805/19/1 806/20/1 807/21/1 808/22/1
f 809/19/1 810/20/1 811/21/1 812/22/1
f 813/19/1 814/20/1 815/21/1 816/22/1
f 817/19/1 818/20/1 819/21/1 820/22/1
f 821/19/1 822/20/1 823/21/1 824/22/1
f 825/19/1 826/20/1 827/21/1 828/22/1
f 829/19/1 830/20/1 831/21/1 832/22/1
f 833/19/1 834/20/1 835/21/1 836/22/1
f 837/19/1 838/20/1 839/21/1 840/22/1
f 841/19/1 842/20/1 843/21/1 844/22/1
f 845/19/1 846/20/1 847/21/1 848/22/1
f 849/19/1 850/20/1 851/21/1 852/22/1
f 853/19/1 854/20/1 855/21/1 856/22/1
f 857/19/1 858/20/1 859/21/1 860/22/1
f 861/19/1 862/20/1 863/21/1 864/22/1
f 865/19/1 866/20/1 867/21/1 868/22/1
f 869/19/1 870/20/1 871/21/1 872/22/1
f 873/19/1 874/20/1 875/21/1 876/22/1
f 877/19/1 878/20/1 879/21/1 880/22/1
f 881/19/1 882/20/1 883/21/1 884/22/1
f 885/19/1 886/20/1 887/21/1 888/22/1
f 889/19/1 890/20/1 891/21/1 892/22/1
f 893/19/1 894/20/1 895/21/1 896/22/1
f 897/14/1 898/13/1 899/18/1 900/16/1
f 901/19/1 902/20/1 903/21/1 904/22/1
f 905/19/1 906/20/1 907/21/1 908/22/1
f 909/19/1 910/20/1 911/21/1 912/22/1
f 913/19/1 914/20/1 915/21/1 916/22/1
f 917/19/1 918/20/1 919/21/1 920/22/1
f 921/19/1 922/20/1 923/21/1 924/22/1
f 925/19/1 926/20/1 927/21/1 928/22/1
f 929/19/1 930/20/1 931/21/1 932/22/1
f 933/19/1 934/20/1 935/21/1 936/22/1
f 937/19/1 938/20/1 939/21/1 940/22/1
f 941/19/1 942/20/1 943/21/1 944/22/1
f 945/19/1 946/20/1 947/21/1 948/22/1
f 949/19/1 950/20/1 951/21/1 952/22/1
f 953/19/1 954/20/1 955/21/1 956/22/1
f 957/19/1 958/20/1 959/21/1 960/22/1
f 961/14/1 962/13/1 963/18/1 964/16/1
f 965/19/1 966/20/1 967/21/1 968/22/1
f 969/19/1 970/20/1 971/21/1 972/22/1
f 973/19/1 974/20/1 975/21/1 976/22/1
f 977/19/1 978/20/1 979/21/1 980/22/1
f 981/19/1 982/20/1 983/21/1 984/22/1
f 985/19/1 986/20/1 987/21/1 988/22/1
f 989/19/1 990/20/1 991/21/1 992/22/1
f 993/19/1 994/20/1 995/21/1 996/22/1
f 997/19/1 998/20/1 999/21/1 1000/22/1
f 1001/19/1 1002/20/1 1003/21/1 1004/22/1
f 1005/19/1 1006/20/1 1007/21/1 1008/22/1
f 1009/19/1 1010/20/1 1011/21/1 1012/22/1
f 1013/19/1 1014/20/1 1015/21/1 1016/22/1
f 1017/19/1 1018/20/1 1019/21/1 1020/22/1
f 1021/19/1 1022/20/1 1023/21/1 1024/22/1

