# Tiled2Unity generated file. Do not modify by hand.
# Wavefront file for 'Level3_mesh_0099.obj'

# Vertices (Count = 180)
v 0 -112 0
v -16 -112 0
v -16 -96 0
v 0 -96 0
v -16 -112 0
v -32 -112 0
v -32 -96 0
v -16 -96 0
v -48 -112 0
v -64 -112 0
v -64 -96 0
v -48 -96 0
v -64 -112 0
v -80 -112 0
v -80 -96 0
v -64 -96 0
v -80 -112 0
v -96 -112 0
v -96 -96 0
v -80 -96 0
v -96 -112 0
v -112 -112 0
v -112 -96 0
v -96 -96 0
v -112 -112 0
v -128 -112 0
v -128 -96 0
v -112 -96 0
v -128 -112 0
v -144 -112 0
v -144 -96 0
v -128 -96 0
v -144 -112 0
v -160 -112 0
v -160 -96 0
v -144 -96 0
v -176 -112 0
v -192 -112 0
v -192 -96 0
v -176 -96 0
v -192 -112 0
v -208 -112 0
v -208 -96 0
v -192 -96 0
v -208 -112 0
v -224 -112 0
v -224 -96 0
v -208 -96 0
v -224 -112 0
v -240 -112 0
v -240 -96 0
v -224 -96 0
v -240 -112 0
v -256 -112 0
v -256 -96 0
v -240 -96 0
v -16 -128 0
v -32 -128 0
v -32 -112 0
v -16 -112 0
v -32 -128 0
v -48 -128 0
v -48 -112 0
v -32 -112 0
v -48 -128 0
v -64 -128 0
v -64 -112 0
v -48 -112 0
v -144 -128 0
v -160 -128 0
v -160 -112 0
v -144 -112 0
v -176 -128 0
v -192 -128 0
v -192 -112 0
v -176 -112 0
v -240 -128 0
v -256 -128 0
v -256 -112 0
v -240 -112 0
v -144 -144 0
v -160 -144 0
v -160 -128 0
v -144 -128 0
v -176 -144 0
v -192 -144 0
v -192 -128 0
v -176 -128 0
v -144 -160 0
v -160 -160 0
v -160 -144 0
v -144 -144 0
v -176 -160 0
v -192 -160 0
v -192 -144 0
v -176 -144 0
v -144 -176 0
v -160 -176 0
v -160 -160 0
v -144 -160 0
v -176 -176 0
v -192 -176 0
v -192 -160 0
v -176 -160 0
v -16 -192 0
v -32 -192 0
v -32 -176 0
v -16 -176 0
v -32 -192 0
v -48 -192 0
v -48 -176 0
v -32 -176 0
v -48 -192 0
v -64 -192 0
v -64 -176 0
v -48 -176 0
v -144 -192 0
v -160 -192 0
v -160 -176 0
v -144 -176 0
v -176 -192 0
v -192 -192 0
v -192 -176 0
v -176 -176 0
v -16 -208 0
v -32 -208 0
v -32 -192 0
v -16 -192 0
v -48 -208 0
v -64 -208 0
v -64 -192 0
v -48 -192 0
v -144 -208 0
v -160 -208 0
v -160 -192 0
v -144 -192 0
v -160 -208 0
v -176 -208 0
v -176 -192 0
v -160 -192 0
v -176 -208 0
v -192 -208 0
v -192 -192 0
v -176 -192 0
v -16 -224 0
v -32 -224 0
v -32 -208 0
v -16 -208 0
v -48 -224 0
v -64 -224 0
v -64 -208 0
v -48 -208 0
v -240 -224 0
v -256 -224 0
v -256 -208 0
v -240 -208 0
v -16 -240 0
v -32 -240 0
v -32 -224 0
v -16 -224 0
v -48 -240 0
v -64 -240 0
v -64 -224 0
v -48 -224 0
v -240 -240 0
v -256 -240 0
v -256 -224 0
v -240 -224 0
v -16 -256 0
v -32 -256 0
v -32 -240 0
v -16 -240 0
v -48 -256 0
v -64 -256 0
v -64 -240 0
v -48 -240 0
v -240 -256 0
v -256 -256 0
v -256 -240 0
v -240 -240 0

# Texture cooridinates (Count = 26)
vt 0.1304348 0.6428571
vt 0.173913 0.6428571
vt 0.173913 0.7142857
vt 0.1304348 0.7142857
vt 0.08695652 0.7142857
vt 0.1304348 0.7857143
vt 0.08695652 0.7857143
vt 0.2173913 0.7142857
vt 0.2173913 0.7857143
vt 0.173913 0.7857143
vt 0.08695652 0.6428571
vt 0.2173913 0.6428571
vt 0.04347826 0.7857143
vt 0.08695652 0.8571429
vt 0.04347826 0.8571429
vt 0.2608696 0.7857143
vt 0.2608696 0.8571429
vt 0.2173913 0.8571429
vt 0.08695652 0.9285714
vt 0.1304348 0.9285714
vt 0.1304348 1
vt 0.08695652 1
vt 0.173913 0.9285714
vt 0.173913 1
vt 0.2173913 0.9285714
vt 0.2173913 1

# Normal
vn 0 0 -1

# Mesh description
g Level3_mesh_0099

# Faces
f 1/1/1 2/2/1 3/3/1 4/4/1
f 5/5/1 6/4/1 7/6/1 8/7/1
f 9/3/1 10/8/1 11/9/1 12/10/1
f 13/1/1 14/2/1 15/3/1 16/4/1
f 17/1/1 18/2/1 19/3/1 20/4/1
f 21/1/1 22/2/1 23/3/1 24/4/1
f 25/1/1 26/2/1 27/3/1 28/4/1
f 29/1/1 30/2/1 31/3/1 32/4/1
f 33/5/1 34/4/1 35/6/1 36/7/1
f 37/3/1 38/8/1 39/9/1 40/10/1
f 41/1/1 42/2/1 43/3/1 44/4/1
f 45/1/1 46/2/1 47/3/1 48/4/1
f 49/1/1 50/2/1 51/3/1 52/4/1
f 53/5/1 54/4/1 55/6/1 56/7/1
f 57/11/1 58/1/1 59/4/1 60/5/1
f 61/1/1 62/2/1 63/3/1 64/4/1
f 65/2/1 66/12/1 67/8/1 68/3/1
f 69/13/1 70/7/1 71/14/1 72/15/1
f 73/9/1 74/16/1 75/17/1 76/18/1
f 77/11/1 78/1/1 79/4/1 80/5/1
f 81/13/1 82/7/1 83/14/1 84/15/1
f 85/9/1 86/16/1 87/17/1 88/18/1
f 89/13/1 90/7/1 91/14/1 92/15/1
f 93/9/1 94/16/1 95/17/1 96/18/1
f 97/13/1 98/7/1 99/14/1 100/15/1
f 101/9/1 102/16/1 103/17/1 104/18/1
f 105/19/1 106/20/1 107/21/1 108/22/1
f 109/20/1 110/23/1 111/24/1 112/21/1
f 113/23/1 114/25/1 115/26/1 116/24/1
f 117/13/1 118/7/1 119/14/1 120/15/1
f 121/9/1 122/16/1 123/17/1 124/18/1
f 125/13/1 126/7/1 127/14/1 128/15/1
f 129/9/1 130/16/1 131/17/1 132/18/1
f 133/11/1 134/1/1 135/4/1 136/5/1
f 137/1/1 138/2/1 139/3/1 140/4/1
f 141/2/1 142/12/1 143/8/1 144/3/1
f 145/13/1 146/7/1 147/14/1 148/15/1
f 149/9/1 150/16/1 151/17/1 152/18/1
f 153/19/1 154/20/1 155/21/1 156/22/1
f 157/13/1 158/7/1 159/14/1 160/15/1
f 161/9/1 162/16/1 163/17/1 164/18/1
f 165/13/1 166/7/1 167/14/1 168/15/1
f 169/13/1 170/7/1 171/14/1 172/15/1
f 173/9/1 174/16/1 175/17/1 176/18/1
f 177/13/1 178/7/1 179/14/1 180/15/1

