# Tiled2Unity generated file. Do not modify by hand.
# Wavefront file for 'Level3_mesh_0038.obj'

# Vertices (Count = 908)
v -16 -16 0
v -32 -16 0
v -32 0 0
v -16 0 0
v -32 -16 0
v -48 -16 0
v -48 0 0
v -32 0 0
v -48 -16 0
v -64 -16 0
v -64 0 0
v -48 0 0
v -64 -16 0
v -80 -16 0
v -80 0 0
v -64 0 0
v -80 -16 0
v -96 -16 0
v -96 0 0
v -80 0 0
v -96 -16 0
v -112 -16 0
v -112 0 0
v -96 0 0
v -16 -32 0
v -32 -32 0
v -32 -16 0
v -16 -16 0
v -32 -32 0
v -48 -32 0
v -48 -16 0
v -32 -16 0
v -48 -32 0
v -64 -32 0
v -64 -16 0
v -48 -16 0
v -64 -32 0
v -80 -32 0
v -80 -16 0
v -64 -16 0
v -80 -32 0
v -96 -32 0
v -96 -16 0
v -80 -16 0
v -96 -32 0
v -112 -32 0
v -112 -16 0
v -96 -16 0
v -208 -32 0
v -224 -32 0
v -224 -16 0
v -208 -16 0
v -224 -32 0
v -240 -32 0
v -240 -16 0
v -224 -16 0
v -240 -32 0
v -256 -32 0
v -256 -16 0
v -240 -16 0
v 0 -48 0
v -16 -48 0
v -16 -32 0
v 0 -32 0
v -144 -48 0
v -160 -48 0
v -160 -32 0
v -144 -32 0
v -160 -48 0
v -176 -48 0
v -176 -32 0
v -160 -32 0
v -176 -48 0
v -192 -48 0
v -192 -32 0
v -176 -32 0
v -192 -48 0
v -208 -48 0
v -208 -32 0
v -192 -32 0
v -208 -48 0
v -224 -48 0
v -224 -32 0
v -208 -32 0
v -224 -48 0
v -240 -48 0
v -240 -32 0
v -224 -32 0
v -240 -48 0
v -256 -48 0
v -256 -32 0
v -240 -32 0
v 0 -64 0
v -16 -64 0
v -16 -48 0
v 0 -48 0
v -16 -64 0
v -32 -64 0
v -32 -48 0
v -16 -48 0
v -32 -64 0
v -48 -64 0
v -48 -48 0
v -32 -48 0
v -48 -64 0
v -64 -64 0
v -64 -48 0
v -48 -48 0
v -64 -64 0
v -80 -64 0
v -80 -48 0
v -64 -48 0
v -80 -64 0
v -96 -64 0
v -96 -48 0
v -80 -48 0
v -96 -64 0
v -112 -64 0
v -112 -48 0
v -96 -48 0
v -112 -64 0
v -128 -64 0
v -128 -48 0
v -112 -48 0
v -128 -64 0
v -144 -64 0
v -144 -48 0
v -128 -48 0
v -144 -64 0
v -160 -64 0
v -160 -48 0
v -144 -48 0
v -160 -64 0
v -176 -64 0
v -176 -48 0
v -160 -48 0
v -176 -64 0
v -192 -64 0
v -192 -48 0
v -176 -48 0
v -192 -64 0
v -208 -64 0
v -208 -48 0
v -192 -48 0
v -208 -64 0
v -224 -64 0
v -224 -48 0
v -208 -48 0
v -224 -64 0
v -240 -64 0
v -240 -48 0
v -224 -48 0
v -240 -64 0
v -256 -64 0
v -256 -48 0
v -240 -48 0
v 0 -80 0
v -16 -80 0
v -16 -64 0
v 0 -64 0
v -16 -80 0
v -32 -80 0
v -32 -64 0
v -16 -64 0
v -32 -80 0
v -48 -80 0
v -48 -64 0
v -32 -64 0
v -48 -80 0
v -64 -80 0
v -64 -64 0
v -48 -64 0
v -64 -80 0
v -80 -80 0
v -80 -64 0
v -64 -64 0
v -80 -80 0
v -96 -80 0
v -96 -64 0
v -80 -64 0
v -96 -80 0
v -112 -80 0
v -112 -64 0
v -96 -64 0
v -112 -80 0
v -128 -80 0
v -128 -64 0
v -112 -64 0
v -128 -80 0
v -144 -80 0
v -144 -64 0
v -128 -64 0
v -144 -80 0
v -160 -80 0
v -160 -64 0
v -144 -64 0
v -160 -80 0
v -176 -80 0
v -176 -64 0
v -160 -64 0
v -176 -80 0
v -192 -80 0
v -192 -64 0
v -176 -64 0
v -192 -80 0
v -208 -80 0
v -208 -64 0
v -192 -64 0
v -208 -80 0
v -224 -80 0
v -224 -64 0
v -208 -64 0
v -224 -80 0
v -240 -80 0
v -240 -64 0
v -224 -64 0
v -240 -80 0
v -256 -80 0
v -256 -64 0
v -240 -64 0
v 0 -96 0
v -16 -96 0
v -16 -80 0
v 0 -80 0
v -16 -96 0
v -32 -96 0
v -32 -80 0
v -16 -80 0
v -32 -96 0
v -48 -96 0
v -48 -80 0
v -32 -80 0
v -48 -96 0
v -64 -96 0
v -64 -80 0
v -48 -80 0
v -64 -96 0
v -80 -96 0
v -80 -80 0
v -64 -80 0
v -80 -96 0
v -96 -96 0
v -96 -80 0
v -80 -80 0
v -96 -96 0
v -112 -96 0
v -112 -80 0
v -96 -80 0
v -112 -96 0
v -128 -96 0
v -128 -80 0
v -112 -80 0
v -128 -96 0
v -144 -96 0
v -144 -80 0
v -128 -80 0
v -144 -96 0
v -160 -96 0
v -160 -80 0
v -144 -80 0
v -160 -96 0
v -176 -96 0
v -176 -80 0
v -160 -80 0
v -176 -96 0
v -192 -96 0
v -192 -80 0
v -176 -80 0
v -192 -96 0
v -208 -96 0
v -208 -80 0
v -192 -80 0
v -208 -96 0
v -224 -96 0
v -224 -80 0
v -208 -80 0
v -224 -96 0
v -240 -96 0
v -240 -80 0
v -224 -80 0
v -240 -96 0
v -256 -96 0
v -256 -80 0
v -240 -80 0
v 0 -112 0
v -16 -112 0
v -16 -96 0
v 0 -96 0
v -16 -112 0
v -32 -112 0
v -32 -96 0
v -16 -96 0
v -32 -112 0
v -48 -112 0
v -48 -96 0
v -32 -96 0
v -48 -112 0
v -64 -112 0
v -64 -96 0
v -48 -96 0
v -64 -112 0
v -80 -112 0
v -80 -96 0
v -64 -96 0
v -80 -112 0
v -96 -112 0
v -96 -96 0
v -80 -96 0
v -96 -112 0
v -112 -112 0
v -112 -96 0
v -96 -96 0
v -112 -112 0
v -128 -112 0
v -128 -96 0
v -112 -96 0
v -128 -112 0
v -144 -112 0
v -144 -96 0
v -128 -96 0
v -144 -112 0
v -160 -112 0
v -160 -96 0
v -144 -96 0
v -160 -112 0
v -176 -112 0
v -176 -96 0
v -160 -96 0
v -176 -112 0
v -192 -112 0
v -192 -96 0
v -176 -96 0
v -192 -112 0
v -208 -112 0
v -208 -96 0
v -192 -96 0
v -208 -112 0
v -224 -112 0
v -224 -96 0
v -208 -96 0
v -224 -112 0
v -240 -112 0
v -240 -96 0
v -224 -96 0
v -240 -112 0
v -256 -112 0
v -256 -96 0
v -240 -96 0
v 0 -128 0
v -16 -128 0
v -16 -112 0
v 0 -112 0
v -16 -128 0
v -32 -128 0
v -32 -112 0
v -16 -112 0
v -32 -128 0
v -48 -128 0
v -48 -112 0
v -32 -112 0
v -48 -128 0
v -64 -128 0
v -64 -112 0
v -48 -112 0
v -64 -128 0
v -80 -128 0
v -80 -112 0
v -64 -112 0
v -80 -128 0
v -96 -128 0
v -96 -112 0
v -80 -112 0
v -96 -128 0
v -112 -128 0
v -112 -112 0
v -96 -112 0
v -112 -128 0
v -128 -128 0
v -128 -112 0
v -112 -112 0
v -128 -128 0
v -144 -128 0
v -144 -112 0
v -128 -112 0
v -144 -128 0
v -160 -128 0
v -160 -112 0
v -144 -112 0
v -160 -128 0
v -176 -128 0
v -176 -112 0
v -160 -112 0
v -176 -128 0
v -192 -128 0
v -192 -112 0
v -176 -112 0
v -192 -128 0
v -208 -128 0
v -208 -112 0
v -192 -112 0
v -208 -128 0
v -224 -128 0
v -224 -112 0
v -208 -112 0
v -224 -128 0
v -240 -128 0
v -240 -112 0
v -224 -112 0
v -240 -128 0
v -256 -128 0
v -256 -112 0
v -240 -112 0
v 0 -144 0
v -16 -144 0
v -16 -128 0
v 0 -128 0
v -16 -144 0
v -32 -144 0
v -32 -128 0
v -16 -128 0
v -32 -144 0
v -48 -144 0
v -48 -128 0
v -32 -128 0
v -48 -144 0
v -64 -144 0
v -64 -128 0
v -48 -128 0
v -64 -144 0
v -80 -144 0
v -80 -128 0
v -64 -128 0
v -80 -144 0
v -96 -144 0
v -96 -128 0
v -80 -128 0
v -96 -144 0
v -112 -144 0
v -112 -128 0
v -96 -128 0
v -112 -144 0
v -128 -144 0
v -128 -128 0
v -112 -128 0
v -128 -144 0
v -144 -144 0
v -144 -128 0
v -128 -128 0
v -144 -144 0
v -160 -144 0
v -160 -128 0
v -144 -128 0
v -160 -144 0
v -176 -144 0
v -176 -128 0
v -160 -128 0
v -176 -144 0
v -192 -144 0
v -192 -128 0
v -176 -128 0
v -192 -144 0
v -208 -144 0
v -208 -128 0
v -192 -128 0
v -208 -144 0
v -224 -144 0
v -224 -128 0
v -208 -128 0
v -224 -144 0
v -240 -144 0
v -240 -128 0
v -224 -128 0
v -240 -144 0
v -256 -144 0
v -256 -128 0
v -240 -128 0
v 0 -160 0
v -16 -160 0
v -16 -144 0
v 0 -144 0
v -16 -160 0
v -32 -160 0
v -32 -144 0
v -16 -144 0
v -32 -160 0
v -48 -160 0
v -48 -144 0
v -32 -144 0
v -48 -160 0
v -64 -160 0
v -64 -144 0
v -48 -144 0
v -64 -160 0
v -80 -160 0
v -80 -144 0
v -64 -144 0
v -80 -160 0
v -96 -160 0
v -96 -144 0
v -80 -144 0
v -96 -160 0
v -112 -160 0
v -112 -144 0
v -96 -144 0
v -112 -160 0
v -128 -160 0
v -128 -144 0
v -112 -144 0
v -128 -160 0
v -144 -160 0
v -144 -144 0
v -128 -144 0
v -144 -160 0
v -160 -160 0
v -160 -144 0
v -144 -144 0
v -160 -160 0
v -176 -160 0
v -176 -144 0
v -160 -144 0
v -176 -160 0
v -192 -160 0
v -192 -144 0
v -176 -144 0
v -192 -160 0
v -208 -160 0
v -208 -144 0
v -192 -144 0
v -208 -160 0
v -224 -160 0
v -224 -144 0
v -208 -144 0
v -224 -160 0
v -240 -160 0
v -240 -144 0
v -224 -144 0
v -240 -160 0
v -256 -160 0
v -256 -144 0
v -240 -144 0
v 0 -176 0
v -16 -176 0
v -16 -160 0
v 0 -160 0
v -16 -176 0
v -32 -176 0
v -32 -160 0
v -16 -160 0
v -32 -176 0
v -48 -176 0
v -48 -160 0
v -32 -160 0
v -48 -176 0
v -64 -176 0
v -64 -160 0
v -48 -160 0
v -64 -176 0
v -80 -176 0
v -80 -160 0
v -64 -160 0
v -80 -176 0
v -96 -176 0
v -96 -160 0
v -80 -160 0
v -96 -176 0
v -112 -176 0
v -112 -160 0
v -96 -160 0
v -112 -176 0
v -128 -176 0
v -128 -160 0
v -112 -160 0
v -128 -176 0
v -144 -176 0
v -144 -160 0
v -128 -160 0
v -144 -176 0
v -160 -176 0
v -160 -160 0
v -144 -160 0
v -160 -176 0
v -176 -176 0
v -176 -160 0
v -160 -160 0
v -176 -176 0
v -192 -176 0
v -192 -160 0
v -176 -160 0
v -192 -176 0
v -208 -176 0
v -208 -160 0
v -192 -160 0
v -208 -176 0
v -224 -176 0
v -224 -160 0
v -208 -160 0
v -224 -176 0
v -240 -176 0
v -240 -160 0
v -224 -160 0
v -240 -176 0
v -256 -176 0
v -256 -160 0
v -240 -160 0
v 0 -192 0
v -16 -192 0
v -16 -176 0
v 0 -176 0
v -16 -192 0
v -32 -192 0
v -32 -176 0
v -16 -176 0
v -32 -192 0
v -48 -192 0
v -48 -176 0
v -32 -176 0
v -48 -192 0
v -64 -192 0
v -64 -176 0
v -48 -176 0
v -64 -192 0
v -80 -192 0
v -80 -176 0
v -64 -176 0
v -80 -192 0
v -96 -192 0
v -96 -176 0
v -80 -176 0
v -96 -192 0
v -112 -192 0
v -112 -176 0
v -96 -176 0
v -112 -192 0
v -128 -192 0
v -128 -176 0
v -112 -176 0
v -128 -192 0
v -144 -192 0
v -144 -176 0
v -128 -176 0
v -144 -192 0
v -160 -192 0
v -160 -176 0
v -144 -176 0
v -160 -192 0
v -176 -192 0
v -176 -176 0
v -160 -176 0
v -176 -192 0
v -192 -192 0
v -192 -176 0
v -176 -176 0
v -192 -192 0
v -208 -192 0
v -208 -176 0
v -192 -176 0
v -208 -192 0
v -224 -192 0
v -224 -176 0
v -208 -176 0
v -224 -192 0
v -240 -192 0
v -240 -176 0
v -224 -176 0
v -240 -192 0
v -256 -192 0
v -256 -176 0
v -240 -176 0
v -16 -208 0
v -32 -208 0
v -32 -192 0
v -16 -192 0
v -32 -208 0
v -48 -208 0
v -48 -192 0
v -32 -192 0
v -48 -208 0
v -64 -208 0
v -64 -192 0
v -48 -192 0
v -64 -208 0
v -80 -208 0
v -80 -192 0
v -64 -192 0
v -80 -208 0
v -96 -208 0
v -96 -192 0
v -80 -192 0
v -96 -208 0
v -112 -208 0
v -112 -192 0
v -96 -192 0
v -112 -208 0
v -128 -208 0
v -128 -192 0
v -112 -192 0
v -128 -208 0
v -144 -208 0
v -144 -192 0
v -128 -192 0
v -144 -208 0
v -160 -208 0
v -160 -192 0
v -144 -192 0
v -160 -208 0
v -176 -208 0
v -176 -192 0
v -160 -192 0
v -176 -208 0
v -192 -208 0
v -192 -192 0
v -176 -192 0
v -192 -208 0
v -208 -208 0
v -208 -192 0
v -192 -192 0
v -208 -208 0
v -224 -208 0
v -224 -192 0
v -208 -192 0
v -224 -208 0
v -240 -208 0
v -240 -192 0
v -224 -192 0
v -240 -208 0
v -256 -208 0
v -256 -192 0
v -240 -192 0
v -16 -224 0
v -32 -224 0
v -32 -208 0
v -16 -208 0
v -32 -224 0
v -48 -224 0
v -48 -208 0
v -32 -208 0
v -48 -224 0
v -64 -224 0
v -64 -208 0
v -48 -208 0
v -64 -224 0
v -80 -224 0
v -80 -208 0
v -64 -208 0
v -80 -224 0
v -96 -224 0
v -96 -208 0
v -80 -208 0
v -96 -224 0
v -112 -224 0
v -112 -208 0
v -96 -208 0
v -112 -224 0
v -128 -224 0
v -128 -208 0
v -112 -208 0
v -128 -224 0
v -144 -224 0
v -144 -208 0
v -128 -208 0
v -144 -224 0
v -160 -224 0
v -160 -208 0
v -144 -208 0
v -160 -224 0
v -176 -224 0
v -176 -208 0
v -160 -208 0
v -176 -224 0
v -192 -224 0
v -192 -208 0
v -176 -208 0
v -192 -224 0
v -208 -224 0
v -208 -208 0
v -192 -208 0
v -208 -224 0
v -224 -224 0
v -224 -208 0
v -208 -208 0
v -224 -224 0
v -240 -224 0
v -240 -208 0
v -224 -208 0
v -240 -224 0
v -256 -224 0
v -256 -208 0
v -240 -208 0
v -16 -240 0
v -32 -240 0
v -32 -224 0
v -16 -224 0
v -32 -240 0
v -48 -240 0
v -48 -224 0
v -32 -224 0
v -48 -240 0
v -64 -240 0
v -64 -224 0
v -48 -224 0
v -64 -240 0
v -80 -240 0
v -80 -224 0
v -64 -224 0
v -80 -240 0
v -96 -240 0
v -96 -224 0
v -80 -224 0
v -96 -240 0
v -112 -240 0
v -112 -224 0
v -96 -224 0
v -112 -240 0
v -128 -240 0
v -128 -224 0
v -112 -224 0
v -128 -240 0
v -144 -240 0
v -144 -224 0
v -128 -224 0
v -144 -240 0
v -160 -240 0
v -160 -224 0
v -144 -224 0
v -160 -240 0
v -176 -240 0
v -176 -224 0
v -160 -224 0
v -176 -240 0
v -192 -240 0
v -192 -224 0
v -176 -224 0
v -192 -240 0
v -208 -240 0
v -208 -224 0
v -192 -224 0
v -208 -240 0
v -224 -240 0
v -224 -224 0
v -208 -224 0
v -224 -240 0
v -240 -240 0
v -240 -224 0
v -224 -224 0
v -240 -240 0
v -256 -240 0
v -256 -224 0
v -240 -224 0
v -16 -256 0
v -32 -256 0
v -32 -240 0
v -16 -240 0
v -32 -256 0
v -48 -256 0
v -48 -240 0
v -32 -240 0
v -48 -256 0
v -64 -256 0
v -64 -240 0
v -48 -240 0
v -64 -256 0
v -80 -256 0
v -80 -240 0
v -64 -240 0
v -80 -256 0
v -96 -256 0
v -96 -240 0
v -80 -240 0
v -96 -256 0
v -112 -256 0
v -112 -240 0
v -96 -240 0
v -112 -256 0
v -128 -256 0
v -128 -240 0
v -112 -240 0
v -128 -256 0
v -144 -256 0
v -144 -240 0
v -128 -240 0
v -144 -256 0
v -160 -256 0
v -160 -240 0
v -144 -240 0
v -160 -256 0
v -176 -256 0
v -176 -240 0
v -160 -240 0
v -176 -256 0
v -192 -256 0
v -192 -240 0
v -176 -240 0
v -192 -256 0
v -208 -256 0
v -208 -240 0
v -192 -240 0
v -208 -256 0
v -224 -256 0
v -224 -240 0
v -208 -240 0
v -224 -256 0
v -240 -256 0
v -240 -240 0
v -224 -240 0
v -240 -256 0
v -256 -256 0
v -256 -240 0
v -240 -240 0

# Texture cooridinates (Count = 56)
vt 0.3076923 0.28
vt 0.3846154 0.28
vt 0.3846154 0.32
vt 0.3076923 0.32
vt 0.4615385 0.28
vt 0.4615385 0.32
vt 0.5384616 0.28
vt 0.5384616 0.32
vt 0.6153846 0.28
vt 0.6153846 0.32
vt 0.6923077 0.28
vt 0.6923077 0.32
vt 0.7692308 0.28
vt 0.7692308 0.32
vt 0.3076923 0.24
vt 0.3846154 0.24
vt 0.4615385 0.24
vt 0.5384616 0.24
vt 0.6153846 0.24
vt 0.6923077 0.24
vt 0.7692308 0.24
vt 0.3076923 0.44
vt 0.3846154 0.44
vt 0.3846154 0.48
vt 0.3076923 0.48
vt 0.4615385 0.44
vt 0.4615385 0.48
vt 0.5384616 0.44
vt 0.5384616 0.48
vt 0.2307692 0.44
vt 0.2307692 0.48
vt 0.1538462 0.88
vt 0.2307692 0.88
vt 0.2307692 0.92
vt 0.1538462 0.92
vt 0.3076923 0.4
vt 0.3846154 0.4
vt 0.4615385 0.4
vt 0.5384616 0.4
vt 0.2307692 0.4
vt 0.3076923 0.36
vt 0.3846154 0.36
vt 0.4615385 0.36
vt 0.5384616 0.36
vt 0.2307692 0.36
vt 0.2307692 0.32
vt 0.2307692 0.28
vt 0.2307692 0.24
vt 0.2307692 0.2
vt 0.3076923 0.2
vt 0.2307692 0.16
vt 0.3076923 0.16
vt 0.2307692 0.12
vt 0.3076923 0.12
vt 0.2307692 0.07999998
vt 0.3076923 0.07999998

# Normal
vn 0 0 -1

# Mesh description
g Level3_mesh_0038

# Faces
f 1/1/1 2/2/1 3/3/1 4/4/1
f 5/2/1 6/5/1 7/6/1 8/3/1
f 9/5/1 10/7/1 11/8/1 12/6/1
f 13/7/1 14/9/1 15/10/1 16/8/1
f 17/9/1 18/11/1 19/12/1 20/10/1
f 21/11/1 22/13/1 23/14/1 24/12/1
f 25/15/1 26/16/1 27/2/1 28/1/1
f 29/16/1 30/17/1 31/5/1 32/2/1
f 33/17/1 34/18/1 35/7/1 36/5/1
f 37/18/1 38/19/1 39/9/1 40/7/1
f 41/19/1 42/20/1 43/11/1 44/9/1
f 45/20/1 46/21/1 47/13/1 48/11/1
f 49/22/1 50/23/1 51/24/1 52/25/1
f 53/23/1 54/26/1 55/27/1 56/24/1
f 57/26/1 58/28/1 59/29/1 60/27/1
f 61/30/1 62/22/1 63/25/1 64/31/1
f 65/32/1 66/33/1 67/34/1 68/35/1
f 69/32/1 70/33/1 71/34/1 72/35/1
f 73/32/1 74/33/1 75/34/1 76/35/1
f 77/32/1 78/33/1 79/34/1 80/35/1
f 81/36/1 82/37/1 83/23/1 84/22/1
f 85/37/1 86/38/1 87/26/1 88/23/1
f 89/38/1 90/39/1 91/28/1 92/26/1
f 93/40/1 94/36/1 95/22/1 96/30/1
f 97/32/1 98/33/1 99/34/1 100/35/1
f 101/32/1 102/33/1 103/34/1 104/35/1
f 105/32/1 106/33/1 107/34/1 108/35/1
f 109/32/1 110/33/1 111/34/1 112/35/1
f 113/32/1 114/33/1 115/34/1 116/35/1
f 117/32/1 118/33/1 119/34/1 120/35/1
f 121/32/1 122/33/1 123/34/1 124/35/1
f 125/32/1 126/33/1 127/34/1 128/35/1
f 129/32/1 130/33/1 131/34/1 132/35/1
f 133/32/1 134/33/1 135/34/1 136/35/1
f 137/32/1 138/33/1 139/34/1 140/35/1
f 141/32/1 142/33/1 143/34/1 144/35/1
f 145/41/1 146/42/1 147/37/1 148/36/1
f 149/42/1 150/43/1 151/38/1 152/37/1
f 153/43/1 154/44/1 155/39/1 156/38/1
f 157/45/1 158/41/1 159/36/1 160/40/1
f 161/32/1 162/33/1 163/34/1 164/35/1
f 165/32/1 166/33/1 167/34/1 168/35/1
f 169/32/1 170/33/1 171/34/1 172/35/1
f 173/32/1 174/33/1 175/34/1 176/35/1
f 177/32/1 178/33/1 179/34/1 180/35/1
f 181/32/1 182/33/1 183/34/1 184/35/1
f 185/32/1 186/33/1 187/34/1 188/35/1
f 189/32/1 190/33/1 191/34/1 192/35/1
f 193/32/1 194/33/1 195/34/1 196/35/1
f 197/32/1 198/33/1 199/34/1 200/35/1
f 201/32/1 202/33/1 203/34/1 204/35/1
f 205/32/1 206/33/1 207/34/1 208/35/1
f 209/32/1 210/33/1 211/34/1 212/35/1
f 213/32/1 214/33/1 215/34/1 216/35/1
f 217/32/1 218/33/1 219/34/1 220/35/1
f 221/46/1 222/4/1 223/41/1 224/45/1
f 225/32/1 226/33/1 227/34/1 228/35/1
f 229/32/1 230/33/1 231/34/1 232/35/1
f 233/32/1 234/33/1 235/34/1 236/35/1
f 237/32/1 238/33/1 239/34/1 240/35/1
f 241/32/1 242/33/1 243/34/1 244/35/1
f 245/32/1 246/33/1 247/34/1 248/35/1
f 249/32/1 250/33/1 251/34/1 252/35/1
f 253/32/1 254/33/1 255/34/1 256/35/1
f 257/32/1 258/33/1 259/34/1 260/35/1
f 261/32/1 262/33/1 263/34/1 264/35/1
f 265/32/1 266/33/1 267/34/1 268/35/1
f 269/32/1 270/33/1 271/34/1 272/35/1
f 273/32/1 274/33/1 275/34/1 276/35/1
f 277/32/1 278/33/1 279/34/1 280/35/1
f 281/32/1 282/33/1 283/34/1 284/35/1
f 285/47/1 286/1/1 287/4/1 288/46/1
f 289/32/1 290/33/1 291/34/1 292/35/1
f 293/32/1 294/33/1 295/34/1 296/35/1
f 297/32/1 298/33/1 299/34/1 300/35/1
f 301/32/1 302/33/1 303/34/1 304/35/1
f 305/32/1 306/33/1 307/34/1 308/35/1
f 309/32/1 310/33/1 311/34/1 312/35/1
f 313/32/1 314/33/1 315/34/1 316/35/1
f 317/32/1 318/33/1 319/34/1 320/35/1
f 321/32/1 322/33/1 323/34/1 324/35/1
f 325/32/1 326/33/1 327/34/1 328/35/1
f 329/32/1 330/33/1 331/34/1 332/35/1
f 333/32/1 334/33/1 335/34/1 336/35/1
f 337/32/1 338/33/1 339/34/1 340/35/1
f 341/32/1 342/33/1 343/34/1 344/35/1
f 345/32/1 346/33/1 347/34/1 348/35/1
f 349/48/1 350/15/1 351/1/1 352/47/1
f 353/32/1 354/33/1 355/34/1 356/35/1
f 357/32/1 358/33/1 359/34/1 360/35/1
f 361/32/1 362/33/1 363/34/1 364/35/1
f 365/32/1 366/33/1 367/34/1 368/35/1
f 369/32/1 370/33/1 371/34/1 372/35/1
f 373/32/1 374/33/1 375/34/1 376/35/1
f 377/32/1 378/33/1 379/34/1 380/35/1
f 381/32/1 382/33/1 383/34/1 384/35/1
f 385/32/1 386/33/1 387/34/1 388/35/1
f 389/32/1 390/33/1 391/34/1 392/35/1
f 393/32/1 394/33/1 395/34/1 396/35/1
f 397/32/1 398/33/1 399/34/1 400/35/1
f 401/32/1 402/33/1 403/34/1 404/35/1
f 405/32/1 406/33/1 407/34/1 408/35/1
f 409/32/1 410/33/1 411/34/1 412/35/1
f 413/49/1 414/50/1 415/15/1 416/48/1
f 417/32/1 418/33/1 419/34/1 420/35/1
f 421/32/1 422/33/1 423/34/1 424/35/1
f 425/32/1 426/33/1 427/34/1 428/35/1
f 429/32/1 430/33/1 431/34/1 432/35/1
f 433/32/1 434/33/1 435/34/1 436/35/1
f 437/32/1 438/33/1 439/34/1 440/35/1
f 441/32/1 442/33/1 443/34/1 444/35/1
f 445/32/1 446/33/1 447/34/1 448/35/1
f 449/32/1 450/33/1 451/34/1 452/35/1
f 453/32/1 454/33/1 455/34/1 456/35/1
f 457/32/1 458/33/1 459/34/1 460/35/1
f 461/32/1 462/33/1 463/34/1 464/35/1
f 465/32/1 466/33/1 467/34/1 468/35/1
f 469/32/1 470/33/1 471/34/1 472/35/1
f 473/32/1 474/33/1 475/34/1 476/35/1
f 477/51/1 478/52/1 479/50/1 480/49/1
f 481/32/1 482/33/1 483/34/1 484/35/1
f 485/32/1 486/33/1 487/34/1 488/35/1
f 489/32/1 490/33/1 491/34/1 492/35/1
f 493/32/1 494/33/1 495/34/1 496/35/1
f 497/32/1 498/33/1 499/34/1 500/35/1
f 501/32/1 502/33/1 503/34/1 504/35/1
f 505/32/1 506/33/1 507/34/1 508/35/1
f 509/32/1 510/33/1 511/34/1 512/35/1
f 513/32/1 514/33/1 515/34/1 516/35/1
f 517/32/1 518/33/1 519/34/1 520/35/1
f 521/32/1 522/33/1 523/34/1 524/35/1
f 525/32/1 526/33/1 527/34/1 528/35/1
f 529/32/1 530/33/1 531/34/1 532/35/1
f 533/32/1 534/33/1 535/34/1 536/35/1
f 537/32/1 538/33/1 539/34/1 540/35/1
f 541/53/1 542/54/1 543/52/1 544/51/1
f 545/32/1 546/33/1 547/34/1 548/35/1
f 549/32/1 550/33/1 551/34/1 552/35/1
f 553/32/1 554/33/1 555/34/1 556/35/1
f 557/32/1 558/33/1 559/34/1 560/35/1
f 561/32/1 562/33/1 563/34/1 564/35/1
f 565/32/1 566/33/1 567/34/1 568/35/1
f 569/32/1 570/33/1 571/34/1 572/35/1
f 573/32/1 574/33/1 575/34/1 576/35/1
f 577/32/1 578/33/1 579/34/1 580/35/1
f 581/32/1 582/33/1 583/34/1 584/35/1
f 585/32/1 586/33/1 587/34/1 588/35/1
f 589/32/1 590/33/1 591/34/1 592/35/1
f 593/32/1 594/33/1 595/34/1 596/35/1
f 597/32/1 598/33/1 599/34/1 600/35/1
f 601/32/1 602/33/1 603/34/1 604/35/1
f 605/55/1 606/56/1 607/54/1 608/53/1
f 609/32/1 610/33/1 611/34/1 612/35/1
f 613/32/1 614/33/1 615/34/1 616/35/1
f 617/32/1 618/33/1 619/34/1 620/35/1
f 621/32/1 622/33/1 623/34/1 624/35/1
f 625/32/1 626/33/1 627/34/1 628/35/1
f 629/32/1 630/33/1 631/34/1 632/35/1
f 633/32/1 634/33/1 635/34/1 636/35/1
f 637/32/1 638/33/1 639/34/1 640/35/1
f 641/32/1 642/33/1 643/34/1 644/35/1
f 645/32/1 646/33/1 647/34/1 648/35/1
f 649/32/1 650/33/1 651/34/1 652/35/1
f 653/32/1 654/33/1 655/34/1 656/35/1
f 657/32/1 658/33/1 659/34/1 660/35/1
f 661/32/1 662/33/1 663/34/1 664/35/1
f 665/32/1 666/33/1 667/34/1 668/35/1
f 669/32/1 670/33/1 671/34/1 672/35/1
f 673/32/1 674/33/1 675/34/1 676/35/1
f 677/32/1 678/33/1 679/34/1 680/35/1
f 681/32/1 682/33/1 683/34/1 684/35/1
f 685/32/1 686/33/1 687/34/1 688/35/1
f 689/32/1 690/33/1 691/34/1 692/35/1
f 693/32/1 694/33/1 695/34/1 696/35/1
f 697/32/1 698/33/1 699/34/1 700/35/1
f 701/32/1 702/33/1 703/34/1 704/35/1
f 705/32/1 706/33/1 707/34/1 708/35/1
f 709/32/1 710/33/1 711/34/1 712/35/1
f 713/32/1 714/33/1 715/34/1 716/35/1
f 717/32/1 718/33/1 719/34/1 720/35/1
f 721/32/1 722/33/1 723/34/1 724/35/1
f 725/32/1 726/33/1 727/34/1 728/35/1
f 729/32/1 730/33/1 731/34/1 732/35/1
f 733/32/1 734/33/1 735/34/1 736/35/1
f 737/32/1 738/33/1 739/34/1 740/35/1
f 741/32/1 742/33/1 743/34/1 744/35/1
f 745/32/1 746/33/1 747/34/1 748/35/1
f 749/32/1 750/33/1 751/34/1 752/35/1
f 753/32/1 754/33/1 755/34/1 756/35/1
f 757/32/1 758/33/1 759/34/1 760/35/1
f 761/32/1 762/33/1 763/34/1 764/35/1
f 765/32/1 766/33/1 767/34/1 768/35/1
f 769/32/1 770/33/1 771/34/1 772/35/1
f 773/32/1 774/33/1 775/34/1 776/35/1
f 777/32/1 778/33/1 779/34/1 780/35/1
f 781/32/1 782/33/1 783/34/1 784/35/1
f 785/32/1 786/33/1 787/34/1 788/35/1
f 789/32/1 790/33/1 791/34/1 792/35/1
f 793/32/1 794/33/1 795/34/1 796/35/1
f 797/32/1 798/33/1 799/34/1 800/35/1
f 801/32/1 802/33/1 803/34/1 804/35/1
f 805/32/1 806/33/1 807/34/1 808/35/1
f 809/32/1 810/33/1 811/34/1 812/35/1
f 813/32/1 814/33/1 815/34/1 816/35/1
f 817/32/1 818/33/1 819/34/1 820/35/1
f 821/32/1 822/33/1 823/34/1 824/35/1
f 825/32/1 826/33/1 827/34/1 828/35/1
f 829/32/1 830/33/1 831/34/1 832/35/1
f 833/32/1 834/33/1 835/34/1 836/35/1
f 837/32/1 838/33/1 839/34/1 840/35/1
f 841/32/1 842/33/1 843/34/1 844/35/1
f 845/32/1 846/33/1 847/34/1 848/35/1
f 849/32/1 850/33/1 851/34/1 852/35/1
f 853/32/1 854/33/1 855/34/1 856/35/1
f 857/32/1 858/33/1 859/34/1 860/35/1
f 861/32/1 862/33/1 863/34/1 864/35/1
f 865/32/1 866/33/1 867/34/1 868/35/1
f 869/32/1 870/33/1 871/34/1 872/35/1
f 873/32/1 874/33/1 875/34/1 876/35/1
f 877/32/1 878/33/1 879/34/1 880/35/1
f 881/32/1 882/33/1 883/34/1 884/35/1
f 885/32/1 886/33/1 887/34/1 888/35/1
f 889/32/1 890/33/1 891/34/1 892/35/1
f 893/32/1 894/33/1 895/34/1 896/35/1
f 897/32/1 898/33/1 899/34/1 900/35/1
f 901/32/1 902/33/1 903/34/1 904/35/1
f 905/32/1 906/33/1 907/34/1 908/35/1

