# Tiled2Unity generated file. Do not modify by hand.
# Wavefront file for 'Level3_mesh_0046.obj'

# Vertices (Count = 160)
v -176 -144 0
v -192 -144 0
v -192 -128 0
v -176 -128 0
v -192 -144 0
v -208 -144 0
v -208 -128 0
v -192 -128 0
v -208 -144 0
v -224 -144 0
v -224 -128 0
v -208 -128 0
v -224 -144 0
v -240 -144 0
v -240 -128 0
v -224 -128 0
v -240 -144 0
v -256 -144 0
v -256 -128 0
v -240 -128 0
v -176 -160 0
v -192 -160 0
v -192 -144 0
v -176 -144 0
v -192 -160 0
v -208 -160 0
v -208 -144 0
v -192 -144 0
v -208 -160 0
v -224 -160 0
v -224 -144 0
v -208 -144 0
v -224 -160 0
v -240 -160 0
v -240 -144 0
v -224 -144 0
v -240 -160 0
v -256 -160 0
v -256 -144 0
v -240 -144 0
v -176 -176 0
v -192 -176 0
v -192 -160 0
v -176 -160 0
v -192 -176 0
v -208 -176 0
v -208 -160 0
v -192 -160 0
v -208 -176 0
v -224 -176 0
v -224 -160 0
v -208 -160 0
v -224 -176 0
v -240 -176 0
v -240 -160 0
v -224 -160 0
v -240 -176 0
v -256 -176 0
v -256 -160 0
v -240 -160 0
v -176 -192 0
v -192 -192 0
v -192 -176 0
v -176 -176 0
v -192 -192 0
v -208 -192 0
v -208 -176 0
v -192 -176 0
v -208 -192 0
v -224 -192 0
v -224 -176 0
v -208 -176 0
v -224 -192 0
v -240 -192 0
v -240 -176 0
v -224 -176 0
v -240 -192 0
v -256 -192 0
v -256 -176 0
v -240 -176 0
v -176 -208 0
v -192 -208 0
v -192 -192 0
v -176 -192 0
v -192 -208 0
v -208 -208 0
v -208 -192 0
v -192 -192 0
v -208 -208 0
v -224 -208 0
v -224 -192 0
v -208 -192 0
v -224 -208 0
v -240 -208 0
v -240 -192 0
v -224 -192 0
v -240 -208 0
v -256 -208 0
v -256 -192 0
v -240 -192 0
v -176 -224 0
v -192 -224 0
v -192 -208 0
v -176 -208 0
v -192 -224 0
v -208 -224 0
v -208 -208 0
v -192 -208 0
v -208 -224 0
v -224 -224 0
v -224 -208 0
v -208 -208 0
v -224 -224 0
v -240 -224 0
v -240 -208 0
v -224 -208 0
v -240 -224 0
v -256 -224 0
v -256 -208 0
v -240 -208 0
v -176 -240 0
v -192 -240 0
v -192 -224 0
v -176 -224 0
v -192 -240 0
v -208 -240 0
v -208 -224 0
v -192 -224 0
v -208 -240 0
v -224 -240 0
v -224 -224 0
v -208 -224 0
v -224 -240 0
v -240 -240 0
v -240 -224 0
v -224 -224 0
v -240 -240 0
v -256 -240 0
v -256 -224 0
v -240 -224 0
v -176 -256 0
v -192 -256 0
v -192 -240 0
v -176 -240 0
v -192 -256 0
v -208 -256 0
v -208 -240 0
v -192 -240 0
v -208 -256 0
v -224 -256 0
v -224 -240 0
v -208 -240 0
v -224 -256 0
v -240 -256 0
v -240 -240 0
v -224 -240 0
v -240 -256 0
v -256 -256 0
v -256 -240 0
v -240 -240 0

# Texture cooridinates (Count = 34)
vt 0 0.5
vt 0.04347826 0.5
vt 0.04347826 0.5714285
vt 0 0.5714285
vt 0.08695652 0.5
vt 0.08695652 0.5714285
vt 0.1304348 0.5
vt 0.1304348 0.5714285
vt 0.173913 0.5
vt 0.173913 0.5714285
vt 0 0.4285714
vt 0.04347826 0.4285714
vt 0.08695652 0.4285714
vt 0.1304348 0.4285714
vt 0 0.3571429
vt 0.04347826 0.3571429
vt 0.08695652 0.3571429
vt 0.1304348 0.3571429
vt 0 0.2857143
vt 0.04347826 0.2857143
vt 0.08695652 0.2857143
vt 0.1304348 0.2857143
vt 0 0.2142857
vt 0.04347826 0.2142857
vt 0.08695652 0.2142857
vt 0.1304348 0.2142857
vt 0 0.1428571
vt 0.04347826 0.1428571
vt 0.08695652 0.1428571
vt 0.1304348 0.1428571
vt 0 0.0714286
vt 0.04347826 0.0714286
vt 0.08695652 0.0714286
vt 0.1304348 0.0714286

# Normal
vn 0 0 -1

# Mesh description
g Level3_mesh_0046

# Faces
f 1/1/1 2/2/1 3/3/1 4/4/1
f 5/1/1 6/2/1 7/3/1 8/4/1
f 9/1/1 10/2/1 11/3/1 12/4/1
f 13/2/1 14/5/1 15/6/1 16/3/1
f 17/5/1 18/7/1 19/8/1 20/6/1
f 21/1/1 22/2/1 23/3/1 24/4/1
f 25/7/1 26/9/1 27/10/1 28/8/1
f 29/11/1 30/12/1 31/2/1 32/1/1
f 33/12/1 34/13/1 35/5/1 36/2/1
f 37/13/1 38/14/1 39/7/1 40/5/1
f 41/1/1 42/2/1 43/3/1 44/4/1
f 45/7/1 46/9/1 47/10/1 48/8/1
f 49/15/1 50/16/1 51/12/1 52/11/1
f 53/16/1 54/17/1 55/13/1 56/12/1
f 57/17/1 58/18/1 59/14/1 60/13/1
f 61/1/1 62/2/1 63/3/1 64/4/1
f 65/7/1 66/9/1 67/10/1 68/8/1
f 69/19/1 70/20/1 71/16/1 72/15/1
f 73/20/1 74/21/1 75/17/1 76/16/1
f 77/21/1 78/22/1 79/18/1 80/17/1
f 81/1/1 82/2/1 83/3/1 84/4/1
f 85/7/1 86/9/1 87/10/1 88/8/1
f 89/23/1 90/24/1 91/20/1 92/19/1
f 93/24/1 94/25/1 95/21/1 96/20/1
f 97/25/1 98/26/1 99/22/1 100/21/1
f 101/1/1 102/2/1 103/3/1 104/4/1
f 105/7/1 106/9/1 107/10/1 108/8/1
f 109/27/1 110/28/1 111/24/1 112/23/1
f 113/28/1 114/29/1 115/25/1 116/24/1
f 117/29/1 118/30/1 119/26/1 120/25/1
f 121/1/1 122/2/1 123/3/1 124/4/1
f 125/7/1 126/9/1 127/10/1 128/8/1
f 129/31/1 130/32/1 131/28/1 132/27/1
f 133/32/1 134/33/1 135/29/1 136/28/1
f 137/33/1 138/34/1 139/30/1 140/29/1
f 141/1/1 142/2/1 143/3/1 144/4/1
f 145/1/1 146/2/1 147/3/1 148/4/1
f 149/1/1 150/2/1 151/3/1 152/4/1
f 153/1/1 154/2/1 155/3/1 156/4/1
f 157/1/1 158/2/1 159/3/1 160/4/1

