# Tiled2Unity generated file. Do not modify by hand.
# Wavefront file for 'Level3_mesh_0101.obj'

# Vertices (Count = 144)
v 0 -112 0
v -16 -112 0
v -16 -96 0
v 0 -96 0
v -16 -112 0
v -32 -112 0
v -32 -96 0
v -16 -96 0
v -48 -112 0
v -64 -112 0
v -64 -96 0
v -48 -96 0
v -64 -112 0
v -80 -112 0
v -80 -96 0
v -64 -96 0
v -80 -112 0
v -96 -112 0
v -96 -96 0
v -80 -96 0
v -96 -112 0
v -112 -112 0
v -112 -96 0
v -96 -96 0
v -112 -112 0
v -128 -112 0
v -128 -96 0
v -112 -96 0
v -128 -112 0
v -144 -112 0
v -144 -96 0
v -128 -96 0
v -144 -112 0
v -160 -112 0
v -160 -96 0
v -144 -96 0
v -160 -112 0
v -176 -112 0
v -176 -96 0
v -160 -96 0
v -176 -112 0
v -192 -112 0
v -192 -96 0
v -176 -96 0
v -208 -112 0
v -224 -112 0
v -224 -96 0
v -208 -96 0
v -224 -112 0
v -240 -112 0
v -240 -96 0
v -224 -96 0
v -240 -112 0
v -256 -112 0
v -256 -96 0
v -240 -96 0
v -16 -128 0
v -32 -128 0
v -32 -112 0
v -16 -112 0
v -32 -128 0
v -48 -128 0
v -48 -112 0
v -32 -112 0
v -48 -128 0
v -64 -128 0
v -64 -112 0
v -48 -112 0
v -176 -128 0
v -192 -128 0
v -192 -112 0
v -176 -112 0
v -208 -128 0
v -224 -128 0
v -224 -112 0
v -208 -112 0
v -176 -144 0
v -192 -144 0
v -192 -128 0
v -176 -128 0
v -208 -144 0
v -224 -144 0
v -224 -128 0
v -208 -128 0
v -176 -160 0
v -192 -160 0
v -192 -144 0
v -176 -144 0
v -192 -160 0
v -208 -160 0
v -208 -144 0
v -192 -144 0
v -208 -160 0
v -224 -160 0
v -224 -144 0
v -208 -144 0
v -16 -240 0
v -32 -240 0
v -32 -224 0
v -16 -224 0
v -32 -240 0
v -48 -240 0
v -48 -224 0
v -32 -224 0
v -48 -240 0
v -64 -240 0
v -64 -224 0
v -48 -224 0
v -16 -256 0
v -32 -256 0
v -32 -240 0
v -16 -240 0
v -48 -256 0
v -64 -256 0
v -64 -240 0
v -48 -240 0
v -144 -256 0
v -160 -256 0
v -160 -240 0
v -144 -240 0
v -160 -256 0
v -176 -256 0
v -176 -240 0
v -160 -240 0
v -176 -256 0
v -192 -256 0
v -192 -240 0
v -176 -240 0
v -192 -256 0
v -208 -256 0
v -208 -240 0
v -192 -240 0
v -208 -256 0
v -224 -256 0
v -224 -240 0
v -208 -240 0
v -224 -256 0
v -240 -256 0
v -240 -240 0
v -224 -240 0
v -240 -256 0
v -256 -256 0
v -256 -240 0
v -240 -240 0

# Texture cooridinates (Count = 26)
vt 0.1304348 0.6428571
vt 0.173913 0.6428571
vt 0.173913 0.7142857
vt 0.1304348 0.7142857
vt 0.08695652 0.7142857
vt 0.1304348 0.7857143
vt 0.08695652 0.7857143
vt 0.2173913 0.7142857
vt 0.2173913 0.7857143
vt 0.173913 0.7857143
vt 0.08695652 0.6428571
vt 0.2173913 0.6428571
vt 0.04347826 0.7857143
vt 0.08695652 0.8571429
vt 0.04347826 0.8571429
vt 0.2608696 0.7857143
vt 0.2608696 0.8571429
vt 0.2173913 0.8571429
vt 0.08695652 0.9285714
vt 0.1304348 0.9285714
vt 0.1304348 1
vt 0.08695652 1
vt 0.173913 0.9285714
vt 0.173913 1
vt 0.2173913 0.9285714
vt 0.2173913 1

# Normal
vn 0 0 -1

# Mesh description
g Level3_mesh_0101

# Faces
f 1/1/1 2/2/1 3/3/1 4/4/1
f 5/5/1 6/4/1 7/6/1 8/7/1
f 9/3/1 10/8/1 11/9/1 12/10/1
f 13/1/1 14/2/1 15/3/1 16/4/1
f 17/1/1 18/2/1 19/3/1 20/4/1
f 21/1/1 22/2/1 23/3/1 24/4/1
f 25/1/1 26/2/1 27/3/1 28/4/1
f 29/1/1 30/2/1 31/3/1 32/4/1
f 33/1/1 34/2/1 35/3/1 36/4/1
f 37/1/1 38/2/1 39/3/1 40/4/1
f 41/5/1 42/4/1 43/6/1 44/7/1
f 45/3/1 46/8/1 47/9/1 48/10/1
f 49/1/1 50/2/1 51/3/1 52/4/1
f 53/1/1 54/2/1 55/3/1 56/4/1
f 57/11/1 58/1/1 59/4/1 60/5/1
f 61/1/1 62/2/1 63/3/1 64/4/1
f 65/2/1 66/12/1 67/8/1 68/3/1
f 69/13/1 70/7/1 71/14/1 72/15/1
f 73/9/1 74/16/1 75/17/1 76/18/1
f 77/13/1 78/7/1 79/14/1 80/15/1
f 81/9/1 82/16/1 83/17/1 84/18/1
f 85/11/1 86/1/1 87/4/1 88/5/1
f 89/1/1 90/2/1 91/3/1 92/4/1
f 93/2/1 94/12/1 95/8/1 96/3/1
f 97/19/1 98/20/1 99/21/1 100/22/1
f 101/20/1 102/23/1 103/24/1 104/21/1
f 105/23/1 106/25/1 107/26/1 108/24/1
f 109/13/1 110/7/1 111/14/1 112/15/1
f 113/9/1 114/16/1 115/17/1 116/18/1
f 117/19/1 118/20/1 119/21/1 120/22/1
f 121/20/1 122/23/1 123/24/1 124/21/1
f 125/20/1 126/23/1 127/24/1 128/21/1
f 129/20/1 130/23/1 131/24/1 132/21/1
f 133/20/1 134/23/1 135/24/1 136/21/1
f 137/20/1 138/23/1 139/24/1 140/21/1
f 141/20/1 142/23/1 143/24/1 144/21/1

