# Tiled2Unity generated file. Do not modify by hand.
# Wavefront file for 'Level3_mesh_0009.obj'

# Vertices (Count = 664)
v -144 -16 0
v -160 -16 0
v -160 0 0
v -144 0 0
v -160 -16 0
v -176 -16 0
v -176 0 0
v -160 0 0
v -176 -16 0
v -192 -16 0
v -192 0 0
v -176 0 0
v -192 -16 0
v -208 -16 0
v -208 0 0
v -192 0 0
v -208 -16 0
v -224 -16 0
v -224 0 0
v -208 0 0
v -224 -16 0
v -240 -16 0
v -240 0 0
v -224 0 0
v -240 -16 0
v -256 -16 0
v -256 0 0
v -240 0 0
v -144 -32 0
v -160 -32 0
v -160 -16 0
v -144 -16 0
v -160 -32 0
v -176 -32 0
v -176 -16 0
v -160 -16 0
v -176 -32 0
v -192 -32 0
v -192 -16 0
v -176 -16 0
v -192 -32 0
v -208 -32 0
v -208 -16 0
v -192 -16 0
v -208 -32 0
v -224 -32 0
v -224 -16 0
v -208 -16 0
v -224 -32 0
v -240 -32 0
v -240 -16 0
v -224 -16 0
v -240 -32 0
v -256 -32 0
v -256 -16 0
v -240 -16 0
v -144 -48 0
v -160 -48 0
v -160 -32 0
v -144 -32 0
v -160 -48 0
v -176 -48 0
v -176 -32 0
v -160 -32 0
v -176 -48 0
v -192 -48 0
v -192 -32 0
v -176 -32 0
v -192 -48 0
v -208 -48 0
v -208 -32 0
v -192 -32 0
v -208 -48 0
v -224 -48 0
v -224 -32 0
v -208 -32 0
v -224 -48 0
v -240 -48 0
v -240 -32 0
v -224 -32 0
v -240 -48 0
v -256 -48 0
v -256 -32 0
v -240 -32 0
v -144 -64 0
v -160 -64 0
v -160 -48 0
v -144 -48 0
v -160 -64 0
v -176 -64 0
v -176 -48 0
v -160 -48 0
v -176 -64 0
v -192 -64 0
v -192 -48 0
v -176 -48 0
v -192 -64 0
v -208 -64 0
v -208 -48 0
v -192 -48 0
v -208 -64 0
v -224 -64 0
v -224 -48 0
v -208 -48 0
v -224 -64 0
v -240 -64 0
v -240 -48 0
v -224 -48 0
v -240 -64 0
v -256 -64 0
v -256 -48 0
v -240 -48 0
v -144 -80 0
v -160 -80 0
v -160 -64 0
v -144 -64 0
v -160 -80 0
v -176 -80 0
v -176 -64 0
v -160 -64 0
v -176 -80 0
v -192 -80 0
v -192 -64 0
v -176 -64 0
v -192 -80 0
v -208 -80 0
v -208 -64 0
v -192 -64 0
v -208 -80 0
v -224 -80 0
v -224 -64 0
v -208 -64 0
v -224 -80 0
v -240 -80 0
v -240 -64 0
v -224 -64 0
v -240 -80 0
v -256 -80 0
v -256 -64 0
v -240 -64 0
v -144 -96 0
v -160 -96 0
v -160 -80 0
v -144 -80 0
v -160 -96 0
v -176 -96 0
v -176 -80 0
v -160 -80 0
v -176 -96 0
v -192 -96 0
v -192 -80 0
v -176 -80 0
v -192 -96 0
v -208 -96 0
v -208 -80 0
v -192 -80 0
v -208 -96 0
v -224 -96 0
v -224 -80 0
v -208 -80 0
v -224 -96 0
v -240 -96 0
v -240 -80 0
v -224 -80 0
v -240 -96 0
v -256 -96 0
v -256 -80 0
v -240 -80 0
v -144 -112 0
v -160 -112 0
v -160 -96 0
v -144 -96 0
v -160 -112 0
v -176 -112 0
v -176 -96 0
v -160 -96 0
v -176 -112 0
v -192 -112 0
v -192 -96 0
v -176 -96 0
v -192 -112 0
v -208 -112 0
v -208 -96 0
v -192 -96 0
v -208 -112 0
v -224 -112 0
v -224 -96 0
v -208 -96 0
v -224 -112 0
v -240 -112 0
v -240 -96 0
v -224 -96 0
v -240 -112 0
v -256 -112 0
v -256 -96 0
v -240 -96 0
v -48 -128 0
v -64 -128 0
v -64 -112 0
v -48 -112 0
v -64 -128 0
v -80 -128 0
v -80 -112 0
v -64 -112 0
v -80 -128 0
v -96 -128 0
v -96 -112 0
v -80 -112 0
v -96 -128 0
v -112 -128 0
v -112 -112 0
v -96 -112 0
v -112 -128 0
v -128 -128 0
v -128 -112 0
v -112 -112 0
v -128 -128 0
v -144 -128 0
v -144 -112 0
v -128 -112 0
v -144 -128 0
v -160 -128 0
v -160 -112 0
v -144 -112 0
v -160 -128 0
v -176 -128 0
v -176 -112 0
v -160 -112 0
v -176 -128 0
v -192 -128 0
v -192 -112 0
v -176 -112 0
v -192 -128 0
v -208 -128 0
v -208 -112 0
v -192 -112 0
v -208 -128 0
v -224 -128 0
v -224 -112 0
v -208 -112 0
v -224 -128 0
v -240 -128 0
v -240 -112 0
v -224 -112 0
v -240 -128 0
v -256 -128 0
v -256 -112 0
v -240 -112 0
v -48 -144 0
v -64 -144 0
v -64 -128 0
v -48 -128 0
v -64 -144 0
v -80 -144 0
v -80 -128 0
v -64 -128 0
v -80 -144 0
v -96 -144 0
v -96 -128 0
v -80 -128 0
v -96 -144 0
v -112 -144 0
v -112 -128 0
v -96 -128 0
v -112 -144 0
v -128 -144 0
v -128 -128 0
v -112 -128 0
v -128 -144 0
v -144 -144 0
v -144 -128 0
v -128 -128 0
v -144 -144 0
v -160 -144 0
v -160 -128 0
v -144 -128 0
v -160 -144 0
v -176 -144 0
v -176 -128 0
v -160 -128 0
v -176 -144 0
v -192 -144 0
v -192 -128 0
v -176 -128 0
v -192 -144 0
v -208 -144 0
v -208 -128 0
v -192 -128 0
v -208 -144 0
v -224 -144 0
v -224 -128 0
v -208 -128 0
v -224 -144 0
v -240 -144 0
v -240 -128 0
v -224 -128 0
v -240 -144 0
v -256 -144 0
v -256 -128 0
v -240 -128 0
v -48 -160 0
v -64 -160 0
v -64 -144 0
v -48 -144 0
v -64 -160 0
v -80 -160 0
v -80 -144 0
v -64 -144 0
v -80 -160 0
v -96 -160 0
v -96 -144 0
v -80 -144 0
v -96 -160 0
v -112 -160 0
v -112 -144 0
v -96 -144 0
v -112 -160 0
v -128 -160 0
v -128 -144 0
v -112 -144 0
v -128 -160 0
v -144 -160 0
v -144 -144 0
v -128 -144 0
v -144 -160 0
v -160 -160 0
v -160 -144 0
v -144 -144 0
v -160 -160 0
v -176 -160 0
v -176 -144 0
v -160 -144 0
v -176 -160 0
v -192 -160 0
v -192 -144 0
v -176 -144 0
v -192 -160 0
v -208 -160 0
v -208 -144 0
v -192 -144 0
v -208 -160 0
v -224 -160 0
v -224 -144 0
v -208 -144 0
v -224 -160 0
v -240 -160 0
v -240 -144 0
v -224 -144 0
v -240 -160 0
v -256 -160 0
v -256 -144 0
v -240 -144 0
v -48 -176 0
v -64 -176 0
v -64 -160 0
v -48 -160 0
v -64 -176 0
v -80 -176 0
v -80 -160 0
v -64 -160 0
v -80 -176 0
v -96 -176 0
v -96 -160 0
v -80 -160 0
v -96 -176 0
v -112 -176 0
v -112 -160 0
v -96 -160 0
v -112 -176 0
v -128 -176 0
v -128 -160 0
v -112 -160 0
v -128 -176 0
v -144 -176 0
v -144 -160 0
v -128 -160 0
v -144 -176 0
v -160 -176 0
v -160 -160 0
v -144 -160 0
v -160 -176 0
v -176 -176 0
v -176 -160 0
v -160 -160 0
v -176 -176 0
v -192 -176 0
v -192 -160 0
v -176 -160 0
v -192 -176 0
v -208 -176 0
v -208 -160 0
v -192 -160 0
v -208 -176 0
v -224 -176 0
v -224 -160 0
v -208 -160 0
v -224 -176 0
v -240 -176 0
v -240 -160 0
v -224 -160 0
v -240 -176 0
v -256 -176 0
v -256 -160 0
v -240 -160 0
v -48 -192 0
v -64 -192 0
v -64 -176 0
v -48 -176 0
v -64 -192 0
v -80 -192 0
v -80 -176 0
v -64 -176 0
v -80 -192 0
v -96 -192 0
v -96 -176 0
v -80 -176 0
v -96 -192 0
v -112 -192 0
v -112 -176 0
v -96 -176 0
v -112 -192 0
v -128 -192 0
v -128 -176 0
v -112 -176 0
v -128 -192 0
v -144 -192 0
v -144 -176 0
v -128 -176 0
v -144 -192 0
v -160 -192 0
v -160 -176 0
v -144 -176 0
v -160 -192 0
v -176 -192 0
v -176 -176 0
v -160 -176 0
v -176 -192 0
v -192 -192 0
v -192 -176 0
v -176 -176 0
v -192 -192 0
v -208 -192 0
v -208 -176 0
v -192 -176 0
v -208 -192 0
v -224 -192 0
v -224 -176 0
v -208 -176 0
v -224 -192 0
v -240 -192 0
v -240 -176 0
v -224 -176 0
v -240 -192 0
v -256 -192 0
v -256 -176 0
v -240 -176 0
v -48 -208 0
v -64 -208 0
v -64 -192 0
v -48 -192 0
v -64 -208 0
v -80 -208 0
v -80 -192 0
v -64 -192 0
v -80 -208 0
v -96 -208 0
v -96 -192 0
v -80 -192 0
v -96 -208 0
v -112 -208 0
v -112 -192 0
v -96 -192 0
v -112 -208 0
v -128 -208 0
v -128 -192 0
v -112 -192 0
v -128 -208 0
v -144 -208 0
v -144 -192 0
v -128 -192 0
v -144 -208 0
v -160 -208 0
v -160 -192 0
v -144 -192 0
v -160 -208 0
v -176 -208 0
v -176 -192 0
v -160 -192 0
v -176 -208 0
v -192 -208 0
v -192 -192 0
v -176 -192 0
v -192 -208 0
v -208 -208 0
v -208 -192 0
v -192 -192 0
v -208 -208 0
v -224 -208 0
v -224 -192 0
v -208 -192 0
v -224 -208 0
v -240 -208 0
v -240 -192 0
v -224 -192 0
v -240 -208 0
v -256 -208 0
v -256 -192 0
v -240 -192 0
v -48 -224 0
v -64 -224 0
v -64 -208 0
v -48 -208 0
v -64 -224 0
v -80 -224 0
v -80 -208 0
v -64 -208 0
v -80 -224 0
v -96 -224 0
v -96 -208 0
v -80 -208 0
v -96 -224 0
v -112 -224 0
v -112 -208 0
v -96 -208 0
v -112 -224 0
v -128 -224 0
v -128 -208 0
v -112 -208 0
v -128 -224 0
v -144 -224 0
v -144 -208 0
v -128 -208 0
v -144 -224 0
v -160 -224 0
v -160 -208 0
v -144 -208 0
v -160 -224 0
v -176 -224 0
v -176 -208 0
v -160 -208 0
v -176 -224 0
v -192 -224 0
v -192 -208 0
v -176 -208 0
v -192 -224 0
v -208 -224 0
v -208 -208 0
v -192 -208 0
v -208 -224 0
v -224 -224 0
v -224 -208 0
v -208 -208 0
v -224 -224 0
v -240 -224 0
v -240 -208 0
v -224 -208 0
v -240 -224 0
v -256 -224 0
v -256 -208 0
v -240 -208 0
v -48 -240 0
v -64 -240 0
v -64 -224 0
v -48 -224 0
v -64 -240 0
v -80 -240 0
v -80 -224 0
v -64 -224 0
v -80 -240 0
v -96 -240 0
v -96 -224 0
v -80 -224 0
v -96 -240 0
v -112 -240 0
v -112 -224 0
v -96 -224 0
v -112 -240 0
v -128 -240 0
v -128 -224 0
v -112 -224 0
v -128 -240 0
v -144 -240 0
v -144 -224 0
v -128 -224 0
v -144 -240 0
v -160 -240 0
v -160 -224 0
v -144 -224 0
v -160 -240 0
v -176 -240 0
v -176 -224 0
v -160 -224 0
v -176 -240 0
v -192 -240 0
v -192 -224 0
v -176 -224 0
v -192 -240 0
v -208 -240 0
v -208 -224 0
v -192 -224 0
v -208 -240 0
v -224 -240 0
v -224 -224 0
v -208 -224 0
v -224 -240 0
v -240 -240 0
v -240 -224 0
v -224 -224 0
v -240 -240 0
v -256 -240 0
v -256 -224 0
v -240 -224 0
v -48 -256 0
v -64 -256 0
v -64 -240 0
v -48 -240 0
v -64 -256 0
v -80 -256 0
v -80 -240 0
v -64 -240 0
v -80 -256 0
v -96 -256 0
v -96 -240 0
v -80 -240 0
v -96 -256 0
v -112 -256 0
v -112 -240 0
v -96 -240 0
v -112 -256 0
v -128 -256 0
v -128 -240 0
v -112 -240 0
v -128 -256 0
v -144 -256 0
v -144 -240 0
v -128 -240 0
v -144 -256 0
v -160 -256 0
v -160 -240 0
v -144 -240 0
v -160 -256 0
v -176 -256 0
v -176 -240 0
v -160 -240 0
v -176 -256 0
v -192 -256 0
v -192 -240 0
v -176 -240 0
v -192 -256 0
v -208 -256 0
v -208 -240 0
v -192 -240 0
v -208 -256 0
v -224 -256 0
v -224 -240 0
v -208 -240 0
v -224 -256 0
v -240 -256 0
v -240 -240 0
v -224 -240 0
v -240 -256 0
v -256 -256 0
v -256 -240 0
v -240 -240 0

# Texture cooridinates (Count = 22)
vt 0.1304348 0.5
vt 0.173913 0.5
vt 0.173913 0.5714285
vt 0.1304348 0.5714285
vt 0.08695652 0.5714285
vt 0.1304348 0.6428571
vt 0.08695652 0.6428571
vt 0 0.5
vt 0.04347826 0.5
vt 0.04347826 0.5714285
vt 0 0.5714285
vt 0 0.4285714
vt 0.04347826 0.4285714
vt 0.1304348 0.4285714
vt 0.173913 0.4285714
vt 0.04347826 0.6428571
vt 0.08695652 0.7142857
vt 0.04347826 0.7142857
vt 0.1304348 0.7857143
vt 0.173913 0.7857143
vt 0.173913 0.8571429
vt 0.1304348 0.8571429

# Normal
vn 0 0 -1

# Mesh description
g Level3_mesh_0009

# Faces
f 1/1/1 2/2/1 3/3/1 4/4/1
f 5/5/1 6/4/1 7/6/1 8/7/1
f 9/1/1 10/2/1 11/3/1 12/4/1
f 13/1/1 14/2/1 15/3/1 16/4/1
f 17/8/1 18/9/1 19/10/1 20/11/1
f 21/12/1 22/13/1 23/9/1 24/8/1
f 25/1/1 26/2/1 27/3/1 28/4/1
f 29/1/1 30/2/1 31/3/1 32/4/1
f 33/14/1 34/15/1 35/2/1 36/1/1
f 37/1/1 38/2/1 39/3/1 40/4/1
f 41/1/1 42/2/1 43/3/1 44/4/1
f 45/14/1 46/15/1 47/2/1 48/1/1
f 49/1/1 50/2/1 51/3/1 52/4/1
f 53/1/1 54/2/1 55/3/1 56/4/1
f 57/1/1 58/2/1 59/3/1 60/4/1
f 61/14/1 62/15/1 63/2/1 64/1/1
f 65/1/1 66/2/1 67/3/1 68/4/1
f 69/8/1 70/9/1 71/10/1 72/11/1
f 73/1/1 74/2/1 75/3/1 76/4/1
f 77/1/1 78/2/1 79/3/1 80/4/1
f 81/1/1 82/2/1 83/3/1 84/4/1
f 85/1/1 86/2/1 87/3/1 88/4/1
f 89/12/1 90/13/1 91/9/1 92/8/1
f 93/8/1 94/9/1 95/10/1 96/11/1
f 97/5/1 98/4/1 99/6/1 100/7/1
f 101/12/1 102/13/1 103/9/1 104/8/1
f 105/5/1 106/4/1 107/6/1 108/7/1
f 109/8/1 110/9/1 111/10/1 112/11/1
f 113/1/1 114/2/1 115/3/1 116/4/1
f 117/1/1 118/2/1 119/3/1 120/4/1
f 121/1/1 122/2/1 123/3/1 124/4/1
f 125/8/1 126/9/1 127/10/1 128/11/1
f 129/1/1 130/2/1 131/3/1 132/4/1
f 133/16/1 134/7/1 135/17/1 136/18/1
f 137/1/1 138/2/1 139/3/1 140/4/1
f 141/1/1 142/2/1 143/3/1 144/4/1
f 145/1/1 146/2/1 147/3/1 148/4/1
f 149/1/1 150/2/1 151/3/1 152/4/1
f 153/1/1 154/2/1 155/3/1 156/4/1
f 157/1/1 158/2/1 159/3/1 160/4/1
f 161/14/1 162/15/1 163/2/1 164/1/1
f 165/1/1 166/2/1 167/3/1 168/4/1
f 169/1/1 170/2/1 171/3/1 172/4/1
f 173/1/1 174/2/1 175/3/1 176/4/1
f 177/1/1 178/2/1 179/3/1 180/4/1
f 181/1/1 182/2/1 183/3/1 184/4/1
f 185/1/1 186/2/1 187/3/1 188/4/1
f 189/1/1 190/2/1 191/3/1 192/4/1
f 193/1/1 194/2/1 195/3/1 196/4/1
f 197/19/1 198/20/1 199/21/1 200/22/1
f 201/19/1 202/20/1 203/21/1 204/22/1
f 205/19/1 206/20/1 207/21/1 208/22/1
f 209/19/1 210/20/1 211/21/1 212/22/1
f 213/19/1 214/20/1 215/21/1 216/22/1
f 217/19/1 218/20/1 219/21/1 220/22/1
f 221/19/1 222/20/1 223/21/1 224/22/1
f 225/19/1 226/20/1 227/21/1 228/22/1
f 229/19/1 230/20/1 231/21/1 232/22/1
f 233/19/1 234/20/1 235/21/1 236/22/1
f 237/19/1 238/20/1 239/21/1 240/22/1
f 241/19/1 242/20/1 243/21/1 244/22/1
f 245/19/1 246/20/1 247/21/1 248/22/1
f 249/19/1 250/20/1 251/21/1 252/22/1
f 253/19/1 254/20/1 255/21/1 256/22/1
f 257/19/1 258/20/1 259/21/1 260/22/1
f 261/19/1 262/20/1 263/21/1 264/22/1
f 265/19/1 266/20/1 267/21/1 268/22/1
f 269/19/1 270/20/1 271/21/1 272/22/1
f 273/19/1 274/20/1 275/21/1 276/22/1
f 277/19/1 278/20/1 279/21/1 280/22/1
f 281/19/1 282/20/1 283/21/1 284/22/1
f 285/19/1 286/20/1 287/21/1 288/22/1
f 289/19/1 290/20/1 291/21/1 292/22/1
f 293/19/1 294/20/1 295/21/1 296/22/1
f 297/19/1 298/20/1 299/21/1 300/22/1
f 301/19/1 302/20/1 303/21/1 304/22/1
f 305/19/1 306/20/1 307/21/1 308/22/1
f 309/19/1 310/20/1 311/21/1 312/22/1
f 313/19/1 314/20/1 315/21/1 316/22/1
f 317/19/1 318/20/1 319/21/1 320/22/1
f 321/19/1 322/20/1 323/21/1 324/22/1
f 325/19/1 326/20/1 327/21/1 328/22/1
f 329/19/1 330/20/1 331/21/1 332/22/1
f 333/19/1 334/20/1 335/21/1 336/22/1
f 337/19/1 338/20/1 339/21/1 340/22/1
f 341/19/1 342/20/1 343/21/1 344/22/1
f 345/19/1 346/20/1 347/21/1 348/22/1
f 349/19/1 350/20/1 351/21/1 352/22/1
f 353/19/1 354/20/1 355/21/1 356/22/1
f 357/19/1 358/20/1 359/21/1 360/22/1
f 361/19/1 362/20/1 363/21/1 364/22/1
f 365/19/1 366/20/1 367/21/1 368/22/1
f 369/19/1 370/20/1 371/21/1 372/22/1
f 373/19/1 374/20/1 375/21/1 376/22/1
f 377/19/1 378/20/1 379/21/1 380/22/1
f 381/19/1 382/20/1 383/21/1 384/22/1
f 385/19/1 386/20/1 387/21/1 388/22/1
f 389/19/1 390/20/1 391/21/1 392/22/1
f 393/19/1 394/20/1 395/21/1 396/22/1
f 397/19/1 398/20/1 399/21/1 400/22/1
f 401/19/1 402/20/1 403/21/1 404/22/1
f 405/19/1 406/20/1 407/21/1 408/22/1
f 409/19/1 410/20/1 411/21/1 412/22/1
f 413/19/1 414/20/1 415/21/1 416/22/1
f 417/19/1 418/20/1 419/21/1 420/22/1
f 421/19/1 422/20/1 423/21/1 424/22/1
f 425/19/1 426/20/1 427/21/1 428/22/1
f 429/19/1 430/20/1 431/21/1 432/22/1
f 433/19/1 434/20/1 435/21/1 436/22/1
f 437/19/1 438/20/1 439/21/1 440/22/1
f 441/19/1 442/20/1 443/21/1 444/22/1
f 445/19/1 446/20/1 447/21/1 448/22/1
f 449/19/1 450/20/1 451/21/1 452/22/1
f 453/19/1 454/20/1 455/21/1 456/22/1
f 457/19/1 458/20/1 459/21/1 460/22/1
f 461/19/1 462/20/1 463/21/1 464/22/1
f 465/19/1 466/20/1 467/21/1 468/22/1
f 469/19/1 470/20/1 471/21/1 472/22/1
f 473/19/1 474/20/1 475/21/1 476/22/1
f 477/19/1 478/20/1 479/21/1 480/22/1
f 481/19/1 482/20/1 483/21/1 484/22/1
f 485/19/1 486/20/1 487/21/1 488/22/1
f 489/19/1 490/20/1 491/21/1 492/22/1
f 493/19/1 494/20/1 495/21/1 496/22/1
f 497/19/1 498/20/1 499/21/1 500/22/1
f 501/19/1 502/20/1 503/21/1 504/22/1
f 505/19/1 506/20/1 507/21/1 508/22/1
f 509/19/1 510/20/1 511/21/1 512/22/1
f 513/19/1 514/20/1 515/21/1 516/22/1
f 517/19/1 518/20/1 519/21/1 520/22/1
f 521/19/1 522/20/1 523/21/1 524/22/1
f 525/19/1 526/20/1 527/21/1 528/22/1
f 529/19/1 530/20/1 531/21/1 532/22/1
f 533/19/1 534/20/1 535/21/1 536/22/1
f 537/19/1 538/20/1 539/21/1 540/22/1
f 541/19/1 542/20/1 543/21/1 544/22/1
f 545/19/1 546/20/1 547/21/1 548/22/1
f 549/19/1 550/20/1 551/21/1 552/22/1
f 553/19/1 554/20/1 555/21/1 556/22/1
f 557/19/1 558/20/1 559/21/1 560/22/1
f 561/19/1 562/20/1 563/21/1 564/22/1
f 565/19/1 566/20/1 567/21/1 568/22/1
f 569/19/1 570/20/1 571/21/1 572/22/1
f 573/19/1 574/20/1 575/21/1 576/22/1
f 577/19/1 578/20/1 579/21/1 580/22/1
f 581/19/1 582/20/1 583/21/1 584/22/1
f 585/19/1 586/20/1 587/21/1 588/22/1
f 589/19/1 590/20/1 591/21/1 592/22/1
f 593/19/1 594/20/1 595/21/1 596/22/1
f 597/19/1 598/20/1 599/21/1 600/22/1
f 601/19/1 602/20/1 603/21/1 604/22/1
f 605/19/1 606/20/1 607/21/1 608/22/1
f 609/1/1 610/2/1 611/3/1 612/4/1
f 613/19/1 614/20/1 615/21/1 616/22/1
f 617/19/1 618/20/1 619/21/1 620/22/1
f 621/19/1 622/20/1 623/21/1 624/22/1
f 625/19/1 626/20/1 627/21/1 628/22/1
f 629/19/1 630/20/1 631/21/1 632/22/1
f 633/19/1 634/20/1 635/21/1 636/22/1
f 637/19/1 638/20/1 639/21/1 640/22/1
f 641/19/1 642/20/1 643/21/1 644/22/1
f 645/19/1 646/20/1 647/21/1 648/22/1
f 649/19/1 650/20/1 651/21/1 652/22/1
f 653/19/1 654/20/1 655/21/1 656/22/1
f 657/19/1 658/20/1 659/21/1 660/22/1
f 661/1/1 662/2/1 663/3/1 664/4/1

