# Tiled2Unity generated file. Do not modify by hand.
# Wavefront file for 'Level3_mesh_0129.obj'

# Vertices (Count = 12)
v 0 -96 0
v -16 -96 0
v -16 -80 0
v 0 -80 0
v 0 -144 0
v -16 -144 0
v -16 -128 0
v 0 -128 0
v 0 -160 0
v -16 -160 0
v -16 -144 0
v 0 -144 0

# Texture cooridinates (Count = 8)
vt 0.9230769 0.84
vt 1 0.84
vt 1 0.88
vt 0.9230769 0.88
vt 0.9230769 0.8
vt 1 0.8
vt 0.9230769 0.76
vt 1 0.76

# Normal
vn 0 0 -1

# Mesh description
g Level3_mesh_0129

# Faces
f 1/1/1 2/2/1 3/3/1 4/4/1
f 5/5/1 6/6/1 7/2/1 8/1/1
f 9/7/1 10/8/1 11/6/1 12/5/1

