# Tiled2Unity generated file. Do not modify by hand.
# Wavefront file for 'Level3_mesh_0123.obj'

# Vertices (Count = 148)
v -16 -16 0
v -32 -16 0
v -32 0 0
v -16 0 0
v -96 -16 0
v -112 -16 0
v -112 0 0
v -96 0 0
v -16 -32 0
v -32 -32 0
v -32 -16 0
v -16 -16 0
v -96 -32 0
v -112 -32 0
v -112 -16 0
v -96 -16 0
v -128 -32 0
v -144 -32 0
v -144 -16 0
v -128 -16 0
v -144 -32 0
v -160 -32 0
v -160 -16 0
v -144 -16 0
v -160 -32 0
v -176 -32 0
v -176 -16 0
v -160 -16 0
v -176 -32 0
v -192 -32 0
v -192 -16 0
v -176 -16 0
v -192 -32 0
v -208 -32 0
v -208 -16 0
v -192 -16 0
v -208 -32 0
v -224 -32 0
v -224 -16 0
v -208 -16 0
v 0 -48 0
v -16 -48 0
v -16 -32 0
v 0 -32 0
v -16 -48 0
v -32 -48 0
v -32 -32 0
v -16 -32 0
v -32 -48 0
v -48 -48 0
v -48 -32 0
v -32 -32 0
v -48 -48 0
v -64 -48 0
v -64 -32 0
v -48 -32 0
v -64 -48 0
v -80 -48 0
v -80 -32 0
v -64 -32 0
v -80 -48 0
v -96 -48 0
v -96 -32 0
v -80 -32 0
v -96 -48 0
v -112 -48 0
v -112 -32 0
v -96 -32 0
v -112 -48 0
v -128 -48 0
v -128 -32 0
v -112 -32 0
v -128 -48 0
v -144 -48 0
v -144 -32 0
v -128 -32 0
v -208 -48 0
v -224 -48 0
v -224 -32 0
v -208 -32 0
v 0 -64 0
v -16 -64 0
v -16 -48 0
v 0 -48 0
v -208 -64 0
v -224 -64 0
v -224 -48 0
v -208 -48 0
v -224 -64 0
v -240 -64 0
v -240 -48 0
v -224 -48 0
v -240 -64 0
v -256 -64 0
v -256 -48 0
v -240 -48 0
v 0 -80 0
v -16 -80 0
v -16 -64 0
v 0 -64 0
v -240 -80 0
v -256 -80 0
v -256 -64 0
v -240 -64 0
v 0 -96 0
v -16 -96 0
v -16 -80 0
v 0 -80 0
v 0 -112 0
v -16 -112 0
v -16 -96 0
v 0 -96 0
v 0 -128 0
v -16 -128 0
v -16 -112 0
v 0 -112 0
v 0 -144 0
v -16 -144 0
v -16 -128 0
v 0 -128 0
v 0 -160 0
v -16 -160 0
v -16 -144 0
v 0 -144 0
v 0 -176 0
v -16 -176 0
v -16 -160 0
v 0 -160 0
v 0 -192 0
v -16 -192 0
v -16 -176 0
v 0 -176 0
v 0 -208 0
v -16 -208 0
v -16 -192 0
v 0 -192 0
v 0 -224 0
v -16 -224 0
v -16 -208 0
v 0 -208 0
v 0 -240 0
v -16 -240 0
v -16 -224 0
v 0 -224 0
v 0 -256 0
v -16 -256 0
v -16 -240 0
v 0 -240 0

# Texture cooridinates (Count = 30)
vt 0.7692308 0.96
vt 0.8461539 0.96
vt 0.8461539 1
vt 0.7692308 1
vt 0.07692308 0.96
vt 0.1538462 0.96
vt 0.1538462 1
vt 0.07692308 1
vt 0.2307692 0.96
vt 0.2307692 1
vt 0.3076923 0.92
vt 0.3846154 0.92
vt 0.3846154 0.96
vt 0.3076923 0.96
vt 0.6923077 0.96
vt 0.6923077 1
vt 0.07692308 0.92
vt 0.1538462 0.92
vt 0.3076923 0.88
vt 0.3846154 0.88
vt 0 0.88
vt 0.07692308 0.88
vt 0 0.92
vt 0.2307692 0.92
vt 0.5384616 0.96
vt 0.6153846 0.96
vt 0.6153846 1
vt 0.5384616 1
vt 0.5384616 0.92
vt 0.6153846 0.92

# Normal
vn 0 0 -1

# Mesh description
g Level3_mesh_0123

# Faces
f 1/1/1 2/2/1 3/3/1 4/4/1
f 5/1/1 6/2/1 7/3/1 8/4/1
f 9/1/1 10/2/1 11/3/1 12/4/1
f 13/1/1 14/2/1 15/3/1 16/4/1
f 17/5/1 18/6/1 19/7/1 20/8/1
f 21/6/1 22/9/1 23/10/1 24/7/1
f 25/6/1 26/9/1 27/10/1 28/7/1
f 29/6/1 30/9/1 31/10/1 32/7/1
f 33/6/1 34/9/1 35/10/1 36/7/1
f 37/11/1 38/12/1 39/13/1 40/14/1
f 41/5/1 42/6/1 43/7/1 44/8/1
f 45/6/1 46/9/1 47/10/1 48/7/1
f 49/15/1 50/1/1 51/4/1 52/16/1
f 53/6/1 54/9/1 55/10/1 56/7/1
f 57/6/1 58/9/1 59/10/1 60/7/1
f 61/15/1 62/1/1 63/4/1 64/16/1
f 65/6/1 66/9/1 67/10/1 68/7/1
f 69/6/1 70/9/1 71/10/1 72/7/1
f 73/17/1 74/18/1 75/6/1 76/5/1
f 77/19/1 78/20/1 79/12/1 80/11/1
f 81/21/1 82/22/1 83/17/1 84/23/1
f 85/24/1 86/11/1 87/14/1 88/9/1
f 89/6/1 90/9/1 91/10/1 92/7/1
f 93/25/1 94/26/1 95/27/1 96/28/1
f 97/21/1 98/22/1 99/17/1 100/23/1
f 101/29/1 102/30/1 103/26/1 104/25/1
f 105/21/1 106/22/1 107/17/1 108/23/1
f 109/21/1 110/22/1 111/17/1 112/23/1
f 113/21/1 114/22/1 115/17/1 116/23/1
f 117/21/1 118/22/1 119/17/1 120/23/1
f 121/21/1 122/22/1 123/17/1 124/23/1
f 125/21/1 126/22/1 127/17/1 128/23/1
f 129/21/1 130/22/1 131/17/1 132/23/1
f 133/21/1 134/22/1 135/17/1 136/23/1
f 137/21/1 138/22/1 139/17/1 140/23/1
f 141/21/1 142/22/1 143/17/1 144/23/1
f 145/21/1 146/22/1 147/17/1 148/23/1

