# Tiled2Unity generated file. Do not modify by hand.
# Wavefront file for 'Level3_mesh_0088.obj'

# Vertices (Count = 12)
v -128 -16 0
v -144 -16 0
v -144 0 0
v -128 0 0
v -144 -16 0
v -160 -16 0
v -160 0 0
v -144 0 0
v -160 -16 0
v -176 -16 0
v -176 0 0
v -160 0 0

# Texture cooridinates (Count = 8)
vt 0.08695652 0.9285714
vt 0.1304348 0.9285714
vt 0.1304348 1
vt 0.08695652 1
vt 0.173913 0.9285714
vt 0.173913 1
vt 0.2173913 0.9285714
vt 0.2173913 1

# Normal
vn 0 0 -1

# Mesh description
g Level3_mesh_0088

# Faces
f 1/1/1 2/2/1 3/3/1 4/4/1
f 5/2/1 6/5/1 7/6/1 8/3/1
f 9/5/1 10/7/1 11/8/1 12/6/1

