# Tiled2Unity generated file. Do not modify by hand.
# Wavefront file for 'Level3_mesh_0037.obj'

# Vertices (Count = 120)
v -208 -48 0
v -224 -48 0
v -224 -32 0
v -208 -32 0
v -224 -48 0
v -240 -48 0
v -240 -32 0
v -224 -32 0
v -240 -48 0
v -256 -48 0
v -256 -32 0
v -240 -32 0
v -208 -64 0
v -224 -64 0
v -224 -48 0
v -208 -48 0
v -224 -64 0
v -240 -64 0
v -240 -48 0
v -224 -48 0
v -240 -64 0
v -256 -64 0
v -256 -48 0
v -240 -48 0
v -208 -80 0
v -224 -80 0
v -224 -64 0
v -208 -64 0
v -224 -80 0
v -240 -80 0
v -240 -64 0
v -224 -64 0
v -240 -80 0
v -256 -80 0
v -256 -64 0
v -240 -64 0
v -208 -96 0
v -224 -96 0
v -224 -80 0
v -208 -80 0
v -224 -96 0
v -240 -96 0
v -240 -80 0
v -224 -80 0
v -240 -96 0
v -256 -96 0
v -256 -80 0
v -240 -80 0
v -208 -112 0
v -224 -112 0
v -224 -96 0
v -208 -96 0
v -224 -112 0
v -240 -112 0
v -240 -96 0
v -224 -96 0
v -240 -112 0
v -256 -112 0
v -256 -96 0
v -240 -96 0
v -208 -128 0
v -224 -128 0
v -224 -112 0
v -208 -112 0
v -224 -128 0
v -240 -128 0
v -240 -112 0
v -224 -112 0
v -240 -128 0
v -256 -128 0
v -256 -112 0
v -240 -112 0
v -208 -144 0
v -224 -144 0
v -224 -128 0
v -208 -128 0
v -224 -144 0
v -240 -144 0
v -240 -128 0
v -224 -128 0
v -240 -144 0
v -256 -144 0
v -256 -128 0
v -240 -128 0
v -208 -160 0
v -224 -160 0
v -224 -144 0
v -208 -144 0
v -224 -160 0
v -240 -160 0
v -240 -144 0
v -224 -144 0
v -240 -160 0
v -256 -160 0
v -256 -144 0
v -240 -144 0
v -208 -176 0
v -224 -176 0
v -224 -160 0
v -208 -160 0
v -224 -176 0
v -240 -176 0
v -240 -160 0
v -224 -160 0
v -240 -176 0
v -256 -176 0
v -256 -160 0
v -240 -160 0
v -208 -192 0
v -224 -192 0
v -224 -176 0
v -208 -176 0
v -224 -192 0
v -240 -192 0
v -240 -176 0
v -224 -176 0
v -240 -192 0
v -256 -192 0
v -256 -176 0
v -240 -176 0

# Texture cooridinates (Count = 44)
vt 0 0.44
vt 0.07692308 0.44
vt 0.07692308 0.48
vt 0 0.48
vt 0.1538462 0.44
vt 0.1538462 0.48
vt 0.2307692 0.44
vt 0.2307692 0.48
vt 0 0.4
vt 0.07692308 0.4
vt 0.1538462 0.4
vt 0.2307692 0.4
vt 0 0.36
vt 0.07692308 0.36
vt 0.1538462 0.36
vt 0.2307692 0.36
vt 0 0.32
vt 0.07692308 0.32
vt 0.1538462 0.32
vt 0.2307692 0.32
vt 0 0.28
vt 0.07692308 0.28
vt 0.1538462 0.28
vt 0.2307692 0.28
vt 0 0.24
vt 0.07692308 0.24
vt 0.1538462 0.24
vt 0.2307692 0.24
vt 0 0.2
vt 0.07692308 0.2
vt 0.1538462 0.2
vt 0.2307692 0.2
vt 0 0.16
vt 0.07692308 0.16
vt 0.1538462 0.16
vt 0.2307692 0.16
vt 0 0.12
vt 0.07692308 0.12
vt 0.1538462 0.12
vt 0.2307692 0.12
vt 0 0.07999998
vt 0.07692308 0.07999998
vt 0.1538462 0.07999998
vt 0.2307692 0.07999998

# Normal
vn 0 0 -1

# Mesh description
g Level3_mesh_0037

# Faces
f 1/1/1 2/2/1 3/3/1 4/4/1
f 5/2/1 6/5/1 7/6/1 8/3/1
f 9/5/1 10/7/1 11/8/1 12/6/1
f 13/9/1 14/10/1 15/2/1 16/1/1
f 17/10/1 18/11/1 19/5/1 20/2/1
f 21/11/1 22/12/1 23/7/1 24/5/1
f 25/13/1 26/14/1 27/10/1 28/9/1
f 29/14/1 30/15/1 31/11/1 32/10/1
f 33/15/1 34/16/1 35/12/1 36/11/1
f 37/17/1 38/18/1 39/14/1 40/13/1
f 41/18/1 42/19/1 43/15/1 44/14/1
f 45/19/1 46/20/1 47/16/1 48/15/1
f 49/21/1 50/22/1 51/18/1 52/17/1
f 53/22/1 54/23/1 55/19/1 56/18/1
f 57/23/1 58/24/1 59/20/1 60/19/1
f 61/25/1 62/26/1 63/22/1 64/21/1
f 65/26/1 66/27/1 67/23/1 68/22/1
f 69/27/1 70/28/1 71/24/1 72/23/1
f 73/29/1 74/30/1 75/26/1 76/25/1
f 77/30/1 78/31/1 79/27/1 80/26/1
f 81/31/1 82/32/1 83/28/1 84/27/1
f 85/33/1 86/34/1 87/30/1 88/29/1
f 89/34/1 90/35/1 91/31/1 92/30/1
f 93/35/1 94/36/1 95/32/1 96/31/1
f 97/37/1 98/38/1 99/34/1 100/33/1
f 101/38/1 102/39/1 103/35/1 104/34/1
f 105/39/1 106/40/1 107/36/1 108/35/1
f 109/41/1 110/42/1 111/38/1 112/37/1
f 113/42/1 114/43/1 115/39/1 116/38/1
f 117/43/1 118/44/1 119/40/1 120/39/1

