# Tiled2Unity generated file. Do not modify by hand.
# Wavefront file for 'Level3_mesh_0104.obj'

# Vertices (Count = 116)
v -16 -16 0
v -32 -16 0
v -32 0 0
v -16 0 0
v -32 -16 0
v -48 -16 0
v -48 0 0
v -32 0 0
v -48 -16 0
v -64 -16 0
v -64 0 0
v -48 0 0
v -64 -16 0
v -80 -16 0
v -80 0 0
v -64 0 0
v -80 -16 0
v -96 -16 0
v -96 0 0
v -80 0 0
v -96 -16 0
v -112 -16 0
v -112 0 0
v -96 0 0
v -112 -16 0
v -128 -16 0
v -128 0 0
v -112 0 0
v -128 -16 0
v -144 -16 0
v -144 0 0
v -128 0 0
v -144 -16 0
v -160 -16 0
v -160 0 0
v -144 0 0
v -160 -16 0
v -176 -16 0
v -176 0 0
v -160 0 0
v -176 -16 0
v -192 -16 0
v -192 0 0
v -176 0 0
v -192 -16 0
v -208 -16 0
v -208 0 0
v -192 0 0
v -208 -16 0
v -224 -16 0
v -224 0 0
v -208 0 0
v -224 -16 0
v -240 -16 0
v -240 0 0
v -224 0 0
v -16 -32 0
v -32 -32 0
v -32 -16 0
v -16 -16 0
v -16 -48 0
v -32 -48 0
v -32 -32 0
v -16 -32 0
v -16 -64 0
v -32 -64 0
v -32 -48 0
v -16 -48 0
v -16 -80 0
v -32 -80 0
v -32 -64 0
v -16 -64 0
v -16 -96 0
v -32 -96 0
v -32 -80 0
v -16 -80 0
v -16 -112 0
v -32 -112 0
v -32 -96 0
v -16 -96 0
v -16 -128 0
v -32 -128 0
v -32 -112 0
v -16 -112 0
v -16 -144 0
v -32 -144 0
v -32 -128 0
v -16 -128 0
v -16 -160 0
v -32 -160 0
v -32 -144 0
v -16 -144 0
v -16 -176 0
v -32 -176 0
v -32 -160 0
v -16 -160 0
v -16 -192 0
v -32 -192 0
v -32 -176 0
v -16 -176 0
v -16 -208 0
v -32 -208 0
v -32 -192 0
v -16 -192 0
v -16 -224 0
v -32 -224 0
v -32 -208 0
v -16 -208 0
v -16 -240 0
v -32 -240 0
v -32 -224 0
v -16 -224 0
v -16 -256 0
v -32 -256 0
v -32 -240 0
v -16 -240 0

# Texture cooridinates (Count = 13)
vt 0.04347826 0.7857143
vt 0.08695652 0.7857143
vt 0.08695652 0.8571429
vt 0.04347826 0.8571429
vt 0.173913 0.8571429
vt 0.2173913 0.8571429
vt 0.2173913 0.9285714
vt 0.173913 0.9285714
vt 0.1304348 0.9285714
vt 0.173913 1
vt 0.1304348 1
vt 0.1304348 0.8571429
vt 0.08695652 0.9285714

# Normal
vn 0 0 -1

# Mesh description
g Level3_mesh_0104

# Faces
f 1/1/1 2/2/1 3/3/1 4/4/1
f 5/5/1 6/6/1 7/7/1 8/8/1
f 9/9/1 10/8/1 11/10/1 12/11/1
f 13/9/1 14/8/1 15/10/1 16/11/1
f 17/9/1 18/8/1 19/10/1 20/11/1
f 21/9/1 22/8/1 23/10/1 24/11/1
f 25/9/1 26/8/1 27/10/1 28/11/1
f 29/9/1 30/8/1 31/10/1 32/11/1
f 33/9/1 34/8/1 35/10/1 36/11/1
f 37/9/1 38/8/1 39/10/1 40/11/1
f 41/9/1 42/8/1 43/10/1 44/11/1
f 45/9/1 46/8/1 47/10/1 48/11/1
f 49/9/1 50/8/1 51/10/1 52/11/1
f 53/3/1 54/12/1 55/9/1 56/13/1
f 57/1/1 58/2/1 59/3/1 60/4/1
f 61/1/1 62/2/1 63/3/1 64/4/1
f 65/1/1 66/2/1 67/3/1 68/4/1
f 69/1/1 70/2/1 71/3/1 72/4/1
f 73/1/1 74/2/1 75/3/1 76/4/1
f 77/1/1 78/2/1 79/3/1 80/4/1
f 81/1/1 82/2/1 83/3/1 84/4/1
f 85/1/1 86/2/1 87/3/1 88/4/1
f 89/1/1 90/2/1 91/3/1 92/4/1
f 93/1/1 94/2/1 95/3/1 96/4/1
f 97/1/1 98/2/1 99/3/1 100/4/1
f 101/1/1 102/2/1 103/3/1 104/4/1
f 105/1/1 106/2/1 107/3/1 108/4/1
f 109/1/1 110/2/1 111/3/1 112/4/1
f 113/1/1 114/2/1 115/3/1 116/4/1

