# Tiled2Unity generated file. Do not modify by hand.
# Wavefront file for 'Level3_mesh_0109.obj'

# Vertices (Count = 116)
v 0 -16 0
v -16 -16 0
v -16 0 0
v 0 0 0
v -16 -16 0
v -32 -16 0
v -32 0 0
v -16 0 0
v -32 -16 0
v -48 -16 0
v -48 0 0
v -32 0 0
v -48 -16 0
v -64 -16 0
v -64 0 0
v -48 0 0
v -64 -16 0
v -80 -16 0
v -80 0 0
v -64 0 0
v -96 -16 0
v -112 -16 0
v -112 0 0
v -96 0 0
v -112 -16 0
v -128 -16 0
v -128 0 0
v -112 0 0
v -128 -16 0
v -144 -16 0
v -144 0 0
v -128 0 0
v -144 -16 0
v -160 -16 0
v -160 0 0
v -144 0 0
v -160 -16 0
v -176 -16 0
v -176 0 0
v -160 0 0
v -176 -16 0
v -192 -16 0
v -192 0 0
v -176 0 0
v -192 -16 0
v -208 -16 0
v -208 0 0
v -192 0 0
v -208 -16 0
v -224 -16 0
v -224 0 0
v -208 0 0
v -224 -16 0
v -240 -16 0
v -240 0 0
v -224 0 0
v -224 -32 0
v -240 -32 0
v -240 -16 0
v -224 -16 0
v -224 -48 0
v -240 -48 0
v -240 -32 0
v -224 -32 0
v -224 -64 0
v -240 -64 0
v -240 -48 0
v -224 -48 0
v -224 -80 0
v -240 -80 0
v -240 -64 0
v -224 -64 0
v -224 -96 0
v -240 -96 0
v -240 -80 0
v -224 -80 0
v -224 -112 0
v -240 -112 0
v -240 -96 0
v -224 -96 0
v -224 -128 0
v -240 -128 0
v -240 -112 0
v -224 -112 0
v -224 -144 0
v -240 -144 0
v -240 -128 0
v -224 -128 0
v -224 -160 0
v -240 -160 0
v -240 -144 0
v -224 -144 0
v -224 -176 0
v -240 -176 0
v -240 -160 0
v -224 -160 0
v -224 -192 0
v -240 -192 0
v -240 -176 0
v -224 -176 0
v -224 -208 0
v -240 -208 0
v -240 -192 0
v -224 -192 0
v -224 -224 0
v -240 -224 0
v -240 -208 0
v -224 -208 0
v -224 -240 0
v -240 -240 0
v -240 -224 0
v -224 -224 0
v -224 -256 0
v -240 -256 0
v -240 -240 0
v -224 -240 0

# Texture cooridinates (Count = 14)
vt 0.173913 0.8571429
vt 0.2173913 0.8571429
vt 0.2173913 0.9285714
vt 0.173913 0.9285714
vt 0.1304348 0.9285714
vt 0.173913 1
vt 0.1304348 1
vt 0.08695652 0.8571429
vt 0.1304348 0.8571429
vt 0.08695652 0.9285714
vt 0.2608696 0.8571429
vt 0.2608696 0.9285714
vt 0.2173913 0.7857143
vt 0.2608696 0.7857143

# Normal
vn 0 0 -1

# Mesh description
g Level3_mesh_0109

# Faces
f 1/1/1 2/2/1 3/3/1 4/4/1
f 5/5/1 6/4/1 7/6/1 8/7/1
f 9/5/1 10/4/1 11/6/1 12/7/1
f 13/5/1 14/4/1 15/6/1 16/7/1
f 17/8/1 18/9/1 19/5/1 20/10/1
f 21/1/1 22/2/1 23/3/1 24/4/1
f 25/5/1 26/4/1 27/6/1 28/7/1
f 29/5/1 30/4/1 31/6/1 32/7/1
f 33/5/1 34/4/1 35/6/1 36/7/1
f 37/5/1 38/4/1 39/6/1 40/7/1
f 41/5/1 42/4/1 43/6/1 44/7/1
f 45/5/1 46/4/1 47/6/1 48/7/1
f 49/5/1 50/4/1 51/6/1 52/7/1
f 53/2/1 54/11/1 55/12/1 56/3/1
f 57/13/1 58/14/1 59/11/1 60/2/1
f 61/13/1 62/14/1 63/11/1 64/2/1
f 65/13/1 66/14/1 67/11/1 68/2/1
f 69/13/1 70/14/1 71/11/1 72/2/1
f 73/13/1 74/14/1 75/11/1 76/2/1
f 77/13/1 78/14/1 79/11/1 80/2/1
f 81/13/1 82/14/1 83/11/1 84/2/1
f 85/13/1 86/14/1 87/11/1 88/2/1
f 89/13/1 90/14/1 91/11/1 92/2/1
f 93/13/1 94/14/1 95/11/1 96/2/1
f 97/13/1 98/14/1 99/11/1 100/2/1
f 101/13/1 102/14/1 103/11/1 104/2/1
f 105/13/1 106/14/1 107/11/1 108/2/1
f 109/13/1 110/14/1 111/11/1 112/2/1
f 113/13/1 114/14/1 115/11/1 116/2/1

