# Tiled2Unity generated file. Do not modify by hand.
# Wavefront file for 'Level3_mesh_0059.obj'

# Vertices (Count = 88)
v -80 -128 0
v -96 -128 0
v -96 -112 0
v -80 -112 0
v -112 -128 0
v -128 -128 0
v -128 -112 0
v -112 -112 0
v -208 -128 0
v -224 -128 0
v -224 -112 0
v -208 -112 0
v -80 -144 0
v -96 -144 0
v -96 -128 0
v -80 -128 0
v -112 -144 0
v -128 -144 0
v -128 -128 0
v -112 -128 0
v -208 -144 0
v -224 -144 0
v -224 -128 0
v -208 -128 0
v -80 -160 0
v -96 -160 0
v -96 -144 0
v -80 -144 0
v -112 -160 0
v -128 -160 0
v -128 -144 0
v -112 -144 0
v -208 -160 0
v -224 -160 0
v -224 -144 0
v -208 -144 0
v -240 -160 0
v -256 -160 0
v -256 -144 0
v -240 -144 0
v -80 -176 0
v -96 -176 0
v -96 -160 0
v -80 -160 0
v -112 -176 0
v -128 -176 0
v -128 -160 0
v -112 -160 0
v -208 -176 0
v -224 -176 0
v -224 -160 0
v -208 -160 0
v -240 -176 0
v -256 -176 0
v -256 -160 0
v -240 -160 0
v -112 -192 0
v -128 -192 0
v -128 -176 0
v -112 -176 0
v -240 -192 0
v -256 -192 0
v -256 -176 0
v -240 -176 0
v -112 -208 0
v -128 -208 0
v -128 -192 0
v -112 -192 0
v -112 -224 0
v -128 -224 0
v -128 -208 0
v -112 -208 0
v -144 -224 0
v -160 -224 0
v -160 -208 0
v -144 -208 0
v -144 -240 0
v -160 -240 0
v -160 -224 0
v -144 -224 0
v 0 -256 0
v -16 -256 0
v -16 -240 0
v 0 -240 0
v -224 -256 0
v -240 -256 0
v -240 -240 0
v -224 -240 0

# Texture cooridinates (Count = 19)
vt 0.3043478 0.7857143
vt 0.3478261 0.7857143
vt 0.3478261 0.8571429
vt 0.3043478 0.8571429
vt 0.2608696 0.7142857
vt 0.3043478 0.7142857
vt 0.2608696 0.7857143
vt 0.3478261 0.3571429
vt 0.3913043 0.3571429
vt 0.3913043 0.4285714
vt 0.3478261 0.4285714
vt 0.2608696 0.6428571
vt 0.3043478 0.6428571
vt 0.2608696 0.5714285
vt 0.3043478 0.5714285
vt 0.8260869 0.9285714
vt 0.8695652 0.9285714
vt 0.8695652 1
vt 0.8260869 1

# Normal
vn 0 0 -1

# Mesh description
g Level3_mesh_0059

# Faces
f 1/1/1 2/2/1 3/3/1 4/4/1
f 5/1/1 6/2/1 7/3/1 8/4/1
f 9/1/1 10/2/1 11/3/1 12/4/1
f 13/1/1 14/2/1 15/3/1 16/4/1
f 17/1/1 18/2/1 19/3/1 20/4/1
f 21/1/1 22/2/1 23/3/1 24/4/1
f 25/1/1 26/2/1 27/3/1 28/4/1
f 29/1/1 30/2/1 31/3/1 32/4/1
f 33/1/1 34/2/1 35/3/1 36/4/1
f 37/5/1 38/6/1 39/1/1 40/7/1
f 41/8/1 42/9/1 43/10/1 44/11/1
f 45/1/1 46/2/1 47/3/1 48/4/1
f 49/8/1 50/9/1 51/10/1 52/11/1
f 53/12/1 54/13/1 55/6/1 56/5/1
f 57/1/1 58/2/1 59/3/1 60/4/1
f 61/14/1 62/15/1 63/13/1 64/12/1
f 65/1/1 66/2/1 67/3/1 68/4/1
f 69/8/1 70/9/1 71/10/1 72/11/1
f 73/1/1 74/2/1 75/3/1 76/4/1
f 77/8/1 78/9/1 79/10/1 80/11/1
f 81/16/1 82/17/1 83/18/1 84/19/1
f 85/16/1 86/17/1 87/18/1 88/19/1

