# Tiled2Unity generated file. Do not modify by hand.
# Wavefront file for 'Level3_mesh_0061.obj'

# Vertices (Count = 168)
v -80 -128 0
v -96 -128 0
v -96 -112 0
v -80 -112 0
v -96 -128 0
v -112 -128 0
v -112 -112 0
v -96 -112 0
v -112 -128 0
v -128 -128 0
v -128 -112 0
v -112 -112 0
v -128 -128 0
v -144 -128 0
v -144 -112 0
v -128 -112 0
v -240 -128 0
v -256 -128 0
v -256 -112 0
v -240 -112 0
v -32 -144 0
v -48 -144 0
v -48 -128 0
v -32 -128 0
v -80 -144 0
v -96 -144 0
v -96 -128 0
v -80 -128 0
v -96 -144 0
v -112 -144 0
v -112 -128 0
v -96 -128 0
v -112 -144 0
v -128 -144 0
v -128 -128 0
v -112 -128 0
v -128 -144 0
v -144 -144 0
v -144 -128 0
v -128 -128 0
v -240 -144 0
v -256 -144 0
v -256 -128 0
v -240 -128 0
v -16 -160 0
v -32 -160 0
v -32 -144 0
v -16 -144 0
v -32 -160 0
v -48 -160 0
v -48 -144 0
v -32 -144 0
v -48 -160 0
v -64 -160 0
v -64 -144 0
v -48 -144 0
v -80 -160 0
v -96 -160 0
v -96 -144 0
v -80 -144 0
v -96 -160 0
v -112 -160 0
v -112 -144 0
v -96 -144 0
v -112 -160 0
v -128 -160 0
v -128 -144 0
v -112 -144 0
v -128 -160 0
v -144 -160 0
v -144 -144 0
v -128 -144 0
v -240 -160 0
v -256 -160 0
v -256 -144 0
v -240 -144 0
v -16 -176 0
v -32 -176 0
v -32 -160 0
v -16 -160 0
v -32 -176 0
v -48 -176 0
v -48 -160 0
v -32 -160 0
v -48 -176 0
v -64 -176 0
v -64 -160 0
v -48 -160 0
v -80 -176 0
v -96 -176 0
v -96 -160 0
v -80 -160 0
v -96 -176 0
v -112 -176 0
v -112 -160 0
v -96 -160 0
v -112 -176 0
v -128 -176 0
v -128 -160 0
v -112 -160 0
v -128 -176 0
v -144 -176 0
v -144 -160 0
v -128 -160 0
v -208 -176 0
v -224 -176 0
v -224 -160 0
v -208 -160 0
v -240 -176 0
v -256 -176 0
v -256 -160 0
v -240 -160 0
v -16 -192 0
v -32 -192 0
v -32 -176 0
v -16 -176 0
v -32 -192 0
v -48 -192 0
v -48 -176 0
v -32 -176 0
v -48 -192 0
v -64 -192 0
v -64 -176 0
v -48 -176 0
v -80 -192 0
v -96 -192 0
v -96 -176 0
v -80 -176 0
v -112 -192 0
v -128 -192 0
v -128 -176 0
v -112 -176 0
v -128 -192 0
v -144 -192 0
v -144 -176 0
v -128 -176 0
v -208 -192 0
v -224 -192 0
v -224 -176 0
v -208 -176 0
v -80 -208 0
v -96 -208 0
v -96 -192 0
v -80 -192 0
v -128 -208 0
v -144 -208 0
v -144 -192 0
v -128 -192 0
v -208 -208 0
v -224 -208 0
v -224 -192 0
v -208 -192 0
v -80 -224 0
v -96 -224 0
v -96 -208 0
v -80 -208 0
v 0 -240 0
v -16 -240 0
v -16 -224 0
v 0 -224 0
v 0 -256 0
v -16 -256 0
v -16 -240 0
v 0 -240 0
v -64 -256 0
v -80 -256 0
v -80 -240 0
v -64 -240 0

# Texture cooridinates (Count = 32)
vt 0.3043478 0.7857143
vt 0.3478261 0.7857143
vt 0.3478261 0.8571429
vt 0.3043478 0.8571429
vt 0.2608696 0.7142857
vt 0.3043478 0.7142857
vt 0.2608696 0.7857143
vt 0.3478261 0.7142857
vt 0.3913043 0.7142857
vt 0.3913043 0.7857143
vt 0.2608696 0.6428571
vt 0.3043478 0.6428571
vt 0.3478261 0.6428571
vt 0.3913043 0.6428571
vt 0.3478261 0.3571429
vt 0.3913043 0.3571429
vt 0.3913043 0.4285714
vt 0.3478261 0.4285714
vt 0.2608696 0.5714285
vt 0.3043478 0.5714285
vt 0.3478261 0.5714285
vt 0.3913043 0.5714285
vt 0.6521739 0.7857143
vt 0.6956522 0.7857143
vt 0.6956522 0.8571429
vt 0.6521739 0.8571429
vt 0.6521739 0.7142857
vt 0.6956522 0.7142857
vt 0.8260869 0.9285714
vt 0.8695652 0.9285714
vt 0.8695652 1
vt 0.8260869 1

# Normal
vn 0 0 -1

# Mesh description
g Level3_mesh_0061

# Faces
f 1/1/1 2/2/1 3/3/1 4/4/1
f 5/1/1 6/2/1 7/3/1 8/4/1
f 9/1/1 10/2/1 11/3/1 12/4/1
f 13/1/1 14/2/1 15/3/1 16/4/1
f 17/1/1 18/2/1 19/3/1 20/4/1
f 21/1/1 22/2/1 23/3/1 24/4/1
f 25/1/1 26/2/1 27/3/1 28/4/1
f 29/1/1 30/2/1 31/3/1 32/4/1
f 33/1/1 34/2/1 35/3/1 36/4/1
f 37/1/1 38/2/1 39/3/1 40/4/1
f 41/1/1 42/2/1 43/3/1 44/4/1
f 45/5/1 46/6/1 47/1/1 48/7/1
f 49/6/1 50/8/1 51/2/1 52/1/1
f 53/8/1 54/9/1 55/10/1 56/2/1
f 57/1/1 58/2/1 59/3/1 60/4/1
f 61/1/1 62/2/1 63/3/1 64/4/1
f 65/1/1 66/2/1 67/3/1 68/4/1
f 69/1/1 70/2/1 71/3/1 72/4/1
f 73/1/1 74/2/1 75/3/1 76/4/1
f 77/11/1 78/12/1 79/6/1 80/5/1
f 81/12/1 82/13/1 83/8/1 84/6/1
f 85/13/1 86/14/1 87/9/1 88/8/1
f 89/1/1 90/2/1 91/3/1 92/4/1
f 93/15/1 94/16/1 95/17/1 96/18/1
f 97/1/1 98/2/1 99/3/1 100/4/1
f 101/1/1 102/2/1 103/3/1 104/4/1
f 105/1/1 106/2/1 107/3/1 108/4/1
f 109/15/1 110/16/1 111/17/1 112/18/1
f 113/19/1 114/20/1 115/12/1 116/11/1
f 117/20/1 118/21/1 119/13/1 120/12/1
f 121/21/1 122/22/1 123/14/1 124/13/1
f 125/1/1 126/2/1 127/3/1 128/4/1
f 129/15/1 130/16/1 131/17/1 132/18/1
f 133/1/1 134/2/1 135/3/1 136/4/1
f 137/1/1 138/2/1 139/3/1 140/4/1
f 141/1/1 142/2/1 143/3/1 144/4/1
f 145/15/1 146/16/1 147/17/1 148/18/1
f 149/15/1 150/16/1 151/17/1 152/18/1
f 153/15/1 154/16/1 155/17/1 156/18/1
f 157/23/1 158/24/1 159/25/1 160/26/1
f 161/27/1 162/28/1 163/24/1 164/23/1
f 165/29/1 166/30/1 167/31/1 168/32/1

