# Tiled2Unity generated file. Do not modify by hand.
# Wavefront file for 'Level3_mesh_0081.obj'

# Vertices (Count = 420)
v -240 -80 0
v -256 -80 0
v -256 -64 0
v -240 -64 0
v 0 -96 0
v -16 -96 0
v -16 -80 0
v 0 -80 0
v -160 -96 0
v -176 -96 0
v -176 -80 0
v -160 -80 0
v -240 -96 0
v -256 -96 0
v -256 -80 0
v -240 -80 0
v 0 -112 0
v -16 -112 0
v -16 -96 0
v 0 -96 0
v -144 -112 0
v -160 -112 0
v -160 -96 0
v -144 -96 0
v -160 -112 0
v -176 -112 0
v -176 -96 0
v -160 -96 0
v -176 -112 0
v -192 -112 0
v -192 -96 0
v -176 -96 0
v -192 -112 0
v -208 -112 0
v -208 -96 0
v -192 -96 0
v -208 -112 0
v -224 -112 0
v -224 -96 0
v -208 -96 0
v -224 -112 0
v -240 -112 0
v -240 -96 0
v -224 -96 0
v -240 -112 0
v -256 -112 0
v -256 -96 0
v -240 -96 0
v 0 -128 0
v -16 -128 0
v -16 -112 0
v 0 -112 0
v -16 -128 0
v -32 -128 0
v -32 -112 0
v -16 -112 0
v -32 -128 0
v -48 -128 0
v -48 -112 0
v -32 -112 0
v -48 -128 0
v -64 -128 0
v -64 -112 0
v -48 -112 0
v -64 -128 0
v -80 -128 0
v -80 -112 0
v -64 -112 0
v -80 -128 0
v -96 -128 0
v -96 -112 0
v -80 -112 0
v -96 -128 0
v -112 -128 0
v -112 -112 0
v -96 -112 0
v -112 -128 0
v -128 -128 0
v -128 -112 0
v -112 -112 0
v -144 -128 0
v -160 -128 0
v -160 -112 0
v -144 -112 0
v -160 -128 0
v -176 -128 0
v -176 -112 0
v -160 -112 0
v -176 -128 0
v -192 -128 0
v -192 -112 0
v -176 -112 0
v -192 -128 0
v -208 -128 0
v -208 -112 0
v -192 -112 0
v -208 -128 0
v -224 -128 0
v -224 -112 0
v -208 -112 0
v -224 -128 0
v -240 -128 0
v -240 -112 0
v -224 -112 0
v -240 -128 0
v -256 -128 0
v -256 -112 0
v -240 -112 0
v 0 -144 0
v -16 -144 0
v -16 -128 0
v 0 -128 0
v -16 -144 0
v -32 -144 0
v -32 -128 0
v -16 -128 0
v -48 -144 0
v -64 -144 0
v -64 -128 0
v -48 -128 0
v -64 -144 0
v -80 -144 0
v -80 -128 0
v -64 -128 0
v -80 -144 0
v -96 -144 0
v -96 -128 0
v -80 -128 0
v -96 -144 0
v -112 -144 0
v -112 -128 0
v -96 -128 0
v -112 -144 0
v -128 -144 0
v -128 -128 0
v -112 -128 0
v -144 -144 0
v -160 -144 0
v -160 -128 0
v -144 -128 0
v -160 -144 0
v -176 -144 0
v -176 -128 0
v -160 -128 0
v -176 -144 0
v -192 -144 0
v -192 -128 0
v -176 -128 0
v -192 -144 0
v -208 -144 0
v -208 -128 0
v -192 -128 0
v -208 -144 0
v -224 -144 0
v -224 -128 0
v -208 -128 0
v -224 -144 0
v -240 -144 0
v -240 -128 0
v -224 -128 0
v -240 -144 0
v -256 -144 0
v -256 -128 0
v -240 -128 0
v 0 -160 0
v -16 -160 0
v -16 -144 0
v 0 -144 0
v -16 -160 0
v -32 -160 0
v -32 -144 0
v -16 -144 0
v -32 -160 0
v -48 -160 0
v -48 -144 0
v -32 -144 0
v -48 -160 0
v -64 -160 0
v -64 -144 0
v -48 -144 0
v -64 -160 0
v -80 -160 0
v -80 -144 0
v -64 -144 0
v -80 -160 0
v -96 -160 0
v -96 -144 0
v -80 -144 0
v -96 -160 0
v -112 -160 0
v -112 -144 0
v -96 -144 0
v -112 -160 0
v -128 -160 0
v -128 -144 0
v -112 -144 0
v -128 -160 0
v -144 -160 0
v -144 -144 0
v -128 -144 0
v -144 -160 0
v -160 -160 0
v -160 -144 0
v -144 -144 0
v -160 -160 0
v -176 -160 0
v -176 -144 0
v -160 -144 0
v -176 -160 0
v -192 -160 0
v -192 -144 0
v -176 -144 0
v -192 -160 0
v -208 -160 0
v -208 -144 0
v -192 -144 0
v -208 -160 0
v -224 -160 0
v -224 -144 0
v -208 -144 0
v -224 -160 0
v -240 -160 0
v -240 -144 0
v -224 -144 0
v -240 -160 0
v -256 -160 0
v -256 -144 0
v -240 -144 0
v 0 -176 0
v -16 -176 0
v -16 -160 0
v 0 -160 0
v -16 -176 0
v -32 -176 0
v -32 -160 0
v -16 -160 0
v -32 -176 0
v -48 -176 0
v -48 -160 0
v -32 -160 0
v -48 -176 0
v -64 -176 0
v -64 -160 0
v -48 -160 0
v -64 -176 0
v -80 -176 0
v -80 -160 0
v -64 -160 0
v -80 -176 0
v -96 -176 0
v -96 -160 0
v -80 -160 0
v -96 -176 0
v -112 -176 0
v -112 -160 0
v -96 -160 0
v -112 -176 0
v -128 -176 0
v -128 -160 0
v -112 -160 0
v -128 -176 0
v -144 -176 0
v -144 -160 0
v -128 -160 0
v -144 -176 0
v -160 -176 0
v -160 -160 0
v -144 -160 0
v -208 -176 0
v -224 -176 0
v -224 -160 0
v -208 -160 0
v -224 -176 0
v -240 -176 0
v -240 -160 0
v -224 -160 0
v -240 -176 0
v -256 -176 0
v -256 -160 0
v -240 -160 0
v 0 -192 0
v -16 -192 0
v -16 -176 0
v 0 -176 0
v -16 -192 0
v -32 -192 0
v -32 -176 0
v -16 -176 0
v -32 -192 0
v -48 -192 0
v -48 -176 0
v -32 -176 0
v -48 -192 0
v -64 -192 0
v -64 -176 0
v -48 -176 0
v -64 -192 0
v -80 -192 0
v -80 -176 0
v -64 -176 0
v -80 -192 0
v -96 -192 0
v -96 -176 0
v -80 -176 0
v -96 -192 0
v -112 -192 0
v -112 -176 0
v -96 -176 0
v -112 -192 0
v -128 -192 0
v -128 -176 0
v -112 -176 0
v -128 -192 0
v -144 -192 0
v -144 -176 0
v -128 -176 0
v -144 -192 0
v -160 -192 0
v -160 -176 0
v -144 -176 0
v -208 -192 0
v -224 -192 0
v -224 -176 0
v -208 -176 0
v -224 -192 0
v -240 -192 0
v -240 -176 0
v -224 -176 0
v -240 -192 0
v -256 -192 0
v -256 -176 0
v -240 -176 0
v -80 -208 0
v -96 -208 0
v -96 -192 0
v -80 -192 0
v -96 -208 0
v -112 -208 0
v -112 -192 0
v -96 -192 0
v -112 -208 0
v -128 -208 0
v -128 -192 0
v -112 -192 0
v -128 -208 0
v -144 -208 0
v -144 -192 0
v -128 -192 0
v -144 -208 0
v -160 -208 0
v -160 -192 0
v -144 -192 0
v -160 -208 0
v -176 -208 0
v -176 -192 0
v -160 -192 0
v -176 -208 0
v -192 -208 0
v -192 -192 0
v -176 -192 0
v -192 -208 0
v -208 -208 0
v -208 -192 0
v -192 -192 0
v -208 -208 0
v -224 -208 0
v -224 -192 0
v -208 -192 0
v -224 -208 0
v -240 -208 0
v -240 -192 0
v -224 -192 0
v -240 -208 0
v -256 -208 0
v -256 -192 0
v -240 -192 0
v 0 -224 0
v -16 -224 0
v -16 -208 0
v 0 -208 0
v -16 -224 0
v -32 -224 0
v -32 -208 0
v -16 -208 0
v -32 -224 0
v -48 -224 0
v -48 -208 0
v -32 -208 0
v -144 -224 0
v -160 -224 0
v -160 -208 0
v -144 -208 0
v -160 -224 0
v -176 -224 0
v -176 -208 0
v -160 -208 0
v -176 -224 0
v -192 -224 0
v -192 -208 0
v -176 -208 0
v -192 -224 0
v -208 -224 0
v -208 -208 0
v -192 -208 0
v -208 -224 0
v -224 -224 0
v -224 -208 0
v -208 -208 0
v 0 -240 0
v -16 -240 0
v -16 -224 0
v 0 -224 0
v -16 -240 0
v -32 -240 0
v -32 -224 0
v -16 -224 0
v -32 -240 0
v -48 -240 0
v -48 -224 0
v -32 -224 0

# Texture cooridinates (Count = 26)
vt 0.3846154 0.88
vt 0.4615385 0.88
vt 0.4615385 0.92
vt 0.3846154 0.92
vt 0.1538462 0.48
vt 0.2307692 0.48
vt 0.2307692 0.52
vt 0.1538462 0.52
vt 0.1538462 0.88
vt 0.2307692 0.88
vt 0.2307692 0.92
vt 0.1538462 0.92
vt 0.6923077 0.88
vt 0.7692308 0.88
vt 0.7692308 0.92
vt 0.6923077 0.92
vt 0.3846154 0.84
vt 0.4615385 0.84
vt 0.6153846 0.88
vt 0.6153846 0.92
vt 0.6153846 0.84
vt 0.6923077 0.84
vt 0.5384616 0.88
vt 0.5384616 0.92
vt 0.5384616 0.84
vt 0.7692308 0.84

# Normal
vn 0 0 -1

# Mesh description
g Level3_mesh_0081

# Faces
f 1/1/1 2/2/1 3/3/1 4/4/1
f 5/5/1 6/6/1 7/7/1 8/8/1
f 9/5/1 10/6/1 11/7/1 12/8/1
f 13/9/1 14/10/1 15/11/1 16/12/1
f 17/5/1 18/6/1 19/7/1 20/8/1
f 21/5/1 22/6/1 23/7/1 24/8/1
f 25/5/1 26/6/1 27/7/1 28/8/1
f 29/5/1 30/6/1 31/7/1 32/8/1
f 33/5/1 34/6/1 35/7/1 36/8/1
f 37/13/1 38/14/1 39/15/1 40/16/1
f 41/1/1 42/2/1 43/3/1 44/4/1
f 45/17/1 46/18/1 47/2/1 48/1/1
f 49/19/1 50/13/1 51/16/1 52/20/1
f 53/21/1 54/22/1 55/13/1 56/19/1
f 57/23/1 58/19/1 59/20/1 60/24/1
f 61/23/1 62/19/1 63/20/1 64/24/1
f 65/23/1 66/19/1 67/20/1 68/24/1
f 69/23/1 70/19/1 71/20/1 72/24/1
f 73/19/1 74/13/1 75/16/1 76/20/1
f 77/13/1 78/14/1 79/15/1 80/16/1
f 81/5/1 82/6/1 83/7/1 84/8/1
f 85/5/1 86/6/1 87/7/1 88/8/1
f 89/25/1 90/21/1 91/19/1 92/23/1
f 93/5/1 94/6/1 95/7/1 96/8/1
f 97/5/1 98/6/1 99/7/1 100/8/1
f 101/17/1 102/18/1 103/2/1 104/1/1
f 105/17/1 106/18/1 107/2/1 108/1/1
f 109/21/1 110/22/1 111/13/1 112/19/1
f 113/22/1 114/26/1 115/14/1 116/13/1
f 117/17/1 118/18/1 119/2/1 120/1/1
f 121/18/1 122/25/1 123/23/1 124/2/1
f 125/25/1 126/21/1 127/19/1 128/23/1
f 129/21/1 130/22/1 131/13/1 132/19/1
f 133/22/1 134/26/1 135/14/1 136/13/1
f 137/1/1 138/2/1 139/3/1 140/4/1
f 141/2/1 142/23/1 143/24/1 144/3/1
f 145/23/1 146/19/1 147/20/1 148/24/1
f 149/19/1 150/13/1 151/16/1 152/20/1
f 153/13/1 154/14/1 155/15/1 156/16/1
f 157/17/1 158/18/1 159/2/1 160/1/1
f 161/18/1 162/25/1 163/23/1 164/2/1
f 165/1/1 166/2/1 167/3/1 168/4/1
f 169/2/1 170/23/1 171/24/1 172/3/1
f 173/23/1 174/19/1 175/20/1 176/24/1
f 177/19/1 178/13/1 179/16/1 180/20/1
f 181/13/1 182/14/1 183/15/1 184/16/1
f 185/1/1 186/2/1 187/3/1 188/4/1
f 189/2/1 190/23/1 191/24/1 192/3/1
f 193/23/1 194/19/1 195/20/1 196/24/1
f 197/19/1 198/13/1 199/16/1 200/20/1
f 201/17/1 202/18/1 203/2/1 204/1/1
f 205/18/1 206/25/1 207/23/1 208/2/1
f 209/25/1 210/21/1 211/19/1 212/23/1
f 213/21/1 214/22/1 215/13/1 216/19/1
f 217/1/1 218/2/1 219/3/1 220/4/1
f 221/17/1 222/18/1 223/2/1 224/1/1
f 225/18/1 226/25/1 227/23/1 228/2/1
f 229/1/1 230/2/1 231/3/1 232/4/1
f 233/2/1 234/23/1 235/24/1 236/3/1
f 237/23/1 238/19/1 239/20/1 240/24/1
f 241/19/1 242/13/1 243/16/1 244/20/1
f 245/13/1 246/14/1 247/15/1 248/16/1
f 249/17/1 250/18/1 251/2/1 252/1/1
f 253/18/1 254/25/1 255/23/1 256/2/1
f 257/25/1 258/21/1 259/19/1 260/23/1
f 261/21/1 262/22/1 263/13/1 264/19/1
f 265/22/1 266/26/1 267/14/1 268/13/1
f 269/17/1 270/18/1 271/2/1 272/1/1
f 273/17/1 274/18/1 275/2/1 276/1/1
f 277/18/1 278/25/1 279/23/1 280/2/1
f 281/17/1 282/18/1 283/2/1 284/1/1
f 285/18/1 286/25/1 287/23/1 288/2/1
f 289/25/1 290/21/1 291/19/1 292/23/1
f 293/21/1 294/22/1 295/13/1 296/19/1
f 297/22/1 298/26/1 299/14/1 300/13/1
f 301/1/1 302/2/1 303/3/1 304/4/1
f 305/2/1 306/23/1 307/24/1 308/3/1
f 309/23/1 310/19/1 311/20/1 312/24/1
f 313/19/1 314/13/1 315/16/1 316/20/1
f 317/13/1 318/14/1 319/15/1 320/16/1
f 321/17/1 322/18/1 323/2/1 324/1/1
f 325/18/1 326/25/1 327/23/1 328/2/1
f 329/25/1 330/21/1 331/19/1 332/23/1
f 333/17/1 334/18/1 335/2/1 336/1/1
f 337/18/1 338/25/1 339/23/1 340/2/1
f 341/25/1 342/21/1 343/19/1 344/23/1
f 345/21/1 346/22/1 347/13/1 348/19/1
f 349/22/1 350/26/1 351/14/1 352/13/1
f 353/2/1 354/23/1 355/24/1 356/3/1
f 357/23/1 358/19/1 359/20/1 360/24/1
f 361/19/1 362/13/1 363/16/1 364/20/1
f 365/17/1 366/18/1 367/2/1 368/1/1
f 369/18/1 370/25/1 371/23/1 372/2/1
f 373/25/1 374/21/1 375/19/1 376/23/1
f 377/23/1 378/19/1 379/20/1 380/24/1
f 381/19/1 382/13/1 383/16/1 384/20/1
f 385/13/1 386/14/1 387/15/1 388/16/1
f 389/17/1 390/18/1 391/2/1 392/1/1
f 393/18/1 394/25/1 395/23/1 396/2/1
f 397/25/1 398/21/1 399/19/1 400/23/1
f 401/21/1 402/22/1 403/13/1 404/19/1
f 405/22/1 406/26/1 407/14/1 408/13/1
f 409/25/1 410/21/1 411/19/1 412/23/1
f 413/21/1 414/22/1 415/13/1 416/19/1
f 417/22/1 418/26/1 419/14/1 420/13/1

