# Tiled2Unity generated file. Do not modify by hand.
# Wavefront file for 'Level3_mesh_0072.obj'

# Vertices (Count = 60)
v -80 -16 0
v -96 -16 0
v -96 0 0
v -80 0 0
v -96 -16 0
v -112 -16 0
v -112 0 0
v -96 0 0
v -112 -16 0
v -128 -16 0
v -128 0 0
v -112 0 0
v -128 -16 0
v -144 -16 0
v -144 0 0
v -128 0 0
v -144 -16 0
v -160 -16 0
v -160 0 0
v -144 0 0
v -192 -16 0
v -208 -16 0
v -208 0 0
v -192 0 0
v -208 -16 0
v -224 -16 0
v -224 0 0
v -208 0 0
v -240 -16 0
v -256 -16 0
v -256 0 0
v -240 0 0
v -32 -32 0
v -48 -32 0
v -48 -16 0
v -32 -16 0
v -48 -32 0
v -64 -32 0
v -64 -16 0
v -48 -16 0
v -32 -48 0
v -48 -48 0
v -48 -32 0
v -32 -32 0
v -48 -48 0
v -64 -48 0
v -64 -32 0
v -48 -32 0
v -112 -48 0
v -128 -48 0
v -128 -32 0
v -112 -32 0
v -128 -48 0
v -144 -48 0
v -144 -32 0
v -128 -32 0
v -144 -48 0
v -160 -48 0
v -160 -32 0
v -144 -32 0

# Texture cooridinates (Count = 32)
vt 0 0.72
vt 0.07692308 0.72
vt 0.07692308 0.76
vt 0 0.76
vt 0.1538462 0.72
vt 0.1538462 0.76
vt 0.2307692 0.72
vt 0.2307692 0.76
vt 0.3076923 0.72
vt 0.3076923 0.76
vt 0.3846154 0.72
vt 0.3846154 0.76
vt 0.5384616 0.48
vt 0.6153846 0.48
vt 0.6153846 0.52
vt 0.5384616 0.52
vt 0.6923077 0.48
vt 0.6923077 0.52
vt 0.6923077 0.56
vt 0.7692308 0.56
vt 0.7692308 0.6
vt 0.6923077 0.6
vt 0.6153846 0.56
vt 0.5384616 0.56
vt 0.2307692 0.48
vt 0.3076923 0.48
vt 0.3076923 0.52
vt 0.2307692 0.52
vt 0.3846154 0.48
vt 0.3846154 0.52
vt 0.4615385 0.48
vt 0.4615385 0.52

# Normal
vn 0 0 -1

# Mesh description
g Level3_mesh_0072

# Faces
f 1/1/1 2/2/1 3/3/1 4/4/1
f 5/2/1 6/5/1 7/6/1 8/3/1
f 9/5/1 10/7/1 11/8/1 12/6/1
f 13/7/1 14/9/1 15/10/1 16/8/1
f 17/9/1 18/11/1 19/12/1 20/10/1
f 21/13/1 22/14/1 23/15/1 24/16/1
f 25/14/1 26/17/1 27/18/1 28/15/1
f 29/19/1 30/20/1 31/21/1 32/22/1
f 33/16/1 34/15/1 35/23/1 36/24/1
f 37/15/1 38/18/1 39/19/1 40/23/1
f 41/13/1 42/14/1 43/15/1 44/16/1
f 45/14/1 46/17/1 47/18/1 48/15/1
f 49/25/1 50/26/1 51/27/1 52/28/1
f 53/26/1 54/29/1 55/30/1 56/27/1
f 57/29/1 58/31/1 59/32/1 60/30/1

