# Tiled2Unity generated file. Do not modify by hand.
# Wavefront file for 'Level3_mesh_0071.obj'

# Vertices (Count = 128)
v -144 -48 0
v -160 -48 0
v -160 -32 0
v -144 -32 0
v -32 -64 0
v -48 -64 0
v -48 -48 0
v -32 -48 0
v -128 -64 0
v -144 -64 0
v -144 -48 0
v -128 -48 0
v -144 -64 0
v -160 -64 0
v -160 -48 0
v -144 -48 0
v -160 -64 0
v -176 -64 0
v -176 -48 0
v -160 -48 0
v -176 -64 0
v -192 -64 0
v -192 -48 0
v -176 -48 0
v -192 -64 0
v -208 -64 0
v -208 -48 0
v -192 -48 0
v -16 -80 0
v -32 -80 0
v -32 -64 0
v -16 -64 0
v -32 -80 0
v -48 -80 0
v -48 -64 0
v -32 -64 0
v -48 -80 0
v -64 -80 0
v -64 -64 0
v -48 -64 0
v -64 -80 0
v -80 -80 0
v -80 -64 0
v -64 -64 0
v -80 -80 0
v -96 -80 0
v -96 -64 0
v -80 -64 0
v -144 -80 0
v -160 -80 0
v -160 -64 0
v -144 -64 0
v -160 -80 0
v -176 -80 0
v -176 -64 0
v -160 -64 0
v -176 -80 0
v -192 -80 0
v -192 -64 0
v -176 -64 0
v -192 -80 0
v -208 -80 0
v -208 -64 0
v -192 -64 0
v -32 -96 0
v -48 -96 0
v -48 -80 0
v -32 -80 0
v -48 -96 0
v -64 -96 0
v -64 -80 0
v -48 -80 0
v -64 -96 0
v -80 -96 0
v -80 -80 0
v -64 -80 0
v -80 -96 0
v -96 -96 0
v -96 -80 0
v -80 -80 0
v -144 -96 0
v -160 -96 0
v -160 -80 0
v -144 -80 0
v -160 -96 0
v -176 -96 0
v -176 -80 0
v -160 -80 0
v -176 -96 0
v -192 -96 0
v -192 -80 0
v -176 -80 0
v -192 -96 0
v -208 -96 0
v -208 -80 0
v -192 -80 0
v -208 -96 0
v -224 -96 0
v -224 -80 0
v -208 -80 0
v -32 -112 0
v -48 -112 0
v -48 -96 0
v -32 -96 0
v -48 -112 0
v -64 -112 0
v -64 -96 0
v -48 -96 0
v -64 -112 0
v -80 -112 0
v -80 -96 0
v -64 -96 0
v -80 -112 0
v -96 -112 0
v -96 -96 0
v -80 -96 0
v -96 -112 0
v -112 -112 0
v -112 -96 0
v -96 -96 0
v -192 -112 0
v -208 -112 0
v -208 -96 0
v -192 -96 0
v -80 -128 0
v -96 -128 0
v -96 -112 0
v -80 -112 0

# Texture cooridinates (Count = 28)
vt 0.516129 0.3529412
vt 0.5322581 0.3529412
vt 0.5322581 0.4117647
vt 0.516129 0.4117647
vt 0.5 0.2941176
vt 0.516129 0.2941176
vt 0.5 0.3529412
vt 0.5322581 0.2941176
vt 0.5483871 0.2941176
vt 0.5483871 0.3529412
vt 0.5645161 0.2941176
vt 0.5645161 0.3529412
vt 0.5806451 0.2941176
vt 0.5806451 0.3529412
vt 0.516129 0.2352941
vt 0.5322581 0.2352941
vt 0.5483871 0.2352941
vt 0.5645161 0.2352941
vt 0.5806451 0.2352941
vt 0.516129 0.1764706
vt 0.5322581 0.1764706
vt 0.5483871 0.1764706
vt 0.5645161 0.1764706
vt 0.5806451 0.1764706
vt 0.5967742 0.1764706
vt 0.5967742 0.2352941
vt 0.5645161 0.1176471
vt 0.5806451 0.1176471

# Normal
vn 0 0 -1

# Mesh description
g Level3_mesh_0071

# Faces
f 1/1/1 2/2/1 3/3/1 4/4/1
f 5/1/1 6/2/1 7/3/1 8/4/1
f 9/5/1 10/6/1 11/1/1 12/7/1
f 13/6/1 14/8/1 15/2/1 16/1/1
f 17/8/1 18/9/1 19/10/1 20/2/1
f 21/9/1 22/11/1 23/12/1 24/10/1
f 25/11/1 26/13/1 27/14/1 28/12/1
f 29/5/1 30/6/1 31/1/1 32/7/1
f 33/6/1 34/8/1 35/2/1 36/1/1
f 37/8/1 38/9/1 39/10/1 40/2/1
f 41/9/1 42/11/1 43/12/1 44/10/1
f 45/11/1 46/13/1 47/14/1 48/12/1
f 49/15/1 50/16/1 51/8/1 52/6/1
f 53/16/1 54/17/1 55/9/1 56/8/1
f 57/17/1 58/18/1 59/11/1 60/9/1
f 61/18/1 62/19/1 63/13/1 64/11/1
f 65/15/1 66/16/1 67/8/1 68/6/1
f 69/16/1 70/17/1 71/9/1 72/8/1
f 73/17/1 74/18/1 75/11/1 76/9/1
f 77/18/1 78/19/1 79/13/1 80/11/1
f 81/20/1 82/21/1 83/16/1 84/15/1
f 85/21/1 86/22/1 87/17/1 88/16/1
f 89/22/1 90/23/1 91/18/1 92/17/1
f 93/23/1 94/24/1 95/19/1 96/18/1
f 97/24/1 98/25/1 99/26/1 100/19/1
f 101/20/1 102/21/1 103/16/1 104/15/1
f 105/21/1 106/22/1 107/17/1 108/16/1
f 109/22/1 110/23/1 111/18/1 112/17/1
f 113/23/1 114/24/1 115/19/1 116/18/1
f 117/24/1 118/25/1 119/26/1 120/19/1
f 121/27/1 122/28/1 123/24/1 124/23/1
f 125/27/1 126/28/1 127/24/1 128/23/1

