# Tiled2Unity generated file. Do not modify by hand.
# Wavefront file for 'Level3_mesh_0115.obj'

# Vertices (Count = 80)
v -64 -16 0
v -80 -16 0
v -80 0 0
v -64 0 0
v -64 -32 0
v -80 -32 0
v -80 -16 0
v -64 -16 0
v -64 -48 0
v -80 -48 0
v -80 -32 0
v -64 -32 0
v -64 -64 0
v -80 -64 0
v -80 -48 0
v -64 -48 0
v -64 -80 0
v -80 -80 0
v -80 -64 0
v -64 -64 0
v -64 -96 0
v -80 -96 0
v -80 -80 0
v -64 -80 0
v -64 -112 0
v -80 -112 0
v -80 -96 0
v -64 -96 0
v -64 -128 0
v -80 -128 0
v -80 -112 0
v -64 -112 0
v -64 -144 0
v -80 -144 0
v -80 -128 0
v -64 -128 0
v -80 -144 0
v -96 -144 0
v -96 -128 0
v -80 -128 0
v -96 -144 0
v -112 -144 0
v -112 -128 0
v -96 -128 0
v -112 -144 0
v -128 -144 0
v -128 -128 0
v -112 -128 0
v -128 -144 0
v -144 -144 0
v -144 -128 0
v -128 -128 0
v -144 -144 0
v -160 -144 0
v -160 -128 0
v -144 -128 0
v -160 -144 0
v -176 -144 0
v -176 -128 0
v -160 -128 0
v -176 -144 0
v -192 -144 0
v -192 -128 0
v -176 -128 0
v -192 -144 0
v -208 -144 0
v -208 -128 0
v -192 -128 0
v -208 -144 0
v -224 -144 0
v -224 -128 0
v -208 -128 0
v -224 -144 0
v -240 -144 0
v -240 -128 0
v -224 -128 0
v -240 -144 0
v -256 -144 0
v -256 -128 0
v -240 -128 0

# Texture cooridinates (Count = 10)
vt 0.04347826 0.7857143
vt 0.08695652 0.7857143
vt 0.08695652 0.8571429
vt 0.04347826 0.8571429
vt 0.08695652 1
vt 0.1304348 1
vt 0.1304348 0.9285714
vt 0.08695652 0.9285714
vt 0.173913 1
vt 0.173913 0.9285714

# Normal
vn 0 0 -1

# Mesh description
g Level3_mesh_0115

# Faces
f 1/1/1 2/2/1 3/3/1 4/4/1
f 5/1/1 6/2/1 7/3/1 8/4/1
f 9/1/1 10/2/1 11/3/1 12/4/1
f 13/1/1 14/2/1 15/3/1 16/4/1
f 17/1/1 18/2/1 19/3/1 20/4/1
f 21/1/1 22/2/1 23/3/1 24/4/1
f 25/1/1 26/2/1 27/3/1 28/4/1
f 29/1/1 30/2/1 31/3/1 32/4/1
f 33/5/1 34/6/1 35/7/1 36/8/1
f 37/9/1 38/6/1 39/7/1 40/10/1
f 41/9/1 42/6/1 43/7/1 44/10/1
f 45/9/1 46/6/1 47/7/1 48/10/1
f 49/9/1 50/6/1 51/7/1 52/10/1
f 53/9/1 54/6/1 55/7/1 56/10/1
f 57/9/1 58/6/1 59/7/1 60/10/1
f 61/9/1 62/6/1 63/7/1 64/10/1
f 65/9/1 66/6/1 67/7/1 68/10/1
f 69/9/1 70/6/1 71/7/1 72/10/1
f 73/9/1 74/6/1 75/7/1 76/10/1
f 77/9/1 78/6/1 79/7/1 80/10/1

