# Tiled2Unity generated file. Do not modify by hand.
# Wavefront file for 'bossmap_mesh_0033.obj'

# Vertices (Count = 332)
v -32 -80 0
v -48 -80 0
v -48 -64 0
v -32 -64 0
v -48 -80 0
v -64 -80 0
v -64 -64 0
v -48 -64 0
v -64 -80 0
v -80 -80 0
v -80 -64 0
v -64 -64 0
v -80 -80 0
v -96 -80 0
v -96 -64 0
v -80 -64 0
v -32 -96 0
v -48 -96 0
v -48 -80 0
v -32 -80 0
v -48 -96 0
v -64 -96 0
v -64 -80 0
v -48 -80 0
v -64 -96 0
v -80 -96 0
v -80 -80 0
v -64 -80 0
v -80 -96 0
v -96 -96 0
v -96 -80 0
v -80 -80 0
v -208 -96 0
v -224 -96 0
v -224 -80 0
v -208 -80 0
v -224 -96 0
v -240 -96 0
v -240 -80 0
v -224 -80 0
v -240 -96 0
v -256 -96 0
v -256 -80 0
v -240 -80 0
v 0 -112 0
v -16 -112 0
v -16 -96 0
v 0 -96 0
v -16 -112 0
v -32 -112 0
v -32 -96 0
v -16 -96 0
v -32 -112 0
v -48 -112 0
v -48 -96 0
v -32 -96 0
v -80 -112 0
v -96 -112 0
v -96 -96 0
v -80 -96 0
v -192 -112 0
v -208 -112 0
v -208 -96 0
v -192 -96 0
v -208 -112 0
v -224 -112 0
v -224 -96 0
v -208 -96 0
v -224 -112 0
v -240 -112 0
v -240 -96 0
v -224 -96 0
v -240 -112 0
v -256 -112 0
v -256 -96 0
v -240 -96 0
v 0 -128 0
v -16 -128 0
v -16 -112 0
v 0 -112 0
v -16 -128 0
v -32 -128 0
v -32 -112 0
v -16 -112 0
v -80 -128 0
v -96 -128 0
v -96 -112 0
v -80 -112 0
v -96 -128 0
v -112 -128 0
v -112 -112 0
v -96 -112 0
v -112 -128 0
v -128 -128 0
v -128 -112 0
v -112 -112 0
v -176 -128 0
v -192 -128 0
v -192 -112 0
v -176 -112 0
v -192 -128 0
v -208 -128 0
v -208 -112 0
v -192 -112 0
v -208 -128 0
v -224 -128 0
v -224 -112 0
v -208 -112 0
v -224 -128 0
v -240 -128 0
v -240 -112 0
v -224 -112 0
v -240 -128 0
v -256 -128 0
v -256 -112 0
v -240 -112 0
v 0 -144 0
v -16 -144 0
v -16 -128 0
v 0 -128 0
v -64 -144 0
v -80 -144 0
v -80 -128 0
v -64 -128 0
v -80 -144 0
v -96 -144 0
v -96 -128 0
v -80 -128 0
v -112 -144 0
v -128 -144 0
v -128 -128 0
v -112 -128 0
v -128 -144 0
v -144 -144 0
v -144 -128 0
v -128 -128 0
v -144 -144 0
v -160 -144 0
v -160 -128 0
v -144 -128 0
v -160 -144 0
v -176 -144 0
v -176 -128 0
v -160 -128 0
v -176 -144 0
v -192 -144 0
v -192 -128 0
v -176 -128 0
v -192 -144 0
v -208 -144 0
v -208 -128 0
v -192 -128 0
v -208 -144 0
v -224 -144 0
v -224 -128 0
v -208 -128 0
v -224 -144 0
v -240 -144 0
v -240 -128 0
v -224 -128 0
v -240 -144 0
v -256 -144 0
v -256 -128 0
v -240 -128 0
v 0 -160 0
v -16 -160 0
v -16 -144 0
v 0 -144 0
v -16 -160 0
v -32 -160 0
v -32 -144 0
v -16 -144 0
v -48 -160 0
v -64 -160 0
v -64 -144 0
v -48 -144 0
v -64 -160 0
v -80 -160 0
v -80 -144 0
v -64 -144 0
v -80 -160 0
v -96 -160 0
v -96 -144 0
v -80 -144 0
v -96 -160 0
v -112 -160 0
v -112 -144 0
v -96 -144 0
v -112 -160 0
v -128 -160 0
v -128 -144 0
v -112 -144 0
v -128 -160 0
v -144 -160 0
v -144 -144 0
v -128 -144 0
v -144 -160 0
v -160 -160 0
v -160 -144 0
v -144 -144 0
v -160 -160 0
v -176 -160 0
v -176 -144 0
v -160 -144 0
v -176 -160 0
v -192 -160 0
v -192 -144 0
v -176 -144 0
v -192 -160 0
v -208 -160 0
v -208 -144 0
v -192 -144 0
v -208 -160 0
v -224 -160 0
v -224 -144 0
v -208 -144 0
v -224 -160 0
v -240 -160 0
v -240 -144 0
v -224 -144 0
v -240 -160 0
v -256 -160 0
v -256 -144 0
v -240 -144 0
v 0 -176 0
v -16 -176 0
v -16 -160 0
v 0 -160 0
v -16 -176 0
v -32 -176 0
v -32 -160 0
v -16 -160 0
v -32 -176 0
v -48 -176 0
v -48 -160 0
v -32 -160 0
v -48 -176 0
v -64 -176 0
v -64 -160 0
v -48 -160 0
v -64 -176 0
v -80 -176 0
v -80 -160 0
v -64 -160 0
v -80 -176 0
v -96 -176 0
v -96 -160 0
v -80 -160 0
v -96 -176 0
v -112 -176 0
v -112 -160 0
v -96 -160 0
v -112 -176 0
v -128 -176 0
v -128 -160 0
v -112 -160 0
v -128 -176 0
v -144 -176 0
v -144 -160 0
v -128 -160 0
v -144 -176 0
v -160 -176 0
v -160 -160 0
v -144 -160 0
v -160 -176 0
v -176 -176 0
v -176 -160 0
v -160 -160 0
v -176 -176 0
v -192 -176 0
v -192 -160 0
v -176 -160 0
v -192 -176 0
v -208 -176 0
v -208 -160 0
v -192 -160 0
v -208 -176 0
v -224 -176 0
v -224 -160 0
v -208 -160 0
v -224 -176 0
v -240 -176 0
v -240 -160 0
v -224 -160 0
v 0 -192 0
v -16 -192 0
v -16 -176 0
v 0 -176 0
v -32 -192 0
v -48 -192 0
v -48 -176 0
v -32 -176 0
v -48 -192 0
v -64 -192 0
v -64 -176 0
v -48 -176 0
v -64 -192 0
v -80 -192 0
v -80 -176 0
v -64 -176 0
v -112 -192 0
v -128 -192 0
v -128 -176 0
v -112 -176 0
v -128 -192 0
v -144 -192 0
v -144 -176 0
v -128 -176 0
v -144 -192 0
v -160 -192 0
v -160 -176 0
v -144 -176 0
v -160 -192 0
v -176 -192 0
v -176 -176 0
v -160 -176 0
v -208 -192 0
v -224 -192 0
v -224 -176 0
v -208 -176 0
v -48 -208 0
v -64 -208 0
v -64 -192 0
v -48 -192 0
v -144 -208 0
v -160 -208 0
v -160 -192 0
v -144 -192 0
v -160 -208 0
v -176 -208 0
v -176 -192 0
v -160 -192 0

# Texture cooridinates (Count = 17)
vt 0.3846154 0.88
vt 0.4615385 0.88
vt 0.4615385 0.92
vt 0.3846154 0.92
vt 0.5384616 0.88
vt 0.5384616 0.92
vt 0.6153846 0.88
vt 0.6153846 0.92
vt 0.6923077 0.88
vt 0.6923077 0.92
vt 0.3846154 0.84
vt 0.4615385 0.84
vt 0.5384616 0.84
vt 0.6153846 0.84
vt 0.7692308 0.88
vt 0.7692308 0.92
vt 0.6923077 0.84

# Normal
vn 0 0 -1

# Mesh description
g bossmap_mesh_0033

# Faces
f 1/1/1 2/2/1 3/3/1 4/4/1
f 5/2/1 6/5/1 7/6/1 8/3/1
f 9/5/1 10/7/1 11/8/1 12/6/1
f 13/7/1 14/9/1 15/10/1 16/8/1
f 17/11/1 18/12/1 19/2/1 20/1/1
f 21/12/1 22/13/1 23/5/1 24/2/1
f 25/13/1 26/14/1 27/7/1 28/5/1
f 29/7/1 30/8/1 31/6/1 32/5/1
f 33/15/1 34/9/1 35/10/1 36/16/1
f 37/9/1 38/7/1 39/8/1 40/10/1
f 41/7/1 42/5/1 43/6/1 44/8/1
f 45/1/1 46/2/1 47/3/1 48/4/1
f 49/2/1 50/5/1 51/6/1 52/3/1
f 53/12/1 54/13/1 55/5/1 56/2/1
f 57/7/1 58/8/1 59/6/1 60/5/1
f 61/15/1 62/9/1 63/10/1 64/16/1
f 65/9/1 66/7/1 67/8/1 68/10/1
f 69/17/1 70/14/1 71/7/1 72/9/1
f 73/9/1 74/7/1 75/8/1 76/10/1
f 77/11/1 78/12/1 79/2/1 80/1/1
f 81/12/1 82/13/1 83/5/1 84/2/1
f 85/9/1 86/7/1 87/8/1 88/10/1
f 89/7/1 90/5/1 91/6/1 92/8/1
f 93/5/1 94/2/1 95/3/1 96/6/1
f 97/15/1 98/9/1 99/10/1 100/16/1
f 101/9/1 102/7/1 103/8/1 104/10/1
f 105/17/1 106/14/1 107/7/1 108/9/1
f 109/9/1 110/7/1 111/8/1 112/10/1
f 113/17/1 114/14/1 115/7/1 116/9/1
f 117/7/1 118/9/1 119/10/1 120/8/1
f 121/9/1 122/7/1 123/8/1 124/10/1
f 125/17/1 126/14/1 127/7/1 128/9/1
f 129/13/1 130/12/1 131/2/1 132/5/1
f 133/7/1 134/5/1 135/6/1 136/8/1
f 137/7/1 138/5/1 139/6/1 140/8/1
f 141/7/1 142/5/1 143/6/1 144/8/1
f 145/7/1 146/5/1 147/6/1 148/8/1
f 149/17/1 150/14/1 151/7/1 152/9/1
f 153/9/1 154/7/1 155/8/1 156/10/1
f 157/17/1 158/14/1 159/7/1 160/9/1
f 161/9/1 162/7/1 163/8/1 164/10/1
f 165/14/1 166/17/1 167/9/1 168/7/1
f 169/7/1 170/9/1 171/10/1 172/8/1
f 173/9/1 174/7/1 175/8/1 176/10/1
f 177/17/1 178/14/1 179/7/1 180/9/1
f 181/9/1 182/7/1 183/8/1 184/10/1
f 185/5/1 186/2/1 187/3/1 188/6/1
f 189/14/1 190/13/1 191/5/1 192/7/1
f 193/14/1 194/13/1 195/5/1 196/7/1
f 197/14/1 198/13/1 199/5/1 200/7/1
f 201/14/1 202/13/1 203/5/1 204/7/1
f 205/14/1 206/13/1 207/5/1 208/7/1
f 209/9/1 210/7/1 211/8/1 212/10/1
f 213/17/1 214/14/1 215/7/1 216/9/1
f 217/9/1 218/7/1 219/8/1 220/10/1
f 221/17/1 222/14/1 223/7/1 224/9/1
f 225/7/1 226/9/1 227/10/1 228/8/1
f 229/14/1 230/17/1 231/9/1 232/7/1
f 233/9/1 234/7/1 235/8/1 236/10/1
f 237/17/1 238/14/1 239/7/1 240/9/1
f 241/9/1 242/7/1 243/8/1 244/10/1
f 245/17/1 246/14/1 247/7/1 248/9/1
f 249/13/1 250/12/1 251/2/1 252/5/1
f 253/7/1 254/5/1 255/6/1 256/8/1
f 257/5/1 258/2/1 259/3/1 260/6/1
f 261/14/1 262/13/1 263/5/1 264/7/1
f 265/14/1 266/13/1 267/5/1 268/7/1
f 269/14/1 270/13/1 271/5/1 272/7/1
f 273/17/1 274/14/1 275/7/1 276/9/1
f 277/9/1 278/7/1 279/8/1 280/10/1
f 281/17/1 282/14/1 283/7/1 284/9/1
f 285/14/1 286/17/1 287/9/1 288/7/1
f 289/17/1 290/14/1 291/7/1 292/9/1
f 293/9/1 294/7/1 295/8/1 296/10/1
f 297/17/1 298/14/1 299/7/1 300/9/1
f 301/14/1 302/13/1 303/5/1 304/7/1
f 305/13/1 306/12/1 307/2/1 308/5/1
f 309/7/1 310/5/1 311/6/1 312/8/1
f 313/5/1 314/2/1 315/3/1 316/6/1
f 317/17/1 318/14/1 319/7/1 320/9/1
f 321/17/1 322/14/1 323/7/1 324/9/1
f 325/14/1 326/13/1 327/5/1 328/7/1
f 329/13/1 330/12/1 331/2/1 332/5/1

