# Tiled2Unity generated file. Do not modify by hand.
# Wavefront file for 'bossmap_mesh_0051.obj'

# Vertices (Count = 40)
v 0 -224 0
v -16 -224 0
v -16 -208 0
v 0 -208 0
v -16 -224 0
v -32 -224 0
v -32 -208 0
v -16 -208 0
v -224 -224 0
v -240 -224 0
v -240 -208 0
v -224 -208 0
v -240 -224 0
v -256 -224 0
v -256 -208 0
v -240 -208 0
v 0 -240 0
v -16 -240 0
v -16 -224 0
v 0 -224 0
v -16 -240 0
v -32 -240 0
v -32 -224 0
v -16 -224 0
v -240 -240 0
v -256 -240 0
v -256 -224 0
v -240 -224 0
v 0 -256 0
v -16 -256 0
v -16 -240 0
v 0 -240 0
v -16 -256 0
v -32 -256 0
v -32 -240 0
v -16 -240 0
v -240 -256 0
v -256 -256 0
v -256 -240 0
v -240 -240 0

# Texture cooridinates (Count = 20)
vt 0.7692308 0.52
vt 0.8461539 0.52
vt 0.8461539 0.56
vt 0.7692308 0.56
vt 0.9230769 0.52
vt 0.9230769 0.56
vt 0.7692308 0.84
vt 0.8461539 0.84
vt 0.8461539 0.88
vt 0.7692308 0.88
vt 0.9230769 0.84
vt 0.9230769 0.88
vt 0.7692308 0.48
vt 0.8461539 0.48
vt 0.9230769 0.48
vt 0.8461539 0.8
vt 0.9230769 0.8
vt 0.7692308 0.44
vt 0.8461539 0.44
vt 0.9230769 0.44

# Normal
vn 0 0 -1

# Mesh description
g bossmap_mesh_0051

# Faces
f 1/1/1 2/2/1 3/3/1 4/4/1
f 5/2/1 6/5/1 7/6/1 8/3/1
f 9/7/1 10/8/1 11/9/1 12/10/1
f 13/8/1 14/11/1 15/12/1 16/9/1
f 17/13/1 18/14/1 19/2/1 20/1/1
f 21/14/1 22/15/1 23/5/1 24/2/1
f 25/16/1 26/17/1 27/11/1 28/8/1
f 29/18/1 30/19/1 31/14/1 32/13/1
f 33/19/1 34/20/1 35/15/1 36/14/1
f 37/16/1 38/17/1 39/11/1 40/8/1

