# Tiled2Unity generated file. Do not modify by hand.
# Wavefront file for 'bossmap_mesh_0045.obj'

# Vertices (Count = 132)
v -64 -16 0
v -80 -16 0
v -80 0 0
v -64 0 0
v -144 -16 0
v -160 -16 0
v -160 0 0
v -144 0 0
v -160 -16 0
v -176 -16 0
v -176 0 0
v -160 0 0
v -176 -16 0
v -192 -16 0
v -192 0 0
v -176 0 0
v -192 -16 0
v -208 -16 0
v -208 0 0
v -192 0 0
v -208 -16 0
v -224 -16 0
v -224 0 0
v -208 0 0
v -224 -16 0
v -240 -16 0
v -240 0 0
v -224 0 0
v 0 -32 0
v -16 -32 0
v -16 -16 0
v 0 -16 0
v -16 -32 0
v -32 -32 0
v -32 -16 0
v -16 -16 0
v -32 -32 0
v -48 -32 0
v -48 -16 0
v -32 -16 0
v -64 -32 0
v -80 -32 0
v -80 -16 0
v -64 -16 0
v -144 -32 0
v -160 -32 0
v -160 -16 0
v -144 -16 0
v -160 -32 0
v -176 -32 0
v -176 -16 0
v -160 -16 0
v -176 -32 0
v -192 -32 0
v -192 -16 0
v -176 -16 0
v -192 -32 0
v -208 -32 0
v -208 -16 0
v -192 -16 0
v -208 -32 0
v -224 -32 0
v -224 -16 0
v -208 -16 0
v -224 -32 0
v -240 -32 0
v -240 -16 0
v -224 -16 0
v -240 -32 0
v -256 -32 0
v -256 -16 0
v -240 -16 0
v 0 -48 0
v -16 -48 0
v -16 -32 0
v 0 -32 0
v -16 -48 0
v -32 -48 0
v -32 -32 0
v -16 -32 0
v -32 -48 0
v -48 -48 0
v -48 -32 0
v -32 -32 0
v -64 -48 0
v -80 -48 0
v -80 -32 0
v -64 -32 0
v -80 -48 0
v -96 -48 0
v -96 -32 0
v -80 -32 0
v -144 -48 0
v -160 -48 0
v -160 -32 0
v -144 -32 0
v -160 -48 0
v -176 -48 0
v -176 -32 0
v -160 -32 0
v -176 -48 0
v -192 -48 0
v -192 -32 0
v -176 -32 0
v -192 -48 0
v -208 -48 0
v -208 -32 0
v -192 -32 0
v -208 -48 0
v -224 -48 0
v -224 -32 0
v -208 -32 0
v -224 -48 0
v -240 -48 0
v -240 -32 0
v -224 -32 0
v -240 -48 0
v -256 -48 0
v -256 -32 0
v -240 -32 0
v -192 -64 0
v -208 -64 0
v -208 -48 0
v -192 -48 0
v -208 -64 0
v -224 -64 0
v -224 -48 0
v -208 -48 0
v -224 -64 0
v -240 -64 0
v -240 -48 0
v -224 -48 0

# Texture cooridinates (Count = 46)
vt 0 0.16
vt 0.07692308 0.16
vt 0.07692308 0.2
vt 0 0.2
vt 0.3076923 0.24
vt 0.3846154 0.24
vt 0.3846154 0.28
vt 0.3076923 0.28
vt 0.4615385 0.24
vt 0.4615385 0.28
vt 0.6153846 0.28
vt 0.6923077 0.28
vt 0.6923077 0.32
vt 0.6153846 0.32
vt 0.6923077 0.2
vt 0.7692308 0.2
vt 0.7692308 0.24
vt 0.6923077 0.24
vt 0.1538462 0.76
vt 0.2307692 0.76
vt 0.2307692 0.8
vt 0.1538462 0.8
vt 0.3076923 0.76
vt 0.3076923 0.8
vt 0.3846154 0.76
vt 0.3846154 0.8
vt 0 0.12
vt 0.07692308 0.12
vt 0.3846154 0.32
vt 0.3076923 0.32
vt 0.4615385 0.32
vt 0 0.76
vt 0.07692308 0.76
vt 0.07692308 0.8
vt 0 0.8
vt 0.1538462 0.72
vt 0.2307692 0.72
vt 0.3076923 0.72
vt 0.3846154 0.72
vt 0 0.07999998
vt 0.07692308 0.07999998
vt 0.1538462 0.07999998
vt 0.1538462 0.12
vt 0.6153846 0.24
vt 0 0.72
vt 0.07692308 0.72

# Normal
vn 0 0 -1

# Mesh description
g bossmap_mesh_0045

# Faces
f 1/1/1 2/2/1 3/3/1 4/4/1
f 5/5/1 6/6/1 7/7/1 8/8/1
f 9/5/1 10/6/1 11/7/1 12/8/1
f 13/5/1 14/6/1 15/7/1 16/8/1
f 17/6/1 18/9/1 19/10/1 20/7/1
f 21/11/1 22/12/1 23/13/1 24/14/1
f 25/15/1 26/16/1 27/17/1 28/18/1
f 29/19/1 30/20/1 31/21/1 32/22/1
f 33/20/1 34/23/1 35/24/1 36/21/1
f 37/23/1 38/25/1 39/26/1 40/24/1
f 41/27/1 42/28/1 43/2/1 44/1/1
f 45/8/1 46/7/1 47/29/1 48/30/1
f 49/7/1 50/10/1 51/31/1 52/29/1
f 53/8/1 54/7/1 55/29/1 56/30/1
f 57/8/1 58/7/1 59/29/1 60/30/1
f 61/7/1 62/10/1 63/31/1 64/29/1
f 65/11/1 66/12/1 67/13/1 68/14/1
f 69/32/1 70/33/1 71/34/1 72/35/1
f 73/36/1 74/37/1 75/20/1 76/19/1
f 77/37/1 78/38/1 79/23/1 80/20/1
f 81/38/1 82/39/1 83/25/1 84/23/1
f 85/40/1 86/41/1 87/28/1 88/27/1
f 89/41/1 90/42/1 91/43/1 92/28/1
f 93/8/1 94/7/1 95/29/1 96/30/1
f 97/7/1 98/10/1 99/31/1 100/29/1
f 101/8/1 102/7/1 103/29/1 104/30/1
f 105/8/1 106/7/1 107/29/1 108/30/1
f 109/8/1 110/7/1 111/29/1 112/30/1
f 113/44/1 114/18/1 115/12/1 116/11/1
f 117/45/1 118/46/1 119/33/1 120/32/1
f 121/8/1 122/7/1 123/29/1 124/30/1
f 125/7/1 126/10/1 127/31/1 128/29/1
f 129/6/1 130/9/1 131/10/1 132/7/1

