# Tiled2Unity generated file. Do not modify by hand.
# Wavefront file for 'bossmap_mesh_0079.obj'

# Vertices (Count = 92)
v -64 -16 0
v -80 -16 0
v -80 0 0
v -64 0 0
v -144 -16 0
v -160 -16 0
v -160 0 0
v -144 0 0
v -176 -16 0
v -192 -16 0
v -192 0 0
v -176 0 0
v -64 -32 0
v -80 -32 0
v -80 -16 0
v -64 -16 0
v -144 -32 0
v -160 -32 0
v -160 -16 0
v -144 -16 0
v -64 -48 0
v -80 -48 0
v -80 -32 0
v -64 -32 0
v -144 -48 0
v -160 -48 0
v -160 -32 0
v -144 -32 0
v 0 -64 0
v -16 -64 0
v -16 -48 0
v 0 -48 0
v -16 -64 0
v -32 -64 0
v -32 -48 0
v -16 -48 0
v -32 -64 0
v -48 -64 0
v -48 -48 0
v -32 -48 0
v -48 -64 0
v -64 -64 0
v -64 -48 0
v -48 -48 0
v -64 -64 0
v -80 -64 0
v -80 -48 0
v -64 -48 0
v -144 -64 0
v -160 -64 0
v -160 -48 0
v -144 -48 0
v -160 -64 0
v -176 -64 0
v -176 -48 0
v -160 -48 0
v -176 -64 0
v -192 -64 0
v -192 -48 0
v -176 -48 0
v -192 -64 0
v -208 -64 0
v -208 -48 0
v -192 -48 0
v -208 -64 0
v -224 -64 0
v -224 -48 0
v -208 -48 0
v -224 -64 0
v -240 -64 0
v -240 -48 0
v -224 -48 0
v -240 -64 0
v -256 -64 0
v -256 -48 0
v -240 -48 0
v -176 -80 0
v -192 -80 0
v -192 -64 0
v -176 -64 0
v -192 -80 0
v -208 -80 0
v -208 -64 0
v -192 -64 0
v -208 -80 0
v -224 -80 0
v -224 -64 0
v -208 -64 0
v -224 -80 0
v -240 -80 0
v -240 -64 0
v -224 -64 0

# Texture cooridinates (Count = 34)
vt 0 0.88
vt 0.07692308 0.88
vt 0.07692308 0.92
vt 0 0.92
vt 0.3076923 0.88
vt 0.3846154 0.88
vt 0.3846154 0.92
vt 0.3076923 0.92
vt 0 0.96
vt 0.07692308 0.96
vt 0.07692308 1
vt 0 1
vt 0.1538462 0.96
vt 0.2307692 0.96
vt 0.2307692 1
vt 0.1538462 1
vt 0.6923077 0.96
vt 0.7692308 0.96
vt 0.7692308 1
vt 0.6923077 1
vt 0.1538462 0.92
vt 0.2307692 0.92
vt 0.3076923 0.96
vt 0.5384616 0.96
vt 0.6153846 0.96
vt 0.6153846 1
vt 0.5384616 1
vt 0.3846154 0.96
vt 0.4615385 0.96
vt 0.4615385 1
vt 0.3846154 1
vt 0.5384616 0.92
vt 0.6153846 0.92
vt 0.4615385 0.92

# Normal
vn 0 0 -1

# Mesh description
g bossmap_mesh_0079

# Faces
f 1/1/1 2/2/1 3/3/1 4/4/1
f 5/5/1 6/6/1 7/7/1 8/8/1
f 9/9/1 10/10/1 11/11/1 12/12/1
f 13/1/1 14/2/1 15/3/1 16/4/1
f 17/5/1 18/6/1 19/7/1 20/8/1
f 21/1/1 22/2/1 23/3/1 24/4/1
f 25/5/1 26/6/1 27/7/1 28/8/1
f 29/13/1 30/14/1 31/15/1 32/16/1
f 33/17/1 34/18/1 35/19/1 36/20/1
f 37/13/1 38/14/1 39/15/1 40/16/1
f 41/13/1 42/14/1 43/15/1 44/16/1
f 45/3/1 46/21/1 47/13/1 48/10/1
f 49/22/1 50/8/1 51/23/1 52/14/1
f 53/13/1 54/14/1 55/15/1 56/16/1
f 57/24/1 58/25/1 59/26/1 60/27/1
f 61/28/1 62/29/1 63/30/1 64/31/1
f 65/29/1 66/24/1 67/27/1 68/30/1
f 69/24/1 70/25/1 71/26/1 72/27/1
f 73/13/1 74/14/1 75/15/1 76/16/1
f 77/32/1 78/33/1 79/25/1 80/24/1
f 81/7/1 82/34/1 83/29/1 84/28/1
f 85/34/1 86/32/1 87/24/1 88/29/1
f 89/32/1 90/33/1 91/25/1 92/24/1

