# Tiled2Unity generated file. Do not modify by hand.
# Wavefront file for 'bossmap_mesh_0033.obj'

# Vertices (Count = 380)
v 0 -128 0
v -16 -128 0
v -16 -112 0
v 0 -112 0
v -16 -128 0
v -32 -128 0
v -32 -112 0
v -16 -112 0
v -32 -128 0
v -48 -128 0
v -48 -112 0
v -32 -112 0
v -48 -128 0
v -64 -128 0
v -64 -112 0
v -48 -112 0
v -64 -128 0
v -80 -128 0
v -80 -112 0
v -64 -112 0
v -80 -128 0
v -96 -128 0
v -96 -112 0
v -80 -112 0
v -96 -128 0
v -112 -128 0
v -112 -112 0
v -96 -112 0
v -112 -128 0
v -128 -128 0
v -128 -112 0
v -112 -112 0
v -128 -128 0
v -144 -128 0
v -144 -112 0
v -128 -112 0
v -144 -128 0
v -160 -128 0
v -160 -112 0
v -144 -112 0
v 0 -144 0
v -16 -144 0
v -16 -128 0
v 0 -128 0
v -16 -144 0
v -32 -144 0
v -32 -128 0
v -16 -128 0
v -32 -144 0
v -48 -144 0
v -48 -128 0
v -32 -128 0
v -48 -144 0
v -64 -144 0
v -64 -128 0
v -48 -128 0
v -64 -144 0
v -80 -144 0
v -80 -128 0
v -64 -128 0
v -80 -144 0
v -96 -144 0
v -96 -128 0
v -80 -128 0
v -96 -144 0
v -112 -144 0
v -112 -128 0
v -96 -128 0
v -112 -144 0
v -128 -144 0
v -128 -128 0
v -112 -128 0
v -128 -144 0
v -144 -144 0
v -144 -128 0
v -128 -128 0
v -144 -144 0
v -160 -144 0
v -160 -128 0
v -144 -128 0
v 0 -160 0
v -16 -160 0
v -16 -144 0
v 0 -144 0
v -16 -160 0
v -32 -160 0
v -32 -144 0
v -16 -144 0
v -32 -160 0
v -48 -160 0
v -48 -144 0
v -32 -144 0
v -48 -160 0
v -64 -160 0
v -64 -144 0
v -48 -144 0
v -64 -160 0
v -80 -160 0
v -80 -144 0
v -64 -144 0
v -80 -160 0
v -96 -160 0
v -96 -144 0
v -80 -144 0
v -96 -160 0
v -112 -160 0
v -112 -144 0
v -96 -144 0
v -112 -160 0
v -128 -160 0
v -128 -144 0
v -112 -144 0
v -128 -160 0
v -144 -160 0
v -144 -144 0
v -128 -144 0
v -144 -160 0
v -160 -160 0
v -160 -144 0
v -144 -144 0
v -160 -160 0
v -176 -160 0
v -176 -144 0
v -160 -144 0
v 0 -176 0
v -16 -176 0
v -16 -160 0
v 0 -160 0
v -16 -176 0
v -32 -176 0
v -32 -160 0
v -16 -160 0
v -32 -176 0
v -48 -176 0
v -48 -160 0
v -32 -160 0
v -48 -176 0
v -64 -176 0
v -64 -160 0
v -48 -160 0
v -64 -176 0
v -80 -176 0
v -80 -160 0
v -64 -160 0
v -80 -176 0
v -96 -176 0
v -96 -160 0
v -80 -160 0
v -96 -176 0
v -112 -176 0
v -112 -160 0
v -96 -160 0
v -112 -176 0
v -128 -176 0
v -128 -160 0
v -112 -160 0
v -128 -176 0
v -144 -176 0
v -144 -160 0
v -128 -160 0
v -144 -176 0
v -160 -176 0
v -160 -160 0
v -144 -160 0
v -160 -176 0
v -176 -176 0
v -176 -160 0
v -160 -160 0
v 0 -192 0
v -16 -192 0
v -16 -176 0
v 0 -176 0
v -16 -192 0
v -32 -192 0
v -32 -176 0
v -16 -176 0
v -32 -192 0
v -48 -192 0
v -48 -176 0
v -32 -176 0
v -48 -192 0
v -64 -192 0
v -64 -176 0
v -48 -176 0
v -64 -192 0
v -80 -192 0
v -80 -176 0
v -64 -176 0
v -80 -192 0
v -96 -192 0
v -96 -176 0
v -80 -176 0
v -96 -192 0
v -112 -192 0
v -112 -176 0
v -96 -176 0
v -112 -192 0
v -128 -192 0
v -128 -176 0
v -112 -176 0
v -128 -192 0
v -144 -192 0
v -144 -176 0
v -128 -176 0
v -144 -192 0
v -160 -192 0
v -160 -176 0
v -144 -176 0
v 0 -208 0
v -16 -208 0
v -16 -192 0
v 0 -192 0
v -16 -208 0
v -32 -208 0
v -32 -192 0
v -16 -192 0
v -32 -208 0
v -48 -208 0
v -48 -192 0
v -32 -192 0
v -48 -208 0
v -64 -208 0
v -64 -192 0
v -48 -192 0
v -64 -208 0
v -80 -208 0
v -80 -192 0
v -64 -192 0
v -80 -208 0
v -96 -208 0
v -96 -192 0
v -80 -192 0
v -96 -208 0
v -112 -208 0
v -112 -192 0
v -96 -192 0
v -112 -208 0
v -128 -208 0
v -128 -192 0
v -112 -192 0
v -128 -208 0
v -144 -208 0
v -144 -192 0
v -128 -192 0
v -144 -208 0
v -160 -208 0
v -160 -192 0
v -144 -192 0
v 0 -224 0
v -16 -224 0
v -16 -208 0
v 0 -208 0
v -16 -224 0
v -32 -224 0
v -32 -208 0
v -16 -208 0
v -32 -224 0
v -48 -224 0
v -48 -208 0
v -32 -208 0
v -48 -224 0
v -64 -224 0
v -64 -208 0
v -48 -208 0
v -64 -224 0
v -80 -224 0
v -80 -208 0
v -64 -208 0
v -80 -224 0
v -96 -224 0
v -96 -208 0
v -80 -208 0
v -96 -224 0
v -112 -224 0
v -112 -208 0
v -96 -208 0
v -112 -224 0
v -128 -224 0
v -128 -208 0
v -112 -208 0
v -128 -224 0
v -144 -224 0
v -144 -208 0
v -128 -208 0
v -144 -224 0
v -160 -224 0
v -160 -208 0
v -144 -208 0
v -160 -224 0
v -176 -224 0
v -176 -208 0
v -160 -208 0
v 0 -240 0
v -16 -240 0
v -16 -224 0
v 0 -224 0
v -16 -240 0
v -32 -240 0
v -32 -224 0
v -16 -224 0
v -32 -240 0
v -48 -240 0
v -48 -224 0
v -32 -224 0
v -48 -240 0
v -64 -240 0
v -64 -224 0
v -48 -224 0
v -64 -240 0
v -80 -240 0
v -80 -224 0
v -64 -224 0
v -80 -240 0
v -96 -240 0
v -96 -224 0
v -80 -224 0
v -96 -240 0
v -112 -240 0
v -112 -224 0
v -96 -224 0
v -112 -240 0
v -128 -240 0
v -128 -224 0
v -112 -224 0
v -128 -240 0
v -144 -240 0
v -144 -224 0
v -128 -224 0
v -144 -240 0
v -160 -240 0
v -160 -224 0
v -144 -224 0
v -160 -240 0
v -176 -240 0
v -176 -224 0
v -160 -224 0
v 0 -256 0
v -16 -256 0
v -16 -240 0
v 0 -240 0
v -16 -256 0
v -32 -256 0
v -32 -240 0
v -16 -240 0
v -32 -256 0
v -48 -256 0
v -48 -240 0
v -32 -240 0
v -48 -256 0
v -64 -256 0
v -64 -240 0
v -48 -240 0
v -64 -256 0
v -80 -256 0
v -80 -240 0
v -64 -240 0
v -80 -256 0
v -96 -256 0
v -96 -240 0
v -80 -240 0
v -96 -256 0
v -112 -256 0
v -112 -240 0
v -96 -240 0
v -112 -256 0
v -128 -256 0
v -128 -240 0
v -112 -240 0
v -128 -256 0
v -144 -256 0
v -144 -240 0
v -128 -240 0
v -144 -256 0
v -160 -256 0
v -160 -240 0
v -144 -240 0
v -160 -256 0
v -176 -256 0
v -176 -240 0
v -160 -240 0

# Texture cooridinates (Count = 60)
vt 0.2307692 0.44
vt 0.3076923 0.44
vt 0.3076923 0.48
vt 0.2307692 0.48
vt 0.3846154 0.44
vt 0.3846154 0.48
vt 0.1538462 0.44
vt 0.1538462 0.48
vt 0.4615385 0.44
vt 0.4615385 0.48
vt 0.5384616 0.44
vt 0.5384616 0.48
vt 0.6153846 0.44
vt 0.6153846 0.48
vt 0.6923077 0.44
vt 0.6923077 0.48
vt 0.7692308 0.44
vt 0.7692308 0.48
vt 0.2307692 0.4
vt 0.3076923 0.4
vt 0.3846154 0.4
vt 0.4615385 0.4
vt 0.3846154 0.28
vt 0.4615385 0.28
vt 0.4615385 0.32
vt 0.3846154 0.32
vt 0.5384616 0.4
vt 0.6153846 0.4
vt 0.6923077 0.4
vt 0.7692308 0.4
vt 0.2307692 0.36
vt 0.3076923 0.36
vt 0.3846154 0.36
vt 0.4615385 0.36
vt 0.5384616 0.36
vt 0.6153846 0.36
vt 0.6923077 0.36
vt 0.7692308 0.36
vt 0.2307692 0.32
vt 0.3076923 0.32
vt 0.5384616 0.32
vt 0.6153846 0.32
vt 0.6923077 0.32
vt 0.7692308 0.32
vt 0.2307692 0.28
vt 0.3076923 0.28
vt 0.5384616 0.28
vt 0.6153846 0.28
vt 0.6923077 0.28
vt 0.7692308 0.28
vt 0.2307692 0.24
vt 0.3076923 0.24
vt 0.3846154 0.24
vt 0.4615385 0.24
vt 0.5384616 0.24
vt 0.6153846 0.24
vt 0.6923077 0.24
vt 0.7692308 0.24
vt 0.1538462 0.28
vt 0.1538462 0.32

# Normal
vn 0 0 -1

# Mesh description
g bossmap_mesh_0033

# Faces
f 1/1/1 2/2/1 3/3/1 4/4/1
f 5/2/1 6/5/1 7/6/1 8/3/1
f 9/7/1 10/1/1 11/4/1 12/8/1
f 13/1/1 14/2/1 15/3/1 16/4/1
f 17/2/1 18/5/1 19/6/1 20/3/1
f 21/5/1 22/9/1 23/10/1 24/6/1
f 25/9/1 26/11/1 27/12/1 28/10/1
f 29/11/1 30/13/1 31/14/1 32/12/1
f 33/13/1 34/15/1 35/16/1 36/14/1
f 37/15/1 38/17/1 39/18/1 40/16/1
f 41/19/1 42/20/1 43/2/1 44/1/1
f 45/20/1 46/21/1 47/5/1 48/2/1
f 49/21/1 50/22/1 51/9/1 52/5/1
f 53/23/1 54/24/1 55/25/1 56/26/1
f 57/23/1 58/24/1 59/25/1 60/26/1
f 61/23/1 62/24/1 63/25/1 64/26/1
f 65/23/1 66/24/1 67/25/1 68/26/1
f 69/27/1 70/28/1 71/13/1 72/11/1
f 73/28/1 74/29/1 75/15/1 76/13/1
f 77/29/1 78/30/1 79/17/1 80/15/1
f 81/31/1 82/32/1 83/20/1 84/19/1
f 85/32/1 86/33/1 87/21/1 88/20/1
f 89/33/1 90/34/1 91/22/1 92/21/1
f 93/23/1 94/24/1 95/25/1 96/26/1
f 97/23/1 98/24/1 99/25/1 100/26/1
f 101/23/1 102/24/1 103/25/1 104/26/1
f 105/23/1 106/24/1 107/25/1 108/26/1
f 109/35/1 110/36/1 111/28/1 112/27/1
f 113/36/1 114/37/1 115/29/1 116/28/1
f 117/37/1 118/38/1 119/30/1 120/29/1
f 121/15/1 122/17/1 123/18/1 124/16/1
f 125/39/1 126/40/1 127/32/1 128/31/1
f 129/40/1 130/26/1 131/33/1 132/32/1
f 133/26/1 134/25/1 135/34/1 136/33/1
f 137/23/1 138/24/1 139/25/1 140/26/1
f 141/41/1 142/42/1 143/36/1 144/35/1
f 145/23/1 146/24/1 147/25/1 148/26/1
f 149/23/1 150/24/1 151/25/1 152/26/1
f 153/41/1 154/42/1 155/36/1 156/35/1
f 157/42/1 158/43/1 159/37/1 160/36/1
f 161/43/1 162/44/1 163/38/1 164/37/1
f 165/29/1 166/30/1 167/17/1 168/15/1
f 169/45/1 170/46/1 171/40/1 172/39/1
f 173/46/1 174/23/1 175/26/1 176/40/1
f 177/23/1 178/24/1 179/25/1 180/26/1
f 181/24/1 182/47/1 183/41/1 184/25/1
f 185/23/1 186/24/1 187/25/1 188/26/1
f 189/23/1 190/24/1 191/25/1 192/26/1
f 193/23/1 194/24/1 195/25/1 196/26/1
f 197/47/1 198/48/1 199/42/1 200/41/1
f 201/48/1 202/49/1 203/43/1 204/42/1
f 205/49/1 206/50/1 207/44/1 208/43/1
f 209/51/1 210/52/1 211/46/1 212/45/1
f 213/23/1 214/24/1 215/25/1 216/26/1
f 217/53/1 218/54/1 219/24/1 220/23/1
f 221/54/1 222/55/1 223/47/1 224/24/1
f 225/23/1 226/24/1 227/25/1 228/26/1
f 229/23/1 230/24/1 231/25/1 232/26/1
f 233/23/1 234/24/1 235/25/1 236/26/1
f 237/55/1 238/56/1 239/48/1 240/47/1
f 241/56/1 242/57/1 243/49/1 244/48/1
f 245/57/1 246/58/1 247/50/1 248/49/1
f 249/32/1 250/33/1 251/21/1 252/20/1
f 253/23/1 254/24/1 255/25/1 256/26/1
f 257/23/1 258/24/1 259/25/1 260/26/1
f 261/59/1 262/45/1 263/39/1 264/60/1
f 265/45/1 266/46/1 267/40/1 268/39/1
f 269/46/1 270/23/1 271/26/1 272/40/1
f 273/23/1 274/24/1 275/25/1 276/26/1
f 277/24/1 278/47/1 279/41/1 280/25/1
f 281/47/1 282/48/1 283/42/1 284/41/1
f 285/48/1 286/49/1 287/43/1 288/42/1
f 289/49/1 290/50/1 291/44/1 292/43/1
f 293/40/1 294/26/1 295/33/1 296/32/1
f 297/23/1 298/24/1 299/25/1 300/26/1
f 301/23/1 302/24/1 303/25/1 304/26/1
f 305/23/1 306/24/1 307/25/1 308/26/1
f 309/51/1 310/52/1 311/46/1 312/45/1
f 313/52/1 314/53/1 315/23/1 316/46/1
f 317/53/1 318/54/1 319/24/1 320/23/1
f 321/54/1 322/55/1 323/47/1 324/24/1
f 325/55/1 326/56/1 327/48/1 328/47/1
f 329/56/1 330/57/1 331/49/1 332/48/1
f 333/57/1 334/58/1 335/50/1 336/49/1
f 337/46/1 338/23/1 339/26/1 340/40/1
f 341/23/1 342/24/1 343/25/1 344/26/1
f 345/23/1 346/24/1 347/25/1 348/26/1
f 349/23/1 350/24/1 351/25/1 352/26/1
f 353/31/1 354/32/1 355/20/1 356/19/1
f 357/32/1 358/33/1 359/21/1 360/20/1
f 361/33/1 362/34/1 363/22/1 364/21/1
f 365/34/1 366/35/1 367/27/1 368/22/1
f 369/23/1 370/24/1 371/25/1 372/26/1
f 373/36/1 374/37/1 375/29/1 376/28/1
f 377/37/1 378/38/1 379/30/1 380/29/1

