# Tiled2Unity generated file. Do not modify by hand.
# Wavefront file for 'bossmap_mesh_0032.obj'

# Vertices (Count = 200)
v -208 -128 0
v -224 -128 0
v -224 -112 0
v -208 -112 0
v -224 -128 0
v -240 -128 0
v -240 -112 0
v -224 -112 0
v -240 -128 0
v -256 -128 0
v -256 -112 0
v -240 -112 0
v -208 -144 0
v -224 -144 0
v -224 -128 0
v -208 -128 0
v -224 -144 0
v -240 -144 0
v -240 -128 0
v -224 -128 0
v -240 -144 0
v -256 -144 0
v -256 -128 0
v -240 -128 0
v -208 -160 0
v -224 -160 0
v -224 -144 0
v -208 -144 0
v -224 -160 0
v -240 -160 0
v -240 -144 0
v -224 -144 0
v -240 -160 0
v -256 -160 0
v -256 -144 0
v -240 -144 0
v -208 -176 0
v -224 -176 0
v -224 -160 0
v -208 -160 0
v -224 -176 0
v -240 -176 0
v -240 -160 0
v -224 -160 0
v -240 -176 0
v -256 -176 0
v -256 -160 0
v -240 -160 0
v -192 -192 0
v -208 -192 0
v -208 -176 0
v -192 -176 0
v -208 -192 0
v -224 -192 0
v -224 -176 0
v -208 -176 0
v -224 -192 0
v -240 -192 0
v -240 -176 0
v -224 -176 0
v -240 -192 0
v -256 -192 0
v -256 -176 0
v -240 -176 0
v -192 -208 0
v -208 -208 0
v -208 -192 0
v -192 -192 0
v -208 -208 0
v -224 -208 0
v -224 -192 0
v -208 -192 0
v -224 -208 0
v -240 -208 0
v -240 -192 0
v -224 -192 0
v -240 -208 0
v -256 -208 0
v -256 -192 0
v -240 -192 0
v -192 -224 0
v -208 -224 0
v -208 -208 0
v -192 -208 0
v -208 -224 0
v -224 -224 0
v -224 -208 0
v -208 -208 0
v -224 -224 0
v -240 -224 0
v -240 -208 0
v -224 -208 0
v -240 -224 0
v -256 -224 0
v -256 -208 0
v -240 -208 0
v 0 -240 0
v -16 -240 0
v -16 -224 0
v 0 -224 0
v -16 -240 0
v -32 -240 0
v -32 -224 0
v -16 -224 0
v -32 -240 0
v -48 -240 0
v -48 -224 0
v -32 -224 0
v -48 -240 0
v -64 -240 0
v -64 -224 0
v -48 -224 0
v -64 -240 0
v -80 -240 0
v -80 -224 0
v -64 -224 0
v -80 -240 0
v -96 -240 0
v -96 -224 0
v -80 -224 0
v -96 -240 0
v -112 -240 0
v -112 -224 0
v -96 -224 0
v -112 -240 0
v -128 -240 0
v -128 -224 0
v -112 -224 0
v -128 -240 0
v -144 -240 0
v -144 -224 0
v -128 -224 0
v -192 -240 0
v -208 -240 0
v -208 -224 0
v -192 -224 0
v -208 -240 0
v -224 -240 0
v -224 -224 0
v -208 -224 0
v -224 -240 0
v -240 -240 0
v -240 -224 0
v -224 -224 0
v -240 -240 0
v -256 -240 0
v -256 -224 0
v -240 -224 0
v 0 -256 0
v -16 -256 0
v -16 -240 0
v 0 -240 0
v -16 -256 0
v -32 -256 0
v -32 -240 0
v -16 -240 0
v -32 -256 0
v -48 -256 0
v -48 -240 0
v -32 -240 0
v -48 -256 0
v -64 -256 0
v -64 -240 0
v -48 -240 0
v -64 -256 0
v -80 -256 0
v -80 -240 0
v -64 -240 0
v -80 -256 0
v -96 -256 0
v -96 -240 0
v -80 -240 0
v -96 -256 0
v -112 -256 0
v -112 -240 0
v -96 -240 0
v -112 -256 0
v -128 -256 0
v -128 -240 0
v -112 -240 0
v -128 -256 0
v -144 -256 0
v -144 -240 0
v -128 -240 0
v -192 -256 0
v -208 -256 0
v -208 -240 0
v -192 -240 0
v -208 -256 0
v -224 -256 0
v -224 -240 0
v -208 -240 0
v -224 -256 0
v -240 -256 0
v -240 -240 0
v -224 -240 0
v -240 -256 0
v -256 -256 0
v -256 -240 0
v -240 -240 0

# Texture cooridinates (Count = 47)
vt 0 0.44
vt 0.07692308 0.44
vt 0.07692308 0.48
vt 0 0.48
vt 0.1538462 0.44
vt 0.1538462 0.48
vt 0.2307692 0.44
vt 0.2307692 0.48
vt 0 0.4
vt 0.07692308 0.4
vt 0.1538462 0.4
vt 0.2307692 0.4
vt 0 0.36
vt 0.07692308 0.36
vt 0.1538462 0.36
vt 0.2307692 0.36
vt 0 0.32
vt 0.07692308 0.32
vt 0.1538462 0.32
vt 0.2307692 0.32
vt 0 0.28
vt 0.07692308 0.28
vt 0.1538462 0.28
vt 0.2307692 0.28
vt 0 0.24
vt 0.07692308 0.24
vt 0.1538462 0.24
vt 0.2307692 0.24
vt 0.3076923 0.36
vt 0.3076923 0.4
vt 0.07692308 0.76
vt 0.1538462 0.76
vt 0.1538462 0.8
vt 0.07692308 0.8
vt 0.2307692 0.76
vt 0.3076923 0.76
vt 0.3076923 0.8
vt 0.2307692 0.8
vt 0.3846154 0.76
vt 0.3846154 0.8
vt 0.3076923 0.32
vt 0.07692308 0.72
vt 0.1538462 0.72
vt 0.2307692 0.72
vt 0.3076923 0.72
vt 0.3846154 0.72
vt 0.3076923 0.28

# Normal
vn 0 0 -1

# Mesh description
g bossmap_mesh_0032

# Faces
f 1/1/1 2/2/1 3/3/1 4/4/1
f 5/2/1 6/5/1 7/6/1 8/3/1
f 9/5/1 10/7/1 11/8/1 12/6/1
f 13/9/1 14/10/1 15/2/1 16/1/1
f 17/10/1 18/11/1 19/5/1 20/2/1
f 21/11/1 22/12/1 23/7/1 24/5/1
f 25/13/1 26/14/1 27/10/1 28/9/1
f 29/14/1 30/15/1 31/11/1 32/10/1
f 33/15/1 34/16/1 35/12/1 36/11/1
f 37/17/1 38/18/1 39/14/1 40/13/1
f 41/18/1 42/19/1 43/15/1 44/14/1
f 45/19/1 46/20/1 47/16/1 48/15/1
f 49/1/1 50/2/1 51/3/1 52/4/1
f 53/21/1 54/22/1 55/18/1 56/17/1
f 57/22/1 58/23/1 59/19/1 60/18/1
f 61/23/1 62/24/1 63/20/1 64/19/1
f 65/9/1 66/10/1 67/2/1 68/1/1
f 69/25/1 70/26/1 71/22/1 72/21/1
f 73/26/1 74/27/1 75/23/1 76/22/1
f 77/27/1 78/28/1 79/24/1 80/23/1
f 81/13/1 82/14/1 83/10/1 84/9/1
f 85/14/1 86/15/1 87/11/1 88/10/1
f 89/15/1 90/16/1 91/12/1 92/11/1
f 93/16/1 94/29/1 95/30/1 96/12/1
f 97/31/1 98/32/1 99/33/1 100/34/1
f 101/35/1 102/36/1 103/37/1 104/38/1
f 105/32/1 106/35/1 107/38/1 108/33/1
f 109/35/1 110/36/1 111/37/1 112/38/1
f 113/35/1 114/36/1 115/37/1 116/38/1
f 117/32/1 118/35/1 119/38/1 120/33/1
f 121/35/1 122/36/1 123/37/1 124/38/1
f 125/35/1 126/36/1 127/37/1 128/38/1
f 129/36/1 130/39/1 131/40/1 132/37/1
f 133/17/1 134/18/1 135/14/1 136/13/1
f 137/18/1 138/19/1 139/15/1 140/14/1
f 141/19/1 142/20/1 143/16/1 144/15/1
f 145/20/1 146/41/1 147/29/1 148/16/1
f 149/42/1 150/43/1 151/32/1 152/31/1
f 153/44/1 154/45/1 155/36/1 156/35/1
f 157/43/1 158/44/1 159/35/1 160/32/1
f 161/44/1 162/45/1 163/36/1 164/35/1
f 165/44/1 166/45/1 167/36/1 168/35/1
f 169/43/1 170/44/1 171/35/1 172/32/1
f 173/44/1 174/45/1 175/36/1 176/35/1
f 177/44/1 178/45/1 179/36/1 180/35/1
f 181/45/1 182/46/1 183/39/1 184/36/1
f 185/21/1 186/22/1 187/18/1 188/17/1
f 189/22/1 190/23/1 191/19/1 192/18/1
f 193/23/1 194/24/1 195/20/1 196/19/1
f 197/24/1 198/47/1 199/41/1 200/20/1

