# Tiled2Unity generated file. Do not modify by hand.
# Wavefront file for 'bossmap_mesh_0038.obj'

# Vertices (Count = 120)
v -64 -16 0
v -80 -16 0
v -80 0 0
v -64 0 0
v -80 -16 0
v -96 -16 0
v -96 0 0
v -80 0 0
v -96 -16 0
v -112 -16 0
v -112 0 0
v -96 0 0
v -112 -16 0
v -128 -16 0
v -128 0 0
v -112 0 0
v -128 -16 0
v -144 -16 0
v -144 0 0
v -128 0 0
v -144 -16 0
v -160 -16 0
v -160 0 0
v -144 0 0
v -160 -16 0
v -176 -16 0
v -176 0 0
v -160 0 0
v -176 -16 0
v -192 -16 0
v -192 0 0
v -176 0 0
v -192 -16 0
v -208 -16 0
v -208 0 0
v -192 0 0
v -208 -16 0
v -224 -16 0
v -224 0 0
v -208 0 0
v -224 -16 0
v -240 -16 0
v -240 0 0
v -224 0 0
v 0 -32 0
v -16 -32 0
v -16 -16 0
v 0 -16 0
v -16 -32 0
v -32 -32 0
v -32 -16 0
v -16 -16 0
v -32 -32 0
v -48 -32 0
v -48 -16 0
v -32 -16 0
v -64 -32 0
v -80 -32 0
v -80 -16 0
v -64 -16 0
v -80 -32 0
v -96 -32 0
v -96 -16 0
v -80 -16 0
v -96 -32 0
v -112 -32 0
v -112 -16 0
v -96 -16 0
v -112 -32 0
v -128 -32 0
v -128 -16 0
v -112 -16 0
v -128 -32 0
v -144 -32 0
v -144 -16 0
v -128 -16 0
v -144 -32 0
v -160 -32 0
v -160 -16 0
v -144 -16 0
v -160 -32 0
v -176 -32 0
v -176 -16 0
v -160 -16 0
v 0 -48 0
v -16 -48 0
v -16 -32 0
v 0 -32 0
v -16 -48 0
v -32 -48 0
v -32 -32 0
v -16 -32 0
v -32 -48 0
v -48 -48 0
v -48 -32 0
v -32 -32 0
v -64 -48 0
v -80 -48 0
v -80 -32 0
v -64 -32 0
v -80 -48 0
v -96 -48 0
v -96 -32 0
v -80 -32 0
v -96 -48 0
v -112 -48 0
v -112 -32 0
v -96 -32 0
v -112 -48 0
v -128 -48 0
v -128 -32 0
v -112 -32 0
v -128 -48 0
v -144 -48 0
v -144 -32 0
v -128 -32 0
v -144 -48 0
v -160 -48 0
v -160 -32 0
v -144 -32 0

# Texture cooridinates (Count = 44)
vt 0 0.16
vt 0.07692308 0.16
vt 0.07692308 0.2
vt 0 0.2
vt 0.1538462 0.16
vt 0.1538462 0.2
vt 0.2307692 0.16
vt 0.2307692 0.2
vt 0.3076923 0.16
vt 0.3076923 0.2
vt 0.3846154 0.24
vt 0.4615385 0.24
vt 0.4615385 0.28
vt 0.3846154 0.28
vt 0.3076923 0.24
vt 0.3076923 0.28
vt 0.6153846 0.2
vt 0.6923077 0.2
vt 0.6923077 0.24
vt 0.6153846 0.24
vt 0.7692308 0.2
vt 0.7692308 0.24
vt 0.1538462 0.76
vt 0.2307692 0.76
vt 0.2307692 0.8
vt 0.1538462 0.8
vt 0.3076923 0.76
vt 0.3076923 0.8
vt 0.3846154 0.76
vt 0.3846154 0.8
vt 0 0.12
vt 0.07692308 0.12
vt 0.1538462 0.12
vt 0.2307692 0.12
vt 0.3076923 0.12
vt 0.1538462 0.72
vt 0.2307692 0.72
vt 0.3076923 0.72
vt 0.3846154 0.72
vt 0 0.07999998
vt 0.07692308 0.07999998
vt 0.1538462 0.07999998
vt 0.2307692 0.07999998
vt 0.3076923 0.07999998

# Normal
vn 0 0 -1

# Mesh description
g bossmap_mesh_0038

# Faces
f 1/1/1 2/2/1 3/3/1 4/4/1
f 5/2/1 6/5/1 7/6/1 8/3/1
f 9/5/1 10/7/1 11/8/1 12/6/1
f 13/7/1 14/9/1 15/10/1 16/8/1
f 17/11/1 18/12/1 19/13/1 20/14/1
f 21/15/1 22/11/1 23/14/1 24/16/1
f 25/15/1 26/11/1 27/14/1 28/16/1
f 29/15/1 30/11/1 31/14/1 32/16/1
f 33/11/1 34/12/1 35/13/1 36/14/1
f 37/17/1 38/18/1 39/19/1 40/20/1
f 41/18/1 42/21/1 43/22/1 44/19/1
f 45/23/1 46/24/1 47/25/1 48/26/1
f 49/24/1 50/27/1 51/28/1 52/25/1
f 53/27/1 54/29/1 55/30/1 56/28/1
f 57/31/1 58/32/1 59/2/1 60/1/1
f 61/32/1 62/33/1 63/5/1 64/2/1
f 65/33/1 66/34/1 67/7/1 68/5/1
f 69/34/1 70/35/1 71/9/1 72/7/1
f 73/15/1 74/11/1 75/14/1 76/16/1
f 77/15/1 78/11/1 79/14/1 80/16/1
f 81/11/1 82/12/1 83/13/1 84/14/1
f 85/36/1 86/37/1 87/24/1 88/23/1
f 89/37/1 90/38/1 91/27/1 92/24/1
f 93/38/1 94/39/1 95/29/1 96/27/1
f 97/40/1 98/41/1 99/32/1 100/31/1
f 101/41/1 102/42/1 103/33/1 104/32/1
f 105/42/1 106/43/1 107/34/1 108/33/1
f 109/43/1 110/44/1 111/35/1 112/34/1
f 113/15/1 114/11/1 115/14/1 116/16/1
f 117/11/1 118/12/1 119/13/1 120/14/1

