# Tiled2Unity generated file. Do not modify by hand.
# Wavefront file for 'bossmap_mesh_0052.obj'

# Vertices (Count = 12)
v 0 -224 0
v -16 -224 0
v -16 -208 0
v 0 -208 0
v -32 -256 0
v -48 -256 0
v -48 -240 0
v -32 -240 0
v -48 -256 0
v -64 -256 0
v -64 -240 0
v -48 -240 0

# Texture cooridinates (Count = 10)
vt 0.9230769 0.84
vt 1 0.84
vt 1 0.88
vt 0.9230769 0.88
vt 0 0.64
vt 0.07692308 0.64
vt 0.07692308 0.68
vt 0 0.68
vt 0.1538462 0.64
vt 0.1538462 0.68

# Normal
vn 0 0 -1

# Mesh description
g bossmap_mesh_0052

# Faces
f 1/1/1 2/2/1 3/3/1 4/4/1
f 5/5/1 6/6/1 7/7/1 8/8/1
f 9/6/1 10/9/1 11/10/1 12/7/1

