# Tiled2Unity generated file. Do not modify by hand.
# Wavefront file for 'bossmap_mesh_0023.obj'

# Vertices (Count = 248)
v 0 -96 0
v -16 -96 0
v -16 -80 0
v 0 -80 0
v -16 -96 0
v -32 -96 0
v -32 -80 0
v -16 -80 0
v -32 -96 0
v -48 -96 0
v -48 -80 0
v -32 -80 0
v 0 -112 0
v -16 -112 0
v -16 -96 0
v 0 -96 0
v -32 -112 0
v -48 -112 0
v -48 -96 0
v -32 -96 0
v -48 -112 0
v -64 -112 0
v -64 -96 0
v -48 -96 0
v -144 -112 0
v -160 -112 0
v -160 -96 0
v -144 -96 0
v -160 -112 0
v -176 -112 0
v -176 -96 0
v -160 -96 0
v -176 -112 0
v -192 -112 0
v -192 -96 0
v -176 -96 0
v -240 -112 0
v -256 -112 0
v -256 -96 0
v -240 -96 0
v 0 -128 0
v -16 -128 0
v -16 -112 0
v 0 -112 0
v -16 -128 0
v -32 -128 0
v -32 -112 0
v -16 -112 0
v -32 -128 0
v -48 -128 0
v -48 -112 0
v -32 -112 0
v -48 -128 0
v -64 -128 0
v -64 -112 0
v -48 -112 0
v -64 -128 0
v -80 -128 0
v -80 -112 0
v -64 -112 0
v -128 -128 0
v -144 -128 0
v -144 -112 0
v -128 -112 0
v -144 -128 0
v -160 -128 0
v -160 -112 0
v -144 -112 0
v -176 -128 0
v -192 -128 0
v -192 -112 0
v -176 -112 0
v -192 -128 0
v -208 -128 0
v -208 -112 0
v -192 -112 0
v -208 -128 0
v -224 -128 0
v -224 -112 0
v -208 -112 0
v -224 -128 0
v -240 -128 0
v -240 -112 0
v -224 -112 0
v -240 -128 0
v -256 -128 0
v -256 -112 0
v -240 -112 0
v 0 -144 0
v -16 -144 0
v -16 -128 0
v 0 -128 0
v -16 -144 0
v -32 -144 0
v -32 -128 0
v -16 -128 0
v -32 -144 0
v -48 -144 0
v -48 -128 0
v -32 -128 0
v -48 -144 0
v -64 -144 0
v -64 -128 0
v -48 -128 0
v -64 -144 0
v -80 -144 0
v -80 -128 0
v -64 -128 0
v -80 -144 0
v -96 -144 0
v -96 -128 0
v -80 -128 0
v -112 -144 0
v -128 -144 0
v -128 -128 0
v -112 -128 0
v -128 -144 0
v -144 -144 0
v -144 -128 0
v -128 -128 0
v -144 -144 0
v -160 -144 0
v -160 -128 0
v -144 -128 0
v -160 -144 0
v -176 -144 0
v -176 -128 0
v -160 -128 0
v -176 -144 0
v -192 -144 0
v -192 -128 0
v -176 -128 0
v -192 -144 0
v -208 -144 0
v -208 -128 0
v -192 -128 0
v -208 -144 0
v -224 -144 0
v -224 -128 0
v -208 -128 0
v -224 -144 0
v -240 -144 0
v -240 -128 0
v -224 -128 0
v -240 -144 0
v -256 -144 0
v -256 -128 0
v -240 -128 0
v 0 -160 0
v -16 -160 0
v -16 -144 0
v 0 -144 0
v -48 -160 0
v -64 -160 0
v -64 -144 0
v -48 -144 0
v -64 -160 0
v -80 -160 0
v -80 -144 0
v -64 -144 0
v -80 -160 0
v -96 -160 0
v -96 -144 0
v -80 -144 0
v -96 -160 0
v -112 -160 0
v -112 -144 0
v -96 -144 0
v -112 -160 0
v -128 -160 0
v -128 -144 0
v -112 -144 0
v -128 -160 0
v -144 -160 0
v -144 -144 0
v -128 -144 0
v -144 -160 0
v -160 -160 0
v -160 -144 0
v -144 -144 0
v -160 -160 0
v -176 -160 0
v -176 -144 0
v -160 -144 0
v -176 -160 0
v -192 -160 0
v -192 -144 0
v -176 -144 0
v -192 -160 0
v -208 -160 0
v -208 -144 0
v -192 -144 0
v -208 -160 0
v -224 -160 0
v -224 -144 0
v -208 -144 0
v -224 -160 0
v -240 -160 0
v -240 -144 0
v -224 -144 0
v -240 -160 0
v -256 -160 0
v -256 -144 0
v -240 -144 0
v -64 -176 0
v -80 -176 0
v -80 -160 0
v -64 -160 0
v -96 -176 0
v -112 -176 0
v -112 -160 0
v -96 -160 0
v -112 -176 0
v -128 -176 0
v -128 -160 0
v -112 -160 0
v -128 -176 0
v -144 -176 0
v -144 -160 0
v -128 -160 0
v -176 -176 0
v -192 -176 0
v -192 -160 0
v -176 -160 0
v -192 -176 0
v -208 -176 0
v -208 -160 0
v -192 -160 0
v -208 -176 0
v -224 -176 0
v -224 -160 0
v -208 -160 0
v -224 -176 0
v -240 -176 0
v -240 -160 0
v -224 -160 0
v -112 -192 0
v -128 -192 0
v -128 -176 0
v -112 -176 0
v -208 -192 0
v -224 -192 0
v -224 -176 0
v -208 -176 0
v -224 -192 0
v -240 -192 0
v -240 -176 0
v -224 -176 0

# Texture cooridinates (Count = 14)
vt 0.4615385 0.88
vt 0.5384616 0.88
vt 0.5384616 0.92
vt 0.4615385 0.92
vt 0.6153846 0.88
vt 0.6153846 0.92
vt 0.6923077 0.88
vt 0.6923077 0.92
vt 0.4615385 0.84
vt 0.5384616 0.84
vt 0.6153846 0.84
vt 0.6923077 0.84
vt 0.7692308 0.88
vt 0.7692308 0.92

# Normal
vn 0 0 -1

# Mesh description
g bossmap_mesh_0023

# Faces
f 1/1/1 2/2/1 3/3/1 4/4/1
f 5/2/1 6/5/1 7/6/1 8/3/1
f 9/5/1 10/7/1 11/8/1 12/6/1
f 13/9/1 14/10/1 15/2/1 16/1/1
f 17/11/1 18/12/1 19/7/1 20/5/1
f 21/5/1 22/7/1 23/8/1 24/6/1
f 25/7/1 26/5/1 27/6/1 28/8/1
f 29/5/1 30/2/1 31/3/1 32/6/1
f 33/2/1 34/1/1 35/4/1 36/3/1
f 37/13/1 38/7/1 39/8/1 40/14/1
f 41/10/1 42/11/1 43/5/1 44/2/1
f 45/1/1 46/2/1 47/3/1 48/4/1
f 49/5/1 50/7/1 51/8/1 52/6/1
f 53/11/1 54/12/1 55/7/1 56/5/1
f 57/5/1 58/7/1 59/8/1 60/6/1
f 61/7/1 62/5/1 63/6/1 64/8/1
f 65/12/1 66/11/1 67/5/1 68/7/1
f 69/10/1 70/9/1 71/1/1 72/2/1
f 73/5/1 74/2/1 75/3/1 76/6/1
f 77/5/1 78/2/1 79/3/1 80/6/1
f 81/5/1 82/2/1 83/3/1 84/6/1
f 85/5/1 86/2/1 87/3/1 88/6/1
f 89/2/1 90/5/1 91/6/1 92/3/1
f 93/9/1 94/10/1 95/2/1 96/1/1
f 97/11/1 98/12/1 99/7/1 100/5/1
f 101/5/1 102/7/1 103/8/1 104/6/1
f 105/11/1 106/12/1 107/7/1 108/5/1
f 109/5/1 110/7/1 111/8/1 112/6/1
f 113/7/1 114/5/1 115/6/1 116/8/1
f 117/12/1 118/11/1 119/5/1 120/7/1
f 121/7/1 122/5/1 123/6/1 124/8/1
f 125/2/1 126/1/1 127/4/1 128/3/1
f 129/11/1 130/10/1 131/2/1 132/5/1
f 133/11/1 134/10/1 135/2/1 136/5/1
f 137/11/1 138/10/1 139/2/1 140/5/1
f 141/11/1 142/10/1 143/2/1 144/5/1
f 145/11/1 146/10/1 147/2/1 148/5/1
f 149/10/1 150/11/1 151/5/1 152/2/1
f 153/11/1 154/12/1 155/7/1 156/5/1
f 157/5/1 158/7/1 159/8/1 160/6/1
f 161/11/1 162/12/1 163/7/1 164/5/1
f 165/7/1 166/5/1 167/6/1 168/8/1
f 169/12/1 170/11/1 171/5/1 172/7/1
f 173/7/1 174/5/1 175/6/1 176/8/1
f 177/12/1 178/11/1 179/5/1 180/7/1
f 181/10/1 182/9/1 183/1/1 184/2/1
f 185/5/1 186/2/1 187/3/1 188/6/1
f 189/2/1 190/1/1 191/4/1 192/3/1
f 193/11/1 194/10/1 195/2/1 196/5/1
f 197/11/1 198/10/1 199/2/1 200/5/1
f 201/11/1 202/10/1 203/2/1 204/5/1
f 205/11/1 206/12/1 207/7/1 208/5/1
f 209/12/1 210/11/1 211/5/1 212/7/1
f 213/7/1 214/5/1 215/6/1 216/8/1
f 217/12/1 218/11/1 219/5/1 220/7/1
f 221/11/1 222/10/1 223/2/1 224/5/1
f 225/10/1 226/9/1 227/1/1 228/2/1
f 229/5/1 230/2/1 231/3/1 232/6/1
f 233/2/1 234/1/1 235/4/1 236/3/1
f 237/12/1 238/11/1 239/5/1 240/7/1
f 241/11/1 242/10/1 243/2/1 244/5/1
f 245/10/1 246/9/1 247/1/1 248/2/1

