# Tiled2Unity generated file. Do not modify by hand.
# Wavefront file for 'bossmap_mesh_0069.obj'

# Vertices (Count = 24)
v -64 -256 0
v -80 -256 0
v -80 -240 0
v -64 -240 0
v -80 -256 0
v -96 -256 0
v -96 -240 0
v -80 -240 0
v -96 -256 0
v -112 -256 0
v -112 -240 0
v -96 -240 0
v -112 -256 0
v -128 -256 0
v -128 -240 0
v -112 -240 0
v -128 -256 0
v -144 -256 0
v -144 -240 0
v -128 -240 0
v -144 -256 0
v -160 -256 0
v -160 -240 0
v -144 -240 0

# Texture cooridinates (Count = 12)
vt 0.07692308 0.96
vt 0.1538462 0.96
vt 0.1538462 1
vt 0.07692308 1
vt 0.2307692 0.96
vt 0.2307692 1
vt 0.6923077 0.96
vt 0.7692308 0.96
vt 0.7692308 1
vt 0.6923077 1
vt 0.3076923 0.96
vt 0.3076923 1

# Normal
vn 0 0 -1

# Mesh description
g bossmap_mesh_0069

# Faces
f 1/1/1 2/2/1 3/3/1 4/4/1
f 5/2/1 6/5/1 7/6/1 8/3/1
f 9/2/1 10/5/1 11/6/1 12/3/1
f 13/7/1 14/8/1 15/9/1 16/10/1
f 17/2/1 18/5/1 19/6/1 20/3/1
f 21/5/1 22/11/1 23/12/1 24/6/1

