# Tiled2Unity generated file. Do not modify by hand.
# Wavefront file for 'bossmap_mesh_0040.obj'

# Vertices (Count = 212)
v 0 -16 0
v -16 -16 0
v -16 0 0
v 0 0 0
v -16 -16 0
v -32 -16 0
v -32 0 0
v -16 0 0
v -32 -16 0
v -48 -16 0
v -48 0 0
v -32 0 0
v -48 -16 0
v -64 -16 0
v -64 0 0
v -48 0 0
v -64 -16 0
v -80 -16 0
v -80 0 0
v -64 0 0
v -80 -16 0
v -96 -16 0
v -96 0 0
v -80 0 0
v -96 -16 0
v -112 -16 0
v -112 0 0
v -96 0 0
v -112 -16 0
v -128 -16 0
v -128 0 0
v -112 0 0
v -128 -16 0
v -144 -16 0
v -144 0 0
v -128 0 0
v -144 -16 0
v -160 -16 0
v -160 0 0
v -144 0 0
v -160 -16 0
v -176 -16 0
v -176 0 0
v -160 0 0
v 0 -32 0
v -16 -32 0
v -16 -16 0
v 0 -16 0
v -16 -32 0
v -32 -32 0
v -32 -16 0
v -16 -16 0
v -32 -32 0
v -48 -32 0
v -48 -16 0
v -32 -16 0
v -48 -32 0
v -64 -32 0
v -64 -16 0
v -48 -16 0
v -64 -32 0
v -80 -32 0
v -80 -16 0
v -64 -16 0
v -80 -32 0
v -96 -32 0
v -96 -16 0
v -80 -16 0
v -96 -32 0
v -112 -32 0
v -112 -16 0
v -96 -16 0
v -112 -32 0
v -128 -32 0
v -128 -16 0
v -112 -16 0
v -128 -32 0
v -144 -32 0
v -144 -16 0
v -128 -16 0
v -144 -32 0
v -160 -32 0
v -160 -16 0
v -144 -16 0
v -160 -32 0
v -176 -32 0
v -176 -16 0
v -160 -16 0
v -176 -32 0
v -192 -32 0
v -192 -16 0
v -176 -16 0
v -192 -32 0
v -208 -32 0
v -208 -16 0
v -192 -16 0
v -208 -32 0
v -224 -32 0
v -224 -16 0
v -208 -16 0
v -224 -32 0
v -240 -32 0
v -240 -16 0
v -224 -16 0
v -240 -32 0
v -256 -32 0
v -256 -16 0
v -240 -16 0
v 0 -48 0
v -16 -48 0
v -16 -32 0
v 0 -32 0
v -16 -48 0
v -32 -48 0
v -32 -32 0
v -16 -32 0
v -32 -48 0
v -48 -48 0
v -48 -32 0
v -32 -32 0
v -48 -48 0
v -64 -48 0
v -64 -32 0
v -48 -32 0
v -64 -48 0
v -80 -48 0
v -80 -32 0
v -64 -32 0
v -80 -48 0
v -96 -48 0
v -96 -32 0
v -80 -32 0
v -96 -48 0
v -112 -48 0
v -112 -32 0
v -96 -32 0
v -112 -48 0
v -128 -48 0
v -128 -32 0
v -112 -32 0
v -128 -48 0
v -144 -48 0
v -144 -32 0
v -128 -32 0
v -144 -48 0
v -160 -48 0
v -160 -32 0
v -144 -32 0
v -160 -48 0
v -176 -48 0
v -176 -32 0
v -160 -32 0
v -176 -48 0
v -192 -48 0
v -192 -32 0
v -176 -32 0
v -192 -48 0
v -208 -48 0
v -208 -32 0
v -192 -32 0
v -208 -48 0
v -224 -48 0
v -224 -32 0
v -208 -32 0
v -224 -48 0
v -240 -48 0
v -240 -32 0
v -224 -32 0
v -240 -48 0
v -256 -48 0
v -256 -32 0
v -240 -32 0
v 0 -64 0
v -16 -64 0
v -16 -48 0
v 0 -48 0
v -16 -64 0
v -32 -64 0
v -32 -48 0
v -16 -48 0
v -32 -64 0
v -48 -64 0
v -48 -48 0
v -32 -48 0
v -48 -64 0
v -64 -64 0
v -64 -48 0
v -48 -48 0
v -64 -64 0
v -80 -64 0
v -80 -48 0
v -64 -48 0
v -80 -64 0
v -96 -64 0
v -96 -48 0
v -80 -48 0
v -96 -64 0
v -112 -64 0
v -112 -48 0
v -96 -48 0
v -112 -64 0
v -128 -64 0
v -128 -48 0
v -112 -48 0
v -128 -64 0
v -144 -64 0
v -144 -48 0
v -128 -48 0
v -144 -64 0
v -160 -64 0
v -160 -48 0
v -144 -48 0

# Texture cooridinates (Count = 64)
vt 0.3076923 0.24
vt 0.3846154 0.24
vt 0.3846154 0.28
vt 0.3076923 0.28
vt 0.4615385 0.28
vt 0.4615385 0.32
vt 0.3846154 0.32
vt 0.1538462 0.32
vt 0.2307692 0.32
vt 0.2307692 0.36
vt 0.1538462 0.36
vt 0.3076923 0.32
vt 0.3076923 0.36
vt 0.3846154 0.36
vt 0.4615385 0.36
vt 0.5384616 0.32
vt 0.5384616 0.36
vt 0.6153846 0.32
vt 0.6153846 0.36
vt 0.6923077 0.32
vt 0.6923077 0.36
vt 0.7692308 0.32
vt 0.7692308 0.36
vt 0.1538462 0.28
vt 0.2307692 0.28
vt 0.5384616 0.28
vt 0.6153846 0.28
vt 0.6923077 0.28
vt 0.7692308 0.28
vt 0 0.76
vt 0.07692308 0.76
vt 0.07692308 0.8
vt 0 0.8
vt 0.2307692 0.76
vt 0.3076923 0.76
vt 0.3076923 0.8
vt 0.2307692 0.8
vt 0.1538462 0.76
vt 0.1538462 0.8
vt 0.1538462 0.24
vt 0.2307692 0.24
vt 0.4615385 0.24
vt 0.5384616 0.24
vt 0.6153846 0.24
vt 0.6923077 0.24
vt 0.7692308 0.24
vt 0 0.72
vt 0.07692308 0.72
vt 0.2307692 0.72
vt 0.3076923 0.72
vt 0.1538462 0.72
vt 0.2307692 0.2
vt 0.3076923 0.2
vt 0.3846154 0.2
vt 0.4615385 0.2
vt 0.5384616 0.2
vt 0.6153846 0.07999998
vt 0.6923077 0.07999998
vt 0.6923077 0.12
vt 0.6153846 0.12
vt 0.7692308 0.07999998
vt 0.7692308 0.12
vt 0.5384616 0.07999998
vt 0.5384616 0.12

# Normal
vn 0 0 -1

# Mesh description
g bossmap_mesh_0040

# Faces
f 1/1/1 2/2/1 3/3/1 4/4/1
f 5/3/1 6/5/1 7/6/1 8/7/1
f 9/3/1 10/5/1 11/6/1 12/7/1
f 13/8/1 14/9/1 15/10/1 16/11/1
f 17/9/1 18/12/1 19/13/1 20/10/1
f 21/12/1 22/7/1 23/14/1 24/13/1
f 25/7/1 26/6/1 27/15/1 28/14/1
f 29/6/1 30/16/1 31/17/1 32/15/1
f 33/16/1 34/18/1 35/19/1 36/17/1
f 37/18/1 38/20/1 39/21/1 40/19/1
f 41/20/1 42/22/1 43/23/1 44/21/1
f 45/4/1 46/3/1 47/7/1 48/12/1
f 49/3/1 50/5/1 51/6/1 52/7/1
f 53/3/1 54/5/1 55/6/1 56/7/1
f 57/24/1 58/25/1 59/9/1 60/8/1
f 61/25/1 62/4/1 63/12/1 64/9/1
f 65/4/1 66/3/1 67/7/1 68/12/1
f 69/3/1 70/5/1 71/6/1 72/7/1
f 73/5/1 74/26/1 75/16/1 76/6/1
f 77/26/1 78/27/1 79/18/1 80/16/1
f 81/27/1 82/28/1 83/20/1 84/18/1
f 85/28/1 86/29/1 87/22/1 88/20/1
f 89/30/1 90/31/1 91/32/1 92/33/1
f 93/34/1 94/35/1 95/36/1 96/37/1
f 97/34/1 98/35/1 99/36/1 100/37/1
f 101/34/1 102/35/1 103/36/1 104/37/1
f 105/38/1 106/34/1 107/37/1 108/39/1
f 109/1/1 110/2/1 111/3/1 112/4/1
f 113/3/1 114/5/1 115/6/1 116/7/1
f 117/3/1 118/5/1 119/6/1 120/7/1
f 121/40/1 122/41/1 123/25/1 124/24/1
f 125/41/1 126/1/1 127/4/1 128/25/1
f 129/1/1 130/2/1 131/3/1 132/4/1
f 133/2/1 134/42/1 135/5/1 136/3/1
f 137/42/1 138/43/1 139/26/1 140/5/1
f 141/43/1 142/44/1 143/27/1 144/26/1
f 145/44/1 146/45/1 147/28/1 148/27/1
f 149/45/1 150/46/1 151/29/1 152/28/1
f 153/47/1 154/48/1 155/31/1 156/30/1
f 157/49/1 158/50/1 159/35/1 160/34/1
f 161/49/1 162/50/1 163/35/1 164/34/1
f 165/49/1 166/50/1 167/35/1 168/34/1
f 169/51/1 170/49/1 171/34/1 172/38/1
f 173/52/1 174/53/1 175/1/1 176/41/1
f 177/52/1 178/53/1 179/1/1 180/41/1
f 181/53/1 182/54/1 183/2/1 184/1/1
f 185/54/1 186/55/1 187/42/1 188/2/1
f 189/55/1 190/56/1 191/43/1 192/42/1
f 193/57/1 194/58/1 195/59/1 196/60/1
f 197/58/1 198/61/1 199/62/1 200/59/1
f 201/63/1 202/57/1 203/60/1 204/64/1
f 205/57/1 206/58/1 207/59/1 208/60/1
f 209/58/1 210/61/1 211/62/1 212/59/1

