# Tiled2Unity generated file. Do not modify by hand.
# Wavefront file for 'bossmap_mesh_0066.obj'

# Vertices (Count = 84)
v -16 -16 0
v -32 -16 0
v -32 0 0
v -16 0 0
v -80 -16 0
v -96 -16 0
v -96 0 0
v -80 0 0
v -96 -16 0
v -112 -16 0
v -112 0 0
v -96 0 0
v 0 -32 0
v -16 -32 0
v -16 -16 0
v 0 -16 0
v -16 -32 0
v -32 -32 0
v -32 -16 0
v -16 -16 0
v -32 -32 0
v -48 -32 0
v -48 -16 0
v -32 -16 0
v -80 -32 0
v -96 -32 0
v -96 -16 0
v -80 -16 0
v -96 -32 0
v -112 -32 0
v -112 -16 0
v -96 -16 0
v -144 -32 0
v -160 -32 0
v -160 -16 0
v -144 -16 0
v -160 -32 0
v -176 -32 0
v -176 -16 0
v -160 -16 0
v 0 -48 0
v -16 -48 0
v -16 -32 0
v 0 -32 0
v -16 -48 0
v -32 -48 0
v -32 -32 0
v -16 -32 0
v -32 -48 0
v -48 -48 0
v -48 -32 0
v -32 -32 0
v -80 -48 0
v -96 -48 0
v -96 -32 0
v -80 -32 0
v -96 -48 0
v -112 -48 0
v -112 -32 0
v -96 -32 0
v -144 -48 0
v -160 -48 0
v -160 -32 0
v -144 -32 0
v -160 -48 0
v -176 -48 0
v -176 -32 0
v -160 -32 0
v -176 -48 0
v -192 -48 0
v -192 -32 0
v -176 -32 0
v -192 -48 0
v -208 -48 0
v -208 -32 0
v -192 -32 0
v -176 -64 0
v -192 -64 0
v -192 -48 0
v -176 -48 0
v -192 -64 0
v -208 -64 0
v -208 -48 0
v -192 -48 0

# Texture cooridinates (Count = 33)
vt 0.8461539 0.8
vt 0.9230769 0.8
vt 0.9230769 0.84
vt 0.8461539 0.84
vt 0.7692308 0.52
vt 0.8461539 0.52
vt 0.8461539 0.56
vt 0.7692308 0.56
vt 0.9230769 0.52
vt 0.9230769 0.56
vt 0.7692308 0.8
vt 0.7692308 0.84
vt 1 0.8
vt 1 0.84
vt 0.7692308 0.48
vt 0.8461539 0.48
vt 0.9230769 0.48
vt 0.5384616 0.52
vt 0.6153846 0.52
vt 0.6153846 0.56
vt 0.5384616 0.56
vt 0.6923077 0.52
vt 0.6923077 0.56
vt 0.7692308 0.76
vt 0.8461539 0.76
vt 0.9230769 0.76
vt 1 0.76
vt 0.7692308 0.44
vt 0.8461539 0.44
vt 0.9230769 0.44
vt 0.5384616 0.48
vt 0.6153846 0.48
vt 0.6923077 0.48

# Normal
vn 0 0 -1

# Mesh description
g bossmap_mesh_0066

# Faces
f 1/1/1 2/2/1 3/3/1 4/4/1
f 5/5/1 6/6/1 7/7/1 8/8/1
f 9/6/1 10/9/1 11/10/1 12/7/1
f 13/11/1 14/1/1 15/4/1 16/12/1
f 17/1/1 18/2/1 19/3/1 20/4/1
f 21/2/1 22/13/1 23/14/1 24/3/1
f 25/15/1 26/16/1 27/6/1 28/5/1
f 29/16/1 30/17/1 31/9/1 32/6/1
f 33/18/1 34/19/1 35/20/1 36/21/1
f 37/19/1 38/22/1 39/23/1 40/20/1
f 41/24/1 42/25/1 43/1/1 44/11/1
f 45/25/1 46/26/1 47/2/1 48/1/1
f 49/26/1 50/27/1 51/13/1 52/2/1
f 53/28/1 54/29/1 55/16/1 56/15/1
f 57/29/1 58/30/1 59/17/1 60/16/1
f 61/31/1 62/32/1 63/19/1 64/18/1
f 65/32/1 66/33/1 67/22/1 68/19/1
f 69/22/1 70/5/1 71/8/1 72/23/1
f 73/22/1 74/5/1 75/8/1 76/23/1
f 77/33/1 78/15/1 79/5/1 80/22/1
f 81/33/1 82/15/1 83/5/1 84/22/1

