# Tiled2Unity generated file. Do not modify by hand.
# Wavefront file for 'bossmap_mesh_0067.obj'

# Vertices (Count = 64)
v -240 -16 0
v -256 -16 0
v -256 0 0
v -240 0 0
v -240 -32 0
v -256 -32 0
v -256 -16 0
v -240 -16 0
v -240 -48 0
v -256 -48 0
v -256 -32 0
v -240 -32 0
v -240 -64 0
v -256 -64 0
v -256 -48 0
v -240 -48 0
v -240 -80 0
v -256 -80 0
v -256 -64 0
v -240 -64 0
v -240 -96 0
v -256 -96 0
v -256 -80 0
v -240 -80 0
v -240 -112 0
v -256 -112 0
v -256 -96 0
v -240 -96 0
v -240 -128 0
v -256 -128 0
v -256 -112 0
v -240 -112 0
v -240 -144 0
v -256 -144 0
v -256 -128 0
v -240 -128 0
v -240 -160 0
v -256 -160 0
v -256 -144 0
v -240 -144 0
v -240 -176 0
v -256 -176 0
v -256 -160 0
v -240 -160 0
v -240 -192 0
v -256 -192 0
v -256 -176 0
v -240 -176 0
v -240 -208 0
v -256 -208 0
v -256 -192 0
v -240 -192 0
v -240 -224 0
v -256 -224 0
v -256 -208 0
v -240 -208 0
v -240 -240 0
v -256 -240 0
v -256 -224 0
v -240 -224 0
v -240 -256 0
v -256 -256 0
v -256 -240 0
v -240 -240 0

# Texture cooridinates (Count = 8)
vt 0.07692308 0.96
vt 0.1538462 0.96
vt 0.1538462 1
vt 0.07692308 1
vt 0 0.88
vt 0.07692308 0.88
vt 0.07692308 0.92
vt 0 0.92

# Normal
vn 0 0 -1

# Mesh description
g bossmap_mesh_0067

# Faces
f 1/1/1 2/2/1 3/3/1 4/4/1
f 5/5/1 6/6/1 7/7/1 8/8/1
f 9/5/1 10/6/1 11/7/1 12/8/1
f 13/5/1 14/6/1 15/7/1 16/8/1
f 17/5/1 18/6/1 19/7/1 20/8/1
f 21/5/1 22/6/1 23/7/1 24/8/1
f 25/5/1 26/6/1 27/7/1 28/8/1
f 29/5/1 30/6/1 31/7/1 32/8/1
f 33/5/1 34/6/1 35/7/1 36/8/1
f 37/5/1 38/6/1 39/7/1 40/8/1
f 41/5/1 42/6/1 43/7/1 44/8/1
f 45/5/1 46/6/1 47/7/1 48/8/1
f 49/5/1 50/6/1 51/7/1 52/8/1
f 53/5/1 54/6/1 55/7/1 56/8/1
f 57/5/1 58/6/1 59/7/1 60/8/1
f 61/5/1 62/6/1 63/7/1 64/8/1

