# Tiled2Unity generated file. Do not modify by hand.
# Wavefront file for 'bossmap_mesh_0070.obj'

# Vertices (Count = 20)
v -32 -256 0
v -48 -256 0
v -48 -240 0
v -32 -240 0
v -48 -256 0
v -64 -256 0
v -64 -240 0
v -48 -240 0
v -64 -256 0
v -80 -256 0
v -80 -240 0
v -64 -240 0
v -80 -256 0
v -96 -256 0
v -96 -240 0
v -80 -240 0
v -96 -256 0
v -112 -256 0
v -112 -240 0
v -96 -240 0

# Texture cooridinates (Count = 12)
vt 0.07692308 0.96
vt 0.1538462 0.96
vt 0.1538462 1
vt 0.07692308 1
vt 0.2307692 0.96
vt 0.2307692 1
vt 0.6923077 0.96
vt 0.7692308 0.96
vt 0.7692308 1
vt 0.6923077 1
vt 0.3076923 0.96
vt 0.3076923 1

# Normal
vn 0 0 -1

# Mesh description
g bossmap_mesh_0070

# Faces
f 1/1/1 2/2/1 3/3/1 4/4/1
f 5/2/1 6/5/1 7/6/1 8/3/1
f 9/7/1 10/8/1 11/9/1 12/10/1
f 13/2/1 14/5/1 15/6/1 16/3/1
f 17/5/1 18/11/1 19/12/1 20/6/1

