# Tiled2Unity generated file. Do not modify by hand.
# Wavefront file for 'bossmap_mesh_0044.obj'

# Vertices (Count = 164)
v 0 -16 0
v -16 -16 0
v -16 0 0
v 0 0 0
v -16 -16 0
v -32 -16 0
v -32 0 0
v -16 0 0
v -32 -16 0
v -48 -16 0
v -48 0 0
v -32 0 0
v -48 -16 0
v -64 -16 0
v -64 0 0
v -48 0 0
v -64 -16 0
v -80 -16 0
v -80 0 0
v -64 0 0
v -80 -16 0
v -96 -16 0
v -96 0 0
v -80 0 0
v -96 -16 0
v -112 -16 0
v -112 0 0
v -96 0 0
v -112 -16 0
v -128 -16 0
v -128 0 0
v -112 0 0
v -128 -16 0
v -144 -16 0
v -144 0 0
v -128 0 0
v 0 -32 0
v -16 -32 0
v -16 -16 0
v 0 -16 0
v -16 -32 0
v -32 -32 0
v -32 -16 0
v -16 -16 0
v -32 -32 0
v -48 -32 0
v -48 -16 0
v -32 -16 0
v -48 -32 0
v -64 -32 0
v -64 -16 0
v -48 -16 0
v -64 -32 0
v -80 -32 0
v -80 -16 0
v -64 -16 0
v -80 -32 0
v -96 -32 0
v -96 -16 0
v -80 -16 0
v -96 -32 0
v -112 -32 0
v -112 -16 0
v -96 -16 0
v -112 -32 0
v -128 -32 0
v -128 -16 0
v -112 -16 0
v -128 -32 0
v -144 -32 0
v -144 -16 0
v -128 -16 0
v -144 -32 0
v -160 -32 0
v -160 -16 0
v -144 -16 0
v -160 -32 0
v -176 -32 0
v -176 -16 0
v -160 -16 0
v -176 -32 0
v -192 -32 0
v -192 -16 0
v -176 -16 0
v -192 -32 0
v -208 -32 0
v -208 -16 0
v -192 -16 0
v -208 -32 0
v -224 -32 0
v -224 -16 0
v -208 -16 0
v -224 -32 0
v -240 -32 0
v -240 -16 0
v -224 -16 0
v -240 -32 0
v -256 -32 0
v -256 -16 0
v -240 -16 0
v 0 -48 0
v -16 -48 0
v -16 -32 0
v 0 -32 0
v -16 -48 0
v -32 -48 0
v -32 -32 0
v -16 -32 0
v -32 -48 0
v -48 -48 0
v -48 -32 0
v -32 -32 0
v -48 -48 0
v -64 -48 0
v -64 -32 0
v -48 -32 0
v -64 -48 0
v -80 -48 0
v -80 -32 0
v -64 -32 0
v -80 -48 0
v -96 -48 0
v -96 -32 0
v -80 -32 0
v -96 -48 0
v -112 -48 0
v -112 -32 0
v -96 -32 0
v -112 -48 0
v -128 -48 0
v -128 -32 0
v -112 -32 0
v -128 -48 0
v -144 -48 0
v -144 -32 0
v -128 -32 0
v -144 -48 0
v -160 -48 0
v -160 -32 0
v -144 -32 0
v -160 -48 0
v -176 -48 0
v -176 -32 0
v -160 -32 0
v -176 -48 0
v -192 -48 0
v -192 -32 0
v -176 -32 0
v -192 -48 0
v -208 -48 0
v -208 -32 0
v -192 -32 0
v -208 -48 0
v -224 -48 0
v -224 -32 0
v -208 -32 0
v -224 -48 0
v -240 -48 0
v -240 -32 0
v -224 -32 0
v -240 -48 0
v -256 -48 0
v -256 -32 0
v -240 -32 0

# Texture cooridinates (Count = 46)
vt 0.3846154 0.28
vt 0.4615385 0.28
vt 0.4615385 0.32
vt 0.3846154 0.32
vt 0.3076923 0.28
vt 0.3076923 0.32
vt 0.4615385 0.4
vt 0.5384616 0.4
vt 0.5384616 0.44
vt 0.4615385 0.44
vt 0.6153846 0.4
vt 0.6153846 0.44
vt 0.6923077 0.4
vt 0.6923077 0.44
vt 0.7692308 0.4
vt 0.7692308 0.44
vt 0.4615385 0.36
vt 0.5384616 0.36
vt 0.6153846 0.36
vt 0.6923077 0.36
vt 0.7692308 0.36
vt 0 0.76
vt 0.07692308 0.76
vt 0.07692308 0.8
vt 0 0.8
vt 0.1538462 0.76
vt 0.1538462 0.8
vt 0.2307692 0.76
vt 0.2307692 0.8
vt 0.3076923 0.76
vt 0.3076923 0.8
vt 0.3846154 0.76
vt 0.3846154 0.8
vt 0.3076923 0.24
vt 0.3846154 0.24
vt 0.4615385 0.24
vt 0.5384616 0.32
vt 0.6153846 0.32
vt 0.6923077 0.32
vt 0.7692308 0.32
vt 0 0.72
vt 0.07692308 0.72
vt 0.1538462 0.72
vt 0.2307692 0.72
vt 0.3076923 0.72
vt 0.3846154 0.72

# Normal
vn 0 0 -1

# Mesh description
g bossmap_mesh_0044

# Faces
f 1/1/1 2/2/1 3/3/1 4/4/1
f 5/1/1 6/2/1 7/3/1 8/4/1
f 9/1/1 10/2/1 11/3/1 12/4/1
f 13/5/1 14/1/1 15/4/1 16/6/1
f 17/1/1 18/2/1 19/3/1 20/4/1
f 21/7/1 22/8/1 23/9/1 24/10/1
f 25/8/1 26/11/1 27/12/1 28/9/1
f 29/11/1 30/13/1 31/14/1 32/12/1
f 33/13/1 34/15/1 35/16/1 36/14/1
f 37/5/1 38/1/1 39/4/1 40/6/1
f 41/5/1 42/1/1 43/4/1 44/6/1
f 45/1/1 46/2/1 47/3/1 48/4/1
f 49/1/1 50/2/1 51/3/1 52/4/1
f 53/1/1 54/2/1 55/3/1 56/4/1
f 57/17/1 58/18/1 59/8/1 60/7/1
f 61/18/1 62/19/1 63/11/1 64/8/1
f 65/19/1 66/20/1 67/13/1 68/11/1
f 69/20/1 70/21/1 71/15/1 72/13/1
f 73/22/1 74/23/1 75/24/1 76/25/1
f 77/23/1 78/26/1 79/27/1 80/24/1
f 81/26/1 82/28/1 83/29/1 84/27/1
f 85/28/1 86/30/1 87/31/1 88/29/1
f 89/30/1 90/32/1 91/33/1 92/31/1
f 93/22/1 94/23/1 95/24/1 96/25/1
f 97/23/1 98/26/1 99/27/1 100/24/1
f 101/34/1 102/35/1 103/1/1 104/5/1
f 105/34/1 106/35/1 107/1/1 108/5/1
f 109/35/1 110/36/1 111/2/1 112/1/1
f 113/35/1 114/36/1 115/2/1 116/1/1
f 117/35/1 118/36/1 119/2/1 120/1/1
f 121/3/1 122/37/1 123/18/1 124/17/1
f 125/37/1 126/38/1 127/19/1 128/18/1
f 129/38/1 130/39/1 131/20/1 132/19/1
f 133/39/1 134/40/1 135/21/1 136/20/1
f 137/41/1 138/42/1 139/23/1 140/22/1
f 141/42/1 142/43/1 143/26/1 144/23/1
f 145/43/1 146/44/1 147/28/1 148/26/1
f 149/44/1 150/45/1 151/30/1 152/28/1
f 153/45/1 154/46/1 155/32/1 156/30/1
f 157/41/1 158/42/1 159/23/1 160/22/1
f 161/42/1 162/43/1 163/26/1 164/23/1

