# Tiled2Unity generated file. Do not modify by hand.
# Wavefront file for 'bossmap_mesh_0057.obj'

# Vertices (Count = 48)
v -176 -16 0
v -192 -16 0
v -192 0 0
v -176 0 0
v 0 -32 0
v -16 -32 0
v -16 -16 0
v 0 -16 0
v -16 -32 0
v -32 -32 0
v -32 -16 0
v -16 -16 0
v -32 -32 0
v -48 -32 0
v -48 -16 0
v -32 -16 0
v -48 -32 0
v -64 -32 0
v -64 -16 0
v -48 -16 0
v -176 -32 0
v -192 -32 0
v -192 -16 0
v -176 -16 0
v 0 -48 0
v -16 -48 0
v -16 -32 0
v 0 -32 0
v -16 -48 0
v -32 -48 0
v -32 -32 0
v -16 -32 0
v -32 -48 0
v -48 -48 0
v -48 -32 0
v -32 -32 0
v -48 -48 0
v -64 -48 0
v -64 -32 0
v -48 -32 0
v -112 -48 0
v -128 -48 0
v -128 -32 0
v -112 -32 0
v -112 -64 0
v -128 -64 0
v -128 -48 0
v -112 -48 0

# Texture cooridinates (Count = 12)
vt 0.6923077 0.52
vt 0.7692308 0.52
vt 0.7692308 0.56
vt 0.6923077 0.56
vt 0.5384616 0.52
vt 0.6153846 0.52
vt 0.6153846 0.56
vt 0.5384616 0.56
vt 0.6923077 0.48
vt 0.7692308 0.48
vt 0.5384616 0.48
vt 0.6153846 0.48

# Normal
vn 0 0 -1

# Mesh description
g bossmap_mesh_0057

# Faces
f 1/1/1 2/2/1 3/3/1 4/4/1
f 5/5/1 6/6/1 7/7/1 8/8/1
f 9/6/1 10/1/1 11/4/1 12/7/1
f 13/5/1 14/6/1 15/7/1 16/8/1
f 17/6/1 18/1/1 19/4/1 20/7/1
f 21/9/1 22/10/1 23/2/1 24/1/1
f 25/11/1 26/12/1 27/6/1 28/5/1
f 29/12/1 30/9/1 31/1/1 32/6/1
f 33/11/1 34/12/1 35/6/1 36/5/1
f 37/12/1 38/9/1 39/1/1 40/6/1
f 41/1/1 42/2/1 43/3/1 44/4/1
f 45/9/1 46/10/1 47/2/1 48/1/1

