# Tiled2Unity generated file. Do not modify by hand.
# Wavefront file for 'bossmap_mesh_0049.obj'

# Vertices (Count = 56)
v -80 -208 0
v -96 -208 0
v -96 -192 0
v -80 -192 0
v -96 -208 0
v -112 -208 0
v -112 -192 0
v -96 -192 0
v -80 -224 0
v -96 -224 0
v -96 -208 0
v -80 -208 0
v -96 -224 0
v -112 -224 0
v -112 -208 0
v -96 -208 0
v -80 -240 0
v -96 -240 0
v -96 -224 0
v -80 -224 0
v -96 -240 0
v -112 -240 0
v -112 -224 0
v -96 -224 0
v -112 -240 0
v -128 -240 0
v -128 -224 0
v -112 -224 0
v -128 -240 0
v -144 -240 0
v -144 -224 0
v -128 -224 0
v -80 -256 0
v -96 -256 0
v -96 -240 0
v -80 -240 0
v -96 -256 0
v -112 -256 0
v -112 -240 0
v -96 -240 0
v -112 -256 0
v -128 -256 0
v -128 -240 0
v -112 -240 0
v -128 -256 0
v -144 -256 0
v -144 -240 0
v -128 -240 0
v -208 -256 0
v -224 -256 0
v -224 -240 0
v -208 -240 0
v -224 -256 0
v -240 -256 0
v -240 -240 0
v -224 -240 0

# Texture cooridinates (Count = 24)
vt 0.6153846 0.88
vt 0.6923077 0.88
vt 0.6923077 0.92
vt 0.6153846 0.92
vt 0.7692308 0.88
vt 0.7692308 0.92
vt 0.6153846 0.84
vt 0.6923077 0.84
vt 0.7692308 0.84
vt 0.5384616 0.52
vt 0.6153846 0.52
vt 0.6153846 0.56
vt 0.5384616 0.56
vt 0.6923077 0.52
vt 0.6923077 0.56
vt 0.5384616 0.48
vt 0.6153846 0.48
vt 0.6923077 0.48
vt 0 0.64
vt 0.07692308 0.64
vt 0.07692308 0.68
vt 0 0.68
vt 0.1538462 0.64
vt 0.1538462 0.68

# Normal
vn 0 0 -1

# Mesh description
g bossmap_mesh_0049

# Faces
f 1/1/1 2/2/1 3/3/1 4/4/1
f 5/2/1 6/5/1 7/6/1 8/3/1
f 9/7/1 10/8/1 11/2/1 12/1/1
f 13/8/1 14/9/1 15/5/1 16/2/1
f 17/10/1 18/11/1 19/12/1 20/13/1
f 21/11/1 22/14/1 23/15/1 24/12/1
f 25/10/1 26/11/1 27/12/1 28/13/1
f 29/11/1 30/14/1 31/15/1 32/12/1
f 33/16/1 34/17/1 35/11/1 36/10/1
f 37/17/1 38/18/1 39/14/1 40/11/1
f 41/16/1 42/17/1 43/11/1 44/10/1
f 45/17/1 46/18/1 47/14/1 48/11/1
f 49/19/1 50/20/1 51/21/1 52/22/1
f 53/20/1 54/23/1 55/24/1 56/21/1

