# Tiled2Unity generated file. Do not modify by hand.
# Wavefront file for 'bossmap_mesh_0069.obj'

# Vertices (Count = 104)
v 0 -16 0
v -16 -16 0
v -16 0 0
v 0 0 0
v -16 -16 0
v -32 -16 0
v -32 0 0
v -16 0 0
v -32 -16 0
v -48 -16 0
v -48 0 0
v -32 0 0
v -48 -16 0
v -64 -16 0
v -64 0 0
v -48 0 0
v -64 -16 0
v -80 -16 0
v -80 0 0
v -64 0 0
v -80 -16 0
v -96 -16 0
v -96 0 0
v -80 0 0
v -96 -16 0
v -112 -16 0
v -112 0 0
v -96 0 0
v -112 -16 0
v -128 -16 0
v -128 0 0
v -112 0 0
v -128 -16 0
v -144 -16 0
v -144 0 0
v -128 0 0
v -144 -16 0
v -160 -16 0
v -160 0 0
v -144 0 0
v 0 -32 0
v -16 -32 0
v -16 -16 0
v 0 -16 0
v -16 -32 0
v -32 -32 0
v -32 -16 0
v -16 -16 0
v -32 -32 0
v -48 -32 0
v -48 -16 0
v -32 -16 0
v -48 -32 0
v -64 -32 0
v -64 -16 0
v -48 -16 0
v -128 -32 0
v -144 -32 0
v -144 -16 0
v -128 -16 0
v -144 -32 0
v -160 -32 0
v -160 -16 0
v -144 -16 0
v -144 -48 0
v -160 -48 0
v -160 -32 0
v -144 -32 0
v -144 -64 0
v -160 -64 0
v -160 -48 0
v -144 -48 0
v -160 -64 0
v -176 -64 0
v -176 -48 0
v -160 -48 0
v -176 -64 0
v -192 -64 0
v -192 -48 0
v -176 -48 0
v -192 -64 0
v -208 -64 0
v -208 -48 0
v -192 -48 0
v -208 -64 0
v -224 -64 0
v -224 -48 0
v -208 -48 0
v -224 -64 0
v -240 -64 0
v -240 -48 0
v -224 -48 0
v -240 -64 0
v -256 -64 0
v -256 -48 0
v -240 -48 0
v -224 -80 0
v -240 -80 0
v -240 -64 0
v -224 -64 0
v -240 -80 0
v -256 -80 0
v -256 -64 0
v -240 -64 0

# Texture cooridinates (Count = 22)
vt 0.5384616 0.96
vt 0.6153846 0.96
vt 0.6153846 1
vt 0.5384616 1
vt 0.3846154 0.96
vt 0.4615385 0.96
vt 0.4615385 1
vt 0.3846154 1
vt 0.1538462 0.96
vt 0.2307692 0.96
vt 0.2307692 1
vt 0.1538462 1
vt 0.3076923 0.96
vt 0.3076923 1
vt 0.5384616 0.92
vt 0.6153846 0.92
vt 0.3846154 0.92
vt 0.4615385 0.92
vt 0.2307692 0.92
vt 0.3076923 0.92
vt 0.3076923 0.88
vt 0.3846154 0.88

# Normal
vn 0 0 -1

# Mesh description
g bossmap_mesh_0069

# Faces
f 1/1/1 2/2/1 3/3/1 4/4/1
f 5/5/1 6/6/1 7/7/1 8/8/1
f 9/6/1 10/1/1 11/4/1 12/7/1
f 13/1/1 14/2/1 15/3/1 16/4/1
f 17/9/1 18/10/1 19/11/1 20/12/1
f 21/9/1 22/10/1 23/11/1 24/12/1
f 25/9/1 26/10/1 27/11/1 28/12/1
f 29/9/1 30/10/1 31/11/1 32/12/1
f 33/10/1 34/13/1 35/14/1 36/11/1
f 37/13/1 38/5/1 39/8/1 40/14/1
f 41/15/1 42/16/1 43/2/1 44/1/1
f 45/17/1 46/18/1 47/6/1 48/5/1
f 49/18/1 50/15/1 51/1/1 52/6/1
f 53/15/1 54/16/1 55/2/1 56/1/1
f 57/19/1 58/20/1 59/13/1 60/10/1
f 61/20/1 62/17/1 63/5/1 64/13/1
f 65/21/1 66/22/1 67/17/1 68/20/1
f 69/19/1 70/20/1 71/13/1 72/10/1
f 73/9/1 74/10/1 75/11/1 76/12/1
f 77/9/1 78/10/1 79/11/1 80/12/1
f 81/9/1 82/10/1 83/11/1 84/12/1
f 85/9/1 86/10/1 87/11/1 88/12/1
f 89/1/1 90/2/1 91/3/1 92/4/1
f 93/5/1 94/6/1 95/7/1 96/8/1
f 97/15/1 98/16/1 99/2/1 100/1/1
f 101/17/1 102/18/1 103/6/1 104/5/1

