# Tiled2Unity generated file. Do not modify by hand.
# Wavefront file for 'bossmap_mesh_0042.obj'

# Vertices (Count = 540)
v -96 -32 0
v -112 -32 0
v -112 -16 0
v -96 -16 0
v -112 -32 0
v -128 -32 0
v -128 -16 0
v -112 -16 0
v -128 -32 0
v -144 -32 0
v -144 -16 0
v -128 -16 0
v -144 -32 0
v -160 -32 0
v -160 -16 0
v -144 -16 0
v -160 -32 0
v -176 -32 0
v -176 -16 0
v -160 -16 0
v -176 -32 0
v -192 -32 0
v -192 -16 0
v -176 -16 0
v -192 -32 0
v -208 -32 0
v -208 -16 0
v -192 -16 0
v -208 -32 0
v -224 -32 0
v -224 -16 0
v -208 -16 0
v -96 -48 0
v -112 -48 0
v -112 -32 0
v -96 -32 0
v -112 -48 0
v -128 -48 0
v -128 -32 0
v -112 -32 0
v -128 -48 0
v -144 -48 0
v -144 -32 0
v -128 -32 0
v -144 -48 0
v -160 -48 0
v -160 -32 0
v -144 -32 0
v -160 -48 0
v -176 -48 0
v -176 -32 0
v -160 -32 0
v -176 -48 0
v -192 -48 0
v -192 -32 0
v -176 -32 0
v -192 -48 0
v -208 -48 0
v -208 -32 0
v -192 -32 0
v -208 -48 0
v -224 -48 0
v -224 -32 0
v -208 -32 0
v -32 -64 0
v -48 -64 0
v -48 -48 0
v -32 -48 0
v -48 -64 0
v -64 -64 0
v -64 -48 0
v -48 -48 0
v -64 -64 0
v -80 -64 0
v -80 -48 0
v -64 -48 0
v -80 -64 0
v -96 -64 0
v -96 -48 0
v -80 -48 0
v -96 -64 0
v -112 -64 0
v -112 -48 0
v -96 -48 0
v -112 -64 0
v -128 -64 0
v -128 -48 0
v -112 -48 0
v -128 -64 0
v -144 -64 0
v -144 -48 0
v -128 -48 0
v -144 -64 0
v -160 -64 0
v -160 -48 0
v -144 -48 0
v -160 -64 0
v -176 -64 0
v -176 -48 0
v -160 -48 0
v -176 -64 0
v -192 -64 0
v -192 -48 0
v -176 -48 0
v -32 -80 0
v -48 -80 0
v -48 -64 0
v -32 -64 0
v -48 -80 0
v -64 -80 0
v -64 -64 0
v -48 -64 0
v -64 -80 0
v -80 -80 0
v -80 -64 0
v -64 -64 0
v -80 -80 0
v -96 -80 0
v -96 -64 0
v -80 -64 0
v -96 -80 0
v -112 -80 0
v -112 -64 0
v -96 -64 0
v -112 -80 0
v -128 -80 0
v -128 -64 0
v -112 -64 0
v -128 -80 0
v -144 -80 0
v -144 -64 0
v -128 -64 0
v -144 -80 0
v -160 -80 0
v -160 -64 0
v -144 -64 0
v -160 -80 0
v -176 -80 0
v -176 -64 0
v -160 -64 0
v -176 -80 0
v -192 -80 0
v -192 -64 0
v -176 -64 0
v -32 -96 0
v -48 -96 0
v -48 -80 0
v -32 -80 0
v -48 -96 0
v -64 -96 0
v -64 -80 0
v -48 -80 0
v -64 -96 0
v -80 -96 0
v -80 -80 0
v -64 -80 0
v -80 -96 0
v -96 -96 0
v -96 -80 0
v -80 -80 0
v -96 -96 0
v -112 -96 0
v -112 -80 0
v -96 -80 0
v -112 -96 0
v -128 -96 0
v -128 -80 0
v -112 -80 0
v -128 -96 0
v -144 -96 0
v -144 -80 0
v -128 -80 0
v -144 -96 0
v -160 -96 0
v -160 -80 0
v -144 -80 0
v -160 -96 0
v -176 -96 0
v -176 -80 0
v -160 -80 0
v -176 -96 0
v -192 -96 0
v -192 -80 0
v -176 -80 0
v 0 -112 0
v -16 -112 0
v -16 -96 0
v 0 -96 0
v -16 -112 0
v -32 -112 0
v -32 -96 0
v -16 -96 0
v -32 -112 0
v -48 -112 0
v -48 -96 0
v -32 -96 0
v -48 -112 0
v -64 -112 0
v -64 -96 0
v -48 -96 0
v -64 -112 0
v -80 -112 0
v -80 -96 0
v -64 -96 0
v -80 -112 0
v -96 -112 0
v -96 -96 0
v -80 -96 0
v -96 -112 0
v -112 -112 0
v -112 -96 0
v -96 -96 0
v -112 -112 0
v -128 -112 0
v -128 -96 0
v -112 -96 0
v -128 -112 0
v -144 -112 0
v -144 -96 0
v -128 -96 0
v -144 -112 0
v -160 -112 0
v -160 -96 0
v -144 -96 0
v -160 -112 0
v -176 -112 0
v -176 -96 0
v -160 -96 0
v -176 -112 0
v -192 -112 0
v -192 -96 0
v -176 -96 0
v 0 -128 0
v -16 -128 0
v -16 -112 0
v 0 -112 0
v -16 -128 0
v -32 -128 0
v -32 -112 0
v -16 -112 0
v -32 -128 0
v -48 -128 0
v -48 -112 0
v -32 -112 0
v -48 -128 0
v -64 -128 0
v -64 -112 0
v -48 -112 0
v -64 -128 0
v -80 -128 0
v -80 -112 0
v -64 -112 0
v -80 -128 0
v -96 -128 0
v -96 -112 0
v -80 -112 0
v -96 -128 0
v -112 -128 0
v -112 -112 0
v -96 -112 0
v -112 -128 0
v -128 -128 0
v -128 -112 0
v -112 -112 0
v -128 -128 0
v -144 -128 0
v -144 -112 0
v -128 -112 0
v -144 -128 0
v -160 -128 0
v -160 -112 0
v -144 -112 0
v -160 -128 0
v -176 -128 0
v -176 -112 0
v -160 -112 0
v -176 -128 0
v -192 -128 0
v -192 -112 0
v -176 -112 0
v 0 -144 0
v -16 -144 0
v -16 -128 0
v 0 -128 0
v -16 -144 0
v -32 -144 0
v -32 -128 0
v -16 -128 0
v -32 -144 0
v -48 -144 0
v -48 -128 0
v -32 -128 0
v -48 -144 0
v -64 -144 0
v -64 -128 0
v -48 -128 0
v -64 -144 0
v -80 -144 0
v -80 -128 0
v -64 -128 0
v -80 -144 0
v -96 -144 0
v -96 -128 0
v -80 -128 0
v -96 -144 0
v -112 -144 0
v -112 -128 0
v -96 -128 0
v -112 -144 0
v -128 -144 0
v -128 -128 0
v -112 -128 0
v -128 -144 0
v -144 -144 0
v -144 -128 0
v -128 -128 0
v -144 -144 0
v -160 -144 0
v -160 -128 0
v -144 -128 0
v -160 -144 0
v -176 -144 0
v -176 -128 0
v -160 -128 0
v -176 -144 0
v -192 -144 0
v -192 -128 0
v -176 -128 0
v 0 -160 0
v -16 -160 0
v -16 -144 0
v 0 -144 0
v -16 -160 0
v -32 -160 0
v -32 -144 0
v -16 -144 0
v -32 -160 0
v -48 -160 0
v -48 -144 0
v -32 -144 0
v -48 -160 0
v -64 -160 0
v -64 -144 0
v -48 -144 0
v -64 -160 0
v -80 -160 0
v -80 -144 0
v -64 -144 0
v -80 -160 0
v -96 -160 0
v -96 -144 0
v -80 -144 0
v -96 -160 0
v -112 -160 0
v -112 -144 0
v -96 -144 0
v -112 -160 0
v -128 -160 0
v -128 -144 0
v -112 -144 0
v -128 -160 0
v -144 -160 0
v -144 -144 0
v -128 -144 0
v -144 -160 0
v -160 -160 0
v -160 -144 0
v -144 -144 0
v -160 -160 0
v -176 -160 0
v -176 -144 0
v -160 -144 0
v -176 -160 0
v -192 -160 0
v -192 -144 0
v -176 -144 0
v 0 -176 0
v -16 -176 0
v -16 -160 0
v 0 -160 0
v -16 -176 0
v -32 -176 0
v -32 -160 0
v -16 -160 0
v -32 -176 0
v -48 -176 0
v -48 -160 0
v -32 -160 0
v -48 -176 0
v -64 -176 0
v -64 -160 0
v -48 -160 0
v -64 -176 0
v -80 -176 0
v -80 -160 0
v -64 -160 0
v -80 -176 0
v -96 -176 0
v -96 -160 0
v -80 -160 0
v -96 -176 0
v -112 -176 0
v -112 -160 0
v -96 -160 0
v -112 -176 0
v -128 -176 0
v -128 -160 0
v -112 -160 0
v -128 -176 0
v -144 -176 0
v -144 -160 0
v -128 -160 0
v -144 -176 0
v -160 -176 0
v -160 -160 0
v -144 -160 0
v -160 -176 0
v -176 -176 0
v -176 -160 0
v -160 -160 0
v -176 -176 0
v -192 -176 0
v -192 -160 0
v -176 -160 0
v 0 -192 0
v -16 -192 0
v -16 -176 0
v 0 -176 0
v -16 -192 0
v -32 -192 0
v -32 -176 0
v -16 -176 0
v -32 -192 0
v -48 -192 0
v -48 -176 0
v -32 -176 0
v -48 -192 0
v -64 -192 0
v -64 -176 0
v -48 -176 0
v -64 -192 0
v -80 -192 0
v -80 -176 0
v -64 -176 0
v -80 -192 0
v -96 -192 0
v -96 -176 0
v -80 -176 0
v -96 -192 0
v -112 -192 0
v -112 -176 0
v -96 -176 0
v -112 -192 0
v -128 -192 0
v -128 -176 0
v -112 -176 0
v -128 -192 0
v -144 -192 0
v -144 -176 0
v -128 -176 0
v -144 -192 0
v -160 -192 0
v -160 -176 0
v -144 -176 0
v -160 -192 0
v -176 -192 0
v -176 -176 0
v -160 -176 0
v -176 -192 0
v -192 -192 0
v -192 -176 0
v -176 -176 0
v 0 -208 0
v -16 -208 0
v -16 -192 0
v 0 -192 0
v -16 -208 0
v -32 -208 0
v -32 -192 0
v -16 -192 0
v -32 -208 0
v -48 -208 0
v -48 -192 0
v -32 -192 0
v -48 -208 0
v -64 -208 0
v -64 -192 0
v -48 -192 0
v -64 -208 0
v -80 -208 0
v -80 -192 0
v -64 -192 0
v -80 -208 0
v -96 -208 0
v -96 -192 0
v -80 -192 0
v -96 -208 0
v -112 -208 0
v -112 -192 0
v -96 -192 0
v -112 -208 0
v -128 -208 0
v -128 -192 0
v -112 -192 0
v -128 -208 0
v -144 -208 0
v -144 -192 0
v -128 -192 0
v -144 -208 0
v -160 -208 0
v -160 -192 0
v -144 -192 0
v -160 -208 0
v -176 -208 0
v -176 -192 0
v -160 -192 0
v -176 -208 0
v -192 -208 0
v -192 -192 0
v -176 -192 0
v 0 -224 0
v -16 -224 0
v -16 -208 0
v 0 -208 0
v -16 -224 0
v -32 -224 0
v -32 -208 0
v -16 -208 0
v -32 -224 0
v -48 -224 0
v -48 -208 0
v -32 -208 0
v 0 -240 0
v -16 -240 0
v -16 -224 0
v 0 -224 0
v -16 -240 0
v -32 -240 0
v -32 -224 0
v -16 -224 0

# Texture cooridinates (Count = 51)
vt 0.1538462 0.44
vt 0.2307692 0.44
vt 0.2307692 0.48
vt 0.1538462 0.48
vt 0.3076923 0.44
vt 0.3076923 0.48
vt 0.3846154 0.44
vt 0.3846154 0.48
vt 0.4615385 0.44
vt 0.4615385 0.48
vt 0.5384616 0.44
vt 0.5384616 0.48
vt 0.6153846 0.44
vt 0.6153846 0.48
vt 0.6923077 0.44
vt 0.6923077 0.48
vt 0.7692308 0.44
vt 0.7692308 0.48
vt 0.1538462 0.4
vt 0.2307692 0.4
vt 0.3076923 0.4
vt 0.3846154 0.4
vt 0.4615385 0.4
vt 0.5384616 0.4
vt 0.6153846 0.4
vt 0.6923077 0.4
vt 0.7692308 0.4
vt 0 0.44
vt 0.07692308 0.44
vt 0.07692308 0.48
vt 0 0.48
vt 0.1538462 0.36
vt 0.2307692 0.36
vt 0.3076923 0.36
vt 0.3846154 0.36
vt 0.4615385 0.36
vt 0.5384616 0.36
vt 0.6153846 0.36
vt 0 0.4
vt 0.07692308 0.4
vt 0.3076923 0.24
vt 0.3846154 0.24
vt 0.3846154 0.28
vt 0.3076923 0.28
vt 0.3846154 0.32
vt 0.3076923 0.32
vt 0.4615385 0.24
vt 0.4615385 0.28
vt 0 0.36
vt 0.07692308 0.36
vt 0.4615385 0.32

# Normal
vn 0 0 -1

# Mesh description
g bossmap_mesh_0042

# Faces
f 1/1/1 2/2/1 3/3/1 4/4/1
f 5/2/1 6/5/1 7/6/1 8/3/1
f 9/5/1 10/7/1 11/8/1 12/6/1
f 13/7/1 14/9/1 15/10/1 16/8/1
f 17/9/1 18/11/1 19/12/1 20/10/1
f 21/11/1 22/13/1 23/14/1 24/12/1
f 25/13/1 26/15/1 27/16/1 28/14/1
f 29/15/1 30/17/1 31/18/1 32/16/1
f 33/19/1 34/20/1 35/2/1 36/1/1
f 37/20/1 38/21/1 39/5/1 40/2/1
f 41/21/1 42/22/1 43/7/1 44/5/1
f 45/22/1 46/23/1 47/9/1 48/7/1
f 49/23/1 50/24/1 51/11/1 52/9/1
f 53/24/1 54/25/1 55/13/1 56/11/1
f 57/25/1 58/26/1 59/15/1 60/13/1
f 61/26/1 62/27/1 63/17/1 64/15/1
f 65/28/1 66/29/1 67/30/1 68/31/1
f 69/29/1 70/1/1 71/4/1 72/30/1
f 73/1/1 74/2/1 75/3/1 76/4/1
f 77/2/1 78/5/1 79/6/1 80/3/1
f 81/32/1 82/33/1 83/20/1 84/19/1
f 85/33/1 86/34/1 87/21/1 88/20/1
f 89/34/1 90/35/1 91/22/1 92/21/1
f 93/35/1 94/36/1 95/23/1 96/22/1
f 97/36/1 98/37/1 99/24/1 100/23/1
f 101/37/1 102/38/1 103/25/1 104/24/1
f 105/39/1 106/40/1 107/29/1 108/28/1
f 109/40/1 110/19/1 111/1/1 112/29/1
f 113/19/1 114/20/1 115/2/1 116/1/1
f 117/20/1 118/21/1 119/5/1 120/2/1
f 121/41/1 122/42/1 123/43/1 124/44/1
f 125/44/1 126/43/1 127/45/1 128/46/1
f 129/44/1 130/43/1 131/45/1 132/46/1
f 133/44/1 134/43/1 135/45/1 136/46/1
f 137/41/1 138/42/1 139/43/1 140/44/1
f 141/42/1 142/47/1 143/48/1 144/43/1
f 145/49/1 146/50/1 147/40/1 148/39/1
f 149/50/1 150/32/1 151/19/1 152/40/1
f 153/32/1 154/33/1 155/20/1 156/19/1
f 157/33/1 158/34/1 159/21/1 160/20/1
f 161/42/1 162/47/1 163/48/1 164/43/1
f 165/44/1 166/43/1 167/45/1 168/46/1
f 169/43/1 170/48/1 171/51/1 172/45/1
f 173/41/1 174/42/1 175/43/1 176/44/1
f 177/41/1 178/42/1 179/43/1 180/44/1
f 181/42/1 182/47/1 183/48/1 184/43/1
f 185/29/1 186/1/1 187/4/1 188/30/1
f 189/1/1 190/2/1 191/3/1 192/4/1
f 193/2/1 194/5/1 195/6/1 196/3/1
f 197/41/1 198/42/1 199/43/1 200/44/1
f 201/41/1 202/42/1 203/43/1 204/44/1
f 205/44/1 206/43/1 207/45/1 208/46/1
f 209/43/1 210/48/1 211/51/1 212/45/1
f 213/44/1 214/43/1 215/45/1 216/46/1
f 217/44/1 218/43/1 219/45/1 220/46/1
f 221/41/1 222/42/1 223/43/1 224/44/1
f 225/41/1 226/42/1 227/43/1 228/44/1
f 229/42/1 230/47/1 231/48/1 232/43/1
f 233/40/1 234/19/1 235/1/1 236/29/1
f 237/19/1 238/20/1 239/2/1 240/1/1
f 241/20/1 242/21/1 243/5/1 244/2/1
f 245/44/1 246/43/1 247/45/1 248/46/1
f 249/44/1 250/43/1 251/45/1 252/46/1
f 253/43/1 254/48/1 255/51/1 256/45/1
f 257/43/1 258/48/1 259/51/1 260/45/1
f 261/44/1 262/43/1 263/45/1 264/46/1
f 265/44/1 266/43/1 267/45/1 268/46/1
f 269/41/1 270/42/1 271/43/1 272/44/1
f 273/42/1 274/47/1 275/48/1 276/43/1
f 277/42/1 278/47/1 279/48/1 280/43/1
f 281/50/1 282/32/1 283/19/1 284/40/1
f 285/32/1 286/33/1 287/20/1 288/19/1
f 289/33/1 290/34/1 291/21/1 292/20/1
f 293/44/1 294/43/1 295/45/1 296/46/1
f 297/43/1 298/48/1 299/51/1 300/45/1
f 301/43/1 302/48/1 303/51/1 304/45/1
f 305/44/1 306/43/1 307/45/1 308/46/1
f 309/41/1 310/42/1 311/43/1 312/44/1
f 313/41/1 314/42/1 315/43/1 316/44/1
f 317/44/1 318/43/1 319/45/1 320/46/1
f 321/41/1 322/42/1 323/43/1 324/44/1
f 325/42/1 326/47/1 327/48/1 328/43/1
f 329/44/1 330/43/1 331/45/1 332/46/1
f 333/41/1 334/42/1 335/43/1 336/44/1
f 337/44/1 338/43/1 339/45/1 340/46/1
f 341/43/1 342/48/1 343/51/1 344/45/1
f 345/44/1 346/43/1 347/45/1 348/46/1
f 349/44/1 350/43/1 351/45/1 352/46/1
f 353/41/1 354/42/1 355/43/1 356/44/1
f 357/41/1 358/42/1 359/43/1 360/44/1
f 361/41/1 362/42/1 363/43/1 364/44/1
f 365/44/1 366/43/1 367/45/1 368/46/1
f 369/41/1 370/42/1 371/43/1 372/44/1
f 373/42/1 374/47/1 375/48/1 376/43/1
f 377/41/1 378/42/1 379/43/1 380/44/1
f 381/41/1 382/42/1 383/43/1 384/44/1
f 385/44/1 386/43/1 387/45/1 388/46/1
f 389/44/1 390/43/1 391/45/1 392/46/1
f 393/41/1 394/42/1 395/43/1 396/44/1
f 397/41/1 398/42/1 399/43/1 400/44/1
f 401/41/1 402/42/1 403/43/1 404/44/1
f 405/42/1 406/47/1 407/48/1 408/43/1
f 409/41/1 410/42/1 411/43/1 412/44/1
f 413/44/1 414/43/1 415/45/1 416/46/1
f 417/41/1 418/42/1 419/43/1 420/44/1
f 421/42/1 422/47/1 423/48/1 424/43/1
f 425/41/1 426/42/1 427/43/1 428/44/1
f 429/42/1 430/47/1 431/48/1 432/43/1
f 433/41/1 434/42/1 435/43/1 436/44/1
f 437/41/1 438/42/1 439/43/1 440/44/1
f 441/41/1 442/42/1 443/43/1 444/44/1
f 445/42/1 446/47/1 447/48/1 448/43/1
f 449/43/1 450/48/1 451/51/1 452/45/1
f 453/43/1 454/48/1 455/51/1 456/45/1
f 457/43/1 458/48/1 459/51/1 460/45/1
f 461/44/1 462/43/1 463/45/1 464/46/1
f 465/41/1 466/42/1 467/43/1 468/44/1
f 469/42/1 470/47/1 471/48/1 472/43/1
f 473/41/1 474/42/1 475/43/1 476/44/1
f 477/42/1 478/47/1 479/48/1 480/43/1
f 481/43/1 482/48/1 483/51/1 484/45/1
f 485/42/1 486/47/1 487/48/1 488/43/1
f 489/42/1 490/47/1 491/48/1 492/43/1
f 493/42/1 494/47/1 495/48/1 496/43/1
f 497/42/1 498/47/1 499/48/1 500/43/1
f 501/42/1 502/47/1 503/48/1 504/43/1
f 505/42/1 506/47/1 507/48/1 508/43/1
f 509/41/1 510/42/1 511/43/1 512/44/1
f 513/41/1 514/42/1 515/43/1 516/44/1
f 517/42/1 518/47/1 519/48/1 520/43/1
f 521/41/1 522/42/1 523/43/1 524/44/1
f 525/42/1 526/47/1 527/48/1 528/43/1
f 529/42/1 530/47/1 531/48/1 532/43/1
f 533/42/1 534/47/1 535/48/1 536/43/1
f 537/42/1 538/47/1 539/48/1 540/43/1

