# Tiled2Unity generated file. Do not modify by hand.
# Wavefront file for 'bossmap_mesh_0062.obj'

# Vertices (Count = 60)
v -48 -16 0
v -64 -16 0
v -64 0 0
v -48 0 0
v -160 -16 0
v -176 -16 0
v -176 0 0
v -160 0 0
v -176 -16 0
v -192 -16 0
v -192 0 0
v -176 0 0
v -32 -32 0
v -48 -32 0
v -48 -16 0
v -32 -16 0
v -48 -32 0
v -64 -32 0
v -64 -16 0
v -48 -16 0
v -64 -32 0
v -80 -32 0
v -80 -16 0
v -64 -16 0
v -160 -32 0
v -176 -32 0
v -176 -16 0
v -160 -16 0
v -176 -32 0
v -192 -32 0
v -192 -16 0
v -176 -16 0
v -32 -48 0
v -48 -48 0
v -48 -32 0
v -32 -32 0
v -48 -48 0
v -64 -48 0
v -64 -32 0
v -48 -32 0
v -64 -48 0
v -80 -48 0
v -80 -32 0
v -64 -32 0
v -160 -48 0
v -176 -48 0
v -176 -32 0
v -160 -32 0
v -176 -48 0
v -192 -48 0
v -192 -32 0
v -176 -32 0
v -240 -48 0
v -256 -48 0
v -256 -32 0
v -240 -32 0
v -240 -64 0
v -256 -64 0
v -256 -48 0
v -240 -48 0

# Texture cooridinates (Count = 27)
vt 0.8461539 0.8
vt 0.9230769 0.8
vt 0.9230769 0.84
vt 0.8461539 0.84
vt 0.7692308 0.52
vt 0.8461539 0.52
vt 0.8461539 0.56
vt 0.7692308 0.56
vt 0.9230769 0.52
vt 0.9230769 0.56
vt 0.7692308 0.8
vt 0.7692308 0.84
vt 1 0.8
vt 1 0.84
vt 0.7692308 0.48
vt 0.8461539 0.48
vt 0.9230769 0.48
vt 0.7692308 0.76
vt 0.8461539 0.76
vt 0.9230769 0.76
vt 1 0.76
vt 0.7692308 0.44
vt 0.8461539 0.44
vt 0.9230769 0.44
vt 0.6923077 0.52
vt 0.6923077 0.56
vt 0.6923077 0.48

# Normal
vn 0 0 -1

# Mesh description
g bossmap_mesh_0062

# Faces
f 1/1/1 2/2/1 3/3/1 4/4/1
f 5/5/1 6/6/1 7/7/1 8/8/1
f 9/6/1 10/9/1 11/10/1 12/7/1
f 13/11/1 14/1/1 15/4/1 16/12/1
f 17/1/1 18/2/1 19/3/1 20/4/1
f 21/2/1 22/13/1 23/14/1 24/3/1
f 25/15/1 26/16/1 27/6/1 28/5/1
f 29/16/1 30/17/1 31/9/1 32/6/1
f 33/18/1 34/19/1 35/1/1 36/11/1
f 37/19/1 38/20/1 39/2/1 40/1/1
f 41/20/1 42/21/1 43/13/1 44/2/1
f 45/22/1 46/23/1 47/16/1 48/15/1
f 49/23/1 50/24/1 51/17/1 52/16/1
f 53/25/1 54/5/1 55/8/1 56/26/1
f 57/27/1 58/15/1 59/5/1 60/25/1

