# Tiled2Unity generated file. Do not modify by hand.
# Wavefront file for 'bossmap_mesh_0044.obj'

# Vertices (Count = 44)
v -144 -192 0
v -160 -192 0
v -160 -176 0
v -144 -176 0
v -160 -192 0
v -176 -192 0
v -176 -176 0
v -160 -176 0
v -176 -192 0
v -192 -192 0
v -192 -176 0
v -176 -176 0
v -208 -192 0
v -224 -192 0
v -224 -176 0
v -208 -176 0
v -160 -208 0
v -176 -208 0
v -176 -192 0
v -160 -192 0
v -176 -208 0
v -192 -208 0
v -192 -192 0
v -176 -192 0
v 0 -224 0
v -16 -224 0
v -16 -208 0
v 0 -208 0
v -16 -224 0
v -32 -224 0
v -32 -208 0
v -16 -208 0
v -32 -224 0
v -48 -224 0
v -48 -208 0
v -32 -208 0
v 0 -240 0
v -16 -240 0
v -16 -224 0
v 0 -224 0
v -16 -240 0
v -32 -240 0
v -32 -224 0
v -16 -224 0

# Texture cooridinates (Count = 16)
vt 0.3846154 0.88
vt 0.4615385 0.88
vt 0.4615385 0.92
vt 0.3846154 0.92
vt 0.5384616 0.88
vt 0.5384616 0.92
vt 0.6153846 0.88
vt 0.6153846 0.92
vt 0.6923077 0.88
vt 0.7692308 0.88
vt 0.7692308 0.92
vt 0.6923077 0.92
vt 0.4615385 0.84
vt 0.5384616 0.84
vt 0.6153846 0.84
vt 0.6923077 0.84

# Normal
vn 0 0 -1

# Mesh description
g bossmap_mesh_0044

# Faces
f 1/1/1 2/2/1 3/3/1 4/4/1
f 5/2/1 6/5/1 7/6/1 8/3/1
f 9/5/1 10/7/1 11/8/1 12/6/1
f 13/9/1 14/10/1 15/11/1 16/12/1
f 17/13/1 18/14/1 19/5/1 20/2/1
f 21/14/1 22/15/1 23/7/1 24/5/1
f 25/5/1 26/7/1 27/8/1 28/6/1
f 29/7/1 30/9/1 31/12/1 32/8/1
f 33/9/1 34/10/1 35/11/1 36/12/1
f 37/14/1 38/15/1 39/7/1 40/5/1
f 41/15/1 42/16/1 43/9/1 44/7/1

