# Tiled2Unity generated file. Do not modify by hand.
# Wavefront file for 'bossmap_mesh_0053.obj'

# Vertices (Count = 20)
v 0 -224 0
v -16 -224 0
v -16 -208 0
v 0 -208 0
v -16 -224 0
v -32 -224 0
v -32 -208 0
v -16 -208 0
v -32 -224 0
v -48 -224 0
v -48 -208 0
v -32 -208 0
v -16 -240 0
v -32 -240 0
v -32 -224 0
v -16 -224 0
v -16 -256 0
v -32 -256 0
v -32 -240 0
v -16 -240 0

# Texture cooridinates (Count = 10)
vt 0.7692308 0.84
vt 0.8461539 0.84
vt 0.8461539 0.88
vt 0.7692308 0.88
vt 0.9230769 0.84
vt 0.9230769 0.88
vt 1 0.84
vt 1 0.88
vt 0.8461539 0.8
vt 0.9230769 0.8

# Normal
vn 0 0 -1

# Mesh description
g bossmap_mesh_0053

# Faces
f 1/1/1 2/2/1 3/3/1 4/4/1
f 5/2/1 6/5/1 7/6/1 8/3/1
f 9/5/1 10/7/1 11/8/1 12/6/1
f 13/9/1 14/10/1 15/5/1 16/2/1
f 17/9/1 18/10/1 19/5/1 20/2/1

