# Tiled2Unity generated file. Do not modify by hand.
# Wavefront file for 'bossmap_mesh_0039.obj'

# Vertices (Count = 128)
v -208 -128 0
v -224 -128 0
v -224 -112 0
v -208 -112 0
v -224 -128 0
v -240 -128 0
v -240 -112 0
v -224 -112 0
v -240 -128 0
v -256 -128 0
v -256 -112 0
v -240 -112 0
v -208 -144 0
v -224 -144 0
v -224 -128 0
v -208 -128 0
v -224 -144 0
v -240 -144 0
v -240 -128 0
v -224 -128 0
v -240 -144 0
v -256 -144 0
v -256 -128 0
v -240 -128 0
v -208 -160 0
v -224 -160 0
v -224 -144 0
v -208 -144 0
v -224 -160 0
v -240 -160 0
v -240 -144 0
v -224 -144 0
v -240 -160 0
v -256 -160 0
v -256 -144 0
v -240 -144 0
v -208 -176 0
v -224 -176 0
v -224 -160 0
v -208 -160 0
v -224 -176 0
v -240 -176 0
v -240 -160 0
v -224 -160 0
v -240 -176 0
v -256 -176 0
v -256 -160 0
v -240 -160 0
v -192 -192 0
v -208 -192 0
v -208 -176 0
v -192 -176 0
v -208 -192 0
v -224 -192 0
v -224 -176 0
v -208 -176 0
v -224 -192 0
v -240 -192 0
v -240 -176 0
v -224 -176 0
v -240 -192 0
v -256 -192 0
v -256 -176 0
v -240 -176 0
v -192 -208 0
v -208 -208 0
v -208 -192 0
v -192 -192 0
v -208 -208 0
v -224 -208 0
v -224 -192 0
v -208 -192 0
v -224 -208 0
v -240 -208 0
v -240 -192 0
v -224 -192 0
v -240 -208 0
v -256 -208 0
v -256 -192 0
v -240 -192 0
v -192 -224 0
v -208 -224 0
v -208 -208 0
v -192 -208 0
v -208 -224 0
v -224 -224 0
v -224 -208 0
v -208 -208 0
v -224 -224 0
v -240 -224 0
v -240 -208 0
v -224 -208 0
v -240 -224 0
v -256 -224 0
v -256 -208 0
v -240 -208 0
v -192 -240 0
v -208 -240 0
v -208 -224 0
v -192 -224 0
v -208 -240 0
v -224 -240 0
v -224 -224 0
v -208 -224 0
v -224 -240 0
v -240 -240 0
v -240 -224 0
v -224 -224 0
v -240 -240 0
v -256 -240 0
v -256 -224 0
v -240 -224 0
v -192 -256 0
v -208 -256 0
v -208 -240 0
v -192 -240 0
v -208 -256 0
v -224 -256 0
v -224 -240 0
v -208 -240 0
v -224 -256 0
v -240 -256 0
v -240 -240 0
v -224 -240 0
v -240 -256 0
v -256 -256 0
v -256 -240 0
v -240 -240 0

# Texture cooridinates (Count = 32)
vt 0 0.44
vt 0.07692308 0.44
vt 0.07692308 0.48
vt 0 0.48
vt 0.1538462 0.44
vt 0.1538462 0.48
vt 0.2307692 0.44
vt 0.2307692 0.48
vt 0 0.4
vt 0.07692308 0.4
vt 0.1538462 0.4
vt 0.2307692 0.4
vt 0 0.36
vt 0.07692308 0.36
vt 0.1538462 0.36
vt 0.2307692 0.36
vt 0 0.32
vt 0.07692308 0.32
vt 0.1538462 0.32
vt 0.2307692 0.32
vt 0 0.28
vt 0.07692308 0.28
vt 0.1538462 0.28
vt 0.2307692 0.28
vt 0 0.24
vt 0.07692308 0.24
vt 0.1538462 0.24
vt 0.2307692 0.24
vt 0.3076923 0.36
vt 0.3076923 0.4
vt 0.3076923 0.32
vt 0.3076923 0.28

# Normal
vn 0 0 -1

# Mesh description
g bossmap_mesh_0039

# Faces
f 1/1/1 2/2/1 3/3/1 4/4/1
f 5/2/1 6/5/1 7/6/1 8/3/1
f 9/5/1 10/7/1 11/8/1 12/6/1
f 13/9/1 14/10/1 15/2/1 16/1/1
f 17/10/1 18/11/1 19/5/1 20/2/1
f 21/11/1 22/12/1 23/7/1 24/5/1
f 25/13/1 26/14/1 27/10/1 28/9/1
f 29/14/1 30/15/1 31/11/1 32/10/1
f 33/15/1 34/16/1 35/12/1 36/11/1
f 37/17/1 38/18/1 39/14/1 40/13/1
f 41/18/1 42/19/1 43/15/1 44/14/1
f 45/19/1 46/20/1 47/16/1 48/15/1
f 49/1/1 50/2/1 51/3/1 52/4/1
f 53/21/1 54/22/1 55/18/1 56/17/1
f 57/22/1 58/23/1 59/19/1 60/18/1
f 61/23/1 62/24/1 63/20/1 64/19/1
f 65/9/1 66/10/1 67/2/1 68/1/1
f 69/25/1 70/26/1 71/22/1 72/21/1
f 73/26/1 74/27/1 75/23/1 76/22/1
f 77/27/1 78/28/1 79/24/1 80/23/1
f 81/13/1 82/14/1 83/10/1 84/9/1
f 85/14/1 86/15/1 87/11/1 88/10/1
f 89/15/1 90/16/1 91/12/1 92/11/1
f 93/16/1 94/29/1 95/30/1 96/12/1
f 97/17/1 98/18/1 99/14/1 100/13/1
f 101/18/1 102/19/1 103/15/1 104/14/1
f 105/19/1 106/20/1 107/16/1 108/15/1
f 109/20/1 110/31/1 111/29/1 112/16/1
f 113/21/1 114/22/1 115/18/1 116/17/1
f 117/22/1 118/23/1 119/19/1 120/18/1
f 121/23/1 122/24/1 123/20/1 124/19/1
f 125/24/1 126/32/1 127/31/1 128/20/1

