# Tiled2Unity generated file. Do not modify by hand.
# Wavefront file for 'bossmap_mesh_0058.obj'

# Vertices (Count = 56)
v 0 -224 0
v -16 -224 0
v -16 -208 0
v 0 -208 0
v -48 -224 0
v -64 -224 0
v -64 -208 0
v -48 -208 0
v -64 -224 0
v -80 -224 0
v -80 -208 0
v -64 -208 0
v -80 -224 0
v -96 -224 0
v -96 -208 0
v -80 -208 0
v -96 -224 0
v -112 -224 0
v -112 -208 0
v -96 -208 0
v -48 -240 0
v -64 -240 0
v -64 -224 0
v -48 -224 0
v -64 -240 0
v -80 -240 0
v -80 -224 0
v -64 -224 0
v -80 -240 0
v -96 -240 0
v -96 -224 0
v -80 -224 0
v -96 -240 0
v -112 -240 0
v -112 -224 0
v -96 -224 0
v 0 -256 0
v -16 -256 0
v -16 -240 0
v 0 -240 0
v -16 -256 0
v -32 -256 0
v -32 -240 0
v -16 -240 0
v -48 -256 0
v -64 -256 0
v -64 -240 0
v -48 -240 0
v -64 -256 0
v -80 -256 0
v -80 -240 0
v -64 -240 0
v -80 -256 0
v -96 -256 0
v -96 -240 0
v -80 -240 0

# Texture cooridinates (Count = 28)
vt 0.9230769 0.84
vt 1 0.84
vt 1 0.88
vt 0.9230769 0.88
vt 0.6923077 0.92
vt 0.6923077 0.88
vt 0.7692308 0.88
vt 0.7692308 0.92
vt 0.6923077 0.84
vt 0.7692308 0.84
vt 0.5384616 0.88
vt 0.4615385 0.88
vt 0.4615385 0.92
vt 0.5384616 0.92
vt 0.3846154 0.88
vt 0.3846154 0.92
vt 0.6153846 0.92
vt 0.6153846 0.88
vt 0.6153846 0.84
vt 0.5384616 0.84
vt 0.4615385 0.84
vt 0.3846154 0.84
vt 0 0.64
vt 0.07692308 0.64
vt 0.07692308 0.68
vt 0 0.68
vt 0.1538462 0.64
vt 0.1538462 0.68

# Normal
vn 0 0 -1

# Mesh description
g bossmap_mesh_0058

# Faces
f 1/1/1 2/2/1 3/3/1 4/4/1
f 5/5/1 6/6/1 7/7/1 8/8/1
f 9/6/1 10/9/1 11/10/1 12/7/1
f 13/11/1 14/12/1 15/13/1 16/14/1
f 17/12/1 18/15/1 19/16/1 20/13/1
f 21/17/1 22/18/1 23/6/1 24/5/1
f 25/18/1 26/19/1 27/9/1 28/6/1
f 29/20/1 30/21/1 31/12/1 32/11/1
f 33/21/1 34/22/1 35/15/1 36/12/1
f 37/23/1 38/24/1 39/25/1 40/26/1
f 41/24/1 42/27/1 43/28/1 44/25/1
f 45/20/1 46/19/1 47/18/1 48/11/1
f 49/20/1 50/19/1 51/18/1 52/11/1
f 53/20/1 54/19/1 55/18/1 56/11/1

