# Tiled2Unity generated file. Do not modify by hand.
# Wavefront file for 'bossmap_mesh_0068.obj'

# Vertices (Count = 80)
v -176 -16 0
v -192 -16 0
v -192 0 0
v -176 0 0
v -192 -16 0
v -208 -16 0
v -208 0 0
v -192 0 0
v -208 -16 0
v -224 -16 0
v -224 0 0
v -208 0 0
v -224 -16 0
v -240 -16 0
v -240 0 0
v -224 0 0
v -240 -16 0
v -256 -16 0
v -256 0 0
v -240 0 0
v -160 -32 0
v -176 -32 0
v -176 -16 0
v -160 -16 0
v -176 -32 0
v -192 -32 0
v -192 -16 0
v -176 -16 0
v -192 -32 0
v -208 -32 0
v -208 -16 0
v -192 -16 0
v -128 -48 0
v -144 -48 0
v -144 -32 0
v -128 -32 0
v -144 -48 0
v -160 -48 0
v -160 -32 0
v -144 -32 0
v -160 -48 0
v -176 -48 0
v -176 -32 0
v -160 -32 0
v 0 -64 0
v -16 -64 0
v -16 -48 0
v 0 -48 0
v -16 -64 0
v -32 -64 0
v -32 -48 0
v -16 -48 0
v -32 -64 0
v -48 -64 0
v -48 -48 0
v -32 -48 0
v -48 -64 0
v -64 -64 0
v -64 -48 0
v -48 -48 0
v -64 -64 0
v -80 -64 0
v -80 -48 0
v -64 -48 0
v -80 -64 0
v -96 -64 0
v -96 -48 0
v -80 -48 0
v -96 -64 0
v -112 -64 0
v -112 -48 0
v -96 -48 0
v -112 -64 0
v -128 -64 0
v -128 -48 0
v -112 -48 0
v -128 -64 0
v -144 -64 0
v -144 -48 0
v -128 -48 0

# Texture cooridinates (Count = 10)
vt 0 0.96
vt 0.07692308 0.96
vt 0.07692308 1
vt 0 1
vt 0.1538462 0.96
vt 0.1538462 1
vt 0.2307692 0.96
vt 0.2307692 1
vt 0.07692308 0.92
vt 0.1538462 0.92

# Normal
vn 0 0 -1

# Mesh description
g bossmap_mesh_0068

# Faces
f 1/1/1 2/2/1 3/3/1 4/4/1
f 5/2/1 6/5/1 7/6/1 8/3/1
f 9/5/1 10/7/1 11/8/1 12/6/1
f 13/5/1 14/7/1 15/8/1 16/6/1
f 17/5/1 18/7/1 19/8/1 20/6/1
f 21/2/1 22/5/1 23/6/1 24/3/1
f 25/5/1 26/7/1 27/8/1 28/6/1
f 29/9/1 30/10/1 31/5/1 32/2/1
f 33/2/1 34/5/1 35/6/1 36/3/1
f 37/5/1 38/7/1 39/8/1 40/6/1
f 41/9/1 42/10/1 43/5/1 44/2/1
f 45/5/1 46/7/1 47/8/1 48/6/1
f 49/5/1 50/7/1 51/8/1 52/6/1
f 53/5/1 54/7/1 55/8/1 56/6/1
f 57/5/1 58/7/1 59/8/1 60/6/1
f 61/5/1 62/7/1 63/8/1 64/6/1
f 65/5/1 66/7/1 67/8/1 68/6/1
f 69/5/1 70/7/1 71/8/1 72/6/1
f 73/5/1 74/7/1 75/8/1 76/6/1
f 77/9/1 78/10/1 79/5/1 80/2/1

