# Tiled2Unity generated file. Do not modify by hand.
# Wavefront file for 'bossmap_mesh_0065.obj'

# Vertices (Count = 64)
v 0 -16 0
v -16 -16 0
v -16 0 0
v 0 0 0
v -16 -16 0
v -32 -16 0
v -32 0 0
v -16 0 0
v 0 -32 0
v -16 -32 0
v -16 -16 0
v 0 -16 0
v -16 -32 0
v -32 -32 0
v -32 -16 0
v -16 -16 0
v -112 -32 0
v -128 -32 0
v -128 -16 0
v -112 -16 0
v -128 -32 0
v -144 -32 0
v -144 -16 0
v -128 -16 0
v -144 -32 0
v -160 -32 0
v -160 -16 0
v -144 -16 0
v -160 -32 0
v -176 -32 0
v -176 -16 0
v -160 -16 0
v 0 -48 0
v -16 -48 0
v -16 -32 0
v 0 -32 0
v -16 -48 0
v -32 -48 0
v -32 -32 0
v -16 -32 0
v -112 -48 0
v -128 -48 0
v -128 -32 0
v -112 -32 0
v -128 -48 0
v -144 -48 0
v -144 -32 0
v -128 -32 0
v -144 -48 0
v -160 -48 0
v -160 -32 0
v -144 -32 0
v -160 -48 0
v -176 -48 0
v -176 -32 0
v -160 -32 0
v -192 -48 0
v -208 -48 0
v -208 -32 0
v -192 -32 0
v -192 -64 0
v -208 -64 0
v -208 -48 0
v -192 -48 0

# Texture cooridinates (Count = 21)
vt 0 0.6
vt 0.07692308 0.6
vt 0.07692308 0.64
vt 0 0.64
vt 0.1538462 0.6
vt 0.1538462 0.64
vt 0.5384616 0.52
vt 0.6153846 0.52
vt 0.6153846 0.56
vt 0.5384616 0.56
vt 0.6923077 0.52
vt 0.6923077 0.56
vt 0 0.56
vt 0.07692308 0.56
vt 0.1538462 0.56
vt 0.5384616 0.48
vt 0.6153846 0.48
vt 0.6923077 0.48
vt 0.7692308 0.52
vt 0.7692308 0.56
vt 0.7692308 0.48

# Normal
vn 0 0 -1

# Mesh description
g bossmap_mesh_0065

# Faces
f 1/1/1 2/2/1 3/3/1 4/4/1
f 5/2/1 6/5/1 7/6/1 8/3/1
f 9/1/1 10/2/1 11/3/1 12/4/1
f 13/2/1 14/5/1 15/6/1 16/3/1
f 17/7/1 18/8/1 19/9/1 20/10/1
f 21/8/1 22/11/1 23/12/1 24/9/1
f 25/7/1 26/8/1 27/9/1 28/10/1
f 29/8/1 30/11/1 31/12/1 32/9/1
f 33/13/1 34/14/1 35/2/1 36/1/1
f 37/14/1 38/15/1 39/5/1 40/2/1
f 41/16/1 42/17/1 43/8/1 44/7/1
f 45/17/1 46/18/1 47/11/1 48/8/1
f 49/16/1 50/17/1 51/8/1 52/7/1
f 53/17/1 54/18/1 55/11/1 56/8/1
f 57/11/1 58/19/1 59/20/1 60/12/1
f 61/18/1 62/21/1 63/19/1 64/11/1

