# Tiled2Unity generated file. Do not modify by hand.
# Wavefront file for 'bossmap_mesh_0046.obj'

# Vertices (Count = 132)
v -192 -16 0
v -208 -16 0
v -208 0 0
v -192 0 0
v -208 -16 0
v -224 -16 0
v -224 0 0
v -208 0 0
v -224 -16 0
v -240 -16 0
v -240 0 0
v -224 0 0
v -240 -16 0
v -256 -16 0
v -256 0 0
v -240 0 0
v 0 -32 0
v -16 -32 0
v -16 -16 0
v 0 -16 0
v -16 -32 0
v -32 -32 0
v -32 -16 0
v -16 -16 0
v -32 -32 0
v -48 -32 0
v -48 -16 0
v -32 -16 0
v -48 -32 0
v -64 -32 0
v -64 -16 0
v -48 -16 0
v -64 -32 0
v -80 -32 0
v -80 -16 0
v -64 -16 0
v -80 -32 0
v -96 -32 0
v -96 -16 0
v -80 -16 0
v -96 -32 0
v -112 -32 0
v -112 -16 0
v -96 -16 0
v -112 -32 0
v -128 -32 0
v -128 -16 0
v -112 -16 0
v -128 -32 0
v -144 -32 0
v -144 -16 0
v -128 -16 0
v -192 -32 0
v -208 -32 0
v -208 -16 0
v -192 -16 0
v -208 -32 0
v -224 -32 0
v -224 -16 0
v -208 -16 0
v -224 -32 0
v -240 -32 0
v -240 -16 0
v -224 -16 0
v -240 -32 0
v -256 -32 0
v -256 -16 0
v -240 -16 0
v 0 -48 0
v -16 -48 0
v -16 -32 0
v 0 -32 0
v -16 -48 0
v -32 -48 0
v -32 -32 0
v -16 -32 0
v -32 -48 0
v -48 -48 0
v -48 -32 0
v -32 -32 0
v -48 -48 0
v -64 -48 0
v -64 -32 0
v -48 -32 0
v -64 -48 0
v -80 -48 0
v -80 -32 0
v -64 -32 0
v -80 -48 0
v -96 -48 0
v -96 -32 0
v -80 -32 0
v -96 -48 0
v -112 -48 0
v -112 -32 0
v -96 -32 0
v -112 -48 0
v -128 -48 0
v -128 -32 0
v -112 -32 0
v -128 -48 0
v -144 -48 0
v -144 -32 0
v -128 -32 0
v -192 -48 0
v -208 -48 0
v -208 -32 0
v -192 -32 0
v -208 -48 0
v -224 -48 0
v -224 -32 0
v -208 -32 0
v -224 -48 0
v -240 -48 0
v -240 -32 0
v -224 -32 0
v -240 -48 0
v -256 -48 0
v -256 -32 0
v -240 -32 0
v -208 -64 0
v -224 -64 0
v -224 -48 0
v -208 -48 0
v -224 -64 0
v -240 -64 0
v -240 -48 0
v -224 -48 0
v -240 -64 0
v -256 -64 0
v -256 -48 0
v -240 -48 0

# Texture cooridinates (Count = 32)
vt 0 0.24
vt 0.07692308 0.24
vt 0.07692308 0.28
vt 0 0.28
vt 0.1538462 0.24
vt 0.1538462 0.28
vt 0.2307692 0.24
vt 0.2307692 0.28
vt 0.3076923 0.24
vt 0.3076923 0.28
vt 0.07692308 0.76
vt 0.1538462 0.76
vt 0.1538462 0.8
vt 0.07692308 0.8
vt 0.2307692 0.76
vt 0.3076923 0.76
vt 0.3076923 0.8
vt 0.2307692 0.8
vt 0.3846154 0.76
vt 0.3846154 0.8
vt 0.07692308 0.32
vt 0 0.32
vt 0.1538462 0.32
vt 0.2307692 0.32
vt 0.3076923 0.32
vt 0.07692308 0.72
vt 0.1538462 0.72
vt 0.2307692 0.72
vt 0.3076923 0.72
vt 0.3846154 0.72
vt 0.2307692 0.2
vt 0.3076923 0.2

# Normal
vn 0 0 -1

# Mesh description
g bossmap_mesh_0046

# Faces
f 1/1/1 2/2/1 3/3/1 4/4/1
f 5/2/1 6/5/1 7/6/1 8/3/1
f 9/5/1 10/7/1 11/8/1 12/6/1
f 13/7/1 14/9/1 15/10/1 16/8/1
f 17/11/1 18/12/1 19/13/1 20/14/1
f 21/15/1 22/16/1 23/17/1 24/18/1
f 25/12/1 26/15/1 27/18/1 28/13/1
f 29/15/1 30/16/1 31/17/1 32/18/1
f 33/15/1 34/16/1 35/17/1 36/18/1
f 37/12/1 38/15/1 39/18/1 40/13/1
f 41/15/1 42/16/1 43/17/1 44/18/1
f 45/15/1 46/16/1 47/17/1 48/18/1
f 49/16/1 50/19/1 51/20/1 52/17/1
f 53/4/1 54/3/1 55/21/1 56/22/1
f 57/3/1 58/6/1 59/23/1 60/21/1
f 61/6/1 62/8/1 63/24/1 64/23/1
f 65/8/1 66/10/1 67/25/1 68/24/1
f 69/26/1 70/27/1 71/12/1 72/11/1
f 73/28/1 74/29/1 75/16/1 76/15/1
f 77/27/1 78/28/1 79/15/1 80/12/1
f 81/28/1 82/29/1 83/16/1 84/15/1
f 85/28/1 86/29/1 87/16/1 88/15/1
f 89/27/1 90/28/1 91/15/1 92/12/1
f 93/28/1 94/29/1 95/16/1 96/15/1
f 97/28/1 98/29/1 99/16/1 100/15/1
f 101/29/1 102/30/1 103/19/1 104/16/1
f 105/1/1 106/2/1 107/3/1 108/4/1
f 109/2/1 110/5/1 111/6/1 112/3/1
f 113/5/1 114/7/1 115/8/1 116/6/1
f 117/7/1 118/9/1 119/10/1 120/8/1
f 121/31/1 122/32/1 123/9/1 124/7/1
f 125/31/1 126/32/1 127/9/1 128/7/1
f 129/31/1 130/32/1 131/9/1 132/7/1

