# Tiled2Unity generated file. Do not modify by hand.
# Wavefront file for 'bossmap_mesh_0039.obj'

# Vertices (Count = 60)
v -192 -16 0
v -208 -16 0
v -208 0 0
v -192 0 0
v -208 -16 0
v -224 -16 0
v -224 0 0
v -208 0 0
v -224 -16 0
v -240 -16 0
v -240 0 0
v -224 0 0
v -240 -16 0
v -256 -16 0
v -256 0 0
v -240 0 0
v -192 -32 0
v -208 -32 0
v -208 -16 0
v -192 -16 0
v -208 -32 0
v -224 -32 0
v -224 -16 0
v -208 -16 0
v -224 -32 0
v -240 -32 0
v -240 -16 0
v -224 -16 0
v -240 -32 0
v -256 -32 0
v -256 -16 0
v -240 -16 0
v -192 -48 0
v -208 -48 0
v -208 -32 0
v -192 -32 0
v -208 -48 0
v -224 -48 0
v -224 -32 0
v -208 -32 0
v -224 -48 0
v -240 -48 0
v -240 -32 0
v -224 -32 0
v -240 -48 0
v -256 -48 0
v -256 -32 0
v -240 -32 0
v -208 -64 0
v -224 -64 0
v -224 -48 0
v -208 -48 0
v -224 -64 0
v -240 -64 0
v -240 -48 0
v -224 -48 0
v -240 -64 0
v -256 -64 0
v -256 -48 0
v -240 -48 0

# Texture cooridinates (Count = 17)
vt 0 0.24
vt 0.07692308 0.24
vt 0.07692308 0.28
vt 0 0.28
vt 0.1538462 0.24
vt 0.1538462 0.28
vt 0.2307692 0.24
vt 0.2307692 0.28
vt 0.3076923 0.24
vt 0.3076923 0.28
vt 0.07692308 0.32
vt 0 0.32
vt 0.1538462 0.32
vt 0.2307692 0.32
vt 0.3076923 0.32
vt 0.2307692 0.2
vt 0.3076923 0.2

# Normal
vn 0 0 -1

# Mesh description
g bossmap_mesh_0039

# Faces
f 1/1/1 2/2/1 3/3/1 4/4/1
f 5/2/1 6/5/1 7/6/1 8/3/1
f 9/5/1 10/7/1 11/8/1 12/6/1
f 13/7/1 14/9/1 15/10/1 16/8/1
f 17/4/1 18/3/1 19/11/1 20/12/1
f 21/3/1 22/6/1 23/13/1 24/11/1
f 25/6/1 26/8/1 27/14/1 28/13/1
f 29/8/1 30/10/1 31/15/1 32/14/1
f 33/1/1 34/2/1 35/3/1 36/4/1
f 37/2/1 38/5/1 39/6/1 40/3/1
f 41/5/1 42/7/1 43/8/1 44/6/1
f 45/7/1 46/9/1 47/10/1 48/8/1
f 49/16/1 50/17/1 51/9/1 52/7/1
f 53/16/1 54/17/1 55/9/1 56/7/1
f 57/16/1 58/17/1 59/9/1 60/7/1

