# Tiled2Unity generated file. Do not modify by hand.
# Wavefront file for 'bossmap_mesh_0003.obj'

# Vertices (Count = 12)
v -48 -256 0
v -64 -256 0
v -64 -240 0
v -48 -240 0
v -64 -256 0
v -80 -256 0
v -80 -240 0
v -64 -240 0
v -80 -256 0
v -96 -256 0
v -96 -240 0
v -80 -240 0

# Texture cooridinates (Count = 4)
vt 0.1538462 0.88
vt 0.2307692 0.88
vt 0.2307692 0.92
vt 0.1538462 0.92

# Normal
vn 0 0 -1

# Mesh description
g bossmap_mesh_0003

# Faces
f 1/1/1 2/2/1 3/3/1 4/4/1
f 5/1/1 6/2/1 7/3/1 8/4/1
f 9/1/1 10/2/1 11/3/1 12/4/1

