# Tiled2Unity generated file. Do not modify by hand.
# Wavefront file for 'bossmap_mesh_0063.obj'

# Vertices (Count = 56)
v 0 -32 0
v -16 -32 0
v -16 -16 0
v 0 -16 0
v -16 -32 0
v -32 -32 0
v -32 -16 0
v -16 -16 0
v -32 -32 0
v -48 -32 0
v -48 -16 0
v -32 -16 0
v -48 -32 0
v -64 -32 0
v -64 -16 0
v -48 -16 0
v -144 -32 0
v -160 -32 0
v -160 -16 0
v -144 -16 0
v -160 -32 0
v -176 -32 0
v -176 -16 0
v -160 -16 0
v 0 -48 0
v -16 -48 0
v -16 -32 0
v 0 -32 0
v -16 -48 0
v -32 -48 0
v -32 -32 0
v -16 -32 0
v -32 -48 0
v -48 -48 0
v -48 -32 0
v -32 -32 0
v -48 -48 0
v -64 -48 0
v -64 -32 0
v -48 -32 0
v -144 -48 0
v -160 -48 0
v -160 -32 0
v -144 -32 0
v -160 -48 0
v -176 -48 0
v -176 -32 0
v -160 -32 0
v -176 -48 0
v -192 -48 0
v -192 -32 0
v -176 -32 0
v -176 -64 0
v -192 -64 0
v -192 -48 0
v -176 -48 0

# Texture cooridinates (Count = 21)
vt 0.5384616 0.52
vt 0.6153846 0.52
vt 0.6153846 0.56
vt 0.5384616 0.56
vt 0.6923077 0.52
vt 0.6923077 0.56
vt 0.5384616 0.88
vt 0.4615385 0.88
vt 0.4615385 0.92
vt 0.5384616 0.92
vt 0.3846154 0.88
vt 0.3846154 0.92
vt 0.5384616 0.48
vt 0.6153846 0.48
vt 0.6923077 0.48
vt 0.5384616 0.84
vt 0.4615385 0.84
vt 0.3846154 0.84
vt 0.7692308 0.52
vt 0.7692308 0.56
vt 0.7692308 0.48

# Normal
vn 0 0 -1

# Mesh description
g bossmap_mesh_0063

# Faces
f 1/1/1 2/2/1 3/3/1 4/4/1
f 5/2/1 6/5/1 7/6/1 8/3/1
f 9/1/1 10/2/1 11/3/1 12/4/1
f 13/2/1 14/5/1 15/6/1 16/3/1
f 17/7/1 18/8/1 19/9/1 20/10/1
f 21/8/1 22/11/1 23/12/1 24/9/1
f 25/13/1 26/14/1 27/2/1 28/1/1
f 29/14/1 30/15/1 31/5/1 32/2/1
f 33/13/1 34/14/1 35/2/1 36/1/1
f 37/14/1 38/15/1 39/5/1 40/2/1
f 41/16/1 42/17/1 43/8/1 44/7/1
f 45/17/1 46/18/1 47/11/1 48/8/1
f 49/5/1 50/19/1 51/20/1 52/6/1
f 53/15/1 54/21/1 55/19/1 56/5/1

