# Tiled2Unity generated file. Do not modify by hand.
# Wavefront file for 'myMap_mesh_0320.obj'

# Vertices (Count = 28)
v 0 -480 0
v -32 -480 0
v -32 -448 0
v 0 -448 0
v 0 -512 0
v -32 -512 0
v -32 -480 0
v 0 -480 0
v -288 -512 0
v -320 -512 0
v -320 -480 0
v -288 -480 0
v -320 -512 0
v -352 -512 0
v -352 -480 0
v -320 -480 0
v -352 -512 0
v -384 -512 0
v -384 -480 0
v -352 -480 0
v -384 -512 0
v -416 -512 0
v -416 -480 0
v -384 -480 0
v -416 -512 0
v -448 -512 0
v -448 -480 0
v -416 -480 0

# Texture cooridinates (Count = 14)
vt 0.5 0.125
vt 0.53125 0.125
vt 0.53125 0.1875
vt 0.5 0.1875
vt 0.5 0.0625
vt 0.53125 0.0625
vt 0.46875 0.8125
vt 0.5 0.8125
vt 0.5 0.875
vt 0.46875 0.875
vt 0.53125 0.8125
vt 0.53125 0.875
vt 0.5625 0.8125
vt 0.5625 0.875

# Normal
vn 0 0 -1

# Mesh description
g myMap_mesh_0320

# Faces
f 1/1/1 2/2/1 3/3/1 4/4/1
f 5/5/1 6/6/1 7/2/1 8/1/1
f 9/7/1 10/8/1 11/9/1 12/10/1
f 13/8/1 14/11/1 15/12/1 16/9/1
f 17/8/1 18/11/1 19/12/1 20/9/1
f 21/8/1 22/11/1 23/12/1 24/9/1
f 25/11/1 26/13/1 27/14/1 28/12/1

