# Tiled2Unity generated file. Do not modify by hand.
# Wavefront file for 'myMap_mesh_0341.obj'

# Vertices (Count = 52)
v -256 -32 0
v -288 -32 0
v -288 0 0
v -256 0 0
v -288 -32 0
v -320 -32 0
v -320 0 0
v -288 0 0
v -320 -32 0
v -352 -32 0
v -352 0 0
v -320 0 0
v -480 -32 0
v -512 -32 0
v -512 0 0
v -480 0 0
v -256 -64 0
v -288 -64 0
v -288 -32 0
v -256 -32 0
v -288 -64 0
v -320 -64 0
v -320 -32 0
v -288 -32 0
v -320 -64 0
v -352 -64 0
v -352 -32 0
v -320 -32 0
v -480 -64 0
v -512 -64 0
v -512 -32 0
v -480 -32 0
v -256 -96 0
v -288 -96 0
v -288 -64 0
v -256 -64 0
v -288 -96 0
v -320 -96 0
v -320 -64 0
v -288 -64 0
v -320 -96 0
v -352 -96 0
v -352 -64 0
v -320 -64 0
v -480 -96 0
v -512 -96 0
v -512 -64 0
v -480 -64 0
v -288 -128 0
v -320 -128 0
v -320 -96 0
v -288 -96 0

# Texture cooridinates (Count = 8)
vt 0.5 0.125
vt 0.53125 0.125
vt 0.53125 0.1875
vt 0.5 0.1875
vt 0.5 0.0625
vt 0.53125 0.0625
vt 0.5 0
vt 0.53125 0

# Normal
vn 0 0 -1

# Mesh description
g myMap_mesh_0341

# Faces
f 1/1/1 2/2/1 3/3/1 4/4/1
f 5/1/1 6/2/1 7/3/1 8/4/1
f 9/1/1 10/2/1 11/3/1 12/4/1
f 13/1/1 14/2/1 15/3/1 16/4/1
f 17/5/1 18/6/1 19/2/1 20/1/1
f 21/5/1 22/6/1 23/2/1 24/1/1
f 25/5/1 26/6/1 27/2/1 28/1/1
f 29/5/1 30/6/1 31/2/1 32/1/1
f 33/7/1 34/8/1 35/6/1 36/5/1
f 37/5/1 38/6/1 39/2/1 40/1/1
f 41/7/1 42/8/1 43/6/1 44/5/1
f 45/7/1 46/8/1 47/6/1 48/5/1
f 49/7/1 50/8/1 51/6/1 52/5/1

