# Tiled2Unity generated file. Do not modify by hand.
# Wavefront file for 'myMap_mesh_0262.obj'

# Vertices (Count = 360)
v 0 -128 0
v -32 -128 0
v -32 -96 0
v 0 -96 0
v -32 -128 0
v -64 -128 0
v -64 -96 0
v -32 -96 0
v -64 -128 0
v -96 -128 0
v -96 -96 0
v -64 -96 0
v -96 -128 0
v -128 -128 0
v -128 -96 0
v -96 -96 0
v -128 -128 0
v -160 -128 0
v -160 -96 0
v -128 -96 0
v -352 -128 0
v -384 -128 0
v -384 -96 0
v -352 -96 0
v -384 -128 0
v -416 -128 0
v -416 -96 0
v -384 -96 0
v -416 -128 0
v -448 -128 0
v -448 -96 0
v -416 -96 0
v -448 -128 0
v -480 -128 0
v -480 -96 0
v -448 -96 0
v -480 -128 0
v -512 -128 0
v -512 -96 0
v -480 -96 0
v 0 -160 0
v -32 -160 0
v -32 -128 0
v 0 -128 0
v -32 -160 0
v -64 -160 0
v -64 -128 0
v -32 -128 0
v -64 -160 0
v -96 -160 0
v -96 -128 0
v -64 -128 0
v -96 -160 0
v -128 -160 0
v -128 -128 0
v -96 -128 0
v -128 -160 0
v -160 -160 0
v -160 -128 0
v -128 -128 0
v -352 -160 0
v -384 -160 0
v -384 -128 0
v -352 -128 0
v -384 -160 0
v -416 -160 0
v -416 -128 0
v -384 -128 0
v -416 -160 0
v -448 -160 0
v -448 -128 0
v -416 -128 0
v -448 -160 0
v -480 -160 0
v -480 -128 0
v -448 -128 0
v -480 -160 0
v -512 -160 0
v -512 -128 0
v -480 -128 0
v 0 -192 0
v -32 -192 0
v -32 -160 0
v 0 -160 0
v -32 -192 0
v -64 -192 0
v -64 -160 0
v -32 -160 0
v -64 -192 0
v -96 -192 0
v -96 -160 0
v -64 -160 0
v -96 -192 0
v -128 -192 0
v -128 -160 0
v -96 -160 0
v -128 -192 0
v -160 -192 0
v -160 -160 0
v -128 -160 0
v -352 -192 0
v -384 -192 0
v -384 -160 0
v -352 -160 0
v -384 -192 0
v -416 -192 0
v -416 -160 0
v -384 -160 0
v -416 -192 0
v -448 -192 0
v -448 -160 0
v -416 -160 0
v -448 -192 0
v -480 -192 0
v -480 -160 0
v -448 -160 0
v -480 -192 0
v -512 -192 0
v -512 -160 0
v -480 -160 0
v 0 -224 0
v -32 -224 0
v -32 -192 0
v 0 -192 0
v -32 -224 0
v -64 -224 0
v -64 -192 0
v -32 -192 0
v -64 -224 0
v -96 -224 0
v -96 -192 0
v -64 -192 0
v -96 -224 0
v -128 -224 0
v -128 -192 0
v -96 -192 0
v -128 -224 0
v -160 -224 0
v -160 -192 0
v -128 -192 0
v -352 -224 0
v -384 -224 0
v -384 -192 0
v -352 -192 0
v -384 -224 0
v -416 -224 0
v -416 -192 0
v -384 -192 0
v -416 -224 0
v -448 -224 0
v -448 -192 0
v -416 -192 0
v -448 -224 0
v -480 -224 0
v -480 -192 0
v -448 -192 0
v -480 -224 0
v -512 -224 0
v -512 -192 0
v -480 -192 0
v 0 -256 0
v -32 -256 0
v -32 -224 0
v 0 -224 0
v -32 -256 0
v -64 -256 0
v -64 -224 0
v -32 -224 0
v -64 -256 0
v -96 -256 0
v -96 -224 0
v -64 -224 0
v -96 -256 0
v -128 -256 0
v -128 -224 0
v -96 -224 0
v -128 -256 0
v -160 -256 0
v -160 -224 0
v -128 -224 0
v -352 -256 0
v -384 -256 0
v -384 -224 0
v -352 -224 0
v -384 -256 0
v -416 -256 0
v -416 -224 0
v -384 -224 0
v -416 -256 0
v -448 -256 0
v -448 -224 0
v -416 -224 0
v -448 -256 0
v -480 -256 0
v -480 -224 0
v -448 -224 0
v -480 -256 0
v -512 -256 0
v -512 -224 0
v -480 -224 0
v 0 -288 0
v -32 -288 0
v -32 -256 0
v 0 -256 0
v -32 -288 0
v -64 -288 0
v -64 -256 0
v -32 -256 0
v -64 -288 0
v -96 -288 0
v -96 -256 0
v -64 -256 0
v -96 -288 0
v -128 -288 0
v -128 -256 0
v -96 -256 0
v -128 -288 0
v -160 -288 0
v -160 -256 0
v -128 -256 0
v -352 -288 0
v -384 -288 0
v -384 -256 0
v -352 -256 0
v -384 -288 0
v -416 -288 0
v -416 -256 0
v -384 -256 0
v -416 -288 0
v -448 -288 0
v -448 -256 0
v -416 -256 0
v -448 -288 0
v -480 -288 0
v -480 -256 0
v -448 -256 0
v -480 -288 0
v -512 -288 0
v -512 -256 0
v -480 -256 0
v 0 -320 0
v -32 -320 0
v -32 -288 0
v 0 -288 0
v -32 -320 0
v -64 -320 0
v -64 -288 0
v -32 -288 0
v -64 -320 0
v -96 -320 0
v -96 -288 0
v -64 -288 0
v -96 -320 0
v -128 -320 0
v -128 -288 0
v -96 -288 0
v -128 -320 0
v -160 -320 0
v -160 -288 0
v -128 -288 0
v -352 -320 0
v -384 -320 0
v -384 -288 0
v -352 -288 0
v -384 -320 0
v -416 -320 0
v -416 -288 0
v -384 -288 0
v -416 -320 0
v -448 -320 0
v -448 -288 0
v -416 -288 0
v -448 -320 0
v -480 -320 0
v -480 -288 0
v -448 -288 0
v -480 -320 0
v -512 -320 0
v -512 -288 0
v -480 -288 0
v 0 -352 0
v -32 -352 0
v -32 -320 0
v 0 -320 0
v -32 -352 0
v -64 -352 0
v -64 -320 0
v -32 -320 0
v -64 -352 0
v -96 -352 0
v -96 -320 0
v -64 -320 0
v -96 -352 0
v -128 -352 0
v -128 -320 0
v -96 -320 0
v -128 -352 0
v -160 -352 0
v -160 -320 0
v -128 -320 0
v -352 -352 0
v -384 -352 0
v -384 -320 0
v -352 -320 0
v -384 -352 0
v -416 -352 0
v -416 -320 0
v -384 -320 0
v -416 -352 0
v -448 -352 0
v -448 -320 0
v -416 -320 0
v -448 -352 0
v -480 -352 0
v -480 -320 0
v -448 -320 0
v -480 -352 0
v -512 -352 0
v -512 -320 0
v -480 -320 0
v 0 -384 0
v -32 -384 0
v -32 -352 0
v 0 -352 0
v -32 -384 0
v -64 -384 0
v -64 -352 0
v -32 -352 0
v -64 -384 0
v -96 -384 0
v -96 -352 0
v -64 -352 0
v -96 -384 0
v -128 -384 0
v -128 -352 0
v -96 -352 0
v -128 -384 0
v -160 -384 0
v -160 -352 0
v -128 -352 0
v -352 -384 0
v -384 -384 0
v -384 -352 0
v -352 -352 0
v -384 -384 0
v -416 -384 0
v -416 -352 0
v -384 -352 0
v -416 -384 0
v -448 -384 0
v -448 -352 0
v -416 -352 0
v -448 -384 0
v -480 -384 0
v -480 -352 0
v -448 -352 0
v -480 -384 0
v -512 -384 0
v -512 -352 0
v -480 -352 0

# Texture cooridinates (Count = 32)
vt 0.65625 0.625
vt 0.6875 0.625
vt 0.6875 0.6875
vt 0.65625 0.6875
vt 0.71875 0.625
vt 0.71875 0.6875
vt 0.625 0.625
vt 0.625 0.6875
vt 0.5 0.625
vt 0.53125 0.625
vt 0.53125 0.6875
vt 0.5 0.6875
vt 0.5625 0.625
vt 0.5625 0.6875
vt 0.59375 0.625
vt 0.59375 0.6875
vt 0.625 0.5625
vt 0.65625 0.5625
vt 0.5 0.5625
vt 0.53125 0.5625
vt 0.5625 0.5625
vt 0.59375 0.5625
vt 0.5 0.5
vt 0.53125 0.5
vt 0.5625 0.5
vt 0.59375 0.5
vt 0.625 0.5
vt 0.5 0.4375
vt 0.53125 0.4375
vt 0.5625 0.4375
vt 0.59375 0.4375
vt 0.625 0.4375

# Normal
vn 0 0 -1

# Mesh description
g myMap_mesh_0262

# Faces
f 1/1/1 2/2/1 3/3/1 4/4/1
f 5/1/1 6/2/1 7/3/1 8/4/1
f 9/1/1 10/2/1 11/3/1 12/4/1
f 13/1/1 14/2/1 15/3/1 16/4/1
f 17/2/1 18/5/1 19/6/1 20/3/1
f 21/7/1 22/1/1 23/4/1 24/8/1
f 25/1/1 26/2/1 27/3/1 28/4/1
f 29/1/1 30/2/1 31/3/1 32/4/1
f 33/1/1 34/2/1 35/3/1 36/4/1
f 37/1/1 38/2/1 39/3/1 40/4/1
f 41/9/1 42/10/1 43/11/1 44/12/1
f 45/10/1 46/13/1 47/14/1 48/11/1
f 49/13/1 50/15/1 51/16/1 52/14/1
f 53/15/1 54/7/1 55/8/1 56/16/1
f 57/1/1 58/7/1 59/17/1 60/18/1
f 61/17/1 62/18/1 63/1/1 64/7/1
f 65/9/1 66/10/1 67/11/1 68/12/1
f 69/10/1 70/13/1 71/14/1 72/11/1
f 73/13/1 74/15/1 75/16/1 76/14/1
f 77/15/1 78/7/1 79/8/1 80/16/1
f 81/19/1 82/20/1 83/10/1 84/9/1
f 85/20/1 86/21/1 87/13/1 88/10/1
f 89/21/1 90/22/1 91/15/1 92/13/1
f 93/22/1 94/17/1 95/7/1 96/15/1
f 97/1/1 98/7/1 99/17/1 100/18/1
f 101/17/1 102/18/1 103/1/1 104/7/1
f 105/19/1 106/20/1 107/10/1 108/9/1
f 109/20/1 110/21/1 111/13/1 112/10/1
f 113/21/1 114/22/1 115/15/1 116/13/1
f 117/22/1 118/17/1 119/7/1 120/15/1
f 121/23/1 122/24/1 123/20/1 124/19/1
f 125/24/1 126/25/1 127/21/1 128/20/1
f 129/25/1 130/26/1 131/22/1 132/21/1
f 133/26/1 134/27/1 135/17/1 136/22/1
f 137/1/1 138/7/1 139/17/1 140/18/1
f 141/17/1 142/18/1 143/1/1 144/7/1
f 145/23/1 146/24/1 147/20/1 148/19/1
f 149/24/1 150/25/1 151/21/1 152/20/1
f 153/25/1 154/26/1 155/22/1 156/21/1
f 157/26/1 158/27/1 159/17/1 160/22/1
f 161/28/1 162/29/1 163/24/1 164/23/1
f 165/29/1 166/30/1 167/25/1 168/24/1
f 169/30/1 170/31/1 171/26/1 172/25/1
f 173/31/1 174/32/1 175/27/1 176/26/1
f 177/1/1 178/7/1 179/17/1 180/18/1
f 181/17/1 182/18/1 183/1/1 184/7/1
f 185/28/1 186/29/1 187/24/1 188/23/1
f 189/29/1 190/30/1 191/25/1 192/24/1
f 193/30/1 194/31/1 195/26/1 196/25/1
f 197/31/1 198/32/1 199/27/1 200/26/1
f 201/9/1 202/10/1 203/11/1 204/12/1
f 205/10/1 206/13/1 207/14/1 208/11/1
f 209/13/1 210/15/1 211/16/1 212/14/1
f 213/15/1 214/7/1 215/8/1 216/16/1
f 217/1/1 218/7/1 219/17/1 220/18/1
f 221/17/1 222/18/1 223/1/1 224/7/1
f 225/9/1 226/10/1 227/11/1 228/12/1
f 229/10/1 230/13/1 231/14/1 232/11/1
f 233/13/1 234/15/1 235/16/1 236/14/1
f 237/15/1 238/7/1 239/8/1 240/16/1
f 241/19/1 242/20/1 243/10/1 244/9/1
f 245/20/1 246/21/1 247/13/1 248/10/1
f 249/21/1 250/22/1 251/15/1 252/13/1
f 253/22/1 254/17/1 255/7/1 256/15/1
f 257/1/1 258/7/1 259/17/1 260/18/1
f 261/17/1 262/18/1 263/1/1 264/7/1
f 265/19/1 266/20/1 267/10/1 268/9/1
f 269/20/1 270/21/1 271/13/1 272/10/1
f 273/21/1 274/22/1 275/15/1 276/13/1
f 277/22/1 278/17/1 279/7/1 280/15/1
f 281/23/1 282/24/1 283/20/1 284/19/1
f 285/24/1 286/25/1 287/21/1 288/20/1
f 289/25/1 290/26/1 291/22/1 292/21/1
f 293/26/1 294/27/1 295/17/1 296/22/1
f 297/1/1 298/7/1 299/17/1 300/18/1
f 301/17/1 302/18/1 303/1/1 304/7/1
f 305/23/1 306/24/1 307/20/1 308/19/1
f 309/24/1 310/25/1 311/21/1 312/20/1
f 313/25/1 314/26/1 315/22/1 316/21/1
f 317/26/1 318/27/1 319/17/1 320/22/1
f 321/28/1 322/29/1 323/24/1 324/23/1
f 325/29/1 326/30/1 327/25/1 328/24/1
f 329/30/1 330/31/1 331/26/1 332/25/1
f 333/31/1 334/32/1 335/27/1 336/26/1
f 337/1/1 338/7/1 339/17/1 340/18/1
f 341/17/1 342/18/1 343/1/1 344/7/1
f 345/28/1 346/29/1 347/24/1 348/23/1
f 349/29/1 350/30/1 351/25/1 352/24/1
f 353/30/1 354/31/1 355/26/1 356/25/1
f 357/31/1 358/32/1 359/27/1 360/26/1

