# Tiled2Unity generated file. Do not modify by hand.
# Wavefront file for 'myMap_mesh_0123.obj'

# Vertices (Count = 1024)
v 0 -32 0
v -32 -32 0
v -32 0 0
v 0 0 0
v -32 -32 0
v -64 -32 0
v -64 0 0
v -32 0 0
v -64 -32 0
v -96 -32 0
v -96 0 0
v -64 0 0
v -96 -32 0
v -128 -32 0
v -128 0 0
v -96 0 0
v -128 -32 0
v -160 -32 0
v -160 0 0
v -128 0 0
v -160 -32 0
v -192 -32 0
v -192 0 0
v -160 0 0
v -192 -32 0
v -224 -32 0
v -224 0 0
v -192 0 0
v -224 -32 0
v -256 -32 0
v -256 0 0
v -224 0 0
v -256 -32 0
v -288 -32 0
v -288 0 0
v -256 0 0
v -288 -32 0
v -320 -32 0
v -320 0 0
v -288 0 0
v -320 -32 0
v -352 -32 0
v -352 0 0
v -320 0 0
v -352 -32 0
v -384 -32 0
v -384 0 0
v -352 0 0
v -384 -32 0
v -416 -32 0
v -416 0 0
v -384 0 0
v -416 -32 0
v -448 -32 0
v -448 0 0
v -416 0 0
v -448 -32 0
v -480 -32 0
v -480 0 0
v -448 0 0
v -480 -32 0
v -512 -32 0
v -512 0 0
v -480 0 0
v 0 -64 0
v -32 -64 0
v -32 -32 0
v 0 -32 0
v -32 -64 0
v -64 -64 0
v -64 -32 0
v -32 -32 0
v -64 -64 0
v -96 -64 0
v -96 -32 0
v -64 -32 0
v -96 -64 0
v -128 -64 0
v -128 -32 0
v -96 -32 0
v -128 -64 0
v -160 -64 0
v -160 -32 0
v -128 -32 0
v -160 -64 0
v -192 -64 0
v -192 -32 0
v -160 -32 0
v -192 -64 0
v -224 -64 0
v -224 -32 0
v -192 -32 0
v -224 -64 0
v -256 -64 0
v -256 -32 0
v -224 -32 0
v -256 -64 0
v -288 -64 0
v -288 -32 0
v -256 -32 0
v -288 -64 0
v -320 -64 0
v -320 -32 0
v -288 -32 0
v -320 -64 0
v -352 -64 0
v -352 -32 0
v -320 -32 0
v -352 -64 0
v -384 -64 0
v -384 -32 0
v -352 -32 0
v -384 -64 0
v -416 -64 0
v -416 -32 0
v -384 -32 0
v -416 -64 0
v -448 -64 0
v -448 -32 0
v -416 -32 0
v -448 -64 0
v -480 -64 0
v -480 -32 0
v -448 -32 0
v -480 -64 0
v -512 -64 0
v -512 -32 0
v -480 -32 0
v 0 -96 0
v -32 -96 0
v -32 -64 0
v 0 -64 0
v -32 -96 0
v -64 -96 0
v -64 -64 0
v -32 -64 0
v -64 -96 0
v -96 -96 0
v -96 -64 0
v -64 -64 0
v -96 -96 0
v -128 -96 0
v -128 -64 0
v -96 -64 0
v -128 -96 0
v -160 -96 0
v -160 -64 0
v -128 -64 0
v -160 -96 0
v -192 -96 0
v -192 -64 0
v -160 -64 0
v -192 -96 0
v -224 -96 0
v -224 -64 0
v -192 -64 0
v -224 -96 0
v -256 -96 0
v -256 -64 0
v -224 -64 0
v -256 -96 0
v -288 -96 0
v -288 -64 0
v -256 -64 0
v -288 -96 0
v -320 -96 0
v -320 -64 0
v -288 -64 0
v -320 -96 0
v -352 -96 0
v -352 -64 0
v -320 -64 0
v -352 -96 0
v -384 -96 0
v -384 -64 0
v -352 -64 0
v -384 -96 0
v -416 -96 0
v -416 -64 0
v -384 -64 0
v -416 -96 0
v -448 -96 0
v -448 -64 0
v -416 -64 0
v -448 -96 0
v -480 -96 0
v -480 -64 0
v -448 -64 0
v -480 -96 0
v -512 -96 0
v -512 -64 0
v -480 -64 0
v 0 -128 0
v -32 -128 0
v -32 -96 0
v 0 -96 0
v -32 -128 0
v -64 -128 0
v -64 -96 0
v -32 -96 0
v -64 -128 0
v -96 -128 0
v -96 -96 0
v -64 -96 0
v -96 -128 0
v -128 -128 0
v -128 -96 0
v -96 -96 0
v -128 -128 0
v -160 -128 0
v -160 -96 0
v -128 -96 0
v -160 -128 0
v -192 -128 0
v -192 -96 0
v -160 -96 0
v -192 -128 0
v -224 -128 0
v -224 -96 0
v -192 -96 0
v -224 -128 0
v -256 -128 0
v -256 -96 0
v -224 -96 0
v -256 -128 0
v -288 -128 0
v -288 -96 0
v -256 -96 0
v -288 -128 0
v -320 -128 0
v -320 -96 0
v -288 -96 0
v -320 -128 0
v -352 -128 0
v -352 -96 0
v -320 -96 0
v -352 -128 0
v -384 -128 0
v -384 -96 0
v -352 -96 0
v -384 -128 0
v -416 -128 0
v -416 -96 0
v -384 -96 0
v -416 -128 0
v -448 -128 0
v -448 -96 0
v -416 -96 0
v -448 -128 0
v -480 -128 0
v -480 -96 0
v -448 -96 0
v -480 -128 0
v -512 -128 0
v -512 -96 0
v -480 -96 0
v 0 -160 0
v -32 -160 0
v -32 -128 0
v 0 -128 0
v -32 -160 0
v -64 -160 0
v -64 -128 0
v -32 -128 0
v -64 -160 0
v -96 -160 0
v -96 -128 0
v -64 -128 0
v -96 -160 0
v -128 -160 0
v -128 -128 0
v -96 -128 0
v -128 -160 0
v -160 -160 0
v -160 -128 0
v -128 -128 0
v -160 -160 0
v -192 -160 0
v -192 -128 0
v -160 -128 0
v -192 -160 0
v -224 -160 0
v -224 -128 0
v -192 -128 0
v -224 -160 0
v -256 -160 0
v -256 -128 0
v -224 -128 0
v -256 -160 0
v -288 -160 0
v -288 -128 0
v -256 -128 0
v -288 -160 0
v -320 -160 0
v -320 -128 0
v -288 -128 0
v -320 -160 0
v -352 -160 0
v -352 -128 0
v -320 -128 0
v -352 -160 0
v -384 -160 0
v -384 -128 0
v -352 -128 0
v -384 -160 0
v -416 -160 0
v -416 -128 0
v -384 -128 0
v -416 -160 0
v -448 -160 0
v -448 -128 0
v -416 -128 0
v -448 -160 0
v -480 -160 0
v -480 -128 0
v -448 -128 0
v -480 -160 0
v -512 -160 0
v -512 -128 0
v -480 -128 0
v 0 -192 0
v -32 -192 0
v -32 -160 0
v 0 -160 0
v -32 -192 0
v -64 -192 0
v -64 -160 0
v -32 -160 0
v -64 -192 0
v -96 -192 0
v -96 -160 0
v -64 -160 0
v -96 -192 0
v -128 -192 0
v -128 -160 0
v -96 -160 0
v -128 -192 0
v -160 -192 0
v -160 -160 0
v -128 -160 0
v -160 -192 0
v -192 -192 0
v -192 -160 0
v -160 -160 0
v -192 -192 0
v -224 -192 0
v -224 -160 0
v -192 -160 0
v -224 -192 0
v -256 -192 0
v -256 -160 0
v -224 -160 0
v -256 -192 0
v -288 -192 0
v -288 -160 0
v -256 -160 0
v -288 -192 0
v -320 -192 0
v -320 -160 0
v -288 -160 0
v -320 -192 0
v -352 -192 0
v -352 -160 0
v -320 -160 0
v -352 -192 0
v -384 -192 0
v -384 -160 0
v -352 -160 0
v -384 -192 0
v -416 -192 0
v -416 -160 0
v -384 -160 0
v -416 -192 0
v -448 -192 0
v -448 -160 0
v -416 -160 0
v -448 -192 0
v -480 -192 0
v -480 -160 0
v -448 -160 0
v -480 -192 0
v -512 -192 0
v -512 -160 0
v -480 -160 0
v 0 -224 0
v -32 -224 0
v -32 -192 0
v 0 -192 0
v -32 -224 0
v -64 -224 0
v -64 -192 0
v -32 -192 0
v -64 -224 0
v -96 -224 0
v -96 -192 0
v -64 -192 0
v -96 -224 0
v -128 -224 0
v -128 -192 0
v -96 -192 0
v -128 -224 0
v -160 -224 0
v -160 -192 0
v -128 -192 0
v -160 -224 0
v -192 -224 0
v -192 -192 0
v -160 -192 0
v -192 -224 0
v -224 -224 0
v -224 -192 0
v -192 -192 0
v -224 -224 0
v -256 -224 0
v -256 -192 0
v -224 -192 0
v -256 -224 0
v -288 -224 0
v -288 -192 0
v -256 -192 0
v -288 -224 0
v -320 -224 0
v -320 -192 0
v -288 -192 0
v -320 -224 0
v -352 -224 0
v -352 -192 0
v -320 -192 0
v -352 -224 0
v -384 -224 0
v -384 -192 0
v -352 -192 0
v -384 -224 0
v -416 -224 0
v -416 -192 0
v -384 -192 0
v -416 -224 0
v -448 -224 0
v -448 -192 0
v -416 -192 0
v -448 -224 0
v -480 -224 0
v -480 -192 0
v -448 -192 0
v -480 -224 0
v -512 -224 0
v -512 -192 0
v -480 -192 0
v 0 -256 0
v -32 -256 0
v -32 -224 0
v 0 -224 0
v -32 -256 0
v -64 -256 0
v -64 -224 0
v -32 -224 0
v -64 -256 0
v -96 -256 0
v -96 -224 0
v -64 -224 0
v -96 -256 0
v -128 -256 0
v -128 -224 0
v -96 -224 0
v -128 -256 0
v -160 -256 0
v -160 -224 0
v -128 -224 0
v -160 -256 0
v -192 -256 0
v -192 -224 0
v -160 -224 0
v -192 -256 0
v -224 -256 0
v -224 -224 0
v -192 -224 0
v -224 -256 0
v -256 -256 0
v -256 -224 0
v -224 -224 0
v -256 -256 0
v -288 -256 0
v -288 -224 0
v -256 -224 0
v -288 -256 0
v -320 -256 0
v -320 -224 0
v -288 -224 0
v -320 -256 0
v -352 -256 0
v -352 -224 0
v -320 -224 0
v -352 -256 0
v -384 -256 0
v -384 -224 0
v -352 -224 0
v -384 -256 0
v -416 -256 0
v -416 -224 0
v -384 -224 0
v -416 -256 0
v -448 -256 0
v -448 -224 0
v -416 -224 0
v -448 -256 0
v -480 -256 0
v -480 -224 0
v -448 -224 0
v -480 -256 0
v -512 -256 0
v -512 -224 0
v -480 -224 0
v 0 -288 0
v -32 -288 0
v -32 -256 0
v 0 -256 0
v -32 -288 0
v -64 -288 0
v -64 -256 0
v -32 -256 0
v -64 -288 0
v -96 -288 0
v -96 -256 0
v -64 -256 0
v -96 -288 0
v -128 -288 0
v -128 -256 0
v -96 -256 0
v -128 -288 0
v -160 -288 0
v -160 -256 0
v -128 -256 0
v -160 -288 0
v -192 -288 0
v -192 -256 0
v -160 -256 0
v -192 -288 0
v -224 -288 0
v -224 -256 0
v -192 -256 0
v -224 -288 0
v -256 -288 0
v -256 -256 0
v -224 -256 0
v -256 -288 0
v -288 -288 0
v -288 -256 0
v -256 -256 0
v -288 -288 0
v -320 -288 0
v -320 -256 0
v -288 -256 0
v -320 -288 0
v -352 -288 0
v -352 -256 0
v -320 -256 0
v -352 -288 0
v -384 -288 0
v -384 -256 0
v -352 -256 0
v -384 -288 0
v -416 -288 0
v -416 -256 0
v -384 -256 0
v -416 -288 0
v -448 -288 0
v -448 -256 0
v -416 -256 0
v -448 -288 0
v -480 -288 0
v -480 -256 0
v -448 -256 0
v -480 -288 0
v -512 -288 0
v -512 -256 0
v -480 -256 0
v 0 -320 0
v -32 -320 0
v -32 -288 0
v 0 -288 0
v -32 -320 0
v -64 -320 0
v -64 -288 0
v -32 -288 0
v -64 -320 0
v -96 -320 0
v -96 -288 0
v -64 -288 0
v -96 -320 0
v -128 -320 0
v -128 -288 0
v -96 -288 0
v -128 -320 0
v -160 -320 0
v -160 -288 0
v -128 -288 0
v -160 -320 0
v -192 -320 0
v -192 -288 0
v -160 -288 0
v -192 -320 0
v -224 -320 0
v -224 -288 0
v -192 -288 0
v -224 -320 0
v -256 -320 0
v -256 -288 0
v -224 -288 0
v -256 -320 0
v -288 -320 0
v -288 -288 0
v -256 -288 0
v -288 -320 0
v -320 -320 0
v -320 -288 0
v -288 -288 0
v -320 -320 0
v -352 -320 0
v -352 -288 0
v -320 -288 0
v -352 -320 0
v -384 -320 0
v -384 -288 0
v -352 -288 0
v -384 -320 0
v -416 -320 0
v -416 -288 0
v -384 -288 0
v -416 -320 0
v -448 -320 0
v -448 -288 0
v -416 -288 0
v -448 -320 0
v -480 -320 0
v -480 -288 0
v -448 -288 0
v -480 -320 0
v -512 -320 0
v -512 -288 0
v -480 -288 0
v 0 -352 0
v -32 -352 0
v -32 -320 0
v 0 -320 0
v -32 -352 0
v -64 -352 0
v -64 -320 0
v -32 -320 0
v -64 -352 0
v -96 -352 0
v -96 -320 0
v -64 -320 0
v -96 -352 0
v -128 -352 0
v -128 -320 0
v -96 -320 0
v -128 -352 0
v -160 -352 0
v -160 -320 0
v -128 -320 0
v -160 -352 0
v -192 -352 0
v -192 -320 0
v -160 -320 0
v -192 -352 0
v -224 -352 0
v -224 -320 0
v -192 -320 0
v -224 -352 0
v -256 -352 0
v -256 -320 0
v -224 -320 0
v -256 -352 0
v -288 -352 0
v -288 -320 0
v -256 -320 0
v -288 -352 0
v -320 -352 0
v -320 -320 0
v -288 -320 0
v -320 -352 0
v -352 -352 0
v -352 -320 0
v -320 -320 0
v -352 -352 0
v -384 -352 0
v -384 -320 0
v -352 -320 0
v -384 -352 0
v -416 -352 0
v -416 -320 0
v -384 -320 0
v -416 -352 0
v -448 -352 0
v -448 -320 0
v -416 -320 0
v -448 -352 0
v -480 -352 0
v -480 -320 0
v -448 -320 0
v -480 -352 0
v -512 -352 0
v -512 -320 0
v -480 -320 0
v 0 -384 0
v -32 -384 0
v -32 -352 0
v 0 -352 0
v -32 -384 0
v -64 -384 0
v -64 -352 0
v -32 -352 0
v -64 -384 0
v -96 -384 0
v -96 -352 0
v -64 -352 0
v -96 -384 0
v -128 -384 0
v -128 -352 0
v -96 -352 0
v -128 -384 0
v -160 -384 0
v -160 -352 0
v -128 -352 0
v -160 -384 0
v -192 -384 0
v -192 -352 0
v -160 -352 0
v -192 -384 0
v -224 -384 0
v -224 -352 0
v -192 -352 0
v -224 -384 0
v -256 -384 0
v -256 -352 0
v -224 -352 0
v -256 -384 0
v -288 -384 0
v -288 -352 0
v -256 -352 0
v -288 -384 0
v -320 -384 0
v -320 -352 0
v -288 -352 0
v -320 -384 0
v -352 -384 0
v -352 -352 0
v -320 -352 0
v -352 -384 0
v -384 -384 0
v -384 -352 0
v -352 -352 0
v -384 -384 0
v -416 -384 0
v -416 -352 0
v -384 -352 0
v -416 -384 0
v -448 -384 0
v -448 -352 0
v -416 -352 0
v -448 -384 0
v -480 -384 0
v -480 -352 0
v -448 -352 0
v -480 -384 0
v -512 -384 0
v -512 -352 0
v -480 -352 0
v 0 -416 0
v -32 -416 0
v -32 -384 0
v 0 -384 0
v -32 -416 0
v -64 -416 0
v -64 -384 0
v -32 -384 0
v -64 -416 0
v -96 -416 0
v -96 -384 0
v -64 -384 0
v -96 -416 0
v -128 -416 0
v -128 -384 0
v -96 -384 0
v -128 -416 0
v -160 -416 0
v -160 -384 0
v -128 -384 0
v -160 -416 0
v -192 -416 0
v -192 -384 0
v -160 -384 0
v -192 -416 0
v -224 -416 0
v -224 -384 0
v -192 -384 0
v -224 -416 0
v -256 -416 0
v -256 -384 0
v -224 -384 0
v -256 -416 0
v -288 -416 0
v -288 -384 0
v -256 -384 0
v -288 -416 0
v -320 -416 0
v -320 -384 0
v -288 -384 0
v -320 -416 0
v -352 -416 0
v -352 -384 0
v -320 -384 0
v -352 -416 0
v -384 -416 0
v -384 -384 0
v -352 -384 0
v -384 -416 0
v -416 -416 0
v -416 -384 0
v -384 -384 0
v -416 -416 0
v -448 -416 0
v -448 -384 0
v -416 -384 0
v -448 -416 0
v -480 -416 0
v -480 -384 0
v -448 -384 0
v -480 -416 0
v -512 -416 0
v -512 -384 0
v -480 -384 0
v 0 -448 0
v -32 -448 0
v -32 -416 0
v 0 -416 0
v -32 -448 0
v -64 -448 0
v -64 -416 0
v -32 -416 0
v -64 -448 0
v -96 -448 0
v -96 -416 0
v -64 -416 0
v -96 -448 0
v -128 -448 0
v -128 -416 0
v -96 -416 0
v -128 -448 0
v -160 -448 0
v -160 -416 0
v -128 -416 0
v -160 -448 0
v -192 -448 0
v -192 -416 0
v -160 -416 0
v -192 -448 0
v -224 -448 0
v -224 -416 0
v -192 -416 0
v -224 -448 0
v -256 -448 0
v -256 -416 0
v -224 -416 0
v -256 -448 0
v -288 -448 0
v -288 -416 0
v -256 -416 0
v -288 -448 0
v -320 -448 0
v -320 -416 0
v -288 -416 0
v -320 -448 0
v -352 -448 0
v -352 -416 0
v -320 -416 0
v -352 -448 0
v -384 -448 0
v -384 -416 0
v -352 -416 0
v -384 -448 0
v -416 -448 0
v -416 -416 0
v -384 -416 0
v -416 -448 0
v -448 -448 0
v -448 -416 0
v -416 -416 0
v -448 -448 0
v -480 -448 0
v -480 -416 0
v -448 -416 0
v -480 -448 0
v -512 -448 0
v -512 -416 0
v -480 -416 0
v 0 -480 0
v -32 -480 0
v -32 -448 0
v 0 -448 0
v -32 -480 0
v -64 -480 0
v -64 -448 0
v -32 -448 0
v -64 -480 0
v -96 -480 0
v -96 -448 0
v -64 -448 0
v -96 -480 0
v -128 -480 0
v -128 -448 0
v -96 -448 0
v -128 -480 0
v -160 -480 0
v -160 -448 0
v -128 -448 0
v -160 -480 0
v -192 -480 0
v -192 -448 0
v -160 -448 0
v -192 -480 0
v -224 -480 0
v -224 -448 0
v -192 -448 0
v -224 -480 0
v -256 -480 0
v -256 -448 0
v -224 -448 0
v -256 -480 0
v -288 -480 0
v -288 -448 0
v -256 -448 0
v -288 -480 0
v -320 -480 0
v -320 -448 0
v -288 -448 0
v -320 -480 0
v -352 -480 0
v -352 -448 0
v -320 -448 0
v -352 -480 0
v -384 -480 0
v -384 -448 0
v -352 -448 0
v -384 -480 0
v -416 -480 0
v -416 -448 0
v -384 -448 0
v -416 -480 0
v -448 -480 0
v -448 -448 0
v -416 -448 0
v -448 -480 0
v -480 -480 0
v -480 -448 0
v -448 -448 0
v -480 -480 0
v -512 -480 0
v -512 -448 0
v -480 -448 0
v 0 -512 0
v -32 -512 0
v -32 -480 0
v 0 -480 0
v -32 -512 0
v -64 -512 0
v -64 -480 0
v -32 -480 0
v -64 -512 0
v -96 -512 0
v -96 -480 0
v -64 -480 0
v -96 -512 0
v -128 -512 0
v -128 -480 0
v -96 -480 0
v -128 -512 0
v -160 -512 0
v -160 -480 0
v -128 -480 0
v -160 -512 0
v -192 -512 0
v -192 -480 0
v -160 -480 0
v -192 -512 0
v -224 -512 0
v -224 -480 0
v -192 -480 0
v -224 -512 0
v -256 -512 0
v -256 -480 0
v -224 -480 0
v -256 -512 0
v -288 -512 0
v -288 -480 0
v -256 -480 0
v -288 -512 0
v -320 -512 0
v -320 -480 0
v -288 -480 0
v -320 -512 0
v -352 -512 0
v -352 -480 0
v -320 -480 0
v -352 -512 0
v -384 -512 0
v -384 -480 0
v -352 -480 0
v -384 -512 0
v -416 -512 0
v -416 -480 0
v -384 -480 0
v -416 -512 0
v -448 -512 0
v -448 -480 0
v -416 -480 0
v -448 -512 0
v -480 -512 0
v -480 -480 0
v -448 -480 0
v -480 -512 0
v -512 -512 0
v -512 -480 0
v -480 -480 0

# Texture cooridinates (Count = 23)
vt 0.875 0.875
vt 0.90625 0.875
vt 0.90625 0.9375
vt 0.875 0.9375
vt 0.9375 0.875
vt 0.9375 0.9375
vt 0.96875 0.875
vt 0.96875 0.9375
vt 1 0.875
vt 1 0.9375
vt 0.28125 0
vt 0.3125 0
vt 0.3125 0.0625
vt 0.28125 0.0625
vt 0.40625 0.5
vt 0.4375 0.5
vt 0.4375 0.5625
vt 0.40625 0.5625
vt 0.46875 0.5
vt 0.46875 0.5625
vt 0.40625 0.4375
vt 0.4375 0.4375
vt 0.46875 0.4375

# Normal
vn 0 0 -1

# Mesh description
g myMap_mesh_0123

# Faces
f 1/1/1 2/2/1 3/3/1 4/4/1
f 5/2/1 6/5/1 7/6/1 8/3/1
f 9/5/1 10/7/1 11/8/1 12/6/1
f 13/7/1 14/9/1 15/10/1 16/8/1
f 17/1/1 18/2/1 19/3/1 20/4/1
f 21/2/1 22/5/1 23/6/1 24/3/1
f 25/5/1 26/7/1 27/8/1 28/6/1
f 29/7/1 30/9/1 31/10/1 32/8/1
f 33/1/1 34/2/1 35/3/1 36/4/1
f 37/2/1 38/5/1 39/6/1 40/3/1
f 41/5/1 42/7/1 43/8/1 44/6/1
f 45/7/1 46/9/1 47/10/1 48/8/1
f 49/1/1 50/2/1 51/3/1 52/4/1
f 53/2/1 54/5/1 55/6/1 56/3/1
f 57/5/1 58/7/1 59/8/1 60/6/1
f 61/7/1 62/9/1 63/10/1 64/8/1
f 65/11/1 66/12/1 67/13/1 68/14/1
f 69/11/1 70/12/1 71/13/1 72/14/1
f 73/11/1 74/12/1 75/13/1 76/14/1
f 77/11/1 78/12/1 79/13/1 80/14/1
f 81/11/1 82/12/1 83/13/1 84/14/1
f 85/11/1 86/12/1 87/13/1 88/14/1
f 89/11/1 90/12/1 91/13/1 92/14/1
f 93/11/1 94/12/1 95/13/1 96/14/1
f 97/15/1 98/16/1 99/17/1 100/18/1
f 101/16/1 102/19/1 103/20/1 104/17/1
f 105/16/1 106/19/1 107/20/1 108/17/1
f 109/16/1 110/19/1 111/20/1 112/17/1
f 113/16/1 114/19/1 115/20/1 116/17/1
f 117/16/1 118/19/1 119/20/1 120/17/1
f 121/16/1 122/19/1 123/20/1 124/17/1
f 125/16/1 126/19/1 127/20/1 128/17/1
f 129/11/1 130/12/1 131/13/1 132/14/1
f 133/11/1 134/12/1 135/13/1 136/14/1
f 137/11/1 138/12/1 139/13/1 140/14/1
f 141/11/1 142/12/1 143/13/1 144/14/1
f 145/11/1 146/12/1 147/13/1 148/14/1
f 149/11/1 150/12/1 151/13/1 152/14/1
f 153/11/1 154/12/1 155/13/1 156/14/1
f 157/11/1 158/12/1 159/13/1 160/14/1
f 161/21/1 162/22/1 163/16/1 164/15/1
f 165/22/1 166/23/1 167/19/1 168/16/1
f 169/22/1 170/23/1 171/19/1 172/16/1
f 173/22/1 174/23/1 175/19/1 176/16/1
f 177/22/1 178/23/1 179/19/1 180/16/1
f 181/22/1 182/23/1 183/19/1 184/16/1
f 185/22/1 186/23/1 187/19/1 188/16/1
f 189/22/1 190/23/1 191/19/1 192/16/1
f 193/11/1 194/12/1 195/13/1 196/14/1
f 197/11/1 198/12/1 199/13/1 200/14/1
f 201/11/1 202/12/1 203/13/1 204/14/1
f 205/11/1 206/12/1 207/13/1 208/14/1
f 209/11/1 210/12/1 211/13/1 212/14/1
f 213/11/1 214/12/1 215/13/1 216/14/1
f 217/11/1 218/12/1 219/13/1 220/14/1
f 221/11/1 222/12/1 223/13/1 224/14/1
f 225/21/1 226/22/1 227/16/1 228/15/1
f 229/22/1 230/23/1 231/19/1 232/16/1
f 233/22/1 234/23/1 235/19/1 236/16/1
f 237/22/1 238/23/1 239/19/1 240/16/1
f 241/22/1 242/23/1 243/19/1 244/16/1
f 245/22/1 246/23/1 247/19/1 248/16/1
f 249/22/1 250/23/1 251/19/1 252/16/1
f 253/22/1 254/23/1 255/19/1 256/16/1
f 257/11/1 258/12/1 259/13/1 260/14/1
f 261/11/1 262/12/1 263/13/1 264/14/1
f 265/11/1 266/12/1 267/13/1 268/14/1
f 269/11/1 270/12/1 271/13/1 272/14/1
f 273/11/1 274/12/1 275/13/1 276/14/1
f 277/11/1 278/12/1 279/13/1 280/14/1
f 281/11/1 282/12/1 283/13/1 284/14/1
f 285/11/1 286/12/1 287/13/1 288/14/1
f 289/21/1 290/22/1 291/16/1 292/15/1
f 293/22/1 294/23/1 295/19/1 296/16/1
f 297/22/1 298/23/1 299/19/1 300/16/1
f 301/22/1 302/23/1 303/19/1 304/16/1
f 305/22/1 306/23/1 307/19/1 308/16/1
f 309/22/1 310/23/1 311/19/1 312/16/1
f 313/22/1 314/23/1 315/19/1 316/16/1
f 317/22/1 318/23/1 319/19/1 320/16/1
f 321/11/1 322/12/1 323/13/1 324/14/1
f 325/11/1 326/12/1 327/13/1 328/14/1
f 329/11/1 330/12/1 331/13/1 332/14/1
f 333/11/1 334/12/1 335/13/1 336/14/1
f 337/11/1 338/12/1 339/13/1 340/14/1
f 341/11/1 342/12/1 343/13/1 344/14/1
f 345/11/1 346/12/1 347/13/1 348/14/1
f 349/11/1 350/12/1 351/13/1 352/14/1
f 353/21/1 354/22/1 355/16/1 356/15/1
f 357/22/1 358/23/1 359/19/1 360/16/1
f 361/22/1 362/23/1 363/19/1 364/16/1
f 365/22/1 366/23/1 367/19/1 368/16/1
f 369/22/1 370/23/1 371/19/1 372/16/1
f 373/22/1 374/23/1 375/19/1 376/16/1
f 377/22/1 378/23/1 379/19/1 380/16/1
f 381/22/1 382/23/1 383/19/1 384/16/1
f 385/11/1 386/12/1 387/13/1 388/14/1
f 389/11/1 390/12/1 391/13/1 392/14/1
f 393/11/1 394/12/1 395/13/1 396/14/1
f 397/11/1 398/12/1 399/13/1 400/14/1
f 401/11/1 402/12/1 403/13/1 404/14/1
f 405/11/1 406/12/1 407/13/1 408/14/1
f 409/11/1 410/12/1 411/13/1 412/14/1
f 413/11/1 414/12/1 415/13/1 416/14/1
f 417/21/1 418/22/1 419/16/1 420/15/1
f 421/22/1 422/23/1 423/19/1 424/16/1
f 425/22/1 426/23/1 427/19/1 428/16/1
f 429/22/1 430/23/1 431/19/1 432/16/1
f 433/22/1 434/23/1 435/19/1 436/16/1
f 437/22/1 438/23/1 439/19/1 440/16/1
f 441/22/1 442/23/1 443/19/1 444/16/1
f 445/22/1 446/23/1 447/19/1 448/16/1
f 449/11/1 450/12/1 451/13/1 452/14/1
f 453/11/1 454/12/1 455/13/1 456/14/1
f 457/11/1 458/12/1 459/13/1 460/14/1
f 461/11/1 462/12/1 463/13/1 464/14/1
f 465/11/1 466/12/1 467/13/1 468/14/1
f 469/11/1 470/12/1 471/13/1 472/14/1
f 473/11/1 474/12/1 475/13/1 476/14/1
f 477/11/1 478/12/1 479/13/1 480/14/1
f 481/21/1 482/22/1 483/16/1 484/15/1
f 485/22/1 486/23/1 487/19/1 488/16/1
f 489/22/1 490/23/1 491/19/1 492/16/1
f 493/22/1 494/23/1 495/19/1 496/16/1
f 497/22/1 498/23/1 499/19/1 500/16/1
f 501/22/1 502/23/1 503/19/1 504/16/1
f 505/22/1 506/23/1 507/19/1 508/16/1
f 509/22/1 510/23/1 511/19/1 512/16/1
f 513/11/1 514/12/1 515/13/1 516/14/1
f 517/11/1 518/12/1 519/13/1 520/14/1
f 521/11/1 522/12/1 523/13/1 524/14/1
f 525/11/1 526/12/1 527/13/1 528/14/1
f 529/11/1 530/12/1 531/13/1 532/14/1
f 533/11/1 534/12/1 535/13/1 536/14/1
f 537/11/1 538/12/1 539/13/1 540/14/1
f 541/11/1 542/12/1 543/13/1 544/14/1
f 545/21/1 546/22/1 547/16/1 548/15/1
f 549/22/1 550/23/1 551/19/1 552/16/1
f 553/22/1 554/23/1 555/19/1 556/16/1
f 557/22/1 558/23/1 559/19/1 560/16/1
f 561/22/1 562/23/1 563/19/1 564/16/1
f 565/22/1 566/23/1 567/19/1 568/16/1
f 569/22/1 570/23/1 571/19/1 572/16/1
f 573/22/1 574/23/1 575/19/1 576/16/1
f 577/11/1 578/12/1 579/13/1 580/14/1
f 581/11/1 582/12/1 583/13/1 584/14/1
f 585/11/1 586/12/1 587/13/1 588/14/1
f 589/11/1 590/12/1 591/13/1 592/14/1
f 593/11/1 594/12/1 595/13/1 596/14/1
f 597/11/1 598/12/1 599/13/1 600/14/1
f 601/11/1 602/12/1 603/13/1 604/14/1
f 605/11/1 606/12/1 607/13/1 608/14/1
f 609/21/1 610/22/1 611/16/1 612/15/1
f 613/22/1 614/23/1 615/19/1 616/16/1
f 617/22/1 618/23/1 619/19/1 620/16/1
f 621/22/1 622/23/1 623/19/1 624/16/1
f 625/22/1 626/23/1 627/19/1 628/16/1
f 629/22/1 630/23/1 631/19/1 632/16/1
f 633/22/1 634/23/1 635/19/1 636/16/1
f 637/22/1 638/23/1 639/19/1 640/16/1
f 641/11/1 642/12/1 643/13/1 644/14/1
f 645/11/1 646/12/1 647/13/1 648/14/1
f 649/11/1 650/12/1 651/13/1 652/14/1
f 653/11/1 654/12/1 655/13/1 656/14/1
f 657/11/1 658/12/1 659/13/1 660/14/1
f 661/11/1 662/12/1 663/13/1 664/14/1
f 665/11/1 666/12/1 667/13/1 668/14/1
f 669/11/1 670/12/1 671/13/1 672/14/1
f 673/21/1 674/22/1 675/16/1 676/15/1
f 677/22/1 678/23/1 679/19/1 680/16/1
f 681/22/1 682/23/1 683/19/1 684/16/1
f 685/22/1 686/23/1 687/19/1 688/16/1
f 689/22/1 690/23/1 691/19/1 692/16/1
f 693/22/1 694/23/1 695/19/1 696/16/1
f 697/22/1 698/23/1 699/19/1 700/16/1
f 701/22/1 702/23/1 703/19/1 704/16/1
f 705/11/1 706/12/1 707/13/1 708/14/1
f 709/11/1 710/12/1 711/13/1 712/14/1
f 713/11/1 714/12/1 715/13/1 716/14/1
f 717/11/1 718/12/1 719/13/1 720/14/1
f 721/11/1 722/12/1 723/13/1 724/14/1
f 725/11/1 726/12/1 727/13/1 728/14/1
f 729/11/1 730/12/1 731/13/1 732/14/1
f 733/11/1 734/12/1 735/13/1 736/14/1
f 737/21/1 738/22/1 739/16/1 740/15/1
f 741/22/1 742/23/1 743/19/1 744/16/1
f 745/22/1 746/23/1 747/19/1 748/16/1
f 749/22/1 750/23/1 751/19/1 752/16/1
f 753/22/1 754/23/1 755/19/1 756/16/1
f 757/22/1 758/23/1 759/19/1 760/16/1
f 761/22/1 762/23/1 763/19/1 764/16/1
f 765/22/1 766/23/1 767/19/1 768/16/1
f 769/11/1 770/12/1 771/13/1 772/14/1
f 773/11/1 774/12/1 775/13/1 776/14/1
f 777/11/1 778/12/1 779/13/1 780/14/1
f 781/11/1 782/12/1 783/13/1 784/14/1
f 785/11/1 786/12/1 787/13/1 788/14/1
f 789/11/1 790/12/1 791/13/1 792/14/1
f 793/11/1 794/12/1 795/13/1 796/14/1
f 797/11/1 798/12/1 799/13/1 800/14/1
f 801/21/1 802/22/1 803/16/1 804/15/1
f 805/22/1 806/23/1 807/19/1 808/16/1
f 809/22/1 810/23/1 811/19/1 812/16/1
f 813/22/1 814/23/1 815/19/1 816/16/1
f 817/22/1 818/23/1 819/19/1 820/16/1
f 821/22/1 822/23/1 823/19/1 824/16/1
f 825/22/1 826/23/1 827/19/1 828/16/1
f 829/22/1 830/23/1 831/19/1 832/16/1
f 833/11/1 834/12/1 835/13/1 836/14/1
f 837/11/1 838/12/1 839/13/1 840/14/1
f 841/11/1 842/12/1 843/13/1 844/14/1
f 845/11/1 846/12/1 847/13/1 848/14/1
f 849/11/1 850/12/1 851/13/1 852/14/1
f 853/11/1 854/12/1 855/13/1 856/14/1
f 857/11/1 858/12/1 859/13/1 860/14/1
f 861/11/1 862/12/1 863/13/1 864/14/1
f 865/21/1 866/22/1 867/16/1 868/15/1
f 869/22/1 870/23/1 871/19/1 872/16/1
f 873/22/1 874/23/1 875/19/1 876/16/1
f 877/22/1 878/23/1 879/19/1 880/16/1
f 881/22/1 882/23/1 883/19/1 884/16/1
f 885/22/1 886/23/1 887/19/1 888/16/1
f 889/22/1 890/23/1 891/19/1 892/16/1
f 893/22/1 894/23/1 895/19/1 896/16/1
f 897/11/1 898/12/1 899/13/1 900/14/1
f 901/11/1 902/12/1 903/13/1 904/14/1
f 905/11/1 906/12/1 907/13/1 908/14/1
f 909/11/1 910/12/1 911/13/1 912/14/1
f 913/11/1 914/12/1 915/13/1 916/14/1
f 917/11/1 918/12/1 919/13/1 920/14/1
f 921/11/1 922/12/1 923/13/1 924/14/1
f 925/11/1 926/12/1 927/13/1 928/14/1
f 929/21/1 930/22/1 931/16/1 932/15/1
f 933/22/1 934/23/1 935/19/1 936/16/1
f 937/22/1 938/23/1 939/19/1 940/16/1
f 941/22/1 942/23/1 943/19/1 944/16/1
f 945/22/1 946/23/1 947/19/1 948/16/1
f 949/22/1 950/23/1 951/19/1 952/16/1
f 953/22/1 954/23/1 955/19/1 956/16/1
f 957/22/1 958/23/1 959/19/1 960/16/1
f 961/11/1 962/12/1 963/13/1 964/14/1
f 965/11/1 966/12/1 967/13/1 968/14/1
f 969/11/1 970/12/1 971/13/1 972/14/1
f 973/11/1 974/12/1 975/13/1 976/14/1
f 977/11/1 978/12/1 979/13/1 980/14/1
f 981/11/1 982/12/1 983/13/1 984/14/1
f 985/11/1 986/12/1 987/13/1 988/14/1
f 989/11/1 990/12/1 991/13/1 992/14/1
f 993/21/1 994/22/1 995/16/1 996/15/1
f 997/22/1 998/23/1 999/19/1 1000/16/1
f 1001/22/1 1002/23/1 1003/19/1 1004/16/1
f 1005/22/1 1006/23/1 1007/19/1 1008/16/1
f 1009/22/1 1010/23/1 1011/19/1 1012/16/1
f 1013/22/1 1014/23/1 1015/19/1 1016/16/1
f 1017/22/1 1018/23/1 1019/19/1 1020/16/1
f 1021/22/1 1022/23/1 1023/19/1 1024/16/1

