# Tiled2Unity generated file. Do not modify by hand.
# Wavefront file for 'myMap_mesh_0124.obj'

# Vertices (Count = 1024)
v 0 -32 0
v -32 -32 0
v -32 0 0
v 0 0 0
v -32 -32 0
v -64 -32 0
v -64 0 0
v -32 0 0
v -64 -32 0
v -96 -32 0
v -96 0 0
v -64 0 0
v -96 -32 0
v -128 -32 0
v -128 0 0
v -96 0 0
v -128 -32 0
v -160 -32 0
v -160 0 0
v -128 0 0
v -160 -32 0
v -192 -32 0
v -192 0 0
v -160 0 0
v -192 -32 0
v -224 -32 0
v -224 0 0
v -192 0 0
v -224 -32 0
v -256 -32 0
v -256 0 0
v -224 0 0
v -256 -32 0
v -288 -32 0
v -288 0 0
v -256 0 0
v -288 -32 0
v -320 -32 0
v -320 0 0
v -288 0 0
v -320 -32 0
v -352 -32 0
v -352 0 0
v -320 0 0
v -352 -32 0
v -384 -32 0
v -384 0 0
v -352 0 0
v -384 -32 0
v -416 -32 0
v -416 0 0
v -384 0 0
v -416 -32 0
v -448 -32 0
v -448 0 0
v -416 0 0
v -448 -32 0
v -480 -32 0
v -480 0 0
v -448 0 0
v -480 -32 0
v -512 -32 0
v -512 0 0
v -480 0 0
v 0 -64 0
v -32 -64 0
v -32 -32 0
v 0 -32 0
v -32 -64 0
v -64 -64 0
v -64 -32 0
v -32 -32 0
v -64 -64 0
v -96 -64 0
v -96 -32 0
v -64 -32 0
v -96 -64 0
v -128 -64 0
v -128 -32 0
v -96 -32 0
v -128 -64 0
v -160 -64 0
v -160 -32 0
v -128 -32 0
v -160 -64 0
v -192 -64 0
v -192 -32 0
v -160 -32 0
v -192 -64 0
v -224 -64 0
v -224 -32 0
v -192 -32 0
v -224 -64 0
v -256 -64 0
v -256 -32 0
v -224 -32 0
v -256 -64 0
v -288 -64 0
v -288 -32 0
v -256 -32 0
v -288 -64 0
v -320 -64 0
v -320 -32 0
v -288 -32 0
v -320 -64 0
v -352 -64 0
v -352 -32 0
v -320 -32 0
v -352 -64 0
v -384 -64 0
v -384 -32 0
v -352 -32 0
v -384 -64 0
v -416 -64 0
v -416 -32 0
v -384 -32 0
v -416 -64 0
v -448 -64 0
v -448 -32 0
v -416 -32 0
v -448 -64 0
v -480 -64 0
v -480 -32 0
v -448 -32 0
v -480 -64 0
v -512 -64 0
v -512 -32 0
v -480 -32 0
v 0 -96 0
v -32 -96 0
v -32 -64 0
v 0 -64 0
v -32 -96 0
v -64 -96 0
v -64 -64 0
v -32 -64 0
v -64 -96 0
v -96 -96 0
v -96 -64 0
v -64 -64 0
v -96 -96 0
v -128 -96 0
v -128 -64 0
v -96 -64 0
v -128 -96 0
v -160 -96 0
v -160 -64 0
v -128 -64 0
v -160 -96 0
v -192 -96 0
v -192 -64 0
v -160 -64 0
v -192 -96 0
v -224 -96 0
v -224 -64 0
v -192 -64 0
v -224 -96 0
v -256 -96 0
v -256 -64 0
v -224 -64 0
v -256 -96 0
v -288 -96 0
v -288 -64 0
v -256 -64 0
v -288 -96 0
v -320 -96 0
v -320 -64 0
v -288 -64 0
v -320 -96 0
v -352 -96 0
v -352 -64 0
v -320 -64 0
v -352 -96 0
v -384 -96 0
v -384 -64 0
v -352 -64 0
v -384 -96 0
v -416 -96 0
v -416 -64 0
v -384 -64 0
v -416 -96 0
v -448 -96 0
v -448 -64 0
v -416 -64 0
v -448 -96 0
v -480 -96 0
v -480 -64 0
v -448 -64 0
v -480 -96 0
v -512 -96 0
v -512 -64 0
v -480 -64 0
v 0 -128 0
v -32 -128 0
v -32 -96 0
v 0 -96 0
v -32 -128 0
v -64 -128 0
v -64 -96 0
v -32 -96 0
v -64 -128 0
v -96 -128 0
v -96 -96 0
v -64 -96 0
v -96 -128 0
v -128 -128 0
v -128 -96 0
v -96 -96 0
v -128 -128 0
v -160 -128 0
v -160 -96 0
v -128 -96 0
v -160 -128 0
v -192 -128 0
v -192 -96 0
v -160 -96 0
v -192 -128 0
v -224 -128 0
v -224 -96 0
v -192 -96 0
v -224 -128 0
v -256 -128 0
v -256 -96 0
v -224 -96 0
v -256 -128 0
v -288 -128 0
v -288 -96 0
v -256 -96 0
v -288 -128 0
v -320 -128 0
v -320 -96 0
v -288 -96 0
v -320 -128 0
v -352 -128 0
v -352 -96 0
v -320 -96 0
v -352 -128 0
v -384 -128 0
v -384 -96 0
v -352 -96 0
v -384 -128 0
v -416 -128 0
v -416 -96 0
v -384 -96 0
v -416 -128 0
v -448 -128 0
v -448 -96 0
v -416 -96 0
v -448 -128 0
v -480 -128 0
v -480 -96 0
v -448 -96 0
v -480 -128 0
v -512 -128 0
v -512 -96 0
v -480 -96 0
v 0 -160 0
v -32 -160 0
v -32 -128 0
v 0 -128 0
v -32 -160 0
v -64 -160 0
v -64 -128 0
v -32 -128 0
v -64 -160 0
v -96 -160 0
v -96 -128 0
v -64 -128 0
v -96 -160 0
v -128 -160 0
v -128 -128 0
v -96 -128 0
v -128 -160 0
v -160 -160 0
v -160 -128 0
v -128 -128 0
v -160 -160 0
v -192 -160 0
v -192 -128 0
v -160 -128 0
v -192 -160 0
v -224 -160 0
v -224 -128 0
v -192 -128 0
v -224 -160 0
v -256 -160 0
v -256 -128 0
v -224 -128 0
v -256 -160 0
v -288 -160 0
v -288 -128 0
v -256 -128 0
v -288 -160 0
v -320 -160 0
v -320 -128 0
v -288 -128 0
v -320 -160 0
v -352 -160 0
v -352 -128 0
v -320 -128 0
v -352 -160 0
v -384 -160 0
v -384 -128 0
v -352 -128 0
v -384 -160 0
v -416 -160 0
v -416 -128 0
v -384 -128 0
v -416 -160 0
v -448 -160 0
v -448 -128 0
v -416 -128 0
v -448 -160 0
v -480 -160 0
v -480 -128 0
v -448 -128 0
v -480 -160 0
v -512 -160 0
v -512 -128 0
v -480 -128 0
v 0 -192 0
v -32 -192 0
v -32 -160 0
v 0 -160 0
v -32 -192 0
v -64 -192 0
v -64 -160 0
v -32 -160 0
v -64 -192 0
v -96 -192 0
v -96 -160 0
v -64 -160 0
v -96 -192 0
v -128 -192 0
v -128 -160 0
v -96 -160 0
v -128 -192 0
v -160 -192 0
v -160 -160 0
v -128 -160 0
v -160 -192 0
v -192 -192 0
v -192 -160 0
v -160 -160 0
v -192 -192 0
v -224 -192 0
v -224 -160 0
v -192 -160 0
v -224 -192 0
v -256 -192 0
v -256 -160 0
v -224 -160 0
v -256 -192 0
v -288 -192 0
v -288 -160 0
v -256 -160 0
v -288 -192 0
v -320 -192 0
v -320 -160 0
v -288 -160 0
v -320 -192 0
v -352 -192 0
v -352 -160 0
v -320 -160 0
v -352 -192 0
v -384 -192 0
v -384 -160 0
v -352 -160 0
v -384 -192 0
v -416 -192 0
v -416 -160 0
v -384 -160 0
v -416 -192 0
v -448 -192 0
v -448 -160 0
v -416 -160 0
v -448 -192 0
v -480 -192 0
v -480 -160 0
v -448 -160 0
v -480 -192 0
v -512 -192 0
v -512 -160 0
v -480 -160 0
v 0 -224 0
v -32 -224 0
v -32 -192 0
v 0 -192 0
v -32 -224 0
v -64 -224 0
v -64 -192 0
v -32 -192 0
v -64 -224 0
v -96 -224 0
v -96 -192 0
v -64 -192 0
v -96 -224 0
v -128 -224 0
v -128 -192 0
v -96 -192 0
v -128 -224 0
v -160 -224 0
v -160 -192 0
v -128 -192 0
v -160 -224 0
v -192 -224 0
v -192 -192 0
v -160 -192 0
v -192 -224 0
v -224 -224 0
v -224 -192 0
v -192 -192 0
v -224 -224 0
v -256 -224 0
v -256 -192 0
v -224 -192 0
v -256 -224 0
v -288 -224 0
v -288 -192 0
v -256 -192 0
v -288 -224 0
v -320 -224 0
v -320 -192 0
v -288 -192 0
v -320 -224 0
v -352 -224 0
v -352 -192 0
v -320 -192 0
v -352 -224 0
v -384 -224 0
v -384 -192 0
v -352 -192 0
v -384 -224 0
v -416 -224 0
v -416 -192 0
v -384 -192 0
v -416 -224 0
v -448 -224 0
v -448 -192 0
v -416 -192 0
v -448 -224 0
v -480 -224 0
v -480 -192 0
v -448 -192 0
v -480 -224 0
v -512 -224 0
v -512 -192 0
v -480 -192 0
v 0 -256 0
v -32 -256 0
v -32 -224 0
v 0 -224 0
v -32 -256 0
v -64 -256 0
v -64 -224 0
v -32 -224 0
v -64 -256 0
v -96 -256 0
v -96 -224 0
v -64 -224 0
v -96 -256 0
v -128 -256 0
v -128 -224 0
v -96 -224 0
v -128 -256 0
v -160 -256 0
v -160 -224 0
v -128 -224 0
v -160 -256 0
v -192 -256 0
v -192 -224 0
v -160 -224 0
v -192 -256 0
v -224 -256 0
v -224 -224 0
v -192 -224 0
v -224 -256 0
v -256 -256 0
v -256 -224 0
v -224 -224 0
v -256 -256 0
v -288 -256 0
v -288 -224 0
v -256 -224 0
v -288 -256 0
v -320 -256 0
v -320 -224 0
v -288 -224 0
v -320 -256 0
v -352 -256 0
v -352 -224 0
v -320 -224 0
v -352 -256 0
v -384 -256 0
v -384 -224 0
v -352 -224 0
v -384 -256 0
v -416 -256 0
v -416 -224 0
v -384 -224 0
v -416 -256 0
v -448 -256 0
v -448 -224 0
v -416 -224 0
v -448 -256 0
v -480 -256 0
v -480 -224 0
v -448 -224 0
v -480 -256 0
v -512 -256 0
v -512 -224 0
v -480 -224 0
v 0 -288 0
v -32 -288 0
v -32 -256 0
v 0 -256 0
v -32 -288 0
v -64 -288 0
v -64 -256 0
v -32 -256 0
v -64 -288 0
v -96 -288 0
v -96 -256 0
v -64 -256 0
v -96 -288 0
v -128 -288 0
v -128 -256 0
v -96 -256 0
v -128 -288 0
v -160 -288 0
v -160 -256 0
v -128 -256 0
v -160 -288 0
v -192 -288 0
v -192 -256 0
v -160 -256 0
v -192 -288 0
v -224 -288 0
v -224 -256 0
v -192 -256 0
v -224 -288 0
v -256 -288 0
v -256 -256 0
v -224 -256 0
v -256 -288 0
v -288 -288 0
v -288 -256 0
v -256 -256 0
v -288 -288 0
v -320 -288 0
v -320 -256 0
v -288 -256 0
v -320 -288 0
v -352 -288 0
v -352 -256 0
v -320 -256 0
v -352 -288 0
v -384 -288 0
v -384 -256 0
v -352 -256 0
v -384 -288 0
v -416 -288 0
v -416 -256 0
v -384 -256 0
v -416 -288 0
v -448 -288 0
v -448 -256 0
v -416 -256 0
v -448 -288 0
v -480 -288 0
v -480 -256 0
v -448 -256 0
v -480 -288 0
v -512 -288 0
v -512 -256 0
v -480 -256 0
v 0 -320 0
v -32 -320 0
v -32 -288 0
v 0 -288 0
v -32 -320 0
v -64 -320 0
v -64 -288 0
v -32 -288 0
v -64 -320 0
v -96 -320 0
v -96 -288 0
v -64 -288 0
v -96 -320 0
v -128 -320 0
v -128 -288 0
v -96 -288 0
v -128 -320 0
v -160 -320 0
v -160 -288 0
v -128 -288 0
v -160 -320 0
v -192 -320 0
v -192 -288 0
v -160 -288 0
v -192 -320 0
v -224 -320 0
v -224 -288 0
v -192 -288 0
v -224 -320 0
v -256 -320 0
v -256 -288 0
v -224 -288 0
v -256 -320 0
v -288 -320 0
v -288 -288 0
v -256 -288 0
v -288 -320 0
v -320 -320 0
v -320 -288 0
v -288 -288 0
v -320 -320 0
v -352 -320 0
v -352 -288 0
v -320 -288 0
v -352 -320 0
v -384 -320 0
v -384 -288 0
v -352 -288 0
v -384 -320 0
v -416 -320 0
v -416 -288 0
v -384 -288 0
v -416 -320 0
v -448 -320 0
v -448 -288 0
v -416 -288 0
v -448 -320 0
v -480 -320 0
v -480 -288 0
v -448 -288 0
v -480 -320 0
v -512 -320 0
v -512 -288 0
v -480 -288 0
v 0 -352 0
v -32 -352 0
v -32 -320 0
v 0 -320 0
v -32 -352 0
v -64 -352 0
v -64 -320 0
v -32 -320 0
v -64 -352 0
v -96 -352 0
v -96 -320 0
v -64 -320 0
v -96 -352 0
v -128 -352 0
v -128 -320 0
v -96 -320 0
v -128 -352 0
v -160 -352 0
v -160 -320 0
v -128 -320 0
v -160 -352 0
v -192 -352 0
v -192 -320 0
v -160 -320 0
v -192 -352 0
v -224 -352 0
v -224 -320 0
v -192 -320 0
v -224 -352 0
v -256 -352 0
v -256 -320 0
v -224 -320 0
v -256 -352 0
v -288 -352 0
v -288 -320 0
v -256 -320 0
v -288 -352 0
v -320 -352 0
v -320 -320 0
v -288 -320 0
v -320 -352 0
v -352 -352 0
v -352 -320 0
v -320 -320 0
v -352 -352 0
v -384 -352 0
v -384 -320 0
v -352 -320 0
v -384 -352 0
v -416 -352 0
v -416 -320 0
v -384 -320 0
v -416 -352 0
v -448 -352 0
v -448 -320 0
v -416 -320 0
v -448 -352 0
v -480 -352 0
v -480 -320 0
v -448 -320 0
v -480 -352 0
v -512 -352 0
v -512 -320 0
v -480 -320 0
v 0 -384 0
v -32 -384 0
v -32 -352 0
v 0 -352 0
v -32 -384 0
v -64 -384 0
v -64 -352 0
v -32 -352 0
v -64 -384 0
v -96 -384 0
v -96 -352 0
v -64 -352 0
v -96 -384 0
v -128 -384 0
v -128 -352 0
v -96 -352 0
v -128 -384 0
v -160 -384 0
v -160 -352 0
v -128 -352 0
v -160 -384 0
v -192 -384 0
v -192 -352 0
v -160 -352 0
v -192 -384 0
v -224 -384 0
v -224 -352 0
v -192 -352 0
v -224 -384 0
v -256 -384 0
v -256 -352 0
v -224 -352 0
v -256 -384 0
v -288 -384 0
v -288 -352 0
v -256 -352 0
v -288 -384 0
v -320 -384 0
v -320 -352 0
v -288 -352 0
v -320 -384 0
v -352 -384 0
v -352 -352 0
v -320 -352 0
v -352 -384 0
v -384 -384 0
v -384 -352 0
v -352 -352 0
v -384 -384 0
v -416 -384 0
v -416 -352 0
v -384 -352 0
v -416 -384 0
v -448 -384 0
v -448 -352 0
v -416 -352 0
v -448 -384 0
v -480 -384 0
v -480 -352 0
v -448 -352 0
v -480 -384 0
v -512 -384 0
v -512 -352 0
v -480 -352 0
v 0 -416 0
v -32 -416 0
v -32 -384 0
v 0 -384 0
v -32 -416 0
v -64 -416 0
v -64 -384 0
v -32 -384 0
v -64 -416 0
v -96 -416 0
v -96 -384 0
v -64 -384 0
v -96 -416 0
v -128 -416 0
v -128 -384 0
v -96 -384 0
v -128 -416 0
v -160 -416 0
v -160 -384 0
v -128 -384 0
v -160 -416 0
v -192 -416 0
v -192 -384 0
v -160 -384 0
v -192 -416 0
v -224 -416 0
v -224 -384 0
v -192 -384 0
v -224 -416 0
v -256 -416 0
v -256 -384 0
v -224 -384 0
v -256 -416 0
v -288 -416 0
v -288 -384 0
v -256 -384 0
v -288 -416 0
v -320 -416 0
v -320 -384 0
v -288 -384 0
v -320 -416 0
v -352 -416 0
v -352 -384 0
v -320 -384 0
v -352 -416 0
v -384 -416 0
v -384 -384 0
v -352 -384 0
v -384 -416 0
v -416 -416 0
v -416 -384 0
v -384 -384 0
v -416 -416 0
v -448 -416 0
v -448 -384 0
v -416 -384 0
v -448 -416 0
v -480 -416 0
v -480 -384 0
v -448 -384 0
v -480 -416 0
v -512 -416 0
v -512 -384 0
v -480 -384 0
v 0 -448 0
v -32 -448 0
v -32 -416 0
v 0 -416 0
v -32 -448 0
v -64 -448 0
v -64 -416 0
v -32 -416 0
v -64 -448 0
v -96 -448 0
v -96 -416 0
v -64 -416 0
v -96 -448 0
v -128 -448 0
v -128 -416 0
v -96 -416 0
v -128 -448 0
v -160 -448 0
v -160 -416 0
v -128 -416 0
v -160 -448 0
v -192 -448 0
v -192 -416 0
v -160 -416 0
v -192 -448 0
v -224 -448 0
v -224 -416 0
v -192 -416 0
v -224 -448 0
v -256 -448 0
v -256 -416 0
v -224 -416 0
v -256 -448 0
v -288 -448 0
v -288 -416 0
v -256 -416 0
v -288 -448 0
v -320 -448 0
v -320 -416 0
v -288 -416 0
v -320 -448 0
v -352 -448 0
v -352 -416 0
v -320 -416 0
v -352 -448 0
v -384 -448 0
v -384 -416 0
v -352 -416 0
v -384 -448 0
v -416 -448 0
v -416 -416 0
v -384 -416 0
v -416 -448 0
v -448 -448 0
v -448 -416 0
v -416 -416 0
v -448 -448 0
v -480 -448 0
v -480 -416 0
v -448 -416 0
v -480 -448 0
v -512 -448 0
v -512 -416 0
v -480 -416 0
v 0 -480 0
v -32 -480 0
v -32 -448 0
v 0 -448 0
v -32 -480 0
v -64 -480 0
v -64 -448 0
v -32 -448 0
v -64 -480 0
v -96 -480 0
v -96 -448 0
v -64 -448 0
v -96 -480 0
v -128 -480 0
v -128 -448 0
v -96 -448 0
v -128 -480 0
v -160 -480 0
v -160 -448 0
v -128 -448 0
v -160 -480 0
v -192 -480 0
v -192 -448 0
v -160 -448 0
v -192 -480 0
v -224 -480 0
v -224 -448 0
v -192 -448 0
v -224 -480 0
v -256 -480 0
v -256 -448 0
v -224 -448 0
v -256 -480 0
v -288 -480 0
v -288 -448 0
v -256 -448 0
v -288 -480 0
v -320 -480 0
v -320 -448 0
v -288 -448 0
v -320 -480 0
v -352 -480 0
v -352 -448 0
v -320 -448 0
v -352 -480 0
v -384 -480 0
v -384 -448 0
v -352 -448 0
v -384 -480 0
v -416 -480 0
v -416 -448 0
v -384 -448 0
v -416 -480 0
v -448 -480 0
v -448 -448 0
v -416 -448 0
v -448 -480 0
v -480 -480 0
v -480 -448 0
v -448 -448 0
v -480 -480 0
v -512 -480 0
v -512 -448 0
v -480 -448 0
v 0 -512 0
v -32 -512 0
v -32 -480 0
v 0 -480 0
v -32 -512 0
v -64 -512 0
v -64 -480 0
v -32 -480 0
v -64 -512 0
v -96 -512 0
v -96 -480 0
v -64 -480 0
v -96 -512 0
v -128 -512 0
v -128 -480 0
v -96 -480 0
v -128 -512 0
v -160 -512 0
v -160 -480 0
v -128 -480 0
v -160 -512 0
v -192 -512 0
v -192 -480 0
v -160 -480 0
v -192 -512 0
v -224 -512 0
v -224 -480 0
v -192 -480 0
v -224 -512 0
v -256 -512 0
v -256 -480 0
v -224 -480 0
v -256 -512 0
v -288 -512 0
v -288 -480 0
v -256 -480 0
v -288 -512 0
v -320 -512 0
v -320 -480 0
v -288 -480 0
v -320 -512 0
v -352 -512 0
v -352 -480 0
v -320 -480 0
v -352 -512 0
v -384 -512 0
v -384 -480 0
v -352 -480 0
v -384 -512 0
v -416 -512 0
v -416 -480 0
v -384 -480 0
v -416 -512 0
v -448 -512 0
v -448 -480 0
v -416 -480 0
v -448 -512 0
v -480 -512 0
v -480 -480 0
v -448 -480 0
v -480 -512 0
v -512 -512 0
v -512 -480 0
v -480 -480 0

# Texture cooridinates (Count = 23)
vt 0.875 0.875
vt 0.90625 0.875
vt 0.90625 0.9375
vt 0.875 0.9375
vt 0.9375 0.875
vt 0.9375 0.9375
vt 0.96875 0.875
vt 0.96875 0.9375
vt 1 0.875
vt 1 0.9375
vt 0.28125 0
vt 0.3125 0
vt 0.3125 0.0625
vt 0.28125 0.0625
vt 0.4375 0.5
vt 0.46875 0.5
vt 0.46875 0.5625
vt 0.4375 0.5625
vt 0.5 0.5
vt 0.5 0.5625
vt 0.4375 0.4375
vt 0.46875 0.4375
vt 0.5 0.4375

# Normal
vn 0 0 -1

# Mesh description
g myMap_mesh_0124

# Faces
f 1/1/1 2/2/1 3/3/1 4/4/1
f 5/2/1 6/5/1 7/6/1 8/3/1
f 9/5/1 10/7/1 11/8/1 12/6/1
f 13/7/1 14/9/1 15/10/1 16/8/1
f 17/11/1 18/12/1 19/13/1 20/14/1
f 21/11/1 22/12/1 23/13/1 24/14/1
f 25/11/1 26/12/1 27/13/1 28/14/1
f 29/11/1 30/12/1 31/13/1 32/14/1
f 33/11/1 34/12/1 35/13/1 36/14/1
f 37/11/1 38/12/1 39/13/1 40/14/1
f 41/11/1 42/12/1 43/13/1 44/14/1
f 45/11/1 46/12/1 47/13/1 48/14/1
f 49/11/1 50/12/1 51/13/1 52/14/1
f 53/11/1 54/12/1 55/13/1 56/14/1
f 57/11/1 58/12/1 59/13/1 60/14/1
f 61/11/1 62/12/1 63/13/1 64/14/1
f 65/15/1 66/16/1 67/17/1 68/18/1
f 69/15/1 70/16/1 71/17/1 72/18/1
f 73/15/1 74/16/1 75/17/1 76/18/1
f 77/16/1 78/19/1 79/20/1 80/17/1
f 81/11/1 82/12/1 83/13/1 84/14/1
f 85/11/1 86/12/1 87/13/1 88/14/1
f 89/11/1 90/12/1 91/13/1 92/14/1
f 93/11/1 94/12/1 95/13/1 96/14/1
f 97/11/1 98/12/1 99/13/1 100/14/1
f 101/11/1 102/12/1 103/13/1 104/14/1
f 105/11/1 106/12/1 107/13/1 108/14/1
f 109/11/1 110/12/1 111/13/1 112/14/1
f 113/11/1 114/12/1 115/13/1 116/14/1
f 117/11/1 118/12/1 119/13/1 120/14/1
f 121/11/1 122/12/1 123/13/1 124/14/1
f 125/11/1 126/12/1 127/13/1 128/14/1
f 129/21/1 130/22/1 131/16/1 132/15/1
f 133/21/1 134/22/1 135/16/1 136/15/1
f 137/21/1 138/22/1 139/16/1 140/15/1
f 141/22/1 142/23/1 143/19/1 144/16/1
f 145/11/1 146/12/1 147/13/1 148/14/1
f 149/11/1 150/12/1 151/13/1 152/14/1
f 153/11/1 154/12/1 155/13/1 156/14/1
f 157/11/1 158/12/1 159/13/1 160/14/1
f 161/11/1 162/12/1 163/13/1 164/14/1
f 165/11/1 166/12/1 167/13/1 168/14/1
f 169/11/1 170/12/1 171/13/1 172/14/1
f 173/11/1 174/12/1 175/13/1 176/14/1
f 177/11/1 178/12/1 179/13/1 180/14/1
f 181/11/1 182/12/1 183/13/1 184/14/1
f 185/11/1 186/12/1 187/13/1 188/14/1
f 189/11/1 190/12/1 191/13/1 192/14/1
f 193/21/1 194/22/1 195/16/1 196/15/1
f 197/21/1 198/22/1 199/16/1 200/15/1
f 201/21/1 202/22/1 203/16/1 204/15/1
f 205/22/1 206/23/1 207/19/1 208/16/1
f 209/11/1 210/12/1 211/13/1 212/14/1
f 213/11/1 214/12/1 215/13/1 216/14/1
f 217/11/1 218/12/1 219/13/1 220/14/1
f 221/11/1 222/12/1 223/13/1 224/14/1
f 225/11/1 226/12/1 227/13/1 228/14/1
f 229/11/1 230/12/1 231/13/1 232/14/1
f 233/11/1 234/12/1 235/13/1 236/14/1
f 237/11/1 238/12/1 239/13/1 240/14/1
f 241/11/1 242/12/1 243/13/1 244/14/1
f 245/11/1 246/12/1 247/13/1 248/14/1
f 249/11/1 250/12/1 251/13/1 252/14/1
f 253/11/1 254/12/1 255/13/1 256/14/1
f 257/21/1 258/22/1 259/16/1 260/15/1
f 261/21/1 262/22/1 263/16/1 264/15/1
f 265/21/1 266/22/1 267/16/1 268/15/1
f 269/22/1 270/23/1 271/19/1 272/16/1
f 273/11/1 274/12/1 275/13/1 276/14/1
f 277/11/1 278/12/1 279/13/1 280/14/1
f 281/11/1 282/12/1 283/13/1 284/14/1
f 285/11/1 286/12/1 287/13/1 288/14/1
f 289/11/1 290/12/1 291/13/1 292/14/1
f 293/11/1 294/12/1 295/13/1 296/14/1
f 297/11/1 298/12/1 299/13/1 300/14/1
f 301/11/1 302/12/1 303/13/1 304/14/1
f 305/11/1 306/12/1 307/13/1 308/14/1
f 309/11/1 310/12/1 311/13/1 312/14/1
f 313/11/1 314/12/1 315/13/1 316/14/1
f 317/11/1 318/12/1 319/13/1 320/14/1
f 321/21/1 322/22/1 323/16/1 324/15/1
f 325/21/1 326/22/1 327/16/1 328/15/1
f 329/21/1 330/22/1 331/16/1 332/15/1
f 333/22/1 334/23/1 335/19/1 336/16/1
f 337/11/1 338/12/1 339/13/1 340/14/1
f 341/11/1 342/12/1 343/13/1 344/14/1
f 345/11/1 346/12/1 347/13/1 348/14/1
f 349/11/1 350/12/1 351/13/1 352/14/1
f 353/11/1 354/12/1 355/13/1 356/14/1
f 357/11/1 358/12/1 359/13/1 360/14/1
f 361/11/1 362/12/1 363/13/1 364/14/1
f 365/11/1 366/12/1 367/13/1 368/14/1
f 369/11/1 370/12/1 371/13/1 372/14/1
f 373/11/1 374/12/1 375/13/1 376/14/1
f 377/11/1 378/12/1 379/13/1 380/14/1
f 381/11/1 382/12/1 383/13/1 384/14/1
f 385/21/1 386/22/1 387/16/1 388/15/1
f 389/21/1 390/22/1 391/16/1 392/15/1
f 393/21/1 394/22/1 395/16/1 396/15/1
f 397/22/1 398/23/1 399/19/1 400/16/1
f 401/11/1 402/12/1 403/13/1 404/14/1
f 405/11/1 406/12/1 407/13/1 408/14/1
f 409/11/1 410/12/1 411/13/1 412/14/1
f 413/11/1 414/12/1 415/13/1 416/14/1
f 417/11/1 418/12/1 419/13/1 420/14/1
f 421/11/1 422/12/1 423/13/1 424/14/1
f 425/11/1 426/12/1 427/13/1 428/14/1
f 429/11/1 430/12/1 431/13/1 432/14/1
f 433/11/1 434/12/1 435/13/1 436/14/1
f 437/11/1 438/12/1 439/13/1 440/14/1
f 441/11/1 442/12/1 443/13/1 444/14/1
f 445/11/1 446/12/1 447/13/1 448/14/1
f 449/21/1 450/22/1 451/16/1 452/15/1
f 453/21/1 454/22/1 455/16/1 456/15/1
f 457/21/1 458/22/1 459/16/1 460/15/1
f 461/22/1 462/23/1 463/19/1 464/16/1
f 465/11/1 466/12/1 467/13/1 468/14/1
f 469/11/1 470/12/1 471/13/1 472/14/1
f 473/11/1 474/12/1 475/13/1 476/14/1
f 477/11/1 478/12/1 479/13/1 480/14/1
f 481/11/1 482/12/1 483/13/1 484/14/1
f 485/11/1 486/12/1 487/13/1 488/14/1
f 489/11/1 490/12/1 491/13/1 492/14/1
f 493/11/1 494/12/1 495/13/1 496/14/1
f 497/11/1 498/12/1 499/13/1 500/14/1
f 501/11/1 502/12/1 503/13/1 504/14/1
f 505/11/1 506/12/1 507/13/1 508/14/1
f 509/11/1 510/12/1 511/13/1 512/14/1
f 513/21/1 514/22/1 515/16/1 516/15/1
f 517/21/1 518/22/1 519/16/1 520/15/1
f 521/21/1 522/22/1 523/16/1 524/15/1
f 525/22/1 526/23/1 527/19/1 528/16/1
f 529/11/1 530/12/1 531/13/1 532/14/1
f 533/11/1 534/12/1 535/13/1 536/14/1
f 537/11/1 538/12/1 539/13/1 540/14/1
f 541/11/1 542/12/1 543/13/1 544/14/1
f 545/11/1 546/12/1 547/13/1 548/14/1
f 549/11/1 550/12/1 551/13/1 552/14/1
f 553/11/1 554/12/1 555/13/1 556/14/1
f 557/11/1 558/12/1 559/13/1 560/14/1
f 561/11/1 562/12/1 563/13/1 564/14/1
f 565/11/1 566/12/1 567/13/1 568/14/1
f 569/11/1 570/12/1 571/13/1 572/14/1
f 573/11/1 574/12/1 575/13/1 576/14/1
f 577/21/1 578/22/1 579/16/1 580/15/1
f 581/21/1 582/22/1 583/16/1 584/15/1
f 585/21/1 586/22/1 587/16/1 588/15/1
f 589/22/1 590/23/1 591/19/1 592/16/1
f 593/11/1 594/12/1 595/13/1 596/14/1
f 597/11/1 598/12/1 599/13/1 600/14/1
f 601/11/1 602/12/1 603/13/1 604/14/1
f 605/11/1 606/12/1 607/13/1 608/14/1
f 609/11/1 610/12/1 611/13/1 612/14/1
f 613/11/1 614/12/1 615/13/1 616/14/1
f 617/11/1 618/12/1 619/13/1 620/14/1
f 621/11/1 622/12/1 623/13/1 624/14/1
f 625/11/1 626/12/1 627/13/1 628/14/1
f 629/11/1 630/12/1 631/13/1 632/14/1
f 633/11/1 634/12/1 635/13/1 636/14/1
f 637/11/1 638/12/1 639/13/1 640/14/1
f 641/21/1 642/22/1 643/16/1 644/15/1
f 645/21/1 646/22/1 647/16/1 648/15/1
f 649/21/1 650/22/1 651/16/1 652/15/1
f 653/22/1 654/23/1 655/19/1 656/16/1
f 657/11/1 658/12/1 659/13/1 660/14/1
f 661/11/1 662/12/1 663/13/1 664/14/1
f 665/11/1 666/12/1 667/13/1 668/14/1
f 669/11/1 670/12/1 671/13/1 672/14/1
f 673/11/1 674/12/1 675/13/1 676/14/1
f 677/11/1 678/12/1 679/13/1 680/14/1
f 681/11/1 682/12/1 683/13/1 684/14/1
f 685/11/1 686/12/1 687/13/1 688/14/1
f 689/11/1 690/12/1 691/13/1 692/14/1
f 693/11/1 694/12/1 695/13/1 696/14/1
f 697/11/1 698/12/1 699/13/1 700/14/1
f 701/11/1 702/12/1 703/13/1 704/14/1
f 705/21/1 706/22/1 707/16/1 708/15/1
f 709/21/1 710/22/1 711/16/1 712/15/1
f 713/21/1 714/22/1 715/16/1 716/15/1
f 717/22/1 718/23/1 719/19/1 720/16/1
f 721/11/1 722/12/1 723/13/1 724/14/1
f 725/11/1 726/12/1 727/13/1 728/14/1
f 729/11/1 730/12/1 731/13/1 732/14/1
f 733/11/1 734/12/1 735/13/1 736/14/1
f 737/11/1 738/12/1 739/13/1 740/14/1
f 741/11/1 742/12/1 743/13/1 744/14/1
f 745/11/1 746/12/1 747/13/1 748/14/1
f 749/11/1 750/12/1 751/13/1 752/14/1
f 753/11/1 754/12/1 755/13/1 756/14/1
f 757/11/1 758/12/1 759/13/1 760/14/1
f 761/11/1 762/12/1 763/13/1 764/14/1
f 765/11/1 766/12/1 767/13/1 768/14/1
f 769/21/1 770/22/1 771/16/1 772/15/1
f 773/21/1 774/22/1 775/16/1 776/15/1
f 777/21/1 778/22/1 779/16/1 780/15/1
f 781/22/1 782/23/1 783/19/1 784/16/1
f 785/11/1 786/12/1 787/13/1 788/14/1
f 789/11/1 790/12/1 791/13/1 792/14/1
f 793/11/1 794/12/1 795/13/1 796/14/1
f 797/11/1 798/12/1 799/13/1 800/14/1
f 801/11/1 802/12/1 803/13/1 804/14/1
f 805/11/1 806/12/1 807/13/1 808/14/1
f 809/11/1 810/12/1 811/13/1 812/14/1
f 813/11/1 814/12/1 815/13/1 816/14/1
f 817/11/1 818/12/1 819/13/1 820/14/1
f 821/11/1 822/12/1 823/13/1 824/14/1
f 825/11/1 826/12/1 827/13/1 828/14/1
f 829/11/1 830/12/1 831/13/1 832/14/1
f 833/21/1 834/22/1 835/16/1 836/15/1
f 837/21/1 838/22/1 839/16/1 840/15/1
f 841/21/1 842/22/1 843/16/1 844/15/1
f 845/22/1 846/23/1 847/19/1 848/16/1
f 849/11/1 850/12/1 851/13/1 852/14/1
f 853/11/1 854/12/1 855/13/1 856/14/1
f 857/11/1 858/12/1 859/13/1 860/14/1
f 861/11/1 862/12/1 863/13/1 864/14/1
f 865/11/1 866/12/1 867/13/1 868/14/1
f 869/11/1 870/12/1 871/13/1 872/14/1
f 873/11/1 874/12/1 875/13/1 876/14/1
f 877/11/1 878/12/1 879/13/1 880/14/1
f 881/11/1 882/12/1 883/13/1 884/14/1
f 885/11/1 886/12/1 887/13/1 888/14/1
f 889/11/1 890/12/1 891/13/1 892/14/1
f 893/11/1 894/12/1 895/13/1 896/14/1
f 897/21/1 898/22/1 899/16/1 900/15/1
f 901/21/1 902/22/1 903/16/1 904/15/1
f 905/21/1 906/22/1 907/16/1 908/15/1
f 909/22/1 910/23/1 911/19/1 912/16/1
f 913/11/1 914/12/1 915/13/1 916/14/1
f 917/11/1 918/12/1 919/13/1 920/14/1
f 921/11/1 922/12/1 923/13/1 924/14/1
f 925/11/1 926/12/1 927/13/1 928/14/1
f 929/11/1 930/12/1 931/13/1 932/14/1
f 933/11/1 934/12/1 935/13/1 936/14/1
f 937/11/1 938/12/1 939/13/1 940/14/1
f 941/11/1 942/12/1 943/13/1 944/14/1
f 945/11/1 946/12/1 947/13/1 948/14/1
f 949/11/1 950/12/1 951/13/1 952/14/1
f 953/11/1 954/12/1 955/13/1 956/14/1
f 957/11/1 958/12/1 959/13/1 960/14/1
f 961/21/1 962/22/1 963/16/1 964/15/1
f 965/21/1 966/22/1 967/16/1 968/15/1
f 969/21/1 970/22/1 971/16/1 972/15/1
f 973/22/1 974/23/1 975/19/1 976/16/1
f 977/11/1 978/12/1 979/13/1 980/14/1
f 981/11/1 982/12/1 983/13/1 984/14/1
f 985/11/1 986/12/1 987/13/1 988/14/1
f 989/11/1 990/12/1 991/13/1 992/14/1
f 993/11/1 994/12/1 995/13/1 996/14/1
f 997/11/1 998/12/1 999/13/1 1000/14/1
f 1001/11/1 1002/12/1 1003/13/1 1004/14/1
f 1005/11/1 1006/12/1 1007/13/1 1008/14/1
f 1009/11/1 1010/12/1 1011/13/1 1012/14/1
f 1013/11/1 1014/12/1 1015/13/1 1016/14/1
f 1017/11/1 1018/12/1 1019/13/1 1020/14/1
f 1021/11/1 1022/12/1 1023/13/1 1024/14/1

