# Tiled2Unity generated file. Do not modify by hand.
# Wavefront file for 'myMap_mesh_0337.obj'

# Vertices (Count = 12)
v -480 -480 0
v -512 -480 0
v -512 -448 0
v -480 -448 0
v -448 -512 0
v -480 -512 0
v -480 -480 0
v -448 -480 0
v -480 -512 0
v -512 -512 0
v -512 -480 0
v -480 -480 0

# Texture cooridinates (Count = 6)
vt 0.5 0.125
vt 0.53125 0.125
vt 0.53125 0.1875
vt 0.5 0.1875
vt 0.5 0.0625
vt 0.53125 0.0625

# Normal
vn 0 0 -1

# Mesh description
g myMap_mesh_0337

# Faces
f 1/1/1 2/2/1 3/3/1 4/4/1
f 5/1/1 6/2/1 7/3/1 8/4/1
f 9/5/1 10/6/1 11/2/1 12/1/1

