# Tiled2Unity generated file. Do not modify by hand.
# Wavefront file for 'myMap_mesh_0298.obj'

# Vertices (Count = 840)
v 0 -32 0
v -32 -32 0
v -32 0 0
v 0 0 0
v -32 -32 0
v -64 -32 0
v -64 0 0
v -32 0 0
v -256 -32 0
v -288 -32 0
v -288 0 0
v -256 0 0
v -288 -32 0
v -320 -32 0
v -320 0 0
v -288 0 0
v -320 -32 0
v -352 -32 0
v -352 0 0
v -320 0 0
v -352 -32 0
v -384 -32 0
v -384 0 0
v -352 0 0
v -384 -32 0
v -416 -32 0
v -416 0 0
v -384 0 0
v -416 -32 0
v -448 -32 0
v -448 0 0
v -416 0 0
v -448 -32 0
v -480 -32 0
v -480 0 0
v -448 0 0
v 0 -64 0
v -32 -64 0
v -32 -32 0
v 0 -32 0
v -32 -64 0
v -64 -64 0
v -64 -32 0
v -32 -32 0
v -256 -64 0
v -288 -64 0
v -288 -32 0
v -256 -32 0
v -288 -64 0
v -320 -64 0
v -320 -32 0
v -288 -32 0
v -320 -64 0
v -352 -64 0
v -352 -32 0
v -320 -32 0
v -352 -64 0
v -384 -64 0
v -384 -32 0
v -352 -32 0
v -384 -64 0
v -416 -64 0
v -416 -32 0
v -384 -32 0
v -416 -64 0
v -448 -64 0
v -448 -32 0
v -416 -32 0
v -448 -64 0
v -480 -64 0
v -480 -32 0
v -448 -32 0
v 0 -96 0
v -32 -96 0
v -32 -64 0
v 0 -64 0
v -32 -96 0
v -64 -96 0
v -64 -64 0
v -32 -64 0
v -64 -96 0
v -96 -96 0
v -96 -64 0
v -64 -64 0
v -96 -96 0
v -128 -96 0
v -128 -64 0
v -96 -64 0
v -128 -96 0
v -160 -96 0
v -160 -64 0
v -128 -64 0
v -160 -96 0
v -192 -96 0
v -192 -64 0
v -160 -64 0
v -192 -96 0
v -224 -96 0
v -224 -64 0
v -192 -64 0
v -224 -96 0
v -256 -96 0
v -256 -64 0
v -224 -64 0
v -256 -96 0
v -288 -96 0
v -288 -64 0
v -256 -64 0
v -288 -96 0
v -320 -96 0
v -320 -64 0
v -288 -64 0
v -320 -96 0
v -352 -96 0
v -352 -64 0
v -320 -64 0
v -352 -96 0
v -384 -96 0
v -384 -64 0
v -352 -64 0
v -384 -96 0
v -416 -96 0
v -416 -64 0
v -384 -64 0
v -416 -96 0
v -448 -96 0
v -448 -64 0
v -416 -64 0
v -448 -96 0
v -480 -96 0
v -480 -64 0
v -448 -64 0
v -480 -96 0
v -512 -96 0
v -512 -64 0
v -480 -64 0
v 0 -128 0
v -32 -128 0
v -32 -96 0
v 0 -96 0
v -32 -128 0
v -64 -128 0
v -64 -96 0
v -32 -96 0
v -64 -128 0
v -96 -128 0
v -96 -96 0
v -64 -96 0
v -96 -128 0
v -128 -128 0
v -128 -96 0
v -96 -96 0
v -128 -128 0
v -160 -128 0
v -160 -96 0
v -128 -96 0
v -160 -128 0
v -192 -128 0
v -192 -96 0
v -160 -96 0
v -192 -128 0
v -224 -128 0
v -224 -96 0
v -192 -96 0
v -224 -128 0
v -256 -128 0
v -256 -96 0
v -224 -96 0
v -256 -128 0
v -288 -128 0
v -288 -96 0
v -256 -96 0
v -288 -128 0
v -320 -128 0
v -320 -96 0
v -288 -96 0
v -320 -128 0
v -352 -128 0
v -352 -96 0
v -320 -96 0
v -352 -128 0
v -384 -128 0
v -384 -96 0
v -352 -96 0
v -384 -128 0
v -416 -128 0
v -416 -96 0
v -384 -96 0
v -416 -128 0
v -448 -128 0
v -448 -96 0
v -416 -96 0
v -448 -128 0
v -480 -128 0
v -480 -96 0
v -448 -96 0
v -480 -128 0
v -512 -128 0
v -512 -96 0
v -480 -96 0
v 0 -160 0
v -32 -160 0
v -32 -128 0
v 0 -128 0
v -32 -160 0
v -64 -160 0
v -64 -128 0
v -32 -128 0
v -64 -160 0
v -96 -160 0
v -96 -128 0
v -64 -128 0
v -96 -160 0
v -128 -160 0
v -128 -128 0
v -96 -128 0
v -128 -160 0
v -160 -160 0
v -160 -128 0
v -128 -128 0
v -160 -160 0
v -192 -160 0
v -192 -128 0
v -160 -128 0
v -192 -160 0
v -224 -160 0
v -224 -128 0
v -192 -128 0
v -224 -160 0
v -256 -160 0
v -256 -128 0
v -224 -128 0
v -256 -160 0
v -288 -160 0
v -288 -128 0
v -256 -128 0
v -288 -160 0
v -320 -160 0
v -320 -128 0
v -288 -128 0
v -320 -160 0
v -352 -160 0
v -352 -128 0
v -320 -128 0
v -352 -160 0
v -384 -160 0
v -384 -128 0
v -352 -128 0
v -384 -160 0
v -416 -160 0
v -416 -128 0
v -384 -128 0
v -416 -160 0
v -448 -160 0
v -448 -128 0
v -416 -128 0
v -448 -160 0
v -480 -160 0
v -480 -128 0
v -448 -128 0
v -480 -160 0
v -512 -160 0
v -512 -128 0
v -480 -128 0
v 0 -192 0
v -32 -192 0
v -32 -160 0
v 0 -160 0
v -32 -192 0
v -64 -192 0
v -64 -160 0
v -32 -160 0
v -64 -192 0
v -96 -192 0
v -96 -160 0
v -64 -160 0
v -96 -192 0
v -128 -192 0
v -128 -160 0
v -96 -160 0
v -128 -192 0
v -160 -192 0
v -160 -160 0
v -128 -160 0
v -160 -192 0
v -192 -192 0
v -192 -160 0
v -160 -160 0
v -192 -192 0
v -224 -192 0
v -224 -160 0
v -192 -160 0
v -224 -192 0
v -256 -192 0
v -256 -160 0
v -224 -160 0
v -256 -192 0
v -288 -192 0
v -288 -160 0
v -256 -160 0
v -288 -192 0
v -320 -192 0
v -320 -160 0
v -288 -160 0
v -320 -192 0
v -352 -192 0
v -352 -160 0
v -320 -160 0
v -352 -192 0
v -384 -192 0
v -384 -160 0
v -352 -160 0
v -384 -192 0
v -416 -192 0
v -416 -160 0
v -384 -160 0
v -416 -192 0
v -448 -192 0
v -448 -160 0
v -416 -160 0
v -448 -192 0
v -480 -192 0
v -480 -160 0
v -448 -160 0
v -480 -192 0
v -512 -192 0
v -512 -160 0
v -480 -160 0
v 0 -224 0
v -32 -224 0
v -32 -192 0
v 0 -192 0
v -32 -224 0
v -64 -224 0
v -64 -192 0
v -32 -192 0
v -64 -224 0
v -96 -224 0
v -96 -192 0
v -64 -192 0
v -96 -224 0
v -128 -224 0
v -128 -192 0
v -96 -192 0
v -128 -224 0
v -160 -224 0
v -160 -192 0
v -128 -192 0
v -160 -224 0
v -192 -224 0
v -192 -192 0
v -160 -192 0
v -192 -224 0
v -224 -224 0
v -224 -192 0
v -192 -192 0
v -224 -224 0
v -256 -224 0
v -256 -192 0
v -224 -192 0
v -256 -224 0
v -288 -224 0
v -288 -192 0
v -256 -192 0
v -288 -224 0
v -320 -224 0
v -320 -192 0
v -288 -192 0
v -320 -224 0
v -352 -224 0
v -352 -192 0
v -320 -192 0
v -352 -224 0
v -384 -224 0
v -384 -192 0
v -352 -192 0
v -384 -224 0
v -416 -224 0
v -416 -192 0
v -384 -192 0
v -416 -224 0
v -448 -224 0
v -448 -192 0
v -416 -192 0
v -448 -224 0
v -480 -224 0
v -480 -192 0
v -448 -192 0
v -480 -224 0
v -512 -224 0
v -512 -192 0
v -480 -192 0
v 0 -256 0
v -32 -256 0
v -32 -224 0
v 0 -224 0
v -32 -256 0
v -64 -256 0
v -64 -224 0
v -32 -224 0
v -64 -256 0
v -96 -256 0
v -96 -224 0
v -64 -224 0
v -96 -256 0
v -128 -256 0
v -128 -224 0
v -96 -224 0
v -128 -256 0
v -160 -256 0
v -160 -224 0
v -128 -224 0
v -160 -256 0
v -192 -256 0
v -192 -224 0
v -160 -224 0
v -192 -256 0
v -224 -256 0
v -224 -224 0
v -192 -224 0
v -224 -256 0
v -256 -256 0
v -256 -224 0
v -224 -224 0
v -256 -256 0
v -288 -256 0
v -288 -224 0
v -256 -224 0
v -288 -256 0
v -320 -256 0
v -320 -224 0
v -288 -224 0
v -320 -256 0
v -352 -256 0
v -352 -224 0
v -320 -224 0
v -352 -256 0
v -384 -256 0
v -384 -224 0
v -352 -224 0
v -384 -256 0
v -416 -256 0
v -416 -224 0
v -384 -224 0
v -416 -256 0
v -448 -256 0
v -448 -224 0
v -416 -224 0
v -448 -256 0
v -480 -256 0
v -480 -224 0
v -448 -224 0
v -480 -256 0
v -512 -256 0
v -512 -224 0
v -480 -224 0
v 0 -288 0
v -32 -288 0
v -32 -256 0
v 0 -256 0
v -32 -288 0
v -64 -288 0
v -64 -256 0
v -32 -256 0
v -64 -288 0
v -96 -288 0
v -96 -256 0
v -64 -256 0
v -96 -288 0
v -128 -288 0
v -128 -256 0
v -96 -256 0
v -128 -288 0
v -160 -288 0
v -160 -256 0
v -128 -256 0
v -160 -288 0
v -192 -288 0
v -192 -256 0
v -160 -256 0
v -192 -288 0
v -224 -288 0
v -224 -256 0
v -192 -256 0
v -224 -288 0
v -256 -288 0
v -256 -256 0
v -224 -256 0
v -256 -288 0
v -288 -288 0
v -288 -256 0
v -256 -256 0
v -288 -288 0
v -320 -288 0
v -320 -256 0
v -288 -256 0
v -320 -288 0
v -352 -288 0
v -352 -256 0
v -320 -256 0
v -352 -288 0
v -384 -288 0
v -384 -256 0
v -352 -256 0
v -384 -288 0
v -416 -288 0
v -416 -256 0
v -384 -256 0
v -416 -288 0
v -448 -288 0
v -448 -256 0
v -416 -256 0
v -448 -288 0
v -480 -288 0
v -480 -256 0
v -448 -256 0
v -480 -288 0
v -512 -288 0
v -512 -256 0
v -480 -256 0
v 0 -320 0
v -32 -320 0
v -32 -288 0
v 0 -288 0
v -32 -320 0
v -64 -320 0
v -64 -288 0
v -32 -288 0
v -64 -320 0
v -96 -320 0
v -96 -288 0
v -64 -288 0
v -96 -320 0
v -128 -320 0
v -128 -288 0
v -96 -288 0
v -128 -320 0
v -160 -320 0
v -160 -288 0
v -128 -288 0
v -160 -320 0
v -192 -320 0
v -192 -288 0
v -160 -288 0
v -192 -320 0
v -224 -320 0
v -224 -288 0
v -192 -288 0
v -224 -320 0
v -256 -320 0
v -256 -288 0
v -224 -288 0
v -256 -320 0
v -288 -320 0
v -288 -288 0
v -256 -288 0
v -288 -320 0
v -320 -320 0
v -320 -288 0
v -288 -288 0
v -320 -320 0
v -352 -320 0
v -352 -288 0
v -320 -288 0
v -352 -320 0
v -384 -320 0
v -384 -288 0
v -352 -288 0
v -384 -320 0
v -416 -320 0
v -416 -288 0
v -384 -288 0
v -416 -320 0
v -448 -320 0
v -448 -288 0
v -416 -288 0
v -448 -320 0
v -480 -320 0
v -480 -288 0
v -448 -288 0
v -480 -320 0
v -512 -320 0
v -512 -288 0
v -480 -288 0
v 0 -352 0
v -32 -352 0
v -32 -320 0
v 0 -320 0
v -32 -352 0
v -64 -352 0
v -64 -320 0
v -32 -320 0
v -64 -352 0
v -96 -352 0
v -96 -320 0
v -64 -320 0
v -96 -352 0
v -128 -352 0
v -128 -320 0
v -96 -320 0
v -128 -352 0
v -160 -352 0
v -160 -320 0
v -128 -320 0
v -160 -352 0
v -192 -352 0
v -192 -320 0
v -160 -320 0
v -192 -352 0
v -224 -352 0
v -224 -320 0
v -192 -320 0
v -224 -352 0
v -256 -352 0
v -256 -320 0
v -224 -320 0
v -256 -352 0
v -288 -352 0
v -288 -320 0
v -256 -320 0
v -288 -352 0
v -320 -352 0
v -320 -320 0
v -288 -320 0
v -320 -352 0
v -352 -352 0
v -352 -320 0
v -320 -320 0
v -352 -352 0
v -384 -352 0
v -384 -320 0
v -352 -320 0
v -384 -352 0
v -416 -352 0
v -416 -320 0
v -384 -320 0
v -416 -352 0
v -448 -352 0
v -448 -320 0
v -416 -320 0
v -448 -352 0
v -480 -352 0
v -480 -320 0
v -448 -320 0
v -480 -352 0
v -512 -352 0
v -512 -320 0
v -480 -320 0
v 0 -384 0
v -32 -384 0
v -32 -352 0
v 0 -352 0
v -32 -384 0
v -64 -384 0
v -64 -352 0
v -32 -352 0
v -64 -384 0
v -96 -384 0
v -96 -352 0
v -64 -352 0
v -96 -384 0
v -128 -384 0
v -128 -352 0
v -96 -352 0
v -128 -384 0
v -160 -384 0
v -160 -352 0
v -128 -352 0
v -160 -384 0
v -192 -384 0
v -192 -352 0
v -160 -352 0
v -192 -384 0
v -224 -384 0
v -224 -352 0
v -192 -352 0
v -224 -384 0
v -256 -384 0
v -256 -352 0
v -224 -352 0
v -256 -384 0
v -288 -384 0
v -288 -352 0
v -256 -352 0
v -288 -384 0
v -320 -384 0
v -320 -352 0
v -288 -352 0
v -320 -384 0
v -352 -384 0
v -352 -352 0
v -320 -352 0
v -352 -384 0
v -384 -384 0
v -384 -352 0
v -352 -352 0
v -384 -384 0
v -416 -384 0
v -416 -352 0
v -384 -352 0
v -416 -384 0
v -448 -384 0
v -448 -352 0
v -416 -352 0
v -448 -384 0
v -480 -384 0
v -480 -352 0
v -448 -352 0
v -480 -384 0
v -512 -384 0
v -512 -352 0
v -480 -352 0
v 0 -416 0
v -32 -416 0
v -32 -384 0
v 0 -384 0
v -32 -416 0
v -64 -416 0
v -64 -384 0
v -32 -384 0
v -64 -416 0
v -96 -416 0
v -96 -384 0
v -64 -384 0
v -96 -416 0
v -128 -416 0
v -128 -384 0
v -96 -384 0
v -128 -416 0
v -160 -416 0
v -160 -384 0
v -128 -384 0
v -160 -416 0
v -192 -416 0
v -192 -384 0
v -160 -384 0
v -192 -416 0
v -224 -416 0
v -224 -384 0
v -192 -384 0
v -224 -416 0
v -256 -416 0
v -256 -384 0
v -224 -384 0
v -256 -416 0
v -288 -416 0
v -288 -384 0
v -256 -384 0
v -288 -416 0
v -320 -416 0
v -320 -384 0
v -288 -384 0
v -320 -416 0
v -352 -416 0
v -352 -384 0
v -320 -384 0
v -352 -416 0
v -384 -416 0
v -384 -384 0
v -352 -384 0
v -384 -416 0
v -416 -416 0
v -416 -384 0
v -384 -384 0
v -416 -416 0
v -448 -416 0
v -448 -384 0
v -416 -384 0
v -448 -416 0
v -480 -416 0
v -480 -384 0
v -448 -384 0
v -480 -416 0
v -512 -416 0
v -512 -384 0
v -480 -384 0
v 0 -448 0
v -32 -448 0
v -32 -416 0
v 0 -416 0
v -32 -448 0
v -64 -448 0
v -64 -416 0
v -32 -416 0
v -64 -448 0
v -96 -448 0
v -96 -416 0
v -64 -416 0
v -96 -448 0
v -128 -448 0
v -128 -416 0
v -96 -416 0
v -128 -448 0
v -160 -448 0
v -160 -416 0
v -128 -416 0
v -160 -448 0
v -192 -448 0
v -192 -416 0
v -160 -416 0
v -192 -448 0
v -224 -448 0
v -224 -416 0
v -192 -416 0
v -224 -448 0
v -256 -448 0
v -256 -416 0
v -224 -416 0
v -256 -448 0
v -288 -448 0
v -288 -416 0
v -256 -416 0
v -288 -448 0
v -320 -448 0
v -320 -416 0
v -288 -416 0
v -320 -448 0
v -352 -448 0
v -352 -416 0
v -320 -416 0
v -352 -448 0
v -384 -448 0
v -384 -416 0
v -352 -416 0
v -384 -448 0
v -416 -448 0
v -416 -416 0
v -384 -416 0
v -416 -448 0
v -448 -448 0
v -448 -416 0
v -416 -416 0
v -448 -448 0
v -480 -448 0
v -480 -416 0
v -448 -416 0
v -480 -448 0
v -512 -448 0
v -512 -416 0
v -480 -416 0

# Texture cooridinates (Count = 24)
vt 0.65625 0.625
vt 0.6875 0.625
vt 0.6875 0.6875
vt 0.65625 0.6875
vt 0.71875 0.625
vt 0.71875 0.6875
vt 0.625 0.625
vt 0.625 0.6875
vt 0.65625 0.5625
vt 0.6875 0.5625
vt 0.5 0.5
vt 0.53125 0.5
vt 0.53125 0.5625
vt 0.5 0.5625
vt 0.59375 0.5
vt 0.625 0.5
vt 0.625 0.5625
vt 0.59375 0.5625
vt 0.5 0.4375
vt 0.53125 0.4375
vt 0.5625 0.4375
vt 0.5625 0.5
vt 0.59375 0.4375
vt 0.625 0.4375

# Normal
vn 0 0 -1

# Mesh description
g myMap_mesh_0298

# Faces
f 1/1/1 2/2/1 3/3/1 4/4/1
f 5/2/1 6/5/1 7/6/1 8/3/1
f 9/7/1 10/1/1 11/4/1 12/8/1
f 13/1/1 14/2/1 15/3/1 16/4/1
f 17/1/1 18/2/1 19/3/1 20/4/1
f 21/1/1 22/2/1 23/3/1 24/4/1
f 25/1/1 26/2/1 27/3/1 28/4/1
f 29/1/1 30/2/1 31/3/1 32/4/1
f 33/2/1 34/5/1 35/6/1 36/3/1
f 37/9/1 38/10/1 39/2/1 40/1/1
f 41/11/1 42/12/1 43/13/1 44/14/1
f 45/15/1 46/16/1 47/17/1 48/18/1
f 49/9/1 50/10/1 51/2/1 52/1/1
f 53/9/1 54/10/1 55/2/1 56/1/1
f 57/9/1 58/10/1 59/2/1 60/1/1
f 61/9/1 62/10/1 63/2/1 64/1/1
f 65/9/1 66/10/1 67/2/1 68/1/1
f 69/11/1 70/12/1 71/13/1 72/14/1
f 73/9/1 74/10/1 75/2/1 76/1/1
f 77/19/1 78/20/1 79/12/1 80/11/1
f 81/20/1 82/21/1 83/22/1 84/12/1
f 85/1/1 86/2/1 87/3/1 88/4/1
f 89/1/1 90/2/1 91/3/1 92/4/1
f 93/1/1 94/2/1 95/3/1 96/4/1
f 97/1/1 98/2/1 99/3/1 100/4/1
f 101/21/1 102/23/1 103/15/1 104/22/1
f 105/23/1 106/24/1 107/16/1 108/15/1
f 109/9/1 110/10/1 111/2/1 112/1/1
f 113/9/1 114/10/1 115/2/1 116/1/1
f 117/9/1 118/10/1 119/2/1 120/1/1
f 121/9/1 122/10/1 123/2/1 124/1/1
f 125/9/1 126/10/1 127/2/1 128/1/1
f 129/19/1 130/20/1 131/12/1 132/11/1
f 133/20/1 134/21/1 135/22/1 136/12/1
f 137/9/1 138/10/1 139/2/1 140/1/1
f 141/9/1 142/10/1 143/2/1 144/1/1
f 145/9/1 146/10/1 147/2/1 148/1/1
f 149/9/1 150/10/1 151/2/1 152/1/1
f 153/9/1 154/10/1 155/2/1 156/1/1
f 157/9/1 158/10/1 159/2/1 160/1/1
f 161/9/1 162/10/1 163/2/1 164/1/1
f 165/9/1 166/10/1 167/2/1 168/1/1
f 169/9/1 170/10/1 171/2/1 172/1/1
f 173/9/1 174/10/1 175/2/1 176/1/1
f 177/9/1 178/10/1 179/2/1 180/1/1
f 181/9/1 182/10/1 183/2/1 184/1/1
f 185/9/1 186/10/1 187/2/1 188/1/1
f 189/9/1 190/10/1 191/2/1 192/1/1
f 193/9/1 194/10/1 195/2/1 196/1/1
f 197/9/1 198/10/1 199/2/1 200/1/1
f 201/9/1 202/10/1 203/2/1 204/1/1
f 205/9/1 206/10/1 207/2/1 208/1/1
f 209/9/1 210/10/1 211/2/1 212/1/1
f 213/9/1 214/10/1 215/2/1 216/1/1
f 217/9/1 218/10/1 219/2/1 220/1/1
f 221/9/1 222/10/1 223/2/1 224/1/1
f 225/9/1 226/10/1 227/2/1 228/1/1
f 229/9/1 230/10/1 231/2/1 232/1/1
f 233/9/1 234/10/1 235/2/1 236/1/1
f 237/9/1 238/10/1 239/2/1 240/1/1
f 241/9/1 242/10/1 243/2/1 244/1/1
f 245/9/1 246/10/1 247/2/1 248/1/1
f 249/9/1 250/10/1 251/2/1 252/1/1
f 253/9/1 254/10/1 255/2/1 256/1/1
f 257/9/1 258/10/1 259/2/1 260/1/1
f 261/9/1 262/10/1 263/2/1 264/1/1
f 265/9/1 266/10/1 267/2/1 268/1/1
f 269/9/1 270/10/1 271/2/1 272/1/1
f 273/9/1 274/10/1 275/2/1 276/1/1
f 277/9/1 278/10/1 279/2/1 280/1/1
f 281/9/1 282/10/1 283/2/1 284/1/1
f 285/9/1 286/10/1 287/2/1 288/1/1
f 289/9/1 290/10/1 291/2/1 292/1/1
f 293/9/1 294/10/1 295/2/1 296/1/1
f 297/9/1 298/10/1 299/2/1 300/1/1
f 301/9/1 302/10/1 303/2/1 304/1/1
f 305/9/1 306/10/1 307/2/1 308/1/1
f 309/9/1 310/10/1 311/2/1 312/1/1
f 313/9/1 314/10/1 315/2/1 316/1/1
f 317/9/1 318/10/1 319/2/1 320/1/1
f 321/9/1 322/10/1 323/2/1 324/1/1
f 325/9/1 326/10/1 327/2/1 328/1/1
f 329/9/1 330/10/1 331/2/1 332/1/1
f 333/9/1 334/10/1 335/2/1 336/1/1
f 337/9/1 338/10/1 339/2/1 340/1/1
f 341/9/1 342/10/1 343/2/1 344/1/1
f 345/9/1 346/10/1 347/2/1 348/1/1
f 349/9/1 350/10/1 351/2/1 352/1/1
f 353/9/1 354/10/1 355/2/1 356/1/1
f 357/9/1 358/10/1 359/2/1 360/1/1
f 361/9/1 362/10/1 363/2/1 364/1/1
f 365/9/1 366/10/1 367/2/1 368/1/1
f 369/9/1 370/10/1 371/2/1 372/1/1
f 373/9/1 374/10/1 375/2/1 376/1/1
f 377/9/1 378/10/1 379/2/1 380/1/1
f 381/9/1 382/10/1 383/2/1 384/1/1
f 385/9/1 386/10/1 387/2/1 388/1/1
f 389/9/1 390/10/1 391/2/1 392/1/1
f 393/9/1 394/10/1 395/2/1 396/1/1
f 397/9/1 398/10/1 399/2/1 400/1/1
f 401/9/1 402/10/1 403/2/1 404/1/1
f 405/9/1 406/10/1 407/2/1 408/1/1
f 409/9/1 410/10/1 411/2/1 412/1/1
f 413/9/1 414/10/1 415/2/1 416/1/1
f 417/9/1 418/10/1 419/2/1 420/1/1
f 421/9/1 422/10/1 423/2/1 424/1/1
f 425/9/1 426/10/1 427/2/1 428/1/1
f 429/9/1 430/10/1 431/2/1 432/1/1
f 433/9/1 434/10/1 435/2/1 436/1/1
f 437/9/1 438/10/1 439/2/1 440/1/1
f 441/9/1 442/10/1 443/2/1 444/1/1
f 445/9/1 446/10/1 447/2/1 448/1/1
f 449/9/1 450/10/1 451/2/1 452/1/1
f 453/9/1 454/10/1 455/2/1 456/1/1
f 457/9/1 458/10/1 459/2/1 460/1/1
f 461/9/1 462/10/1 463/2/1 464/1/1
f 465/9/1 466/10/1 467/2/1 468/1/1
f 469/9/1 470/10/1 471/2/1 472/1/1
f 473/9/1 474/10/1 475/2/1 476/1/1
f 477/9/1 478/10/1 479/2/1 480/1/1
f 481/9/1 482/10/1 483/2/1 484/1/1
f 485/9/1 486/10/1 487/2/1 488/1/1
f 489/9/1 490/10/1 491/2/1 492/1/1
f 493/9/1 494/10/1 495/2/1 496/1/1
f 497/9/1 498/10/1 499/2/1 500/1/1
f 501/9/1 502/10/1 503/2/1 504/1/1
f 505/9/1 506/10/1 507/2/1 508/1/1
f 509/9/1 510/10/1 511/2/1 512/1/1
f 513/9/1 514/10/1 515/2/1 516/1/1
f 517/9/1 518/10/1 519/2/1 520/1/1
f 521/9/1 522/10/1 523/2/1 524/1/1
f 525/9/1 526/10/1 527/2/1 528/1/1
f 529/9/1 530/10/1 531/2/1 532/1/1
f 533/9/1 534/10/1 535/2/1 536/1/1
f 537/9/1 538/10/1 539/2/1 540/1/1
f 541/9/1 542/10/1 543/2/1 544/1/1
f 545/9/1 546/10/1 547/2/1 548/1/1
f 549/9/1 550/10/1 551/2/1 552/1/1
f 553/9/1 554/10/1 555/2/1 556/1/1
f 557/9/1 558/10/1 559/2/1 560/1/1
f 561/9/1 562/10/1 563/2/1 564/1/1
f 565/9/1 566/10/1 567/2/1 568/1/1
f 569/9/1 570/10/1 571/2/1 572/1/1
f 573/9/1 574/10/1 575/2/1 576/1/1
f 577/9/1 578/10/1 579/2/1 580/1/1
f 581/9/1 582/10/1 583/2/1 584/1/1
f 585/9/1 586/10/1 587/2/1 588/1/1
f 589/9/1 590/10/1 591/2/1 592/1/1
f 593/9/1 594/10/1 595/2/1 596/1/1
f 597/9/1 598/10/1 599/2/1 600/1/1
f 601/9/1 602/10/1 603/2/1 604/1/1
f 605/9/1 606/10/1 607/2/1 608/1/1
f 609/9/1 610/10/1 611/2/1 612/1/1
f 613/9/1 614/10/1 615/2/1 616/1/1
f 617/9/1 618/10/1 619/2/1 620/1/1
f 621/9/1 622/10/1 623/2/1 624/1/1
f 625/9/1 626/10/1 627/2/1 628/1/1
f 629/9/1 630/10/1 631/2/1 632/1/1
f 633/9/1 634/10/1 635/2/1 636/1/1
f 637/9/1 638/10/1 639/2/1 640/1/1
f 641/9/1 642/10/1 643/2/1 644/1/1
f 645/9/1 646/10/1 647/2/1 648/1/1
f 649/9/1 650/10/1 651/2/1 652/1/1
f 653/9/1 654/10/1 655/2/1 656/1/1
f 657/9/1 658/10/1 659/2/1 660/1/1
f 661/9/1 662/10/1 663/2/1 664/1/1
f 665/9/1 666/10/1 667/2/1 668/1/1
f 669/9/1 670/10/1 671/2/1 672/1/1
f 673/9/1 674/10/1 675/2/1 676/1/1
f 677/9/1 678/10/1 679/2/1 680/1/1
f 681/9/1 682/10/1 683/2/1 684/1/1
f 685/9/1 686/10/1 687/2/1 688/1/1
f 689/9/1 690/10/1 691/2/1 692/1/1
f 693/9/1 694/10/1 695/2/1 696/1/1
f 697/9/1 698/10/1 699/2/1 700/1/1
f 701/9/1 702/10/1 703/2/1 704/1/1
f 705/9/1 706/10/1 707/2/1 708/1/1
f 709/9/1 710/10/1 711/2/1 712/1/1
f 713/9/1 714/10/1 715/2/1 716/1/1
f 717/9/1 718/10/1 719/2/1 720/1/1
f 721/9/1 722/10/1 723/2/1 724/1/1
f 725/9/1 726/10/1 727/2/1 728/1/1
f 729/9/1 730/10/1 731/2/1 732/1/1
f 733/9/1 734/10/1 735/2/1 736/1/1
f 737/9/1 738/10/1 739/2/1 740/1/1
f 741/9/1 742/10/1 743/2/1 744/1/1
f 745/9/1 746/10/1 747/2/1 748/1/1
f 749/9/1 750/10/1 751/2/1 752/1/1
f 753/9/1 754/10/1 755/2/1 756/1/1
f 757/9/1 758/10/1 759/2/1 760/1/1
f 761/9/1 762/10/1 763/2/1 764/1/1
f 765/9/1 766/10/1 767/2/1 768/1/1
f 769/9/1 770/10/1 771/2/1 772/1/1
f 773/9/1 774/10/1 775/2/1 776/1/1
f 777/9/1 778/10/1 779/2/1 780/1/1
f 781/9/1 782/10/1 783/2/1 784/1/1
f 785/9/1 786/10/1 787/2/1 788/1/1
f 789/9/1 790/10/1 791/2/1 792/1/1
f 793/9/1 794/10/1 795/2/1 796/1/1
f 797/9/1 798/10/1 799/2/1 800/1/1
f 801/9/1 802/10/1 803/2/1 804/1/1
f 805/9/1 806/10/1 807/2/1 808/1/1
f 809/9/1 810/10/1 811/2/1 812/1/1
f 813/9/1 814/10/1 815/2/1 816/1/1
f 817/9/1 818/10/1 819/2/1 820/1/1
f 821/9/1 822/10/1 823/2/1 824/1/1
f 825/9/1 826/10/1 827/2/1 828/1/1
f 829/9/1 830/10/1 831/2/1 832/1/1
f 833/9/1 834/10/1 835/2/1 836/1/1
f 837/9/1 838/10/1 839/2/1 840/1/1

