# Tiled2Unity generated file. Do not modify by hand.
# Wavefront file for 'myMap_mesh_0259.obj'

# Vertices (Count = 720)
v 0 -32 0
v -32 -32 0
v -32 0 0
v 0 0 0
v -32 -32 0
v -64 -32 0
v -64 0 0
v -32 0 0
v -64 -32 0
v -96 -32 0
v -96 0 0
v -64 0 0
v -96 -32 0
v -128 -32 0
v -128 0 0
v -96 0 0
v -128 -32 0
v -160 -32 0
v -160 0 0
v -128 0 0
v -160 -32 0
v -192 -32 0
v -192 0 0
v -160 0 0
v -192 -32 0
v -224 -32 0
v -224 0 0
v -192 0 0
v -224 -32 0
v -256 -32 0
v -256 0 0
v -224 0 0
v -256 -32 0
v -288 -32 0
v -288 0 0
v -256 0 0
v -288 -32 0
v -320 -32 0
v -320 0 0
v -288 0 0
v -320 -32 0
v -352 -32 0
v -352 0 0
v -320 0 0
v -352 -32 0
v -384 -32 0
v -384 0 0
v -352 0 0
v -384 -32 0
v -416 -32 0
v -416 0 0
v -384 0 0
v -416 -32 0
v -448 -32 0
v -448 0 0
v -416 0 0
v -448 -32 0
v -480 -32 0
v -480 0 0
v -448 0 0
v -128 -64 0
v -160 -64 0
v -160 -32 0
v -128 -32 0
v -160 -64 0
v -192 -64 0
v -192 -32 0
v -160 -32 0
v -192 -64 0
v -224 -64 0
v -224 -32 0
v -192 -32 0
v -224 -64 0
v -256 -64 0
v -256 -32 0
v -224 -32 0
v -256 -64 0
v -288 -64 0
v -288 -32 0
v -256 -32 0
v -288 -64 0
v -320 -64 0
v -320 -32 0
v -288 -32 0
v -320 -64 0
v -352 -64 0
v -352 -32 0
v -320 -32 0
v -352 -64 0
v -384 -64 0
v -384 -32 0
v -352 -32 0
v -384 -64 0
v -416 -64 0
v -416 -32 0
v -384 -32 0
v -416 -64 0
v -448 -64 0
v -448 -32 0
v -416 -32 0
v -448 -64 0
v -480 -64 0
v -480 -32 0
v -448 -32 0
v -128 -96 0
v -160 -96 0
v -160 -64 0
v -128 -64 0
v -160 -96 0
v -192 -96 0
v -192 -64 0
v -160 -64 0
v -192 -96 0
v -224 -96 0
v -224 -64 0
v -192 -64 0
v -224 -96 0
v -256 -96 0
v -256 -64 0
v -224 -64 0
v -256 -96 0
v -288 -96 0
v -288 -64 0
v -256 -64 0
v -288 -96 0
v -320 -96 0
v -320 -64 0
v -288 -64 0
v -320 -96 0
v -352 -96 0
v -352 -64 0
v -320 -64 0
v -352 -96 0
v -384 -96 0
v -384 -64 0
v -352 -64 0
v -384 -96 0
v -416 -96 0
v -416 -64 0
v -384 -64 0
v -416 -96 0
v -448 -96 0
v -448 -64 0
v -416 -64 0
v -448 -96 0
v -480 -96 0
v -480 -64 0
v -448 -64 0
v -128 -128 0
v -160 -128 0
v -160 -96 0
v -128 -96 0
v -160 -128 0
v -192 -128 0
v -192 -96 0
v -160 -96 0
v -192 -128 0
v -224 -128 0
v -224 -96 0
v -192 -96 0
v -224 -128 0
v -256 -128 0
v -256 -96 0
v -224 -96 0
v -256 -128 0
v -288 -128 0
v -288 -96 0
v -256 -96 0
v -288 -128 0
v -320 -128 0
v -320 -96 0
v -288 -96 0
v -320 -128 0
v -352 -128 0
v -352 -96 0
v -320 -96 0
v -352 -128 0
v -384 -128 0
v -384 -96 0
v -352 -96 0
v -384 -128 0
v -416 -128 0
v -416 -96 0
v -384 -96 0
v -416 -128 0
v -448 -128 0
v -448 -96 0
v -416 -96 0
v -448 -128 0
v -480 -128 0
v -480 -96 0
v -448 -96 0
v -128 -160 0
v -160 -160 0
v -160 -128 0
v -128 -128 0
v -160 -160 0
v -192 -160 0
v -192 -128 0
v -160 -128 0
v -192 -160 0
v -224 -160 0
v -224 -128 0
v -192 -128 0
v -224 -160 0
v -256 -160 0
v -256 -128 0
v -224 -128 0
v -256 -160 0
v -288 -160 0
v -288 -128 0
v -256 -128 0
v -288 -160 0
v -320 -160 0
v -320 -128 0
v -288 -128 0
v -320 -160 0
v -352 -160 0
v -352 -128 0
v -320 -128 0
v -352 -160 0
v -384 -160 0
v -384 -128 0
v -352 -128 0
v -384 -160 0
v -416 -160 0
v -416 -128 0
v -384 -128 0
v -416 -160 0
v -448 -160 0
v -448 -128 0
v -416 -128 0
v -448 -160 0
v -480 -160 0
v -480 -128 0
v -448 -128 0
v -128 -192 0
v -160 -192 0
v -160 -160 0
v -128 -160 0
v -160 -192 0
v -192 -192 0
v -192 -160 0
v -160 -160 0
v -192 -192 0
v -224 -192 0
v -224 -160 0
v -192 -160 0
v -224 -192 0
v -256 -192 0
v -256 -160 0
v -224 -160 0
v -256 -192 0
v -288 -192 0
v -288 -160 0
v -256 -160 0
v -288 -192 0
v -320 -192 0
v -320 -160 0
v -288 -160 0
v -320 -192 0
v -352 -192 0
v -352 -160 0
v -320 -160 0
v -352 -192 0
v -384 -192 0
v -384 -160 0
v -352 -160 0
v -384 -192 0
v -416 -192 0
v -416 -160 0
v -384 -160 0
v -416 -192 0
v -448 -192 0
v -448 -160 0
v -416 -160 0
v -448 -192 0
v -480 -192 0
v -480 -160 0
v -448 -160 0
v -128 -224 0
v -160 -224 0
v -160 -192 0
v -128 -192 0
v -160 -224 0
v -192 -224 0
v -192 -192 0
v -160 -192 0
v -192 -224 0
v -224 -224 0
v -224 -192 0
v -192 -192 0
v -224 -224 0
v -256 -224 0
v -256 -192 0
v -224 -192 0
v -256 -224 0
v -288 -224 0
v -288 -192 0
v -256 -192 0
v -288 -224 0
v -320 -224 0
v -320 -192 0
v -288 -192 0
v -320 -224 0
v -352 -224 0
v -352 -192 0
v -320 -192 0
v -352 -224 0
v -384 -224 0
v -384 -192 0
v -352 -192 0
v -384 -224 0
v -416 -224 0
v -416 -192 0
v -384 -192 0
v -416 -224 0
v -448 -224 0
v -448 -192 0
v -416 -192 0
v -448 -224 0
v -480 -224 0
v -480 -192 0
v -448 -192 0
v -128 -256 0
v -160 -256 0
v -160 -224 0
v -128 -224 0
v -160 -256 0
v -192 -256 0
v -192 -224 0
v -160 -224 0
v -192 -256 0
v -224 -256 0
v -224 -224 0
v -192 -224 0
v -224 -256 0
v -256 -256 0
v -256 -224 0
v -224 -224 0
v -256 -256 0
v -288 -256 0
v -288 -224 0
v -256 -224 0
v -288 -256 0
v -320 -256 0
v -320 -224 0
v -288 -224 0
v -320 -256 0
v -352 -256 0
v -352 -224 0
v -320 -224 0
v -352 -256 0
v -384 -256 0
v -384 -224 0
v -352 -224 0
v -384 -256 0
v -416 -256 0
v -416 -224 0
v -384 -224 0
v -416 -256 0
v -448 -256 0
v -448 -224 0
v -416 -224 0
v -448 -256 0
v -480 -256 0
v -480 -224 0
v -448 -224 0
v -128 -288 0
v -160 -288 0
v -160 -256 0
v -128 -256 0
v -160 -288 0
v -192 -288 0
v -192 -256 0
v -160 -256 0
v -192 -288 0
v -224 -288 0
v -224 -256 0
v -192 -256 0
v -224 -288 0
v -256 -288 0
v -256 -256 0
v -224 -256 0
v -256 -288 0
v -288 -288 0
v -288 -256 0
v -256 -256 0
v -288 -288 0
v -320 -288 0
v -320 -256 0
v -288 -256 0
v -320 -288 0
v -352 -288 0
v -352 -256 0
v -320 -256 0
v -352 -288 0
v -384 -288 0
v -384 -256 0
v -352 -256 0
v -384 -288 0
v -416 -288 0
v -416 -256 0
v -384 -256 0
v -416 -288 0
v -448 -288 0
v -448 -256 0
v -416 -256 0
v -448 -288 0
v -480 -288 0
v -480 -256 0
v -448 -256 0
v -128 -320 0
v -160 -320 0
v -160 -288 0
v -128 -288 0
v -160 -320 0
v -192 -320 0
v -192 -288 0
v -160 -288 0
v -192 -320 0
v -224 -320 0
v -224 -288 0
v -192 -288 0
v -224 -320 0
v -256 -320 0
v -256 -288 0
v -224 -288 0
v -256 -320 0
v -288 -320 0
v -288 -288 0
v -256 -288 0
v -288 -320 0
v -320 -320 0
v -320 -288 0
v -288 -288 0
v -320 -320 0
v -352 -320 0
v -352 -288 0
v -320 -288 0
v -352 -320 0
v -384 -320 0
v -384 -288 0
v -352 -288 0
v -384 -320 0
v -416 -320 0
v -416 -288 0
v -384 -288 0
v -416 -320 0
v -448 -320 0
v -448 -288 0
v -416 -288 0
v -448 -320 0
v -480 -320 0
v -480 -288 0
v -448 -288 0
v -128 -352 0
v -160 -352 0
v -160 -320 0
v -128 -320 0
v -160 -352 0
v -192 -352 0
v -192 -320 0
v -160 -320 0
v -192 -352 0
v -224 -352 0
v -224 -320 0
v -192 -320 0
v -224 -352 0
v -256 -352 0
v -256 -320 0
v -224 -320 0
v -256 -352 0
v -288 -352 0
v -288 -320 0
v -256 -320 0
v -288 -352 0
v -320 -352 0
v -320 -320 0
v -288 -320 0
v -320 -352 0
v -352 -352 0
v -352 -320 0
v -320 -320 0
v -352 -352 0
v -384 -352 0
v -384 -320 0
v -352 -320 0
v -384 -352 0
v -416 -352 0
v -416 -320 0
v -384 -320 0
v -416 -352 0
v -448 -352 0
v -448 -320 0
v -416 -320 0
v -448 -352 0
v -480 -352 0
v -480 -320 0
v -448 -320 0
v -128 -384 0
v -160 -384 0
v -160 -352 0
v -128 -352 0
v -160 -384 0
v -192 -384 0
v -192 -352 0
v -160 -352 0
v -192 -384 0
v -224 -384 0
v -224 -352 0
v -192 -352 0
v -224 -384 0
v -256 -384 0
v -256 -352 0
v -224 -352 0
v -256 -384 0
v -288 -384 0
v -288 -352 0
v -256 -352 0
v -288 -384 0
v -320 -384 0
v -320 -352 0
v -288 -352 0
v -320 -384 0
v -352 -384 0
v -352 -352 0
v -320 -352 0
v -352 -384 0
v -384 -384 0
v -384 -352 0
v -352 -352 0
v -384 -384 0
v -416 -384 0
v -416 -352 0
v -384 -352 0
v -416 -384 0
v -448 -384 0
v -448 -352 0
v -416 -352 0
v -448 -384 0
v -480 -384 0
v -480 -352 0
v -448 -352 0
v -128 -416 0
v -160 -416 0
v -160 -384 0
v -128 -384 0
v -160 -416 0
v -192 -416 0
v -192 -384 0
v -160 -384 0
v -192 -416 0
v -224 -416 0
v -224 -384 0
v -192 -384 0
v -224 -416 0
v -256 -416 0
v -256 -384 0
v -224 -384 0
v -256 -416 0
v -288 -416 0
v -288 -384 0
v -256 -384 0
v -288 -416 0
v -320 -416 0
v -320 -384 0
v -288 -384 0
v -320 -416 0
v -352 -416 0
v -352 -384 0
v -320 -384 0
v -352 -416 0
v -384 -416 0
v -384 -384 0
v -352 -384 0
v -384 -416 0
v -416 -416 0
v -416 -384 0
v -384 -384 0
v -416 -416 0
v -448 -416 0
v -448 -384 0
v -416 -384 0
v -448 -416 0
v -480 -416 0
v -480 -384 0
v -448 -384 0
v -128 -448 0
v -160 -448 0
v -160 -416 0
v -128 -416 0
v -160 -448 0
v -192 -448 0
v -192 -416 0
v -160 -416 0
v -192 -448 0
v -224 -448 0
v -224 -416 0
v -192 -416 0
v -224 -448 0
v -256 -448 0
v -256 -416 0
v -224 -416 0
v -256 -448 0
v -288 -448 0
v -288 -416 0
v -256 -416 0
v -288 -448 0
v -320 -448 0
v -320 -416 0
v -288 -416 0
v -320 -448 0
v -352 -448 0
v -352 -416 0
v -320 -416 0
v -352 -448 0
v -384 -448 0
v -384 -416 0
v -352 -416 0
v -384 -448 0
v -416 -448 0
v -416 -416 0
v -384 -416 0
v -416 -448 0
v -448 -448 0
v -448 -416 0
v -416 -416 0
v -448 -448 0
v -480 -448 0
v -480 -416 0
v -448 -416 0
v -128 -480 0
v -160 -480 0
v -160 -448 0
v -128 -448 0
v -160 -480 0
v -192 -480 0
v -192 -448 0
v -160 -448 0
v -192 -480 0
v -224 -480 0
v -224 -448 0
v -192 -448 0
v -224 -480 0
v -256 -480 0
v -256 -448 0
v -224 -448 0
v -256 -480 0
v -288 -480 0
v -288 -448 0
v -256 -448 0
v -288 -480 0
v -320 -480 0
v -320 -448 0
v -288 -448 0
v -320 -480 0
v -352 -480 0
v -352 -448 0
v -320 -448 0
v -352 -480 0
v -384 -480 0
v -384 -448 0
v -352 -448 0
v -384 -480 0
v -416 -480 0
v -416 -448 0
v -384 -448 0
v -416 -480 0
v -448 -480 0
v -448 -448 0
v -416 -448 0
v -448 -480 0
v -480 -480 0
v -480 -448 0
v -448 -448 0
v -128 -512 0
v -160 -512 0
v -160 -480 0
v -128 -480 0
v -160 -512 0
v -192 -512 0
v -192 -480 0
v -160 -480 0
v -192 -512 0
v -224 -512 0
v -224 -480 0
v -192 -480 0
v -224 -512 0
v -256 -512 0
v -256 -480 0
v -224 -480 0
v -256 -512 0
v -288 -512 0
v -288 -480 0
v -256 -480 0
v -288 -512 0
v -320 -512 0
v -320 -480 0
v -288 -480 0
v -320 -512 0
v -352 -512 0
v -352 -480 0
v -320 -480 0
v -352 -512 0
v -384 -512 0
v -384 -480 0
v -352 -480 0
v -384 -512 0
v -416 -512 0
v -416 -480 0
v -384 -480 0
v -416 -512 0
v -448 -512 0
v -448 -480 0
v -416 -480 0
v -448 -512 0
v -480 -512 0
v -480 -480 0
v -448 -480 0

# Texture cooridinates (Count = 14)
vt 0.65625 0.5
vt 0.6875 0.5
vt 0.6875 0.5625
vt 0.65625 0.5625
vt 0.5625 0.625
vt 0.59375 0.625
vt 0.59375 0.6875
vt 0.5625 0.6875
vt 0.625 0.625
vt 0.625 0.6875
vt 0.6875 0.625
vt 0.65625 0.625
vt 0.59375 0.5625
vt 0.625 0.5625

# Normal
vn 0 0 -1

# Mesh description
g myMap_mesh_0259

# Faces
f 1/1/1 2/2/1 3/3/1 4/4/1
f 5/1/1 6/2/1 7/3/1 8/4/1
f 9/1/1 10/2/1 11/3/1 12/4/1
f 13/5/1 14/6/1 15/7/1 16/8/1
f 17/6/1 18/9/1 19/10/1 20/7/1
f 21/4/1 22/3/1 23/11/1 24/12/1
f 25/4/1 26/3/1 27/11/1 28/12/1
f 29/4/1 30/3/1 31/11/1 32/12/1
f 33/4/1 34/3/1 35/11/1 36/12/1
f 37/4/1 38/3/1 39/11/1 40/12/1
f 41/4/1 42/3/1 43/11/1 44/12/1
f 45/4/1 46/3/1 47/11/1 48/12/1
f 49/4/1 50/3/1 51/11/1 52/12/1
f 53/4/1 54/3/1 55/11/1 56/12/1
f 57/4/1 58/3/1 59/11/1 60/12/1
f 61/13/1 62/14/1 63/9/1 64/6/1
f 65/4/1 66/3/1 67/11/1 68/12/1
f 69/4/1 70/3/1 71/11/1 72/12/1
f 73/4/1 74/3/1 75/11/1 76/12/1
f 77/4/1 78/3/1 79/11/1 80/12/1
f 81/4/1 82/3/1 83/11/1 84/12/1
f 85/4/1 86/3/1 87/11/1 88/12/1
f 89/4/1 90/3/1 91/11/1 92/12/1
f 93/4/1 94/3/1 95/11/1 96/12/1
f 97/4/1 98/3/1 99/11/1 100/12/1
f 101/4/1 102/3/1 103/11/1 104/12/1
f 105/14/1 106/4/1 107/12/1 108/9/1
f 109/4/1 110/3/1 111/11/1 112/12/1
f 113/4/1 114/3/1 115/11/1 116/12/1
f 117/4/1 118/3/1 119/11/1 120/12/1
f 121/4/1 122/3/1 123/11/1 124/12/1
f 125/4/1 126/3/1 127/11/1 128/12/1
f 129/4/1 130/3/1 131/11/1 132/12/1
f 133/4/1 134/3/1 135/11/1 136/12/1
f 137/4/1 138/3/1 139/11/1 140/12/1
f 141/4/1 142/3/1 143/11/1 144/12/1
f 145/4/1 146/3/1 147/11/1 148/12/1
f 149/14/1 150/4/1 151/12/1 152/9/1
f 153/4/1 154/3/1 155/11/1 156/12/1
f 157/4/1 158/3/1 159/11/1 160/12/1
f 161/4/1 162/3/1 163/11/1 164/12/1
f 165/4/1 166/3/1 167/11/1 168/12/1
f 169/4/1 170/3/1 171/11/1 172/12/1
f 173/4/1 174/3/1 175/11/1 176/12/1
f 177/4/1 178/3/1 179/11/1 180/12/1
f 181/4/1 182/3/1 183/11/1 184/12/1
f 185/4/1 186/3/1 187/11/1 188/12/1
f 189/4/1 190/3/1 191/11/1 192/12/1
f 193/14/1 194/4/1 195/12/1 196/9/1
f 197/4/1 198/3/1 199/11/1 200/12/1
f 201/4/1 202/3/1 203/11/1 204/12/1
f 205/4/1 206/3/1 207/11/1 208/12/1
f 209/4/1 210/3/1 211/11/1 212/12/1
f 213/4/1 214/3/1 215/11/1 216/12/1
f 217/4/1 218/3/1 219/11/1 220/12/1
f 221/4/1 222/3/1 223/11/1 224/12/1
f 225/4/1 226/3/1 227/11/1 228/12/1
f 229/4/1 230/3/1 231/11/1 232/12/1
f 233/4/1 234/3/1 235/11/1 236/12/1
f 237/14/1 238/4/1 239/12/1 240/9/1
f 241/4/1 242/3/1 243/11/1 244/12/1
f 245/4/1 246/3/1 247/11/1 248/12/1
f 249/4/1 250/3/1 251/11/1 252/12/1
f 253/4/1 254/3/1 255/11/1 256/12/1
f 257/4/1 258/3/1 259/11/1 260/12/1
f 261/4/1 262/3/1 263/11/1 264/12/1
f 265/4/1 266/3/1 267/11/1 268/12/1
f 269/4/1 270/3/1 271/11/1 272/12/1
f 273/4/1 274/3/1 275/11/1 276/12/1
f 277/4/1 278/3/1 279/11/1 280/12/1
f 281/14/1 282/4/1 283/12/1 284/9/1
f 285/4/1 286/3/1 287/11/1 288/12/1
f 289/4/1 290/3/1 291/11/1 292/12/1
f 293/4/1 294/3/1 295/11/1 296/12/1
f 297/4/1 298/3/1 299/11/1 300/12/1
f 301/4/1 302/3/1 303/11/1 304/12/1
f 305/4/1 306/3/1 307/11/1 308/12/1
f 309/4/1 310/3/1 311/11/1 312/12/1
f 313/4/1 314/3/1 315/11/1 316/12/1
f 317/4/1 318/3/1 319/11/1 320/12/1
f 321/4/1 322/3/1 323/11/1 324/12/1
f 325/14/1 326/4/1 327/12/1 328/9/1
f 329/4/1 330/3/1 331/11/1 332/12/1
f 333/4/1 334/3/1 335/11/1 336/12/1
f 337/4/1 338/3/1 339/11/1 340/12/1
f 341/4/1 342/3/1 343/11/1 344/12/1
f 345/4/1 346/3/1 347/11/1 348/12/1
f 349/4/1 350/3/1 351/11/1 352/12/1
f 353/4/1 354/3/1 355/11/1 356/12/1
f 357/4/1 358/3/1 359/11/1 360/12/1
f 361/4/1 362/3/1 363/11/1 364/12/1
f 365/4/1 366/3/1 367/11/1 368/12/1
f 369/14/1 370/4/1 371/12/1 372/9/1
f 373/4/1 374/3/1 375/11/1 376/12/1
f 377/4/1 378/3/1 379/11/1 380/12/1
f 381/4/1 382/3/1 383/11/1 384/12/1
f 385/4/1 386/3/1 387/11/1 388/12/1
f 389/4/1 390/3/1 391/11/1 392/12/1
f 393/4/1 394/3/1 395/11/1 396/12/1
f 397/4/1 398/3/1 399/11/1 400/12/1
f 401/4/1 402/3/1 403/11/1 404/12/1
f 405/4/1 406/3/1 407/11/1 408/12/1
f 409/4/1 410/3/1 411/11/1 412/12/1
f 413/14/1 414/4/1 415/12/1 416/9/1
f 417/4/1 418/3/1 419/11/1 420/12/1
f 421/4/1 422/3/1 423/11/1 424/12/1
f 425/4/1 426/3/1 427/11/1 428/12/1
f 429/4/1 430/3/1 431/11/1 432/12/1
f 433/4/1 434/3/1 435/11/1 436/12/1
f 437/4/1 438/3/1 439/11/1 440/12/1
f 441/4/1 442/3/1 443/11/1 444/12/1
f 445/4/1 446/3/1 447/11/1 448/12/1
f 449/4/1 450/3/1 451/11/1 452/12/1
f 453/4/1 454/3/1 455/11/1 456/12/1
f 457/14/1 458/4/1 459/12/1 460/9/1
f 461/4/1 462/3/1 463/11/1 464/12/1
f 465/4/1 466/3/1 467/11/1 468/12/1
f 469/4/1 470/3/1 471/11/1 472/12/1
f 473/4/1 474/3/1 475/11/1 476/12/1
f 477/4/1 478/3/1 479/11/1 480/12/1
f 481/4/1 482/3/1 483/11/1 484/12/1
f 485/4/1 486/3/1 487/11/1 488/12/1
f 489/4/1 490/3/1 491/11/1 492/12/1
f 493/4/1 494/3/1 495/11/1 496/12/1
f 497/4/1 498/3/1 499/11/1 500/12/1
f 501/14/1 502/4/1 503/12/1 504/9/1
f 505/4/1 506/3/1 507/11/1 508/12/1
f 509/4/1 510/3/1 511/11/1 512/12/1
f 513/4/1 514/3/1 515/11/1 516/12/1
f 517/4/1 518/3/1 519/11/1 520/12/1
f 521/4/1 522/3/1 523/11/1 524/12/1
f 525/4/1 526/3/1 527/11/1 528/12/1
f 529/4/1 530/3/1 531/11/1 532/12/1
f 533/4/1 534/3/1 535/11/1 536/12/1
f 537/4/1 538/3/1 539/11/1 540/12/1
f 541/4/1 542/3/1 543/11/1 544/12/1
f 545/14/1 546/4/1 547/12/1 548/9/1
f 549/4/1 550/3/1 551/11/1 552/12/1
f 553/4/1 554/3/1 555/11/1 556/12/1
f 557/4/1 558/3/1 559/11/1 560/12/1
f 561/4/1 562/3/1 563/11/1 564/12/1
f 565/4/1 566/3/1 567/11/1 568/12/1
f 569/4/1 570/3/1 571/11/1 572/12/1
f 573/4/1 574/3/1 575/11/1 576/12/1
f 577/4/1 578/3/1 579/11/1 580/12/1
f 581/4/1 582/3/1 583/11/1 584/12/1
f 585/4/1 586/3/1 587/11/1 588/12/1
f 589/14/1 590/4/1 591/12/1 592/9/1
f 593/4/1 594/3/1 595/11/1 596/12/1
f 597/4/1 598/3/1 599/11/1 600/12/1
f 601/4/1 602/3/1 603/11/1 604/12/1
f 605/4/1 606/3/1 607/11/1 608/12/1
f 609/4/1 610/3/1 611/11/1 612/12/1
f 613/4/1 614/3/1 615/11/1 616/12/1
f 617/4/1 618/3/1 619/11/1 620/12/1
f 621/4/1 622/3/1 623/11/1 624/12/1
f 625/4/1 626/3/1 627/11/1 628/12/1
f 629/4/1 630/3/1 631/11/1 632/12/1
f 633/14/1 634/4/1 635/12/1 636/9/1
f 637/4/1 638/3/1 639/11/1 640/12/1
f 641/4/1 642/3/1 643/11/1 644/12/1
f 645/4/1 646/3/1 647/11/1 648/12/1
f 649/4/1 650/3/1 651/11/1 652/12/1
f 653/4/1 654/3/1 655/11/1 656/12/1
f 657/4/1 658/3/1 659/11/1 660/12/1
f 661/4/1 662/3/1 663/11/1 664/12/1
f 665/4/1 666/3/1 667/11/1 668/12/1
f 669/4/1 670/3/1 671/11/1 672/12/1
f 673/4/1 674/3/1 675/11/1 676/12/1
f 677/14/1 678/4/1 679/12/1 680/9/1
f 681/4/1 682/3/1 683/11/1 684/12/1
f 685/4/1 686/3/1 687/11/1 688/12/1
f 689/4/1 690/3/1 691/11/1 692/12/1
f 693/4/1 694/3/1 695/11/1 696/12/1
f 697/4/1 698/3/1 699/11/1 700/12/1
f 701/4/1 702/3/1 703/11/1 704/12/1
f 705/4/1 706/3/1 707/11/1 708/12/1
f 709/4/1 710/3/1 711/11/1 712/12/1
f 713/4/1 714/3/1 715/11/1 716/12/1
f 717/4/1 718/3/1 719/11/1 720/12/1

