# Tiled2Unity generated file. Do not modify by hand.
# Wavefront file for 'myMap_mesh_0216.obj'

# Vertices (Count = 1024)
v 0 -32 0
v -32 -32 0
v -32 0 0
v 0 0 0
v -32 -32 0
v -64 -32 0
v -64 0 0
v -32 0 0
v -64 -32 0
v -96 -32 0
v -96 0 0
v -64 0 0
v -96 -32 0
v -128 -32 0
v -128 0 0
v -96 0 0
v -128 -32 0
v -160 -32 0
v -160 0 0
v -128 0 0
v -160 -32 0
v -192 -32 0
v -192 0 0
v -160 0 0
v -192 -32 0
v -224 -32 0
v -224 0 0
v -192 0 0
v -224 -32 0
v -256 -32 0
v -256 0 0
v -224 0 0
v -256 -32 0
v -288 -32 0
v -288 0 0
v -256 0 0
v -288 -32 0
v -320 -32 0
v -320 0 0
v -288 0 0
v -320 -32 0
v -352 -32 0
v -352 0 0
v -320 0 0
v -352 -32 0
v -384 -32 0
v -384 0 0
v -352 0 0
v -384 -32 0
v -416 -32 0
v -416 0 0
v -384 0 0
v -416 -32 0
v -448 -32 0
v -448 0 0
v -416 0 0
v -448 -32 0
v -480 -32 0
v -480 0 0
v -448 0 0
v -480 -32 0
v -512 -32 0
v -512 0 0
v -480 0 0
v 0 -64 0
v -32 -64 0
v -32 -32 0
v 0 -32 0
v -32 -64 0
v -64 -64 0
v -64 -32 0
v -32 -32 0
v -64 -64 0
v -96 -64 0
v -96 -32 0
v -64 -32 0
v -96 -64 0
v -128 -64 0
v -128 -32 0
v -96 -32 0
v -128 -64 0
v -160 -64 0
v -160 -32 0
v -128 -32 0
v -160 -64 0
v -192 -64 0
v -192 -32 0
v -160 -32 0
v -192 -64 0
v -224 -64 0
v -224 -32 0
v -192 -32 0
v -224 -64 0
v -256 -64 0
v -256 -32 0
v -224 -32 0
v -256 -64 0
v -288 -64 0
v -288 -32 0
v -256 -32 0
v -288 -64 0
v -320 -64 0
v -320 -32 0
v -288 -32 0
v -320 -64 0
v -352 -64 0
v -352 -32 0
v -320 -32 0
v -352 -64 0
v -384 -64 0
v -384 -32 0
v -352 -32 0
v -384 -64 0
v -416 -64 0
v -416 -32 0
v -384 -32 0
v -416 -64 0
v -448 -64 0
v -448 -32 0
v -416 -32 0
v -448 -64 0
v -480 -64 0
v -480 -32 0
v -448 -32 0
v -480 -64 0
v -512 -64 0
v -512 -32 0
v -480 -32 0
v 0 -96 0
v -32 -96 0
v -32 -64 0
v 0 -64 0
v -32 -96 0
v -64 -96 0
v -64 -64 0
v -32 -64 0
v -64 -96 0
v -96 -96 0
v -96 -64 0
v -64 -64 0
v -96 -96 0
v -128 -96 0
v -128 -64 0
v -96 -64 0
v -128 -96 0
v -160 -96 0
v -160 -64 0
v -128 -64 0
v -160 -96 0
v -192 -96 0
v -192 -64 0
v -160 -64 0
v -192 -96 0
v -224 -96 0
v -224 -64 0
v -192 -64 0
v -224 -96 0
v -256 -96 0
v -256 -64 0
v -224 -64 0
v -256 -96 0
v -288 -96 0
v -288 -64 0
v -256 -64 0
v -288 -96 0
v -320 -96 0
v -320 -64 0
v -288 -64 0
v -320 -96 0
v -352 -96 0
v -352 -64 0
v -320 -64 0
v -352 -96 0
v -384 -96 0
v -384 -64 0
v -352 -64 0
v -384 -96 0
v -416 -96 0
v -416 -64 0
v -384 -64 0
v -416 -96 0
v -448 -96 0
v -448 -64 0
v -416 -64 0
v -448 -96 0
v -480 -96 0
v -480 -64 0
v -448 -64 0
v -480 -96 0
v -512 -96 0
v -512 -64 0
v -480 -64 0
v 0 -128 0
v -32 -128 0
v -32 -96 0
v 0 -96 0
v -32 -128 0
v -64 -128 0
v -64 -96 0
v -32 -96 0
v -64 -128 0
v -96 -128 0
v -96 -96 0
v -64 -96 0
v -96 -128 0
v -128 -128 0
v -128 -96 0
v -96 -96 0
v -128 -128 0
v -160 -128 0
v -160 -96 0
v -128 -96 0
v -160 -128 0
v -192 -128 0
v -192 -96 0
v -160 -96 0
v -192 -128 0
v -224 -128 0
v -224 -96 0
v -192 -96 0
v -224 -128 0
v -256 -128 0
v -256 -96 0
v -224 -96 0
v -256 -128 0
v -288 -128 0
v -288 -96 0
v -256 -96 0
v -288 -128 0
v -320 -128 0
v -320 -96 0
v -288 -96 0
v -320 -128 0
v -352 -128 0
v -352 -96 0
v -320 -96 0
v -352 -128 0
v -384 -128 0
v -384 -96 0
v -352 -96 0
v -384 -128 0
v -416 -128 0
v -416 -96 0
v -384 -96 0
v -416 -128 0
v -448 -128 0
v -448 -96 0
v -416 -96 0
v -448 -128 0
v -480 -128 0
v -480 -96 0
v -448 -96 0
v -480 -128 0
v -512 -128 0
v -512 -96 0
v -480 -96 0
v 0 -160 0
v -32 -160 0
v -32 -128 0
v 0 -128 0
v -32 -160 0
v -64 -160 0
v -64 -128 0
v -32 -128 0
v -64 -160 0
v -96 -160 0
v -96 -128 0
v -64 -128 0
v -96 -160 0
v -128 -160 0
v -128 -128 0
v -96 -128 0
v -128 -160 0
v -160 -160 0
v -160 -128 0
v -128 -128 0
v -160 -160 0
v -192 -160 0
v -192 -128 0
v -160 -128 0
v -192 -160 0
v -224 -160 0
v -224 -128 0
v -192 -128 0
v -224 -160 0
v -256 -160 0
v -256 -128 0
v -224 -128 0
v -256 -160 0
v -288 -160 0
v -288 -128 0
v -256 -128 0
v -288 -160 0
v -320 -160 0
v -320 -128 0
v -288 -128 0
v -320 -160 0
v -352 -160 0
v -352 -128 0
v -320 -128 0
v -352 -160 0
v -384 -160 0
v -384 -128 0
v -352 -128 0
v -384 -160 0
v -416 -160 0
v -416 -128 0
v -384 -128 0
v -416 -160 0
v -448 -160 0
v -448 -128 0
v -416 -128 0
v -448 -160 0
v -480 -160 0
v -480 -128 0
v -448 -128 0
v -480 -160 0
v -512 -160 0
v -512 -128 0
v -480 -128 0
v 0 -192 0
v -32 -192 0
v -32 -160 0
v 0 -160 0
v -32 -192 0
v -64 -192 0
v -64 -160 0
v -32 -160 0
v -64 -192 0
v -96 -192 0
v -96 -160 0
v -64 -160 0
v -96 -192 0
v -128 -192 0
v -128 -160 0
v -96 -160 0
v -128 -192 0
v -160 -192 0
v -160 -160 0
v -128 -160 0
v -160 -192 0
v -192 -192 0
v -192 -160 0
v -160 -160 0
v -192 -192 0
v -224 -192 0
v -224 -160 0
v -192 -160 0
v -224 -192 0
v -256 -192 0
v -256 -160 0
v -224 -160 0
v -256 -192 0
v -288 -192 0
v -288 -160 0
v -256 -160 0
v -288 -192 0
v -320 -192 0
v -320 -160 0
v -288 -160 0
v -320 -192 0
v -352 -192 0
v -352 -160 0
v -320 -160 0
v -352 -192 0
v -384 -192 0
v -384 -160 0
v -352 -160 0
v -384 -192 0
v -416 -192 0
v -416 -160 0
v -384 -160 0
v -416 -192 0
v -448 -192 0
v -448 -160 0
v -416 -160 0
v -448 -192 0
v -480 -192 0
v -480 -160 0
v -448 -160 0
v -480 -192 0
v -512 -192 0
v -512 -160 0
v -480 -160 0
v 0 -224 0
v -32 -224 0
v -32 -192 0
v 0 -192 0
v -32 -224 0
v -64 -224 0
v -64 -192 0
v -32 -192 0
v -64 -224 0
v -96 -224 0
v -96 -192 0
v -64 -192 0
v -96 -224 0
v -128 -224 0
v -128 -192 0
v -96 -192 0
v -128 -224 0
v -160 -224 0
v -160 -192 0
v -128 -192 0
v -160 -224 0
v -192 -224 0
v -192 -192 0
v -160 -192 0
v -192 -224 0
v -224 -224 0
v -224 -192 0
v -192 -192 0
v -224 -224 0
v -256 -224 0
v -256 -192 0
v -224 -192 0
v -256 -224 0
v -288 -224 0
v -288 -192 0
v -256 -192 0
v -288 -224 0
v -320 -224 0
v -320 -192 0
v -288 -192 0
v -320 -224 0
v -352 -224 0
v -352 -192 0
v -320 -192 0
v -352 -224 0
v -384 -224 0
v -384 -192 0
v -352 -192 0
v -384 -224 0
v -416 -224 0
v -416 -192 0
v -384 -192 0
v -416 -224 0
v -448 -224 0
v -448 -192 0
v -416 -192 0
v -448 -224 0
v -480 -224 0
v -480 -192 0
v -448 -192 0
v -480 -224 0
v -512 -224 0
v -512 -192 0
v -480 -192 0
v 0 -256 0
v -32 -256 0
v -32 -224 0
v 0 -224 0
v -32 -256 0
v -64 -256 0
v -64 -224 0
v -32 -224 0
v -64 -256 0
v -96 -256 0
v -96 -224 0
v -64 -224 0
v -96 -256 0
v -128 -256 0
v -128 -224 0
v -96 -224 0
v -128 -256 0
v -160 -256 0
v -160 -224 0
v -128 -224 0
v -160 -256 0
v -192 -256 0
v -192 -224 0
v -160 -224 0
v -192 -256 0
v -224 -256 0
v -224 -224 0
v -192 -224 0
v -224 -256 0
v -256 -256 0
v -256 -224 0
v -224 -224 0
v -256 -256 0
v -288 -256 0
v -288 -224 0
v -256 -224 0
v -288 -256 0
v -320 -256 0
v -320 -224 0
v -288 -224 0
v -320 -256 0
v -352 -256 0
v -352 -224 0
v -320 -224 0
v -352 -256 0
v -384 -256 0
v -384 -224 0
v -352 -224 0
v -384 -256 0
v -416 -256 0
v -416 -224 0
v -384 -224 0
v -416 -256 0
v -448 -256 0
v -448 -224 0
v -416 -224 0
v -448 -256 0
v -480 -256 0
v -480 -224 0
v -448 -224 0
v -480 -256 0
v -512 -256 0
v -512 -224 0
v -480 -224 0
v 0 -288 0
v -32 -288 0
v -32 -256 0
v 0 -256 0
v -32 -288 0
v -64 -288 0
v -64 -256 0
v -32 -256 0
v -64 -288 0
v -96 -288 0
v -96 -256 0
v -64 -256 0
v -96 -288 0
v -128 -288 0
v -128 -256 0
v -96 -256 0
v -128 -288 0
v -160 -288 0
v -160 -256 0
v -128 -256 0
v -160 -288 0
v -192 -288 0
v -192 -256 0
v -160 -256 0
v -192 -288 0
v -224 -288 0
v -224 -256 0
v -192 -256 0
v -224 -288 0
v -256 -288 0
v -256 -256 0
v -224 -256 0
v -256 -288 0
v -288 -288 0
v -288 -256 0
v -256 -256 0
v -288 -288 0
v -320 -288 0
v -320 -256 0
v -288 -256 0
v -320 -288 0
v -352 -288 0
v -352 -256 0
v -320 -256 0
v -352 -288 0
v -384 -288 0
v -384 -256 0
v -352 -256 0
v -384 -288 0
v -416 -288 0
v -416 -256 0
v -384 -256 0
v -416 -288 0
v -448 -288 0
v -448 -256 0
v -416 -256 0
v -448 -288 0
v -480 -288 0
v -480 -256 0
v -448 -256 0
v -480 -288 0
v -512 -288 0
v -512 -256 0
v -480 -256 0
v 0 -320 0
v -32 -320 0
v -32 -288 0
v 0 -288 0
v -32 -320 0
v -64 -320 0
v -64 -288 0
v -32 -288 0
v -64 -320 0
v -96 -320 0
v -96 -288 0
v -64 -288 0
v -96 -320 0
v -128 -320 0
v -128 -288 0
v -96 -288 0
v -128 -320 0
v -160 -320 0
v -160 -288 0
v -128 -288 0
v -160 -320 0
v -192 -320 0
v -192 -288 0
v -160 -288 0
v -192 -320 0
v -224 -320 0
v -224 -288 0
v -192 -288 0
v -224 -320 0
v -256 -320 0
v -256 -288 0
v -224 -288 0
v -256 -320 0
v -288 -320 0
v -288 -288 0
v -256 -288 0
v -288 -320 0
v -320 -320 0
v -320 -288 0
v -288 -288 0
v -320 -320 0
v -352 -320 0
v -352 -288 0
v -320 -288 0
v -352 -320 0
v -384 -320 0
v -384 -288 0
v -352 -288 0
v -384 -320 0
v -416 -320 0
v -416 -288 0
v -384 -288 0
v -416 -320 0
v -448 -320 0
v -448 -288 0
v -416 -288 0
v -448 -320 0
v -480 -320 0
v -480 -288 0
v -448 -288 0
v -480 -320 0
v -512 -320 0
v -512 -288 0
v -480 -288 0
v 0 -352 0
v -32 -352 0
v -32 -320 0
v 0 -320 0
v -32 -352 0
v -64 -352 0
v -64 -320 0
v -32 -320 0
v -64 -352 0
v -96 -352 0
v -96 -320 0
v -64 -320 0
v -96 -352 0
v -128 -352 0
v -128 -320 0
v -96 -320 0
v -128 -352 0
v -160 -352 0
v -160 -320 0
v -128 -320 0
v -160 -352 0
v -192 -352 0
v -192 -320 0
v -160 -320 0
v -192 -352 0
v -224 -352 0
v -224 -320 0
v -192 -320 0
v -224 -352 0
v -256 -352 0
v -256 -320 0
v -224 -320 0
v -256 -352 0
v -288 -352 0
v -288 -320 0
v -256 -320 0
v -288 -352 0
v -320 -352 0
v -320 -320 0
v -288 -320 0
v -320 -352 0
v -352 -352 0
v -352 -320 0
v -320 -320 0
v -352 -352 0
v -384 -352 0
v -384 -320 0
v -352 -320 0
v -384 -352 0
v -416 -352 0
v -416 -320 0
v -384 -320 0
v -416 -352 0
v -448 -352 0
v -448 -320 0
v -416 -320 0
v -448 -352 0
v -480 -352 0
v -480 -320 0
v -448 -320 0
v -480 -352 0
v -512 -352 0
v -512 -320 0
v -480 -320 0
v 0 -384 0
v -32 -384 0
v -32 -352 0
v 0 -352 0
v -32 -384 0
v -64 -384 0
v -64 -352 0
v -32 -352 0
v -64 -384 0
v -96 -384 0
v -96 -352 0
v -64 -352 0
v -96 -384 0
v -128 -384 0
v -128 -352 0
v -96 -352 0
v -128 -384 0
v -160 -384 0
v -160 -352 0
v -128 -352 0
v -160 -384 0
v -192 -384 0
v -192 -352 0
v -160 -352 0
v -192 -384 0
v -224 -384 0
v -224 -352 0
v -192 -352 0
v -224 -384 0
v -256 -384 0
v -256 -352 0
v -224 -352 0
v -256 -384 0
v -288 -384 0
v -288 -352 0
v -256 -352 0
v -288 -384 0
v -320 -384 0
v -320 -352 0
v -288 -352 0
v -320 -384 0
v -352 -384 0
v -352 -352 0
v -320 -352 0
v -352 -384 0
v -384 -384 0
v -384 -352 0
v -352 -352 0
v -384 -384 0
v -416 -384 0
v -416 -352 0
v -384 -352 0
v -416 -384 0
v -448 -384 0
v -448 -352 0
v -416 -352 0
v -448 -384 0
v -480 -384 0
v -480 -352 0
v -448 -352 0
v -480 -384 0
v -512 -384 0
v -512 -352 0
v -480 -352 0
v 0 -416 0
v -32 -416 0
v -32 -384 0
v 0 -384 0
v -32 -416 0
v -64 -416 0
v -64 -384 0
v -32 -384 0
v -64 -416 0
v -96 -416 0
v -96 -384 0
v -64 -384 0
v -96 -416 0
v -128 -416 0
v -128 -384 0
v -96 -384 0
v -128 -416 0
v -160 -416 0
v -160 -384 0
v -128 -384 0
v -160 -416 0
v -192 -416 0
v -192 -384 0
v -160 -384 0
v -192 -416 0
v -224 -416 0
v -224 -384 0
v -192 -384 0
v -224 -416 0
v -256 -416 0
v -256 -384 0
v -224 -384 0
v -256 -416 0
v -288 -416 0
v -288 -384 0
v -256 -384 0
v -288 -416 0
v -320 -416 0
v -320 -384 0
v -288 -384 0
v -320 -416 0
v -352 -416 0
v -352 -384 0
v -320 -384 0
v -352 -416 0
v -384 -416 0
v -384 -384 0
v -352 -384 0
v -384 -416 0
v -416 -416 0
v -416 -384 0
v -384 -384 0
v -416 -416 0
v -448 -416 0
v -448 -384 0
v -416 -384 0
v -448 -416 0
v -480 -416 0
v -480 -384 0
v -448 -384 0
v -480 -416 0
v -512 -416 0
v -512 -384 0
v -480 -384 0
v 0 -448 0
v -32 -448 0
v -32 -416 0
v 0 -416 0
v -32 -448 0
v -64 -448 0
v -64 -416 0
v -32 -416 0
v -64 -448 0
v -96 -448 0
v -96 -416 0
v -64 -416 0
v -96 -448 0
v -128 -448 0
v -128 -416 0
v -96 -416 0
v -128 -448 0
v -160 -448 0
v -160 -416 0
v -128 -416 0
v -160 -448 0
v -192 -448 0
v -192 -416 0
v -160 -416 0
v -192 -448 0
v -224 -448 0
v -224 -416 0
v -192 -416 0
v -224 -448 0
v -256 -448 0
v -256 -416 0
v -224 -416 0
v -256 -448 0
v -288 -448 0
v -288 -416 0
v -256 -416 0
v -288 -448 0
v -320 -448 0
v -320 -416 0
v -288 -416 0
v -320 -448 0
v -352 -448 0
v -352 -416 0
v -320 -416 0
v -352 -448 0
v -384 -448 0
v -384 -416 0
v -352 -416 0
v -384 -448 0
v -416 -448 0
v -416 -416 0
v -384 -416 0
v -416 -448 0
v -448 -448 0
v -448 -416 0
v -416 -416 0
v -448 -448 0
v -480 -448 0
v -480 -416 0
v -448 -416 0
v -480 -448 0
v -512 -448 0
v -512 -416 0
v -480 -416 0
v 0 -480 0
v -32 -480 0
v -32 -448 0
v 0 -448 0
v -32 -480 0
v -64 -480 0
v -64 -448 0
v -32 -448 0
v -64 -480 0
v -96 -480 0
v -96 -448 0
v -64 -448 0
v -96 -480 0
v -128 -480 0
v -128 -448 0
v -96 -448 0
v -128 -480 0
v -160 -480 0
v -160 -448 0
v -128 -448 0
v -160 -480 0
v -192 -480 0
v -192 -448 0
v -160 -448 0
v -192 -480 0
v -224 -480 0
v -224 -448 0
v -192 -448 0
v -224 -480 0
v -256 -480 0
v -256 -448 0
v -224 -448 0
v -256 -480 0
v -288 -480 0
v -288 -448 0
v -256 -448 0
v -288 -480 0
v -320 -480 0
v -320 -448 0
v -288 -448 0
v -320 -480 0
v -352 -480 0
v -352 -448 0
v -320 -448 0
v -352 -480 0
v -384 -480 0
v -384 -448 0
v -352 -448 0
v -384 -480 0
v -416 -480 0
v -416 -448 0
v -384 -448 0
v -416 -480 0
v -448 -480 0
v -448 -448 0
v -416 -448 0
v -448 -480 0
v -480 -480 0
v -480 -448 0
v -448 -448 0
v -480 -480 0
v -512 -480 0
v -512 -448 0
v -480 -448 0
v 0 -512 0
v -32 -512 0
v -32 -480 0
v 0 -480 0
v -32 -512 0
v -64 -512 0
v -64 -480 0
v -32 -480 0
v -64 -512 0
v -96 -512 0
v -96 -480 0
v -64 -480 0
v -96 -512 0
v -128 -512 0
v -128 -480 0
v -96 -480 0
v -128 -512 0
v -160 -512 0
v -160 -480 0
v -128 -480 0
v -160 -512 0
v -192 -512 0
v -192 -480 0
v -160 -480 0
v -192 -512 0
v -224 -512 0
v -224 -480 0
v -192 -480 0
v -224 -512 0
v -256 -512 0
v -256 -480 0
v -224 -480 0
v -256 -512 0
v -288 -512 0
v -288 -480 0
v -256 -480 0
v -288 -512 0
v -320 -512 0
v -320 -480 0
v -288 -480 0
v -320 -512 0
v -352 -512 0
v -352 -480 0
v -320 -480 0
v -352 -512 0
v -384 -512 0
v -384 -480 0
v -352 -480 0
v -384 -512 0
v -416 -512 0
v -416 -480 0
v -384 -480 0
v -416 -512 0
v -448 -512 0
v -448 -480 0
v -416 -480 0
v -448 -512 0
v -480 -512 0
v -480 -480 0
v -448 -480 0
v -480 -512 0
v -512 -512 0
v -512 -480 0
v -480 -480 0

# Texture cooridinates (Count = 16)
vt 0.71875 0.1875
vt 0.75 0.1875
vt 0.75 0.25
vt 0.71875 0.25
vt 0.6875 0.1875
vt 0.6875 0.25
vt 0.78125 0.1875
vt 0.78125 0.25
vt 0.71875 0.3125
vt 0.6875 0.3125
vt 0.75 0.3125
vt 0.78125 0.3125
vt 0.6875 0.125
vt 0.71875 0.125
vt 0.75 0.125
vt 0.78125 0.125

# Normal
vn 0 0 -1

# Mesh description
g myMap_mesh_0216

# Faces
f 1/1/1 2/2/1 3/3/1 4/4/1
f 5/1/1 6/2/1 7/3/1 8/4/1
f 9/1/1 10/2/1 11/3/1 12/4/1
f 13/5/1 14/1/1 15/4/1 16/6/1
f 17/2/1 18/7/1 19/8/1 20/3/1
f 21/1/1 22/2/1 23/3/1 24/4/1
f 25/1/1 26/2/1 27/3/1 28/4/1
f 29/1/1 30/2/1 31/3/1 32/4/1
f 33/1/1 34/2/1 35/3/1 36/4/1
f 37/1/1 38/2/1 39/3/1 40/4/1
f 41/1/1 42/2/1 43/3/1 44/4/1
f 45/1/1 46/2/1 47/3/1 48/4/1
f 49/1/1 50/2/1 51/3/1 52/4/1
f 53/1/1 54/2/1 55/3/1 56/4/1
f 57/1/1 58/2/1 59/3/1 60/4/1
f 61/1/1 62/2/1 63/3/1 64/4/1
f 65/1/1 66/2/1 67/3/1 68/4/1
f 69/1/1 70/2/1 71/3/1 72/4/1
f 73/1/1 74/2/1 75/3/1 76/4/1
f 77/5/1 78/1/1 79/4/1 80/6/1
f 81/2/1 82/7/1 83/8/1 84/3/1
f 85/1/1 86/2/1 87/3/1 88/4/1
f 89/1/1 90/2/1 91/3/1 92/4/1
f 93/1/1 94/2/1 95/3/1 96/4/1
f 97/1/1 98/2/1 99/3/1 100/4/1
f 101/1/1 102/2/1 103/3/1 104/4/1
f 105/1/1 106/2/1 107/3/1 108/4/1
f 109/1/1 110/2/1 111/3/1 112/4/1
f 113/1/1 114/2/1 115/3/1 116/4/1
f 117/1/1 118/2/1 119/3/1 120/4/1
f 121/1/1 122/2/1 123/3/1 124/4/1
f 125/1/1 126/2/1 127/3/1 128/4/1
f 129/1/1 130/2/1 131/3/1 132/4/1
f 133/1/1 134/2/1 135/3/1 136/4/1
f 137/1/1 138/2/1 139/3/1 140/4/1
f 141/2/1 142/7/1 143/8/1 144/3/1
f 145/2/1 146/7/1 147/8/1 148/3/1
f 149/1/1 150/2/1 151/3/1 152/4/1
f 153/6/1 154/4/1 155/9/1 156/10/1
f 157/4/1 158/3/1 159/11/1 160/9/1
f 161/4/1 162/3/1 163/11/1 164/9/1
f 165/4/1 166/3/1 167/11/1 168/9/1
f 169/4/1 170/3/1 171/11/1 172/9/1
f 173/4/1 174/3/1 175/11/1 176/9/1
f 177/4/1 178/3/1 179/11/1 180/9/1
f 181/4/1 182/3/1 183/11/1 184/9/1
f 185/3/1 186/8/1 187/12/1 188/11/1
f 189/1/1 190/2/1 191/3/1 192/4/1
f 193/1/1 194/2/1 195/3/1 196/4/1
f 197/1/1 198/2/1 199/3/1 200/4/1
f 201/1/1 202/2/1 203/3/1 204/4/1
f 205/2/1 206/7/1 207/8/1 208/3/1
f 209/2/1 210/7/1 211/8/1 212/3/1
f 213/1/1 214/2/1 215/3/1 216/4/1
f 217/13/1 218/14/1 219/1/1 220/5/1
f 221/14/1 222/15/1 223/2/1 224/1/1
f 225/3/1 226/8/1 227/12/1 228/11/1
f 229/1/1 230/2/1 231/3/1 232/4/1
f 233/1/1 234/2/1 235/3/1 236/4/1
f 237/1/1 238/2/1 239/3/1 240/4/1
f 241/6/1 242/4/1 243/9/1 244/10/1
f 245/14/1 246/15/1 247/2/1 248/1/1
f 249/15/1 250/16/1 251/7/1 252/2/1
f 253/1/1 254/2/1 255/3/1 256/4/1
f 257/1/1 258/2/1 259/3/1 260/4/1
f 261/1/1 262/2/1 263/3/1 264/4/1
f 265/1/1 266/2/1 267/3/1 268/4/1
f 269/2/1 270/7/1 271/8/1 272/3/1
f 273/2/1 274/7/1 275/8/1 276/3/1
f 277/1/1 278/2/1 279/3/1 280/4/1
f 281/1/1 282/2/1 283/3/1 284/4/1
f 285/1/1 286/2/1 287/3/1 288/4/1
f 289/2/1 290/7/1 291/8/1 292/3/1
f 293/1/1 294/2/1 295/3/1 296/4/1
f 297/1/1 298/2/1 299/3/1 300/4/1
f 301/1/1 302/2/1 303/3/1 304/4/1
f 305/2/1 306/7/1 307/8/1 308/3/1
f 309/1/1 310/2/1 311/3/1 312/4/1
f 313/1/1 314/2/1 315/3/1 316/4/1
f 317/1/1 318/2/1 319/3/1 320/4/1
f 321/1/1 322/2/1 323/3/1 324/4/1
f 325/1/1 326/2/1 327/3/1 328/4/1
f 329/1/1 330/2/1 331/3/1 332/4/1
f 333/2/1 334/7/1 335/8/1 336/3/1
f 337/2/1 338/7/1 339/8/1 340/3/1
f 341/1/1 342/2/1 343/3/1 344/4/1
f 345/1/1 346/2/1 347/3/1 348/4/1
f 349/1/1 350/2/1 351/3/1 352/4/1
f 353/2/1 354/7/1 355/8/1 356/3/1
f 357/1/1 358/2/1 359/3/1 360/4/1
f 361/1/1 362/2/1 363/3/1 364/4/1
f 365/1/1 366/2/1 367/3/1 368/4/1
f 369/2/1 370/7/1 371/8/1 372/3/1
f 373/1/1 374/2/1 375/3/1 376/4/1
f 377/1/1 378/2/1 379/3/1 380/4/1
f 381/1/1 382/2/1 383/3/1 384/4/1
f 385/1/1 386/2/1 387/3/1 388/4/1
f 389/1/1 390/2/1 391/3/1 392/4/1
f 393/1/1 394/2/1 395/3/1 396/4/1
f 397/2/1 398/7/1 399/8/1 400/3/1
f 401/2/1 402/7/1 403/8/1 404/3/1
f 405/1/1 406/2/1 407/3/1 408/4/1
f 409/1/1 410/2/1 411/3/1 412/4/1
f 413/1/1 414/2/1 415/3/1 416/4/1
f 417/2/1 418/7/1 419/8/1 420/3/1
f 421/1/1 422/2/1 423/3/1 424/4/1
f 425/1/1 426/2/1 427/3/1 428/4/1
f 429/1/1 430/2/1 431/3/1 432/4/1
f 433/2/1 434/7/1 435/8/1 436/3/1
f 437/1/1 438/2/1 439/3/1 440/4/1
f 441/1/1 442/2/1 443/3/1 444/4/1
f 445/1/1 446/2/1 447/3/1 448/4/1
f 449/1/1 450/2/1 451/3/1 452/4/1
f 453/1/1 454/2/1 455/3/1 456/4/1
f 457/1/1 458/2/1 459/3/1 460/4/1
f 461/2/1 462/7/1 463/8/1 464/3/1
f 465/2/1 466/7/1 467/8/1 468/3/1
f 469/1/1 470/2/1 471/3/1 472/4/1
f 473/1/1 474/2/1 475/3/1 476/4/1
f 477/1/1 478/2/1 479/3/1 480/4/1
f 481/2/1 482/7/1 483/8/1 484/3/1
f 485/1/1 486/2/1 487/3/1 488/4/1
f 489/1/1 490/2/1 491/3/1 492/4/1
f 493/1/1 494/2/1 495/3/1 496/4/1
f 497/2/1 498/7/1 499/8/1 500/3/1
f 501/1/1 502/2/1 503/3/1 504/4/1
f 505/1/1 506/2/1 507/3/1 508/4/1
f 509/1/1 510/2/1 511/3/1 512/4/1
f 513/1/1 514/2/1 515/3/1 516/4/1
f 517/1/1 518/2/1 519/3/1 520/4/1
f 521/1/1 522/2/1 523/3/1 524/4/1
f 525/2/1 526/7/1 527/8/1 528/3/1
f 529/2/1 530/7/1 531/8/1 532/3/1
f 533/1/1 534/2/1 535/3/1 536/4/1
f 537/1/1 538/2/1 539/3/1 540/4/1
f 541/1/1 542/2/1 543/3/1 544/4/1
f 545/5/1 546/1/1 547/4/1 548/6/1
f 549/1/1 550/2/1 551/3/1 552/4/1
f 553/1/1 554/2/1 555/3/1 556/4/1
f 557/1/1 558/2/1 559/3/1 560/4/1
f 561/2/1 562/7/1 563/8/1 564/3/1
f 565/1/1 566/2/1 567/3/1 568/4/1
f 569/1/1 570/2/1 571/3/1 572/4/1
f 573/1/1 574/2/1 575/3/1 576/4/1
f 577/1/1 578/2/1 579/3/1 580/4/1
f 581/1/1 582/2/1 583/3/1 584/4/1
f 585/1/1 586/2/1 587/3/1 588/4/1
f 589/2/1 590/7/1 591/8/1 592/3/1
f 593/2/1 594/7/1 595/8/1 596/3/1
f 597/1/1 598/2/1 599/3/1 600/4/1
f 601/1/1 602/2/1 603/3/1 604/4/1
f 605/1/1 606/2/1 607/3/1 608/4/1
f 609/5/1 610/1/1 611/4/1 612/6/1
f 613/1/1 614/2/1 615/3/1 616/4/1
f 617/1/1 618/2/1 619/3/1 620/4/1
f 621/1/1 622/2/1 623/3/1 624/4/1
f 625/2/1 626/7/1 627/8/1 628/3/1
f 629/1/1 630/2/1 631/3/1 632/4/1
f 633/1/1 634/2/1 635/3/1 636/4/1
f 637/1/1 638/2/1 639/3/1 640/4/1
f 641/4/1 642/3/1 643/11/1 644/9/1
f 645/4/1 646/3/1 647/11/1 648/9/1
f 649/14/1 650/15/1 651/2/1 652/1/1
f 653/15/1 654/16/1 655/7/1 656/2/1
f 657/2/1 658/7/1 659/8/1 660/3/1
f 661/1/1 662/2/1 663/3/1 664/4/1
f 665/1/1 666/2/1 667/3/1 668/4/1
f 669/1/1 670/2/1 671/3/1 672/4/1
f 673/5/1 674/1/1 675/4/1 676/6/1
f 677/1/1 678/2/1 679/3/1 680/4/1
f 681/1/1 682/2/1 683/3/1 684/4/1
f 685/1/1 686/2/1 687/3/1 688/4/1
f 689/2/1 690/7/1 691/8/1 692/3/1
f 693/1/1 694/2/1 695/3/1 696/4/1
f 697/1/1 698/2/1 699/3/1 700/4/1
f 701/1/1 702/2/1 703/3/1 704/4/1
f 705/1/1 706/2/1 707/3/1 708/4/1
f 709/1/1 710/2/1 711/3/1 712/4/1
f 713/1/1 714/2/1 715/3/1 716/4/1
f 717/1/1 718/2/1 719/3/1 720/4/1
f 721/2/1 722/7/1 723/8/1 724/3/1
f 725/1/1 726/2/1 727/3/1 728/4/1
f 729/1/1 730/2/1 731/3/1 732/4/1
f 733/1/1 734/2/1 735/3/1 736/4/1
f 737/5/1 738/1/1 739/4/1 740/6/1
f 741/1/1 742/2/1 743/3/1 744/4/1
f 745/1/1 746/2/1 747/3/1 748/4/1
f 749/1/1 750/2/1 751/3/1 752/4/1
f 753/2/1 754/7/1 755/8/1 756/3/1
f 757/1/1 758/2/1 759/3/1 760/4/1
f 761/1/1 762/2/1 763/3/1 764/4/1
f 765/1/1 766/2/1 767/3/1 768/4/1
f 769/1/1 770/2/1 771/3/1 772/4/1
f 773/1/1 774/2/1 775/3/1 776/4/1
f 777/1/1 778/2/1 779/3/1 780/4/1
f 781/1/1 782/2/1 783/3/1 784/4/1
f 785/2/1 786/7/1 787/8/1 788/3/1
f 789/1/1 790/2/1 791/3/1 792/4/1
f 793/1/1 794/2/1 795/3/1 796/4/1
f 797/1/1 798/2/1 799/3/1 800/4/1
f 801/5/1 802/1/1 803/4/1 804/6/1
f 805/1/1 806/2/1 807/3/1 808/4/1
f 809/1/1 810/2/1 811/3/1 812/4/1
f 813/1/1 814/2/1 815/3/1 816/4/1
f 817/2/1 818/7/1 819/8/1 820/3/1
f 821/1/1 822/2/1 823/3/1 824/4/1
f 825/1/1 826/2/1 827/3/1 828/4/1
f 829/1/1 830/2/1 831/3/1 832/4/1
f 833/1/1 834/2/1 835/3/1 836/4/1
f 837/1/1 838/2/1 839/3/1 840/4/1
f 841/1/1 842/2/1 843/3/1 844/4/1
f 845/1/1 846/2/1 847/3/1 848/4/1
f 849/5/1 850/1/1 851/4/1 852/6/1
f 853/1/1 854/2/1 855/3/1 856/4/1
f 857/1/1 858/2/1 859/3/1 860/4/1
f 861/1/1 862/2/1 863/3/1 864/4/1
f 865/5/1 866/1/1 867/4/1 868/6/1
f 869/1/1 870/2/1 871/3/1 872/4/1
f 873/1/1 874/2/1 875/3/1 876/4/1
f 877/1/1 878/2/1 879/3/1 880/4/1
f 881/2/1 882/7/1 883/8/1 884/3/1
f 885/1/1 886/2/1 887/3/1 888/4/1
f 889/1/1 890/2/1 891/3/1 892/4/1
f 893/1/1 894/2/1 895/3/1 896/4/1
f 897/1/1 898/2/1 899/3/1 900/4/1
f 901/1/1 902/2/1 903/3/1 904/4/1
f 905/1/1 906/2/1 907/3/1 908/4/1
f 909/1/1 910/2/1 911/3/1 912/4/1
f 913/5/1 914/1/1 915/4/1 916/6/1
f 917/1/1 918/2/1 919/3/1 920/4/1
f 921/1/1 922/2/1 923/3/1 924/4/1
f 925/1/1 926/2/1 927/3/1 928/4/1
f 929/5/1 930/1/1 931/4/1 932/6/1
f 933/1/1 934/2/1 935/3/1 936/4/1
f 937/1/1 938/2/1 939/3/1 940/4/1
f 941/1/1 942/2/1 943/3/1 944/4/1
f 945/2/1 946/7/1 947/8/1 948/3/1
f 949/1/1 950/2/1 951/3/1 952/4/1
f 953/1/1 954/2/1 955/3/1 956/4/1
f 957/1/1 958/2/1 959/3/1 960/4/1
f 961/1/1 962/2/1 963/3/1 964/4/1
f 965/1/1 966/2/1 967/3/1 968/4/1
f 969/1/1 970/2/1 971/3/1 972/4/1
f 973/1/1 974/2/1 975/3/1 976/4/1
f 977/5/1 978/1/1 979/4/1 980/6/1
f 981/1/1 982/2/1 983/3/1 984/4/1
f 985/1/1 986/2/1 987/3/1 988/4/1
f 989/1/1 990/2/1 991/3/1 992/4/1
f 993/2/1 994/7/1 995/8/1 996/3/1
f 997/1/1 998/2/1 999/3/1 1000/4/1
f 1001/1/1 1002/2/1 1003/3/1 1004/4/1
f 1005/1/1 1006/2/1 1007/3/1 1008/4/1
f 1009/5/1 1010/1/1 1011/4/1 1012/6/1
f 1013/1/1 1014/2/1 1015/3/1 1016/4/1
f 1017/1/1 1018/2/1 1019/3/1 1020/4/1
f 1021/1/1 1022/2/1 1023/3/1 1024/4/1

