# Tiled2Unity generated file. Do not modify by hand.
# Wavefront file for 'myMap_mesh_0317.obj'

# Vertices (Count = 40)
v -32 -192 0
v -64 -192 0
v -64 -160 0
v -32 -160 0
v -32 -224 0
v -64 -224 0
v -64 -192 0
v -32 -192 0
v -32 -256 0
v -64 -256 0
v -64 -224 0
v -32 -224 0
v -32 -288 0
v -64 -288 0
v -64 -256 0
v -32 -256 0
v 0 -320 0
v -32 -320 0
v -32 -288 0
v 0 -288 0
v -32 -320 0
v -64 -320 0
v -64 -288 0
v -32 -288 0
v -64 -320 0
v -96 -320 0
v -96 -288 0
v -64 -288 0
v -96 -320 0
v -128 -320 0
v -128 -288 0
v -96 -288 0
v 0 -512 0
v -32 -512 0
v -32 -480 0
v 0 -480 0
v -32 -512 0
v -64 -512 0
v -64 -480 0
v -32 -480 0

# Texture cooridinates (Count = 12)
vt 0.59375 0.375
vt 0.625 0.375
vt 0.625 0.4375
vt 0.59375 0.4375
vt 0.59375 0.3125
vt 0.625 0.3125
vt 0.5 0.8125
vt 0.53125 0.8125
vt 0.53125 0.875
vt 0.5 0.875
vt 0.5625 0.8125
vt 0.5625 0.875

# Normal
vn 0 0 -1

# Mesh description
g myMap_mesh_0317

# Faces
f 1/1/1 2/2/1 3/3/1 4/4/1
f 5/1/1 6/2/1 7/3/1 8/4/1
f 9/1/1 10/2/1 11/3/1 12/4/1
f 13/1/1 14/2/1 15/3/1 16/4/1
f 17/5/1 18/6/1 19/2/1 20/1/1
f 21/1/1 22/2/1 23/3/1 24/4/1
f 25/1/1 26/2/1 27/3/1 28/4/1
f 29/1/1 30/2/1 31/3/1 32/4/1
f 33/7/1 34/8/1 35/9/1 36/10/1
f 37/8/1 38/11/1 39/12/1 40/9/1

