# Tiled2Unity generated file. Do not modify by hand.
# Wavefront file for 'myMap_mesh_0307.obj'

# Vertices (Count = 36)
v -128 -96 0
v -160 -96 0
v -160 -64 0
v -128 -64 0
v -160 -96 0
v -192 -96 0
v -192 -64 0
v -160 -64 0
v -192 -96 0
v -224 -96 0
v -224 -64 0
v -192 -64 0
v -224 -96 0
v -256 -96 0
v -256 -64 0
v -224 -64 0
v -352 -96 0
v -384 -96 0
v -384 -64 0
v -352 -64 0
v -384 -96 0
v -416 -96 0
v -416 -64 0
v -384 -64 0
v -416 -96 0
v -448 -96 0
v -448 -64 0
v -416 -64 0
v -448 -96 0
v -480 -96 0
v -480 -64 0
v -448 -64 0
v -480 -96 0
v -512 -96 0
v -512 -64 0
v -480 -64 0

# Texture cooridinates (Count = 8)
vt 0.46875 0.8125
vt 0.5 0.8125
vt 0.5 0.875
vt 0.46875 0.875
vt 0.53125 0.8125
vt 0.53125 0.875
vt 0.5625 0.8125
vt 0.5625 0.875

# Normal
vn 0 0 -1

# Mesh description
g myMap_mesh_0307

# Faces
f 1/1/1 2/2/1 3/3/1 4/4/1
f 5/2/1 6/5/1 7/6/1 8/3/1
f 9/2/1 10/5/1 11/6/1 12/3/1
f 13/5/1 14/7/1 15/8/1 16/6/1
f 17/1/1 18/2/1 19/3/1 20/4/1
f 21/2/1 22/5/1 23/6/1 24/3/1
f 25/2/1 26/5/1 27/6/1 28/3/1
f 29/2/1 30/5/1 31/6/1 32/3/1
f 33/5/1 34/7/1 35/8/1 36/6/1

