# Tiled2Unity generated file. Do not modify by hand.
# Wavefront file for 'myMap_mesh_0121.obj'

# Vertices (Count = 1024)
v 0 -32 0
v -32 -32 0
v -32 0 0
v 0 0 0
v -32 -32 0
v -64 -32 0
v -64 0 0
v -32 0 0
v -64 -32 0
v -96 -32 0
v -96 0 0
v -64 0 0
v -96 -32 0
v -128 -32 0
v -128 0 0
v -96 0 0
v -128 -32 0
v -160 -32 0
v -160 0 0
v -128 0 0
v -160 -32 0
v -192 -32 0
v -192 0 0
v -160 0 0
v -192 -32 0
v -224 -32 0
v -224 0 0
v -192 0 0
v -224 -32 0
v -256 -32 0
v -256 0 0
v -224 0 0
v -256 -32 0
v -288 -32 0
v -288 0 0
v -256 0 0
v -288 -32 0
v -320 -32 0
v -320 0 0
v -288 0 0
v -320 -32 0
v -352 -32 0
v -352 0 0
v -320 0 0
v -352 -32 0
v -384 -32 0
v -384 0 0
v -352 0 0
v -384 -32 0
v -416 -32 0
v -416 0 0
v -384 0 0
v -416 -32 0
v -448 -32 0
v -448 0 0
v -416 0 0
v -448 -32 0
v -480 -32 0
v -480 0 0
v -448 0 0
v -480 -32 0
v -512 -32 0
v -512 0 0
v -480 0 0
v 0 -64 0
v -32 -64 0
v -32 -32 0
v 0 -32 0
v -32 -64 0
v -64 -64 0
v -64 -32 0
v -32 -32 0
v -64 -64 0
v -96 -64 0
v -96 -32 0
v -64 -32 0
v -96 -64 0
v -128 -64 0
v -128 -32 0
v -96 -32 0
v -128 -64 0
v -160 -64 0
v -160 -32 0
v -128 -32 0
v -160 -64 0
v -192 -64 0
v -192 -32 0
v -160 -32 0
v -192 -64 0
v -224 -64 0
v -224 -32 0
v -192 -32 0
v -224 -64 0
v -256 -64 0
v -256 -32 0
v -224 -32 0
v -256 -64 0
v -288 -64 0
v -288 -32 0
v -256 -32 0
v -288 -64 0
v -320 -64 0
v -320 -32 0
v -288 -32 0
v -320 -64 0
v -352 -64 0
v -352 -32 0
v -320 -32 0
v -352 -64 0
v -384 -64 0
v -384 -32 0
v -352 -32 0
v -384 -64 0
v -416 -64 0
v -416 -32 0
v -384 -32 0
v -416 -64 0
v -448 -64 0
v -448 -32 0
v -416 -32 0
v -448 -64 0
v -480 -64 0
v -480 -32 0
v -448 -32 0
v -480 -64 0
v -512 -64 0
v -512 -32 0
v -480 -32 0
v 0 -96 0
v -32 -96 0
v -32 -64 0
v 0 -64 0
v -32 -96 0
v -64 -96 0
v -64 -64 0
v -32 -64 0
v -64 -96 0
v -96 -96 0
v -96 -64 0
v -64 -64 0
v -96 -96 0
v -128 -96 0
v -128 -64 0
v -96 -64 0
v -128 -96 0
v -160 -96 0
v -160 -64 0
v -128 -64 0
v -160 -96 0
v -192 -96 0
v -192 -64 0
v -160 -64 0
v -192 -96 0
v -224 -96 0
v -224 -64 0
v -192 -64 0
v -224 -96 0
v -256 -96 0
v -256 -64 0
v -224 -64 0
v -256 -96 0
v -288 -96 0
v -288 -64 0
v -256 -64 0
v -288 -96 0
v -320 -96 0
v -320 -64 0
v -288 -64 0
v -320 -96 0
v -352 -96 0
v -352 -64 0
v -320 -64 0
v -352 -96 0
v -384 -96 0
v -384 -64 0
v -352 -64 0
v -384 -96 0
v -416 -96 0
v -416 -64 0
v -384 -64 0
v -416 -96 0
v -448 -96 0
v -448 -64 0
v -416 -64 0
v -448 -96 0
v -480 -96 0
v -480 -64 0
v -448 -64 0
v -480 -96 0
v -512 -96 0
v -512 -64 0
v -480 -64 0
v 0 -128 0
v -32 -128 0
v -32 -96 0
v 0 -96 0
v -32 -128 0
v -64 -128 0
v -64 -96 0
v -32 -96 0
v -64 -128 0
v -96 -128 0
v -96 -96 0
v -64 -96 0
v -96 -128 0
v -128 -128 0
v -128 -96 0
v -96 -96 0
v -128 -128 0
v -160 -128 0
v -160 -96 0
v -128 -96 0
v -160 -128 0
v -192 -128 0
v -192 -96 0
v -160 -96 0
v -192 -128 0
v -224 -128 0
v -224 -96 0
v -192 -96 0
v -224 -128 0
v -256 -128 0
v -256 -96 0
v -224 -96 0
v -256 -128 0
v -288 -128 0
v -288 -96 0
v -256 -96 0
v -288 -128 0
v -320 -128 0
v -320 -96 0
v -288 -96 0
v -320 -128 0
v -352 -128 0
v -352 -96 0
v -320 -96 0
v -352 -128 0
v -384 -128 0
v -384 -96 0
v -352 -96 0
v -384 -128 0
v -416 -128 0
v -416 -96 0
v -384 -96 0
v -416 -128 0
v -448 -128 0
v -448 -96 0
v -416 -96 0
v -448 -128 0
v -480 -128 0
v -480 -96 0
v -448 -96 0
v -480 -128 0
v -512 -128 0
v -512 -96 0
v -480 -96 0
v 0 -160 0
v -32 -160 0
v -32 -128 0
v 0 -128 0
v -32 -160 0
v -64 -160 0
v -64 -128 0
v -32 -128 0
v -64 -160 0
v -96 -160 0
v -96 -128 0
v -64 -128 0
v -96 -160 0
v -128 -160 0
v -128 -128 0
v -96 -128 0
v -128 -160 0
v -160 -160 0
v -160 -128 0
v -128 -128 0
v -160 -160 0
v -192 -160 0
v -192 -128 0
v -160 -128 0
v -192 -160 0
v -224 -160 0
v -224 -128 0
v -192 -128 0
v -224 -160 0
v -256 -160 0
v -256 -128 0
v -224 -128 0
v -256 -160 0
v -288 -160 0
v -288 -128 0
v -256 -128 0
v -288 -160 0
v -320 -160 0
v -320 -128 0
v -288 -128 0
v -320 -160 0
v -352 -160 0
v -352 -128 0
v -320 -128 0
v -352 -160 0
v -384 -160 0
v -384 -128 0
v -352 -128 0
v -384 -160 0
v -416 -160 0
v -416 -128 0
v -384 -128 0
v -416 -160 0
v -448 -160 0
v -448 -128 0
v -416 -128 0
v -448 -160 0
v -480 -160 0
v -480 -128 0
v -448 -128 0
v -480 -160 0
v -512 -160 0
v -512 -128 0
v -480 -128 0
v 0 -192 0
v -32 -192 0
v -32 -160 0
v 0 -160 0
v -32 -192 0
v -64 -192 0
v -64 -160 0
v -32 -160 0
v -64 -192 0
v -96 -192 0
v -96 -160 0
v -64 -160 0
v -96 -192 0
v -128 -192 0
v -128 -160 0
v -96 -160 0
v -128 -192 0
v -160 -192 0
v -160 -160 0
v -128 -160 0
v -160 -192 0
v -192 -192 0
v -192 -160 0
v -160 -160 0
v -192 -192 0
v -224 -192 0
v -224 -160 0
v -192 -160 0
v -224 -192 0
v -256 -192 0
v -256 -160 0
v -224 -160 0
v -256 -192 0
v -288 -192 0
v -288 -160 0
v -256 -160 0
v -288 -192 0
v -320 -192 0
v -320 -160 0
v -288 -160 0
v -320 -192 0
v -352 -192 0
v -352 -160 0
v -320 -160 0
v -352 -192 0
v -384 -192 0
v -384 -160 0
v -352 -160 0
v -384 -192 0
v -416 -192 0
v -416 -160 0
v -384 -160 0
v -416 -192 0
v -448 -192 0
v -448 -160 0
v -416 -160 0
v -448 -192 0
v -480 -192 0
v -480 -160 0
v -448 -160 0
v -480 -192 0
v -512 -192 0
v -512 -160 0
v -480 -160 0
v 0 -224 0
v -32 -224 0
v -32 -192 0
v 0 -192 0
v -32 -224 0
v -64 -224 0
v -64 -192 0
v -32 -192 0
v -64 -224 0
v -96 -224 0
v -96 -192 0
v -64 -192 0
v -96 -224 0
v -128 -224 0
v -128 -192 0
v -96 -192 0
v -128 -224 0
v -160 -224 0
v -160 -192 0
v -128 -192 0
v -160 -224 0
v -192 -224 0
v -192 -192 0
v -160 -192 0
v -192 -224 0
v -224 -224 0
v -224 -192 0
v -192 -192 0
v -224 -224 0
v -256 -224 0
v -256 -192 0
v -224 -192 0
v -256 -224 0
v -288 -224 0
v -288 -192 0
v -256 -192 0
v -288 -224 0
v -320 -224 0
v -320 -192 0
v -288 -192 0
v -320 -224 0
v -352 -224 0
v -352 -192 0
v -320 -192 0
v -352 -224 0
v -384 -224 0
v -384 -192 0
v -352 -192 0
v -384 -224 0
v -416 -224 0
v -416 -192 0
v -384 -192 0
v -416 -224 0
v -448 -224 0
v -448 -192 0
v -416 -192 0
v -448 -224 0
v -480 -224 0
v -480 -192 0
v -448 -192 0
v -480 -224 0
v -512 -224 0
v -512 -192 0
v -480 -192 0
v 0 -256 0
v -32 -256 0
v -32 -224 0
v 0 -224 0
v -32 -256 0
v -64 -256 0
v -64 -224 0
v -32 -224 0
v -64 -256 0
v -96 -256 0
v -96 -224 0
v -64 -224 0
v -96 -256 0
v -128 -256 0
v -128 -224 0
v -96 -224 0
v -128 -256 0
v -160 -256 0
v -160 -224 0
v -128 -224 0
v -160 -256 0
v -192 -256 0
v -192 -224 0
v -160 -224 0
v -192 -256 0
v -224 -256 0
v -224 -224 0
v -192 -224 0
v -224 -256 0
v -256 -256 0
v -256 -224 0
v -224 -224 0
v -256 -256 0
v -288 -256 0
v -288 -224 0
v -256 -224 0
v -288 -256 0
v -320 -256 0
v -320 -224 0
v -288 -224 0
v -320 -256 0
v -352 -256 0
v -352 -224 0
v -320 -224 0
v -352 -256 0
v -384 -256 0
v -384 -224 0
v -352 -224 0
v -384 -256 0
v -416 -256 0
v -416 -224 0
v -384 -224 0
v -416 -256 0
v -448 -256 0
v -448 -224 0
v -416 -224 0
v -448 -256 0
v -480 -256 0
v -480 -224 0
v -448 -224 0
v -480 -256 0
v -512 -256 0
v -512 -224 0
v -480 -224 0
v 0 -288 0
v -32 -288 0
v -32 -256 0
v 0 -256 0
v -32 -288 0
v -64 -288 0
v -64 -256 0
v -32 -256 0
v -64 -288 0
v -96 -288 0
v -96 -256 0
v -64 -256 0
v -96 -288 0
v -128 -288 0
v -128 -256 0
v -96 -256 0
v -128 -288 0
v -160 -288 0
v -160 -256 0
v -128 -256 0
v -160 -288 0
v -192 -288 0
v -192 -256 0
v -160 -256 0
v -192 -288 0
v -224 -288 0
v -224 -256 0
v -192 -256 0
v -224 -288 0
v -256 -288 0
v -256 -256 0
v -224 -256 0
v -256 -288 0
v -288 -288 0
v -288 -256 0
v -256 -256 0
v -288 -288 0
v -320 -288 0
v -320 -256 0
v -288 -256 0
v -320 -288 0
v -352 -288 0
v -352 -256 0
v -320 -256 0
v -352 -288 0
v -384 -288 0
v -384 -256 0
v -352 -256 0
v -384 -288 0
v -416 -288 0
v -416 -256 0
v -384 -256 0
v -416 -288 0
v -448 -288 0
v -448 -256 0
v -416 -256 0
v -448 -288 0
v -480 -288 0
v -480 -256 0
v -448 -256 0
v -480 -288 0
v -512 -288 0
v -512 -256 0
v -480 -256 0
v 0 -320 0
v -32 -320 0
v -32 -288 0
v 0 -288 0
v -32 -320 0
v -64 -320 0
v -64 -288 0
v -32 -288 0
v -64 -320 0
v -96 -320 0
v -96 -288 0
v -64 -288 0
v -96 -320 0
v -128 -320 0
v -128 -288 0
v -96 -288 0
v -128 -320 0
v -160 -320 0
v -160 -288 0
v -128 -288 0
v -160 -320 0
v -192 -320 0
v -192 -288 0
v -160 -288 0
v -192 -320 0
v -224 -320 0
v -224 -288 0
v -192 -288 0
v -224 -320 0
v -256 -320 0
v -256 -288 0
v -224 -288 0
v -256 -320 0
v -288 -320 0
v -288 -288 0
v -256 -288 0
v -288 -320 0
v -320 -320 0
v -320 -288 0
v -288 -288 0
v -320 -320 0
v -352 -320 0
v -352 -288 0
v -320 -288 0
v -352 -320 0
v -384 -320 0
v -384 -288 0
v -352 -288 0
v -384 -320 0
v -416 -320 0
v -416 -288 0
v -384 -288 0
v -416 -320 0
v -448 -320 0
v -448 -288 0
v -416 -288 0
v -448 -320 0
v -480 -320 0
v -480 -288 0
v -448 -288 0
v -480 -320 0
v -512 -320 0
v -512 -288 0
v -480 -288 0
v 0 -352 0
v -32 -352 0
v -32 -320 0
v 0 -320 0
v -32 -352 0
v -64 -352 0
v -64 -320 0
v -32 -320 0
v -64 -352 0
v -96 -352 0
v -96 -320 0
v -64 -320 0
v -96 -352 0
v -128 -352 0
v -128 -320 0
v -96 -320 0
v -128 -352 0
v -160 -352 0
v -160 -320 0
v -128 -320 0
v -160 -352 0
v -192 -352 0
v -192 -320 0
v -160 -320 0
v -192 -352 0
v -224 -352 0
v -224 -320 0
v -192 -320 0
v -224 -352 0
v -256 -352 0
v -256 -320 0
v -224 -320 0
v -256 -352 0
v -288 -352 0
v -288 -320 0
v -256 -320 0
v -288 -352 0
v -320 -352 0
v -320 -320 0
v -288 -320 0
v -320 -352 0
v -352 -352 0
v -352 -320 0
v -320 -320 0
v -352 -352 0
v -384 -352 0
v -384 -320 0
v -352 -320 0
v -384 -352 0
v -416 -352 0
v -416 -320 0
v -384 -320 0
v -416 -352 0
v -448 -352 0
v -448 -320 0
v -416 -320 0
v -448 -352 0
v -480 -352 0
v -480 -320 0
v -448 -320 0
v -480 -352 0
v -512 -352 0
v -512 -320 0
v -480 -320 0
v 0 -384 0
v -32 -384 0
v -32 -352 0
v 0 -352 0
v -32 -384 0
v -64 -384 0
v -64 -352 0
v -32 -352 0
v -64 -384 0
v -96 -384 0
v -96 -352 0
v -64 -352 0
v -96 -384 0
v -128 -384 0
v -128 -352 0
v -96 -352 0
v -128 -384 0
v -160 -384 0
v -160 -352 0
v -128 -352 0
v -160 -384 0
v -192 -384 0
v -192 -352 0
v -160 -352 0
v -192 -384 0
v -224 -384 0
v -224 -352 0
v -192 -352 0
v -224 -384 0
v -256 -384 0
v -256 -352 0
v -224 -352 0
v -256 -384 0
v -288 -384 0
v -288 -352 0
v -256 -352 0
v -288 -384 0
v -320 -384 0
v -320 -352 0
v -288 -352 0
v -320 -384 0
v -352 -384 0
v -352 -352 0
v -320 -352 0
v -352 -384 0
v -384 -384 0
v -384 -352 0
v -352 -352 0
v -384 -384 0
v -416 -384 0
v -416 -352 0
v -384 -352 0
v -416 -384 0
v -448 -384 0
v -448 -352 0
v -416 -352 0
v -448 -384 0
v -480 -384 0
v -480 -352 0
v -448 -352 0
v -480 -384 0
v -512 -384 0
v -512 -352 0
v -480 -352 0
v 0 -416 0
v -32 -416 0
v -32 -384 0
v 0 -384 0
v -32 -416 0
v -64 -416 0
v -64 -384 0
v -32 -384 0
v -64 -416 0
v -96 -416 0
v -96 -384 0
v -64 -384 0
v -96 -416 0
v -128 -416 0
v -128 -384 0
v -96 -384 0
v -128 -416 0
v -160 -416 0
v -160 -384 0
v -128 -384 0
v -160 -416 0
v -192 -416 0
v -192 -384 0
v -160 -384 0
v -192 -416 0
v -224 -416 0
v -224 -384 0
v -192 -384 0
v -224 -416 0
v -256 -416 0
v -256 -384 0
v -224 -384 0
v -256 -416 0
v -288 -416 0
v -288 -384 0
v -256 -384 0
v -288 -416 0
v -320 -416 0
v -320 -384 0
v -288 -384 0
v -320 -416 0
v -352 -416 0
v -352 -384 0
v -320 -384 0
v -352 -416 0
v -384 -416 0
v -384 -384 0
v -352 -384 0
v -384 -416 0
v -416 -416 0
v -416 -384 0
v -384 -384 0
v -416 -416 0
v -448 -416 0
v -448 -384 0
v -416 -384 0
v -448 -416 0
v -480 -416 0
v -480 -384 0
v -448 -384 0
v -480 -416 0
v -512 -416 0
v -512 -384 0
v -480 -384 0
v 0 -448 0
v -32 -448 0
v -32 -416 0
v 0 -416 0
v -32 -448 0
v -64 -448 0
v -64 -416 0
v -32 -416 0
v -64 -448 0
v -96 -448 0
v -96 -416 0
v -64 -416 0
v -96 -448 0
v -128 -448 0
v -128 -416 0
v -96 -416 0
v -128 -448 0
v -160 -448 0
v -160 -416 0
v -128 -416 0
v -160 -448 0
v -192 -448 0
v -192 -416 0
v -160 -416 0
v -192 -448 0
v -224 -448 0
v -224 -416 0
v -192 -416 0
v -224 -448 0
v -256 -448 0
v -256 -416 0
v -224 -416 0
v -256 -448 0
v -288 -448 0
v -288 -416 0
v -256 -416 0
v -288 -448 0
v -320 -448 0
v -320 -416 0
v -288 -416 0
v -320 -448 0
v -352 -448 0
v -352 -416 0
v -320 -416 0
v -352 -448 0
v -384 -448 0
v -384 -416 0
v -352 -416 0
v -384 -448 0
v -416 -448 0
v -416 -416 0
v -384 -416 0
v -416 -448 0
v -448 -448 0
v -448 -416 0
v -416 -416 0
v -448 -448 0
v -480 -448 0
v -480 -416 0
v -448 -416 0
v -480 -448 0
v -512 -448 0
v -512 -416 0
v -480 -416 0
v 0 -480 0
v -32 -480 0
v -32 -448 0
v 0 -448 0
v -32 -480 0
v -64 -480 0
v -64 -448 0
v -32 -448 0
v -64 -480 0
v -96 -480 0
v -96 -448 0
v -64 -448 0
v -96 -480 0
v -128 -480 0
v -128 -448 0
v -96 -448 0
v -128 -480 0
v -160 -480 0
v -160 -448 0
v -128 -448 0
v -160 -480 0
v -192 -480 0
v -192 -448 0
v -160 -448 0
v -192 -480 0
v -224 -480 0
v -224 -448 0
v -192 -448 0
v -224 -480 0
v -256 -480 0
v -256 -448 0
v -224 -448 0
v -256 -480 0
v -288 -480 0
v -288 -448 0
v -256 -448 0
v -288 -480 0
v -320 -480 0
v -320 -448 0
v -288 -448 0
v -320 -480 0
v -352 -480 0
v -352 -448 0
v -320 -448 0
v -352 -480 0
v -384 -480 0
v -384 -448 0
v -352 -448 0
v -384 -480 0
v -416 -480 0
v -416 -448 0
v -384 -448 0
v -416 -480 0
v -448 -480 0
v -448 -448 0
v -416 -448 0
v -448 -480 0
v -480 -480 0
v -480 -448 0
v -448 -448 0
v -480 -480 0
v -512 -480 0
v -512 -448 0
v -480 -448 0
v 0 -512 0
v -32 -512 0
v -32 -480 0
v 0 -480 0
v -32 -512 0
v -64 -512 0
v -64 -480 0
v -32 -480 0
v -64 -512 0
v -96 -512 0
v -96 -480 0
v -64 -480 0
v -96 -512 0
v -128 -512 0
v -128 -480 0
v -96 -480 0
v -128 -512 0
v -160 -512 0
v -160 -480 0
v -128 -480 0
v -160 -512 0
v -192 -512 0
v -192 -480 0
v -160 -480 0
v -192 -512 0
v -224 -512 0
v -224 -480 0
v -192 -480 0
v -224 -512 0
v -256 -512 0
v -256 -480 0
v -224 -480 0
v -256 -512 0
v -288 -512 0
v -288 -480 0
v -256 -480 0
v -288 -512 0
v -320 -512 0
v -320 -480 0
v -288 -480 0
v -320 -512 0
v -352 -512 0
v -352 -480 0
v -320 -480 0
v -352 -512 0
v -384 -512 0
v -384 -480 0
v -352 -480 0
v -384 -512 0
v -416 -512 0
v -416 -480 0
v -384 -480 0
v -416 -512 0
v -448 -512 0
v -448 -480 0
v -416 -480 0
v -448 -512 0
v -480 -512 0
v -480 -480 0
v -448 -480 0
v -480 -512 0
v -512 -512 0
v -512 -480 0
v -480 -480 0

# Texture cooridinates (Count = 19)
vt 0.875 0.875
vt 0.90625 0.875
vt 0.90625 0.9375
vt 0.875 0.9375
vt 0.9375 0.875
vt 0.9375 0.9375
vt 0.96875 0.875
vt 0.96875 0.9375
vt 1 0.875
vt 1 0.9375
vt 0.90625 1
vt 0.875 1
vt 0.9375 1
vt 0.96875 1
vt 1 1
vt 0.28125 0
vt 0.3125 0
vt 0.3125 0.0625
vt 0.28125 0.0625

# Normal
vn 0 0 -1

# Mesh description
g myMap_mesh_0121

# Faces
f 1/1/1 2/2/1 3/3/1 4/4/1
f 5/2/1 6/5/1 7/6/1 8/3/1
f 9/5/1 10/7/1 11/8/1 12/6/1
f 13/7/1 14/9/1 15/10/1 16/8/1
f 17/1/1 18/2/1 19/3/1 20/4/1
f 21/2/1 22/5/1 23/6/1 24/3/1
f 25/5/1 26/7/1 27/8/1 28/6/1
f 29/7/1 30/9/1 31/10/1 32/8/1
f 33/1/1 34/2/1 35/3/1 36/4/1
f 37/2/1 38/5/1 39/6/1 40/3/1
f 41/5/1 42/7/1 43/8/1 44/6/1
f 45/7/1 46/9/1 47/10/1 48/8/1
f 49/1/1 50/2/1 51/3/1 52/4/1
f 53/2/1 54/5/1 55/6/1 56/3/1
f 57/5/1 58/7/1 59/8/1 60/6/1
f 61/7/1 62/9/1 63/10/1 64/8/1
f 65/4/1 66/3/1 67/11/1 68/12/1
f 69/3/1 70/6/1 71/13/1 72/11/1
f 73/6/1 74/8/1 75/14/1 76/13/1
f 77/8/1 78/10/1 79/15/1 80/14/1
f 81/16/1 82/17/1 83/18/1 84/19/1
f 85/16/1 86/17/1 87/18/1 88/19/1
f 89/16/1 90/17/1 91/18/1 92/19/1
f 93/16/1 94/17/1 95/18/1 96/19/1
f 97/3/1 98/6/1 99/13/1 100/11/1
f 101/6/1 102/8/1 103/14/1 104/13/1
f 105/8/1 106/10/1 107/15/1 108/14/1
f 109/4/1 110/3/1 111/11/1 112/12/1
f 113/3/1 114/6/1 115/13/1 116/11/1
f 117/6/1 118/8/1 119/14/1 120/13/1
f 121/8/1 122/10/1 123/15/1 124/14/1
f 125/4/1 126/3/1 127/11/1 128/12/1
f 129/1/1 130/2/1 131/3/1 132/4/1
f 133/2/1 134/5/1 135/6/1 136/3/1
f 137/5/1 138/7/1 139/8/1 140/6/1
f 141/7/1 142/9/1 143/10/1 144/8/1
f 145/16/1 146/17/1 147/18/1 148/19/1
f 149/16/1 150/17/1 151/18/1 152/19/1
f 153/16/1 154/17/1 155/18/1 156/19/1
f 157/16/1 158/17/1 159/18/1 160/19/1
f 161/2/1 162/5/1 163/6/1 164/3/1
f 165/5/1 166/7/1 167/8/1 168/6/1
f 169/7/1 170/9/1 171/10/1 172/8/1
f 173/1/1 174/2/1 175/3/1 176/4/1
f 177/2/1 178/5/1 179/6/1 180/3/1
f 181/5/1 182/7/1 183/8/1 184/6/1
f 185/7/1 186/9/1 187/10/1 188/8/1
f 189/1/1 190/2/1 191/3/1 192/4/1
f 193/4/1 194/3/1 195/11/1 196/12/1
f 197/3/1 198/6/1 199/13/1 200/11/1
f 201/6/1 202/8/1 203/14/1 204/13/1
f 205/8/1 206/10/1 207/15/1 208/14/1
f 209/16/1 210/17/1 211/18/1 212/19/1
f 213/16/1 214/17/1 215/18/1 216/19/1
f 217/16/1 218/17/1 219/18/1 220/19/1
f 221/16/1 222/17/1 223/18/1 224/19/1
f 225/16/1 226/17/1 227/18/1 228/19/1
f 229/16/1 230/17/1 231/18/1 232/19/1
f 233/16/1 234/17/1 235/18/1 236/19/1
f 237/16/1 238/17/1 239/18/1 240/19/1
f 241/16/1 242/17/1 243/18/1 244/19/1
f 245/16/1 246/17/1 247/18/1 248/19/1
f 249/16/1 250/17/1 251/18/1 252/19/1
f 253/16/1 254/17/1 255/18/1 256/19/1
f 257/1/1 258/2/1 259/3/1 260/4/1
f 261/2/1 262/5/1 263/6/1 264/3/1
f 265/5/1 266/7/1 267/8/1 268/6/1
f 269/7/1 270/9/1 271/10/1 272/8/1
f 273/16/1 274/17/1 275/18/1 276/19/1
f 277/16/1 278/17/1 279/18/1 280/19/1
f 281/16/1 282/17/1 283/18/1 284/19/1
f 285/16/1 286/17/1 287/18/1 288/19/1
f 289/16/1 290/17/1 291/18/1 292/19/1
f 293/16/1 294/17/1 295/18/1 296/19/1
f 297/16/1 298/17/1 299/18/1 300/19/1
f 301/16/1 302/17/1 303/18/1 304/19/1
f 305/16/1 306/17/1 307/18/1 308/19/1
f 309/16/1 310/17/1 311/18/1 312/19/1
f 313/16/1 314/17/1 315/18/1 316/19/1
f 317/16/1 318/17/1 319/18/1 320/19/1
f 321/4/1 322/3/1 323/11/1 324/12/1
f 325/3/1 326/6/1 327/13/1 328/11/1
f 329/6/1 330/8/1 331/14/1 332/13/1
f 333/8/1 334/10/1 335/15/1 336/14/1
f 337/16/1 338/17/1 339/18/1 340/19/1
f 341/16/1 342/17/1 343/18/1 344/19/1
f 345/16/1 346/17/1 347/18/1 348/19/1
f 349/16/1 350/17/1 351/18/1 352/19/1
f 353/16/1 354/17/1 355/18/1 356/19/1
f 357/16/1 358/17/1 359/18/1 360/19/1
f 361/16/1 362/17/1 363/18/1 364/19/1
f 365/16/1 366/17/1 367/18/1 368/19/1
f 369/16/1 370/17/1 371/18/1 372/19/1
f 373/16/1 374/17/1 375/18/1 376/19/1
f 377/16/1 378/17/1 379/18/1 380/19/1
f 381/16/1 382/17/1 383/18/1 384/19/1
f 385/1/1 386/2/1 387/3/1 388/4/1
f 389/2/1 390/5/1 391/6/1 392/3/1
f 393/5/1 394/7/1 395/8/1 396/6/1
f 397/7/1 398/9/1 399/10/1 400/8/1
f 401/16/1 402/17/1 403/18/1 404/19/1
f 405/16/1 406/17/1 407/18/1 408/19/1
f 409/16/1 410/17/1 411/18/1 412/19/1
f 413/16/1 414/17/1 415/18/1 416/19/1
f 417/16/1 418/17/1 419/18/1 420/19/1
f 421/16/1 422/17/1 423/18/1 424/19/1
f 425/16/1 426/17/1 427/18/1 428/19/1
f 429/16/1 430/17/1 431/18/1 432/19/1
f 433/16/1 434/17/1 435/18/1 436/19/1
f 437/16/1 438/17/1 439/18/1 440/19/1
f 441/16/1 442/17/1 443/18/1 444/19/1
f 445/16/1 446/17/1 447/18/1 448/19/1
f 449/4/1 450/3/1 451/11/1 452/12/1
f 453/3/1 454/6/1 455/13/1 456/11/1
f 457/6/1 458/8/1 459/14/1 460/13/1
f 461/8/1 462/10/1 463/15/1 464/14/1
f 465/16/1 466/17/1 467/18/1 468/19/1
f 469/16/1 470/17/1 471/18/1 472/19/1
f 473/16/1 474/17/1 475/18/1 476/19/1
f 477/16/1 478/17/1 479/18/1 480/19/1
f 481/16/1 482/17/1 483/18/1 484/19/1
f 485/16/1 486/17/1 487/18/1 488/19/1
f 489/16/1 490/17/1 491/18/1 492/19/1
f 493/16/1 494/17/1 495/18/1 496/19/1
f 497/16/1 498/17/1 499/18/1 500/19/1
f 501/16/1 502/17/1 503/18/1 504/19/1
f 505/16/1 506/17/1 507/18/1 508/19/1
f 509/16/1 510/17/1 511/18/1 512/19/1
f 513/1/1 514/2/1 515/3/1 516/4/1
f 517/2/1 518/5/1 519/6/1 520/3/1
f 521/5/1 522/7/1 523/8/1 524/6/1
f 525/7/1 526/9/1 527/10/1 528/8/1
f 529/16/1 530/17/1 531/18/1 532/19/1
f 533/16/1 534/17/1 535/18/1 536/19/1
f 537/16/1 538/17/1 539/18/1 540/19/1
f 541/16/1 542/17/1 543/18/1 544/19/1
f 545/16/1 546/17/1 547/18/1 548/19/1
f 549/16/1 550/17/1 551/18/1 552/19/1
f 553/16/1 554/17/1 555/18/1 556/19/1
f 557/16/1 558/17/1 559/18/1 560/19/1
f 561/16/1 562/17/1 563/18/1 564/19/1
f 565/16/1 566/17/1 567/18/1 568/19/1
f 569/16/1 570/17/1 571/18/1 572/19/1
f 573/16/1 574/17/1 575/18/1 576/19/1
f 577/16/1 578/17/1 579/18/1 580/19/1
f 581/16/1 582/17/1 583/18/1 584/19/1
f 585/16/1 586/17/1 587/18/1 588/19/1
f 589/16/1 590/17/1 591/18/1 592/19/1
f 593/16/1 594/17/1 595/18/1 596/19/1
f 597/16/1 598/17/1 599/18/1 600/19/1
f 601/16/1 602/17/1 603/18/1 604/19/1
f 605/16/1 606/17/1 607/18/1 608/19/1
f 609/16/1 610/17/1 611/18/1 612/19/1
f 613/16/1 614/17/1 615/18/1 616/19/1
f 617/16/1 618/17/1 619/18/1 620/19/1
f 621/16/1 622/17/1 623/18/1 624/19/1
f 625/16/1 626/17/1 627/18/1 628/19/1
f 629/16/1 630/17/1 631/18/1 632/19/1
f 633/16/1 634/17/1 635/18/1 636/19/1
f 637/16/1 638/17/1 639/18/1 640/19/1
f 641/16/1 642/17/1 643/18/1 644/19/1
f 645/16/1 646/17/1 647/18/1 648/19/1
f 649/16/1 650/17/1 651/18/1 652/19/1
f 653/16/1 654/17/1 655/18/1 656/19/1
f 657/16/1 658/17/1 659/18/1 660/19/1
f 661/16/1 662/17/1 663/18/1 664/19/1
f 665/16/1 666/17/1 667/18/1 668/19/1
f 669/16/1 670/17/1 671/18/1 672/19/1
f 673/16/1 674/17/1 675/18/1 676/19/1
f 677/16/1 678/17/1 679/18/1 680/19/1
f 681/16/1 682/17/1 683/18/1 684/19/1
f 685/16/1 686/17/1 687/18/1 688/19/1
f 689/16/1 690/17/1 691/18/1 692/19/1
f 693/16/1 694/17/1 695/18/1 696/19/1
f 697/16/1 698/17/1 699/18/1 700/19/1
f 701/16/1 702/17/1 703/18/1 704/19/1
f 705/16/1 706/17/1 707/18/1 708/19/1
f 709/16/1 710/17/1 711/18/1 712/19/1
f 713/16/1 714/17/1 715/18/1 716/19/1
f 717/16/1 718/17/1 719/18/1 720/19/1
f 721/16/1 722/17/1 723/18/1 724/19/1
f 725/16/1 726/17/1 727/18/1 728/19/1
f 729/16/1 730/17/1 731/18/1 732/19/1
f 733/16/1 734/17/1 735/18/1 736/19/1
f 737/16/1 738/17/1 739/18/1 740/19/1
f 741/16/1 742/17/1 743/18/1 744/19/1
f 745/16/1 746/17/1 747/18/1 748/19/1
f 749/16/1 750/17/1 751/18/1 752/19/1
f 753/16/1 754/17/1 755/18/1 756/19/1
f 757/16/1 758/17/1 759/18/1 760/19/1
f 761/16/1 762/17/1 763/18/1 764/19/1
f 765/16/1 766/17/1 767/18/1 768/19/1
f 769/16/1 770/17/1 771/18/1 772/19/1
f 773/16/1 774/17/1 775/18/1 776/19/1
f 777/16/1 778/17/1 779/18/1 780/19/1
f 781/16/1 782/17/1 783/18/1 784/19/1
f 785/16/1 786/17/1 787/18/1 788/19/1
f 789/16/1 790/17/1 791/18/1 792/19/1
f 793/16/1 794/17/1 795/18/1 796/19/1
f 797/16/1 798/17/1 799/18/1 800/19/1
f 801/16/1 802/17/1 803/18/1 804/19/1
f 805/16/1 806/17/1 807/18/1 808/19/1
f 809/16/1 810/17/1 811/18/1 812/19/1
f 813/16/1 814/17/1 815/18/1 816/19/1
f 817/16/1 818/17/1 819/18/1 820/19/1
f 821/16/1 822/17/1 823/18/1 824/19/1
f 825/16/1 826/17/1 827/18/1 828/19/1
f 829/16/1 830/17/1 831/18/1 832/19/1
f 833/16/1 834/17/1 835/18/1 836/19/1
f 837/16/1 838/17/1 839/18/1 840/19/1
f 841/16/1 842/17/1 843/18/1 844/19/1
f 845/16/1 846/17/1 847/18/1 848/19/1
f 849/16/1 850/17/1 851/18/1 852/19/1
f 853/16/1 854/17/1 855/18/1 856/19/1
f 857/16/1 858/17/1 859/18/1 860/19/1
f 861/16/1 862/17/1 863/18/1 864/19/1
f 865/16/1 866/17/1 867/18/1 868/19/1
f 869/16/1 870/17/1 871/18/1 872/19/1
f 873/16/1 874/17/1 875/18/1 876/19/1
f 877/16/1 878/17/1 879/18/1 880/19/1
f 881/16/1 882/17/1 883/18/1 884/19/1
f 885/16/1 886/17/1 887/18/1 888/19/1
f 889/16/1 890/17/1 891/18/1 892/19/1
f 893/16/1 894/17/1 895/18/1 896/19/1
f 897/16/1 898/17/1 899/18/1 900/19/1
f 901/16/1 902/17/1 903/18/1 904/19/1
f 905/16/1 906/17/1 907/18/1 908/19/1
f 909/16/1 910/17/1 911/18/1 912/19/1
f 913/16/1 914/17/1 915/18/1 916/19/1
f 917/16/1 918/17/1 919/18/1 920/19/1
f 921/16/1 922/17/1 923/18/1 924/19/1
f 925/16/1 926/17/1 927/18/1 928/19/1
f 929/16/1 930/17/1 931/18/1 932/19/1
f 933/16/1 934/17/1 935/18/1 936/19/1
f 937/16/1 938/17/1 939/18/1 940/19/1
f 941/16/1 942/17/1 943/18/1 944/19/1
f 945/16/1 946/17/1 947/18/1 948/19/1
f 949/16/1 950/17/1 951/18/1 952/19/1
f 953/16/1 954/17/1 955/18/1 956/19/1
f 957/16/1 958/17/1 959/18/1 960/19/1
f 961/16/1 962/17/1 963/18/1 964/19/1
f 965/16/1 966/17/1 967/18/1 968/19/1
f 969/16/1 970/17/1 971/18/1 972/19/1
f 973/16/1 974/17/1 975/18/1 976/19/1
f 977/16/1 978/17/1 979/18/1 980/19/1
f 981/16/1 982/17/1 983/18/1 984/19/1
f 985/16/1 986/17/1 987/18/1 988/19/1
f 989/16/1 990/17/1 991/18/1 992/19/1
f 993/16/1 994/17/1 995/18/1 996/19/1
f 997/16/1 998/17/1 999/18/1 1000/19/1
f 1001/16/1 1002/17/1 1003/18/1 1004/19/1
f 1005/16/1 1006/17/1 1007/18/1 1008/19/1
f 1009/16/1 1010/17/1 1011/18/1 1012/19/1
f 1013/16/1 1014/17/1 1015/18/1 1016/19/1
f 1017/16/1 1018/17/1 1019/18/1 1020/19/1
f 1021/16/1 1022/17/1 1023/18/1 1024/19/1

