# Tiled2Unity generated file. Do not modify by hand.
# Wavefront file for 'myMap_mesh_0244.obj'

# Vertices (Count = 188)
v 0 -128 0
v -32 -128 0
v -32 -96 0
v 0 -96 0
v -32 -128 0
v -64 -128 0
v -64 -96 0
v -32 -96 0
v -64 -128 0
v -96 -128 0
v -96 -96 0
v -64 -96 0
v 0 -160 0
v -32 -160 0
v -32 -128 0
v 0 -128 0
v -32 -160 0
v -64 -160 0
v -64 -128 0
v -32 -128 0
v -64 -160 0
v -96 -160 0
v -96 -128 0
v -64 -128 0
v 0 -192 0
v -32 -192 0
v -32 -160 0
v 0 -160 0
v -32 -192 0
v -64 -192 0
v -64 -160 0
v -32 -160 0
v -64 -192 0
v -96 -192 0
v -96 -160 0
v -64 -160 0
v 0 -224 0
v -32 -224 0
v -32 -192 0
v 0 -192 0
v -32 -224 0
v -64 -224 0
v -64 -192 0
v -32 -192 0
v -64 -224 0
v -96 -224 0
v -96 -192 0
v -64 -192 0
v 0 -256 0
v -32 -256 0
v -32 -224 0
v 0 -224 0
v -32 -256 0
v -64 -256 0
v -64 -224 0
v -32 -224 0
v -64 -256 0
v -96 -256 0
v -96 -224 0
v -64 -224 0
v 0 -288 0
v -32 -288 0
v -32 -256 0
v 0 -256 0
v -32 -288 0
v -64 -288 0
v -64 -256 0
v -32 -256 0
v -64 -288 0
v -96 -288 0
v -96 -256 0
v -64 -256 0
v 0 -320 0
v -32 -320 0
v -32 -288 0
v 0 -288 0
v -32 -320 0
v -64 -320 0
v -64 -288 0
v -32 -288 0
v -64 -320 0
v -96 -320 0
v -96 -288 0
v -64 -288 0
v 0 -352 0
v -32 -352 0
v -32 -320 0
v 0 -320 0
v -32 -352 0
v -64 -352 0
v -64 -320 0
v -32 -320 0
v -64 -352 0
v -96 -352 0
v -96 -320 0
v -64 -320 0
v 0 -384 0
v -32 -384 0
v -32 -352 0
v 0 -352 0
v -32 -384 0
v -64 -384 0
v -64 -352 0
v -32 -352 0
v -64 -384 0
v -96 -384 0
v -96 -352 0
v -64 -352 0
v 0 -416 0
v -32 -416 0
v -32 -384 0
v 0 -384 0
v -32 -416 0
v -64 -416 0
v -64 -384 0
v -32 -384 0
v -64 -416 0
v -96 -416 0
v -96 -384 0
v -64 -384 0
v -96 -416 0
v -128 -416 0
v -128 -384 0
v -96 -384 0
v -128 -416 0
v -160 -416 0
v -160 -384 0
v -128 -384 0
v 0 -448 0
v -32 -448 0
v -32 -416 0
v 0 -416 0
v -32 -448 0
v -64 -448 0
v -64 -416 0
v -32 -416 0
v -64 -448 0
v -96 -448 0
v -96 -416 0
v -64 -416 0
v -96 -448 0
v -128 -448 0
v -128 -416 0
v -96 -416 0
v -128 -448 0
v -160 -448 0
v -160 -416 0
v -128 -416 0
v 0 -480 0
v -32 -480 0
v -32 -448 0
v 0 -448 0
v -32 -480 0
v -64 -480 0
v -64 -448 0
v -32 -448 0
v -64 -480 0
v -96 -480 0
v -96 -448 0
v -64 -448 0
v -96 -480 0
v -128 -480 0
v -128 -448 0
v -96 -448 0
v -128 -480 0
v -160 -480 0
v -160 -448 0
v -128 -448 0
v 0 -512 0
v -32 -512 0
v -32 -480 0
v 0 -480 0
v -32 -512 0
v -64 -512 0
v -64 -480 0
v -32 -480 0
v -64 -512 0
v -96 -512 0
v -96 -480 0
v -64 -480 0
v -96 -512 0
v -128 -512 0
v -128 -480 0
v -96 -480 0
v -128 -512 0
v -160 -512 0
v -160 -480 0
v -128 -480 0

# Texture cooridinates (Count = 13)
vt 0.03125 0.9375
vt 0 0.9375
vt 0 0.875
vt 0.03125 0.875
vt 0.03125 1
vt 0 1
vt 0.125 1
vt 0.09375 1
vt 0.09375 0.9375
vt 0.125 0.9375
vt 0.0625 0.875
vt 0.0625 0.9375
vt 0.09375 0.875

# Normal
vn 0 0 -1

# Mesh description
g myMap_mesh_0244

# Faces
f 1/1/1 2/2/1 3/3/1 4/4/1
f 5/1/1 6/2/1 7/3/1 8/4/1
f 9/1/1 10/2/1 11/3/1 12/4/1
f 13/2/1 14/1/1 15/5/1 16/6/1
f 17/7/1 18/8/1 19/9/1 20/10/1
f 21/2/1 22/1/1 23/5/1 24/6/1
f 25/3/1 26/4/1 27/1/1 28/2/1
f 29/4/1 30/11/1 31/12/1 32/1/1
f 33/3/1 34/4/1 35/1/1 36/2/1
f 37/2/1 38/1/1 39/5/1 40/6/1
f 41/2/1 42/1/1 43/5/1 44/6/1
f 45/2/1 46/1/1 47/5/1 48/6/1
f 49/3/1 50/4/1 51/1/1 52/2/1
f 53/3/1 54/4/1 55/1/1 56/2/1
f 57/11/1 58/13/1 59/9/1 60/12/1
f 61/2/1 62/1/1 63/5/1 64/6/1
f 65/2/1 66/1/1 67/5/1 68/6/1
f 69/2/1 70/1/1 71/5/1 72/6/1
f 73/2/1 74/1/1 75/5/1 76/6/1
f 77/2/1 78/1/1 79/5/1 80/6/1
f 81/2/1 82/1/1 83/5/1 84/6/1
f 85/3/1 86/4/1 87/1/1 88/2/1
f 89/4/1 90/11/1 91/12/1 92/1/1
f 93/3/1 94/4/1 95/1/1 96/2/1
f 97/2/1 98/1/1 99/5/1 100/6/1
f 101/2/1 102/1/1 103/5/1 104/6/1
f 105/2/1 106/1/1 107/5/1 108/6/1
f 109/1/1 110/2/1 111/3/1 112/4/1
f 113/1/1 114/2/1 115/3/1 116/4/1
f 117/1/1 118/2/1 119/3/1 120/4/1
f 121/1/1 122/2/1 123/3/1 124/4/1
f 125/1/1 126/2/1 127/3/1 128/4/1
f 129/7/1 130/8/1 131/9/1 132/10/1
f 133/2/1 134/1/1 135/5/1 136/6/1
f 137/2/1 138/1/1 139/5/1 140/6/1
f 141/7/1 142/8/1 143/9/1 144/10/1
f 145/2/1 146/1/1 147/5/1 148/6/1
f 149/3/1 150/4/1 151/1/1 152/2/1
f 153/3/1 154/4/1 155/1/1 156/2/1
f 157/3/1 158/4/1 159/1/1 160/2/1
f 161/4/1 162/11/1 163/12/1 164/1/1
f 165/3/1 166/4/1 167/1/1 168/2/1
f 169/2/1 170/1/1 171/5/1 172/6/1
f 173/2/1 174/1/1 175/5/1 176/6/1
f 177/2/1 178/1/1 179/5/1 180/6/1
f 181/2/1 182/1/1 183/5/1 184/6/1
f 185/2/1 186/1/1 187/5/1 188/6/1

