# Tiled2Unity generated file. Do not modify by hand.
# Wavefront file for 'myMap_mesh_0314.obj'

# Vertices (Count = 804)
v -352 -32 0
v -384 -32 0
v -384 0 0
v -352 0 0
v -384 -32 0
v -416 -32 0
v -416 0 0
v -384 0 0
v -416 -32 0
v -448 -32 0
v -448 0 0
v -416 0 0
v -448 -32 0
v -480 -32 0
v -480 0 0
v -448 0 0
v -480 -32 0
v -512 -32 0
v -512 0 0
v -480 0 0
v -352 -64 0
v -384 -64 0
v -384 -32 0
v -352 -32 0
v -384 -64 0
v -416 -64 0
v -416 -32 0
v -384 -32 0
v -416 -64 0
v -448 -64 0
v -448 -32 0
v -416 -32 0
v -448 -64 0
v -480 -64 0
v -480 -32 0
v -448 -32 0
v -480 -64 0
v -512 -64 0
v -512 -32 0
v -480 -32 0
v -32 -96 0
v -64 -96 0
v -64 -64 0
v -32 -64 0
v -64 -96 0
v -96 -96 0
v -96 -64 0
v -64 -64 0
v -96 -96 0
v -128 -96 0
v -128 -64 0
v -96 -64 0
v -128 -96 0
v -160 -96 0
v -160 -64 0
v -128 -64 0
v -160 -96 0
v -192 -96 0
v -192 -64 0
v -160 -64 0
v -192 -96 0
v -224 -96 0
v -224 -64 0
v -192 -64 0
v -224 -96 0
v -256 -96 0
v -256 -64 0
v -224 -64 0
v -256 -96 0
v -288 -96 0
v -288 -64 0
v -256 -64 0
v -288 -96 0
v -320 -96 0
v -320 -64 0
v -288 -64 0
v -320 -96 0
v -352 -96 0
v -352 -64 0
v -320 -64 0
v -352 -96 0
v -384 -96 0
v -384 -64 0
v -352 -64 0
v -384 -96 0
v -416 -96 0
v -416 -64 0
v -384 -64 0
v -416 -96 0
v -448 -96 0
v -448 -64 0
v -416 -64 0
v -448 -96 0
v -480 -96 0
v -480 -64 0
v -448 -64 0
v -480 -96 0
v -512 -96 0
v -512 -64 0
v -480 -64 0
v 0 -128 0
v -32 -128 0
v -32 -96 0
v 0 -96 0
v -32 -128 0
v -64 -128 0
v -64 -96 0
v -32 -96 0
v -64 -128 0
v -96 -128 0
v -96 -96 0
v -64 -96 0
v -96 -128 0
v -128 -128 0
v -128 -96 0
v -96 -96 0
v -128 -128 0
v -160 -128 0
v -160 -96 0
v -128 -96 0
v -160 -128 0
v -192 -128 0
v -192 -96 0
v -160 -96 0
v -192 -128 0
v -224 -128 0
v -224 -96 0
v -192 -96 0
v -224 -128 0
v -256 -128 0
v -256 -96 0
v -224 -96 0
v -256 -128 0
v -288 -128 0
v -288 -96 0
v -256 -96 0
v -288 -128 0
v -320 -128 0
v -320 -96 0
v -288 -96 0
v -320 -128 0
v -352 -128 0
v -352 -96 0
v -320 -96 0
v -352 -128 0
v -384 -128 0
v -384 -96 0
v -352 -96 0
v -384 -128 0
v -416 -128 0
v -416 -96 0
v -384 -96 0
v -416 -128 0
v -448 -128 0
v -448 -96 0
v -416 -96 0
v -448 -128 0
v -480 -128 0
v -480 -96 0
v -448 -96 0
v -480 -128 0
v -512 -128 0
v -512 -96 0
v -480 -96 0
v 0 -160 0
v -32 -160 0
v -32 -128 0
v 0 -128 0
v -32 -160 0
v -64 -160 0
v -64 -128 0
v -32 -128 0
v -64 -160 0
v -96 -160 0
v -96 -128 0
v -64 -128 0
v -96 -160 0
v -128 -160 0
v -128 -128 0
v -96 -128 0
v -128 -160 0
v -160 -160 0
v -160 -128 0
v -128 -128 0
v -160 -160 0
v -192 -160 0
v -192 -128 0
v -160 -128 0
v -192 -160 0
v -224 -160 0
v -224 -128 0
v -192 -128 0
v -224 -160 0
v -256 -160 0
v -256 -128 0
v -224 -128 0
v -256 -160 0
v -288 -160 0
v -288 -128 0
v -256 -128 0
v -288 -160 0
v -320 -160 0
v -320 -128 0
v -288 -128 0
v -320 -160 0
v -352 -160 0
v -352 -128 0
v -320 -128 0
v -352 -160 0
v -384 -160 0
v -384 -128 0
v -352 -128 0
v -384 -160 0
v -416 -160 0
v -416 -128 0
v -384 -128 0
v -416 -160 0
v -448 -160 0
v -448 -128 0
v -416 -128 0
v -448 -160 0
v -480 -160 0
v -480 -128 0
v -448 -128 0
v -480 -160 0
v -512 -160 0
v -512 -128 0
v -480 -128 0
v 0 -192 0
v -32 -192 0
v -32 -160 0
v 0 -160 0
v -32 -192 0
v -64 -192 0
v -64 -160 0
v -32 -160 0
v -64 -192 0
v -96 -192 0
v -96 -160 0
v -64 -160 0
v -96 -192 0
v -128 -192 0
v -128 -160 0
v -96 -160 0
v -128 -192 0
v -160 -192 0
v -160 -160 0
v -128 -160 0
v -160 -192 0
v -192 -192 0
v -192 -160 0
v -160 -160 0
v -192 -192 0
v -224 -192 0
v -224 -160 0
v -192 -160 0
v -224 -192 0
v -256 -192 0
v -256 -160 0
v -224 -160 0
v -256 -192 0
v -288 -192 0
v -288 -160 0
v -256 -160 0
v -288 -192 0
v -320 -192 0
v -320 -160 0
v -288 -160 0
v -320 -192 0
v -352 -192 0
v -352 -160 0
v -320 -160 0
v -352 -192 0
v -384 -192 0
v -384 -160 0
v -352 -160 0
v -384 -192 0
v -416 -192 0
v -416 -160 0
v -384 -160 0
v -416 -192 0
v -448 -192 0
v -448 -160 0
v -416 -160 0
v -448 -192 0
v -480 -192 0
v -480 -160 0
v -448 -160 0
v -480 -192 0
v -512 -192 0
v -512 -160 0
v -480 -160 0
v 0 -224 0
v -32 -224 0
v -32 -192 0
v 0 -192 0
v -32 -224 0
v -64 -224 0
v -64 -192 0
v -32 -192 0
v -64 -224 0
v -96 -224 0
v -96 -192 0
v -64 -192 0
v -96 -224 0
v -128 -224 0
v -128 -192 0
v -96 -192 0
v -128 -224 0
v -160 -224 0
v -160 -192 0
v -128 -192 0
v -160 -224 0
v -192 -224 0
v -192 -192 0
v -160 -192 0
v -192 -224 0
v -224 -224 0
v -224 -192 0
v -192 -192 0
v -224 -224 0
v -256 -224 0
v -256 -192 0
v -224 -192 0
v -256 -224 0
v -288 -224 0
v -288 -192 0
v -256 -192 0
v -288 -224 0
v -320 -224 0
v -320 -192 0
v -288 -192 0
v -320 -224 0
v -352 -224 0
v -352 -192 0
v -320 -192 0
v -352 -224 0
v -384 -224 0
v -384 -192 0
v -352 -192 0
v -384 -224 0
v -416 -224 0
v -416 -192 0
v -384 -192 0
v -416 -224 0
v -448 -224 0
v -448 -192 0
v -416 -192 0
v -448 -224 0
v -480 -224 0
v -480 -192 0
v -448 -192 0
v -480 -224 0
v -512 -224 0
v -512 -192 0
v -480 -192 0
v 0 -256 0
v -32 -256 0
v -32 -224 0
v 0 -224 0
v -32 -256 0
v -64 -256 0
v -64 -224 0
v -32 -224 0
v -64 -256 0
v -96 -256 0
v -96 -224 0
v -64 -224 0
v -96 -256 0
v -128 -256 0
v -128 -224 0
v -96 -224 0
v -128 -256 0
v -160 -256 0
v -160 -224 0
v -128 -224 0
v -160 -256 0
v -192 -256 0
v -192 -224 0
v -160 -224 0
v -192 -256 0
v -224 -256 0
v -224 -224 0
v -192 -224 0
v -224 -256 0
v -256 -256 0
v -256 -224 0
v -224 -224 0
v -256 -256 0
v -288 -256 0
v -288 -224 0
v -256 -224 0
v -288 -256 0
v -320 -256 0
v -320 -224 0
v -288 -224 0
v -320 -256 0
v -352 -256 0
v -352 -224 0
v -320 -224 0
v -352 -256 0
v -384 -256 0
v -384 -224 0
v -352 -224 0
v -384 -256 0
v -416 -256 0
v -416 -224 0
v -384 -224 0
v -416 -256 0
v -448 -256 0
v -448 -224 0
v -416 -224 0
v -448 -256 0
v -480 -256 0
v -480 -224 0
v -448 -224 0
v -480 -256 0
v -512 -256 0
v -512 -224 0
v -480 -224 0
v 0 -288 0
v -32 -288 0
v -32 -256 0
v 0 -256 0
v -32 -288 0
v -64 -288 0
v -64 -256 0
v -32 -256 0
v -64 -288 0
v -96 -288 0
v -96 -256 0
v -64 -256 0
v -96 -288 0
v -128 -288 0
v -128 -256 0
v -96 -256 0
v -128 -288 0
v -160 -288 0
v -160 -256 0
v -128 -256 0
v -160 -288 0
v -192 -288 0
v -192 -256 0
v -160 -256 0
v -192 -288 0
v -224 -288 0
v -224 -256 0
v -192 -256 0
v -224 -288 0
v -256 -288 0
v -256 -256 0
v -224 -256 0
v -256 -288 0
v -288 -288 0
v -288 -256 0
v -256 -256 0
v -288 -288 0
v -320 -288 0
v -320 -256 0
v -288 -256 0
v -320 -288 0
v -352 -288 0
v -352 -256 0
v -320 -256 0
v -352 -288 0
v -384 -288 0
v -384 -256 0
v -352 -256 0
v -384 -288 0
v -416 -288 0
v -416 -256 0
v -384 -256 0
v -416 -288 0
v -448 -288 0
v -448 -256 0
v -416 -256 0
v -448 -288 0
v -480 -288 0
v -480 -256 0
v -448 -256 0
v -480 -288 0
v -512 -288 0
v -512 -256 0
v -480 -256 0
v 0 -320 0
v -32 -320 0
v -32 -288 0
v 0 -288 0
v -32 -320 0
v -64 -320 0
v -64 -288 0
v -32 -288 0
v -64 -320 0
v -96 -320 0
v -96 -288 0
v -64 -288 0
v -96 -320 0
v -128 -320 0
v -128 -288 0
v -96 -288 0
v -128 -320 0
v -160 -320 0
v -160 -288 0
v -128 -288 0
v -160 -320 0
v -192 -320 0
v -192 -288 0
v -160 -288 0
v -192 -320 0
v -224 -320 0
v -224 -288 0
v -192 -288 0
v -224 -320 0
v -256 -320 0
v -256 -288 0
v -224 -288 0
v -256 -320 0
v -288 -320 0
v -288 -288 0
v -256 -288 0
v -288 -320 0
v -320 -320 0
v -320 -288 0
v -288 -288 0
v -320 -320 0
v -352 -320 0
v -352 -288 0
v -320 -288 0
v -352 -320 0
v -384 -320 0
v -384 -288 0
v -352 -288 0
v -384 -320 0
v -416 -320 0
v -416 -288 0
v -384 -288 0
v -416 -320 0
v -448 -320 0
v -448 -288 0
v -416 -288 0
v -448 -320 0
v -480 -320 0
v -480 -288 0
v -448 -288 0
v -480 -320 0
v -512 -320 0
v -512 -288 0
v -480 -288 0
v 0 -352 0
v -32 -352 0
v -32 -320 0
v 0 -320 0
v -32 -352 0
v -64 -352 0
v -64 -320 0
v -32 -320 0
v -64 -352 0
v -96 -352 0
v -96 -320 0
v -64 -320 0
v -96 -352 0
v -128 -352 0
v -128 -320 0
v -96 -320 0
v -128 -352 0
v -160 -352 0
v -160 -320 0
v -128 -320 0
v -160 -352 0
v -192 -352 0
v -192 -320 0
v -160 -320 0
v -192 -352 0
v -224 -352 0
v -224 -320 0
v -192 -320 0
v -224 -352 0
v -256 -352 0
v -256 -320 0
v -224 -320 0
v -256 -352 0
v -288 -352 0
v -288 -320 0
v -256 -320 0
v -288 -352 0
v -320 -352 0
v -320 -320 0
v -288 -320 0
v -320 -352 0
v -352 -352 0
v -352 -320 0
v -320 -320 0
v -352 -352 0
v -384 -352 0
v -384 -320 0
v -352 -320 0
v -384 -352 0
v -416 -352 0
v -416 -320 0
v -384 -320 0
v -416 -352 0
v -448 -352 0
v -448 -320 0
v -416 -320 0
v -448 -352 0
v -480 -352 0
v -480 -320 0
v -448 -320 0
v -480 -352 0
v -512 -352 0
v -512 -320 0
v -480 -320 0
v 0 -384 0
v -32 -384 0
v -32 -352 0
v 0 -352 0
v -32 -384 0
v -64 -384 0
v -64 -352 0
v -32 -352 0
v -64 -384 0
v -96 -384 0
v -96 -352 0
v -64 -352 0
v -96 -384 0
v -128 -384 0
v -128 -352 0
v -96 -352 0
v -128 -384 0
v -160 -384 0
v -160 -352 0
v -128 -352 0
v -160 -384 0
v -192 -384 0
v -192 -352 0
v -160 -352 0
v -192 -384 0
v -224 -384 0
v -224 -352 0
v -192 -352 0
v -224 -384 0
v -256 -384 0
v -256 -352 0
v -224 -352 0
v -256 -384 0
v -288 -384 0
v -288 -352 0
v -256 -352 0
v -288 -384 0
v -320 -384 0
v -320 -352 0
v -288 -352 0
v -320 -384 0
v -352 -384 0
v -352 -352 0
v -320 -352 0
v -352 -384 0
v -384 -384 0
v -384 -352 0
v -352 -352 0
v -384 -384 0
v -416 -384 0
v -416 -352 0
v -384 -352 0
v -416 -384 0
v -448 -384 0
v -448 -352 0
v -416 -352 0
v -448 -384 0
v -480 -384 0
v -480 -352 0
v -448 -352 0
v -480 -384 0
v -512 -384 0
v -512 -352 0
v -480 -352 0
v 0 -416 0
v -32 -416 0
v -32 -384 0
v 0 -384 0
v -32 -416 0
v -64 -416 0
v -64 -384 0
v -32 -384 0
v -64 -416 0
v -96 -416 0
v -96 -384 0
v -64 -384 0
v -96 -416 0
v -128 -416 0
v -128 -384 0
v -96 -384 0
v -128 -416 0
v -160 -416 0
v -160 -384 0
v -128 -384 0
v -160 -416 0
v -192 -416 0
v -192 -384 0
v -160 -384 0
v -192 -416 0
v -224 -416 0
v -224 -384 0
v -192 -384 0
v -224 -416 0
v -256 -416 0
v -256 -384 0
v -224 -384 0
v -256 -416 0
v -288 -416 0
v -288 -384 0
v -256 -384 0
v -288 -416 0
v -320 -416 0
v -320 -384 0
v -288 -384 0
v -320 -416 0
v -352 -416 0
v -352 -384 0
v -320 -384 0
v -352 -416 0
v -384 -416 0
v -384 -384 0
v -352 -384 0
v -384 -416 0
v -416 -416 0
v -416 -384 0
v -384 -384 0
v -416 -416 0
v -448 -416 0
v -448 -384 0
v -416 -384 0
v -448 -416 0
v -480 -416 0
v -480 -384 0
v -448 -384 0
v -480 -416 0
v -512 -416 0
v -512 -384 0
v -480 -384 0
v 0 -448 0
v -32 -448 0
v -32 -416 0
v 0 -416 0
v -32 -448 0
v -64 -448 0
v -64 -416 0
v -32 -416 0
v -64 -448 0
v -96 -448 0
v -96 -416 0
v -64 -416 0
v -96 -448 0
v -128 -448 0
v -128 -416 0
v -96 -416 0
v -128 -448 0
v -160 -448 0
v -160 -416 0
v -128 -416 0
v -160 -448 0
v -192 -448 0
v -192 -416 0
v -160 -416 0
v -192 -448 0
v -224 -448 0
v -224 -416 0
v -192 -416 0
v -224 -448 0
v -256 -448 0
v -256 -416 0
v -224 -416 0
v -256 -448 0
v -288 -448 0
v -288 -416 0
v -256 -416 0
v -288 -448 0
v -320 -448 0
v -320 -416 0
v -288 -416 0
v -320 -448 0
v -352 -448 0
v -352 -416 0
v -320 -416 0
v -352 -448 0
v -384 -448 0
v -384 -416 0
v -352 -416 0
v -384 -448 0
v -416 -448 0
v -416 -416 0
v -384 -416 0
v -416 -448 0
v -448 -448 0
v -448 -416 0
v -416 -416 0
v -448 -448 0
v -480 -448 0
v -480 -416 0
v -448 -416 0
v -480 -448 0
v -512 -448 0
v -512 -416 0
v -480 -416 0

# Texture cooridinates (Count = 16)
vt 0.625 0.625
vt 0.65625 0.625
vt 0.65625 0.6875
vt 0.625 0.6875
vt 0.6875 0.625
vt 0.6875 0.6875
vt 0.59375 0.5
vt 0.625 0.5
vt 0.625 0.5625
vt 0.59375 0.5625
vt 0.65625 0.5625
vt 0.6875 0.5625
vt 0.5625 0.4375
vt 0.59375 0.4375
vt 0.5625 0.5
vt 0.625 0.4375

# Normal
vn 0 0 -1

# Mesh description
g myMap_mesh_0314

# Faces
f 1/1/1 2/2/1 3/3/1 4/4/1
f 5/2/1 6/5/1 7/6/1 8/3/1
f 9/2/1 10/5/1 11/6/1 12/3/1
f 13/2/1 14/5/1 15/6/1 16/3/1
f 17/2/1 18/5/1 19/6/1 20/3/1
f 21/7/1 22/8/1 23/9/1 24/10/1
f 25/11/1 26/12/1 27/5/1 28/2/1
f 29/11/1 30/12/1 31/5/1 32/2/1
f 33/11/1 34/12/1 35/5/1 36/2/1
f 37/11/1 38/12/1 39/5/1 40/2/1
f 41/1/1 42/2/1 43/3/1 44/4/1
f 45/2/1 46/5/1 47/6/1 48/3/1
f 49/2/1 50/5/1 51/6/1 52/3/1
f 53/2/1 54/5/1 55/6/1 56/3/1
f 57/2/1 58/5/1 59/6/1 60/3/1
f 61/2/1 62/5/1 63/6/1 64/3/1
f 65/2/1 66/5/1 67/6/1 68/3/1
f 69/2/1 70/5/1 71/6/1 72/3/1
f 73/2/1 74/5/1 75/6/1 76/3/1
f 77/13/1 78/14/1 79/7/1 80/15/1
f 81/14/1 82/16/1 83/8/1 84/7/1
f 85/11/1 86/12/1 87/5/1 88/2/1
f 89/11/1 90/12/1 91/5/1 92/2/1
f 93/11/1 94/12/1 95/5/1 96/2/1
f 97/11/1 98/12/1 99/5/1 100/2/1
f 101/1/1 102/2/1 103/3/1 104/4/1
f 105/14/1 106/16/1 107/8/1 108/7/1
f 109/11/1 110/12/1 111/5/1 112/2/1
f 113/11/1 114/12/1 115/5/1 116/2/1
f 117/11/1 118/12/1 119/5/1 120/2/1
f 121/11/1 122/12/1 123/5/1 124/2/1
f 125/11/1 126/12/1 127/5/1 128/2/1
f 129/11/1 130/12/1 131/5/1 132/2/1
f 133/11/1 134/12/1 135/5/1 136/2/1
f 137/11/1 138/12/1 139/5/1 140/2/1
f 141/11/1 142/12/1 143/5/1 144/2/1
f 145/11/1 146/12/1 147/5/1 148/2/1
f 149/11/1 150/12/1 151/5/1 152/2/1
f 153/11/1 154/12/1 155/5/1 156/2/1
f 157/11/1 158/12/1 159/5/1 160/2/1
f 161/11/1 162/12/1 163/5/1 164/2/1
f 165/14/1 166/16/1 167/8/1 168/7/1
f 169/14/1 170/16/1 171/8/1 172/7/1
f 173/11/1 174/12/1 175/5/1 176/2/1
f 177/11/1 178/12/1 179/5/1 180/2/1
f 181/11/1 182/12/1 183/5/1 184/2/1
f 185/11/1 186/12/1 187/5/1 188/2/1
f 189/11/1 190/12/1 191/5/1 192/2/1
f 193/11/1 194/12/1 195/5/1 196/2/1
f 197/11/1 198/12/1 199/5/1 200/2/1
f 201/11/1 202/12/1 203/5/1 204/2/1
f 205/11/1 206/12/1 207/5/1 208/2/1
f 209/11/1 210/12/1 211/5/1 212/2/1
f 213/11/1 214/12/1 215/5/1 216/2/1
f 217/11/1 218/12/1 219/5/1 220/2/1
f 221/11/1 222/12/1 223/5/1 224/2/1
f 225/11/1 226/12/1 227/5/1 228/2/1
f 229/11/1 230/12/1 231/5/1 232/2/1
f 233/11/1 234/12/1 235/5/1 236/2/1
f 237/11/1 238/12/1 239/5/1 240/2/1
f 241/11/1 242/12/1 243/5/1 244/2/1
f 245/11/1 246/12/1 247/5/1 248/2/1
f 249/11/1 250/12/1 251/5/1 252/2/1
f 253/11/1 254/12/1 255/5/1 256/2/1
f 257/11/1 258/12/1 259/5/1 260/2/1
f 261/11/1 262/12/1 263/5/1 264/2/1
f 265/11/1 266/12/1 267/5/1 268/2/1
f 269/11/1 270/12/1 271/5/1 272/2/1
f 273/11/1 274/12/1 275/5/1 276/2/1
f 277/11/1 278/12/1 279/5/1 280/2/1
f 281/11/1 282/12/1 283/5/1 284/2/1
f 285/11/1 286/12/1 287/5/1 288/2/1
f 289/11/1 290/12/1 291/5/1 292/2/1
f 293/11/1 294/12/1 295/5/1 296/2/1
f 297/11/1 298/12/1 299/5/1 300/2/1
f 301/11/1 302/12/1 303/5/1 304/2/1
f 305/11/1 306/12/1 307/5/1 308/2/1
f 309/11/1 310/12/1 311/5/1 312/2/1
f 313/11/1 314/12/1 315/5/1 316/2/1
f 317/11/1 318/12/1 319/5/1 320/2/1
f 321/11/1 322/12/1 323/5/1 324/2/1
f 325/11/1 326/12/1 327/5/1 328/2/1
f 329/11/1 330/12/1 331/5/1 332/2/1
f 333/11/1 334/12/1 335/5/1 336/2/1
f 337/11/1 338/12/1 339/5/1 340/2/1
f 341/11/1 342/12/1 343/5/1 344/2/1
f 345/11/1 346/12/1 347/5/1 348/2/1
f 349/11/1 350/12/1 351/5/1 352/2/1
f 353/11/1 354/12/1 355/5/1 356/2/1
f 357/11/1 358/12/1 359/5/1 360/2/1
f 361/11/1 362/12/1 363/5/1 364/2/1
f 365/11/1 366/12/1 367/5/1 368/2/1
f 369/11/1 370/12/1 371/5/1 372/2/1
f 373/11/1 374/12/1 375/5/1 376/2/1
f 377/11/1 378/12/1 379/5/1 380/2/1
f 381/11/1 382/12/1 383/5/1 384/2/1
f 385/11/1 386/12/1 387/5/1 388/2/1
f 389/11/1 390/12/1 391/5/1 392/2/1
f 393/11/1 394/12/1 395/5/1 396/2/1
f 397/11/1 398/12/1 399/5/1 400/2/1
f 401/11/1 402/12/1 403/5/1 404/2/1
f 405/11/1 406/12/1 407/5/1 408/2/1
f 409/11/1 410/12/1 411/5/1 412/2/1
f 413/11/1 414/12/1 415/5/1 416/2/1
f 417/11/1 418/12/1 419/5/1 420/2/1
f 421/11/1 422/12/1 423/5/1 424/2/1
f 425/11/1 426/12/1 427/5/1 428/2/1
f 429/11/1 430/12/1 431/5/1 432/2/1
f 433/11/1 434/12/1 435/5/1 436/2/1
f 437/11/1 438/12/1 439/5/1 440/2/1
f 441/11/1 442/12/1 443/5/1 444/2/1
f 445/11/1 446/12/1 447/5/1 448/2/1
f 449/11/1 450/12/1 451/5/1 452/2/1
f 453/11/1 454/12/1 455/5/1 456/2/1
f 457/11/1 458/12/1 459/5/1 460/2/1
f 461/11/1 462/12/1 463/5/1 464/2/1
f 465/11/1 466/12/1 467/5/1 468/2/1
f 469/11/1 470/12/1 471/5/1 472/2/1
f 473/11/1 474/12/1 475/5/1 476/2/1
f 477/11/1 478/12/1 479/5/1 480/2/1
f 481/11/1 482/12/1 483/5/1 484/2/1
f 485/11/1 486/12/1 487/5/1 488/2/1
f 489/11/1 490/12/1 491/5/1 492/2/1
f 493/11/1 494/12/1 495/5/1 496/2/1
f 497/11/1 498/12/1 499/5/1 500/2/1
f 501/11/1 502/12/1 503/5/1 504/2/1
f 505/11/1 506/12/1 507/5/1 508/2/1
f 509/11/1 510/12/1 511/5/1 512/2/1
f 513/11/1 514/12/1 515/5/1 516/2/1
f 517/11/1 518/12/1 519/5/1 520/2/1
f 521/11/1 522/12/1 523/5/1 524/2/1
f 525/11/1 526/12/1 527/5/1 528/2/1
f 529/11/1 530/12/1 531/5/1 532/2/1
f 533/11/1 534/12/1 535/5/1 536/2/1
f 537/11/1 538/12/1 539/5/1 540/2/1
f 541/11/1 542/12/1 543/5/1 544/2/1
f 545/11/1 546/12/1 547/5/1 548/2/1
f 549/11/1 550/12/1 551/5/1 552/2/1
f 553/11/1 554/12/1 555/5/1 556/2/1
f 557/11/1 558/12/1 559/5/1 560/2/1
f 561/11/1 562/12/1 563/5/1 564/2/1
f 565/11/1 566/12/1 567/5/1 568/2/1
f 569/11/1 570/12/1 571/5/1 572/2/1
f 573/11/1 574/12/1 575/5/1 576/2/1
f 577/11/1 578/12/1 579/5/1 580/2/1
f 581/11/1 582/12/1 583/5/1 584/2/1
f 585/11/1 586/12/1 587/5/1 588/2/1
f 589/11/1 590/12/1 591/5/1 592/2/1
f 593/11/1 594/12/1 595/5/1 596/2/1
f 597/11/1 598/12/1 599/5/1 600/2/1
f 601/11/1 602/12/1 603/5/1 604/2/1
f 605/11/1 606/12/1 607/5/1 608/2/1
f 609/11/1 610/12/1 611/5/1 612/2/1
f 613/11/1 614/12/1 615/5/1 616/2/1
f 617/11/1 618/12/1 619/5/1 620/2/1
f 621/11/1 622/12/1 623/5/1 624/2/1
f 625/11/1 626/12/1 627/5/1 628/2/1
f 629/11/1 630/12/1 631/5/1 632/2/1
f 633/11/1 634/12/1 635/5/1 636/2/1
f 637/11/1 638/12/1 639/5/1 640/2/1
f 641/11/1 642/12/1 643/5/1 644/2/1
f 645/11/1 646/12/1 647/5/1 648/2/1
f 649/11/1 650/12/1 651/5/1 652/2/1
f 653/11/1 654/12/1 655/5/1 656/2/1
f 657/11/1 658/12/1 659/5/1 660/2/1
f 661/11/1 662/12/1 663/5/1 664/2/1
f 665/11/1 666/12/1 667/5/1 668/2/1
f 669/11/1 670/12/1 671/5/1 672/2/1
f 673/11/1 674/12/1 675/5/1 676/2/1
f 677/11/1 678/12/1 679/5/1 680/2/1
f 681/11/1 682/12/1 683/5/1 684/2/1
f 685/11/1 686/12/1 687/5/1 688/2/1
f 689/11/1 690/12/1 691/5/1 692/2/1
f 693/11/1 694/12/1 695/5/1 696/2/1
f 697/11/1 698/12/1 699/5/1 700/2/1
f 701/11/1 702/12/1 703/5/1 704/2/1
f 705/11/1 706/12/1 707/5/1 708/2/1
f 709/11/1 710/12/1 711/5/1 712/2/1
f 713/11/1 714/12/1 715/5/1 716/2/1
f 717/11/1 718/12/1 719/5/1 720/2/1
f 721/11/1 722/12/1 723/5/1 724/2/1
f 725/11/1 726/12/1 727/5/1 728/2/1
f 729/11/1 730/12/1 731/5/1 732/2/1
f 733/11/1 734/12/1 735/5/1 736/2/1
f 737/11/1 738/12/1 739/5/1 740/2/1
f 741/11/1 742/12/1 743/5/1 744/2/1
f 745/11/1 746/12/1 747/5/1 748/2/1
f 749/11/1 750/12/1 751/5/1 752/2/1
f 753/11/1 754/12/1 755/5/1 756/2/1
f 757/11/1 758/12/1 759/5/1 760/2/1
f 761/11/1 762/12/1 763/5/1 764/2/1
f 765/11/1 766/12/1 767/5/1 768/2/1
f 769/11/1 770/12/1 771/5/1 772/2/1
f 773/11/1 774/12/1 775/5/1 776/2/1
f 777/11/1 778/12/1 779/5/1 780/2/1
f 781/11/1 782/12/1 783/5/1 784/2/1
f 785/11/1 786/12/1 787/5/1 788/2/1
f 789/11/1 790/12/1 791/5/1 792/2/1
f 793/11/1 794/12/1 795/5/1 796/2/1
f 797/11/1 798/12/1 799/5/1 800/2/1
f 801/11/1 802/12/1 803/5/1 804/2/1

