# Tiled2Unity generated file. Do not modify by hand.
# Wavefront file for 'myMap_mesh_0324.obj'

# Vertices (Count = 240)
v -256 -96 0
v -288 -96 0
v -288 -64 0
v -256 -64 0
v -288 -96 0
v -320 -96 0
v -320 -64 0
v -288 -64 0
v -224 -128 0
v -256 -128 0
v -256 -96 0
v -224 -96 0
v -256 -128 0
v -288 -128 0
v -288 -96 0
v -256 -96 0
v -288 -128 0
v -320 -128 0
v -320 -96 0
v -288 -96 0
v -320 -128 0
v -352 -128 0
v -352 -96 0
v -320 -96 0
v -192 -160 0
v -224 -160 0
v -224 -128 0
v -192 -128 0
v -224 -160 0
v -256 -160 0
v -256 -128 0
v -224 -128 0
v -256 -160 0
v -288 -160 0
v -288 -128 0
v -256 -128 0
v -288 -160 0
v -320 -160 0
v -320 -128 0
v -288 -128 0
v -320 -160 0
v -352 -160 0
v -352 -128 0
v -320 -128 0
v -352 -160 0
v -384 -160 0
v -384 -128 0
v -352 -128 0
v -160 -192 0
v -192 -192 0
v -192 -160 0
v -160 -160 0
v -192 -192 0
v -224 -192 0
v -224 -160 0
v -192 -160 0
v -224 -192 0
v -256 -192 0
v -256 -160 0
v -224 -160 0
v -256 -192 0
v -288 -192 0
v -288 -160 0
v -256 -160 0
v -288 -192 0
v -320 -192 0
v -320 -160 0
v -288 -160 0
v -320 -192 0
v -352 -192 0
v -352 -160 0
v -320 -160 0
v -352 -192 0
v -384 -192 0
v -384 -160 0
v -352 -160 0
v -384 -192 0
v -416 -192 0
v -416 -160 0
v -384 -160 0
v -128 -224 0
v -160 -224 0
v -160 -192 0
v -128 -192 0
v -160 -224 0
v -192 -224 0
v -192 -192 0
v -160 -192 0
v -192 -224 0
v -224 -224 0
v -224 -192 0
v -192 -192 0
v -224 -224 0
v -256 -224 0
v -256 -192 0
v -224 -192 0
v -256 -224 0
v -288 -224 0
v -288 -192 0
v -256 -192 0
v -288 -224 0
v -320 -224 0
v -320 -192 0
v -288 -192 0
v -320 -224 0
v -352 -224 0
v -352 -192 0
v -320 -192 0
v -352 -224 0
v -384 -224 0
v -384 -192 0
v -352 -192 0
v -384 -224 0
v -416 -224 0
v -416 -192 0
v -384 -192 0
v -416 -224 0
v -448 -224 0
v -448 -192 0
v -416 -192 0
v -128 -256 0
v -160 -256 0
v -160 -224 0
v -128 -224 0
v -160 -256 0
v -192 -256 0
v -192 -224 0
v -160 -224 0
v -192 -256 0
v -224 -256 0
v -224 -224 0
v -192 -224 0
v -224 -256 0
v -256 -256 0
v -256 -224 0
v -224 -224 0
v -256 -256 0
v -288 -256 0
v -288 -224 0
v -256 -224 0
v -288 -256 0
v -320 -256 0
v -320 -224 0
v -288 -224 0
v -320 -256 0
v -352 -256 0
v -352 -224 0
v -320 -224 0
v -352 -256 0
v -384 -256 0
v -384 -224 0
v -352 -224 0
v -384 -256 0
v -416 -256 0
v -416 -224 0
v -384 -224 0
v -416 -256 0
v -448 -256 0
v -448 -224 0
v -416 -224 0
v -160 -288 0
v -192 -288 0
v -192 -256 0
v -160 -256 0
v -192 -288 0
v -224 -288 0
v -224 -256 0
v -192 -256 0
v -224 -288 0
v -256 -288 0
v -256 -256 0
v -224 -256 0
v -256 -288 0
v -288 -288 0
v -288 -256 0
v -256 -256 0
v -288 -288 0
v -320 -288 0
v -320 -256 0
v -288 -256 0
v -320 -288 0
v -352 -288 0
v -352 -256 0
v -320 -256 0
v -352 -288 0
v -384 -288 0
v -384 -256 0
v -352 -256 0
v -384 -288 0
v -416 -288 0
v -416 -256 0
v -384 -256 0
v -192 -320 0
v -224 -320 0
v -224 -288 0
v -192 -288 0
v -224 -320 0
v -256 -320 0
v -256 -288 0
v -224 -288 0
v -256 -320 0
v -288 -320 0
v -288 -288 0
v -256 -288 0
v -288 -320 0
v -320 -320 0
v -320 -288 0
v -288 -288 0
v -320 -320 0
v -352 -320 0
v -352 -288 0
v -320 -288 0
v -352 -320 0
v -384 -320 0
v -384 -288 0
v -352 -288 0
v -224 -352 0
v -256 -352 0
v -256 -320 0
v -224 -320 0
v -256 -352 0
v -288 -352 0
v -288 -320 0
v -256 -320 0
v -288 -352 0
v -320 -352 0
v -320 -320 0
v -288 -320 0
v -320 -352 0
v -352 -352 0
v -352 -320 0
v -320 -320 0
v -256 -384 0
v -288 -384 0
v -288 -352 0
v -256 -352 0
v -288 -384 0
v -320 -384 0
v -320 -352 0
v -288 -352 0

# Texture cooridinates (Count = 18)
vt 0.28125 0.6875
vt 0.3125 0.6875
vt 0.3125 0.75
vt 0.28125 0.75
vt 0.28125 0.625
vt 0.3125 0.625
vt 0.25 0.6875
vt 0.25 0.625
vt 0.28125 0.875
vt 0.28125 0.8125
vt 0.3125 0.8125
vt 0.3125 0.875
vt 0.1875 0.75
vt 0.21875 0.75
vt 0.21875 0.8125
vt 0.1875 0.8125
vt 0.1875 0.6875
vt 0.21875 0.6875

# Normal
vn 0 0 -1

# Mesh description
g myMap_mesh_0324

# Faces
f 1/1/1 2/2/1 3/3/1 4/4/1
f 5/2/1 6/3/1 7/4/1 8/1/1
f 9/1/1 10/2/1 11/3/1 12/4/1
f 13/5/1 14/6/1 15/2/1 16/1/1
f 17/6/1 18/2/1 19/1/1 20/5/1
f 21/2/1 22/3/1 23/4/1 24/1/1
f 25/1/1 26/2/1 27/3/1 28/4/1
f 29/5/1 30/6/1 31/2/1 32/1/1
f 33/2/1 34/1/1 35/5/1 36/6/1
f 37/1/1 38/7/1 39/8/1 40/5/1
f 41/6/1 42/2/1 43/1/1 44/5/1
f 45/2/1 46/3/1 47/4/1 48/1/1
f 49/1/1 50/2/1 51/3/1 52/4/1
f 53/5/1 54/6/1 55/2/1 56/1/1
f 57/9/1 58/10/1 59/11/1 60/12/1
f 61/13/1 62/14/1 63/15/1 64/16/1
f 65/14/1 66/15/1 67/16/1 68/13/1
f 69/10/1 70/11/1 71/12/1 72/9/1
f 73/6/1 74/2/1 75/1/1 76/5/1
f 77/2/1 78/3/1 79/4/1 80/1/1
f 81/1/1 82/2/1 83/3/1 84/4/1
f 85/5/1 86/6/1 87/2/1 88/1/1
f 89/5/1 90/1/1 91/7/1 92/8/1
f 93/13/1 94/14/1 95/15/1 96/16/1
f 97/17/1 98/18/1 99/14/1 100/13/1
f 101/18/1 102/14/1 103/13/1 104/17/1
f 105/14/1 106/15/1 107/16/1 108/13/1
f 109/1/1 110/5/1 111/6/1 112/2/1
f 113/6/1 114/2/1 115/1/1 116/5/1
f 117/2/1 118/3/1 119/4/1 120/1/1
f 121/4/1 122/1/1 123/2/1 124/3/1
f 125/1/1 126/5/1 127/6/1 128/2/1
f 129/6/1 130/2/1 131/1/1 132/5/1
f 133/16/1 134/13/1 135/14/1 136/15/1
f 137/13/1 138/17/1 139/18/1 140/14/1
f 141/14/1 142/13/1 143/17/1 144/18/1
f 145/15/1 146/16/1 147/13/1 148/14/1
f 149/7/1 150/8/1 151/5/1 152/1/1
f 153/2/1 154/1/1 155/5/1 156/6/1
f 157/3/1 158/4/1 159/1/1 160/2/1
f 161/4/1 162/1/1 163/2/1 164/3/1
f 165/1/1 166/5/1 167/6/1 168/2/1
f 169/12/1 170/9/1 171/10/1 172/11/1
f 173/16/1 174/13/1 175/14/1 176/15/1
f 177/15/1 178/16/1 179/13/1 180/14/1
f 181/11/1 182/12/1 183/9/1 184/10/1
f 185/2/1 186/1/1 187/5/1 188/6/1
f 189/3/1 190/4/1 191/1/1 192/2/1
f 193/4/1 194/1/1 195/2/1 196/3/1
f 197/1/1 198/5/1 199/6/1 200/2/1
f 201/8/1 202/5/1 203/1/1 204/7/1
f 205/5/1 206/6/1 207/2/1 208/1/1
f 209/2/1 210/1/1 211/5/1 212/6/1
f 213/3/1 214/4/1 215/1/1 216/2/1
f 217/4/1 218/1/1 219/2/1 220/3/1
f 221/1/1 222/5/1 223/6/1 224/2/1
f 225/2/1 226/1/1 227/5/1 228/6/1
f 229/3/1 230/4/1 231/1/1 232/2/1
f 233/4/1 234/1/1 235/2/1 236/3/1
f 237/3/1 238/4/1 239/1/1 240/2/1

