# Tiled2Unity generated file. Do not modify by hand.
# Wavefront file for 'myMap_mesh_0244.obj'

# Vertices (Count = 108)
v 0 -128 0
v -32 -128 0
v -32 -96 0
v 0 -96 0
v -32 -128 0
v -64 -128 0
v -64 -96 0
v -32 -96 0
v -64 -128 0
v -96 -128 0
v -96 -96 0
v -64 -96 0
v 0 -160 0
v -32 -160 0
v -32 -128 0
v 0 -128 0
v -32 -160 0
v -64 -160 0
v -64 -128 0
v -32 -128 0
v -64 -160 0
v -96 -160 0
v -96 -128 0
v -64 -128 0
v 0 -192 0
v -32 -192 0
v -32 -160 0
v 0 -160 0
v -32 -192 0
v -64 -192 0
v -64 -160 0
v -32 -160 0
v -64 -192 0
v -96 -192 0
v -96 -160 0
v -64 -160 0
v 0 -224 0
v -32 -224 0
v -32 -192 0
v 0 -192 0
v -32 -224 0
v -64 -224 0
v -64 -192 0
v -32 -192 0
v -64 -224 0
v -96 -224 0
v -96 -192 0
v -64 -192 0
v 0 -256 0
v -32 -256 0
v -32 -224 0
v 0 -224 0
v -32 -256 0
v -64 -256 0
v -64 -224 0
v -32 -224 0
v -64 -256 0
v -96 -256 0
v -96 -224 0
v -64 -224 0
v 0 -288 0
v -32 -288 0
v -32 -256 0
v 0 -256 0
v -32 -288 0
v -64 -288 0
v -64 -256 0
v -32 -256 0
v -64 -288 0
v -96 -288 0
v -96 -256 0
v -64 -256 0
v 0 -320 0
v -32 -320 0
v -32 -288 0
v 0 -288 0
v -32 -320 0
v -64 -320 0
v -64 -288 0
v -32 -288 0
v -64 -320 0
v -96 -320 0
v -96 -288 0
v -64 -288 0
v 0 -352 0
v -32 -352 0
v -32 -320 0
v 0 -320 0
v -32 -352 0
v -64 -352 0
v -64 -320 0
v -32 -320 0
v -64 -352 0
v -96 -352 0
v -96 -320 0
v -64 -320 0
v 0 -384 0
v -32 -384 0
v -32 -352 0
v 0 -352 0
v -32 -384 0
v -64 -384 0
v -64 -352 0
v -32 -352 0
v -64 -384 0
v -96 -384 0
v -96 -352 0
v -64 -352 0

# Texture cooridinates (Count = 13)
vt 0.03125 0.9375
vt 0 0.9375
vt 0 0.875
vt 0.03125 0.875
vt 0.03125 1
vt 0 1
vt 0.125 1
vt 0.09375 1
vt 0.09375 0.9375
vt 0.125 0.9375
vt 0.0625 0.875
vt 0.0625 0.9375
vt 0.09375 0.875

# Normal
vn 0 0 -1

# Mesh description
g myMap_mesh_0244

# Faces
f 1/1/1 2/2/1 3/3/1 4/4/1
f 5/1/1 6/2/1 7/3/1 8/4/1
f 9/1/1 10/2/1 11/3/1 12/4/1
f 13/2/1 14/1/1 15/5/1 16/6/1
f 17/7/1 18/8/1 19/9/1 20/10/1
f 21/2/1 22/1/1 23/5/1 24/6/1
f 25/3/1 26/4/1 27/1/1 28/2/1
f 29/4/1 30/11/1 31/12/1 32/1/1
f 33/3/1 34/4/1 35/1/1 36/2/1
f 37/2/1 38/1/1 39/5/1 40/6/1
f 41/2/1 42/1/1 43/5/1 44/6/1
f 45/2/1 46/1/1 47/5/1 48/6/1
f 49/3/1 50/4/1 51/1/1 52/2/1
f 53/3/1 54/4/1 55/1/1 56/2/1
f 57/11/1 58/13/1 59/9/1 60/12/1
f 61/2/1 62/1/1 63/5/1 64/6/1
f 65/2/1 66/1/1 67/5/1 68/6/1
f 69/2/1 70/1/1 71/5/1 72/6/1
f 73/2/1 74/1/1 75/5/1 76/6/1
f 77/2/1 78/1/1 79/5/1 80/6/1
f 81/2/1 82/1/1 83/5/1 84/6/1
f 85/3/1 86/4/1 87/1/1 88/2/1
f 89/4/1 90/11/1 91/12/1 92/1/1
f 93/3/1 94/4/1 95/1/1 96/2/1
f 97/2/1 98/1/1 99/5/1 100/6/1
f 101/2/1 102/1/1 103/5/1 104/6/1
f 105/2/1 106/1/1 107/5/1 108/6/1

