# Tiled2Unity generated file. Do not modify by hand.
# Wavefront file for 'myMap_mesh_0304.obj'

# Vertices (Count = 16)
v 0 -480 0
v -32 -480 0
v -32 -448 0
v 0 -448 0
v -32 -480 0
v -64 -480 0
v -64 -448 0
v -32 -448 0
v 0 -512 0
v -32 -512 0
v -32 -480 0
v 0 -480 0
v -32 -512 0
v -64 -512 0
v -64 -480 0
v -32 -480 0

# Texture cooridinates (Count = 9)
vt 0.65625 0.625
vt 0.6875 0.625
vt 0.6875 0.6875
vt 0.65625 0.6875
vt 0.71875 0.625
vt 0.71875 0.6875
vt 0.65625 0.5625
vt 0.6875 0.5625
vt 0.71875 0.5625

# Normal
vn 0 0 -1

# Mesh description
g myMap_mesh_0304

# Faces
f 1/1/1 2/2/1 3/3/1 4/4/1
f 5/2/1 6/5/1 7/6/1 8/3/1
f 9/7/1 10/8/1 11/2/1 12/1/1
f 13/8/1 14/9/1 15/5/1 16/2/1

