# Tiled2Unity generated file. Do not modify by hand.
# Wavefront file for 'myMap_mesh_0311.obj'

# Vertices (Count = 716)
v 0 -32 0
v -32 -32 0
v -32 0 0
v 0 0 0
v -32 -32 0
v -64 -32 0
v -64 0 0
v -32 0 0
v -64 -32 0
v -96 -32 0
v -96 0 0
v -64 0 0
v -96 -32 0
v -128 -32 0
v -128 0 0
v -96 0 0
v -128 -32 0
v -160 -32 0
v -160 0 0
v -128 0 0
v -160 -32 0
v -192 -32 0
v -192 0 0
v -160 0 0
v -192 -32 0
v -224 -32 0
v -224 0 0
v -192 0 0
v -224 -32 0
v -256 -32 0
v -256 0 0
v -224 0 0
v 0 -64 0
v -32 -64 0
v -32 -32 0
v 0 -32 0
v -32 -64 0
v -64 -64 0
v -64 -32 0
v -32 -32 0
v -64 -64 0
v -96 -64 0
v -96 -32 0
v -64 -32 0
v -96 -64 0
v -128 -64 0
v -128 -32 0
v -96 -32 0
v -128 -64 0
v -160 -64 0
v -160 -32 0
v -128 -32 0
v -160 -64 0
v -192 -64 0
v -192 -32 0
v -160 -32 0
v -192 -64 0
v -224 -64 0
v -224 -32 0
v -192 -32 0
v -224 -64 0
v -256 -64 0
v -256 -32 0
v -224 -32 0
v 0 -96 0
v -32 -96 0
v -32 -64 0
v 0 -64 0
v -32 -96 0
v -64 -96 0
v -64 -64 0
v -32 -64 0
v -64 -96 0
v -96 -96 0
v -96 -64 0
v -64 -64 0
v -96 -96 0
v -128 -96 0
v -128 -64 0
v -96 -64 0
v -128 -96 0
v -160 -96 0
v -160 -64 0
v -128 -64 0
v -160 -96 0
v -192 -96 0
v -192 -64 0
v -160 -64 0
v -192 -96 0
v -224 -96 0
v -224 -64 0
v -192 -64 0
v -224 -96 0
v -256 -96 0
v -256 -64 0
v -224 -64 0
v 0 -128 0
v -32 -128 0
v -32 -96 0
v 0 -96 0
v -32 -128 0
v -64 -128 0
v -64 -96 0
v -32 -96 0
v -64 -128 0
v -96 -128 0
v -96 -96 0
v -64 -96 0
v -96 -128 0
v -128 -128 0
v -128 -96 0
v -96 -96 0
v -128 -128 0
v -160 -128 0
v -160 -96 0
v -128 -96 0
v -160 -128 0
v -192 -128 0
v -192 -96 0
v -160 -96 0
v -192 -128 0
v -224 -128 0
v -224 -96 0
v -192 -96 0
v -224 -128 0
v -256 -128 0
v -256 -96 0
v -224 -96 0
v 0 -160 0
v -32 -160 0
v -32 -128 0
v 0 -128 0
v -32 -160 0
v -64 -160 0
v -64 -128 0
v -32 -128 0
v -64 -160 0
v -96 -160 0
v -96 -128 0
v -64 -128 0
v -96 -160 0
v -128 -160 0
v -128 -128 0
v -96 -128 0
v -128 -160 0
v -160 -160 0
v -160 -128 0
v -128 -128 0
v -160 -160 0
v -192 -160 0
v -192 -128 0
v -160 -128 0
v -192 -160 0
v -224 -160 0
v -224 -128 0
v -192 -128 0
v -224 -160 0
v -256 -160 0
v -256 -128 0
v -224 -128 0
v -480 -160 0
v -512 -160 0
v -512 -128 0
v -480 -128 0
v 0 -192 0
v -32 -192 0
v -32 -160 0
v 0 -160 0
v -32 -192 0
v -64 -192 0
v -64 -160 0
v -32 -160 0
v -64 -192 0
v -96 -192 0
v -96 -160 0
v -64 -160 0
v -96 -192 0
v -128 -192 0
v -128 -160 0
v -96 -160 0
v -128 -192 0
v -160 -192 0
v -160 -160 0
v -128 -160 0
v -160 -192 0
v -192 -192 0
v -192 -160 0
v -160 -160 0
v -192 -192 0
v -224 -192 0
v -224 -160 0
v -192 -160 0
v -224 -192 0
v -256 -192 0
v -256 -160 0
v -224 -160 0
v -448 -192 0
v -480 -192 0
v -480 -160 0
v -448 -160 0
v -480 -192 0
v -512 -192 0
v -512 -160 0
v -480 -160 0
v 0 -224 0
v -32 -224 0
v -32 -192 0
v 0 -192 0
v -32 -224 0
v -64 -224 0
v -64 -192 0
v -32 -192 0
v -64 -224 0
v -96 -224 0
v -96 -192 0
v -64 -192 0
v -96 -224 0
v -128 -224 0
v -128 -192 0
v -96 -192 0
v -128 -224 0
v -160 -224 0
v -160 -192 0
v -128 -192 0
v -160 -224 0
v -192 -224 0
v -192 -192 0
v -160 -192 0
v -192 -224 0
v -224 -224 0
v -224 -192 0
v -192 -192 0
v -224 -224 0
v -256 -224 0
v -256 -192 0
v -224 -192 0
v -256 -224 0
v -288 -224 0
v -288 -192 0
v -256 -192 0
v -288 -224 0
v -320 -224 0
v -320 -192 0
v -288 -192 0
v -320 -224 0
v -352 -224 0
v -352 -192 0
v -320 -192 0
v -352 -224 0
v -384 -224 0
v -384 -192 0
v -352 -192 0
v -384 -224 0
v -416 -224 0
v -416 -192 0
v -384 -192 0
v -416 -224 0
v -448 -224 0
v -448 -192 0
v -416 -192 0
v -448 -224 0
v -480 -224 0
v -480 -192 0
v -448 -192 0
v -480 -224 0
v -512 -224 0
v -512 -192 0
v -480 -192 0
v 0 -256 0
v -32 -256 0
v -32 -224 0
v 0 -224 0
v -32 -256 0
v -64 -256 0
v -64 -224 0
v -32 -224 0
v -64 -256 0
v -96 -256 0
v -96 -224 0
v -64 -224 0
v -96 -256 0
v -128 -256 0
v -128 -224 0
v -96 -224 0
v -128 -256 0
v -160 -256 0
v -160 -224 0
v -128 -224 0
v -160 -256 0
v -192 -256 0
v -192 -224 0
v -160 -224 0
v -192 -256 0
v -224 -256 0
v -224 -224 0
v -192 -224 0
v -224 -256 0
v -256 -256 0
v -256 -224 0
v -224 -224 0
v -256 -256 0
v -288 -256 0
v -288 -224 0
v -256 -224 0
v -288 -256 0
v -320 -256 0
v -320 -224 0
v -288 -224 0
v -320 -256 0
v -352 -256 0
v -352 -224 0
v -320 -224 0
v -352 -256 0
v -384 -256 0
v -384 -224 0
v -352 -224 0
v -384 -256 0
v -416 -256 0
v -416 -224 0
v -384 -224 0
v -416 -256 0
v -448 -256 0
v -448 -224 0
v -416 -224 0
v -448 -256 0
v -480 -256 0
v -480 -224 0
v -448 -224 0
v -480 -256 0
v -512 -256 0
v -512 -224 0
v -480 -224 0
v 0 -288 0
v -32 -288 0
v -32 -256 0
v 0 -256 0
v -32 -288 0
v -64 -288 0
v -64 -256 0
v -32 -256 0
v -64 -288 0
v -96 -288 0
v -96 -256 0
v -64 -256 0
v -96 -288 0
v -128 -288 0
v -128 -256 0
v -96 -256 0
v -128 -288 0
v -160 -288 0
v -160 -256 0
v -128 -256 0
v -160 -288 0
v -192 -288 0
v -192 -256 0
v -160 -256 0
v -192 -288 0
v -224 -288 0
v -224 -256 0
v -192 -256 0
v -224 -288 0
v -256 -288 0
v -256 -256 0
v -224 -256 0
v -256 -288 0
v -288 -288 0
v -288 -256 0
v -256 -256 0
v -288 -288 0
v -320 -288 0
v -320 -256 0
v -288 -256 0
v -320 -288 0
v -352 -288 0
v -352 -256 0
v -320 -256 0
v -352 -288 0
v -384 -288 0
v -384 -256 0
v -352 -256 0
v -384 -288 0
v -416 -288 0
v -416 -256 0
v -384 -256 0
v -416 -288 0
v -448 -288 0
v -448 -256 0
v -416 -256 0
v -448 -288 0
v -480 -288 0
v -480 -256 0
v -448 -256 0
v -480 -288 0
v -512 -288 0
v -512 -256 0
v -480 -256 0
v 0 -320 0
v -32 -320 0
v -32 -288 0
v 0 -288 0
v -32 -320 0
v -64 -320 0
v -64 -288 0
v -32 -288 0
v -64 -320 0
v -96 -320 0
v -96 -288 0
v -64 -288 0
v -96 -320 0
v -128 -320 0
v -128 -288 0
v -96 -288 0
v -128 -320 0
v -160 -320 0
v -160 -288 0
v -128 -288 0
v -160 -320 0
v -192 -320 0
v -192 -288 0
v -160 -288 0
v -192 -320 0
v -224 -320 0
v -224 -288 0
v -192 -288 0
v -224 -320 0
v -256 -320 0
v -256 -288 0
v -224 -288 0
v -256 -320 0
v -288 -320 0
v -288 -288 0
v -256 -288 0
v -288 -320 0
v -320 -320 0
v -320 -288 0
v -288 -288 0
v -320 -320 0
v -352 -320 0
v -352 -288 0
v -320 -288 0
v -352 -320 0
v -384 -320 0
v -384 -288 0
v -352 -288 0
v -384 -320 0
v -416 -320 0
v -416 -288 0
v -384 -288 0
v -416 -320 0
v -448 -320 0
v -448 -288 0
v -416 -288 0
v -448 -320 0
v -480 -320 0
v -480 -288 0
v -448 -288 0
v -480 -320 0
v -512 -320 0
v -512 -288 0
v -480 -288 0
v 0 -352 0
v -32 -352 0
v -32 -320 0
v 0 -320 0
v -32 -352 0
v -64 -352 0
v -64 -320 0
v -32 -320 0
v -64 -352 0
v -96 -352 0
v -96 -320 0
v -64 -320 0
v -96 -352 0
v -128 -352 0
v -128 -320 0
v -96 -320 0
v -128 -352 0
v -160 -352 0
v -160 -320 0
v -128 -320 0
v -160 -352 0
v -192 -352 0
v -192 -320 0
v -160 -320 0
v -192 -352 0
v -224 -352 0
v -224 -320 0
v -192 -320 0
v -224 -352 0
v -256 -352 0
v -256 -320 0
v -224 -320 0
v -256 -352 0
v -288 -352 0
v -288 -320 0
v -256 -320 0
v -288 -352 0
v -320 -352 0
v -320 -320 0
v -288 -320 0
v -320 -352 0
v -352 -352 0
v -352 -320 0
v -320 -320 0
v -352 -352 0
v -384 -352 0
v -384 -320 0
v -352 -320 0
v -384 -352 0
v -416 -352 0
v -416 -320 0
v -384 -320 0
v -416 -352 0
v -448 -352 0
v -448 -320 0
v -416 -320 0
v -448 -352 0
v -480 -352 0
v -480 -320 0
v -448 -320 0
v -480 -352 0
v -512 -352 0
v -512 -320 0
v -480 -320 0
v 0 -384 0
v -32 -384 0
v -32 -352 0
v 0 -352 0
v -32 -384 0
v -64 -384 0
v -64 -352 0
v -32 -352 0
v -64 -384 0
v -96 -384 0
v -96 -352 0
v -64 -352 0
v -96 -384 0
v -128 -384 0
v -128 -352 0
v -96 -352 0
v -128 -384 0
v -160 -384 0
v -160 -352 0
v -128 -352 0
v -160 -384 0
v -192 -384 0
v -192 -352 0
v -160 -352 0
v -192 -384 0
v -224 -384 0
v -224 -352 0
v -192 -352 0
v -224 -384 0
v -256 -384 0
v -256 -352 0
v -224 -352 0
v -256 -384 0
v -288 -384 0
v -288 -352 0
v -256 -352 0
v -288 -384 0
v -320 -384 0
v -320 -352 0
v -288 -352 0
v -320 -384 0
v -352 -384 0
v -352 -352 0
v -320 -352 0
v -352 -384 0
v -384 -384 0
v -384 -352 0
v -352 -352 0
v -384 -384 0
v -416 -384 0
v -416 -352 0
v -384 -352 0
v -416 -384 0
v -448 -384 0
v -448 -352 0
v -416 -352 0
v -448 -384 0
v -480 -384 0
v -480 -352 0
v -448 -352 0
v -480 -384 0
v -512 -384 0
v -512 -352 0
v -480 -352 0
v 0 -416 0
v -32 -416 0
v -32 -384 0
v 0 -384 0
v -32 -416 0
v -64 -416 0
v -64 -384 0
v -32 -384 0
v -64 -416 0
v -96 -416 0
v -96 -384 0
v -64 -384 0
v -96 -416 0
v -128 -416 0
v -128 -384 0
v -96 -384 0
v -128 -416 0
v -160 -416 0
v -160 -384 0
v -128 -384 0
v -160 -416 0
v -192 -416 0
v -192 -384 0
v -160 -384 0
v -192 -416 0
v -224 -416 0
v -224 -384 0
v -192 -384 0
v -224 -416 0
v -256 -416 0
v -256 -384 0
v -224 -384 0
v -256 -416 0
v -288 -416 0
v -288 -384 0
v -256 -384 0
v -288 -416 0
v -320 -416 0
v -320 -384 0
v -288 -384 0
v -320 -416 0
v -352 -416 0
v -352 -384 0
v -320 -384 0
v -352 -416 0
v -384 -416 0
v -384 -384 0
v -352 -384 0
v -384 -416 0
v -416 -416 0
v -416 -384 0
v -384 -384 0
v -416 -416 0
v -448 -416 0
v -448 -384 0
v -416 -384 0
v -448 -416 0
v -480 -416 0
v -480 -384 0
v -448 -384 0
v -480 -416 0
v -512 -416 0
v -512 -384 0
v -480 -384 0
v 0 -448 0
v -32 -448 0
v -32 -416 0
v 0 -416 0
v -32 -448 0
v -64 -448 0
v -64 -416 0
v -32 -416 0
v -64 -448 0
v -96 -448 0
v -96 -416 0
v -64 -416 0
v -96 -448 0
v -128 -448 0
v -128 -416 0
v -96 -416 0
v -128 -448 0
v -160 -448 0
v -160 -416 0
v -128 -416 0
v -160 -448 0
v -192 -448 0
v -192 -416 0
v -160 -416 0
v -192 -448 0
v -224 -448 0
v -224 -416 0
v -192 -416 0
v -224 -448 0
v -256 -448 0
v -256 -416 0
v -224 -416 0
v -256 -448 0
v -288 -448 0
v -288 -416 0
v -256 -416 0
v -288 -448 0
v -320 -448 0
v -320 -416 0
v -288 -416 0
v -320 -448 0
v -352 -448 0
v -352 -416 0
v -320 -416 0
v -352 -448 0
v -384 -448 0
v -384 -416 0
v -352 -416 0
v -384 -448 0
v -416 -448 0
v -416 -416 0
v -384 -416 0
v -416 -448 0
v -448 -448 0
v -448 -416 0
v -416 -416 0
v -448 -448 0
v -480 -448 0
v -480 -416 0
v -448 -416 0
v -480 -448 0
v -512 -448 0
v -512 -416 0
v -480 -416 0

# Texture cooridinates (Count = 22)
vt 0.65625 0.625
vt 0.6875 0.625
vt 0.6875 0.6875
vt 0.65625 0.6875
vt 0.5625 0.4375
vt 0.59375 0.4375
vt 0.59375 0.5
vt 0.5625 0.5
vt 0.625 0.4375
vt 0.625 0.5
vt 0.65625 0.5625
vt 0.6875 0.5625
vt 0.71875 0.5625
vt 0.71875 0.625
vt 0.625 0.625
vt 0.625 0.6875
vt 0.5 0.5
vt 0.53125 0.5
vt 0.53125 0.5625
vt 0.5 0.5625
vt 0.5 0.4375
vt 0.53125 0.4375

# Normal
vn 0 0 -1

# Mesh description
g myMap_mesh_0311

# Faces
f 1/1/1 2/2/1 3/3/1 4/4/1
f 5/1/1 6/2/1 7/3/1 8/4/1
f 9/1/1 10/2/1 11/3/1 12/4/1
f 13/5/1 14/6/1 15/7/1 16/8/1
f 17/6/1 18/9/1 19/10/1 20/7/1
f 21/11/1 22/12/1 23/2/1 24/1/1
f 25/11/1 26/12/1 27/2/1 28/1/1
f 29/12/1 30/13/1 31/14/1 32/2/1
f 33/11/1 34/12/1 35/2/1 36/1/1
f 37/11/1 38/12/1 39/2/1 40/1/1
f 41/11/1 42/12/1 43/2/1 44/1/1
f 45/11/1 46/12/1 47/2/1 48/1/1
f 49/11/1 50/12/1 51/2/1 52/1/1
f 53/11/1 54/12/1 55/2/1 56/1/1
f 57/11/1 58/12/1 59/2/1 60/1/1
f 61/12/1 62/13/1 63/14/1 64/2/1
f 65/11/1 66/12/1 67/2/1 68/1/1
f 69/11/1 70/12/1 71/2/1 72/1/1
f 73/11/1 74/12/1 75/2/1 76/1/1
f 77/11/1 78/12/1 79/2/1 80/1/1
f 81/11/1 82/12/1 83/2/1 84/1/1
f 85/11/1 86/12/1 87/2/1 88/1/1
f 89/11/1 90/12/1 91/2/1 92/1/1
f 93/12/1 94/13/1 95/14/1 96/2/1
f 97/11/1 98/12/1 99/2/1 100/1/1
f 101/11/1 102/12/1 103/2/1 104/1/1
f 105/11/1 106/12/1 107/2/1 108/1/1
f 109/11/1 110/12/1 111/2/1 112/1/1
f 113/11/1 114/12/1 115/2/1 116/1/1
f 117/11/1 118/12/1 119/2/1 120/1/1
f 121/11/1 122/12/1 123/2/1 124/1/1
f 125/12/1 126/13/1 127/14/1 128/2/1
f 129/11/1 130/12/1 131/2/1 132/1/1
f 133/11/1 134/12/1 135/2/1 136/1/1
f 137/11/1 138/12/1 139/2/1 140/1/1
f 141/11/1 142/12/1 143/2/1 144/1/1
f 145/11/1 146/12/1 147/2/1 148/1/1
f 149/11/1 150/12/1 151/2/1 152/1/1
f 153/11/1 154/12/1 155/2/1 156/1/1
f 157/12/1 158/13/1 159/14/1 160/2/1
f 161/15/1 162/1/1 163/4/1 164/16/1
f 165/11/1 166/12/1 167/2/1 168/1/1
f 169/11/1 170/12/1 171/2/1 172/1/1
f 173/11/1 174/12/1 175/2/1 176/1/1
f 177/11/1 178/12/1 179/2/1 180/1/1
f 181/11/1 182/12/1 183/2/1 184/1/1
f 185/11/1 186/12/1 187/2/1 188/1/1
f 189/11/1 190/12/1 191/2/1 192/1/1
f 193/17/1 194/18/1 195/19/1 196/20/1
f 197/15/1 198/1/1 199/4/1 200/16/1
f 201/6/1 202/9/1 203/10/1 204/7/1
f 205/11/1 206/12/1 207/2/1 208/1/1
f 209/11/1 210/12/1 211/2/1 212/1/1
f 213/11/1 214/12/1 215/2/1 216/1/1
f 217/11/1 218/12/1 219/2/1 220/1/1
f 221/11/1 222/12/1 223/2/1 224/1/1
f 225/11/1 226/12/1 227/2/1 228/1/1
f 229/11/1 230/12/1 231/2/1 232/1/1
f 233/21/1 234/22/1 235/18/1 236/17/1
f 237/22/1 238/5/1 239/8/1 240/18/1
f 241/1/1 242/2/1 243/3/1 244/4/1
f 245/1/1 246/2/1 247/3/1 248/4/1
f 249/1/1 250/2/1 251/3/1 252/4/1
f 253/1/1 254/2/1 255/3/1 256/4/1
f 257/1/1 258/2/1 259/3/1 260/4/1
f 261/6/1 262/9/1 263/10/1 264/7/1
f 265/11/1 266/12/1 267/2/1 268/1/1
f 269/11/1 270/12/1 271/2/1 272/1/1
f 273/11/1 274/12/1 275/2/1 276/1/1
f 277/11/1 278/12/1 279/2/1 280/1/1
f 281/11/1 282/12/1 283/2/1 284/1/1
f 285/11/1 286/12/1 287/2/1 288/1/1
f 289/11/1 290/12/1 291/2/1 292/1/1
f 293/11/1 294/12/1 295/2/1 296/1/1
f 297/11/1 298/12/1 299/2/1 300/1/1
f 301/11/1 302/12/1 303/2/1 304/1/1
f 305/11/1 306/12/1 307/2/1 308/1/1
f 309/11/1 310/12/1 311/2/1 312/1/1
f 313/11/1 314/12/1 315/2/1 316/1/1
f 317/11/1 318/12/1 319/2/1 320/1/1
f 321/11/1 322/12/1 323/2/1 324/1/1
f 325/11/1 326/12/1 327/2/1 328/1/1
f 329/11/1 330/12/1 331/2/1 332/1/1
f 333/11/1 334/12/1 335/2/1 336/1/1
f 337/11/1 338/12/1 339/2/1 340/1/1
f 341/11/1 342/12/1 343/2/1 344/1/1
f 345/11/1 346/12/1 347/2/1 348/1/1
f 349/11/1 350/12/1 351/2/1 352/1/1
f 353/11/1 354/12/1 355/2/1 356/1/1
f 357/11/1 358/12/1 359/2/1 360/1/1
f 361/11/1 362/12/1 363/2/1 364/1/1
f 365/11/1 366/12/1 367/2/1 368/1/1
f 369/11/1 370/12/1 371/2/1 372/1/1
f 373/11/1 374/12/1 375/2/1 376/1/1
f 377/11/1 378/12/1 379/2/1 380/1/1
f 381/11/1 382/12/1 383/2/1 384/1/1
f 385/11/1 386/12/1 387/2/1 388/1/1
f 389/11/1 390/12/1 391/2/1 392/1/1
f 393/11/1 394/12/1 395/2/1 396/1/1
f 397/11/1 398/12/1 399/2/1 400/1/1
f 401/11/1 402/12/1 403/2/1 404/1/1
f 405/11/1 406/12/1 407/2/1 408/1/1
f 409/11/1 410/12/1 411/2/1 412/1/1
f 413/11/1 414/12/1 415/2/1 416/1/1
f 417/11/1 418/12/1 419/2/1 420/1/1
f 421/11/1 422/12/1 423/2/1 424/1/1
f 425/11/1 426/12/1 427/2/1 428/1/1
f 429/11/1 430/12/1 431/2/1 432/1/1
f 433/11/1 434/12/1 435/2/1 436/1/1
f 437/11/1 438/12/1 439/2/1 440/1/1
f 441/11/1 442/12/1 443/2/1 444/1/1
f 445/11/1 446/12/1 447/2/1 448/1/1
f 449/11/1 450/12/1 451/2/1 452/1/1
f 453/11/1 454/12/1 455/2/1 456/1/1
f 457/11/1 458/12/1 459/2/1 460/1/1
f 461/11/1 462/12/1 463/2/1 464/1/1
f 465/11/1 466/12/1 467/2/1 468/1/1
f 469/11/1 470/12/1 471/2/1 472/1/1
f 473/11/1 474/12/1 475/2/1 476/1/1
f 477/11/1 478/12/1 479/2/1 480/1/1
f 481/11/1 482/12/1 483/2/1 484/1/1
f 485/11/1 486/12/1 487/2/1 488/1/1
f 489/11/1 490/12/1 491/2/1 492/1/1
f 493/11/1 494/12/1 495/2/1 496/1/1
f 497/11/1 498/12/1 499/2/1 500/1/1
f 501/11/1 502/12/1 503/2/1 504/1/1
f 505/11/1 506/12/1 507/2/1 508/1/1
f 509/11/1 510/12/1 511/2/1 512/1/1
f 513/11/1 514/12/1 515/2/1 516/1/1
f 517/11/1 518/12/1 519/2/1 520/1/1
f 521/11/1 522/12/1 523/2/1 524/1/1
f 525/11/1 526/12/1 527/2/1 528/1/1
f 529/11/1 530/12/1 531/2/1 532/1/1
f 533/11/1 534/12/1 535/2/1 536/1/1
f 537/11/1 538/12/1 539/2/1 540/1/1
f 541/11/1 542/12/1 543/2/1 544/1/1
f 545/11/1 546/12/1 547/2/1 548/1/1
f 549/11/1 550/12/1 551/2/1 552/1/1
f 553/11/1 554/12/1 555/2/1 556/1/1
f 557/11/1 558/12/1 559/2/1 560/1/1
f 561/11/1 562/12/1 563/2/1 564/1/1
f 565/11/1 566/12/1 567/2/1 568/1/1
f 569/11/1 570/12/1 571/2/1 572/1/1
f 573/11/1 574/12/1 575/2/1 576/1/1
f 577/11/1 578/12/1 579/2/1 580/1/1
f 581/11/1 582/12/1 583/2/1 584/1/1
f 585/11/1 586/12/1 587/2/1 588/1/1
f 589/11/1 590/12/1 591/2/1 592/1/1
f 593/11/1 594/12/1 595/2/1 596/1/1
f 597/11/1 598/12/1 599/2/1 600/1/1
f 601/11/1 602/12/1 603/2/1 604/1/1
f 605/11/1 606/12/1 607/2/1 608/1/1
f 609/11/1 610/12/1 611/2/1 612/1/1
f 613/11/1 614/12/1 615/2/1 616/1/1
f 617/11/1 618/12/1 619/2/1 620/1/1
f 621/11/1 622/12/1 623/2/1 624/1/1
f 625/11/1 626/12/1 627/2/1 628/1/1
f 629/11/1 630/12/1 631/2/1 632/1/1
f 633/11/1 634/12/1 635/2/1 636/1/1
f 637/11/1 638/12/1 639/2/1 640/1/1
f 641/11/1 642/12/1 643/2/1 644/1/1
f 645/11/1 646/12/1 647/2/1 648/1/1
f 649/11/1 650/12/1 651/2/1 652/1/1
f 653/11/1 654/12/1 655/2/1 656/1/1
f 657/11/1 658/12/1 659/2/1 660/1/1
f 661/11/1 662/12/1 663/2/1 664/1/1
f 665/11/1 666/12/1 667/2/1 668/1/1
f 669/11/1 670/12/1 671/2/1 672/1/1
f 673/11/1 674/12/1 675/2/1 676/1/1
f 677/11/1 678/12/1 679/2/1 680/1/1
f 681/11/1 682/12/1 683/2/1 684/1/1
f 685/11/1 686/12/1 687/2/1 688/1/1
f 689/11/1 690/12/1 691/2/1 692/1/1
f 693/11/1 694/12/1 695/2/1 696/1/1
f 697/11/1 698/12/1 699/2/1 700/1/1
f 701/11/1 702/12/1 703/2/1 704/1/1
f 705/11/1 706/12/1 707/2/1 708/1/1
f 709/11/1 710/12/1 711/2/1 712/1/1
f 713/11/1 714/12/1 715/2/1 716/1/1

