# Tiled2Unity generated file. Do not modify by hand.
# Wavefront file for 'myMap_mesh_0242.obj'

# Vertices (Count = 168)
v -160 -192 0
v -192 -192 0
v -192 -160 0
v -160 -160 0
v -192 -192 0
v -224 -192 0
v -224 -160 0
v -192 -160 0
v -224 -192 0
v -256 -192 0
v -256 -160 0
v -224 -160 0
v -256 -192 0
v -288 -192 0
v -288 -160 0
v -256 -160 0
v -288 -192 0
v -320 -192 0
v -320 -160 0
v -288 -160 0
v -320 -192 0
v -352 -192 0
v -352 -160 0
v -320 -160 0
v -160 -224 0
v -192 -224 0
v -192 -192 0
v -160 -192 0
v -192 -224 0
v -224 -224 0
v -224 -192 0
v -192 -192 0
v -224 -224 0
v -256 -224 0
v -256 -192 0
v -224 -192 0
v -256 -224 0
v -288 -224 0
v -288 -192 0
v -256 -192 0
v -288 -224 0
v -320 -224 0
v -320 -192 0
v -288 -192 0
v -320 -224 0
v -352 -224 0
v -352 -192 0
v -320 -192 0
v -160 -256 0
v -192 -256 0
v -192 -224 0
v -160 -224 0
v -192 -256 0
v -224 -256 0
v -224 -224 0
v -192 -224 0
v -224 -256 0
v -256 -256 0
v -256 -224 0
v -224 -224 0
v -256 -256 0
v -288 -256 0
v -288 -224 0
v -256 -224 0
v -288 -256 0
v -320 -256 0
v -320 -224 0
v -288 -224 0
v -320 -256 0
v -352 -256 0
v -352 -224 0
v -320 -224 0
v -160 -288 0
v -192 -288 0
v -192 -256 0
v -160 -256 0
v -192 -288 0
v -224 -288 0
v -224 -256 0
v -192 -256 0
v -224 -288 0
v -256 -288 0
v -256 -256 0
v -224 -256 0
v -256 -288 0
v -288 -288 0
v -288 -256 0
v -256 -256 0
v -288 -288 0
v -320 -288 0
v -320 -256 0
v -288 -256 0
v -320 -288 0
v -352 -288 0
v -352 -256 0
v -320 -256 0
v -160 -320 0
v -192 -320 0
v -192 -288 0
v -160 -288 0
v -192 -320 0
v -224 -320 0
v -224 -288 0
v -192 -288 0
v -224 -320 0
v -256 -320 0
v -256 -288 0
v -224 -288 0
v -256 -320 0
v -288 -320 0
v -288 -288 0
v -256 -288 0
v -288 -320 0
v -320 -320 0
v -320 -288 0
v -288 -288 0
v -320 -320 0
v -352 -320 0
v -352 -288 0
v -320 -288 0
v -160 -352 0
v -192 -352 0
v -192 -320 0
v -160 -320 0
v -192 -352 0
v -224 -352 0
v -224 -320 0
v -192 -320 0
v -224 -352 0
v -256 -352 0
v -256 -320 0
v -224 -320 0
v -256 -352 0
v -288 -352 0
v -288 -320 0
v -256 -320 0
v -288 -352 0
v -320 -352 0
v -320 -320 0
v -288 -320 0
v -320 -352 0
v -352 -352 0
v -352 -320 0
v -320 -320 0
v -160 -384 0
v -192 -384 0
v -192 -352 0
v -160 -352 0
v -192 -384 0
v -224 -384 0
v -224 -352 0
v -192 -352 0
v -224 -384 0
v -256 -384 0
v -256 -352 0
v -224 -352 0
v -256 -384 0
v -288 -384 0
v -288 -352 0
v -256 -352 0
v -288 -384 0
v -320 -384 0
v -320 -352 0
v -288 -352 0
v -320 -384 0
v -352 -384 0
v -352 -352 0
v -320 -352 0

# Texture cooridinates (Count = 13)
vt 0.03125 0.9375
vt 0 0.9375
vt 0 0.875
vt 0.03125 0.875
vt 0.03125 1
vt 0 1
vt 0.125 1
vt 0.09375 1
vt 0.09375 0.9375
vt 0.125 0.9375
vt 0.0625 0.875
vt 0.09375 0.875
vt 0.0625 0.9375

# Normal
vn 0 0 -1

# Mesh description
g myMap_mesh_0242

# Faces
f 1/1/1 2/2/1 3/3/1 4/4/1
f 5/1/1 6/2/1 7/3/1 8/4/1
f 9/1/1 10/2/1 11/3/1 12/4/1
f 13/1/1 14/2/1 15/3/1 16/4/1
f 17/1/1 18/2/1 19/3/1 20/4/1
f 21/1/1 22/2/1 23/3/1 24/4/1
f 25/2/1 26/1/1 27/5/1 28/6/1
f 29/7/1 30/8/1 31/9/1 32/10/1
f 33/2/1 34/1/1 35/5/1 36/6/1
f 37/2/1 38/1/1 39/5/1 40/6/1
f 41/7/1 42/8/1 43/9/1 44/10/1
f 45/2/1 46/1/1 47/5/1 48/6/1
f 49/11/1 50/12/1 51/9/1 52/13/1
f 53/3/1 54/4/1 55/1/1 56/2/1
f 57/3/1 58/4/1 59/1/1 60/2/1
f 61/3/1 62/4/1 63/1/1 64/2/1
f 65/4/1 66/11/1 67/13/1 68/1/1
f 69/3/1 70/4/1 71/1/1 72/2/1
f 73/2/1 74/1/1 75/5/1 76/6/1
f 77/2/1 78/1/1 79/5/1 80/6/1
f 81/2/1 82/1/1 83/5/1 84/6/1
f 85/2/1 86/1/1 87/5/1 88/6/1
f 89/2/1 90/1/1 91/5/1 92/6/1
f 93/2/1 94/1/1 95/5/1 96/6/1
f 97/3/1 98/4/1 99/1/1 100/2/1
f 101/3/1 102/4/1 103/1/1 104/2/1
f 105/4/1 106/11/1 107/13/1 108/1/1
f 109/3/1 110/4/1 111/1/1 112/2/1
f 113/3/1 114/4/1 115/1/1 116/2/1
f 117/11/1 118/12/1 119/9/1 120/13/1
f 121/2/1 122/1/1 123/5/1 124/6/1
f 125/2/1 126/1/1 127/5/1 128/6/1
f 129/2/1 130/1/1 131/5/1 132/6/1
f 133/2/1 134/1/1 135/5/1 136/6/1
f 137/2/1 138/1/1 139/5/1 140/6/1
f 141/2/1 142/1/1 143/5/1 144/6/1
f 145/2/1 146/1/1 147/5/1 148/6/1
f 149/2/1 150/1/1 151/5/1 152/6/1
f 153/2/1 154/1/1 155/5/1 156/6/1
f 157/2/1 158/1/1 159/5/1 160/6/1
f 161/2/1 162/1/1 163/5/1 164/6/1
f 165/2/1 166/1/1 167/5/1 168/6/1

