# Tiled2Unity generated file. Do not modify by hand.
# Wavefront file for 'myMap_mesh_0322.obj'

# Vertices (Count = 32)
v -480 -192 0
v -512 -192 0
v -512 -160 0
v -480 -160 0
v -448 -224 0
v -480 -224 0
v -480 -192 0
v -448 -192 0
v -480 -224 0
v -512 -224 0
v -512 -192 0
v -480 -192 0
v -448 -256 0
v -480 -256 0
v -480 -224 0
v -448 -224 0
v -480 -256 0
v -512 -256 0
v -512 -224 0
v -480 -224 0
v -480 -288 0
v -512 -288 0
v -512 -256 0
v -480 -256 0
v 0 -512 0
v -32 -512 0
v -32 -480 0
v 0 -480 0
v -32 -512 0
v -64 -512 0
v -64 -480 0
v -32 -480 0

# Texture cooridinates (Count = 12)
vt 0.28125 0.6875
vt 0.3125 0.6875
vt 0.3125 0.75
vt 0.28125 0.75
vt 0.28125 0.625
vt 0.3125 0.625
vt 0.65625 0.4375
vt 0.6875 0.4375
vt 0.6875 0.5
vt 0.65625 0.5
vt 0.625 0.4375
vt 0.625 0.5

# Normal
vn 0 0 -1

# Mesh description
g myMap_mesh_0322

# Faces
f 1/1/1 2/2/1 3/3/1 4/4/1
f 5/1/1 6/2/1 7/3/1 8/4/1
f 9/5/1 10/6/1 11/2/1 12/1/1
f 13/4/1 14/1/1 15/2/1 16/3/1
f 17/1/1 18/5/1 19/6/1 20/2/1
f 21/4/1 22/1/1 23/2/1 24/3/1
f 25/7/1 26/8/1 27/9/1 28/10/1
f 29/11/1 30/7/1 31/10/1 32/12/1

