# Tiled2Unity generated file. Do not modify by hand.
# Wavefront file for 'myMap_mesh_0309.obj'

# Vertices (Count = 16)
v 0 -96 0
v -32 -96 0
v -32 -64 0
v 0 -64 0
v -32 -96 0
v -64 -96 0
v -64 -64 0
v -32 -64 0
v -64 -96 0
v -96 -96 0
v -96 -64 0
v -64 -64 0
v -96 -96 0
v -128 -96 0
v -128 -64 0
v -96 -64 0

# Texture cooridinates (Count = 6)
vt 0.5 0.8125
vt 0.53125 0.8125
vt 0.53125 0.875
vt 0.5 0.875
vt 0.5625 0.8125
vt 0.5625 0.875

# Normal
vn 0 0 -1

# Mesh description
g myMap_mesh_0309

# Faces
f 1/1/1 2/2/1 3/3/1 4/4/1
f 5/1/1 6/2/1 7/3/1 8/4/1
f 9/1/1 10/2/1 11/3/1 12/4/1
f 13/2/1 14/5/1 15/6/1 16/3/1

