# Tiled2Unity generated file. Do not modify by hand.
# Wavefront file for 'myMap_mesh_0342.obj'

# Vertices (Count = 28)
v 0 -32 0
v -32 -32 0
v -32 0 0
v 0 0 0
v -32 -32 0
v -64 -32 0
v -64 0 0
v -32 0 0
v 0 -64 0
v -32 -64 0
v -32 -32 0
v 0 -32 0
v -32 -64 0
v -64 -64 0
v -64 -32 0
v -32 -32 0
v 0 -96 0
v -32 -96 0
v -32 -64 0
v 0 -64 0
v -32 -96 0
v -64 -96 0
v -64 -64 0
v -32 -64 0
v 0 -128 0
v -32 -128 0
v -32 -96 0
v 0 -96 0

# Texture cooridinates (Count = 8)
vt 0.5 0.125
vt 0.53125 0.125
vt 0.53125 0.1875
vt 0.5 0.1875
vt 0.5 0.0625
vt 0.53125 0.0625
vt 0.5 0
vt 0.53125 0

# Normal
vn 0 0 -1

# Mesh description
g myMap_mesh_0342

# Faces
f 1/1/1 2/2/1 3/3/1 4/4/1
f 5/1/1 6/2/1 7/3/1 8/4/1
f 9/5/1 10/6/1 11/2/1 12/1/1
f 13/5/1 14/6/1 15/2/1 16/1/1
f 17/5/1 18/6/1 19/2/1 20/1/1
f 21/7/1 22/8/1 23/6/1 24/5/1
f 25/7/1 26/8/1 27/6/1 28/5/1

