# Tiled2Unity generated file. Do not modify by hand.
# Wavefront file for 'myMap_mesh_0211.obj'

# Vertices (Count = 1024)
v 0 -32 0
v -32 -32 0
v -32 0 0
v 0 0 0
v -32 -32 0
v -64 -32 0
v -64 0 0
v -32 0 0
v -64 -32 0
v -96 -32 0
v -96 0 0
v -64 0 0
v -96 -32 0
v -128 -32 0
v -128 0 0
v -96 0 0
v -128 -32 0
v -160 -32 0
v -160 0 0
v -128 0 0
v -160 -32 0
v -192 -32 0
v -192 0 0
v -160 0 0
v -192 -32 0
v -224 -32 0
v -224 0 0
v -192 0 0
v -224 -32 0
v -256 -32 0
v -256 0 0
v -224 0 0
v -256 -32 0
v -288 -32 0
v -288 0 0
v -256 0 0
v -288 -32 0
v -320 -32 0
v -320 0 0
v -288 0 0
v -320 -32 0
v -352 -32 0
v -352 0 0
v -320 0 0
v -352 -32 0
v -384 -32 0
v -384 0 0
v -352 0 0
v -384 -32 0
v -416 -32 0
v -416 0 0
v -384 0 0
v -416 -32 0
v -448 -32 0
v -448 0 0
v -416 0 0
v -448 -32 0
v -480 -32 0
v -480 0 0
v -448 0 0
v -480 -32 0
v -512 -32 0
v -512 0 0
v -480 0 0
v 0 -64 0
v -32 -64 0
v -32 -32 0
v 0 -32 0
v -32 -64 0
v -64 -64 0
v -64 -32 0
v -32 -32 0
v -64 -64 0
v -96 -64 0
v -96 -32 0
v -64 -32 0
v -96 -64 0
v -128 -64 0
v -128 -32 0
v -96 -32 0
v -128 -64 0
v -160 -64 0
v -160 -32 0
v -128 -32 0
v -160 -64 0
v -192 -64 0
v -192 -32 0
v -160 -32 0
v -192 -64 0
v -224 -64 0
v -224 -32 0
v -192 -32 0
v -224 -64 0
v -256 -64 0
v -256 -32 0
v -224 -32 0
v -256 -64 0
v -288 -64 0
v -288 -32 0
v -256 -32 0
v -288 -64 0
v -320 -64 0
v -320 -32 0
v -288 -32 0
v -320 -64 0
v -352 -64 0
v -352 -32 0
v -320 -32 0
v -352 -64 0
v -384 -64 0
v -384 -32 0
v -352 -32 0
v -384 -64 0
v -416 -64 0
v -416 -32 0
v -384 -32 0
v -416 -64 0
v -448 -64 0
v -448 -32 0
v -416 -32 0
v -448 -64 0
v -480 -64 0
v -480 -32 0
v -448 -32 0
v -480 -64 0
v -512 -64 0
v -512 -32 0
v -480 -32 0
v 0 -96 0
v -32 -96 0
v -32 -64 0
v 0 -64 0
v -32 -96 0
v -64 -96 0
v -64 -64 0
v -32 -64 0
v -64 -96 0
v -96 -96 0
v -96 -64 0
v -64 -64 0
v -96 -96 0
v -128 -96 0
v -128 -64 0
v -96 -64 0
v -128 -96 0
v -160 -96 0
v -160 -64 0
v -128 -64 0
v -160 -96 0
v -192 -96 0
v -192 -64 0
v -160 -64 0
v -192 -96 0
v -224 -96 0
v -224 -64 0
v -192 -64 0
v -224 -96 0
v -256 -96 0
v -256 -64 0
v -224 -64 0
v -256 -96 0
v -288 -96 0
v -288 -64 0
v -256 -64 0
v -288 -96 0
v -320 -96 0
v -320 -64 0
v -288 -64 0
v -320 -96 0
v -352 -96 0
v -352 -64 0
v -320 -64 0
v -352 -96 0
v -384 -96 0
v -384 -64 0
v -352 -64 0
v -384 -96 0
v -416 -96 0
v -416 -64 0
v -384 -64 0
v -416 -96 0
v -448 -96 0
v -448 -64 0
v -416 -64 0
v -448 -96 0
v -480 -96 0
v -480 -64 0
v -448 -64 0
v -480 -96 0
v -512 -96 0
v -512 -64 0
v -480 -64 0
v 0 -128 0
v -32 -128 0
v -32 -96 0
v 0 -96 0
v -32 -128 0
v -64 -128 0
v -64 -96 0
v -32 -96 0
v -64 -128 0
v -96 -128 0
v -96 -96 0
v -64 -96 0
v -96 -128 0
v -128 -128 0
v -128 -96 0
v -96 -96 0
v -128 -128 0
v -160 -128 0
v -160 -96 0
v -128 -96 0
v -160 -128 0
v -192 -128 0
v -192 -96 0
v -160 -96 0
v -192 -128 0
v -224 -128 0
v -224 -96 0
v -192 -96 0
v -224 -128 0
v -256 -128 0
v -256 -96 0
v -224 -96 0
v -256 -128 0
v -288 -128 0
v -288 -96 0
v -256 -96 0
v -288 -128 0
v -320 -128 0
v -320 -96 0
v -288 -96 0
v -320 -128 0
v -352 -128 0
v -352 -96 0
v -320 -96 0
v -352 -128 0
v -384 -128 0
v -384 -96 0
v -352 -96 0
v -384 -128 0
v -416 -128 0
v -416 -96 0
v -384 -96 0
v -416 -128 0
v -448 -128 0
v -448 -96 0
v -416 -96 0
v -448 -128 0
v -480 -128 0
v -480 -96 0
v -448 -96 0
v -480 -128 0
v -512 -128 0
v -512 -96 0
v -480 -96 0
v 0 -160 0
v -32 -160 0
v -32 -128 0
v 0 -128 0
v -32 -160 0
v -64 -160 0
v -64 -128 0
v -32 -128 0
v -64 -160 0
v -96 -160 0
v -96 -128 0
v -64 -128 0
v -96 -160 0
v -128 -160 0
v -128 -128 0
v -96 -128 0
v -128 -160 0
v -160 -160 0
v -160 -128 0
v -128 -128 0
v -160 -160 0
v -192 -160 0
v -192 -128 0
v -160 -128 0
v -192 -160 0
v -224 -160 0
v -224 -128 0
v -192 -128 0
v -224 -160 0
v -256 -160 0
v -256 -128 0
v -224 -128 0
v -256 -160 0
v -288 -160 0
v -288 -128 0
v -256 -128 0
v -288 -160 0
v -320 -160 0
v -320 -128 0
v -288 -128 0
v -320 -160 0
v -352 -160 0
v -352 -128 0
v -320 -128 0
v -352 -160 0
v -384 -160 0
v -384 -128 0
v -352 -128 0
v -384 -160 0
v -416 -160 0
v -416 -128 0
v -384 -128 0
v -416 -160 0
v -448 -160 0
v -448 -128 0
v -416 -128 0
v -448 -160 0
v -480 -160 0
v -480 -128 0
v -448 -128 0
v -480 -160 0
v -512 -160 0
v -512 -128 0
v -480 -128 0
v 0 -192 0
v -32 -192 0
v -32 -160 0
v 0 -160 0
v -32 -192 0
v -64 -192 0
v -64 -160 0
v -32 -160 0
v -64 -192 0
v -96 -192 0
v -96 -160 0
v -64 -160 0
v -96 -192 0
v -128 -192 0
v -128 -160 0
v -96 -160 0
v -128 -192 0
v -160 -192 0
v -160 -160 0
v -128 -160 0
v -160 -192 0
v -192 -192 0
v -192 -160 0
v -160 -160 0
v -192 -192 0
v -224 -192 0
v -224 -160 0
v -192 -160 0
v -224 -192 0
v -256 -192 0
v -256 -160 0
v -224 -160 0
v -256 -192 0
v -288 -192 0
v -288 -160 0
v -256 -160 0
v -288 -192 0
v -320 -192 0
v -320 -160 0
v -288 -160 0
v -320 -192 0
v -352 -192 0
v -352 -160 0
v -320 -160 0
v -352 -192 0
v -384 -192 0
v -384 -160 0
v -352 -160 0
v -384 -192 0
v -416 -192 0
v -416 -160 0
v -384 -160 0
v -416 -192 0
v -448 -192 0
v -448 -160 0
v -416 -160 0
v -448 -192 0
v -480 -192 0
v -480 -160 0
v -448 -160 0
v -480 -192 0
v -512 -192 0
v -512 -160 0
v -480 -160 0
v 0 -224 0
v -32 -224 0
v -32 -192 0
v 0 -192 0
v -32 -224 0
v -64 -224 0
v -64 -192 0
v -32 -192 0
v -64 -224 0
v -96 -224 0
v -96 -192 0
v -64 -192 0
v -96 -224 0
v -128 -224 0
v -128 -192 0
v -96 -192 0
v -128 -224 0
v -160 -224 0
v -160 -192 0
v -128 -192 0
v -160 -224 0
v -192 -224 0
v -192 -192 0
v -160 -192 0
v -192 -224 0
v -224 -224 0
v -224 -192 0
v -192 -192 0
v -224 -224 0
v -256 -224 0
v -256 -192 0
v -224 -192 0
v -256 -224 0
v -288 -224 0
v -288 -192 0
v -256 -192 0
v -288 -224 0
v -320 -224 0
v -320 -192 0
v -288 -192 0
v -320 -224 0
v -352 -224 0
v -352 -192 0
v -320 -192 0
v -352 -224 0
v -384 -224 0
v -384 -192 0
v -352 -192 0
v -384 -224 0
v -416 -224 0
v -416 -192 0
v -384 -192 0
v -416 -224 0
v -448 -224 0
v -448 -192 0
v -416 -192 0
v -448 -224 0
v -480 -224 0
v -480 -192 0
v -448 -192 0
v -480 -224 0
v -512 -224 0
v -512 -192 0
v -480 -192 0
v 0 -256 0
v -32 -256 0
v -32 -224 0
v 0 -224 0
v -32 -256 0
v -64 -256 0
v -64 -224 0
v -32 -224 0
v -64 -256 0
v -96 -256 0
v -96 -224 0
v -64 -224 0
v -96 -256 0
v -128 -256 0
v -128 -224 0
v -96 -224 0
v -128 -256 0
v -160 -256 0
v -160 -224 0
v -128 -224 0
v -160 -256 0
v -192 -256 0
v -192 -224 0
v -160 -224 0
v -192 -256 0
v -224 -256 0
v -224 -224 0
v -192 -224 0
v -224 -256 0
v -256 -256 0
v -256 -224 0
v -224 -224 0
v -256 -256 0
v -288 -256 0
v -288 -224 0
v -256 -224 0
v -288 -256 0
v -320 -256 0
v -320 -224 0
v -288 -224 0
v -320 -256 0
v -352 -256 0
v -352 -224 0
v -320 -224 0
v -352 -256 0
v -384 -256 0
v -384 -224 0
v -352 -224 0
v -384 -256 0
v -416 -256 0
v -416 -224 0
v -384 -224 0
v -416 -256 0
v -448 -256 0
v -448 -224 0
v -416 -224 0
v -448 -256 0
v -480 -256 0
v -480 -224 0
v -448 -224 0
v -480 -256 0
v -512 -256 0
v -512 -224 0
v -480 -224 0
v 0 -288 0
v -32 -288 0
v -32 -256 0
v 0 -256 0
v -32 -288 0
v -64 -288 0
v -64 -256 0
v -32 -256 0
v -64 -288 0
v -96 -288 0
v -96 -256 0
v -64 -256 0
v -96 -288 0
v -128 -288 0
v -128 -256 0
v -96 -256 0
v -128 -288 0
v -160 -288 0
v -160 -256 0
v -128 -256 0
v -160 -288 0
v -192 -288 0
v -192 -256 0
v -160 -256 0
v -192 -288 0
v -224 -288 0
v -224 -256 0
v -192 -256 0
v -224 -288 0
v -256 -288 0
v -256 -256 0
v -224 -256 0
v -256 -288 0
v -288 -288 0
v -288 -256 0
v -256 -256 0
v -288 -288 0
v -320 -288 0
v -320 -256 0
v -288 -256 0
v -320 -288 0
v -352 -288 0
v -352 -256 0
v -320 -256 0
v -352 -288 0
v -384 -288 0
v -384 -256 0
v -352 -256 0
v -384 -288 0
v -416 -288 0
v -416 -256 0
v -384 -256 0
v -416 -288 0
v -448 -288 0
v -448 -256 0
v -416 -256 0
v -448 -288 0
v -480 -288 0
v -480 -256 0
v -448 -256 0
v -480 -288 0
v -512 -288 0
v -512 -256 0
v -480 -256 0
v 0 -320 0
v -32 -320 0
v -32 -288 0
v 0 -288 0
v -32 -320 0
v -64 -320 0
v -64 -288 0
v -32 -288 0
v -64 -320 0
v -96 -320 0
v -96 -288 0
v -64 -288 0
v -96 -320 0
v -128 -320 0
v -128 -288 0
v -96 -288 0
v -128 -320 0
v -160 -320 0
v -160 -288 0
v -128 -288 0
v -160 -320 0
v -192 -320 0
v -192 -288 0
v -160 -288 0
v -192 -320 0
v -224 -320 0
v -224 -288 0
v -192 -288 0
v -224 -320 0
v -256 -320 0
v -256 -288 0
v -224 -288 0
v -256 -320 0
v -288 -320 0
v -288 -288 0
v -256 -288 0
v -288 -320 0
v -320 -320 0
v -320 -288 0
v -288 -288 0
v -320 -320 0
v -352 -320 0
v -352 -288 0
v -320 -288 0
v -352 -320 0
v -384 -320 0
v -384 -288 0
v -352 -288 0
v -384 -320 0
v -416 -320 0
v -416 -288 0
v -384 -288 0
v -416 -320 0
v -448 -320 0
v -448 -288 0
v -416 -288 0
v -448 -320 0
v -480 -320 0
v -480 -288 0
v -448 -288 0
v -480 -320 0
v -512 -320 0
v -512 -288 0
v -480 -288 0
v 0 -352 0
v -32 -352 0
v -32 -320 0
v 0 -320 0
v -32 -352 0
v -64 -352 0
v -64 -320 0
v -32 -320 0
v -64 -352 0
v -96 -352 0
v -96 -320 0
v -64 -320 0
v -96 -352 0
v -128 -352 0
v -128 -320 0
v -96 -320 0
v -128 -352 0
v -160 -352 0
v -160 -320 0
v -128 -320 0
v -160 -352 0
v -192 -352 0
v -192 -320 0
v -160 -320 0
v -192 -352 0
v -224 -352 0
v -224 -320 0
v -192 -320 0
v -224 -352 0
v -256 -352 0
v -256 -320 0
v -224 -320 0
v -256 -352 0
v -288 -352 0
v -288 -320 0
v -256 -320 0
v -288 -352 0
v -320 -352 0
v -320 -320 0
v -288 -320 0
v -320 -352 0
v -352 -352 0
v -352 -320 0
v -320 -320 0
v -352 -352 0
v -384 -352 0
v -384 -320 0
v -352 -320 0
v -384 -352 0
v -416 -352 0
v -416 -320 0
v -384 -320 0
v -416 -352 0
v -448 -352 0
v -448 -320 0
v -416 -320 0
v -448 -352 0
v -480 -352 0
v -480 -320 0
v -448 -320 0
v -480 -352 0
v -512 -352 0
v -512 -320 0
v -480 -320 0
v 0 -384 0
v -32 -384 0
v -32 -352 0
v 0 -352 0
v -32 -384 0
v -64 -384 0
v -64 -352 0
v -32 -352 0
v -64 -384 0
v -96 -384 0
v -96 -352 0
v -64 -352 0
v -96 -384 0
v -128 -384 0
v -128 -352 0
v -96 -352 0
v -128 -384 0
v -160 -384 0
v -160 -352 0
v -128 -352 0
v -160 -384 0
v -192 -384 0
v -192 -352 0
v -160 -352 0
v -192 -384 0
v -224 -384 0
v -224 -352 0
v -192 -352 0
v -224 -384 0
v -256 -384 0
v -256 -352 0
v -224 -352 0
v -256 -384 0
v -288 -384 0
v -288 -352 0
v -256 -352 0
v -288 -384 0
v -320 -384 0
v -320 -352 0
v -288 -352 0
v -320 -384 0
v -352 -384 0
v -352 -352 0
v -320 -352 0
v -352 -384 0
v -384 -384 0
v -384 -352 0
v -352 -352 0
v -384 -384 0
v -416 -384 0
v -416 -352 0
v -384 -352 0
v -416 -384 0
v -448 -384 0
v -448 -352 0
v -416 -352 0
v -448 -384 0
v -480 -384 0
v -480 -352 0
v -448 -352 0
v -480 -384 0
v -512 -384 0
v -512 -352 0
v -480 -352 0
v 0 -416 0
v -32 -416 0
v -32 -384 0
v 0 -384 0
v -32 -416 0
v -64 -416 0
v -64 -384 0
v -32 -384 0
v -64 -416 0
v -96 -416 0
v -96 -384 0
v -64 -384 0
v -96 -416 0
v -128 -416 0
v -128 -384 0
v -96 -384 0
v -128 -416 0
v -160 -416 0
v -160 -384 0
v -128 -384 0
v -160 -416 0
v -192 -416 0
v -192 -384 0
v -160 -384 0
v -192 -416 0
v -224 -416 0
v -224 -384 0
v -192 -384 0
v -224 -416 0
v -256 -416 0
v -256 -384 0
v -224 -384 0
v -256 -416 0
v -288 -416 0
v -288 -384 0
v -256 -384 0
v -288 -416 0
v -320 -416 0
v -320 -384 0
v -288 -384 0
v -320 -416 0
v -352 -416 0
v -352 -384 0
v -320 -384 0
v -352 -416 0
v -384 -416 0
v -384 -384 0
v -352 -384 0
v -384 -416 0
v -416 -416 0
v -416 -384 0
v -384 -384 0
v -416 -416 0
v -448 -416 0
v -448 -384 0
v -416 -384 0
v -448 -416 0
v -480 -416 0
v -480 -384 0
v -448 -384 0
v -480 -416 0
v -512 -416 0
v -512 -384 0
v -480 -384 0
v 0 -448 0
v -32 -448 0
v -32 -416 0
v 0 -416 0
v -32 -448 0
v -64 -448 0
v -64 -416 0
v -32 -416 0
v -64 -448 0
v -96 -448 0
v -96 -416 0
v -64 -416 0
v -96 -448 0
v -128 -448 0
v -128 -416 0
v -96 -416 0
v -128 -448 0
v -160 -448 0
v -160 -416 0
v -128 -416 0
v -160 -448 0
v -192 -448 0
v -192 -416 0
v -160 -416 0
v -192 -448 0
v -224 -448 0
v -224 -416 0
v -192 -416 0
v -224 -448 0
v -256 -448 0
v -256 -416 0
v -224 -416 0
v -256 -448 0
v -288 -448 0
v -288 -416 0
v -256 -416 0
v -288 -448 0
v -320 -448 0
v -320 -416 0
v -288 -416 0
v -320 -448 0
v -352 -448 0
v -352 -416 0
v -320 -416 0
v -352 -448 0
v -384 -448 0
v -384 -416 0
v -352 -416 0
v -384 -448 0
v -416 -448 0
v -416 -416 0
v -384 -416 0
v -416 -448 0
v -448 -448 0
v -448 -416 0
v -416 -416 0
v -448 -448 0
v -480 -448 0
v -480 -416 0
v -448 -416 0
v -480 -448 0
v -512 -448 0
v -512 -416 0
v -480 -416 0
v 0 -480 0
v -32 -480 0
v -32 -448 0
v 0 -448 0
v -32 -480 0
v -64 -480 0
v -64 -448 0
v -32 -448 0
v -64 -480 0
v -96 -480 0
v -96 -448 0
v -64 -448 0
v -96 -480 0
v -128 -480 0
v -128 -448 0
v -96 -448 0
v -128 -480 0
v -160 -480 0
v -160 -448 0
v -128 -448 0
v -160 -480 0
v -192 -480 0
v -192 -448 0
v -160 -448 0
v -192 -480 0
v -224 -480 0
v -224 -448 0
v -192 -448 0
v -224 -480 0
v -256 -480 0
v -256 -448 0
v -224 -448 0
v -256 -480 0
v -288 -480 0
v -288 -448 0
v -256 -448 0
v -288 -480 0
v -320 -480 0
v -320 -448 0
v -288 -448 0
v -320 -480 0
v -352 -480 0
v -352 -448 0
v -320 -448 0
v -352 -480 0
v -384 -480 0
v -384 -448 0
v -352 -448 0
v -384 -480 0
v -416 -480 0
v -416 -448 0
v -384 -448 0
v -416 -480 0
v -448 -480 0
v -448 -448 0
v -416 -448 0
v -448 -480 0
v -480 -480 0
v -480 -448 0
v -448 -448 0
v -480 -480 0
v -512 -480 0
v -512 -448 0
v -480 -448 0
v 0 -512 0
v -32 -512 0
v -32 -480 0
v 0 -480 0
v -32 -512 0
v -64 -512 0
v -64 -480 0
v -32 -480 0
v -64 -512 0
v -96 -512 0
v -96 -480 0
v -64 -480 0
v -96 -512 0
v -128 -512 0
v -128 -480 0
v -96 -480 0
v -128 -512 0
v -160 -512 0
v -160 -480 0
v -128 -480 0
v -160 -512 0
v -192 -512 0
v -192 -480 0
v -160 -480 0
v -192 -512 0
v -224 -512 0
v -224 -480 0
v -192 -480 0
v -224 -512 0
v -256 -512 0
v -256 -480 0
v -224 -480 0
v -256 -512 0
v -288 -512 0
v -288 -480 0
v -256 -480 0
v -288 -512 0
v -320 -512 0
v -320 -480 0
v -288 -480 0
v -320 -512 0
v -352 -512 0
v -352 -480 0
v -320 -480 0
v -352 -512 0
v -384 -512 0
v -384 -480 0
v -352 -480 0
v -384 -512 0
v -416 -512 0
v -416 -480 0
v -384 -480 0
v -416 -512 0
v -448 -512 0
v -448 -480 0
v -416 -480 0
v -448 -512 0
v -480 -512 0
v -480 -480 0
v -448 -480 0
v -480 -512 0
v -512 -512 0
v -512 -480 0
v -480 -480 0

# Texture cooridinates (Count = 28)
vt 0.4375 0.4375
vt 0.46875 0.4375
vt 0.46875 0.5
vt 0.4375 0.5
vt 0.5 0.4375
vt 0.5 0.5
vt 0.875 0.375
vt 0.90625 0.375
vt 0.90625 0.4375
vt 0.875 0.4375
vt 0.71875 0.1875
vt 0.75 0.1875
vt 0.75 0.25
vt 0.71875 0.25
vt 0.78125 0.1875
vt 0.78125 0.25
vt 0.6875 0.125
vt 0.71875 0.125
vt 0.6875 0.1875
vt 0.75 0.3125
vt 0.71875 0.3125
vt 0.6875 0.25
vt 0.6875 0.3125
vt 0.75 0.125
vt 0.78125 0.125
vt 0.4375 0.375
vt 0.46875 0.375
vt 0.5 0.375

# Normal
vn 0 0 -1

# Mesh description
g myMap_mesh_0211

# Faces
f 1/1/1 2/2/1 3/3/1 4/4/1
f 5/1/1 6/2/1 7/3/1 8/4/1
f 9/1/1 10/2/1 11/3/1 12/4/1
f 13/2/1 14/5/1 15/6/1 16/3/1
f 17/7/1 18/8/1 19/9/1 20/10/1
f 21/7/1 22/8/1 23/9/1 24/10/1
f 25/7/1 26/8/1 27/9/1 28/10/1
f 29/11/1 30/12/1 31/13/1 32/14/1
f 33/11/1 34/12/1 35/13/1 36/14/1
f 37/11/1 38/12/1 39/13/1 40/14/1
f 41/11/1 42/12/1 43/13/1 44/14/1
f 45/11/1 46/12/1 47/13/1 48/14/1
f 49/11/1 50/12/1 51/13/1 52/14/1
f 53/11/1 54/12/1 55/13/1 56/14/1
f 57/12/1 58/15/1 59/16/1 60/13/1
f 61/11/1 62/12/1 63/13/1 64/14/1
f 65/1/1 66/2/1 67/3/1 68/4/1
f 69/1/1 70/2/1 71/3/1 72/4/1
f 73/1/1 74/2/1 75/3/1 76/4/1
f 77/2/1 78/5/1 79/6/1 80/3/1
f 81/7/1 82/8/1 83/9/1 84/10/1
f 85/7/1 86/8/1 87/9/1 88/10/1
f 89/7/1 90/8/1 91/9/1 92/10/1
f 93/11/1 94/12/1 95/13/1 96/14/1
f 97/11/1 98/12/1 99/13/1 100/14/1
f 101/11/1 102/12/1 103/13/1 104/14/1
f 105/11/1 106/12/1 107/13/1 108/14/1
f 109/11/1 110/12/1 111/13/1 112/14/1
f 113/11/1 114/12/1 115/13/1 116/14/1
f 117/11/1 118/12/1 119/13/1 120/14/1
f 121/12/1 122/15/1 123/16/1 124/13/1
f 125/11/1 126/12/1 127/13/1 128/14/1
f 129/1/1 130/2/1 131/3/1 132/4/1
f 133/1/1 134/2/1 135/3/1 136/4/1
f 137/1/1 138/2/1 139/3/1 140/4/1
f 141/2/1 142/5/1 143/6/1 144/3/1
f 145/7/1 146/8/1 147/9/1 148/10/1
f 149/7/1 150/8/1 151/9/1 152/10/1
f 153/7/1 154/8/1 155/9/1 156/10/1
f 157/11/1 158/12/1 159/13/1 160/14/1
f 161/11/1 162/12/1 163/13/1 164/14/1
f 165/11/1 166/12/1 167/13/1 168/14/1
f 169/11/1 170/12/1 171/13/1 172/14/1
f 173/11/1 174/12/1 175/13/1 176/14/1
f 177/11/1 178/12/1 179/13/1 180/14/1
f 181/11/1 182/12/1 183/13/1 184/14/1
f 185/12/1 186/15/1 187/16/1 188/13/1
f 189/11/1 190/12/1 191/13/1 192/14/1
f 193/1/1 194/2/1 195/3/1 196/4/1
f 197/1/1 198/2/1 199/3/1 200/4/1
f 201/1/1 202/2/1 203/3/1 204/4/1
f 205/2/1 206/5/1 207/6/1 208/3/1
f 209/7/1 210/8/1 211/9/1 212/10/1
f 213/7/1 214/8/1 215/9/1 216/10/1
f 217/7/1 218/8/1 219/9/1 220/10/1
f 221/11/1 222/12/1 223/13/1 224/14/1
f 225/11/1 226/12/1 227/13/1 228/14/1
f 229/11/1 230/12/1 231/13/1 232/14/1
f 233/11/1 234/12/1 235/13/1 236/14/1
f 237/11/1 238/12/1 239/13/1 240/14/1
f 241/11/1 242/12/1 243/13/1 244/14/1
f 245/11/1 246/12/1 247/13/1 248/14/1
f 249/12/1 250/15/1 251/16/1 252/13/1
f 253/11/1 254/12/1 255/13/1 256/14/1
f 257/1/1 258/2/1 259/3/1 260/4/1
f 261/1/1 262/2/1 263/3/1 264/4/1
f 265/1/1 266/2/1 267/3/1 268/4/1
f 269/2/1 270/5/1 271/6/1 272/3/1
f 273/7/1 274/8/1 275/9/1 276/10/1
f 277/7/1 278/8/1 279/9/1 280/10/1
f 281/7/1 282/8/1 283/9/1 284/10/1
f 285/11/1 286/12/1 287/13/1 288/14/1
f 289/11/1 290/12/1 291/13/1 292/14/1
f 293/11/1 294/12/1 295/13/1 296/14/1
f 297/11/1 298/12/1 299/13/1 300/14/1
f 301/11/1 302/12/1 303/13/1 304/14/1
f 305/11/1 306/12/1 307/13/1 308/14/1
f 309/11/1 310/12/1 311/13/1 312/14/1
f 313/12/1 314/15/1 315/16/1 316/13/1
f 317/11/1 318/12/1 319/13/1 320/14/1
f 321/1/1 322/2/1 323/3/1 324/4/1
f 325/1/1 326/2/1 327/3/1 328/4/1
f 329/1/1 330/2/1 331/3/1 332/4/1
f 333/2/1 334/5/1 335/6/1 336/3/1
f 337/7/1 338/8/1 339/9/1 340/10/1
f 341/7/1 342/8/1 343/9/1 344/10/1
f 345/7/1 346/8/1 347/9/1 348/10/1
f 349/11/1 350/12/1 351/13/1 352/14/1
f 353/11/1 354/12/1 355/13/1 356/14/1
f 357/11/1 358/12/1 359/13/1 360/14/1
f 361/11/1 362/12/1 363/13/1 364/14/1
f 365/11/1 366/12/1 367/13/1 368/14/1
f 369/11/1 370/12/1 371/13/1 372/14/1
f 373/11/1 374/12/1 375/13/1 376/14/1
f 377/17/1 378/18/1 379/11/1 380/19/1
f 381/14/1 382/13/1 383/20/1 384/21/1
f 385/1/1 386/2/1 387/3/1 388/4/1
f 389/1/1 390/2/1 391/3/1 392/4/1
f 393/1/1 394/2/1 395/3/1 396/4/1
f 397/2/1 398/5/1 399/6/1 400/3/1
f 401/7/1 402/8/1 403/9/1 404/10/1
f 405/7/1 406/8/1 407/9/1 408/10/1
f 409/7/1 410/8/1 411/9/1 412/10/1
f 413/11/1 414/12/1 415/13/1 416/14/1
f 417/11/1 418/12/1 419/13/1 420/14/1
f 421/11/1 422/12/1 423/13/1 424/14/1
f 425/11/1 426/12/1 427/13/1 428/14/1
f 429/11/1 430/12/1 431/13/1 432/14/1
f 433/11/1 434/12/1 435/13/1 436/14/1
f 437/11/1 438/12/1 439/13/1 440/14/1
f 441/11/1 442/12/1 443/13/1 444/14/1
f 445/11/1 446/12/1 447/13/1 448/14/1
f 449/1/1 450/2/1 451/3/1 452/4/1
f 453/1/1 454/2/1 455/3/1 456/4/1
f 457/1/1 458/2/1 459/3/1 460/4/1
f 461/2/1 462/5/1 463/6/1 464/3/1
f 465/7/1 466/8/1 467/9/1 468/10/1
f 469/7/1 470/8/1 471/9/1 472/10/1
f 473/7/1 474/8/1 475/9/1 476/10/1
f 477/11/1 478/12/1 479/13/1 480/14/1
f 481/11/1 482/12/1 483/13/1 484/14/1
f 485/11/1 486/12/1 487/13/1 488/14/1
f 489/11/1 490/12/1 491/13/1 492/14/1
f 493/11/1 494/12/1 495/13/1 496/14/1
f 497/11/1 498/12/1 499/13/1 500/14/1
f 501/11/1 502/12/1 503/13/1 504/14/1
f 505/11/1 506/12/1 507/13/1 508/14/1
f 509/11/1 510/12/1 511/13/1 512/14/1
f 513/1/1 514/2/1 515/3/1 516/4/1
f 517/1/1 518/2/1 519/3/1 520/4/1
f 521/1/1 522/2/1 523/3/1 524/4/1
f 525/2/1 526/5/1 527/6/1 528/3/1
f 529/7/1 530/8/1 531/9/1 532/10/1
f 533/7/1 534/8/1 535/9/1 536/10/1
f 537/7/1 538/8/1 539/9/1 540/10/1
f 541/11/1 542/12/1 543/13/1 544/14/1
f 545/11/1 546/12/1 547/13/1 548/14/1
f 549/11/1 550/12/1 551/13/1 552/14/1
f 553/22/1 554/14/1 555/21/1 556/23/1
f 557/14/1 558/13/1 559/20/1 560/21/1
f 561/14/1 562/13/1 563/20/1 564/21/1
f 565/14/1 566/13/1 567/20/1 568/21/1
f 569/14/1 570/13/1 571/20/1 572/21/1
f 573/14/1 574/13/1 575/20/1 576/21/1
f 577/1/1 578/2/1 579/3/1 580/4/1
f 581/1/1 582/2/1 583/3/1 584/4/1
f 585/1/1 586/2/1 587/3/1 588/4/1
f 589/2/1 590/5/1 591/6/1 592/3/1
f 593/7/1 594/8/1 595/9/1 596/10/1
f 597/7/1 598/8/1 599/9/1 600/10/1
f 601/7/1 602/8/1 603/9/1 604/10/1
f 605/11/1 606/12/1 607/13/1 608/14/1
f 609/11/1 610/12/1 611/13/1 612/14/1
f 613/11/1 614/12/1 615/13/1 616/14/1
f 617/12/1 618/15/1 619/16/1 620/13/1
f 621/11/1 622/12/1 623/13/1 624/14/1
f 625/11/1 626/12/1 627/13/1 628/14/1
f 629/11/1 630/12/1 631/13/1 632/14/1
f 633/11/1 634/12/1 635/13/1 636/14/1
f 637/11/1 638/12/1 639/13/1 640/14/1
f 641/1/1 642/2/1 643/3/1 644/4/1
f 645/1/1 646/2/1 647/3/1 648/4/1
f 649/1/1 650/2/1 651/3/1 652/4/1
f 653/2/1 654/5/1 655/6/1 656/3/1
f 657/7/1 658/8/1 659/9/1 660/10/1
f 661/7/1 662/8/1 663/9/1 664/10/1
f 665/7/1 666/8/1 667/9/1 668/10/1
f 669/11/1 670/12/1 671/13/1 672/14/1
f 673/11/1 674/12/1 675/13/1 676/14/1
f 677/11/1 678/12/1 679/13/1 680/14/1
f 681/12/1 682/15/1 683/16/1 684/13/1
f 685/11/1 686/12/1 687/13/1 688/14/1
f 689/11/1 690/12/1 691/13/1 692/14/1
f 693/11/1 694/12/1 695/13/1 696/14/1
f 697/11/1 698/12/1 699/13/1 700/14/1
f 701/11/1 702/12/1 703/13/1 704/14/1
f 705/1/1 706/2/1 707/3/1 708/4/1
f 709/1/1 710/2/1 711/3/1 712/4/1
f 713/1/1 714/2/1 715/3/1 716/4/1
f 717/2/1 718/5/1 719/6/1 720/3/1
f 721/7/1 722/8/1 723/9/1 724/10/1
f 725/7/1 726/8/1 727/9/1 728/10/1
f 729/7/1 730/8/1 731/9/1 732/10/1
f 733/11/1 734/12/1 735/13/1 736/14/1
f 737/11/1 738/12/1 739/13/1 740/14/1
f 741/11/1 742/12/1 743/13/1 744/14/1
f 745/17/1 746/18/1 747/11/1 748/19/1
f 749/14/1 750/13/1 751/20/1 752/21/1
f 753/14/1 754/13/1 755/20/1 756/21/1
f 757/14/1 758/13/1 759/20/1 760/21/1
f 761/14/1 762/13/1 763/20/1 764/21/1
f 765/14/1 766/13/1 767/20/1 768/21/1
f 769/1/1 770/2/1 771/3/1 772/4/1
f 773/1/1 774/2/1 775/3/1 776/4/1
f 777/1/1 778/2/1 779/3/1 780/4/1
f 781/2/1 782/5/1 783/6/1 784/3/1
f 785/7/1 786/8/1 787/9/1 788/10/1
f 789/7/1 790/8/1 791/9/1 792/10/1
f 793/7/1 794/8/1 795/9/1 796/10/1
f 797/11/1 798/12/1 799/13/1 800/14/1
f 801/11/1 802/12/1 803/13/1 804/14/1
f 805/11/1 806/12/1 807/13/1 808/14/1
f 809/22/1 810/14/1 811/21/1 812/23/1
f 813/14/1 814/13/1 815/20/1 816/21/1
f 817/14/1 818/13/1 819/20/1 820/21/1
f 821/14/1 822/13/1 823/20/1 824/21/1
f 825/14/1 826/13/1 827/20/1 828/21/1
f 829/14/1 830/13/1 831/20/1 832/21/1
f 833/1/1 834/2/1 835/3/1 836/4/1
f 837/1/1 838/2/1 839/3/1 840/4/1
f 841/1/1 842/2/1 843/3/1 844/4/1
f 845/2/1 846/5/1 847/6/1 848/3/1
f 849/11/1 850/12/1 851/13/1 852/14/1
f 853/17/1 854/18/1 855/11/1 856/19/1
f 857/18/1 858/24/1 859/12/1 860/11/1
f 861/18/1 862/24/1 863/12/1 864/11/1
f 865/18/1 866/24/1 867/12/1 868/11/1
f 869/18/1 870/24/1 871/12/1 872/11/1
f 873/24/1 874/25/1 875/15/1 876/12/1
f 877/11/1 878/12/1 879/13/1 880/14/1
f 881/11/1 882/12/1 883/13/1 884/14/1
f 885/11/1 886/12/1 887/13/1 888/14/1
f 889/11/1 890/12/1 891/13/1 892/14/1
f 893/11/1 894/12/1 895/13/1 896/14/1
f 897/1/1 898/2/1 899/3/1 900/4/1
f 901/1/1 902/2/1 903/3/1 904/4/1
f 905/1/1 906/2/1 907/3/1 908/4/1
f 909/2/1 910/5/1 911/6/1 912/3/1
f 913/11/1 914/12/1 915/13/1 916/14/1
f 917/11/1 918/12/1 919/13/1 920/14/1
f 921/11/1 922/12/1 923/13/1 924/14/1
f 925/11/1 926/12/1 927/13/1 928/14/1
f 929/11/1 930/12/1 931/13/1 932/14/1
f 933/11/1 934/12/1 935/13/1 936/14/1
f 937/11/1 938/12/1 939/13/1 940/14/1
f 941/11/1 942/12/1 943/13/1 944/14/1
f 945/11/1 946/12/1 947/13/1 948/14/1
f 949/11/1 950/12/1 951/13/1 952/14/1
f 953/11/1 954/12/1 955/13/1 956/14/1
f 957/11/1 958/12/1 959/13/1 960/14/1
f 961/26/1 962/27/1 963/2/1 964/1/1
f 965/26/1 966/27/1 967/2/1 968/1/1
f 969/26/1 970/27/1 971/2/1 972/1/1
f 973/27/1 974/28/1 975/5/1 976/2/1
f 977/11/1 978/12/1 979/13/1 980/14/1
f 981/11/1 982/12/1 983/13/1 984/14/1
f 985/11/1 986/12/1 987/13/1 988/14/1
f 989/11/1 990/12/1 991/13/1 992/14/1
f 993/11/1 994/12/1 995/13/1 996/14/1
f 997/11/1 998/12/1 999/13/1 1000/14/1
f 1001/11/1 1002/12/1 1003/13/1 1004/14/1
f 1005/11/1 1006/12/1 1007/13/1 1008/14/1
f 1009/11/1 1010/12/1 1011/13/1 1012/14/1
f 1013/11/1 1014/12/1 1015/13/1 1016/14/1
f 1017/11/1 1018/12/1 1019/13/1 1020/14/1
f 1021/11/1 1022/12/1 1023/13/1 1024/14/1

