# Tiled2Unity generated file. Do not modify by hand.
# Wavefront file for 'myMap_mesh_0279.obj'

# Vertices (Count = 500)
v 0 -32 0
v -32 -32 0
v -32 0 0
v 0 0 0
v -32 -32 0
v -64 -32 0
v -64 0 0
v -32 0 0
v -64 -32 0
v -96 -32 0
v -96 0 0
v -64 0 0
v -96 -32 0
v -128 -32 0
v -128 0 0
v -96 0 0
v -128 -32 0
v -160 -32 0
v -160 0 0
v -128 0 0
v -352 -32 0
v -384 -32 0
v -384 0 0
v -352 0 0
v -384 -32 0
v -416 -32 0
v -416 0 0
v -384 0 0
v -416 -32 0
v -448 -32 0
v -448 0 0
v -416 0 0
v -448 -32 0
v -480 -32 0
v -480 0 0
v -448 0 0
v -480 -32 0
v -512 -32 0
v -512 0 0
v -480 0 0
v 0 -64 0
v -32 -64 0
v -32 -32 0
v 0 -32 0
v -32 -64 0
v -64 -64 0
v -64 -32 0
v -32 -32 0
v -64 -64 0
v -96 -64 0
v -96 -32 0
v -64 -32 0
v -96 -64 0
v -128 -64 0
v -128 -32 0
v -96 -32 0
v -128 -64 0
v -160 -64 0
v -160 -32 0
v -128 -32 0
v -352 -64 0
v -384 -64 0
v -384 -32 0
v -352 -32 0
v -384 -64 0
v -416 -64 0
v -416 -32 0
v -384 -32 0
v -416 -64 0
v -448 -64 0
v -448 -32 0
v -416 -32 0
v -448 -64 0
v -480 -64 0
v -480 -32 0
v -448 -32 0
v -480 -64 0
v -512 -64 0
v -512 -32 0
v -480 -32 0
v 0 -96 0
v -32 -96 0
v -32 -64 0
v 0 -64 0
v -32 -96 0
v -64 -96 0
v -64 -64 0
v -32 -64 0
v -64 -96 0
v -96 -96 0
v -96 -64 0
v -64 -64 0
v -96 -96 0
v -128 -96 0
v -128 -64 0
v -96 -64 0
v -128 -96 0
v -160 -96 0
v -160 -64 0
v -128 -64 0
v -352 -96 0
v -384 -96 0
v -384 -64 0
v -352 -64 0
v -384 -96 0
v -416 -96 0
v -416 -64 0
v -384 -64 0
v -416 -96 0
v -448 -96 0
v -448 -64 0
v -416 -64 0
v -448 -96 0
v -480 -96 0
v -480 -64 0
v -448 -64 0
v -480 -96 0
v -512 -96 0
v -512 -64 0
v -480 -64 0
v 0 -128 0
v -32 -128 0
v -32 -96 0
v 0 -96 0
v -32 -128 0
v -64 -128 0
v -64 -96 0
v -32 -96 0
v -64 -128 0
v -96 -128 0
v -96 -96 0
v -64 -96 0
v -96 -128 0
v -128 -128 0
v -128 -96 0
v -96 -96 0
v -128 -128 0
v -160 -128 0
v -160 -96 0
v -128 -96 0
v -352 -128 0
v -384 -128 0
v -384 -96 0
v -352 -96 0
v -384 -128 0
v -416 -128 0
v -416 -96 0
v -384 -96 0
v -416 -128 0
v -448 -128 0
v -448 -96 0
v -416 -96 0
v -448 -128 0
v -480 -128 0
v -480 -96 0
v -448 -96 0
v -480 -128 0
v -512 -128 0
v -512 -96 0
v -480 -96 0
v 0 -160 0
v -32 -160 0
v -32 -128 0
v 0 -128 0
v -32 -160 0
v -64 -160 0
v -64 -128 0
v -32 -128 0
v -64 -160 0
v -96 -160 0
v -96 -128 0
v -64 -128 0
v -96 -160 0
v -128 -160 0
v -128 -128 0
v -96 -128 0
v -128 -160 0
v -160 -160 0
v -160 -128 0
v -128 -128 0
v -352 -160 0
v -384 -160 0
v -384 -128 0
v -352 -128 0
v -384 -160 0
v -416 -160 0
v -416 -128 0
v -384 -128 0
v -416 -160 0
v -448 -160 0
v -448 -128 0
v -416 -128 0
v -448 -160 0
v -480 -160 0
v -480 -128 0
v -448 -128 0
v -480 -160 0
v -512 -160 0
v -512 -128 0
v -480 -128 0
v 0 -192 0
v -32 -192 0
v -32 -160 0
v 0 -160 0
v -32 -192 0
v -64 -192 0
v -64 -160 0
v -32 -160 0
v -64 -192 0
v -96 -192 0
v -96 -160 0
v -64 -160 0
v -96 -192 0
v -128 -192 0
v -128 -160 0
v -96 -160 0
v -128 -192 0
v -160 -192 0
v -160 -160 0
v -128 -160 0
v -352 -192 0
v -384 -192 0
v -384 -160 0
v -352 -160 0
v -384 -192 0
v -416 -192 0
v -416 -160 0
v -384 -160 0
v -416 -192 0
v -448 -192 0
v -448 -160 0
v -416 -160 0
v -448 -192 0
v -480 -192 0
v -480 -160 0
v -448 -160 0
v -480 -192 0
v -512 -192 0
v -512 -160 0
v -480 -160 0
v 0 -224 0
v -32 -224 0
v -32 -192 0
v 0 -192 0
v -32 -224 0
v -64 -224 0
v -64 -192 0
v -32 -192 0
v -64 -224 0
v -96 -224 0
v -96 -192 0
v -64 -192 0
v -96 -224 0
v -128 -224 0
v -128 -192 0
v -96 -192 0
v -128 -224 0
v -160 -224 0
v -160 -192 0
v -128 -192 0
v -352 -224 0
v -384 -224 0
v -384 -192 0
v -352 -192 0
v -384 -224 0
v -416 -224 0
v -416 -192 0
v -384 -192 0
v -416 -224 0
v -448 -224 0
v -448 -192 0
v -416 -192 0
v -448 -224 0
v -480 -224 0
v -480 -192 0
v -448 -192 0
v -480 -224 0
v -512 -224 0
v -512 -192 0
v -480 -192 0
v 0 -256 0
v -32 -256 0
v -32 -224 0
v 0 -224 0
v -32 -256 0
v -64 -256 0
v -64 -224 0
v -32 -224 0
v -64 -256 0
v -96 -256 0
v -96 -224 0
v -64 -224 0
v -96 -256 0
v -128 -256 0
v -128 -224 0
v -96 -224 0
v -128 -256 0
v -160 -256 0
v -160 -224 0
v -128 -224 0
v -352 -256 0
v -384 -256 0
v -384 -224 0
v -352 -224 0
v -384 -256 0
v -416 -256 0
v -416 -224 0
v -384 -224 0
v -416 -256 0
v -448 -256 0
v -448 -224 0
v -416 -224 0
v -448 -256 0
v -480 -256 0
v -480 -224 0
v -448 -224 0
v -480 -256 0
v -512 -256 0
v -512 -224 0
v -480 -224 0
v 0 -288 0
v -32 -288 0
v -32 -256 0
v 0 -256 0
v -32 -288 0
v -64 -288 0
v -64 -256 0
v -32 -256 0
v -64 -288 0
v -96 -288 0
v -96 -256 0
v -64 -256 0
v -96 -288 0
v -128 -288 0
v -128 -256 0
v -96 -256 0
v -128 -288 0
v -160 -288 0
v -160 -256 0
v -128 -256 0
v -352 -288 0
v -384 -288 0
v -384 -256 0
v -352 -256 0
v -384 -288 0
v -416 -288 0
v -416 -256 0
v -384 -256 0
v -416 -288 0
v -448 -288 0
v -448 -256 0
v -416 -256 0
v -448 -288 0
v -480 -288 0
v -480 -256 0
v -448 -256 0
v -480 -288 0
v -512 -288 0
v -512 -256 0
v -480 -256 0
v 0 -320 0
v -32 -320 0
v -32 -288 0
v 0 -288 0
v -32 -320 0
v -64 -320 0
v -64 -288 0
v -32 -288 0
v -64 -320 0
v -96 -320 0
v -96 -288 0
v -64 -288 0
v -96 -320 0
v -128 -320 0
v -128 -288 0
v -96 -288 0
v -128 -320 0
v -160 -320 0
v -160 -288 0
v -128 -288 0
v -352 -320 0
v -384 -320 0
v -384 -288 0
v -352 -288 0
v -384 -320 0
v -416 -320 0
v -416 -288 0
v -384 -288 0
v -416 -320 0
v -448 -320 0
v -448 -288 0
v -416 -288 0
v -448 -320 0
v -480 -320 0
v -480 -288 0
v -448 -288 0
v -480 -320 0
v -512 -320 0
v -512 -288 0
v -480 -288 0
v 0 -352 0
v -32 -352 0
v -32 -320 0
v 0 -320 0
v -32 -352 0
v -64 -352 0
v -64 -320 0
v -32 -320 0
v -64 -352 0
v -96 -352 0
v -96 -320 0
v -64 -320 0
v -96 -352 0
v -128 -352 0
v -128 -320 0
v -96 -320 0
v -128 -352 0
v -160 -352 0
v -160 -320 0
v -128 -320 0
v -352 -352 0
v -384 -352 0
v -384 -320 0
v -352 -320 0
v -384 -352 0
v -416 -352 0
v -416 -320 0
v -384 -320 0
v -416 -352 0
v -448 -352 0
v -448 -320 0
v -416 -320 0
v -448 -352 0
v -480 -352 0
v -480 -320 0
v -448 -320 0
v -480 -352 0
v -512 -352 0
v -512 -320 0
v -480 -320 0
v 0 -384 0
v -32 -384 0
v -32 -352 0
v 0 -352 0
v -32 -384 0
v -64 -384 0
v -64 -352 0
v -32 -352 0
v -64 -384 0
v -96 -384 0
v -96 -352 0
v -64 -352 0
v -96 -384 0
v -128 -384 0
v -128 -352 0
v -96 -352 0
v -128 -384 0
v -160 -384 0
v -160 -352 0
v -128 -352 0
v -352 -384 0
v -384 -384 0
v -384 -352 0
v -352 -352 0
v -384 -384 0
v -416 -384 0
v -416 -352 0
v -384 -352 0
v -416 -384 0
v -448 -384 0
v -448 -352 0
v -416 -352 0
v -448 -384 0
v -480 -384 0
v -480 -352 0
v -448 -352 0
v -480 -384 0
v -512 -384 0
v -512 -352 0
v -480 -352 0
v 0 -416 0
v -32 -416 0
v -32 -384 0
v 0 -384 0
v -32 -416 0
v -64 -416 0
v -64 -384 0
v -32 -384 0
v -64 -416 0
v -96 -416 0
v -96 -384 0
v -64 -384 0
v -96 -416 0
v -128 -416 0
v -128 -384 0
v -96 -384 0
v -128 -416 0
v -160 -416 0
v -160 -384 0
v -128 -384 0

# Texture cooridinates (Count = 8)
vt 0.65625 0.5625
vt 0.6875 0.5625
vt 0.6875 0.625
vt 0.65625 0.625
vt 0.71875 0.5625
vt 0.71875 0.625
vt 0.625 0.5625
vt 0.625 0.625

# Normal
vn 0 0 -1

# Mesh description
g myMap_mesh_0279

# Faces
f 1/1/1 2/2/1 3/3/1 4/4/1
f 5/1/1 6/2/1 7/3/1 8/4/1
f 9/1/1 10/2/1 11/3/1 12/4/1
f 13/1/1 14/2/1 15/3/1 16/4/1
f 17/2/1 18/5/1 19/6/1 20/3/1
f 21/7/1 22/1/1 23/4/1 24/8/1
f 25/1/1 26/2/1 27/3/1 28/4/1
f 29/1/1 30/2/1 31/3/1 32/4/1
f 33/1/1 34/2/1 35/3/1 36/4/1
f 37/1/1 38/2/1 39/3/1 40/4/1
f 41/1/1 42/2/1 43/3/1 44/4/1
f 45/1/1 46/2/1 47/3/1 48/4/1
f 49/1/1 50/2/1 51/3/1 52/4/1
f 53/1/1 54/2/1 55/3/1 56/4/1
f 57/2/1 58/5/1 59/6/1 60/3/1
f 61/7/1 62/1/1 63/4/1 64/8/1
f 65/1/1 66/2/1 67/3/1 68/4/1
f 69/1/1 70/2/1 71/3/1 72/4/1
f 73/1/1 74/2/1 75/3/1 76/4/1
f 77/1/1 78/2/1 79/3/1 80/4/1
f 81/1/1 82/2/1 83/3/1 84/4/1
f 85/1/1 86/2/1 87/3/1 88/4/1
f 89/1/1 90/2/1 91/3/1 92/4/1
f 93/1/1 94/2/1 95/3/1 96/4/1
f 97/2/1 98/5/1 99/6/1 100/3/1
f 101/7/1 102/1/1 103/4/1 104/8/1
f 105/1/1 106/2/1 107/3/1 108/4/1
f 109/1/1 110/2/1 111/3/1 112/4/1
f 113/1/1 114/2/1 115/3/1 116/4/1
f 117/1/1 118/2/1 119/3/1 120/4/1
f 121/1/1 122/2/1 123/3/1 124/4/1
f 125/1/1 126/2/1 127/3/1 128/4/1
f 129/1/1 130/2/1 131/3/1 132/4/1
f 133/1/1 134/2/1 135/3/1 136/4/1
f 137/2/1 138/5/1 139/6/1 140/3/1
f 141/7/1 142/1/1 143/4/1 144/8/1
f 145/1/1 146/2/1 147/3/1 148/4/1
f 149/1/1 150/2/1 151/3/1 152/4/1
f 153/1/1 154/2/1 155/3/1 156/4/1
f 157/1/1 158/2/1 159/3/1 160/4/1
f 161/1/1 162/2/1 163/3/1 164/4/1
f 165/1/1 166/2/1 167/3/1 168/4/1
f 169/1/1 170/2/1 171/3/1 172/4/1
f 173/1/1 174/2/1 175/3/1 176/4/1
f 177/2/1 178/5/1 179/6/1 180/3/1
f 181/7/1 182/1/1 183/4/1 184/8/1
f 185/1/1 186/2/1 187/3/1 188/4/1
f 189/1/1 190/2/1 191/3/1 192/4/1
f 193/1/1 194/2/1 195/3/1 196/4/1
f 197/1/1 198/2/1 199/3/1 200/4/1
f 201/1/1 202/2/1 203/3/1 204/4/1
f 205/1/1 206/2/1 207/3/1 208/4/1
f 209/1/1 210/2/1 211/3/1 212/4/1
f 213/1/1 214/2/1 215/3/1 216/4/1
f 217/2/1 218/5/1 219/6/1 220/3/1
f 221/7/1 222/1/1 223/4/1 224/8/1
f 225/1/1 226/2/1 227/3/1 228/4/1
f 229/1/1 230/2/1 231/3/1 232/4/1
f 233/1/1 234/2/1 235/3/1 236/4/1
f 237/1/1 238/2/1 239/3/1 240/4/1
f 241/1/1 242/2/1 243/3/1 244/4/1
f 245/1/1 246/2/1 247/3/1 248/4/1
f 249/1/1 250/2/1 251/3/1 252/4/1
f 253/1/1 254/2/1 255/3/1 256/4/1
f 257/2/1 258/5/1 259/6/1 260/3/1
f 261/7/1 262/1/1 263/4/1 264/8/1
f 265/1/1 266/2/1 267/3/1 268/4/1
f 269/1/1 270/2/1 271/3/1 272/4/1
f 273/1/1 274/2/1 275/3/1 276/4/1
f 277/1/1 278/2/1 279/3/1 280/4/1
f 281/1/1 282/2/1 283/3/1 284/4/1
f 285/1/1 286/2/1 287/3/1 288/4/1
f 289/1/1 290/2/1 291/3/1 292/4/1
f 293/1/1 294/2/1 295/3/1 296/4/1
f 297/2/1 298/5/1 299/6/1 300/3/1
f 301/7/1 302/1/1 303/4/1 304/8/1
f 305/1/1 306/2/1 307/3/1 308/4/1
f 309/1/1 310/2/1 311/3/1 312/4/1
f 313/1/1 314/2/1 315/3/1 316/4/1
f 317/1/1 318/2/1 319/3/1 320/4/1
f 321/1/1 322/2/1 323/3/1 324/4/1
f 325/1/1 326/2/1 327/3/1 328/4/1
f 329/1/1 330/2/1 331/3/1 332/4/1
f 333/1/1 334/2/1 335/3/1 336/4/1
f 337/2/1 338/5/1 339/6/1 340/3/1
f 341/7/1 342/1/1 343/4/1 344/8/1
f 345/1/1 346/2/1 347/3/1 348/4/1
f 349/1/1 350/2/1 351/3/1 352/4/1
f 353/1/1 354/2/1 355/3/1 356/4/1
f 357/1/1 358/2/1 359/3/1 360/4/1
f 361/1/1 362/2/1 363/3/1 364/4/1
f 365/1/1 366/2/1 367/3/1 368/4/1
f 369/1/1 370/2/1 371/3/1 372/4/1
f 373/1/1 374/2/1 375/3/1 376/4/1
f 377/2/1 378/5/1 379/6/1 380/3/1
f 381/7/1 382/1/1 383/4/1 384/8/1
f 385/1/1 386/2/1 387/3/1 388/4/1
f 389/1/1 390/2/1 391/3/1 392/4/1
f 393/1/1 394/2/1 395/3/1 396/4/1
f 397/1/1 398/2/1 399/3/1 400/4/1
f 401/1/1 402/2/1 403/3/1 404/4/1
f 405/1/1 406/2/1 407/3/1 408/4/1
f 409/1/1 410/2/1 411/3/1 412/4/1
f 413/1/1 414/2/1 415/3/1 416/4/1
f 417/2/1 418/5/1 419/6/1 420/3/1
f 421/7/1 422/1/1 423/4/1 424/8/1
f 425/1/1 426/2/1 427/3/1 428/4/1
f 429/1/1 430/2/1 431/3/1 432/4/1
f 433/1/1 434/2/1 435/3/1 436/4/1
f 437/1/1 438/2/1 439/3/1 440/4/1
f 441/1/1 442/2/1 443/3/1 444/4/1
f 445/1/1 446/2/1 447/3/1 448/4/1
f 449/1/1 450/2/1 451/3/1 452/4/1
f 453/1/1 454/2/1 455/3/1 456/4/1
f 457/2/1 458/5/1 459/6/1 460/3/1
f 461/7/1 462/1/1 463/4/1 464/8/1
f 465/1/1 466/2/1 467/3/1 468/4/1
f 469/1/1 470/2/1 471/3/1 472/4/1
f 473/1/1 474/2/1 475/3/1 476/4/1
f 477/1/1 478/2/1 479/3/1 480/4/1
f 481/1/1 482/2/1 483/3/1 484/4/1
f 485/1/1 486/2/1 487/3/1 488/4/1
f 489/1/1 490/2/1 491/3/1 492/4/1
f 493/1/1 494/2/1 495/3/1 496/4/1
f 497/2/1 498/5/1 499/6/1 500/3/1

