# Tiled2Unity generated file. Do not modify by hand.
# Wavefront file for 'myMap_mesh_0245.obj'

# Vertices (Count = 240)
v -160 -32 0
v -192 -32 0
v -192 0 0
v -160 0 0
v -192 -32 0
v -224 -32 0
v -224 0 0
v -192 0 0
v -224 -32 0
v -256 -32 0
v -256 0 0
v -224 0 0
v -256 -32 0
v -288 -32 0
v -288 0 0
v -256 0 0
v -288 -32 0
v -320 -32 0
v -320 0 0
v -288 0 0
v -320 -32 0
v -352 -32 0
v -352 0 0
v -320 0 0
v -160 -64 0
v -192 -64 0
v -192 -32 0
v -160 -32 0
v -192 -64 0
v -224 -64 0
v -224 -32 0
v -192 -32 0
v -224 -64 0
v -256 -64 0
v -256 -32 0
v -224 -32 0
v -256 -64 0
v -288 -64 0
v -288 -32 0
v -256 -32 0
v -288 -64 0
v -320 -64 0
v -320 -32 0
v -288 -32 0
v -320 -64 0
v -352 -64 0
v -352 -32 0
v -320 -32 0
v -160 -96 0
v -192 -96 0
v -192 -64 0
v -160 -64 0
v -192 -96 0
v -224 -96 0
v -224 -64 0
v -192 -64 0
v -224 -96 0
v -256 -96 0
v -256 -64 0
v -224 -64 0
v -256 -96 0
v -288 -96 0
v -288 -64 0
v -256 -64 0
v -288 -96 0
v -320 -96 0
v -320 -64 0
v -288 -64 0
v -320 -96 0
v -352 -96 0
v -352 -64 0
v -320 -64 0
v -160 -128 0
v -192 -128 0
v -192 -96 0
v -160 -96 0
v -192 -128 0
v -224 -128 0
v -224 -96 0
v -192 -96 0
v -224 -128 0
v -256 -128 0
v -256 -96 0
v -224 -96 0
v -256 -128 0
v -288 -128 0
v -288 -96 0
v -256 -96 0
v -288 -128 0
v -320 -128 0
v -320 -96 0
v -288 -96 0
v -320 -128 0
v -352 -128 0
v -352 -96 0
v -320 -96 0
v -160 -160 0
v -192 -160 0
v -192 -128 0
v -160 -128 0
v -192 -160 0
v -224 -160 0
v -224 -128 0
v -192 -128 0
v -224 -160 0
v -256 -160 0
v -256 -128 0
v -224 -128 0
v -256 -160 0
v -288 -160 0
v -288 -128 0
v -256 -128 0
v -288 -160 0
v -320 -160 0
v -320 -128 0
v -288 -128 0
v -320 -160 0
v -352 -160 0
v -352 -128 0
v -320 -128 0
v -160 -192 0
v -192 -192 0
v -192 -160 0
v -160 -160 0
v -192 -192 0
v -224 -192 0
v -224 -160 0
v -192 -160 0
v -224 -192 0
v -256 -192 0
v -256 -160 0
v -224 -160 0
v -256 -192 0
v -288 -192 0
v -288 -160 0
v -256 -160 0
v -288 -192 0
v -320 -192 0
v -320 -160 0
v -288 -160 0
v -320 -192 0
v -352 -192 0
v -352 -160 0
v -320 -160 0
v -160 -224 0
v -192 -224 0
v -192 -192 0
v -160 -192 0
v -192 -224 0
v -224 -224 0
v -224 -192 0
v -192 -192 0
v -224 -224 0
v -256 -224 0
v -256 -192 0
v -224 -192 0
v -256 -224 0
v -288 -224 0
v -288 -192 0
v -256 -192 0
v -288 -224 0
v -320 -224 0
v -320 -192 0
v -288 -192 0
v -320 -224 0
v -352 -224 0
v -352 -192 0
v -320 -192 0
v -160 -256 0
v -192 -256 0
v -192 -224 0
v -160 -224 0
v -192 -256 0
v -224 -256 0
v -224 -224 0
v -192 -224 0
v -224 -256 0
v -256 -256 0
v -256 -224 0
v -224 -224 0
v -256 -256 0
v -288 -256 0
v -288 -224 0
v -256 -224 0
v -288 -256 0
v -320 -256 0
v -320 -224 0
v -288 -224 0
v -320 -256 0
v -352 -256 0
v -352 -224 0
v -320 -224 0
v -160 -288 0
v -192 -288 0
v -192 -256 0
v -160 -256 0
v -192 -288 0
v -224 -288 0
v -224 -256 0
v -192 -256 0
v -224 -288 0
v -256 -288 0
v -256 -256 0
v -224 -256 0
v -256 -288 0
v -288 -288 0
v -288 -256 0
v -256 -256 0
v -288 -288 0
v -320 -288 0
v -320 -256 0
v -288 -256 0
v -320 -288 0
v -352 -288 0
v -352 -256 0
v -320 -256 0
v -160 -320 0
v -192 -320 0
v -192 -288 0
v -160 -288 0
v -192 -320 0
v -224 -320 0
v -224 -288 0
v -192 -288 0
v -224 -320 0
v -256 -320 0
v -256 -288 0
v -224 -288 0
v -256 -320 0
v -288 -320 0
v -288 -288 0
v -256 -288 0
v -288 -320 0
v -320 -320 0
v -320 -288 0
v -288 -288 0
v -320 -320 0
v -352 -320 0
v -352 -288 0
v -320 -288 0

# Texture cooridinates (Count = 13)
vt 0 0.875
vt 0.03125 0.875
vt 0.03125 0.9375
vt 0 0.9375
vt 0.0625 0.875
vt 0.0625 0.9375
vt 0.09375 0.875
vt 0.09375 0.9375
vt 0.03125 1
vt 0 1
vt 0.125 1
vt 0.09375 1
vt 0.125 0.9375

# Normal
vn 0 0 -1

# Mesh description
g myMap_mesh_0245

# Faces
f 1/1/1 2/2/1 3/3/1 4/4/1
f 5/1/1 6/2/1 7/3/1 8/4/1
f 9/2/1 10/5/1 11/6/1 12/3/1
f 13/1/1 14/2/1 15/3/1 16/4/1
f 17/1/1 18/2/1 19/3/1 20/4/1
f 21/5/1 22/7/1 23/8/1 24/6/1
f 25/4/1 26/3/1 27/9/1 28/10/1
f 29/4/1 30/3/1 31/9/1 32/10/1
f 33/4/1 34/3/1 35/9/1 36/10/1
f 37/4/1 38/3/1 39/9/1 40/10/1
f 41/4/1 42/3/1 43/9/1 44/10/1
f 45/4/1 46/3/1 47/9/1 48/10/1
f 49/4/1 50/3/1 51/9/1 52/10/1
f 53/4/1 54/3/1 55/9/1 56/10/1
f 57/4/1 58/3/1 59/9/1 60/10/1
f 61/4/1 62/3/1 63/9/1 64/10/1
f 65/4/1 66/3/1 67/9/1 68/10/1
f 69/4/1 70/3/1 71/9/1 72/10/1
f 73/3/1 74/4/1 75/1/1 76/2/1
f 77/3/1 78/4/1 79/1/1 80/2/1
f 81/3/1 82/4/1 83/1/1 84/2/1
f 85/3/1 86/4/1 87/1/1 88/2/1
f 89/3/1 90/4/1 91/1/1 92/2/1
f 93/3/1 94/4/1 95/1/1 96/2/1
f 97/4/1 98/3/1 99/9/1 100/10/1
f 101/11/1 102/12/1 103/8/1 104/13/1
f 105/4/1 106/3/1 107/9/1 108/10/1
f 109/4/1 110/3/1 111/9/1 112/10/1
f 113/11/1 114/12/1 115/8/1 116/13/1
f 117/4/1 118/3/1 119/9/1 120/10/1
f 121/5/1 122/7/1 123/8/1 124/6/1
f 125/1/1 126/2/1 127/3/1 128/4/1
f 129/1/1 130/2/1 131/3/1 132/4/1
f 133/1/1 134/2/1 135/3/1 136/4/1
f 137/2/1 138/5/1 139/6/1 140/3/1
f 141/1/1 142/2/1 143/3/1 144/4/1
f 145/4/1 146/3/1 147/9/1 148/10/1
f 149/4/1 150/3/1 151/9/1 152/10/1
f 153/4/1 154/3/1 155/9/1 156/10/1
f 157/4/1 158/3/1 159/9/1 160/10/1
f 161/4/1 162/3/1 163/9/1 164/10/1
f 165/4/1 166/3/1 167/9/1 168/10/1
f 169/1/1 170/2/1 171/3/1 172/4/1
f 173/1/1 174/2/1 175/3/1 176/4/1
f 177/2/1 178/5/1 179/6/1 180/3/1
f 181/1/1 182/2/1 183/3/1 184/4/1
f 185/1/1 186/2/1 187/3/1 188/4/1
f 189/5/1 190/7/1 191/8/1 192/6/1
f 193/4/1 194/3/1 195/9/1 196/10/1
f 197/4/1 198/3/1 199/9/1 200/10/1
f 201/4/1 202/3/1 203/9/1 204/10/1
f 205/4/1 206/3/1 207/9/1 208/10/1
f 209/4/1 210/3/1 211/9/1 212/10/1
f 213/4/1 214/3/1 215/9/1 216/10/1
f 217/4/1 218/3/1 219/9/1 220/10/1
f 221/4/1 222/3/1 223/9/1 224/10/1
f 225/4/1 226/3/1 227/9/1 228/10/1
f 229/4/1 230/3/1 231/9/1 232/10/1
f 233/4/1 234/3/1 235/9/1 236/10/1
f 237/4/1 238/3/1 239/9/1 240/10/1

