# Tiled2Unity generated file. Do not modify by hand.
# Wavefront file for 'Map1_mesh_0142.obj'

# Vertices (Count = 56)
v -96 -64 0
v -112 -64 0
v -112 -48 0
v -96 -48 0
v -112 -64 0
v -128 -64 0
v -128 -48 0
v -112 -48 0
v -128 -64 0
v -144 -64 0
v -144 -48 0
v -128 -48 0
v -144 -64 0
v -160 -64 0
v -160 -48 0
v -144 -48 0
v -176 -64 0
v -192 -64 0
v -192 -48 0
v -176 -48 0
v -96 -80 0
v -112 -80 0
v -112 -64 0
v -96 -64 0
v -112 -80 0
v -128 -80 0
v -128 -64 0
v -112 -64 0
v -128 -80 0
v -144 -80 0
v -144 -64 0
v -128 -64 0
v -144 -80 0
v -160 -80 0
v -160 -64 0
v -144 -64 0
v -208 -80 0
v -224 -80 0
v -224 -64 0
v -208 -64 0
v -96 -96 0
v -112 -96 0
v -112 -80 0
v -96 -80 0
v -112 -96 0
v -128 -96 0
v -128 -80 0
v -112 -80 0
v -128 -96 0
v -144 -96 0
v -144 -80 0
v -128 -80 0
v -144 -96 0
v -160 -96 0
v -160 -80 0
v -144 -80 0

# Texture cooridinates (Count = 20)
vt 0.06803685 0.5588235
vt 0.07937633 0.5588235
vt 0.07937633 0.5882353
vt 0.06803685 0.5882353
vt 0.0907158 0.5588235
vt 0.0907158 0.5882353
vt 0.1020553 0.5588235
vt 0.1020553 0.5882353
vt 0.1133948 0.5588235
vt 0.1133948 0.5882353
vt 0.1020553 0.5294118
vt 0.1133948 0.5294118
vt 0.06803685 0.5294118
vt 0.07937633 0.5294118
vt 0.0907158 0.5294118
vt 0.06803685 0.5
vt 0.07937633 0.5
vt 0.0907158 0.5
vt 0.1020553 0.5
vt 0.1133948 0.5

# Normal
vn 0 0 -1

# Mesh description
g Map1_mesh_0142

# Faces
f 1/1/1 2/2/1 3/3/1 4/4/1
f 5/2/1 6/5/1 7/6/1 8/3/1
f 9/5/1 10/7/1 11/8/1 12/6/1
f 13/7/1 14/9/1 15/10/1 16/8/1
f 17/11/1 18/12/1 19/9/1 20/7/1
f 21/13/1 22/14/1 23/2/1 24/1/1
f 25/14/1 26/15/1 27/5/1 28/2/1
f 29/15/1 30/11/1 31/7/1 32/5/1
f 33/11/1 34/12/1 35/9/1 36/7/1
f 37/11/1 38/12/1 39/9/1 40/7/1
f 41/16/1 42/17/1 43/14/1 44/13/1
f 45/17/1 46/18/1 47/15/1 48/14/1
f 49/18/1 50/19/1 51/11/1 52/15/1
f 53/19/1 54/20/1 55/12/1 56/11/1

