# Tiled2Unity generated file. Do not modify by hand.
# Wavefront file for 'Map1_mesh_0302.obj'

# Vertices (Count = 84)
v 0 -16 0
v -16 -16 0
v -16 0 0
v 0 0 0
v -16 -16 0
v -32 -16 0
v -32 0 0
v -16 0 0
v -32 -16 0
v -48 -16 0
v -48 0 0
v -32 0 0
v -48 -16 0
v -64 -16 0
v -64 0 0
v -48 0 0
v -64 -16 0
v -80 -16 0
v -80 0 0
v -64 0 0
v -80 -16 0
v -96 -16 0
v -96 0 0
v -80 0 0
v -208 -16 0
v -224 -16 0
v -224 0 0
v -208 0 0
v -240 -16 0
v -256 -16 0
v -256 0 0
v -240 0 0
v 0 -160 0
v -16 -160 0
v -16 -144 0
v 0 -144 0
v -16 -160 0
v -32 -160 0
v -32 -144 0
v -16 -144 0
v -32 -160 0
v -48 -160 0
v -48 -144 0
v -32 -144 0
v -48 -160 0
v -64 -160 0
v -64 -144 0
v -48 -144 0
v -64 -160 0
v -80 -160 0
v -80 -144 0
v -64 -144 0
v -80 -160 0
v -96 -160 0
v -96 -144 0
v -80 -144 0
v -80 -176 0
v -96 -176 0
v -96 -160 0
v -80 -160 0
v -96 -176 0
v -112 -176 0
v -112 -160 0
v -96 -160 0
v -96 -192 0
v -112 -192 0
v -112 -176 0
v -96 -176 0
v -96 -208 0
v -112 -208 0
v -112 -192 0
v -96 -192 0
v -96 -224 0
v -112 -224 0
v -112 -208 0
v -96 -208 0
v -160 -256 0
v -176 -256 0
v -176 -240 0
v -160 -240 0
v -192 -256 0
v -208 -256 0
v -208 -240 0
v -192 -240 0

# Texture cooridinates (Count = 36)
vt 0.08 0.24
vt 0.12 0.24
vt 0.12 0.28
vt 0.08 0.28
vt 0.16 0.24
vt 0.16 0.28
vt 0.04 0.8
vt 0.08 0.8
vt 0.08 0.84
vt 0.04 0.84
vt 0.12 0.8
vt 0.16 0.8
vt 0.16 0.84
vt 0.12 0.84
vt 0.08 0.4
vt 0.12 0.4
vt 0.12 0.44
vt 0.08 0.44
vt 0.16 0.4
vt 0.16 0.44
vt 0.12 0.36
vt 0.16 0.36
vt 0.2 0.92
vt 0.24 0.92
vt 0.24 0.96
vt 0.2 0.96
vt 0.2 0.88
vt 0.24 0.88
vt 0.2 0.84
vt 0.24 0.84
vt 0.2 0.8
vt 0.24 0.8
vt 0.16 0.88
vt 0.12 0.88
vt 0.08 0.88
vt 0.04 0.88

# Normal
vn 0 0 -1

# Mesh description
g Map1_mesh_0302

# Faces
f 1/1/1 2/2/1 3/3/1 4/4/1
f 5/1/1 6/2/1 7/3/1 8/4/1
f 9/1/1 10/2/1 11/3/1 12/4/1
f 13/1/1 14/2/1 15/3/1 16/4/1
f 17/1/1 18/2/1 19/3/1 20/4/1
f 21/2/1 22/5/1 23/6/1 24/3/1
f 25/7/1 26/8/1 27/9/1 28/10/1
f 29/11/1 30/12/1 31/13/1 32/14/1
f 33/15/1 34/16/1 35/17/1 36/18/1
f 37/15/1 38/16/1 39/17/1 40/18/1
f 41/15/1 42/16/1 43/17/1 44/18/1
f 45/15/1 46/16/1 47/17/1 48/18/1
f 49/15/1 50/16/1 51/17/1 52/18/1
f 53/16/1 54/19/1 55/20/1 56/17/1
f 57/21/1 58/22/1 59/19/1 60/16/1
f 61/23/1 62/24/1 63/25/1 64/26/1
f 65/27/1 66/28/1 67/24/1 68/23/1
f 69/29/1 70/30/1 71/28/1 72/27/1
f 73/31/1 74/32/1 75/30/1 76/29/1
f 77/14/1 78/13/1 79/33/1 80/34/1
f 81/10/1 82/9/1 83/35/1 84/36/1

