# Tiled2Unity generated file. Do not modify by hand.
# Wavefront file for 'Map1_mesh_0215.obj'

# Vertices (Count = 48)
v -112 -16 0
v -128 -16 0
v -128 0 0
v -112 0 0
v -112 -32 0
v -128 -32 0
v -128 -16 0
v -112 -16 0
v -224 -32 0
v -240 -32 0
v -240 -16 0
v -224 -16 0
v -224 -48 0
v -240 -48 0
v -240 -32 0
v -224 -32 0
v 0 -64 0
v -16 -64 0
v -16 -48 0
v 0 -48 0
v -16 -64 0
v -32 -64 0
v -32 -48 0
v -16 -48 0
v 0 -80 0
v -16 -80 0
v -16 -64 0
v 0 -64 0
v -16 -80 0
v -32 -80 0
v -32 -64 0
v -16 -64 0
v 0 -96 0
v -16 -96 0
v -16 -80 0
v 0 -80 0
v -16 -96 0
v -32 -96 0
v -32 -80 0
v -16 -80 0
v -80 -128 0
v -96 -128 0
v -96 -112 0
v -80 -112 0
v -80 -144 0
v -96 -144 0
v -96 -128 0
v -80 -128 0

# Texture cooridinates (Count = 24)
vt 0.4 0.92
vt 0.44 0.92
vt 0.44 0.96
vt 0.4 0.96
vt 0.4 0.88
vt 0.44 0.88
vt 0.48 0.68
vt 0.52 0.68
vt 0.52 0.72
vt 0.48 0.72
vt 0.56 0.68
vt 0.56 0.72
vt 0.48 0.64
vt 0.52 0.64
vt 0.56 0.64
vt 0.48 0.6
vt 0.52 0.6
vt 0.56 0.6
vt 0.52 0.88
vt 0.56 0.88
vt 0.56 0.92
vt 0.52 0.92
vt 0.52 0.84
vt 0.56 0.84

# Normal
vn 0 0 -1

# Mesh description
g Map1_mesh_0215

# Faces
f 1/1/1 2/2/1 3/3/1 4/4/1
f 5/5/1 6/6/1 7/2/1 8/1/1
f 9/1/1 10/2/1 11/3/1 12/4/1
f 13/5/1 14/6/1 15/2/1 16/1/1
f 17/7/1 18/8/1 19/9/1 20/10/1
f 21/8/1 22/11/1 23/12/1 24/9/1
f 25/13/1 26/14/1 27/8/1 28/7/1
f 29/14/1 30/15/1 31/11/1 32/8/1
f 33/16/1 34/17/1 35/14/1 36/13/1
f 37/17/1 38/18/1 39/15/1 40/14/1
f 41/19/1 42/20/1 43/21/1 44/22/1
f 45/23/1 46/24/1 47/20/1 48/19/1

