# Tiled2Unity generated file. Do not modify by hand.
# Wavefront file for 'Map1_mesh_0269.obj'

# Vertices (Count = 20)
v -192 -144 0
v -208 -144 0
v -208 -128 0
v -192 -128 0
v -208 -144 0
v -224 -144 0
v -224 -128 0
v -208 -128 0
v -224 -144 0
v -240 -144 0
v -240 -128 0
v -224 -128 0
v -224 -176 0
v -240 -176 0
v -240 -160 0
v -224 -160 0
v -224 -192 0
v -240 -192 0
v -240 -176 0
v -224 -176 0

# Texture cooridinates (Count = 15)
vt 0.28 0.92
vt 0.32 0.92
vt 0.32 0.96
vt 0.28 0.96
vt 0.36 0.92
vt 0.36 0.96
vt 0.4 0.92
vt 0.4 0.96
vt 0.4 0.8
vt 0.44 0.8
vt 0.44 0.84
vt 0.4 0.84
vt 0.36 0.84
vt 0.4 0.88
vt 0.36 0.88

# Normal
vn 0 0 -1

# Mesh description
g Map1_mesh_0269

# Faces
f 1/1/1 2/2/1 3/3/1 4/4/1
f 5/2/1 6/5/1 7/6/1 8/3/1
f 9/5/1 10/7/1 11/8/1 12/6/1
f 13/9/1 14/10/1 15/11/1 16/12/1
f 17/13/1 18/12/1 19/14/1 20/15/1

