# Tiled2Unity generated file. Do not modify by hand.
# Wavefront file for 'Map1_mesh_0314.obj'

# Vertices (Count = 84)
v -16 -16 0
v -32 -16 0
v -32 0 0
v -16 0 0
v -32 -16 0
v -48 -16 0
v -48 0 0
v -32 0 0
v -48 -16 0
v -64 -16 0
v -64 0 0
v -48 0 0
v 0 -112 0
v -16 -112 0
v -16 -96 0
v 0 -96 0
v -16 -112 0
v -32 -112 0
v -32 -96 0
v -16 -96 0
v -32 -112 0
v -48 -112 0
v -48 -96 0
v -32 -96 0
v -160 -128 0
v -176 -128 0
v -176 -112 0
v -160 -112 0
v -176 -128 0
v -192 -128 0
v -192 -112 0
v -176 -112 0
v -192 -128 0
v -208 -128 0
v -208 -112 0
v -192 -112 0
v -208 -128 0
v -224 -128 0
v -224 -112 0
v -208 -112 0
v -224 -128 0
v -240 -128 0
v -240 -112 0
v -224 -112 0
v -240 -128 0
v -256 -128 0
v -256 -112 0
v -240 -112 0
v -144 -144 0
v -160 -144 0
v -160 -128 0
v -144 -128 0
v -160 -144 0
v -176 -144 0
v -176 -128 0
v -160 -128 0
v -48 -160 0
v -64 -160 0
v -64 -144 0
v -48 -144 0
v -64 -160 0
v -80 -160 0
v -80 -144 0
v -64 -144 0
v -80 -160 0
v -96 -160 0
v -96 -144 0
v -80 -144 0
v -96 -160 0
v -112 -160 0
v -112 -144 0
v -96 -144 0
v -112 -160 0
v -128 -160 0
v -128 -144 0
v -112 -144 0
v -128 -160 0
v -144 -160 0
v -144 -144 0
v -128 -144 0
v -144 -160 0
v -160 -160 0
v -160 -144 0
v -144 -144 0

# Texture cooridinates (Count = 42)
vt 0.691708 0.6176471
vt 0.7030475 0.6176471
vt 0.7030475 0.6470588
vt 0.691708 0.6470588
vt 0.7143869 0.6176471
vt 0.7143869 0.6470588
vt 0.7257264 0.6176471
vt 0.7257264 0.6470588
vt 0.6803685 0.4411765
vt 0.691708 0.4411765
vt 0.691708 0.4705882
vt 0.6803685 0.4705882
vt 0.7030475 0.4411765
vt 0.7030475 0.4705882
vt 0.7143869 0.4411765
vt 0.7143869 0.4705882
vt 0.7937633 0.4117647
vt 0.8051028 0.4117647
vt 0.8051028 0.4411765
vt 0.7937633 0.4411765
vt 0.8844791 0.4117647
vt 0.8958186 0.4117647
vt 0.8958186 0.4411765
vt 0.8844791 0.4411765
vt 0.7824238 0.3823529
vt 0.7937633 0.3823529
vt 0.7824238 0.4117647
vt 0.8051028 0.3823529
vt 0.7143869 0.3529412
vt 0.7257264 0.3529412
vt 0.7257264 0.3823529
vt 0.7143869 0.3823529
vt 0.7370659 0.3529412
vt 0.7370659 0.3823529
vt 0.7484054 0.3529412
vt 0.7484054 0.3823529
vt 0.7597449 0.3529412
vt 0.7597449 0.3823529
vt 0.7710843 0.3529412
vt 0.7710843 0.3823529
vt 0.7824238 0.3529412
vt 0.7937633 0.3529412

# Normal
vn 0 0 -1

# Mesh description
g Map1_mesh_0314

# Faces
f 1/1/1 2/2/1 3/3/1 4/4/1
f 5/2/1 6/5/1 7/6/1 8/3/1
f 9/5/1 10/7/1 11/8/1 12/6/1
f 13/9/1 14/10/1 15/11/1 16/12/1
f 17/10/1 18/13/1 19/14/1 20/11/1
f 21/13/1 22/15/1 23/16/1 24/14/1
f 25/17/1 26/18/1 27/19/1 28/20/1
f 29/21/1 30/22/1 31/23/1 32/24/1
f 33/21/1 34/22/1 35/23/1 36/24/1
f 37/21/1 38/22/1 39/23/1 40/24/1
f 41/21/1 42/22/1 43/23/1 44/24/1
f 45/21/1 46/22/1 47/23/1 48/24/1
f 49/25/1 50/26/1 51/17/1 52/27/1
f 53/26/1 54/28/1 55/18/1 56/17/1
f 57/29/1 58/30/1 59/31/1 60/32/1
f 61/30/1 62/33/1 63/34/1 64/31/1
f 65/33/1 66/35/1 67/36/1 68/34/1
f 69/35/1 70/37/1 71/38/1 72/36/1
f 73/37/1 74/39/1 75/40/1 76/38/1
f 77/39/1 78/41/1 79/25/1 80/40/1
f 81/41/1 82/42/1 83/26/1 84/25/1

