# Tiled2Unity generated file. Do not modify by hand.
# Wavefront file for 'Map1_mesh_0319.obj'

# Vertices (Count = 164)
v -80 -16 0
v -96 -16 0
v -96 0 0
v -80 0 0
v -96 -16 0
v -112 -16 0
v -112 0 0
v -96 0 0
v 0 -32 0
v -16 -32 0
v -16 -16 0
v 0 -16 0
v -16 -32 0
v -32 -32 0
v -32 -16 0
v -16 -16 0
v -32 -32 0
v -48 -32 0
v -48 -16 0
v -32 -16 0
v -48 -32 0
v -64 -32 0
v -64 -16 0
v -48 -16 0
v -64 -32 0
v -80 -32 0
v -80 -16 0
v -64 -16 0
v -112 -32 0
v -128 -32 0
v -128 -16 0
v -112 -16 0
v -128 -32 0
v -144 -32 0
v -144 -16 0
v -128 -16 0
v -144 -32 0
v -160 -32 0
v -160 -16 0
v -144 -16 0
v -160 -32 0
v -176 -32 0
v -176 -16 0
v -160 -16 0
v -176 -32 0
v -192 -32 0
v -192 -16 0
v -176 -16 0
v -192 -32 0
v -208 -32 0
v -208 -16 0
v -192 -16 0
v -208 -32 0
v -224 -32 0
v -224 -16 0
v -208 -16 0
v -224 -32 0
v -240 -32 0
v -240 -16 0
v -224 -16 0
v -240 -32 0
v -256 -32 0
v -256 -16 0
v -240 -16 0
v -48 -48 0
v -64 -48 0
v -64 -32 0
v -48 -32 0
v -144 -48 0
v -160 -48 0
v -160 -32 0
v -144 -32 0
v -224 -48 0
v -240 -48 0
v -240 -32 0
v -224 -32 0
v -48 -64 0
v -64 -64 0
v -64 -48 0
v -48 -48 0
v -144 -64 0
v -160 -64 0
v -160 -48 0
v -144 -48 0
v -224 -64 0
v -240 -64 0
v -240 -48 0
v -224 -48 0
v -48 -80 0
v -64 -80 0
v -64 -64 0
v -48 -64 0
v -144 -80 0
v -160 -80 0
v -160 -64 0
v -144 -64 0
v -224 -80 0
v -240 -80 0
v -240 -64 0
v -224 -64 0
v -16 -112 0
v -32 -112 0
v -32 -96 0
v -16 -96 0
v -32 -112 0
v -48 -112 0
v -48 -96 0
v -32 -96 0
v -48 -112 0
v -64 -112 0
v -64 -96 0
v -48 -96 0
v -64 -112 0
v -80 -112 0
v -80 -96 0
v -64 -96 0
v -80 -112 0
v -96 -112 0
v -96 -96 0
v -80 -96 0
v -144 -112 0
v -160 -112 0
v -160 -96 0
v -144 -96 0
v -160 -112 0
v -176 -112 0
v -176 -96 0
v -160 -96 0
v -176 -112 0
v -192 -112 0
v -192 -96 0
v -176 -96 0
v -192 -112 0
v -208 -112 0
v -208 -96 0
v -192 -96 0
v -208 -112 0
v -224 -112 0
v -224 -96 0
v -208 -96 0
v -240 -112 0
v -256 -112 0
v -256 -96 0
v -240 -96 0
v 0 -128 0
v -16 -128 0
v -16 -112 0
v 0 -112 0
v -96 -128 0
v -112 -128 0
v -112 -112 0
v -96 -112 0
v -128 -128 0
v -144 -128 0
v -144 -112 0
v -128 -112 0
v -224 -128 0
v -240 -128 0
v -240 -112 0
v -224 -112 0
v -112 -144 0
v -128 -144 0
v -128 -128 0
v -112 -128 0

# Texture cooridinates (Count = 95)
vt 0.5556343 0.6176471
vt 0.5669738 0.6176471
vt 0.5669738 0.6470588
vt 0.5556343 0.6470588
vt 0.5783132 0.6176471
vt 0.5783132 0.6470588
vt 0.4989369 0.5882353
vt 0.5102764 0.5882353
vt 0.5102764 0.6176471
vt 0.4989369 0.6176471
vt 0.5216159 0.5882353
vt 0.5216159 0.6176471
vt 0.5329553 0.5882353
vt 0.5329553 0.6176471
vt 0.5442948 0.5882353
vt 0.5442948 0.6176471
vt 0.5556343 0.5882353
vt 0.5783132 0.5882353
vt 0.5896527 0.5882353
vt 0.5896527 0.6176471
vt 0.6009922 0.5882353
vt 0.6009922 0.6176471
vt 0.6123317 0.5882353
vt 0.6123317 0.6176471
vt 0.6236712 0.5882353
vt 0.6236712 0.6176471
vt 0.6350107 0.5882353
vt 0.6350107 0.6176471
vt 0.6463501 0.5882353
vt 0.6463501 0.6176471
vt 0.6576896 0.5882353
vt 0.6576896 0.6176471
vt 0.6690291 0.5882353
vt 0.6690291 0.6176471
vt 0.6803685 0.5882353
vt 0.6803685 0.6176471
vt 0.5329553 0.5588235
vt 0.5442948 0.5588235
vt 0.6009922 0.5588235
vt 0.6123317 0.5588235
vt 0.6576896 0.5588235
vt 0.6690291 0.5588235
vt 0.5329553 0.5294118
vt 0.5442948 0.5294118
vt 0.6009922 0.5294118
vt 0.6123317 0.5294118
vt 0.6576896 0.5294118
vt 0.6690291 0.5294118
vt 0.5329553 0.5
vt 0.5442948 0.5
vt 0.6009922 0.5
vt 0.6123317 0.5
vt 0.6576896 0.5
vt 0.6690291 0.5
vt 0.5102764 0.4411765
vt 0.5216159 0.4411765
vt 0.5216159 0.4705882
vt 0.5102764 0.4705882
vt 0.5329553 0.4411765
vt 0.5329553 0.4705882
vt 0.5442948 0.4411765
vt 0.5442948 0.4705882
vt 0.5556343 0.4411765
vt 0.5556343 0.4705882
vt 0.5669738 0.4411765
vt 0.5669738 0.4705882
vt 0.6009922 0.4411765
vt 0.6123317 0.4411765
vt 0.6123317 0.4705882
vt 0.6009922 0.4705882
vt 0.6236712 0.4411765
vt 0.6236712 0.4705882
vt 0.6350107 0.4411765
vt 0.6350107 0.4705882
vt 0.6463501 0.4411765
vt 0.6463501 0.4705882
vt 0.6576896 0.4411765
vt 0.6576896 0.4705882
vt 0.6690291 0.4411765
vt 0.6803685 0.4411765
vt 0.6803685 0.4705882
vt 0.6690291 0.4705882
vt 0.4989369 0.4117647
vt 0.5102764 0.4117647
vt 0.4989369 0.4411765
vt 0.5669738 0.4117647
vt 0.5783132 0.4117647
vt 0.5783132 0.4411765
vt 0.5896527 0.4117647
vt 0.6009922 0.4117647
vt 0.5896527 0.4411765
vt 0.6576896 0.4117647
vt 0.6690291 0.4117647
vt 0.5783132 0.3823529
vt 0.5896527 0.3823529

# Normal
vn 0 0 -1

# Mesh description
g Map1_mesh_0319

# Faces
f 1/1/1 2/2/1 3/3/1 4/4/1
f 5/2/1 6/5/1 7/6/1 8/3/1
f 9/7/1 10/8/1 11/9/1 12/10/1
f 13/8/1 14/11/1 15/12/1 16/9/1
f 17/11/1 18/13/1 19/14/1 20/12/1
f 21/13/1 22/15/1 23/16/1 24/14/1
f 25/15/1 26/17/1 27/1/1 28/16/1
f 29/18/1 30/19/1 31/20/1 32/5/1
f 33/19/1 34/21/1 35/22/1 36/20/1
f 37/21/1 38/23/1 39/24/1 40/22/1
f 41/23/1 42/25/1 43/26/1 44/24/1
f 45/25/1 46/27/1 47/28/1 48/26/1
f 49/27/1 50/29/1 51/30/1 52/28/1
f 53/29/1 54/31/1 55/32/1 56/30/1
f 57/31/1 58/33/1 59/34/1 60/32/1
f 61/33/1 62/35/1 63/36/1 64/34/1
f 65/37/1 66/38/1 67/15/1 68/13/1
f 69/39/1 70/40/1 71/23/1 72/21/1
f 73/41/1 74/42/1 75/33/1 76/31/1
f 77/43/1 78/44/1 79/38/1 80/37/1
f 81/45/1 82/46/1 83/40/1 84/39/1
f 85/47/1 86/48/1 87/42/1 88/41/1
f 89/49/1 90/50/1 91/44/1 92/43/1
f 93/51/1 94/52/1 95/46/1 96/45/1
f 97/53/1 98/54/1 99/48/1 100/47/1
f 101/55/1 102/56/1 103/57/1 104/58/1
f 105/56/1 106/59/1 107/60/1 108/57/1
f 109/59/1 110/61/1 111/62/1 112/60/1
f 113/61/1 114/63/1 115/64/1 116/62/1
f 117/63/1 118/65/1 119/66/1 120/64/1
f 121/67/1 122/68/1 123/69/1 124/70/1
f 125/68/1 126/71/1 127/72/1 128/69/1
f 129/71/1 130/73/1 131/74/1 132/72/1
f 133/73/1 134/75/1 135/76/1 136/74/1
f 137/75/1 138/77/1 139/78/1 140/76/1
f 141/79/1 142/80/1 143/81/1 144/82/1
f 145/83/1 146/84/1 147/55/1 148/85/1
f 149/86/1 150/87/1 151/88/1 152/65/1
f 153/89/1 154/90/1 155/67/1 156/91/1
f 157/92/1 158/93/1 159/79/1 160/77/1
f 161/94/1 162/95/1 163/89/1 164/87/1

