# Tiled2Unity generated file. Do not modify by hand.
# Wavefront file for 'Map1_mesh_0062.obj'

# Vertices (Count = 512)
v 0 -144 0
v -16 -144 0
v -16 -128 0
v 0 -128 0
v -16 -144 0
v -32 -144 0
v -32 -128 0
v -16 -128 0
v -32 -144 0
v -48 -144 0
v -48 -128 0
v -32 -128 0
v -48 -144 0
v -64 -144 0
v -64 -128 0
v -48 -128 0
v -64 -144 0
v -80 -144 0
v -80 -128 0
v -64 -128 0
v -80 -144 0
v -96 -144 0
v -96 -128 0
v -80 -128 0
v -96 -144 0
v -112 -144 0
v -112 -128 0
v -96 -128 0
v -112 -144 0
v -128 -144 0
v -128 -128 0
v -112 -128 0
v -128 -144 0
v -144 -144 0
v -144 -128 0
v -128 -128 0
v -144 -144 0
v -160 -144 0
v -160 -128 0
v -144 -128 0
v -160 -144 0
v -176 -144 0
v -176 -128 0
v -160 -128 0
v -176 -144 0
v -192 -144 0
v -192 -128 0
v -176 -128 0
v -192 -144 0
v -208 -144 0
v -208 -128 0
v -192 -128 0
v -208 -144 0
v -224 -144 0
v -224 -128 0
v -208 -128 0
v -224 -144 0
v -240 -144 0
v -240 -128 0
v -224 -128 0
v -240 -144 0
v -256 -144 0
v -256 -128 0
v -240 -128 0
v 0 -160 0
v -16 -160 0
v -16 -144 0
v 0 -144 0
v -16 -160 0
v -32 -160 0
v -32 -144 0
v -16 -144 0
v -32 -160 0
v -48 -160 0
v -48 -144 0
v -32 -144 0
v -48 -160 0
v -64 -160 0
v -64 -144 0
v -48 -144 0
v -64 -160 0
v -80 -160 0
v -80 -144 0
v -64 -144 0
v -80 -160 0
v -96 -160 0
v -96 -144 0
v -80 -144 0
v -96 -160 0
v -112 -160 0
v -112 -144 0
v -96 -144 0
v -112 -160 0
v -128 -160 0
v -128 -144 0
v -112 -144 0
v -128 -160 0
v -144 -160 0
v -144 -144 0
v -128 -144 0
v -144 -160 0
v -160 -160 0
v -160 -144 0
v -144 -144 0
v -160 -160 0
v -176 -160 0
v -176 -144 0
v -160 -144 0
v -176 -160 0
v -192 -160 0
v -192 -144 0
v -176 -144 0
v -192 -160 0
v -208 -160 0
v -208 -144 0
v -192 -144 0
v -208 -160 0
v -224 -160 0
v -224 -144 0
v -208 -144 0
v -224 -160 0
v -240 -160 0
v -240 -144 0
v -224 -144 0
v -240 -160 0
v -256 -160 0
v -256 -144 0
v -240 -144 0
v 0 -176 0
v -16 -176 0
v -16 -160 0
v 0 -160 0
v -16 -176 0
v -32 -176 0
v -32 -160 0
v -16 -160 0
v -32 -176 0
v -48 -176 0
v -48 -160 0
v -32 -160 0
v -48 -176 0
v -64 -176 0
v -64 -160 0
v -48 -160 0
v -64 -176 0
v -80 -176 0
v -80 -160 0
v -64 -160 0
v -80 -176 0
v -96 -176 0
v -96 -160 0
v -80 -160 0
v -96 -176 0
v -112 -176 0
v -112 -160 0
v -96 -160 0
v -112 -176 0
v -128 -176 0
v -128 -160 0
v -112 -160 0
v -128 -176 0
v -144 -176 0
v -144 -160 0
v -128 -160 0
v -144 -176 0
v -160 -176 0
v -160 -160 0
v -144 -160 0
v -160 -176 0
v -176 -176 0
v -176 -160 0
v -160 -160 0
v -176 -176 0
v -192 -176 0
v -192 -160 0
v -176 -160 0
v -192 -176 0
v -208 -176 0
v -208 -160 0
v -192 -160 0
v -208 -176 0
v -224 -176 0
v -224 -160 0
v -208 -160 0
v -224 -176 0
v -240 -176 0
v -240 -160 0
v -224 -160 0
v -240 -176 0
v -256 -176 0
v -256 -160 0
v -240 -160 0
v 0 -192 0
v -16 -192 0
v -16 -176 0
v 0 -176 0
v -16 -192 0
v -32 -192 0
v -32 -176 0
v -16 -176 0
v -32 -192 0
v -48 -192 0
v -48 -176 0
v -32 -176 0
v -48 -192 0
v -64 -192 0
v -64 -176 0
v -48 -176 0
v -64 -192 0
v -80 -192 0
v -80 -176 0
v -64 -176 0
v -80 -192 0
v -96 -192 0
v -96 -176 0
v -80 -176 0
v -96 -192 0
v -112 -192 0
v -112 -176 0
v -96 -176 0
v -112 -192 0
v -128 -192 0
v -128 -176 0
v -112 -176 0
v -128 -192 0
v -144 -192 0
v -144 -176 0
v -128 -176 0
v -144 -192 0
v -160 -192 0
v -160 -176 0
v -144 -176 0
v -160 -192 0
v -176 -192 0
v -176 -176 0
v -160 -176 0
v -176 -192 0
v -192 -192 0
v -192 -176 0
v -176 -176 0
v -192 -192 0
v -208 -192 0
v -208 -176 0
v -192 -176 0
v -208 -192 0
v -224 -192 0
v -224 -176 0
v -208 -176 0
v -224 -192 0
v -240 -192 0
v -240 -176 0
v -224 -176 0
v -240 -192 0
v -256 -192 0
v -256 -176 0
v -240 -176 0
v 0 -208 0
v -16 -208 0
v -16 -192 0
v 0 -192 0
v -16 -208 0
v -32 -208 0
v -32 -192 0
v -16 -192 0
v -32 -208 0
v -48 -208 0
v -48 -192 0
v -32 -192 0
v -48 -208 0
v -64 -208 0
v -64 -192 0
v -48 -192 0
v -64 -208 0
v -80 -208 0
v -80 -192 0
v -64 -192 0
v -80 -208 0
v -96 -208 0
v -96 -192 0
v -80 -192 0
v -96 -208 0
v -112 -208 0
v -112 -192 0
v -96 -192 0
v -112 -208 0
v -128 -208 0
v -128 -192 0
v -112 -192 0
v -128 -208 0
v -144 -208 0
v -144 -192 0
v -128 -192 0
v -144 -208 0
v -160 -208 0
v -160 -192 0
v -144 -192 0
v -160 -208 0
v -176 -208 0
v -176 -192 0
v -160 -192 0
v -176 -208 0
v -192 -208 0
v -192 -192 0
v -176 -192 0
v -192 -208 0
v -208 -208 0
v -208 -192 0
v -192 -192 0
v -208 -208 0
v -224 -208 0
v -224 -192 0
v -208 -192 0
v -224 -208 0
v -240 -208 0
v -240 -192 0
v -224 -192 0
v -240 -208 0
v -256 -208 0
v -256 -192 0
v -240 -192 0
v 0 -224 0
v -16 -224 0
v -16 -208 0
v 0 -208 0
v -16 -224 0
v -32 -224 0
v -32 -208 0
v -16 -208 0
v -32 -224 0
v -48 -224 0
v -48 -208 0
v -32 -208 0
v -48 -224 0
v -64 -224 0
v -64 -208 0
v -48 -208 0
v -64 -224 0
v -80 -224 0
v -80 -208 0
v -64 -208 0
v -80 -224 0
v -96 -224 0
v -96 -208 0
v -80 -208 0
v -96 -224 0
v -112 -224 0
v -112 -208 0
v -96 -208 0
v -112 -224 0
v -128 -224 0
v -128 -208 0
v -112 -208 0
v -128 -224 0
v -144 -224 0
v -144 -208 0
v -128 -208 0
v -144 -224 0
v -160 -224 0
v -160 -208 0
v -144 -208 0
v -160 -224 0
v -176 -224 0
v -176 -208 0
v -160 -208 0
v -176 -224 0
v -192 -224 0
v -192 -208 0
v -176 -208 0
v -192 -224 0
v -208 -224 0
v -208 -208 0
v -192 -208 0
v -208 -224 0
v -224 -224 0
v -224 -208 0
v -208 -208 0
v -224 -224 0
v -240 -224 0
v -240 -208 0
v -224 -208 0
v -240 -224 0
v -256 -224 0
v -256 -208 0
v -240 -208 0
v 0 -240 0
v -16 -240 0
v -16 -224 0
v 0 -224 0
v -16 -240 0
v -32 -240 0
v -32 -224 0
v -16 -224 0
v -32 -240 0
v -48 -240 0
v -48 -224 0
v -32 -224 0
v -48 -240 0
v -64 -240 0
v -64 -224 0
v -48 -224 0
v -64 -240 0
v -80 -240 0
v -80 -224 0
v -64 -224 0
v -80 -240 0
v -96 -240 0
v -96 -224 0
v -80 -224 0
v -96 -240 0
v -112 -240 0
v -112 -224 0
v -96 -224 0
v -112 -240 0
v -128 -240 0
v -128 -224 0
v -112 -224 0
v -128 -240 0
v -144 -240 0
v -144 -224 0
v -128 -224 0
v -144 -240 0
v -160 -240 0
v -160 -224 0
v -144 -224 0
v -160 -240 0
v -176 -240 0
v -176 -224 0
v -160 -224 0
v -176 -240 0
v -192 -240 0
v -192 -224 0
v -176 -224 0
v -192 -240 0
v -208 -240 0
v -208 -224 0
v -192 -224 0
v -208 -240 0
v -224 -240 0
v -224 -224 0
v -208 -224 0
v -224 -240 0
v -240 -240 0
v -240 -224 0
v -224 -224 0
v -240 -240 0
v -256 -240 0
v -256 -224 0
v -240 -224 0
v 0 -256 0
v -16 -256 0
v -16 -240 0
v 0 -240 0
v -16 -256 0
v -32 -256 0
v -32 -240 0
v -16 -240 0
v -32 -256 0
v -48 -256 0
v -48 -240 0
v -32 -240 0
v -48 -256 0
v -64 -256 0
v -64 -240 0
v -48 -240 0
v -64 -256 0
v -80 -256 0
v -80 -240 0
v -64 -240 0
v -80 -256 0
v -96 -256 0
v -96 -240 0
v -80 -240 0
v -96 -256 0
v -112 -256 0
v -112 -240 0
v -96 -240 0
v -112 -256 0
v -128 -256 0
v -128 -240 0
v -112 -240 0
v -128 -256 0
v -144 -256 0
v -144 -240 0
v -128 -240 0
v -144 -256 0
v -160 -256 0
v -160 -240 0
v -144 -240 0
v -160 -256 0
v -176 -256 0
v -176 -240 0
v -160 -240 0
v -176 -256 0
v -192 -256 0
v -192 -240 0
v -176 -240 0
v -192 -256 0
v -208 -256 0
v -208 -240 0
v -192 -240 0
v -208 -256 0
v -224 -256 0
v -224 -240 0
v -208 -240 0
v -224 -256 0
v -240 -256 0
v -240 -240 0
v -224 -240 0
v -240 -256 0
v -256 -256 0
v -256 -240 0
v -240 -240 0

# Texture cooridinates (Count = 171)
vt 0.5428572 0.9770115
vt 0.5714286 0.9770115
vt 0.5714286 1
vt 0.5428572 1
vt 0.6 0.9770115
vt 0.6 1
vt 0.6285715 0.9770115
vt 0.6285715 1
vt 0.6571429 0.9770115
vt 0.6571429 1
vt 0.6857143 0.9770115
vt 0.7142857 0.9770115
vt 0.7142857 1
vt 0.6857143 1
vt 0.7428572 0.9770115
vt 0.7428572 1
vt 0.7714286 0.9770115
vt 0.7714286 1
vt 0.8 0.9770115
vt 0.8 1
vt 0.8285714 0.9770115
vt 0.8285714 1
vt 0.8571429 0.9770115
vt 0.8571429 1
vt 0.8857143 0.9770115
vt 0.8857143 1
vt 0.9142857 0.9770115
vt 0.9142857 1
vt 0.9428571 0.9770115
vt 0.9428571 1
vt 0.9714286 0.9770115
vt 0.9714286 1
vt 1 0.9770115
vt 1 1
vt 0 0.9770115
vt 0.02857143 0.9770115
vt 0.02857143 1
vt 0 1
vt 0.5428572 0.954023
vt 0.5714286 0.954023
vt 0.6 0.954023
vt 0.6285715 0.954023
vt 0.6571429 0.954023
vt 0.6857143 0.954023
vt 0.7142857 0.954023
vt 0.7428572 0.954023
vt 0.7714286 0.954023
vt 0.8 0.954023
vt 0.8285714 0.954023
vt 0.8571429 0.954023
vt 0.8857143 0.954023
vt 0.9142857 0.954023
vt 0.9428571 0.954023
vt 0.9714286 0.954023
vt 1 0.954023
vt 0 0.954023
vt 0.02857143 0.954023
vt 0.5428572 0.9310345
vt 0.5714286 0.9310345
vt 0.6 0.9310345
vt 0.6285715 0.9310345
vt 0.6571429 0.9310345
vt 0.6857143 0.9310345
vt 0.7142857 0.9310345
vt 0.7428572 0.9310345
vt 0.7714286 0.9310345
vt 0.8 0.9310345
vt 0.8285714 0.9310345
vt 0.8571429 0.9310345
vt 0.8857143 0.9310345
vt 0.9142857 0.9310345
vt 0.9428571 0.9310345
vt 0.9714286 0.9310345
vt 1 0.9310345
vt 0 0.9310345
vt 0.02857143 0.9310345
vt 0.5428572 0.908046
vt 0.5714286 0.908046
vt 0.6 0.908046
vt 0.6285715 0.908046
vt 0.6571429 0.908046
vt 0.6857143 0.908046
vt 0.7142857 0.908046
vt 0.7428572 0.908046
vt 0.7714286 0.908046
vt 0.8 0.908046
vt 0.8285714 0.908046
vt 0.8571429 0.908046
vt 0.8857143 0.908046
vt 0.9142857 0.908046
vt 0.9428571 0.908046
vt 0.9714286 0.908046
vt 1 0.908046
vt 0 0.908046
vt 0.02857143 0.908046
vt 0.5428572 0.8850574
vt 0.5714286 0.8850574
vt 0.6 0.8850574
vt 0.6285715 0.8850574
vt 0.6571429 0.8850574
vt 0.6857143 0.8850574
vt 0.7142857 0.8850574
vt 0.7428572 0.8850574
vt 0.7714286 0.8850574
vt 0.8 0.8850574
vt 0.8285714 0.8850574
vt 0.8571429 0.8850574
vt 0.8857143 0.8850574
vt 0.9142857 0.8850574
vt 0.9428571 0.8850574
vt 0.9714286 0.8850574
vt 1 0.8850574
vt 0 0.8850574
vt 0.02857143 0.8850574
vt 0.5428572 0.862069
vt 0.5714286 0.862069
vt 0.6 0.862069
vt 0.6285715 0.862069
vt 0.6571429 0.862069
vt 0.6857143 0.862069
vt 0.7142857 0.862069
vt 0.7428572 0.862069
vt 0.7714286 0.862069
vt 0.8 0.862069
vt 0.8285714 0.862069
vt 0.8571429 0.862069
vt 0.8857143 0.862069
vt 0.9142857 0.862069
vt 0.9428571 0.862069
vt 0.9714286 0.862069
vt 1 0.862069
vt 0 0.862069
vt 0.02857143 0.862069
vt 0.5428572 0.8390805
vt 0.5714286 0.8390805
vt 0.6 0.8390805
vt 0.6285715 0.8390805
vt 0.6571429 0.8390805
vt 0.6857143 0.8390805
vt 0.7142857 0.8390805
vt 0.7428572 0.8390805
vt 0.7714286 0.8390805
vt 0.8 0.8390805
vt 0.8285714 0.8390805
vt 0.8571429 0.8390805
vt 0.8857143 0.8390805
vt 0.9142857 0.8390805
vt 0.9428571 0.8390805
vt 0.9714286 0.8390805
vt 1 0.8390805
vt 0 0.8390805
vt 0.02857143 0.8390805
vt 0.5428572 0.816092
vt 0.5714286 0.816092
vt 0.6 0.816092
vt 0.6285715 0.816092
vt 0.6571429 0.816092
vt 0.6857143 0.816092
vt 0.7142857 0.816092
vt 0.7428572 0.816092
vt 0.7714286 0.816092
vt 0.8 0.816092
vt 0.8285714 0.816092
vt 0.8571429 0.816092
vt 0.8857143 0.816092
vt 0.9142857 0.816092
vt 0.9428571 0.816092
vt 0.9714286 0.816092
vt 1 0.816092
vt 0 0.816092
vt 0.02857143 0.816092

# Normal
vn 0 0 -1

# Mesh description
g Map1_mesh_0062

# Faces
f 1/1/1 2/2/1 3/3/1 4/4/1
f 5/2/1 6/5/1 7/6/1 8/3/1
f 9/5/1 10/7/1 11/8/1 12/6/1
f 13/7/1 14/9/1 15/10/1 16/8/1
f 17/11/1 18/12/1 19/13/1 20/14/1
f 21/12/1 22/15/1 23/16/1 24/13/1
f 25/15/1 26/17/1 27/18/1 28/16/1
f 29/17/1 30/19/1 31/20/1 32/18/1
f 33/19/1 34/21/1 35/22/1 36/20/1
f 37/21/1 38/23/1 39/24/1 40/22/1
f 41/23/1 42/25/1 43/26/1 44/24/1
f 45/25/1 46/27/1 47/28/1 48/26/1
f 49/27/1 50/29/1 51/30/1 52/28/1
f 53/29/1 54/31/1 55/32/1 56/30/1
f 57/31/1 58/33/1 59/34/1 60/32/1
f 61/35/1 62/36/1 63/37/1 64/38/1
f 65/39/1 66/40/1 67/2/1 68/1/1
f 69/40/1 70/41/1 71/5/1 72/2/1
f 73/41/1 74/42/1 75/7/1 76/5/1
f 77/42/1 78/43/1 79/9/1 80/7/1
f 81/44/1 82/45/1 83/12/1 84/11/1
f 85/45/1 86/46/1 87/15/1 88/12/1
f 89/46/1 90/47/1 91/17/1 92/15/1
f 93/47/1 94/48/1 95/19/1 96/17/1
f 97/48/1 98/49/1 99/21/1 100/19/1
f 101/49/1 102/50/1 103/23/1 104/21/1
f 105/50/1 106/51/1 107/25/1 108/23/1
f 109/51/1 110/52/1 111/27/1 112/25/1
f 113/52/1 114/53/1 115/29/1 116/27/1
f 117/53/1 118/54/1 119/31/1 120/29/1
f 121/54/1 122/55/1 123/33/1 124/31/1
f 125/56/1 126/57/1 127/36/1 128/35/1
f 129/58/1 130/59/1 131/40/1 132/39/1
f 133/59/1 134/60/1 135/41/1 136/40/1
f 137/60/1 138/61/1 139/42/1 140/41/1
f 141/61/1 142/62/1 143/43/1 144/42/1
f 145/63/1 146/64/1 147/45/1 148/44/1
f 149/64/1 150/65/1 151/46/1 152/45/1
f 153/65/1 154/66/1 155/47/1 156/46/1
f 157/66/1 158/67/1 159/48/1 160/47/1
f 161/67/1 162/68/1 163/49/1 164/48/1
f 165/68/1 166/69/1 167/50/1 168/49/1
f 169/69/1 170/70/1 171/51/1 172/50/1
f 173/70/1 174/71/1 175/52/1 176/51/1
f 177/71/1 178/72/1 179/53/1 180/52/1
f 181/72/1 182/73/1 183/54/1 184/53/1
f 185/73/1 186/74/1 187/55/1 188/54/1
f 189/75/1 190/76/1 191/57/1 192/56/1
f 193/77/1 194/78/1 195/59/1 196/58/1
f 197/78/1 198/79/1 199/60/1 200/59/1
f 201/79/1 202/80/1 203/61/1 204/60/1
f 205/80/1 206/81/1 207/62/1 208/61/1
f 209/82/1 210/83/1 211/64/1 212/63/1
f 213/83/1 214/84/1 215/65/1 216/64/1
f 217/84/1 218/85/1 219/66/1 220/65/1
f 221/85/1 222/86/1 223/67/1 224/66/1
f 225/86/1 226/87/1 227/68/1 228/67/1
f 229/87/1 230/88/1 231/69/1 232/68/1
f 233/88/1 234/89/1 235/70/1 236/69/1
f 237/89/1 238/90/1 239/71/1 240/70/1
f 241/90/1 242/91/1 243/72/1 244/71/1
f 245/91/1 246/92/1 247/73/1 248/72/1
f 249/92/1 250/93/1 251/74/1 252/73/1
f 253/94/1 254/95/1 255/76/1 256/75/1
f 257/96/1 258/97/1 259/78/1 260/77/1
f 261/97/1 262/98/1 263/79/1 264/78/1
f 265/98/1 266/99/1 267/80/1 268/79/1
f 269/99/1 270/100/1 271/81/1 272/80/1
f 273/101/1 274/102/1 275/83/1 276/82/1
f 277/102/1 278/103/1 279/84/1 280/83/1
f 281/103/1 282/104/1 283/85/1 284/84/1
f 285/104/1 286/105/1 287/86/1 288/85/1
f 289/105/1 290/106/1 291/87/1 292/86/1
f 293/106/1 294/107/1 295/88/1 296/87/1
f 297/107/1 298/108/1 299/89/1 300/88/1
f 301/108/1 302/109/1 303/90/1 304/89/1
f 305/109/1 306/110/1 307/91/1 308/90/1
f 309/110/1 310/111/1 311/92/1 312/91/1
f 313/111/1 314/112/1 315/93/1 316/92/1
f 317/113/1 318/114/1 319/95/1 320/94/1
f 321/115/1 322/116/1 323/97/1 324/96/1
f 325/116/1 326/117/1 327/98/1 328/97/1
f 329/117/1 330/118/1 331/99/1 332/98/1
f 333/118/1 334/119/1 335/100/1 336/99/1
f 337/120/1 338/121/1 339/102/1 340/101/1
f 341/121/1 342/122/1 343/103/1 344/102/1
f 345/122/1 346/123/1 347/104/1 348/103/1
f 349/123/1 350/124/1 351/105/1 352/104/1
f 353/124/1 354/125/1 355/106/1 356/105/1
f 357/125/1 358/126/1 359/107/1 360/106/1
f 361/126/1 362/127/1 363/108/1 364/107/1
f 365/127/1 366/128/1 367/109/1 368/108/1
f 369/128/1 370/129/1 371/110/1 372/109/1
f 373/129/1 374/130/1 375/111/1 376/110/1
f 377/130/1 378/131/1 379/112/1 380/111/1
f 381/132/1 382/133/1 383/114/1 384/113/1
f 385/134/1 386/135/1 387/116/1 388/115/1
f 389/135/1 390/136/1 391/117/1 392/116/1
f 393/136/1 394/137/1 395/118/1 396/117/1
f 397/137/1 398/138/1 399/119/1 400/118/1
f 401/139/1 402/140/1 403/121/1 404/120/1
f 405/140/1 406/141/1 407/122/1 408/121/1
f 409/141/1 410/142/1 411/123/1 412/122/1
f 413/142/1 414/143/1 415/124/1 416/123/1
f 417/143/1 418/144/1 419/125/1 420/124/1
f 421/144/1 422/145/1 423/126/1 424/125/1
f 425/145/1 426/146/1 427/127/1 428/126/1
f 429/146/1 430/147/1 431/128/1 432/127/1
f 433/147/1 434/148/1 435/129/1 436/128/1
f 437/148/1 438/149/1 439/130/1 440/129/1
f 441/149/1 442/150/1 443/131/1 444/130/1
f 445/151/1 446/152/1 447/133/1 448/132/1
f 449/153/1 450/154/1 451/135/1 452/134/1
f 453/154/1 454/155/1 455/136/1 456/135/1
f 457/155/1 458/156/1 459/137/1 460/136/1
f 461/156/1 462/157/1 463/138/1 464/137/1
f 465/158/1 466/159/1 467/140/1 468/139/1
f 469/159/1 470/160/1 471/141/1 472/140/1
f 473/160/1 474/161/1 475/142/1 476/141/1
f 477/161/1 478/162/1 479/143/1 480/142/1
f 481/162/1 482/163/1 483/144/1 484/143/1
f 485/163/1 486/164/1 487/145/1 488/144/1
f 489/164/1 490/165/1 491/146/1 492/145/1
f 493/165/1 494/166/1 495/147/1 496/146/1
f 497/166/1 498/167/1 499/148/1 500/147/1
f 501/167/1 502/168/1 503/149/1 504/148/1
f 505/168/1 506/169/1 507/150/1 508/149/1
f 509/170/1 510/171/1 511/152/1 512/151/1

