# Tiled2Unity generated file. Do not modify by hand.
# Wavefront file for 'Map1_mesh_0099.obj'

# Vertices (Count = 512)
v 0 -16 0
v -16 -16 0
v -16 0 0
v 0 0 0
v -16 -16 0
v -32 -16 0
v -32 0 0
v -16 0 0
v -32 -16 0
v -48 -16 0
v -48 0 0
v -32 0 0
v -48 -16 0
v -64 -16 0
v -64 0 0
v -48 0 0
v -64 -16 0
v -80 -16 0
v -80 0 0
v -64 0 0
v -80 -16 0
v -96 -16 0
v -96 0 0
v -80 0 0
v -96 -16 0
v -112 -16 0
v -112 0 0
v -96 0 0
v -112 -16 0
v -128 -16 0
v -128 0 0
v -112 0 0
v -128 -16 0
v -144 -16 0
v -144 0 0
v -128 0 0
v -144 -16 0
v -160 -16 0
v -160 0 0
v -144 0 0
v -160 -16 0
v -176 -16 0
v -176 0 0
v -160 0 0
v -176 -16 0
v -192 -16 0
v -192 0 0
v -176 0 0
v -192 -16 0
v -208 -16 0
v -208 0 0
v -192 0 0
v -208 -16 0
v -224 -16 0
v -224 0 0
v -208 0 0
v -224 -16 0
v -240 -16 0
v -240 0 0
v -224 0 0
v -240 -16 0
v -256 -16 0
v -256 0 0
v -240 0 0
v 0 -160 0
v -16 -160 0
v -16 -144 0
v 0 -144 0
v -16 -160 0
v -32 -160 0
v -32 -144 0
v -16 -144 0
v -32 -160 0
v -48 -160 0
v -48 -144 0
v -32 -144 0
v -48 -160 0
v -64 -160 0
v -64 -144 0
v -48 -144 0
v -64 -160 0
v -80 -160 0
v -80 -144 0
v -64 -144 0
v -80 -160 0
v -96 -160 0
v -96 -144 0
v -80 -144 0
v -96 -160 0
v -112 -160 0
v -112 -144 0
v -96 -144 0
v -112 -160 0
v -128 -160 0
v -128 -144 0
v -112 -144 0
v -128 -160 0
v -144 -160 0
v -144 -144 0
v -128 -144 0
v -144 -160 0
v -160 -160 0
v -160 -144 0
v -144 -144 0
v -160 -160 0
v -176 -160 0
v -176 -144 0
v -160 -144 0
v -176 -160 0
v -192 -160 0
v -192 -144 0
v -176 -144 0
v -192 -160 0
v -208 -160 0
v -208 -144 0
v -192 -144 0
v -208 -160 0
v -224 -160 0
v -224 -144 0
v -208 -144 0
v -224 -160 0
v -240 -160 0
v -240 -144 0
v -224 -144 0
v -240 -160 0
v -256 -160 0
v -256 -144 0
v -240 -144 0
v 0 -176 0
v -16 -176 0
v -16 -160 0
v 0 -160 0
v -16 -176 0
v -32 -176 0
v -32 -160 0
v -16 -160 0
v -32 -176 0
v -48 -176 0
v -48 -160 0
v -32 -160 0
v -48 -176 0
v -64 -176 0
v -64 -160 0
v -48 -160 0
v -64 -176 0
v -80 -176 0
v -80 -160 0
v -64 -160 0
v -80 -176 0
v -96 -176 0
v -96 -160 0
v -80 -160 0
v -96 -176 0
v -112 -176 0
v -112 -160 0
v -96 -160 0
v -112 -176 0
v -128 -176 0
v -128 -160 0
v -112 -160 0
v -128 -176 0
v -144 -176 0
v -144 -160 0
v -128 -160 0
v -144 -176 0
v -160 -176 0
v -160 -160 0
v -144 -160 0
v -160 -176 0
v -176 -176 0
v -176 -160 0
v -160 -160 0
v -176 -176 0
v -192 -176 0
v -192 -160 0
v -176 -160 0
v -192 -176 0
v -208 -176 0
v -208 -160 0
v -192 -160 0
v -208 -176 0
v -224 -176 0
v -224 -160 0
v -208 -160 0
v -224 -176 0
v -240 -176 0
v -240 -160 0
v -224 -160 0
v -240 -176 0
v -256 -176 0
v -256 -160 0
v -240 -160 0
v 0 -192 0
v -16 -192 0
v -16 -176 0
v 0 -176 0
v -16 -192 0
v -32 -192 0
v -32 -176 0
v -16 -176 0
v -32 -192 0
v -48 -192 0
v -48 -176 0
v -32 -176 0
v -48 -192 0
v -64 -192 0
v -64 -176 0
v -48 -176 0
v -64 -192 0
v -80 -192 0
v -80 -176 0
v -64 -176 0
v -80 -192 0
v -96 -192 0
v -96 -176 0
v -80 -176 0
v -96 -192 0
v -112 -192 0
v -112 -176 0
v -96 -176 0
v -112 -192 0
v -128 -192 0
v -128 -176 0
v -112 -176 0
v -128 -192 0
v -144 -192 0
v -144 -176 0
v -128 -176 0
v -144 -192 0
v -160 -192 0
v -160 -176 0
v -144 -176 0
v -160 -192 0
v -176 -192 0
v -176 -176 0
v -160 -176 0
v -176 -192 0
v -192 -192 0
v -192 -176 0
v -176 -176 0
v -192 -192 0
v -208 -192 0
v -208 -176 0
v -192 -176 0
v -208 -192 0
v -224 -192 0
v -224 -176 0
v -208 -176 0
v -224 -192 0
v -240 -192 0
v -240 -176 0
v -224 -176 0
v -240 -192 0
v -256 -192 0
v -256 -176 0
v -240 -176 0
v 0 -208 0
v -16 -208 0
v -16 -192 0
v 0 -192 0
v -16 -208 0
v -32 -208 0
v -32 -192 0
v -16 -192 0
v -32 -208 0
v -48 -208 0
v -48 -192 0
v -32 -192 0
v -48 -208 0
v -64 -208 0
v -64 -192 0
v -48 -192 0
v -64 -208 0
v -80 -208 0
v -80 -192 0
v -64 -192 0
v -80 -208 0
v -96 -208 0
v -96 -192 0
v -80 -192 0
v -96 -208 0
v -112 -208 0
v -112 -192 0
v -96 -192 0
v -112 -208 0
v -128 -208 0
v -128 -192 0
v -112 -192 0
v -128 -208 0
v -144 -208 0
v -144 -192 0
v -128 -192 0
v -144 -208 0
v -160 -208 0
v -160 -192 0
v -144 -192 0
v -160 -208 0
v -176 -208 0
v -176 -192 0
v -160 -192 0
v -176 -208 0
v -192 -208 0
v -192 -192 0
v -176 -192 0
v -192 -208 0
v -208 -208 0
v -208 -192 0
v -192 -192 0
v -208 -208 0
v -224 -208 0
v -224 -192 0
v -208 -192 0
v -224 -208 0
v -240 -208 0
v -240 -192 0
v -224 -192 0
v -240 -208 0
v -256 -208 0
v -256 -192 0
v -240 -192 0
v 0 -224 0
v -16 -224 0
v -16 -208 0
v 0 -208 0
v -16 -224 0
v -32 -224 0
v -32 -208 0
v -16 -208 0
v -32 -224 0
v -48 -224 0
v -48 -208 0
v -32 -208 0
v -48 -224 0
v -64 -224 0
v -64 -208 0
v -48 -208 0
v -64 -224 0
v -80 -224 0
v -80 -208 0
v -64 -208 0
v -80 -224 0
v -96 -224 0
v -96 -208 0
v -80 -208 0
v -96 -224 0
v -112 -224 0
v -112 -208 0
v -96 -208 0
v -112 -224 0
v -128 -224 0
v -128 -208 0
v -112 -208 0
v -128 -224 0
v -144 -224 0
v -144 -208 0
v -128 -208 0
v -144 -224 0
v -160 -224 0
v -160 -208 0
v -144 -208 0
v -160 -224 0
v -176 -224 0
v -176 -208 0
v -160 -208 0
v -176 -224 0
v -192 -224 0
v -192 -208 0
v -176 -208 0
v -192 -224 0
v -208 -224 0
v -208 -208 0
v -192 -208 0
v -208 -224 0
v -224 -224 0
v -224 -208 0
v -208 -208 0
v -224 -224 0
v -240 -224 0
v -240 -208 0
v -224 -208 0
v -240 -224 0
v -256 -224 0
v -256 -208 0
v -240 -208 0
v 0 -240 0
v -16 -240 0
v -16 -224 0
v 0 -224 0
v -16 -240 0
v -32 -240 0
v -32 -224 0
v -16 -224 0
v -32 -240 0
v -48 -240 0
v -48 -224 0
v -32 -224 0
v -48 -240 0
v -64 -240 0
v -64 -224 0
v -48 -224 0
v -64 -240 0
v -80 -240 0
v -80 -224 0
v -64 -224 0
v -80 -240 0
v -96 -240 0
v -96 -224 0
v -80 -224 0
v -96 -240 0
v -112 -240 0
v -112 -224 0
v -96 -224 0
v -112 -240 0
v -128 -240 0
v -128 -224 0
v -112 -224 0
v -128 -240 0
v -144 -240 0
v -144 -224 0
v -128 -224 0
v -144 -240 0
v -160 -240 0
v -160 -224 0
v -144 -224 0
v -160 -240 0
v -176 -240 0
v -176 -224 0
v -160 -224 0
v -176 -240 0
v -192 -240 0
v -192 -224 0
v -176 -224 0
v -192 -240 0
v -208 -240 0
v -208 -224 0
v -192 -224 0
v -208 -240 0
v -224 -240 0
v -224 -224 0
v -208 -224 0
v -224 -240 0
v -240 -240 0
v -240 -224 0
v -224 -224 0
v -240 -240 0
v -256 -240 0
v -256 -224 0
v -240 -224 0
v 0 -256 0
v -16 -256 0
v -16 -240 0
v 0 -240 0
v -16 -256 0
v -32 -256 0
v -32 -240 0
v -16 -240 0
v -32 -256 0
v -48 -256 0
v -48 -240 0
v -32 -240 0
v -48 -256 0
v -64 -256 0
v -64 -240 0
v -48 -240 0
v -64 -256 0
v -80 -256 0
v -80 -240 0
v -64 -240 0
v -80 -256 0
v -96 -256 0
v -96 -240 0
v -80 -240 0
v -96 -256 0
v -112 -256 0
v -112 -240 0
v -96 -240 0
v -112 -256 0
v -128 -256 0
v -128 -240 0
v -112 -240 0
v -128 -256 0
v -144 -256 0
v -144 -240 0
v -128 -240 0
v -144 -256 0
v -160 -256 0
v -160 -240 0
v -144 -240 0
v -160 -256 0
v -176 -256 0
v -176 -240 0
v -160 -240 0
v -176 -256 0
v -192 -256 0
v -192 -240 0
v -176 -240 0
v -192 -256 0
v -208 -256 0
v -208 -240 0
v -192 -240 0
v -208 -256 0
v -224 -256 0
v -224 -240 0
v -208 -240 0
v -224 -256 0
v -240 -256 0
v -240 -240 0
v -224 -240 0
v -240 -256 0
v -256 -256 0
v -256 -240 0
v -240 -240 0

# Texture cooridinates (Count = 180)
vt 0.02857143 0.7931035
vt 0.05714286 0.7931035
vt 0.05714286 0.816092
vt 0.02857143 0.816092
vt 0.08571429 0.7931035
vt 0.08571429 0.816092
vt 0.1142857 0.7931035
vt 0.1142857 0.816092
vt 0.1428571 0.7931035
vt 0.1428571 0.816092
vt 0.1714286 0.7931035
vt 0.1714286 0.816092
vt 0.2 0.7931035
vt 0.2 0.816092
vt 0.2285714 0.7931035
vt 0.2285714 0.816092
vt 0.2571429 0.7931035
vt 0.2571429 0.816092
vt 0.2857143 0.7931035
vt 0.2857143 0.816092
vt 0.3142857 0.7931035
vt 0.3142857 0.816092
vt 0.3428572 0.3333333
vt 0.3714286 0.3333333
vt 0.3714286 0.3563218
vt 0.3428572 0.3563218
vt 0.4 0.3333333
vt 0.4 0.3563218
vt 0.4285714 0.3333333
vt 0.4285714 0.3563218
vt 0.4571429 0.3333333
vt 0.4571429 0.3563218
vt 0.4857143 0.3333333
vt 0.4857143 0.3563218
vt 0.5142857 0.3333333
vt 0.5142857 0.3563218
vt 0.02857143 0.7471265
vt 0.05714286 0.7471265
vt 0.05714286 0.770115
vt 0.02857143 0.770115
vt 0.08571429 0.7471265
vt 0.08571429 0.770115
vt 0.1142857 0.7471265
vt 0.1142857 0.770115
vt 0.1428571 0.7471265
vt 0.1428571 0.770115
vt 0.1714286 0.7471265
vt 0.1714286 0.770115
vt 0.2 0.7471265
vt 0.2 0.770115
vt 0.2285714 0.7471265
vt 0.2285714 0.770115
vt 0.2571429 0.7471265
vt 0.2571429 0.770115
vt 0.2857143 0.7471265
vt 0.2857143 0.770115
vt 0.3142857 0.7471265
vt 0.3142857 0.770115
vt 0.3428572 0.7471265
vt 0.3714286 0.7471265
vt 0.3714286 0.770115
vt 0.3428572 0.770115
vt 0.4 0.7471265
vt 0.4 0.770115
vt 0.4285714 0.7471265
vt 0.4285714 0.770115
vt 0.4571429 0.7471265
vt 0.4571429 0.770115
vt 0.4857143 0.7471265
vt 0.4857143 0.770115
vt 0.5142857 0.7471265
vt 0.5142857 0.770115
vt 0.02857143 0.7241379
vt 0.05714286 0.7241379
vt 0.08571429 0.7241379
vt 0.1142857 0.7241379
vt 0.1428571 0.7241379
vt 0.1714286 0.7241379
vt 0.2 0.7241379
vt 0.2285714 0.7241379
vt 0.2571429 0.7241379
vt 0.2857143 0.7241379
vt 0.3142857 0.7241379
vt 0.3428572 0.7241379
vt 0.3714286 0.7241379
vt 0.4 0.7241379
vt 0.4285714 0.7241379
vt 0.4571429 0.7241379
vt 0.4857143 0.7241379
vt 0.5142857 0.7241379
vt 0.02857143 0.7011495
vt 0.05714286 0.7011495
vt 0.08571429 0.7011495
vt 0.1142857 0.7011495
vt 0.1428571 0.7011495
vt 0.1714286 0.7011495
vt 0.2 0.7011495
vt 0.2285714 0.7011495
vt 0.2571429 0.7011495
vt 0.2857143 0.7011495
vt 0.3142857 0.7011495
vt 0.3428572 0.7011495
vt 0.3714286 0.7011495
vt 0.4 0.7011495
vt 0.4285714 0.7011495
vt 0.4571429 0.7011495
vt 0.4857143 0.7011495
vt 0.5142857 0.7011495
vt 0.02857143 0.6781609
vt 0.05714286 0.6781609
vt 0.08571429 0.6781609
vt 0.1142857 0.6781609
vt 0.1428571 0.6781609
vt 0.1714286 0.6781609
vt 0.2 0.6781609
vt 0.2285714 0.6781609
vt 0.2571429 0.6781609
vt 0.2857143 0.6781609
vt 0.3142857 0.6781609
vt 0.3428572 0.6781609
vt 0.3714286 0.6781609
vt 0.4 0.6781609
vt 0.4285714 0.6781609
vt 0.4571429 0.6781609
vt 0.4857143 0.6781609
vt 0.5142857 0.6781609
vt 0.02857143 0.6551724
vt 0.05714286 0.6551724
vt 0.08571429 0.6551724
vt 0.1142857 0.6551724
vt 0.1428571 0.6551724
vt 0.1714286 0.6551724
vt 0.2 0.6551724
vt 0.2285714 0.6551724
vt 0.2571429 0.6551724
vt 0.2857143 0.6551724
vt 0.3142857 0.6551724
vt 0.3428572 0.6551724
vt 0.3714286 0.6551724
vt 0.4 0.6551724
vt 0.4285714 0.6551724
vt 0.4571429 0.6551724
vt 0.4857143 0.6551724
vt 0.5142857 0.6551724
vt 0.02857143 0.6321839
vt 0.05714286 0.6321839
vt 0.08571429 0.6321839
vt 0.1142857 0.6321839
vt 0.1428571 0.6321839
vt 0.1714286 0.6321839
vt 0.2 0.6321839
vt 0.2285714 0.6321839
vt 0.2571429 0.6321839
vt 0.2857143 0.6321839
vt 0.3142857 0.6321839
vt 0.3428572 0.6321839
vt 0.3714286 0.6321839
vt 0.4 0.6321839
vt 0.4285714 0.6321839
vt 0.4571429 0.6321839
vt 0.4857143 0.6321839
vt 0.5142857 0.6321839
vt 0.02857143 0.6091954
vt 0.05714286 0.6091954
vt 0.08571429 0.6091954
vt 0.1142857 0.6091954
vt 0.1428571 0.6091954
vt 0.1714286 0.6091954
vt 0.2 0.6091954
vt 0.2285714 0.6091954
vt 0.2571429 0.6091954
vt 0.2857143 0.6091954
vt 0.3142857 0.6091954
vt 0.3428572 0.6091954
vt 0.3714286 0.6091954
vt 0.4 0.6091954
vt 0.4285714 0.6091954
vt 0.4571429 0.6091954
vt 0.4857143 0.6091954
vt 0.5142857 0.6091954

# Normal
vn 0 0 -1

# Mesh description
g Map1_mesh_0099

# Faces
f 1/1/1 2/2/1 3/3/1 4/4/1
f 5/2/1 6/5/1 7/6/1 8/3/1
f 9/5/1 10/7/1 11/8/1 12/6/1
f 13/7/1 14/9/1 15/10/1 16/8/1
f 17/9/1 18/11/1 19/12/1 20/10/1
f 21/11/1 22/13/1 23/14/1 24/12/1
f 25/13/1 26/15/1 27/16/1 28/14/1
f 29/15/1 30/17/1 31/18/1 32/16/1
f 33/17/1 34/19/1 35/20/1 36/18/1
f 37/19/1 38/21/1 39/22/1 40/20/1
f 41/23/1 42/24/1 43/25/1 44/26/1
f 45/24/1 46/27/1 47/28/1 48/25/1
f 49/27/1 50/29/1 51/30/1 52/28/1
f 53/29/1 54/31/1 55/32/1 56/30/1
f 57/31/1 58/33/1 59/34/1 60/32/1
f 61/33/1 62/35/1 63/36/1 64/34/1
f 65/37/1 66/38/1 67/39/1 68/40/1
f 69/38/1 70/41/1 71/42/1 72/39/1
f 73/41/1 74/43/1 75/44/1 76/42/1
f 77/43/1 78/45/1 79/46/1 80/44/1
f 81/45/1 82/47/1 83/48/1 84/46/1
f 85/47/1 86/49/1 87/50/1 88/48/1
f 89/49/1 90/51/1 91/52/1 92/50/1
f 93/51/1 94/53/1 95/54/1 96/52/1
f 97/53/1 98/55/1 99/56/1 100/54/1
f 101/55/1 102/57/1 103/58/1 104/56/1
f 105/59/1 106/60/1 107/61/1 108/62/1
f 109/60/1 110/63/1 111/64/1 112/61/1
f 113/63/1 114/65/1 115/66/1 116/64/1
f 117/65/1 118/67/1 119/68/1 120/66/1
f 121/67/1 122/69/1 123/70/1 124/68/1
f 125/69/1 126/71/1 127/72/1 128/70/1
f 129/73/1 130/74/1 131/38/1 132/37/1
f 133/74/1 134/75/1 135/41/1 136/38/1
f 137/75/1 138/76/1 139/43/1 140/41/1
f 141/76/1 142/77/1 143/45/1 144/43/1
f 145/77/1 146/78/1 147/47/1 148/45/1
f 149/78/1 150/79/1 151/49/1 152/47/1
f 153/79/1 154/80/1 155/51/1 156/49/1
f 157/80/1 158/81/1 159/53/1 160/51/1
f 161/81/1 162/82/1 163/55/1 164/53/1
f 165/82/1 166/83/1 167/57/1 168/55/1
f 169/84/1 170/85/1 171/60/1 172/59/1
f 173/85/1 174/86/1 175/63/1 176/60/1
f 177/86/1 178/87/1 179/65/1 180/63/1
f 181/87/1 182/88/1 183/67/1 184/65/1
f 185/88/1 186/89/1 187/69/1 188/67/1
f 189/89/1 190/90/1 191/71/1 192/69/1
f 193/91/1 194/92/1 195/74/1 196/73/1
f 197/92/1 198/93/1 199/75/1 200/74/1
f 201/93/1 202/94/1 203/76/1 204/75/1
f 205/94/1 206/95/1 207/77/1 208/76/1
f 209/95/1 210/96/1 211/78/1 212/77/1
f 213/96/1 214/97/1 215/79/1 216/78/1
f 217/97/1 218/98/1 219/80/1 220/79/1
f 221/98/1 222/99/1 223/81/1 224/80/1
f 225/99/1 226/100/1 227/82/1 228/81/1
f 229/100/1 230/101/1 231/83/1 232/82/1
f 233/102/1 234/103/1 235/85/1 236/84/1
f 237/103/1 238/104/1 239/86/1 240/85/1
f 241/104/1 242/105/1 243/87/1 244/86/1
f 245/105/1 246/106/1 247/88/1 248/87/1
f 249/106/1 250/107/1 251/89/1 252/88/1
f 253/107/1 254/108/1 255/90/1 256/89/1
f 257/109/1 258/110/1 259/92/1 260/91/1
f 261/110/1 262/111/1 263/93/1 264/92/1
f 265/111/1 266/112/1 267/94/1 268/93/1
f 269/112/1 270/113/1 271/95/1 272/94/1
f 273/113/1 274/114/1 275/96/1 276/95/1
f 277/114/1 278/115/1 279/97/1 280/96/1
f 281/115/1 282/116/1 283/98/1 284/97/1
f 285/116/1 286/117/1 287/99/1 288/98/1
f 289/117/1 290/118/1 291/100/1 292/99/1
f 293/118/1 294/119/1 295/101/1 296/100/1
f 297/120/1 298/121/1 299/103/1 300/102/1
f 301/121/1 302/122/1 303/104/1 304/103/1
f 305/122/1 306/123/1 307/105/1 308/104/1
f 309/123/1 310/124/1 311/106/1 312/105/1
f 313/124/1 314/125/1 315/107/1 316/106/1
f 317/125/1 318/126/1 319/108/1 320/107/1
f 321/127/1 322/128/1 323/110/1 324/109/1
f 325/128/1 326/129/1 327/111/1 328/110/1
f 329/129/1 330/130/1 331/112/1 332/111/1
f 333/130/1 334/131/1 335/113/1 336/112/1
f 337/131/1 338/132/1 339/114/1 340/113/1
f 341/132/1 342/133/1 343/115/1 344/114/1
f 345/133/1 346/134/1 347/116/1 348/115/1
f 349/134/1 350/135/1 351/117/1 352/116/1
f 353/135/1 354/136/1 355/118/1 356/117/1
f 357/136/1 358/137/1 359/119/1 360/118/1
f 361/138/1 362/139/1 363/121/1 364/120/1
f 365/139/1 366/140/1 367/122/1 368/121/1
f 369/140/1 370/141/1 371/123/1 372/122/1
f 373/141/1 374/142/1 375/124/1 376/123/1
f 377/142/1 378/143/1 379/125/1 380/124/1
f 381/143/1 382/144/1 383/126/1 384/125/1
f 385/145/1 386/146/1 387/128/1 388/127/1
f 389/146/1 390/147/1 391/129/1 392/128/1
f 393/147/1 394/148/1 395/130/1 396/129/1
f 397/148/1 398/149/1 399/131/1 400/130/1
f 401/149/1 402/150/1 403/132/1 404/131/1
f 405/150/1 406/151/1 407/133/1 408/132/1
f 409/151/1 410/152/1 411/134/1 412/133/1
f 413/152/1 414/153/1 415/135/1 416/134/1
f 417/153/1 418/154/1 419/136/1 420/135/1
f 421/154/1 422/155/1 423/137/1 424/136/1
f 425/156/1 426/157/1 427/139/1 428/138/1
f 429/157/1 430/158/1 431/140/1 432/139/1
f 433/158/1 434/159/1 435/141/1 436/140/1
f 437/159/1 438/160/1 439/142/1 440/141/1
f 441/160/1 442/161/1 443/143/1 444/142/1
f 445/161/1 446/162/1 447/144/1 448/143/1
f 449/163/1 450/164/1 451/146/1 452/145/1
f 453/164/1 454/165/1 455/147/1 456/146/1
f 457/165/1 458/166/1 459/148/1 460/147/1
f 461/166/1 462/167/1 463/149/1 464/148/1
f 465/167/1 466/168/1 467/150/1 468/149/1
f 469/168/1 470/169/1 471/151/1 472/150/1
f 473/169/1 474/170/1 475/152/1 476/151/1
f 477/170/1 478/171/1 479/153/1 480/152/1
f 481/171/1 482/172/1 483/154/1 484/153/1
f 485/172/1 486/173/1 487/155/1 488/154/1
f 489/174/1 490/175/1 491/157/1 492/156/1
f 493/175/1 494/176/1 495/158/1 496/157/1
f 497/176/1 498/177/1 499/159/1 500/158/1
f 501/177/1 502/178/1 503/160/1 504/159/1
f 505/178/1 506/179/1 507/161/1 508/160/1
f 509/179/1 510/180/1 511/162/1 512/161/1

