# Tiled2Unity generated file. Do not modify by hand.
# Wavefront file for 'Map1_mesh_0274.obj'

# Vertices (Count = 12)
v -64 -144 0
v -80 -144 0
v -80 -128 0
v -64 -128 0
v -80 -144 0
v -96 -144 0
v -96 -128 0
v -80 -128 0
v -96 -144 0
v -112 -144 0
v -112 -128 0
v -96 -128 0

# Texture cooridinates (Count = 8)
vt 0.28 0.92
vt 0.32 0.92
vt 0.32 0.96
vt 0.28 0.96
vt 0.36 0.92
vt 0.36 0.96
vt 0.4 0.92
vt 0.4 0.96

# Normal
vn 0 0 -1

# Mesh description
g Map1_mesh_0274

# Faces
f 1/1/1 2/2/1 3/3/1 4/4/1
f 5/2/1 6/5/1 7/6/1 8/3/1
f 9/5/1 10/7/1 11/8/1 12/6/1

