# Tiled2Unity generated file. Do not modify by hand.
# Wavefront file for 'Map1_mesh_0271.obj'

# Vertices (Count = 16)
v -64 -64 0
v -80 -64 0
v -80 -48 0
v -64 -48 0
v -80 -64 0
v -96 -64 0
v -96 -48 0
v -80 -48 0
v -96 -64 0
v -112 -64 0
v -112 -48 0
v -96 -48 0
v -112 -64 0
v -128 -64 0
v -128 -48 0
v -112 -48 0

# Texture cooridinates (Count = 4)
vt 0.4 0.68
vt 0.36 0.68
vt 0.36 0.64
vt 0.4 0.64

# Normal
vn 0 0 -1

# Mesh description
g Map1_mesh_0271

# Faces
f 1/1/1 2/2/1 3/3/1 4/4/1
f 5/1/1 6/2/1 7/3/1 8/4/1
f 9/1/1 10/2/1 11/3/1 12/4/1
f 13/1/1 14/2/1 15/3/1 16/4/1

