# Tiled2Unity generated file. Do not modify by hand.
# Wavefront file for 'Map1_mesh_0137.obj'

# Vertices (Count = 172)
v 0 -16 0
v -16 -16 0
v -16 0 0
v 0 0 0
v -16 -16 0
v -32 -16 0
v -32 0 0
v -16 0 0
v -32 -16 0
v -48 -16 0
v -48 0 0
v -32 0 0
v -48 -16 0
v -64 -16 0
v -64 0 0
v -48 0 0
v -64 -16 0
v -80 -16 0
v -80 0 0
v -64 0 0
v -80 -16 0
v -96 -16 0
v -96 0 0
v -80 0 0
v -96 -16 0
v -112 -16 0
v -112 0 0
v -96 0 0
v -112 -16 0
v -128 -16 0
v -128 0 0
v -112 0 0
v -128 -16 0
v -144 -16 0
v -144 0 0
v -128 0 0
v -144 -16 0
v -160 -16 0
v -160 0 0
v -144 0 0
v -160 -16 0
v -176 -16 0
v -176 0 0
v -160 0 0
v -176 -16 0
v -192 -16 0
v -192 0 0
v -176 0 0
v -192 -16 0
v -208 -16 0
v -208 0 0
v -192 0 0
v -208 -16 0
v -224 -16 0
v -224 0 0
v -208 0 0
v -224 -16 0
v -240 -16 0
v -240 0 0
v -224 0 0
v -240 -16 0
v -256 -16 0
v -256 0 0
v -240 0 0
v 0 -32 0
v -16 -32 0
v -16 -16 0
v 0 -16 0
v -16 -32 0
v -32 -32 0
v -32 -16 0
v -16 -16 0
v -32 -32 0
v -48 -32 0
v -48 -16 0
v -32 -16 0
v -48 -32 0
v -64 -32 0
v -64 -16 0
v -48 -16 0
v -64 -32 0
v -80 -32 0
v -80 -16 0
v -64 -16 0
v -80 -32 0
v -96 -32 0
v -96 -16 0
v -80 -16 0
v -96 -32 0
v -112 -32 0
v -112 -16 0
v -96 -16 0
v -112 -32 0
v -128 -32 0
v -128 -16 0
v -112 -16 0
v -128 -32 0
v -144 -32 0
v -144 -16 0
v -128 -16 0
v -144 -32 0
v -160 -32 0
v -160 -16 0
v -144 -16 0
v -160 -32 0
v -176 -32 0
v -176 -16 0
v -160 -16 0
v -176 -32 0
v -192 -32 0
v -192 -16 0
v -176 -16 0
v -192 -32 0
v -208 -32 0
v -208 -16 0
v -192 -16 0
v -208 -32 0
v -224 -32 0
v -224 -16 0
v -208 -16 0
v -224 -32 0
v -240 -32 0
v -240 -16 0
v -224 -16 0
v -240 -32 0
v -256 -32 0
v -256 -16 0
v -240 -16 0
v -64 -48 0
v -80 -48 0
v -80 -32 0
v -64 -32 0
v -80 -48 0
v -96 -48 0
v -96 -32 0
v -80 -32 0
v -96 -48 0
v -112 -48 0
v -112 -32 0
v -96 -32 0
v -112 -48 0
v -128 -48 0
v -128 -32 0
v -112 -32 0
v -128 -48 0
v -144 -48 0
v -144 -32 0
v -128 -32 0
v -144 -48 0
v -160 -48 0
v -160 -32 0
v -144 -32 0
v -160 -48 0
v -176 -48 0
v -176 -32 0
v -160 -32 0
v -176 -48 0
v -192 -48 0
v -192 -32 0
v -176 -32 0
v -192 -48 0
v -208 -48 0
v -208 -32 0
v -192 -32 0
v -208 -48 0
v -224 -48 0
v -224 -32 0
v -208 -32 0
v -224 -48 0
v -240 -48 0
v -240 -32 0
v -224 -32 0

# Texture cooridinates (Count = 57)
vt 0.5428572 0.816092
vt 0.5714286 0.816092
vt 0.5714286 0.8390805
vt 0.5428572 0.8390805
vt 0.6 0.816092
vt 0.6 0.8390805
vt 0.6285715 0.816092
vt 0.6285715 0.8390805
vt 0.6571429 0.816092
vt 0.6571429 0.8390805
vt 0.6857143 0.3563218
vt 0.7142857 0.3563218
vt 0.7142857 0.3793104
vt 0.6857143 0.3793104
vt 0.7428572 0.3563218
vt 0.7428572 0.3793104
vt 0.7714286 0.3563218
vt 0.7714286 0.3793104
vt 0.8 0.3563218
vt 0.8 0.3793104
vt 0.8285714 0.3563218
vt 0.8285714 0.3793104
vt 0.8571429 0.3563218
vt 0.8571429 0.3793104
vt 0.8857143 0.3563218
vt 0.8857143 0.3793104
vt 0.9142857 0.3563218
vt 0.9142857 0.3793104
vt 0.9428571 0.3563218
vt 0.9428571 0.3793104
vt 0.9714286 0.3563218
vt 0.9714286 0.3793104
vt 1 0.3563218
vt 1 0.3793104
vt 0 0.5862069
vt 0.02857143 0.5862069
vt 0.02857143 0.6091954
vt 0 0.6091954
vt 0.5428572 0.7931035
vt 0.5714286 0.7931035
vt 0.6 0.7931035
vt 0.6285715 0.7931035
vt 0.6571429 0.7931035
vt 0.6857143 0.3333333
vt 0.7142857 0.3333333
vt 0.7428572 0.3333333
vt 0.7714286 0.3333333
vt 0.8 0.3333333
vt 0.8285714 0.3333333
vt 0.8571429 0.3333333
vt 0.8857143 0.3333333
vt 0.9142857 0.3333333
vt 0.9428571 0.3333333
vt 0.9714286 0.3333333
vt 1 0.3333333
vt 0 0.5632184
vt 0.02857143 0.5632184

# Normal
vn 0 0 -1

# Mesh description
g Map1_mesh_0137

# Faces
f 1/1/1 2/2/1 3/3/1 4/4/1
f 5/2/1 6/5/1 7/6/1 8/3/1
f 9/5/1 10/7/1 11/8/1 12/6/1
f 13/7/1 14/9/1 15/10/1 16/8/1
f 17/11/1 18/12/1 19/13/1 20/14/1
f 21/12/1 22/15/1 23/16/1 24/13/1
f 25/15/1 26/17/1 27/18/1 28/16/1
f 29/17/1 30/19/1 31/20/1 32/18/1
f 33/19/1 34/21/1 35/22/1 36/20/1
f 37/21/1 38/23/1 39/24/1 40/22/1
f 41/23/1 42/25/1 43/26/1 44/24/1
f 45/25/1 46/27/1 47/28/1 48/26/1
f 49/27/1 50/29/1 51/30/1 52/28/1
f 53/29/1 54/31/1 55/32/1 56/30/1
f 57/31/1 58/33/1 59/34/1 60/32/1
f 61/35/1 62/36/1 63/37/1 64/38/1
f 65/39/1 66/40/1 67/2/1 68/1/1
f 69/40/1 70/41/1 71/5/1 72/2/1
f 73/41/1 74/42/1 75/7/1 76/5/1
f 77/42/1 78/43/1 79/9/1 80/7/1
f 81/44/1 82/45/1 83/12/1 84/11/1
f 85/45/1 86/46/1 87/15/1 88/12/1
f 89/46/1 90/47/1 91/17/1 92/15/1
f 93/47/1 94/48/1 95/19/1 96/17/1
f 97/48/1 98/49/1 99/21/1 100/19/1
f 101/49/1 102/50/1 103/23/1 104/21/1
f 105/50/1 106/51/1 107/25/1 108/23/1
f 109/51/1 110/52/1 111/27/1 112/25/1
f 113/52/1 114/53/1 115/29/1 116/27/1
f 117/53/1 118/54/1 119/31/1 120/29/1
f 121/54/1 122/55/1 123/33/1 124/31/1
f 125/56/1 126/57/1 127/36/1 128/35/1
f 129/44/1 130/45/1 131/12/1 132/11/1
f 133/45/1 134/46/1 135/15/1 136/12/1
f 137/46/1 138/47/1 139/17/1 140/15/1
f 141/47/1 142/48/1 143/19/1 144/17/1
f 145/48/1 146/49/1 147/21/1 148/19/1
f 149/49/1 150/50/1 151/23/1 152/21/1
f 153/50/1 154/51/1 155/25/1 156/23/1
f 157/51/1 158/52/1 159/27/1 160/25/1
f 161/52/1 162/53/1 163/29/1 164/27/1
f 165/53/1 166/54/1 167/31/1 168/29/1
f 169/54/1 170/55/1 171/33/1 172/31/1

