# Tiled2Unity generated file. Do not modify by hand.
# Wavefront file for 'Map1_mesh_0257.obj'

# Vertices (Count = 40)
v 0 -16 0
v -16 -16 0
v -16 0 0
v 0 0 0
v -16 -16 0
v -32 -16 0
v -32 0 0
v -16 0 0
v -32 -16 0
v -48 -16 0
v -48 0 0
v -32 0 0
v -48 -16 0
v -64 -16 0
v -64 0 0
v -48 0 0
v -64 -16 0
v -80 -16 0
v -80 0 0
v -64 0 0
v 0 -32 0
v -16 -32 0
v -16 -16 0
v 0 -16 0
v -16 -32 0
v -32 -32 0
v -32 -16 0
v -16 -16 0
v -32 -32 0
v -48 -32 0
v -48 -16 0
v -32 -16 0
v -48 -32 0
v -64 -32 0
v -64 -16 0
v -48 -16 0
v -64 -32 0
v -80 -32 0
v -80 -16 0
v -64 -16 0

# Texture cooridinates (Count = 18)
vt 0.76 0.84
vt 0.8 0.84
vt 0.8 0.88
vt 0.76 0.88
vt 0.68 0.84
vt 0.72 0.84
vt 0.72 0.88
vt 0.68 0.88
vt 0.96 0.84
vt 1 0.84
vt 1 0.88
vt 0.96 0.88
vt 0.76 0.8
vt 0.8 0.8
vt 0.68 0.8
vt 0.72 0.8
vt 0.96 0.8
vt 1 0.8

# Normal
vn 0 0 -1

# Mesh description
g Map1_mesh_0257

# Faces
f 1/1/1 2/2/1 3/3/1 4/4/1
f 5/5/1 6/6/1 7/7/1 8/8/1
f 9/6/1 10/1/1 11/4/1 12/7/1
f 13/1/1 14/2/1 15/3/1 16/4/1
f 17/9/1 18/10/1 19/11/1 20/12/1
f 21/13/1 22/14/1 23/2/1 24/1/1
f 25/15/1 26/16/1 27/6/1 28/5/1
f 29/16/1 30/13/1 31/1/1 32/6/1
f 33/13/1 34/14/1 35/2/1 36/1/1
f 37/17/1 38/18/1 39/10/1 40/9/1

