# Tiled2Unity generated file. Do not modify by hand.
# Wavefront file for 'Map1_mesh_0265.obj'

# Vertices (Count = 60)
v -160 -176 0
v -176 -176 0
v -176 -160 0
v -160 -160 0
v -176 -176 0
v -192 -176 0
v -192 -160 0
v -176 -160 0
v -192 -176 0
v -208 -176 0
v -208 -160 0
v -192 -160 0
v -208 -176 0
v -224 -176 0
v -224 -160 0
v -208 -160 0
v -224 -176 0
v -240 -176 0
v -240 -160 0
v -224 -160 0
v -240 -176 0
v -256 -176 0
v -256 -160 0
v -240 -160 0
v -32 -208 0
v -48 -208 0
v -48 -192 0
v -32 -192 0
v -48 -208 0
v -64 -208 0
v -64 -192 0
v -48 -192 0
v -32 -224 0
v -48 -224 0
v -48 -208 0
v -32 -208 0
v -48 -224 0
v -64 -224 0
v -64 -208 0
v -48 -208 0
v -240 -224 0
v -256 -224 0
v -256 -208 0
v -240 -208 0
v -32 -240 0
v -48 -240 0
v -48 -224 0
v -32 -224 0
v -48 -240 0
v -64 -240 0
v -64 -224 0
v -48 -224 0
v -240 -240 0
v -256 -240 0
v -256 -224 0
v -240 -224 0
v -240 -256 0
v -256 -256 0
v -256 -240 0
v -240 -240 0

# Texture cooridinates (Count = 20)
vt 0.28 0.92
vt 0.32 0.92
vt 0.32 0.96
vt 0.28 0.96
vt 0.36 0.92
vt 0.36 0.96
vt 0.4 0.92
vt 0.4 0.96
vt 0.2 0.52
vt 0.24 0.52
vt 0.24 0.56
vt 0.2 0.56
vt 0.28 0.52
vt 0.28 0.56
vt 0.2 0.48
vt 0.24 0.48
vt 0.28 0.48
vt 0.2 0.44
vt 0.24 0.44
vt 0.28 0.44

# Normal
vn 0 0 -1

# Mesh description
g Map1_mesh_0265

# Faces
f 1/1/1 2/2/1 3/3/1 4/4/1
f 5/2/1 6/5/1 7/6/1 8/3/1
f 9/5/1 10/7/1 11/8/1 12/6/1
f 13/1/1 14/2/1 15/3/1 16/4/1
f 17/2/1 18/5/1 19/6/1 20/3/1
f 21/5/1 22/7/1 23/8/1 24/6/1
f 25/9/1 26/10/1 27/11/1 28/12/1
f 29/10/1 30/13/1 31/14/1 32/11/1
f 33/15/1 34/16/1 35/10/1 36/9/1
f 37/16/1 38/17/1 39/13/1 40/10/1
f 41/9/1 42/10/1 43/11/1 44/12/1
f 45/18/1 46/19/1 47/16/1 48/15/1
f 49/19/1 50/20/1 51/17/1 52/16/1
f 53/15/1 54/16/1 55/10/1 56/9/1
f 57/18/1 58/19/1 59/16/1 60/15/1

