# Tiled2Unity generated file. Do not modify by hand.
# Wavefront file for 'Map1_mesh_0074.obj'

# Vertices (Count = 608)
v 0 -16 0
v -16 -16 0
v -16 0 0
v 0 0 0
v -16 -16 0
v -32 -16 0
v -32 0 0
v -16 0 0
v -32 -16 0
v -48 -16 0
v -48 0 0
v -32 0 0
v -48 -16 0
v -64 -16 0
v -64 0 0
v -48 0 0
v -64 -16 0
v -80 -16 0
v -80 0 0
v -64 0 0
v -80 -16 0
v -96 -16 0
v -96 0 0
v -80 0 0
v -96 -16 0
v -112 -16 0
v -112 0 0
v -96 0 0
v -112 -16 0
v -128 -16 0
v -128 0 0
v -112 0 0
v -128 -16 0
v -144 -16 0
v -144 0 0
v -128 0 0
v -144 -16 0
v -160 -16 0
v -160 0 0
v -144 0 0
v -160 -16 0
v -176 -16 0
v -176 0 0
v -160 0 0
v -176 -16 0
v -192 -16 0
v -192 0 0
v -176 0 0
v -192 -16 0
v -208 -16 0
v -208 0 0
v -192 0 0
v -208 -16 0
v -224 -16 0
v -224 0 0
v -208 0 0
v -224 -16 0
v -240 -16 0
v -240 0 0
v -224 0 0
v -240 -16 0
v -256 -16 0
v -256 0 0
v -240 0 0
v 0 -32 0
v -16 -32 0
v -16 -16 0
v 0 -16 0
v -16 -32 0
v -32 -32 0
v -32 -16 0
v -16 -16 0
v -32 -32 0
v -48 -32 0
v -48 -16 0
v -32 -16 0
v -48 -32 0
v -64 -32 0
v -64 -16 0
v -48 -16 0
v -64 -32 0
v -80 -32 0
v -80 -16 0
v -64 -16 0
v -80 -32 0
v -96 -32 0
v -96 -16 0
v -80 -16 0
v -96 -32 0
v -112 -32 0
v -112 -16 0
v -96 -16 0
v -112 -32 0
v -128 -32 0
v -128 -16 0
v -112 -16 0
v -128 -32 0
v -144 -32 0
v -144 -16 0
v -128 -16 0
v -144 -32 0
v -160 -32 0
v -160 -16 0
v -144 -16 0
v -160 -32 0
v -176 -32 0
v -176 -16 0
v -160 -16 0
v -176 -32 0
v -192 -32 0
v -192 -16 0
v -176 -16 0
v -192 -32 0
v -208 -32 0
v -208 -16 0
v -192 -16 0
v -208 -32 0
v -224 -32 0
v -224 -16 0
v -208 -16 0
v -224 -32 0
v -240 -32 0
v -240 -16 0
v -224 -16 0
v -240 -32 0
v -256 -32 0
v -256 -16 0
v -240 -16 0
v 0 -48 0
v -16 -48 0
v -16 -32 0
v 0 -32 0
v -16 -48 0
v -32 -48 0
v -32 -32 0
v -16 -32 0
v -32 -48 0
v -48 -48 0
v -48 -32 0
v -32 -32 0
v -48 -48 0
v -64 -48 0
v -64 -32 0
v -48 -32 0
v -64 -48 0
v -80 -48 0
v -80 -32 0
v -64 -32 0
v -80 -48 0
v -96 -48 0
v -96 -32 0
v -80 -32 0
v -96 -48 0
v -112 -48 0
v -112 -32 0
v -96 -32 0
v -112 -48 0
v -128 -48 0
v -128 -32 0
v -112 -32 0
v -128 -48 0
v -144 -48 0
v -144 -32 0
v -128 -32 0
v -144 -48 0
v -160 -48 0
v -160 -32 0
v -144 -32 0
v -160 -48 0
v -176 -48 0
v -176 -32 0
v -160 -32 0
v -176 -48 0
v -192 -48 0
v -192 -32 0
v -176 -32 0
v -192 -48 0
v -208 -48 0
v -208 -32 0
v -192 -32 0
v -208 -48 0
v -224 -48 0
v -224 -32 0
v -208 -32 0
v -224 -48 0
v -240 -48 0
v -240 -32 0
v -224 -32 0
v -240 -48 0
v -256 -48 0
v -256 -32 0
v -240 -32 0
v 0 -64 0
v -16 -64 0
v -16 -48 0
v 0 -48 0
v -16 -64 0
v -32 -64 0
v -32 -48 0
v -16 -48 0
v -32 -64 0
v -48 -64 0
v -48 -48 0
v -32 -48 0
v -48 -64 0
v -64 -64 0
v -64 -48 0
v -48 -48 0
v -64 -64 0
v -80 -64 0
v -80 -48 0
v -64 -48 0
v -80 -64 0
v -96 -64 0
v -96 -48 0
v -80 -48 0
v -96 -64 0
v -112 -64 0
v -112 -48 0
v -96 -48 0
v -112 -64 0
v -128 -64 0
v -128 -48 0
v -112 -48 0
v -128 -64 0
v -144 -64 0
v -144 -48 0
v -128 -48 0
v -144 -64 0
v -160 -64 0
v -160 -48 0
v -144 -48 0
v -160 -64 0
v -176 -64 0
v -176 -48 0
v -160 -48 0
v -176 -64 0
v -192 -64 0
v -192 -48 0
v -176 -48 0
v -192 -64 0
v -208 -64 0
v -208 -48 0
v -192 -48 0
v -208 -64 0
v -224 -64 0
v -224 -48 0
v -208 -48 0
v -224 -64 0
v -240 -64 0
v -240 -48 0
v -224 -48 0
v -240 -64 0
v -256 -64 0
v -256 -48 0
v -240 -48 0
v 0 -80 0
v -16 -80 0
v -16 -64 0
v 0 -64 0
v -16 -80 0
v -32 -80 0
v -32 -64 0
v -16 -64 0
v -32 -80 0
v -48 -80 0
v -48 -64 0
v -32 -64 0
v -48 -80 0
v -64 -80 0
v -64 -64 0
v -48 -64 0
v -64 -80 0
v -80 -80 0
v -80 -64 0
v -64 -64 0
v -80 -80 0
v -96 -80 0
v -96 -64 0
v -80 -64 0
v -96 -80 0
v -112 -80 0
v -112 -64 0
v -96 -64 0
v -112 -80 0
v -128 -80 0
v -128 -64 0
v -112 -64 0
v -128 -80 0
v -144 -80 0
v -144 -64 0
v -128 -64 0
v -144 -80 0
v -160 -80 0
v -160 -64 0
v -144 -64 0
v -160 -80 0
v -176 -80 0
v -176 -64 0
v -160 -64 0
v -176 -80 0
v -192 -80 0
v -192 -64 0
v -176 -64 0
v -192 -80 0
v -208 -80 0
v -208 -64 0
v -192 -64 0
v -208 -80 0
v -224 -80 0
v -224 -64 0
v -208 -64 0
v -224 -80 0
v -240 -80 0
v -240 -64 0
v -224 -64 0
v -240 -80 0
v -256 -80 0
v -256 -64 0
v -240 -64 0
v 0 -96 0
v -16 -96 0
v -16 -80 0
v 0 -80 0
v -16 -96 0
v -32 -96 0
v -32 -80 0
v -16 -80 0
v -32 -96 0
v -48 -96 0
v -48 -80 0
v -32 -80 0
v -48 -96 0
v -64 -96 0
v -64 -80 0
v -48 -80 0
v -64 -96 0
v -80 -96 0
v -80 -80 0
v -64 -80 0
v -80 -96 0
v -96 -96 0
v -96 -80 0
v -80 -80 0
v -96 -96 0
v -112 -96 0
v -112 -80 0
v -96 -80 0
v -112 -96 0
v -128 -96 0
v -128 -80 0
v -112 -80 0
v -128 -96 0
v -144 -96 0
v -144 -80 0
v -128 -80 0
v -144 -96 0
v -160 -96 0
v -160 -80 0
v -144 -80 0
v -160 -96 0
v -176 -96 0
v -176 -80 0
v -160 -80 0
v -176 -96 0
v -192 -96 0
v -192 -80 0
v -176 -80 0
v -192 -96 0
v -208 -96 0
v -208 -80 0
v -192 -80 0
v -208 -96 0
v -224 -96 0
v -224 -80 0
v -208 -80 0
v -224 -96 0
v -240 -96 0
v -240 -80 0
v -224 -80 0
v -240 -96 0
v -256 -96 0
v -256 -80 0
v -240 -80 0
v 0 -112 0
v -16 -112 0
v -16 -96 0
v 0 -96 0
v -16 -112 0
v -32 -112 0
v -32 -96 0
v -16 -96 0
v -32 -112 0
v -48 -112 0
v -48 -96 0
v -32 -96 0
v -48 -112 0
v -64 -112 0
v -64 -96 0
v -48 -96 0
v -64 -112 0
v -80 -112 0
v -80 -96 0
v -64 -96 0
v -80 -112 0
v -96 -112 0
v -96 -96 0
v -80 -96 0
v -96 -112 0
v -112 -112 0
v -112 -96 0
v -96 -96 0
v -112 -112 0
v -128 -112 0
v -128 -96 0
v -112 -96 0
v -128 -112 0
v -144 -112 0
v -144 -96 0
v -128 -96 0
v -144 -112 0
v -160 -112 0
v -160 -96 0
v -144 -96 0
v -160 -112 0
v -176 -112 0
v -176 -96 0
v -160 -96 0
v -176 -112 0
v -192 -112 0
v -192 -96 0
v -176 -96 0
v -192 -112 0
v -208 -112 0
v -208 -96 0
v -192 -96 0
v -208 -112 0
v -224 -112 0
v -224 -96 0
v -208 -96 0
v -224 -112 0
v -240 -112 0
v -240 -96 0
v -224 -96 0
v -240 -112 0
v -256 -112 0
v -256 -96 0
v -240 -96 0
v 0 -128 0
v -16 -128 0
v -16 -112 0
v 0 -112 0
v -16 -128 0
v -32 -128 0
v -32 -112 0
v -16 -112 0
v -32 -128 0
v -48 -128 0
v -48 -112 0
v -32 -112 0
v -48 -128 0
v -64 -128 0
v -64 -112 0
v -48 -112 0
v -64 -128 0
v -80 -128 0
v -80 -112 0
v -64 -112 0
v -80 -128 0
v -96 -128 0
v -96 -112 0
v -80 -112 0
v -96 -128 0
v -112 -128 0
v -112 -112 0
v -96 -112 0
v -112 -128 0
v -128 -128 0
v -128 -112 0
v -112 -112 0
v -128 -128 0
v -144 -128 0
v -144 -112 0
v -128 -112 0
v -144 -128 0
v -160 -128 0
v -160 -112 0
v -144 -112 0
v -160 -128 0
v -176 -128 0
v -176 -112 0
v -160 -112 0
v -176 -128 0
v -192 -128 0
v -192 -112 0
v -176 -112 0
v -192 -128 0
v -208 -128 0
v -208 -112 0
v -192 -112 0
v -208 -128 0
v -224 -128 0
v -224 -112 0
v -208 -112 0
v -224 -128 0
v -240 -128 0
v -240 -112 0
v -224 -112 0
v -240 -128 0
v -256 -128 0
v -256 -112 0
v -240 -112 0
v 0 -144 0
v -16 -144 0
v -16 -128 0
v 0 -128 0
v -16 -144 0
v -32 -144 0
v -32 -128 0
v -16 -128 0
v -32 -144 0
v -48 -144 0
v -48 -128 0
v -32 -128 0
v -48 -144 0
v -64 -144 0
v -64 -128 0
v -48 -128 0
v -64 -144 0
v -80 -144 0
v -80 -128 0
v -64 -128 0
v -80 -144 0
v -96 -144 0
v -96 -128 0
v -80 -128 0
v -96 -144 0
v -112 -144 0
v -112 -128 0
v -96 -128 0
v -112 -144 0
v -128 -144 0
v -128 -128 0
v -112 -128 0
v -128 -144 0
v -144 -144 0
v -144 -128 0
v -128 -128 0
v -144 -144 0
v -160 -144 0
v -160 -128 0
v -144 -128 0
v -160 -144 0
v -176 -144 0
v -176 -128 0
v -160 -128 0
v -176 -144 0
v -192 -144 0
v -192 -128 0
v -176 -128 0
v -192 -144 0
v -208 -144 0
v -208 -128 0
v -192 -128 0
v -208 -144 0
v -224 -144 0
v -224 -128 0
v -208 -128 0
v -224 -144 0
v -240 -144 0
v -240 -128 0
v -224 -128 0
v -240 -144 0
v -256 -144 0
v -256 -128 0
v -240 -128 0
v 0 -160 0
v -16 -160 0
v -16 -144 0
v 0 -144 0
v -16 -160 0
v -32 -160 0
v -32 -144 0
v -16 -144 0
v -112 -160 0
v -128 -160 0
v -128 -144 0
v -112 -144 0
v -128 -160 0
v -144 -160 0
v -144 -144 0
v -128 -144 0
v -144 -160 0
v -160 -160 0
v -160 -144 0
v -144 -144 0
v -160 -160 0
v -176 -160 0
v -176 -144 0
v -160 -144 0
v -176 -160 0
v -192 -160 0
v -192 -144 0
v -176 -144 0
v -192 -160 0
v -208 -160 0
v -208 -144 0
v -192 -144 0

# Texture cooridinates (Count = 196)
vt 0 0.7471265
vt 0.02857143 0.7471265
vt 0.02857143 0.770115
vt 0 0.770115
vt 0.05714286 0.7471265
vt 0.05714286 0.770115
vt 0.08571429 0.7471265
vt 0.08571429 0.770115
vt 0.1142857 0.7471265
vt 0.1142857 0.770115
vt 0.1428571 0.7471265
vt 0.1428571 0.770115
vt 0.1714286 0.7471265
vt 0.1714286 0.770115
vt 0.2 0.7471265
vt 0.2 0.770115
vt 0.2285714 0.7471265
vt 0.2285714 0.770115
vt 0.2571429 0.7471265
vt 0.2571429 0.770115
vt 0.2857143 0.7471265
vt 0.2857143 0.770115
vt 0.3142857 0.7471265
vt 0.3142857 0.770115
vt 0 0.5172414
vt 0.02857143 0.5172414
vt 0.02857143 0.5402299
vt 0 0.5402299
vt 0.05714286 0.5172414
vt 0.05714286 0.5402299
vt 0.08571429 0.5172414
vt 0.08571429 0.5402299
vt 0.1142857 0.5172414
vt 0.1142857 0.5402299
vt 0.1428571 0.5172414
vt 0.1428571 0.5402299
vt 0 0.7241379
vt 0.02857143 0.7241379
vt 0.05714286 0.7241379
vt 0.08571429 0.7241379
vt 0.1142857 0.7241379
vt 0.1428571 0.7241379
vt 0.1714286 0.7241379
vt 0.2 0.7241379
vt 0.2285714 0.7241379
vt 0.2571429 0.7241379
vt 0.2857143 0.7241379
vt 0.3142857 0.7241379
vt 0 0.4942529
vt 0.02857143 0.4942529
vt 0.05714286 0.4942529
vt 0.08571429 0.4942529
vt 0.1142857 0.4942529
vt 0.1428571 0.4942529
vt 0 0.7011495
vt 0.02857143 0.7011495
vt 0.05714286 0.7011495
vt 0.08571429 0.7011495
vt 0.1142857 0.7011495
vt 0.1428571 0.7011495
vt 0.1714286 0.7011495
vt 0.2 0.7011495
vt 0.2285714 0.7011495
vt 0.2571429 0.7011495
vt 0.2857143 0.7011495
vt 0.3142857 0.7011495
vt 0 0.4712644
vt 0.02857143 0.4712644
vt 0.05714286 0.4712644
vt 0.08571429 0.4712644
vt 0.1142857 0.4712644
vt 0.1428571 0.4712644
vt 0 0.6781609
vt 0.02857143 0.6781609
vt 0.05714286 0.6781609
vt 0.08571429 0.6781609
vt 0.1142857 0.6781609
vt 0.1428571 0.6781609
vt 0.1714286 0.6781609
vt 0.2 0.6781609
vt 0.2285714 0.6781609
vt 0.2571429 0.6781609
vt 0.2857143 0.6781609
vt 0.3142857 0.6781609
vt 0 0.4482759
vt 0.02857143 0.4482759
vt 0.05714286 0.4482759
vt 0.08571429 0.4482759
vt 0.1142857 0.4482759
vt 0.1428571 0.4482759
vt 0 0.6551724
vt 0.02857143 0.6551724
vt 0.05714286 0.6551724
vt 0.08571429 0.6551724
vt 0.1142857 0.6551724
vt 0.1428571 0.6551724
vt 0.1714286 0.6551724
vt 0.2 0.6551724
vt 0.2285714 0.6551724
vt 0.2571429 0.6551724
vt 0.2857143 0.6551724
vt 0.3142857 0.6551724
vt 0 0.4252874
vt 0.02857143 0.4252874
vt 0.05714286 0.4252874
vt 0.08571429 0.4252874
vt 0.1142857 0.4252874
vt 0.1428571 0.4252874
vt 0 0.6321839
vt 0.02857143 0.6321839
vt 0.05714286 0.6321839
vt 0.08571429 0.6321839
vt 0.1142857 0.6321839
vt 0.1428571 0.6321839
vt 0.1714286 0.6321839
vt 0.2 0.6321839
vt 0.2285714 0.6321839
vt 0.2571429 0.6321839
vt 0.2857143 0.6321839
vt 0.3142857 0.6321839
vt 0 0.4022989
vt 0.02857143 0.4022989
vt 0.05714286 0.4022989
vt 0.08571429 0.4022989
vt 0.1142857 0.4022989
vt 0.1428571 0.4022989
vt 0 0.6091954
vt 0.02857143 0.6091954
vt 0.05714286 0.6091954
vt 0.08571429 0.6091954
vt 0.1142857 0.6091954
vt 0.1428571 0.6091954
vt 0.1714286 0.6091954
vt 0.2 0.6091954
vt 0.2285714 0.6091954
vt 0.2571429 0.6091954
vt 0.2857143 0.6091954
vt 0.3142857 0.6091954
vt 0 0.3793104
vt 0.02857143 0.3793104
vt 0.05714286 0.3793104
vt 0.08571429 0.3793104
vt 0.1142857 0.3793104
vt 0.1428571 0.3793104
vt 0 0.5862069
vt 0.02857143 0.5862069
vt 0.05714286 0.5862069
vt 0.08571429 0.5862069
vt 0.1142857 0.5862069
vt 0.1428571 0.5862069
vt 0.1714286 0.5862069
vt 0.2 0.5862069
vt 0.2285714 0.5862069
vt 0.2571429 0.5862069
vt 0.2857143 0.5862069
vt 0.3142857 0.5862069
vt 0 0.3563218
vt 0.02857143 0.3563218
vt 0.05714286 0.3563218
vt 0.08571429 0.3563218
vt 0.1142857 0.3563218
vt 0.1428571 0.3563218
vt 0 0.5632184
vt 0.02857143 0.5632184
vt 0.05714286 0.5632184
vt 0.08571429 0.5632184
vt 0.1142857 0.5632184
vt 0.1428571 0.5632184
vt 0.1714286 0.5632184
vt 0.2 0.5632184
vt 0.2285714 0.5632184
vt 0.2571429 0.5632184
vt 0.2857143 0.5632184
vt 0.3142857 0.5632184
vt 0 0.3333333
vt 0.02857143 0.3333333
vt 0.05714286 0.3333333
vt 0.08571429 0.3333333
vt 0.1142857 0.3333333
vt 0.1428571 0.3333333
vt 0 0.1034483
vt 0.02857143 0.1034483
vt 0.02857143 0.1264368
vt 0 0.1264368
vt 0.05714286 0.1034483
vt 0.05714286 0.1264368
vt 0.2 0.1034483
vt 0.2285714 0.1034483
vt 0.2285714 0.1264368
vt 0.2 0.1264368
vt 0.2571429 0.1034483
vt 0.2571429 0.1264368
vt 0.2857143 0.1034483
vt 0.2857143 0.1264368
vt 0.3142857 0.1034483
vt 0.3142857 0.1264368

# Normal
vn 0 0 -1

# Mesh description
g Map1_mesh_0074

# Faces
f 1/1/1 2/2/1 3/3/1 4/4/1
f 5/2/1 6/5/1 7/6/1 8/3/1
f 9/5/1 10/7/1 11/8/1 12/6/1
f 13/7/1 14/9/1 15/10/1 16/8/1
f 17/9/1 18/11/1 19/12/1 20/10/1
f 21/11/1 22/13/1 23/14/1 24/12/1
f 25/13/1 26/15/1 27/16/1 28/14/1
f 29/15/1 30/17/1 31/18/1 32/16/1
f 33/17/1 34/19/1 35/20/1 36/18/1
f 37/19/1 38/21/1 39/22/1 40/20/1
f 41/21/1 42/23/1 43/24/1 44/22/1
f 45/25/1 46/26/1 47/27/1 48/28/1
f 49/26/1 50/29/1 51/30/1 52/27/1
f 53/29/1 54/31/1 55/32/1 56/30/1
f 57/31/1 58/33/1 59/34/1 60/32/1
f 61/33/1 62/35/1 63/36/1 64/34/1
f 65/37/1 66/38/1 67/2/1 68/1/1
f 69/38/1 70/39/1 71/5/1 72/2/1
f 73/39/1 74/40/1 75/7/1 76/5/1
f 77/40/1 78/41/1 79/9/1 80/7/1
f 81/41/1 82/42/1 83/11/1 84/9/1
f 85/42/1 86/43/1 87/13/1 88/11/1
f 89/43/1 90/44/1 91/15/1 92/13/1
f 93/44/1 94/45/1 95/17/1 96/15/1
f 97/45/1 98/46/1 99/19/1 100/17/1
f 101/46/1 102/47/1 103/21/1 104/19/1
f 105/47/1 106/48/1 107/23/1 108/21/1
f 109/49/1 110/50/1 111/26/1 112/25/1
f 113/50/1 114/51/1 115/29/1 116/26/1
f 117/51/1 118/52/1 119/31/1 120/29/1
f 121/52/1 122/53/1 123/33/1 124/31/1
f 125/53/1 126/54/1 127/35/1 128/33/1
f 129/55/1 130/56/1 131/38/1 132/37/1
f 133/56/1 134/57/1 135/39/1 136/38/1
f 137/57/1 138/58/1 139/40/1 140/39/1
f 141/58/1 142/59/1 143/41/1 144/40/1
f 145/59/1 146/60/1 147/42/1 148/41/1
f 149/60/1 150/61/1 151/43/1 152/42/1
f 153/61/1 154/62/1 155/44/1 156/43/1
f 157/62/1 158/63/1 159/45/1 160/44/1
f 161/63/1 162/64/1 163/46/1 164/45/1
f 165/64/1 166/65/1 167/47/1 168/46/1
f 169/65/1 170/66/1 171/48/1 172/47/1
f 173/67/1 174/68/1 175/50/1 176/49/1
f 177/68/1 178/69/1 179/51/1 180/50/1
f 181/69/1 182/70/1 183/52/1 184/51/1
f 185/70/1 186/71/1 187/53/1 188/52/1
f 189/71/1 190/72/1 191/54/1 192/53/1
f 193/73/1 194/74/1 195/56/1 196/55/1
f 197/74/1 198/75/1 199/57/1 200/56/1
f 201/75/1 202/76/1 203/58/1 204/57/1
f 205/76/1 206/77/1 207/59/1 208/58/1
f 209/77/1 210/78/1 211/60/1 212/59/1
f 213/78/1 214/79/1 215/61/1 216/60/1
f 217/79/1 218/80/1 219/62/1 220/61/1
f 221/80/1 222/81/1 223/63/1 224/62/1
f 225/81/1 226/82/1 227/64/1 228/63/1
f 229/82/1 230/83/1 231/65/1 232/64/1
f 233/83/1 234/84/1 235/66/1 236/65/1
f 237/85/1 238/86/1 239/68/1 240/67/1
f 241/86/1 242/87/1 243/69/1 244/68/1
f 245/87/1 246/88/1 247/70/1 248/69/1
f 249/88/1 250/89/1 251/71/1 252/70/1
f 253/89/1 254/90/1 255/72/1 256/71/1
f 257/91/1 258/92/1 259/74/1 260/73/1
f 261/92/1 262/93/1 263/75/1 264/74/1
f 265/93/1 266/94/1 267/76/1 268/75/1
f 269/94/1 270/95/1 271/77/1 272/76/1
f 273/95/1 274/96/1 275/78/1 276/77/1
f 277/96/1 278/97/1 279/79/1 280/78/1
f 281/97/1 282/98/1 283/80/1 284/79/1
f 285/98/1 286/99/1 287/81/1 288/80/1
f 289/99/1 290/100/1 291/82/1 292/81/1
f 293/100/1 294/101/1 295/83/1 296/82/1
f 297/101/1 298/102/1 299/84/1 300/83/1
f 301/103/1 302/104/1 303/86/1 304/85/1
f 305/104/1 306/105/1 307/87/1 308/86/1
f 309/105/1 310/106/1 311/88/1 312/87/1
f 313/106/1 314/107/1 315/89/1 316/88/1
f 317/107/1 318/108/1 319/90/1 320/89/1
f 321/109/1 322/110/1 323/92/1 324/91/1
f 325/110/1 326/111/1 327/93/1 328/92/1
f 329/111/1 330/112/1 331/94/1 332/93/1
f 333/112/1 334/113/1 335/95/1 336/94/1
f 337/113/1 338/114/1 339/96/1 340/95/1
f 341/114/1 342/115/1 343/97/1 344/96/1
f 345/115/1 346/116/1 347/98/1 348/97/1
f 349/116/1 350/117/1 351/99/1 352/98/1
f 353/117/1 354/118/1 355/100/1 356/99/1
f 357/118/1 358/119/1 359/101/1 360/100/1
f 361/119/1 362/120/1 363/102/1 364/101/1
f 365/121/1 366/122/1 367/104/1 368/103/1
f 369/122/1 370/123/1 371/105/1 372/104/1
f 373/123/1 374/124/1 375/106/1 376/105/1
f 377/124/1 378/125/1 379/107/1 380/106/1
f 381/125/1 382/126/1 383/108/1 384/107/1
f 385/127/1 386/128/1 387/110/1 388/109/1
f 389/128/1 390/129/1 391/111/1 392/110/1
f 393/129/1 394/130/1 395/112/1 396/111/1
f 397/130/1 398/131/1 399/113/1 400/112/1
f 401/131/1 402/132/1 403/114/1 404/113/1
f 405/132/1 406/133/1 407/115/1 408/114/1
f 409/133/1 410/134/1 411/116/1 412/115/1
f 413/134/1 414/135/1 415/117/1 416/116/1
f 417/135/1 418/136/1 419/118/1 420/117/1
f 421/136/1 422/137/1 423/119/1 424/118/1
f 425/137/1 426/138/1 427/120/1 428/119/1
f 429/139/1 430/140/1 431/122/1 432/121/1
f 433/140/1 434/141/1 435/123/1 436/122/1
f 437/141/1 438/142/1 439/124/1 440/123/1
f 441/142/1 442/143/1 443/125/1 444/124/1
f 445/143/1 446/144/1 447/126/1 448/125/1
f 449/145/1 450/146/1 451/128/1 452/127/1
f 453/146/1 454/147/1 455/129/1 456/128/1
f 457/147/1 458/148/1 459/130/1 460/129/1
f 461/148/1 462/149/1 463/131/1 464/130/1
f 465/149/1 466/150/1 467/132/1 468/131/1
f 469/150/1 470/151/1 471/133/1 472/132/1
f 473/151/1 474/152/1 475/134/1 476/133/1
f 477/152/1 478/153/1 479/135/1 480/134/1
f 481/153/1 482/154/1 483/136/1 484/135/1
f 485/154/1 486/155/1 487/137/1 488/136/1
f 489/155/1 490/156/1 491/138/1 492/137/1
f 493/157/1 494/158/1 495/140/1 496/139/1
f 497/158/1 498/159/1 499/141/1 500/140/1
f 501/159/1 502/160/1 503/142/1 504/141/1
f 505/160/1 506/161/1 507/143/1 508/142/1
f 509/161/1 510/162/1 511/144/1 512/143/1
f 513/163/1 514/164/1 515/146/1 516/145/1
f 517/164/1 518/165/1 519/147/1 520/146/1
f 521/165/1 522/166/1 523/148/1 524/147/1
f 525/166/1 526/167/1 527/149/1 528/148/1
f 529/167/1 530/168/1 531/150/1 532/149/1
f 533/168/1 534/169/1 535/151/1 536/150/1
f 537/169/1 538/170/1 539/152/1 540/151/1
f 541/170/1 542/171/1 543/153/1 544/152/1
f 545/171/1 546/172/1 547/154/1 548/153/1
f 549/172/1 550/173/1 551/155/1 552/154/1
f 553/173/1 554/174/1 555/156/1 556/155/1
f 557/175/1 558/176/1 559/158/1 560/157/1
f 561/176/1 562/177/1 563/159/1 564/158/1
f 565/177/1 566/178/1 567/160/1 568/159/1
f 569/178/1 570/179/1 571/161/1 572/160/1
f 573/179/1 574/180/1 575/162/1 576/161/1
f 577/181/1 578/182/1 579/183/1 580/184/1
f 581/182/1 582/185/1 583/186/1 584/183/1
f 585/187/1 586/188/1 587/189/1 588/190/1
f 589/188/1 590/191/1 591/192/1 592/189/1
f 593/191/1 594/193/1 595/194/1 596/192/1
f 597/193/1 598/195/1 599/196/1 600/194/1
f 601/181/1 602/182/1 603/183/1 604/184/1
f 605/182/1 606/185/1 607/186/1 608/183/1

