# Tiled2Unity generated file. Do not modify by hand.
# Wavefront file for 'Map1_mesh_0309.obj'

# Vertices (Count = 32)
v -32 -16 0
v -48 -16 0
v -48 0 0
v -32 0 0
v -32 -32 0
v -48 -32 0
v -48 -16 0
v -32 -16 0
v -32 -48 0
v -48 -48 0
v -48 -32 0
v -32 -32 0
v -176 -96 0
v -192 -96 0
v -192 -80 0
v -176 -80 0
v -16 -112 0
v -32 -112 0
v -32 -96 0
v -16 -96 0
v -32 -112 0
v -48 -112 0
v -48 -96 0
v -32 -96 0
v 0 -128 0
v -16 -128 0
v -16 -112 0
v 0 -112 0
v -112 -192 0
v -128 -192 0
v -128 -176 0
v -112 -176 0

# Texture cooridinates (Count = 25)
vt 0.3401843 0.6176471
vt 0.3515237 0.6176471
vt 0.3515237 0.6470588
vt 0.3401843 0.6470588
vt 0.3401843 0.5882353
vt 0.3515237 0.5882353
vt 0.3401843 0.5588235
vt 0.3515237 0.5588235
vt 0.4422396 0.4705882
vt 0.453579 0.4705882
vt 0.453579 0.5
vt 0.4422396 0.5
vt 0.3288448 0.4411765
vt 0.3401843 0.4411765
vt 0.3401843 0.4705882
vt 0.3288448 0.4705882
vt 0.3515237 0.4411765
vt 0.3515237 0.4705882
vt 0.3175053 0.4117647
vt 0.3288448 0.4117647
vt 0.3175053 0.4411765
vt 0.3968816 0.2941176
vt 0.4082211 0.2941176
vt 0.4082211 0.3235294
vt 0.3968816 0.3235294

# Normal
vn 0 0 -1

# Mesh description
g Map1_mesh_0309

# Faces
f 1/1/1 2/2/1 3/3/1 4/4/1
f 5/5/1 6/6/1 7/2/1 8/1/1
f 9/7/1 10/8/1 11/6/1 12/5/1
f 13/9/1 14/10/1 15/11/1 16/12/1
f 17/13/1 18/14/1 19/15/1 20/16/1
f 21/14/1 22/17/1 23/18/1 24/15/1
f 25/19/1 26/20/1 27/13/1 28/21/1
f 29/22/1 30/23/1 31/24/1 32/25/1

