# Tiled2Unity generated file. Do not modify by hand.
# Wavefront file for 'Map1_mesh_0102.obj'

# Vertices (Count = 244)
v 0 -16 0
v -16 -16 0
v -16 0 0
v 0 0 0
v -16 -16 0
v -32 -16 0
v -32 0 0
v -16 0 0
v -32 -16 0
v -48 -16 0
v -48 0 0
v -32 0 0
v -48 -16 0
v -64 -16 0
v -64 0 0
v -48 0 0
v -64 -16 0
v -80 -16 0
v -80 0 0
v -64 0 0
v 0 -160 0
v -16 -160 0
v -16 -144 0
v 0 -144 0
v -16 -160 0
v -32 -160 0
v -32 -144 0
v -16 -144 0
v -32 -160 0
v -48 -160 0
v -48 -144 0
v -32 -144 0
v -48 -160 0
v -64 -160 0
v -64 -144 0
v -48 -144 0
v -64 -160 0
v -80 -160 0
v -80 -144 0
v -64 -144 0
v -80 -160 0
v -96 -160 0
v -96 -144 0
v -80 -144 0
v -96 -160 0
v -112 -160 0
v -112 -144 0
v -96 -144 0
v -112 -160 0
v -128 -160 0
v -128 -144 0
v -112 -144 0
v 0 -176 0
v -16 -176 0
v -16 -160 0
v 0 -160 0
v -16 -176 0
v -32 -176 0
v -32 -160 0
v -16 -160 0
v -32 -176 0
v -48 -176 0
v -48 -160 0
v -32 -160 0
v -48 -176 0
v -64 -176 0
v -64 -160 0
v -48 -160 0
v -64 -176 0
v -80 -176 0
v -80 -160 0
v -64 -160 0
v -80 -176 0
v -96 -176 0
v -96 -160 0
v -80 -160 0
v -96 -176 0
v -112 -176 0
v -112 -160 0
v -96 -160 0
v -112 -176 0
v -128 -176 0
v -128 -160 0
v -112 -160 0
v 0 -192 0
v -16 -192 0
v -16 -176 0
v 0 -176 0
v -16 -192 0
v -32 -192 0
v -32 -176 0
v -16 -176 0
v -32 -192 0
v -48 -192 0
v -48 -176 0
v -32 -176 0
v -48 -192 0
v -64 -192 0
v -64 -176 0
v -48 -176 0
v -64 -192 0
v -80 -192 0
v -80 -176 0
v -64 -176 0
v -80 -192 0
v -96 -192 0
v -96 -176 0
v -80 -176 0
v -96 -192 0
v -112 -192 0
v -112 -176 0
v -96 -176 0
v -112 -192 0
v -128 -192 0
v -128 -176 0
v -112 -176 0
v 0 -208 0
v -16 -208 0
v -16 -192 0
v 0 -192 0
v -16 -208 0
v -32 -208 0
v -32 -192 0
v -16 -192 0
v -32 -208 0
v -48 -208 0
v -48 -192 0
v -32 -192 0
v -48 -208 0
v -64 -208 0
v -64 -192 0
v -48 -192 0
v -64 -208 0
v -80 -208 0
v -80 -192 0
v -64 -192 0
v -80 -208 0
v -96 -208 0
v -96 -192 0
v -80 -192 0
v -96 -208 0
v -112 -208 0
v -112 -192 0
v -96 -192 0
v -112 -208 0
v -128 -208 0
v -128 -192 0
v -112 -192 0
v 0 -224 0
v -16 -224 0
v -16 -208 0
v 0 -208 0
v -16 -224 0
v -32 -224 0
v -32 -208 0
v -16 -208 0
v -32 -224 0
v -48 -224 0
v -48 -208 0
v -32 -208 0
v -48 -224 0
v -64 -224 0
v -64 -208 0
v -48 -208 0
v -64 -224 0
v -80 -224 0
v -80 -208 0
v -64 -208 0
v -80 -224 0
v -96 -224 0
v -96 -208 0
v -80 -208 0
v -96 -224 0
v -112 -224 0
v -112 -208 0
v -96 -208 0
v -112 -224 0
v -128 -224 0
v -128 -208 0
v -112 -208 0
v 0 -240 0
v -16 -240 0
v -16 -224 0
v 0 -224 0
v -16 -240 0
v -32 -240 0
v -32 -224 0
v -16 -224 0
v -32 -240 0
v -48 -240 0
v -48 -224 0
v -32 -224 0
v -48 -240 0
v -64 -240 0
v -64 -224 0
v -48 -224 0
v -64 -240 0
v -80 -240 0
v -80 -224 0
v -64 -224 0
v -80 -240 0
v -96 -240 0
v -96 -224 0
v -80 -224 0
v -96 -240 0
v -112 -240 0
v -112 -224 0
v -96 -224 0
v -112 -240 0
v -128 -240 0
v -128 -224 0
v -112 -224 0
v 0 -256 0
v -16 -256 0
v -16 -240 0
v 0 -240 0
v -16 -256 0
v -32 -256 0
v -32 -240 0
v -16 -240 0
v -32 -256 0
v -48 -256 0
v -48 -240 0
v -32 -240 0
v -48 -256 0
v -64 -256 0
v -64 -240 0
v -48 -240 0
v -64 -256 0
v -80 -256 0
v -80 -240 0
v -64 -240 0
v -80 -256 0
v -96 -256 0
v -96 -240 0
v -80 -240 0
v -96 -256 0
v -112 -256 0
v -112 -240 0
v -96 -240 0
v -112 -256 0
v -128 -256 0
v -128 -240 0
v -112 -240 0

# Texture cooridinates (Count = 92)
vt 0.5142857 0.3333333
vt 0.5428572 0.3333333
vt 0.5428572 0.3563218
vt 0.5142857 0.3563218
vt 0.5714286 0.3333333
vt 0.5714286 0.3563218
vt 0.6 0.3333333
vt 0.6 0.3563218
vt 0.6285715 0.3333333
vt 0.6285715 0.3563218
vt 0.6571429 0.3333333
vt 0.6571429 0.3563218
vt 0.5142857 0.7471265
vt 0.5428572 0.7471265
vt 0.5428572 0.770115
vt 0.5142857 0.770115
vt 0.5714286 0.7471265
vt 0.5714286 0.770115
vt 0.6 0.7471265
vt 0.6 0.770115
vt 0.6285715 0.7471265
vt 0.6285715 0.770115
vt 0.6571429 0.7471265
vt 0.6571429 0.770115
vt 0 0.2873563
vt 0.02857143 0.2873563
vt 0.02857143 0.3103448
vt 0 0.3103448
vt 0.05714286 0.2873563
vt 0.05714286 0.3103448
vt 0.08571429 0.2873563
vt 0.08571429 0.3103448
vt 0.5142857 0.7241379
vt 0.5428572 0.7241379
vt 0.5714286 0.7241379
vt 0.6 0.7241379
vt 0.6285715 0.7241379
vt 0.6571429 0.7241379
vt 0 0.2643678
vt 0.02857143 0.2643678
vt 0.05714286 0.2643678
vt 0.08571429 0.2643678
vt 0.5142857 0.7011495
vt 0.5428572 0.7011495
vt 0.5714286 0.7011495
vt 0.6 0.7011495
vt 0.6285715 0.7011495
vt 0.6571429 0.7011495
vt 0 0.2413793
vt 0.02857143 0.2413793
vt 0.05714286 0.2413793
vt 0.08571429 0.2413793
vt 0.5142857 0.6781609
vt 0.5428572 0.6781609
vt 0.5714286 0.6781609
vt 0.6 0.6781609
vt 0.6285715 0.6781609
vt 0.6571429 0.6781609
vt 0 0.2183908
vt 0.02857143 0.2183908
vt 0.05714286 0.2183908
vt 0.08571429 0.2183908
vt 0.5142857 0.6551724
vt 0.5428572 0.6551724
vt 0.5714286 0.6551724
vt 0.6 0.6551724
vt 0.6285715 0.6551724
vt 0.6571429 0.6551724
vt 0 0.1954023
vt 0.02857143 0.1954023
vt 0.05714286 0.1954023
vt 0.08571429 0.1954023
vt 0.5142857 0.6321839
vt 0.5428572 0.6321839
vt 0.5714286 0.6321839
vt 0.6 0.6321839
vt 0.6285715 0.6321839
vt 0.6571429 0.6321839
vt 0 0.1724138
vt 0.02857143 0.1724138
vt 0.05714286 0.1724138
vt 0.08571429 0.1724138
vt 0.5142857 0.6091954
vt 0.5428572 0.6091954
vt 0.5714286 0.6091954
vt 0.6 0.6091954
vt 0.6285715 0.6091954
vt 0.6571429 0.6091954
vt 0 0.1494253
vt 0.02857143 0.1494253
vt 0.05714286 0.1494253
vt 0.08571429 0.1494253

# Normal
vn 0 0 -1

# Mesh description
g Map1_mesh_0102

# Faces
f 1/1/1 2/2/1 3/3/1 4/4/1
f 5/2/1 6/5/1 7/6/1 8/3/1
f 9/5/1 10/7/1 11/8/1 12/6/1
f 13/7/1 14/9/1 15/10/1 16/8/1
f 17/9/1 18/11/1 19/12/1 20/10/1
f 21/13/1 22/14/1 23/15/1 24/16/1
f 25/14/1 26/17/1 27/18/1 28/15/1
f 29/17/1 30/19/1 31/20/1 32/18/1
f 33/19/1 34/21/1 35/22/1 36/20/1
f 37/21/1 38/23/1 39/24/1 40/22/1
f 41/25/1 42/26/1 43/27/1 44/28/1
f 45/26/1 46/29/1 47/30/1 48/27/1
f 49/29/1 50/31/1 51/32/1 52/30/1
f 53/33/1 54/34/1 55/14/1 56/13/1
f 57/34/1 58/35/1 59/17/1 60/14/1
f 61/35/1 62/36/1 63/19/1 64/17/1
f 65/36/1 66/37/1 67/21/1 68/19/1
f 69/37/1 70/38/1 71/23/1 72/21/1
f 73/39/1 74/40/1 75/26/1 76/25/1
f 77/40/1 78/41/1 79/29/1 80/26/1
f 81/41/1 82/42/1 83/31/1 84/29/1
f 85/43/1 86/44/1 87/34/1 88/33/1
f 89/44/1 90/45/1 91/35/1 92/34/1
f 93/45/1 94/46/1 95/36/1 96/35/1
f 97/46/1 98/47/1 99/37/1 100/36/1
f 101/47/1 102/48/1 103/38/1 104/37/1
f 105/49/1 106/50/1 107/40/1 108/39/1
f 109/50/1 110/51/1 111/41/1 112/40/1
f 113/51/1 114/52/1 115/42/1 116/41/1
f 117/53/1 118/54/1 119/44/1 120/43/1
f 121/54/1 122/55/1 123/45/1 124/44/1
f 125/55/1 126/56/1 127/46/1 128/45/1
f 129/56/1 130/57/1 131/47/1 132/46/1
f 133/57/1 134/58/1 135/48/1 136/47/1
f 137/59/1 138/60/1 139/50/1 140/49/1
f 141/60/1 142/61/1 143/51/1 144/50/1
f 145/61/1 146/62/1 147/52/1 148/51/1
f 149/63/1 150/64/1 151/54/1 152/53/1
f 153/64/1 154/65/1 155/55/1 156/54/1
f 157/65/1 158/66/1 159/56/1 160/55/1
f 161/66/1 162/67/1 163/57/1 164/56/1
f 165/67/1 166/68/1 167/58/1 168/57/1
f 169/69/1 170/70/1 171/60/1 172/59/1
f 173/70/1 174/71/1 175/61/1 176/60/1
f 177/71/1 178/72/1 179/62/1 180/61/1
f 181/73/1 182/74/1 183/64/1 184/63/1
f 185/74/1 186/75/1 187/65/1 188/64/1
f 189/75/1 190/76/1 191/66/1 192/65/1
f 193/76/1 194/77/1 195/67/1 196/66/1
f 197/77/1 198/78/1 199/68/1 200/67/1
f 201/79/1 202/80/1 203/70/1 204/69/1
f 205/80/1 206/81/1 207/71/1 208/70/1
f 209/81/1 210/82/1 211/72/1 212/71/1
f 213/83/1 214/84/1 215/74/1 216/73/1
f 217/84/1 218/85/1 219/75/1 220/74/1
f 221/85/1 222/86/1 223/76/1 224/75/1
f 225/86/1 226/87/1 227/77/1 228/76/1
f 229/87/1 230/88/1 231/78/1 232/77/1
f 233/89/1 234/90/1 235/80/1 236/79/1
f 237/90/1 238/91/1 239/81/1 240/80/1
f 241/91/1 242/92/1 243/82/1 244/81/1

