# Tiled2Unity generated file. Do not modify by hand.
# Wavefront file for 'Map1_mesh_0220.obj'

# Vertices (Count = 124)
v 0 -16 0
v -16 -16 0
v -16 0 0
v 0 0 0
v -64 -16 0
v -80 -16 0
v -80 0 0
v -64 0 0
v 0 -32 0
v -16 -32 0
v -16 -16 0
v 0 -16 0
v -64 -32 0
v -80 -32 0
v -80 -16 0
v -64 -16 0
v -176 -32 0
v -192 -32 0
v -192 -16 0
v -176 -16 0
v 0 -48 0
v -16 -48 0
v -16 -32 0
v 0 -32 0
v -176 -48 0
v -192 -48 0
v -192 -32 0
v -176 -32 0
v 0 -64 0
v -16 -64 0
v -16 -48 0
v 0 -48 0
v -48 -64 0
v -64 -64 0
v -64 -48 0
v -48 -48 0
v -64 -64 0
v -80 -64 0
v -80 -48 0
v -64 -48 0
v 0 -80 0
v -16 -80 0
v -16 -64 0
v 0 -64 0
v -48 -80 0
v -64 -80 0
v -64 -64 0
v -48 -64 0
v -64 -80 0
v -80 -80 0
v -80 -64 0
v -64 -64 0
v -96 -80 0
v -112 -80 0
v -112 -64 0
v -96 -64 0
v -112 -80 0
v -128 -80 0
v -128 -64 0
v -112 -64 0
v 0 -96 0
v -16 -96 0
v -16 -80 0
v 0 -80 0
v -48 -96 0
v -64 -96 0
v -64 -80 0
v -48 -80 0
v -64 -96 0
v -80 -96 0
v -80 -80 0
v -64 -80 0
v -96 -96 0
v -112 -96 0
v -112 -80 0
v -96 -80 0
v 0 -112 0
v -16 -112 0
v -16 -96 0
v 0 -96 0
v 0 -128 0
v -16 -128 0
v -16 -112 0
v 0 -112 0
v 0 -144 0
v -16 -144 0
v -16 -128 0
v 0 -128 0
v -192 -144 0
v -208 -144 0
v -208 -128 0
v -192 -128 0
v 0 -160 0
v -16 -160 0
v -16 -144 0
v 0 -144 0
v -192 -160 0
v -208 -160 0
v -208 -144 0
v -192 -144 0
v 0 -176 0
v -16 -176 0
v -16 -160 0
v 0 -160 0
v 0 -192 0
v -16 -192 0
v -16 -176 0
v 0 -176 0
v 0 -208 0
v -16 -208 0
v -16 -192 0
v 0 -192 0
v 0 -224 0
v -16 -224 0
v -16 -208 0
v 0 -208 0
v 0 -240 0
v -16 -240 0
v -16 -224 0
v 0 -224 0
v 0 -256 0
v -16 -256 0
v -16 -240 0
v 0 -240 0

# Texture cooridinates (Count = 36)
vt 0.84 0.76
vt 0.88 0.76
vt 0.88 0.8
vt 0.84 0.8
vt 0.4 0.92
vt 0.44 0.92
vt 0.44 0.96
vt 0.4 0.96
vt 0.4 0.88
vt 0.44 0.88
vt 0.48 0.68
vt 0.52 0.68
vt 0.52 0.72
vt 0.48 0.72
vt 0.56 0.68
vt 0.56 0.72
vt 0.48 0.64
vt 0.52 0.64
vt 0.56 0.64
vt 0.52 0.76
vt 0.48 0.76
vt 0.48 0.8
vt 0.52 0.8
vt 0.44 0.76
vt 0.44 0.8
vt 0.48 0.6
vt 0.52 0.6
vt 0.56 0.6
vt 0.48 0.84
vt 0.44 0.84
vt 0.52 0.88
vt 0.56 0.88
vt 0.56 0.92
vt 0.52 0.92
vt 0.52 0.84
vt 0.56 0.84

# Normal
vn 0 0 -1

# Mesh description
g Map1_mesh_0220

# Faces
f 1/1/1 2/2/1 3/3/1 4/4/1
f 5/5/1 6/6/1 7/7/1 8/8/1
f 9/1/1 10/2/1 11/3/1 12/4/1
f 13/9/1 14/10/1 15/6/1 16/5/1
f 17/5/1 18/6/1 19/7/1 20/8/1
f 21/1/1 22/2/1 23/3/1 24/4/1
f 25/9/1 26/10/1 27/6/1 28/5/1
f 29/1/1 30/2/1 31/3/1 32/4/1
f 33/11/1 34/12/1 35/13/1 36/14/1
f 37/12/1 38/15/1 39/16/1 40/13/1
f 41/1/1 42/2/1 43/3/1 44/4/1
f 45/17/1 46/18/1 47/12/1 48/11/1
f 49/18/1 50/19/1 51/15/1 52/12/1
f 53/20/1 54/21/1 55/22/1 56/23/1
f 57/21/1 58/24/1 59/25/1 60/22/1
f 61/1/1 62/2/1 63/3/1 64/4/1
f 65/26/1 66/27/1 67/18/1 68/17/1
f 69/27/1 70/28/1 71/19/1 72/18/1
f 73/25/1 74/22/1 75/29/1 76/30/1
f 77/1/1 78/2/1 79/3/1 80/4/1
f 81/1/1 82/2/1 83/3/1 84/4/1
f 85/1/1 86/2/1 87/3/1 88/4/1
f 89/31/1 90/32/1 91/33/1 92/34/1
f 93/1/1 94/2/1 95/3/1 96/4/1
f 97/35/1 98/36/1 99/32/1 100/31/1
f 101/1/1 102/2/1 103/3/1 104/4/1
f 105/1/1 106/2/1 107/3/1 108/4/1
f 109/1/1 110/2/1 111/3/1 112/4/1
f 113/1/1 114/2/1 115/3/1 116/4/1
f 117/1/1 118/2/1 119/3/1 120/4/1
f 121/1/1 122/2/1 123/3/1 124/4/1

