# Tiled2Unity generated file. Do not modify by hand.
# Wavefront file for 'Map1_mesh_0340.obj'

# Vertices (Count = 40)
v -208 -48 0
v -224 -48 0
v -224 -32 0
v -208 -32 0
v -208 -64 0
v -224 -64 0
v -224 -48 0
v -208 -48 0
v -208 -80 0
v -224 -80 0
v -224 -64 0
v -208 -64 0
v -224 -80 0
v -240 -80 0
v -240 -64 0
v -224 -64 0
v -240 -80 0
v -256 -80 0
v -256 -64 0
v -240 -64 0
v -208 -96 0
v -224 -96 0
v -224 -80 0
v -208 -80 0
v -208 -112 0
v -224 -112 0
v -224 -96 0
v -208 -96 0
v -208 -128 0
v -224 -128 0
v -224 -112 0
v -208 -112 0
v -208 -144 0
v -224 -144 0
v -224 -128 0
v -208 -128 0
v -208 -160 0
v -224 -160 0
v -224 -144 0
v -208 -144 0

# Texture cooridinates (Count = 10)
vt 0.16 0.92
vt 0.2 0.92
vt 0.2 0.96
vt 0.16 0.96
vt 0.16 0.88
vt 0.2 0.88
vt 0.36 0.24
vt 0.32 0.24
vt 0.32 0.28
vt 0.36 0.28

# Normal
vn 0 0 -1

# Mesh description
g Map1_mesh_0340

# Faces
f 1/1/1 2/2/1 3/3/1 4/4/1
f 5/5/1 6/6/1 7/2/1 8/1/1
f 9/5/1 10/6/1 11/2/1 12/1/1
f 13/7/1 14/8/1 15/9/1 16/10/1
f 17/7/1 18/8/1 19/9/1 20/10/1
f 21/5/1 22/6/1 23/2/1 24/1/1
f 25/5/1 26/6/1 27/2/1 28/1/1
f 29/5/1 30/6/1 31/2/1 32/1/1
f 33/5/1 34/6/1 35/2/1 36/1/1
f 37/5/1 38/6/1 39/2/1 40/1/1

