# Tiled2Unity generated file. Do not modify by hand.
# Wavefront file for 'Map1_mesh_0324.obj'

# Vertices (Count = 64)
v -208 -16 0
v -224 -16 0
v -224 0 0
v -208 0 0
v -240 -16 0
v -256 -16 0
v -256 0 0
v -240 0 0
v -224 -32 0
v -240 -32 0
v -240 -16 0
v -224 -16 0
v -96 -192 0
v -112 -192 0
v -112 -176 0
v -96 -176 0
v -112 -192 0
v -128 -192 0
v -128 -176 0
v -112 -176 0
v -128 -192 0
v -144 -192 0
v -144 -176 0
v -128 -176 0
v -144 -192 0
v -160 -192 0
v -160 -176 0
v -144 -176 0
v -160 -192 0
v -176 -192 0
v -176 -176 0
v -160 -176 0
v -224 -192 0
v -240 -192 0
v -240 -176 0
v -224 -176 0
v -240 -192 0
v -256 -192 0
v -256 -176 0
v -240 -176 0
v -160 -208 0
v -176 -208 0
v -176 -192 0
v -160 -192 0
v -240 -208 0
v -256 -208 0
v -256 -192 0
v -240 -192 0
v -160 -224 0
v -176 -224 0
v -176 -208 0
v -160 -208 0
v -240 -224 0
v -256 -224 0
v -256 -208 0
v -240 -208 0
v -160 -240 0
v -176 -240 0
v -176 -224 0
v -160 -224 0
v -240 -240 0
v -256 -240 0
v -256 -224 0
v -240 -224 0

# Texture cooridinates (Count = 40)
vt 0.07937633 0.4117647
vt 0.0907158 0.4117647
vt 0.0907158 0.4411765
vt 0.07937633 0.4411765
vt 0.1020553 0.4117647
vt 0.1133948 0.4117647
vt 0.1133948 0.4411765
vt 0.1020553 0.4411765
vt 0.0907158 0.3823529
vt 0.1020553 0.3823529
vt 0 0.08823532
vt 0.01133948 0.08823532
vt 0.01133948 0.1176471
vt 0 0.1176471
vt 0.02267895 0.08823532
vt 0.02267895 0.1176471
vt 0.03401843 0.08823532
vt 0.03401843 0.1176471
vt 0.0453579 0.08823532
vt 0.0453579 0.1176471
vt 0.05669738 0.08823532
vt 0.05669738 0.1176471
vt 0.0907158 0.08823532
vt 0.1020553 0.08823532
vt 0.1020553 0.1176471
vt 0.0907158 0.1176471
vt 0.1133948 0.08823532
vt 0.1133948 0.1176471
vt 0.0453579 0.05882353
vt 0.05669738 0.05882353
vt 0.1020553 0.05882353
vt 0.1133948 0.05882353
vt 0.0453579 0.02941179
vt 0.05669738 0.02941179
vt 0.1020553 0.02941179
vt 0.1133948 0.02941179
vt 0.0453579 0
vt 0.05669738 0
vt 0.1020553 0
vt 0.1133948 0

# Normal
vn 0 0 -1

# Mesh description
g Map1_mesh_0324

# Faces
f 1/1/1 2/2/1 3/3/1 4/4/1
f 5/5/1 6/6/1 7/7/1 8/8/1
f 9/9/1 10/10/1 11/5/1 12/2/1
f 13/11/1 14/12/1 15/13/1 16/14/1
f 17/12/1 18/15/1 19/16/1 20/13/1
f 21/15/1 22/17/1 23/18/1 24/16/1
f 25/17/1 26/19/1 27/20/1 28/18/1
f 29/19/1 30/21/1 31/22/1 32/20/1
f 33/23/1 34/24/1 35/25/1 36/26/1
f 37/24/1 38/27/1 39/28/1 40/25/1
f 41/29/1 42/30/1 43/21/1 44/19/1
f 45/31/1 46/32/1 47/27/1 48/24/1
f 49/33/1 50/34/1 51/30/1 52/29/1
f 53/35/1 54/36/1 55/32/1 56/31/1
f 57/37/1 58/38/1 59/34/1 60/33/1
f 61/39/1 62/40/1 63/36/1 64/35/1

