# Tiled2Unity generated file. Do not modify by hand.
# Wavefront file for 'Map1_mesh_0293.obj'

# Vertices (Count = 56)
v 0 -96 0
v -16 -96 0
v -16 -80 0
v 0 -80 0
v -16 -96 0
v -32 -96 0
v -32 -80 0
v -16 -80 0
v -32 -96 0
v -48 -96 0
v -48 -80 0
v -32 -80 0
v -64 -96 0
v -80 -96 0
v -80 -80 0
v -64 -80 0
v -128 -96 0
v -144 -96 0
v -144 -80 0
v -128 -80 0
v -192 -96 0
v -208 -96 0
v -208 -80 0
v -192 -80 0
v -208 -96 0
v -224 -96 0
v -224 -80 0
v -208 -80 0
v -224 -96 0
v -240 -96 0
v -240 -80 0
v -224 -80 0
v -240 -96 0
v -256 -96 0
v -256 -80 0
v -240 -80 0
v -48 -112 0
v -64 -112 0
v -64 -96 0
v -48 -96 0
v -144 -112 0
v -160 -112 0
v -160 -96 0
v -144 -96 0
v -176 -112 0
v -192 -112 0
v -192 -96 0
v -176 -96 0
v -160 -128 0
v -176 -128 0
v -176 -112 0
v -160 -112 0
v -240 -256 0
v -256 -256 0
v -256 -240 0
v -240 -240 0

# Texture cooridinates (Count = 40)
vt 0.1360737 0.9411765
vt 0.1474132 0.9411765
vt 0.1474132 0.9705882
vt 0.1360737 0.9705882
vt 0.1587527 0.9411765
vt 0.1587527 0.9705882
vt 0.1700921 0.9411765
vt 0.1700921 0.9705882
vt 0.1814316 0.9411765
vt 0.1927711 0.9411765
vt 0.1927711 0.9705882
vt 0.1814316 0.9705882
vt 0.2267895 0.9411765
vt 0.238129 0.9411765
vt 0.238129 0.9705882
vt 0.2267895 0.9705882
vt 0.2721474 0.9411765
vt 0.2834869 0.9411765
vt 0.2834869 0.9705882
vt 0.2721474 0.9705882
vt 0.2948264 0.9411765
vt 0.2948264 0.9705882
vt 0.3061658 0.9411765
vt 0.3061658 0.9705882
vt 0.3175053 0.9411765
vt 0.3175053 0.9705882
vt 0.1700921 0.9117647
vt 0.1814316 0.9117647
vt 0.238129 0.9117647
vt 0.2494685 0.9117647
vt 0.2494685 0.9411765
vt 0.2608079 0.9117647
vt 0.2721474 0.9117647
vt 0.2608079 0.9411765
vt 0.2494685 0.8823529
vt 0.2608079 0.8823529
vt 0.3061658 0.6470588
vt 0.3175053 0.6470588
vt 0.3175053 0.6764706
vt 0.3061658 0.6764706

# Normal
vn 0 0 -1

# Mesh description
g Map1_mesh_0293

# Faces
f 1/1/1 2/2/1 3/3/1 4/4/1
f 5/2/1 6/5/1 7/6/1 8/3/1
f 9/5/1 10/7/1 11/8/1 12/6/1
f 13/9/1 14/10/1 15/11/1 16/12/1
f 17/13/1 18/14/1 19/15/1 20/16/1
f 21/17/1 22/18/1 23/19/1 24/20/1
f 25/18/1 26/21/1 27/22/1 28/19/1
f 29/21/1 30/23/1 31/24/1 32/22/1
f 33/23/1 34/25/1 35/26/1 36/24/1
f 37/27/1 38/28/1 39/9/1 40/7/1
f 41/29/1 42/30/1 43/31/1 44/14/1
f 45/32/1 46/33/1 47/17/1 48/34/1
f 49/35/1 50/36/1 51/32/1 52/30/1
f 53/37/1 54/38/1 55/39/1 56/40/1

