# Tiled2Unity generated file. Do not modify by hand.
# Wavefront file for 'Map1_mesh_0232.obj'

# Vertices (Count = 76)
v -32 -176 0
v -48 -176 0
v -48 -160 0
v -32 -160 0
v -64 -176 0
v -80 -176 0
v -80 -160 0
v -64 -160 0
v -80 -176 0
v -96 -176 0
v -96 -160 0
v -80 -160 0
v -96 -176 0
v -112 -176 0
v -112 -160 0
v -96 -160 0
v -112 -176 0
v -128 -176 0
v -128 -160 0
v -112 -160 0
v -32 -192 0
v -48 -192 0
v -48 -176 0
v -32 -176 0
v -64 -192 0
v -80 -192 0
v -80 -176 0
v -64 -176 0
v -80 -192 0
v -96 -192 0
v -96 -176 0
v -80 -176 0
v -96 -192 0
v -112 -192 0
v -112 -176 0
v -96 -176 0
v -112 -192 0
v -128 -192 0
v -128 -176 0
v -112 -176 0
v 0 -208 0
v -16 -208 0
v -16 -192 0
v 0 -192 0
v -32 -208 0
v -48 -208 0
v -48 -192 0
v -32 -192 0
v -64 -208 0
v -80 -208 0
v -80 -192 0
v -64 -192 0
v -80 -208 0
v -96 -208 0
v -96 -192 0
v -80 -192 0
v -96 -208 0
v -112 -208 0
v -112 -192 0
v -96 -192 0
v -112 -208 0
v -128 -208 0
v -128 -192 0
v -112 -192 0
v -32 -224 0
v -48 -224 0
v -48 -208 0
v -32 -208 0
v -32 -240 0
v -48 -240 0
v -48 -224 0
v -32 -224 0
v -32 -256 0
v -48 -256 0
v -48 -240 0
v -32 -240 0

# Texture cooridinates (Count = 32)
vt 0.24 0.92
vt 0.28 0.92
vt 0.28 0.96
vt 0.24 0.96
vt 0.52 0.8
vt 0.56 0.8
vt 0.56 0.84
vt 0.52 0.84
vt 0.6 0.8
vt 0.6 0.84
vt 0.64 0.8
vt 0.64 0.84
vt 0.68 0.8
vt 0.68 0.84
vt 0.24 0.88
vt 0.28 0.88
vt 0.52 0.76
vt 0.56 0.76
vt 0.6 0.76
vt 0.64 0.76
vt 0.68 0.76
vt 0.48 0.76
vt 0.48 0.8
vt 0.4 0.8
vt 0.44 0.8
vt 0.44 0.84
vt 0.4 0.84
vt 0.52 0.72
vt 0.56 0.72
vt 0.6 0.72
vt 0.64 0.72
vt 0.68 0.72

# Normal
vn 0 0 -1

# Mesh description
g Map1_mesh_0232

# Faces
f 1/1/1 2/2/1 3/3/1 4/4/1
f 5/5/1 6/6/1 7/7/1 8/8/1
f 9/6/1 10/9/1 11/10/1 12/7/1
f 13/9/1 14/11/1 15/12/1 16/10/1
f 17/11/1 18/13/1 19/14/1 20/12/1
f 21/15/1 22/16/1 23/2/1 24/1/1
f 25/17/1 26/18/1 27/6/1 28/5/1
f 29/18/1 30/19/1 31/9/1 32/6/1
f 33/19/1 34/20/1 35/11/1 36/9/1
f 37/20/1 38/21/1 39/13/1 40/11/1
f 41/22/1 42/17/1 43/5/1 44/23/1
f 45/24/1 46/25/1 47/26/1 48/27/1
f 49/28/1 50/29/1 51/18/1 52/17/1
f 53/29/1 54/30/1 55/19/1 56/18/1
f 57/30/1 58/31/1 59/20/1 60/19/1
f 61/31/1 62/32/1 63/21/1 64/20/1
f 65/24/1 66/25/1 67/26/1 68/27/1
f 69/24/1 70/25/1 71/26/1 72/27/1
f 73/24/1 74/25/1 75/26/1 76/27/1

