# Tiled2Unity generated file. Do not modify by hand.
# Wavefront file for 'Map1_mesh_0229.obj'

# Vertices (Count = 52)
v -16 -16 0
v -32 -16 0
v -32 0 0
v -16 0 0
v -160 -16 0
v -176 -16 0
v -176 0 0
v -160 0 0
v 0 -160 0
v -16 -160 0
v -16 -144 0
v 0 -144 0
v -112 -160 0
v -128 -160 0
v -128 -144 0
v -112 -144 0
v -224 -160 0
v -240 -160 0
v -240 -144 0
v -224 -144 0
v -112 -176 0
v -128 -176 0
v -128 -160 0
v -112 -160 0
v -192 -176 0
v -208 -176 0
v -208 -160 0
v -192 -160 0
v -192 -192 0
v -208 -192 0
v -208 -176 0
v -192 -176 0
v -192 -208 0
v -208 -208 0
v -208 -192 0
v -192 -192 0
v -208 -208 0
v -224 -208 0
v -224 -192 0
v -208 -192 0
v -224 -208 0
v -240 -208 0
v -240 -192 0
v -224 -192 0
v -240 -208 0
v -256 -208 0
v -256 -192 0
v -240 -192 0
v -240 -224 0
v -256 -224 0
v -256 -208 0
v -240 -208 0

# Texture cooridinates (Count = 29)
vt 0.4 0.8
vt 0.44 0.8
vt 0.44 0.84
vt 0.4 0.84
vt 0.52 0.84
vt 0.56 0.84
vt 0.56 0.88
vt 0.52 0.88
vt 0.4 0.88
vt 0.44 0.88
vt 0.44 0.92
vt 0.4 0.92
vt 0.44 0.96
vt 0.4 0.96
vt 0.24 0.92
vt 0.28 0.92
vt 0.28 0.96
vt 0.24 0.96
vt 0.24 0.88
vt 0.28 0.88
vt 0.36 0.84
vt 0.36 0.88
vt 0.32 0.88
vt 0.36 0.92
vt 0.32 0.92
vt 0.44 0.76
vt 0.48 0.76
vt 0.48 0.8
vt 0.48 0.84

# Normal
vn 0 0 -1

# Mesh description
g Map1_mesh_0229

# Faces
f 1/1/1 2/2/1 3/3/1 4/4/1
f 5/5/1 6/6/1 7/7/1 8/8/1
f 9/9/1 10/10/1 11/11/1 12/12/1
f 13/12/1 14/11/1 15/13/1 16/14/1
f 17/9/1 18/10/1 19/11/1 20/12/1
f 21/9/1 22/10/1 23/11/1 24/12/1
f 25/15/1 26/16/1 27/17/1 28/18/1
f 29/19/1 30/20/1 31/16/1 32/15/1
f 33/21/1 34/4/1 35/9/1 36/22/1
f 37/23/1 38/22/1 39/24/1 40/25/1
f 41/23/1 42/22/1 43/24/1 44/25/1
f 45/26/1 46/27/1 47/28/1 48/2/1
f 49/2/1 50/28/1 51/29/1 52/3/1

