# Tiled2Unity generated file. Do not modify by hand.
# Wavefront file for 'Map1_mesh_0277.obj'

# Vertices (Count = 60)
v 0 -16 0
v -16 -16 0
v -16 0 0
v 0 0 0
v 0 -32 0
v -16 -32 0
v -16 -16 0
v 0 -16 0
v -16 -32 0
v -32 -32 0
v -32 -16 0
v -16 -16 0
v -32 -32 0
v -48 -32 0
v -48 -16 0
v -32 -16 0
v 0 -48 0
v -16 -48 0
v -16 -32 0
v 0 -32 0
v -16 -48 0
v -32 -48 0
v -32 -32 0
v -16 -32 0
v -32 -48 0
v -48 -48 0
v -48 -32 0
v -32 -32 0
v 0 -64 0
v -16 -64 0
v -16 -48 0
v 0 -48 0
v -32 -64 0
v -48 -64 0
v -48 -48 0
v -32 -48 0
v 0 -80 0
v -16 -80 0
v -16 -64 0
v 0 -64 0
v -32 -80 0
v -48 -80 0
v -48 -64 0
v -32 -64 0
v 0 -96 0
v -16 -96 0
v -16 -80 0
v 0 -80 0
v -32 -96 0
v -48 -96 0
v -48 -80 0
v -32 -80 0
v 0 -112 0
v -16 -112 0
v -16 -96 0
v 0 -96 0
v -32 -112 0
v -48 -112 0
v -48 -96 0
v -32 -96 0

# Texture cooridinates (Count = 14)
vt 0.76 0.76
vt 0.8 0.76
vt 0.8 0.8
vt 0.76 0.8
vt 0.4 0.92
vt 0.44 0.92
vt 0.44 0.96
vt 0.4 0.96
vt 0.84 0.76
vt 0.88 0.76
vt 0.88 0.8
vt 0.84 0.8
vt 0.4 0.88
vt 0.44 0.88

# Normal
vn 0 0 -1

# Mesh description
g Map1_mesh_0277

# Faces
f 1/1/1 2/2/1 3/3/1 4/4/1
f 5/1/1 6/2/1 7/3/1 8/4/1
f 9/5/1 10/6/1 11/7/1 12/8/1
f 13/9/1 14/10/1 15/11/1 16/12/1
f 17/1/1 18/2/1 19/3/1 20/4/1
f 21/13/1 22/14/1 23/6/1 24/5/1
f 25/9/1 26/10/1 27/11/1 28/12/1
f 29/1/1 30/2/1 31/3/1 32/4/1
f 33/9/1 34/10/1 35/11/1 36/12/1
f 37/1/1 38/2/1 39/3/1 40/4/1
f 41/9/1 42/10/1 43/11/1 44/12/1
f 45/1/1 46/2/1 47/3/1 48/4/1
f 49/9/1 50/10/1 51/11/1 52/12/1
f 53/1/1 54/2/1 55/3/1 56/4/1
f 57/9/1 58/10/1 59/11/1 60/12/1

