# Tiled2Unity generated file. Do not modify by hand.
# Wavefront file for 'Map1_mesh_0243.obj'

# Vertices (Count = 64)
v 0 -16 0
v -16 -16 0
v -16 0 0
v 0 0 0
v 0 -32 0
v -16 -32 0
v -16 -16 0
v 0 -16 0
v 0 -48 0
v -16 -48 0
v -16 -32 0
v 0 -32 0
v -144 -48 0
v -160 -48 0
v -160 -32 0
v -144 -32 0
v -144 -64 0
v -160 -64 0
v -160 -48 0
v -144 -48 0
v -80 -96 0
v -96 -96 0
v -96 -80 0
v -80 -80 0
v -96 -96 0
v -112 -96 0
v -112 -80 0
v -96 -80 0
v -128 -96 0
v -144 -96 0
v -144 -80 0
v -128 -80 0
v -144 -96 0
v -160 -96 0
v -160 -80 0
v -144 -80 0
v -80 -112 0
v -96 -112 0
v -96 -96 0
v -80 -96 0
v -128 -112 0
v -144 -112 0
v -144 -96 0
v -128 -96 0
v -144 -112 0
v -160 -112 0
v -160 -96 0
v -144 -96 0
v -128 -128 0
v -144 -128 0
v -144 -112 0
v -128 -112 0
v -144 -128 0
v -160 -128 0
v -160 -112 0
v -144 -112 0
v -192 -160 0
v -208 -160 0
v -208 -144 0
v -192 -144 0
v -192 -176 0
v -208 -176 0
v -208 -160 0
v -192 -160 0

# Texture cooridinates (Count = 36)
vt 0.84 0.76
vt 0.88 0.76
vt 0.88 0.8
vt 0.84 0.8
vt 0.4 0.92
vt 0.44 0.92
vt 0.44 0.96
vt 0.4 0.96
vt 0.4 0.88
vt 0.44 0.88
vt 0.52 0.76
vt 0.48 0.76
vt 0.48 0.8
vt 0.52 0.8
vt 0.44 0.76
vt 0.44 0.8
vt 0.2 0.52
vt 0.24 0.52
vt 0.24 0.56
vt 0.2 0.56
vt 0.28 0.52
vt 0.28 0.56
vt 0.48 0.84
vt 0.44 0.84
vt 0.2 0.48
vt 0.24 0.48
vt 0.28 0.48
vt 0.2 0.44
vt 0.24 0.44
vt 0.28 0.44
vt 0.52 0.88
vt 0.56 0.88
vt 0.56 0.92
vt 0.52 0.92
vt 0.52 0.84
vt 0.56 0.84

# Normal
vn 0 0 -1

# Mesh description
g Map1_mesh_0243

# Faces
f 1/1/1 2/2/1 3/3/1 4/4/1
f 5/1/1 6/2/1 7/3/1 8/4/1
f 9/1/1 10/2/1 11/3/1 12/4/1
f 13/5/1 14/6/1 15/7/1 16/8/1
f 17/9/1 18/10/1 19/6/1 20/5/1
f 21/11/1 22/12/1 23/13/1 24/14/1
f 25/12/1 26/15/1 27/16/1 28/13/1
f 29/17/1 30/18/1 31/19/1 32/20/1
f 33/18/1 34/21/1 35/22/1 36/19/1
f 37/16/1 38/13/1 39/23/1 40/24/1
f 41/25/1 42/26/1 43/18/1 44/17/1
f 45/26/1 46/27/1 47/21/1 48/18/1
f 49/28/1 50/29/1 51/26/1 52/25/1
f 53/29/1 54/30/1 55/27/1 56/26/1
f 57/31/1 58/32/1 59/33/1 60/34/1
f 61/35/1 62/36/1 63/32/1 64/31/1

