# Tiled2Unity generated file. Do not modify by hand.
# Wavefront file for 'Map1_mesh_0125.obj'

# Vertices (Count = 336)
v 0 -48 0
v -16 -48 0
v -16 -32 0
v 0 -32 0
v -16 -48 0
v -32 -48 0
v -32 -32 0
v -16 -32 0
v -32 -48 0
v -48 -48 0
v -48 -32 0
v -32 -32 0
v -48 -48 0
v -64 -48 0
v -64 -32 0
v -48 -32 0
v -64 -48 0
v -80 -48 0
v -80 -32 0
v -64 -32 0
v -80 -48 0
v -96 -48 0
v -96 -32 0
v -80 -32 0
v -96 -48 0
v -112 -48 0
v -112 -32 0
v -96 -32 0
v -112 -48 0
v -128 -48 0
v -128 -32 0
v -112 -32 0
v -128 -48 0
v -144 -48 0
v -144 -32 0
v -128 -32 0
v -144 -48 0
v -160 -48 0
v -160 -32 0
v -144 -32 0
v 0 -64 0
v -16 -64 0
v -16 -48 0
v 0 -48 0
v -16 -64 0
v -32 -64 0
v -32 -48 0
v -16 -48 0
v -32 -64 0
v -48 -64 0
v -48 -48 0
v -32 -48 0
v -48 -64 0
v -64 -64 0
v -64 -48 0
v -48 -48 0
v -64 -64 0
v -80 -64 0
v -80 -48 0
v -64 -48 0
v -80 -64 0
v -96 -64 0
v -96 -48 0
v -80 -48 0
v -96 -64 0
v -112 -64 0
v -112 -48 0
v -96 -48 0
v -112 -64 0
v -128 -64 0
v -128 -48 0
v -112 -48 0
v -128 -64 0
v -144 -64 0
v -144 -48 0
v -128 -48 0
v -144 -64 0
v -160 -64 0
v -160 -48 0
v -144 -48 0
v 0 -80 0
v -16 -80 0
v -16 -64 0
v 0 -64 0
v -16 -80 0
v -32 -80 0
v -32 -64 0
v -16 -64 0
v -32 -80 0
v -48 -80 0
v -48 -64 0
v -32 -64 0
v -48 -80 0
v -64 -80 0
v -64 -64 0
v -48 -64 0
v -64 -80 0
v -80 -80 0
v -80 -64 0
v -64 -64 0
v -80 -80 0
v -96 -80 0
v -96 -64 0
v -80 -64 0
v -96 -80 0
v -112 -80 0
v -112 -64 0
v -96 -64 0
v -112 -80 0
v -128 -80 0
v -128 -64 0
v -112 -64 0
v -128 -80 0
v -144 -80 0
v -144 -64 0
v -128 -64 0
v -144 -80 0
v -160 -80 0
v -160 -64 0
v -144 -64 0
v 0 -96 0
v -16 -96 0
v -16 -80 0
v 0 -80 0
v -16 -96 0
v -32 -96 0
v -32 -80 0
v -16 -80 0
v -32 -96 0
v -48 -96 0
v -48 -80 0
v -32 -80 0
v -48 -96 0
v -64 -96 0
v -64 -80 0
v -48 -80 0
v -64 -96 0
v -80 -96 0
v -80 -80 0
v -64 -80 0
v -80 -96 0
v -96 -96 0
v -96 -80 0
v -80 -80 0
v -96 -96 0
v -112 -96 0
v -112 -80 0
v -96 -80 0
v -112 -96 0
v -128 -96 0
v -128 -80 0
v -112 -80 0
v -128 -96 0
v -144 -96 0
v -144 -80 0
v -128 -80 0
v 0 -112 0
v -16 -112 0
v -16 -96 0
v 0 -96 0
v -16 -112 0
v -32 -112 0
v -32 -96 0
v -16 -96 0
v -32 -112 0
v -48 -112 0
v -48 -96 0
v -32 -96 0
v -48 -112 0
v -64 -112 0
v -64 -96 0
v -48 -96 0
v -64 -112 0
v -80 -112 0
v -80 -96 0
v -64 -96 0
v -80 -112 0
v -96 -112 0
v -96 -96 0
v -80 -96 0
v -96 -112 0
v -112 -112 0
v -112 -96 0
v -96 -96 0
v -112 -112 0
v -128 -112 0
v -128 -96 0
v -112 -96 0
v -128 -112 0
v -144 -112 0
v -144 -96 0
v -128 -96 0
v 0 -128 0
v -16 -128 0
v -16 -112 0
v 0 -112 0
v -16 -128 0
v -32 -128 0
v -32 -112 0
v -16 -112 0
v -32 -128 0
v -48 -128 0
v -48 -112 0
v -32 -112 0
v -48 -128 0
v -64 -128 0
v -64 -112 0
v -48 -112 0
v -64 -128 0
v -80 -128 0
v -80 -112 0
v -64 -112 0
v -80 -128 0
v -96 -128 0
v -96 -112 0
v -80 -112 0
v -96 -128 0
v -112 -128 0
v -112 -112 0
v -96 -112 0
v -112 -128 0
v -128 -128 0
v -128 -112 0
v -112 -112 0
v -128 -128 0
v -144 -128 0
v -144 -112 0
v -128 -112 0
v 0 -144 0
v -16 -144 0
v -16 -128 0
v 0 -128 0
v -16 -144 0
v -32 -144 0
v -32 -128 0
v -16 -128 0
v -32 -144 0
v -48 -144 0
v -48 -128 0
v -32 -128 0
v -48 -144 0
v -64 -144 0
v -64 -128 0
v -48 -128 0
v -64 -144 0
v -80 -144 0
v -80 -128 0
v -64 -128 0
v -80 -144 0
v -96 -144 0
v -96 -128 0
v -80 -128 0
v -96 -144 0
v -112 -144 0
v -112 -128 0
v -96 -128 0
v -112 -144 0
v -128 -144 0
v -128 -128 0
v -112 -128 0
v -128 -144 0
v -144 -144 0
v -144 -128 0
v -128 -128 0
v 0 -160 0
v -16 -160 0
v -16 -144 0
v 0 -144 0
v -16 -160 0
v -32 -160 0
v -32 -144 0
v -16 -144 0
v -32 -160 0
v -48 -160 0
v -48 -144 0
v -32 -144 0
v -48 -160 0
v -64 -160 0
v -64 -144 0
v -48 -144 0
v -64 -160 0
v -80 -160 0
v -80 -144 0
v -64 -144 0
v -80 -160 0
v -96 -160 0
v -96 -144 0
v -80 -144 0
v -96 -160 0
v -112 -160 0
v -112 -144 0
v -96 -144 0
v -112 -160 0
v -128 -160 0
v -128 -144 0
v -112 -144 0
v -128 -160 0
v -144 -160 0
v -144 -144 0
v -128 -144 0
v 0 -176 0
v -16 -176 0
v -16 -160 0
v 0 -160 0
v -16 -176 0
v -32 -176 0
v -32 -160 0
v -16 -160 0
v -32 -176 0
v -48 -176 0
v -48 -160 0
v -32 -160 0
v -48 -176 0
v -64 -176 0
v -64 -160 0
v -48 -160 0
v -64 -176 0
v -80 -176 0
v -80 -160 0
v -64 -160 0
v -80 -176 0
v -96 -176 0
v -96 -160 0
v -80 -160 0
v -96 -176 0
v -112 -176 0
v -112 -160 0
v -96 -160 0
v -112 -176 0
v -128 -176 0
v -128 -160 0
v -112 -160 0
v -128 -176 0
v -144 -176 0
v -144 -160 0
v -128 -160 0

# Texture cooridinates (Count = 114)
vt 0.1142857 0.5172414
vt 0.1428571 0.5172414
vt 0.1428571 0.5402299
vt 0.1142857 0.5402299
vt 0.1714286 0.5172414
vt 0.1714286 0.5402299
vt 0.2 0.5172414
vt 0.2 0.5402299
vt 0.2285714 0.5172414
vt 0.2285714 0.5402299
vt 0.2571429 0.5172414
vt 0.2571429 0.5402299
vt 0.2857143 0.5172414
vt 0.2857143 0.5402299
vt 0.3142857 0.5172414
vt 0.3142857 0.5402299
vt 0 0.2873563
vt 0.02857143 0.2873563
vt 0.02857143 0.3103448
vt 0 0.3103448
vt 0.05714286 0.2873563
vt 0.05714286 0.3103448
vt 0.08571429 0.2873563
vt 0.08571429 0.3103448
vt 0.1142857 0.4942529
vt 0.1428571 0.4942529
vt 0.1714286 0.4942529
vt 0.2 0.4942529
vt 0.2285714 0.4942529
vt 0.2571429 0.4942529
vt 0.2857143 0.4942529
vt 0.3142857 0.4942529
vt 0 0.2643678
vt 0.02857143 0.2643678
vt 0.05714286 0.2643678
vt 0.08571429 0.2643678
vt 0.1142857 0.4712644
vt 0.1428571 0.4712644
vt 0.1714286 0.4712644
vt 0.2 0.4712644
vt 0.2285714 0.4712644
vt 0.2571429 0.4712644
vt 0.2857143 0.4712644
vt 0.3142857 0.4712644
vt 0 0.2413793
vt 0.02857143 0.2413793
vt 0.05714286 0.2413793
vt 0.08571429 0.2413793
vt 0.1142857 0.4482759
vt 0.1428571 0.4482759
vt 0.1714286 0.4482759
vt 0.2 0.4482759
vt 0.2285714 0.4482759
vt 0.2571429 0.4482759
vt 0.2857143 0.4482759
vt 0.3142857 0.4482759
vt 0 0.2183908
vt 0.02857143 0.2183908
vt 0.05714286 0.2183908
vt 0.1142857 0.4252874
vt 0.1428571 0.4252874
vt 0.1714286 0.4252874
vt 0.2 0.4252874
vt 0.2285714 0.4252874
vt 0.2571429 0.4252874
vt 0.2857143 0.4252874
vt 0.3142857 0.4252874
vt 0 0.1954023
vt 0.02857143 0.1954023
vt 0.05714286 0.1954023
vt 0.1142857 0.4022989
vt 0.1428571 0.4022989
vt 0.1714286 0.4022989
vt 0.2 0.4022989
vt 0.2285714 0.4022989
vt 0.2571429 0.4022989
vt 0.2857143 0.4022989
vt 0.3142857 0.4022989
vt 0 0.1724138
vt 0.02857143 0.1724138
vt 0.05714286 0.1724138
vt 0.1142857 0.3793104
vt 0.1428571 0.3793104
vt 0.1714286 0.3793104
vt 0.2 0.3793104
vt 0.2285714 0.3793104
vt 0.2571429 0.3793104
vt 0.2857143 0.3793104
vt 0.3142857 0.3793104
vt 0 0.1494253
vt 0.02857143 0.1494253
vt 0.05714286 0.1494253
vt 0.1142857 0.3563218
vt 0.1428571 0.3563218
vt 0.1714286 0.3563218
vt 0.2 0.3563218
vt 0.2285714 0.3563218
vt 0.2571429 0.3563218
vt 0.2857143 0.3563218
vt 0.3142857 0.3563218
vt 0 0.1264368
vt 0.02857143 0.1264368
vt 0.05714286 0.1264368
vt 0.1142857 0.3333333
vt 0.1428571 0.3333333
vt 0.1714286 0.3333333
vt 0.2 0.3333333
vt 0.2285714 0.3333333
vt 0.2571429 0.3333333
vt 0.2857143 0.3333333
vt 0.3142857 0.3333333
vt 0 0.1034483
vt 0.02857143 0.1034483
vt 0.05714286 0.1034483

# Normal
vn 0 0 -1

# Mesh description
g Map1_mesh_0125

# Faces
f 1/1/1 2/2/1 3/3/1 4/4/1
f 5/2/1 6/5/1 7/6/1 8/3/1
f 9/5/1 10/7/1 11/8/1 12/6/1
f 13/7/1 14/9/1 15/10/1 16/8/1
f 17/9/1 18/11/1 19/12/1 20/10/1
f 21/11/1 22/13/1 23/14/1 24/12/1
f 25/13/1 26/15/1 27/16/1 28/14/1
f 29/17/1 30/18/1 31/19/1 32/20/1
f 33/18/1 34/21/1 35/22/1 36/19/1
f 37/21/1 38/23/1 39/24/1 40/22/1
f 41/25/1 42/26/1 43/2/1 44/1/1
f 45/26/1 46/27/1 47/5/1 48/2/1
f 49/27/1 50/28/1 51/7/1 52/5/1
f 53/28/1 54/29/1 55/9/1 56/7/1
f 57/29/1 58/30/1 59/11/1 60/9/1
f 61/30/1 62/31/1 63/13/1 64/11/1
f 65/31/1 66/32/1 67/15/1 68/13/1
f 69/33/1 70/34/1 71/18/1 72/17/1
f 73/34/1 74/35/1 75/21/1 76/18/1
f 77/35/1 78/36/1 79/23/1 80/21/1
f 81/37/1 82/38/1 83/26/1 84/25/1
f 85/38/1 86/39/1 87/27/1 88/26/1
f 89/39/1 90/40/1 91/28/1 92/27/1
f 93/40/1 94/41/1 95/29/1 96/28/1
f 97/41/1 98/42/1 99/30/1 100/29/1
f 101/42/1 102/43/1 103/31/1 104/30/1
f 105/43/1 106/44/1 107/32/1 108/31/1
f 109/45/1 110/46/1 111/34/1 112/33/1
f 113/46/1 114/47/1 115/35/1 116/34/1
f 117/47/1 118/48/1 119/36/1 120/35/1
f 121/49/1 122/50/1 123/38/1 124/37/1
f 125/50/1 126/51/1 127/39/1 128/38/1
f 129/51/1 130/52/1 131/40/1 132/39/1
f 133/52/1 134/53/1 135/41/1 136/40/1
f 137/53/1 138/54/1 139/42/1 140/41/1
f 141/54/1 142/55/1 143/43/1 144/42/1
f 145/55/1 146/56/1 147/44/1 148/43/1
f 149/57/1 150/58/1 151/46/1 152/45/1
f 153/58/1 154/59/1 155/47/1 156/46/1
f 157/60/1 158/61/1 159/50/1 160/49/1
f 161/61/1 162/62/1 163/51/1 164/50/1
f 165/62/1 166/63/1 167/52/1 168/51/1
f 169/63/1 170/64/1 171/53/1 172/52/1
f 173/64/1 174/65/1 175/54/1 176/53/1
f 177/65/1 178/66/1 179/55/1 180/54/1
f 181/66/1 182/67/1 183/56/1 184/55/1
f 185/68/1 186/69/1 187/58/1 188/57/1
f 189/69/1 190/70/1 191/59/1 192/58/1
f 193/71/1 194/72/1 195/61/1 196/60/1
f 197/72/1 198/73/1 199/62/1 200/61/1
f 201/73/1 202/74/1 203/63/1 204/62/1
f 205/74/1 206/75/1 207/64/1 208/63/1
f 209/75/1 210/76/1 211/65/1 212/64/1
f 213/76/1 214/77/1 215/66/1 216/65/1
f 217/77/1 218/78/1 219/67/1 220/66/1
f 221/79/1 222/80/1 223/69/1 224/68/1
f 225/80/1 226/81/1 227/70/1 228/69/1
f 229/82/1 230/83/1 231/72/1 232/71/1
f 233/83/1 234/84/1 235/73/1 236/72/1
f 237/84/1 238/85/1 239/74/1 240/73/1
f 241/85/1 242/86/1 243/75/1 244/74/1
f 245/86/1 246/87/1 247/76/1 248/75/1
f 249/87/1 250/88/1 251/77/1 252/76/1
f 253/88/1 254/89/1 255/78/1 256/77/1
f 257/90/1 258/91/1 259/80/1 260/79/1
f 261/91/1 262/92/1 263/81/1 264/80/1
f 265/93/1 266/94/1 267/83/1 268/82/1
f 269/94/1 270/95/1 271/84/1 272/83/1
f 273/95/1 274/96/1 275/85/1 276/84/1
f 277/96/1 278/97/1 279/86/1 280/85/1
f 281/97/1 282/98/1 283/87/1 284/86/1
f 285/98/1 286/99/1 287/88/1 288/87/1
f 289/99/1 290/100/1 291/89/1 292/88/1
f 293/101/1 294/102/1 295/91/1 296/90/1
f 297/102/1 298/103/1 299/92/1 300/91/1
f 301/104/1 302/105/1 303/94/1 304/93/1
f 305/105/1 306/106/1 307/95/1 308/94/1
f 309/106/1 310/107/1 311/96/1 312/95/1
f 313/107/1 314/108/1 315/97/1 316/96/1
f 317/108/1 318/109/1 319/98/1 320/97/1
f 321/109/1 322/110/1 323/99/1 324/98/1
f 325/110/1 326/111/1 327/100/1 328/99/1
f 329/112/1 330/113/1 331/102/1 332/101/1
f 333/113/1 334/114/1 335/103/1 336/102/1

