# Tiled2Unity generated file. Do not modify by hand.
# Wavefront file for 'Map1_mesh_0094.obj'

# Vertices (Count = 64)
v -240 -16 0
v -256 -16 0
v -256 0 0
v -240 0 0
v -240 -32 0
v -256 -32 0
v -256 -16 0
v -240 -16 0
v 0 -48 0
v -16 -48 0
v -16 -32 0
v 0 -32 0
v -16 -48 0
v -32 -48 0
v -32 -32 0
v -16 -32 0
v -32 -48 0
v -48 -48 0
v -48 -32 0
v -32 -32 0
v -144 -48 0
v -160 -48 0
v -160 -32 0
v -144 -32 0
v -192 -48 0
v -208 -48 0
v -208 -32 0
v -192 -32 0
v -240 -48 0
v -256 -48 0
v -256 -32 0
v -240 -32 0
v 0 -64 0
v -16 -64 0
v -16 -48 0
v 0 -48 0
v -16 -64 0
v -32 -64 0
v -32 -48 0
v -16 -48 0
v -32 -64 0
v -48 -64 0
v -48 -48 0
v -32 -48 0
v -176 -64 0
v -192 -64 0
v -192 -48 0
v -176 -48 0
v -240 -64 0
v -256 -64 0
v -256 -48 0
v -240 -48 0
v 0 -80 0
v -16 -80 0
v -16 -64 0
v 0 -64 0
v -16 -80 0
v -32 -80 0
v -32 -64 0
v -16 -64 0
v -32 -80 0
v -48 -80 0
v -48 -64 0
v -32 -64 0

# Texture cooridinates (Count = 30)
vt 0.3061658 0.6176471
vt 0.3175053 0.6176471
vt 0.3175053 0.6470588
vt 0.3061658 0.6470588
vt 0.3061658 0.5882353
vt 0.3175053 0.5882353
vt 0.1360737 0.5588235
vt 0.1474132 0.5588235
vt 0.1474132 0.5882353
vt 0.1360737 0.5882353
vt 0.1587527 0.5588235
vt 0.1587527 0.5882353
vt 0.1700921 0.5588235
vt 0.1700921 0.5882353
vt 0.1020553 0.5294118
vt 0.1133948 0.5294118
vt 0.1133948 0.5588235
vt 0.1020553 0.5588235
vt 0.3061658 0.5588235
vt 0.3175053 0.5588235
vt 0.1360737 0.5294118
vt 0.1474132 0.5294118
vt 0.1587527 0.5294118
vt 0.1700921 0.5294118
vt 0.3061658 0.5294118
vt 0.3175053 0.5294118
vt 0.1360737 0.5
vt 0.1474132 0.5
vt 0.1587527 0.5
vt 0.1700921 0.5

# Normal
vn 0 0 -1

# Mesh description
g Map1_mesh_0094

# Faces
f 1/1/1 2/2/1 3/3/1 4/4/1
f 5/5/1 6/6/1 7/2/1 8/1/1
f 9/7/1 10/8/1 11/9/1 12/10/1
f 13/8/1 14/11/1 15/12/1 16/9/1
f 17/11/1 18/13/1 19/14/1 20/12/1
f 21/15/1 22/16/1 23/17/1 24/18/1
f 25/15/1 26/16/1 27/17/1 28/18/1
f 29/19/1 30/20/1 31/6/1 32/5/1
f 33/21/1 34/22/1 35/8/1 36/7/1
f 37/22/1 38/23/1 39/11/1 40/8/1
f 41/23/1 42/24/1 43/13/1 44/11/1
f 45/15/1 46/16/1 47/17/1 48/18/1
f 49/25/1 50/26/1 51/20/1 52/19/1
f 53/27/1 54/28/1 55/22/1 56/21/1
f 57/28/1 58/29/1 59/23/1 60/22/1
f 61/29/1 62/30/1 63/24/1 64/23/1

