# Tiled2Unity generated file. Do not modify by hand.
# Wavefront file for 'Map1_mesh_0080.obj'

# Vertices (Count = 688)
v 0 -16 0
v -16 -16 0
v -16 0 0
v 0 0 0
v -16 -16 0
v -32 -16 0
v -32 0 0
v -16 0 0
v -32 -16 0
v -48 -16 0
v -48 0 0
v -32 0 0
v -48 -16 0
v -64 -16 0
v -64 0 0
v -48 0 0
v -64 -16 0
v -80 -16 0
v -80 0 0
v -64 0 0
v -80 -16 0
v -96 -16 0
v -96 0 0
v -80 0 0
v -96 -16 0
v -112 -16 0
v -112 0 0
v -96 0 0
v -112 -16 0
v -128 -16 0
v -128 0 0
v -112 0 0
v -128 -16 0
v -144 -16 0
v -144 0 0
v -128 0 0
v -144 -16 0
v -160 -16 0
v -160 0 0
v -144 0 0
v -160 -16 0
v -176 -16 0
v -176 0 0
v -160 0 0
v -176 -16 0
v -192 -16 0
v -192 0 0
v -176 0 0
v -192 -16 0
v -208 -16 0
v -208 0 0
v -192 0 0
v -208 -16 0
v -224 -16 0
v -224 0 0
v -208 0 0
v -224 -16 0
v -240 -16 0
v -240 0 0
v -224 0 0
v -240 -16 0
v -256 -16 0
v -256 0 0
v -240 0 0
v 0 -32 0
v -16 -32 0
v -16 -16 0
v 0 -16 0
v -16 -32 0
v -32 -32 0
v -32 -16 0
v -16 -16 0
v -32 -32 0
v -48 -32 0
v -48 -16 0
v -32 -16 0
v -48 -32 0
v -64 -32 0
v -64 -16 0
v -48 -16 0
v -64 -32 0
v -80 -32 0
v -80 -16 0
v -64 -16 0
v -80 -32 0
v -96 -32 0
v -96 -16 0
v -80 -16 0
v -96 -32 0
v -112 -32 0
v -112 -16 0
v -96 -16 0
v -112 -32 0
v -128 -32 0
v -128 -16 0
v -112 -16 0
v -128 -32 0
v -144 -32 0
v -144 -16 0
v -128 -16 0
v -144 -32 0
v -160 -32 0
v -160 -16 0
v -144 -16 0
v -160 -32 0
v -176 -32 0
v -176 -16 0
v -160 -16 0
v -176 -32 0
v -192 -32 0
v -192 -16 0
v -176 -16 0
v -192 -32 0
v -208 -32 0
v -208 -16 0
v -192 -16 0
v -208 -32 0
v -224 -32 0
v -224 -16 0
v -208 -16 0
v -224 -32 0
v -240 -32 0
v -240 -16 0
v -224 -16 0
v -240 -32 0
v -256 -32 0
v -256 -16 0
v -240 -16 0
v 0 -48 0
v -16 -48 0
v -16 -32 0
v 0 -32 0
v -16 -48 0
v -32 -48 0
v -32 -32 0
v -16 -32 0
v -32 -48 0
v -48 -48 0
v -48 -32 0
v -32 -32 0
v -48 -48 0
v -64 -48 0
v -64 -32 0
v -48 -32 0
v -64 -48 0
v -80 -48 0
v -80 -32 0
v -64 -32 0
v -80 -48 0
v -96 -48 0
v -96 -32 0
v -80 -32 0
v -96 -48 0
v -112 -48 0
v -112 -32 0
v -96 -32 0
v -112 -48 0
v -128 -48 0
v -128 -32 0
v -112 -32 0
v -128 -48 0
v -144 -48 0
v -144 -32 0
v -128 -32 0
v -144 -48 0
v -160 -48 0
v -160 -32 0
v -144 -32 0
v -160 -48 0
v -176 -48 0
v -176 -32 0
v -160 -32 0
v -176 -48 0
v -192 -48 0
v -192 -32 0
v -176 -32 0
v -192 -48 0
v -208 -48 0
v -208 -32 0
v -192 -32 0
v -208 -48 0
v -224 -48 0
v -224 -32 0
v -208 -32 0
v -224 -48 0
v -240 -48 0
v -240 -32 0
v -224 -32 0
v -240 -48 0
v -256 -48 0
v -256 -32 0
v -240 -32 0
v 0 -64 0
v -16 -64 0
v -16 -48 0
v 0 -48 0
v -16 -64 0
v -32 -64 0
v -32 -48 0
v -16 -48 0
v -32 -64 0
v -48 -64 0
v -48 -48 0
v -32 -48 0
v -48 -64 0
v -64 -64 0
v -64 -48 0
v -48 -48 0
v -64 -64 0
v -80 -64 0
v -80 -48 0
v -64 -48 0
v -80 -64 0
v -96 -64 0
v -96 -48 0
v -80 -48 0
v -96 -64 0
v -112 -64 0
v -112 -48 0
v -96 -48 0
v -112 -64 0
v -128 -64 0
v -128 -48 0
v -112 -48 0
v -128 -64 0
v -144 -64 0
v -144 -48 0
v -128 -48 0
v -144 -64 0
v -160 -64 0
v -160 -48 0
v -144 -48 0
v -160 -64 0
v -176 -64 0
v -176 -48 0
v -160 -48 0
v -176 -64 0
v -192 -64 0
v -192 -48 0
v -176 -48 0
v -192 -64 0
v -208 -64 0
v -208 -48 0
v -192 -48 0
v -208 -64 0
v -224 -64 0
v -224 -48 0
v -208 -48 0
v -224 -64 0
v -240 -64 0
v -240 -48 0
v -224 -48 0
v -240 -64 0
v -256 -64 0
v -256 -48 0
v -240 -48 0
v 0 -80 0
v -16 -80 0
v -16 -64 0
v 0 -64 0
v -16 -80 0
v -32 -80 0
v -32 -64 0
v -16 -64 0
v -32 -80 0
v -48 -80 0
v -48 -64 0
v -32 -64 0
v -48 -80 0
v -64 -80 0
v -64 -64 0
v -48 -64 0
v -64 -80 0
v -80 -80 0
v -80 -64 0
v -64 -64 0
v -80 -80 0
v -96 -80 0
v -96 -64 0
v -80 -64 0
v -96 -80 0
v -112 -80 0
v -112 -64 0
v -96 -64 0
v -112 -80 0
v -128 -80 0
v -128 -64 0
v -112 -64 0
v -128 -80 0
v -144 -80 0
v -144 -64 0
v -128 -64 0
v -144 -80 0
v -160 -80 0
v -160 -64 0
v -144 -64 0
v -160 -80 0
v -176 -80 0
v -176 -64 0
v -160 -64 0
v -176 -80 0
v -192 -80 0
v -192 -64 0
v -176 -64 0
v -192 -80 0
v -208 -80 0
v -208 -64 0
v -192 -64 0
v -208 -80 0
v -224 -80 0
v -224 -64 0
v -208 -64 0
v -224 -80 0
v -240 -80 0
v -240 -64 0
v -224 -64 0
v -240 -80 0
v -256 -80 0
v -256 -64 0
v -240 -64 0
v 0 -96 0
v -16 -96 0
v -16 -80 0
v 0 -80 0
v -16 -96 0
v -32 -96 0
v -32 -80 0
v -16 -80 0
v -32 -96 0
v -48 -96 0
v -48 -80 0
v -32 -80 0
v -48 -96 0
v -64 -96 0
v -64 -80 0
v -48 -80 0
v -64 -96 0
v -80 -96 0
v -80 -80 0
v -64 -80 0
v -80 -96 0
v -96 -96 0
v -96 -80 0
v -80 -80 0
v -96 -96 0
v -112 -96 0
v -112 -80 0
v -96 -80 0
v -112 -96 0
v -128 -96 0
v -128 -80 0
v -112 -80 0
v -128 -96 0
v -144 -96 0
v -144 -80 0
v -128 -80 0
v -144 -96 0
v -160 -96 0
v -160 -80 0
v -144 -80 0
v -160 -96 0
v -176 -96 0
v -176 -80 0
v -160 -80 0
v -176 -96 0
v -192 -96 0
v -192 -80 0
v -176 -80 0
v -192 -96 0
v -208 -96 0
v -208 -80 0
v -192 -80 0
v -208 -96 0
v -224 -96 0
v -224 -80 0
v -208 -80 0
v -224 -96 0
v -240 -96 0
v -240 -80 0
v -224 -80 0
v -240 -96 0
v -256 -96 0
v -256 -80 0
v -240 -80 0
v 0 -112 0
v -16 -112 0
v -16 -96 0
v 0 -96 0
v -16 -112 0
v -32 -112 0
v -32 -96 0
v -16 -96 0
v -32 -112 0
v -48 -112 0
v -48 -96 0
v -32 -96 0
v -48 -112 0
v -64 -112 0
v -64 -96 0
v -48 -96 0
v -64 -112 0
v -80 -112 0
v -80 -96 0
v -64 -96 0
v -80 -112 0
v -96 -112 0
v -96 -96 0
v -80 -96 0
v -96 -112 0
v -112 -112 0
v -112 -96 0
v -96 -96 0
v -112 -112 0
v -128 -112 0
v -128 -96 0
v -112 -96 0
v -128 -112 0
v -144 -112 0
v -144 -96 0
v -128 -96 0
v -144 -112 0
v -160 -112 0
v -160 -96 0
v -144 -96 0
v -160 -112 0
v -176 -112 0
v -176 -96 0
v -160 -96 0
v -176 -112 0
v -192 -112 0
v -192 -96 0
v -176 -96 0
v -192 -112 0
v -208 -112 0
v -208 -96 0
v -192 -96 0
v -208 -112 0
v -224 -112 0
v -224 -96 0
v -208 -96 0
v -224 -112 0
v -240 -112 0
v -240 -96 0
v -224 -96 0
v -240 -112 0
v -256 -112 0
v -256 -96 0
v -240 -96 0
v 0 -128 0
v -16 -128 0
v -16 -112 0
v 0 -112 0
v -16 -128 0
v -32 -128 0
v -32 -112 0
v -16 -112 0
v -32 -128 0
v -48 -128 0
v -48 -112 0
v -32 -112 0
v -48 -128 0
v -64 -128 0
v -64 -112 0
v -48 -112 0
v -64 -128 0
v -80 -128 0
v -80 -112 0
v -64 -112 0
v -80 -128 0
v -96 -128 0
v -96 -112 0
v -80 -112 0
v -96 -128 0
v -112 -128 0
v -112 -112 0
v -96 -112 0
v -112 -128 0
v -128 -128 0
v -128 -112 0
v -112 -112 0
v -128 -128 0
v -144 -128 0
v -144 -112 0
v -128 -112 0
v -144 -128 0
v -160 -128 0
v -160 -112 0
v -144 -112 0
v -160 -128 0
v -176 -128 0
v -176 -112 0
v -160 -112 0
v -176 -128 0
v -192 -128 0
v -192 -112 0
v -176 -112 0
v -192 -128 0
v -208 -128 0
v -208 -112 0
v -192 -112 0
v -208 -128 0
v -224 -128 0
v -224 -112 0
v -208 -112 0
v -224 -128 0
v -240 -128 0
v -240 -112 0
v -224 -112 0
v -240 -128 0
v -256 -128 0
v -256 -112 0
v -240 -112 0
v 0 -144 0
v -16 -144 0
v -16 -128 0
v 0 -128 0
v -16 -144 0
v -32 -144 0
v -32 -128 0
v -16 -128 0
v -32 -144 0
v -48 -144 0
v -48 -128 0
v -32 -128 0
v -48 -144 0
v -64 -144 0
v -64 -128 0
v -48 -128 0
v -64 -144 0
v -80 -144 0
v -80 -128 0
v -64 -128 0
v -80 -144 0
v -96 -144 0
v -96 -128 0
v -80 -128 0
v -96 -144 0
v -112 -144 0
v -112 -128 0
v -96 -128 0
v -112 -144 0
v -128 -144 0
v -128 -128 0
v -112 -128 0
v -128 -144 0
v -144 -144 0
v -144 -128 0
v -128 -128 0
v -144 -144 0
v -160 -144 0
v -160 -128 0
v -144 -128 0
v -160 -144 0
v -176 -144 0
v -176 -128 0
v -160 -128 0
v -176 -144 0
v -192 -144 0
v -192 -128 0
v -176 -128 0
v -192 -144 0
v -208 -144 0
v -208 -128 0
v -192 -128 0
v -208 -144 0
v -224 -144 0
v -224 -128 0
v -208 -128 0
v -224 -144 0
v -240 -144 0
v -240 -128 0
v -224 -128 0
v -240 -144 0
v -256 -144 0
v -256 -128 0
v -240 -128 0
v 0 -160 0
v -16 -160 0
v -16 -144 0
v 0 -144 0
v -16 -160 0
v -32 -160 0
v -32 -144 0
v -16 -144 0
v -32 -160 0
v -48 -160 0
v -48 -144 0
v -32 -144 0
v -48 -160 0
v -64 -160 0
v -64 -144 0
v -48 -144 0
v -64 -160 0
v -80 -160 0
v -80 -144 0
v -64 -144 0
v -80 -160 0
v -96 -160 0
v -96 -144 0
v -80 -144 0
v -96 -160 0
v -112 -160 0
v -112 -144 0
v -96 -144 0
v -112 -160 0
v -128 -160 0
v -128 -144 0
v -112 -144 0
v -128 -160 0
v -144 -160 0
v -144 -144 0
v -128 -144 0
v -144 -160 0
v -160 -160 0
v -160 -144 0
v -144 -144 0
v -160 -160 0
v -176 -160 0
v -176 -144 0
v -160 -144 0
v -176 -160 0
v -192 -160 0
v -192 -144 0
v -176 -144 0
v -192 -160 0
v -208 -160 0
v -208 -144 0
v -192 -144 0
v -208 -160 0
v -224 -160 0
v -224 -144 0
v -208 -144 0
v -224 -160 0
v -240 -160 0
v -240 -144 0
v -224 -144 0
v -240 -160 0
v -256 -160 0
v -256 -144 0
v -240 -144 0
v 0 -176 0
v -16 -176 0
v -16 -160 0
v 0 -160 0
v -16 -176 0
v -32 -176 0
v -32 -160 0
v -16 -160 0
v 0 -192 0
v -16 -192 0
v -16 -176 0
v 0 -176 0
v -16 -192 0
v -32 -192 0
v -32 -176 0
v -16 -176 0
v 0 -208 0
v -16 -208 0
v -16 -192 0
v 0 -192 0
v -16 -208 0
v -32 -208 0
v -32 -192 0
v -16 -192 0
v 0 -224 0
v -16 -224 0
v -16 -208 0
v 0 -208 0
v -16 -224 0
v -32 -224 0
v -32 -208 0
v -16 -208 0
v 0 -240 0
v -16 -240 0
v -16 -224 0
v 0 -224 0
v -16 -240 0
v -32 -240 0
v -32 -224 0
v -16 -224 0
v 0 -256 0
v -16 -256 0
v -16 -240 0
v 0 -240 0
v -16 -256 0
v -32 -256 0
v -32 -240 0
v -16 -240 0

# Texture cooridinates (Count = 140)
vt 0.9714286 0.9770115
vt 1 0.9770115
vt 1 1
vt 0.9714286 1
vt 0 0.9770115
vt 0.02857143 0.9770115
vt 0.02857143 1
vt 0 1
vt 0.05714286 0.9770115
vt 0.05714286 1
vt 0.08571429 0.9770115
vt 0.08571429 1
vt 0.1142857 0.9770115
vt 0.1142857 1
vt 0.1428571 0.9770115
vt 0.1428571 1
vt 0.1714286 0.9770115
vt 0.1714286 1
vt 0.2 0.9770115
vt 0.2 1
vt 0.2285714 0.9770115
vt 0.2285714 1
vt 0.2571429 0.9770115
vt 0.2571429 1
vt 0.2857143 0.9770115
vt 0.2857143 1
vt 0.3142857 0.9770115
vt 0.3142857 1
vt 0.9714286 0.954023
vt 1 0.954023
vt 0 0.954023
vt 0.02857143 0.954023
vt 0.05714286 0.954023
vt 0.08571429 0.954023
vt 0.1142857 0.954023
vt 0.1428571 0.954023
vt 0.1714286 0.954023
vt 0.2 0.954023
vt 0.2285714 0.954023
vt 0.2571429 0.954023
vt 0.2857143 0.954023
vt 0.3142857 0.954023
vt 0.9714286 0.9310345
vt 1 0.9310345
vt 0 0.9310345
vt 0.02857143 0.9310345
vt 0.05714286 0.9310345
vt 0.08571429 0.9310345
vt 0.1142857 0.9310345
vt 0.1428571 0.9310345
vt 0.1714286 0.9310345
vt 0.2 0.9310345
vt 0.2285714 0.9310345
vt 0.2571429 0.9310345
vt 0.2857143 0.9310345
vt 0.3142857 0.9310345
vt 0.9714286 0.908046
vt 1 0.908046
vt 0 0.908046
vt 0.02857143 0.908046
vt 0.05714286 0.908046
vt 0.08571429 0.908046
vt 0.1142857 0.908046
vt 0.1428571 0.908046
vt 0.1714286 0.908046
vt 0.2 0.908046
vt 0.2285714 0.908046
vt 0.2571429 0.908046
vt 0.2857143 0.908046
vt 0.3142857 0.908046
vt 0.9714286 0.8850574
vt 1 0.8850574
vt 0 0.8850574
vt 0.02857143 0.8850574
vt 0.05714286 0.8850574
vt 0.08571429 0.8850574
vt 0.1142857 0.8850574
vt 0.1428571 0.8850574
vt 0.1714286 0.8850574
vt 0.2 0.8850574
vt 0.2285714 0.8850574
vt 0.2571429 0.8850574
vt 0.2857143 0.8850574
vt 0.3142857 0.8850574
vt 0.9714286 0.862069
vt 1 0.862069
vt 0 0.862069
vt 0.02857143 0.862069
vt 0.05714286 0.862069
vt 0.08571429 0.862069
vt 0.1142857 0.862069
vt 0.1428571 0.862069
vt 0.1714286 0.862069
vt 0.2 0.862069
vt 0.2285714 0.862069
vt 0.2571429 0.862069
vt 0.2857143 0.862069
vt 0.3142857 0.862069
vt 0.9714286 0.8390805
vt 1 0.8390805
vt 0 0.8390805
vt 0.02857143 0.8390805
vt 0.05714286 0.8390805
vt 0.08571429 0.8390805
vt 0.1142857 0.8390805
vt 0.1428571 0.8390805
vt 0.1714286 0.8390805
vt 0.2 0.8390805
vt 0.2285714 0.8390805
vt 0.2571429 0.8390805
vt 0.2857143 0.8390805
vt 0.3142857 0.8390805
vt 0.9714286 0.816092
vt 1 0.816092
vt 0 0.816092
vt 0.02857143 0.816092
vt 0.05714286 0.816092
vt 0.08571429 0.816092
vt 0.1142857 0.816092
vt 0.1428571 0.816092
vt 0.1714286 0.816092
vt 0.2 0.816092
vt 0.2285714 0.816092
vt 0.2571429 0.816092
vt 0.2857143 0.816092
vt 0.3142857 0.816092
vt 0.9714286 0.7931035
vt 1 0.7931035
vt 0 0.7931035
vt 0.02857143 0.7931035
vt 0.05714286 0.7931035
vt 0.08571429 0.7931035
vt 0.1142857 0.7931035
vt 0.1428571 0.7931035
vt 0.1714286 0.7931035
vt 0.2 0.7931035
vt 0.2285714 0.7931035
vt 0.2571429 0.7931035
vt 0.2857143 0.7931035
vt 0.3142857 0.7931035

# Normal
vn 0 0 -1

# Mesh description
g Map1_mesh_0080

# Faces
f 1/1/1 2/2/1 3/3/1 4/4/1
f 5/5/1 6/6/1 7/7/1 8/8/1
f 9/6/1 10/9/1 11/10/1 12/7/1
f 13/9/1 14/11/1 15/12/1 16/10/1
f 17/11/1 18/13/1 19/14/1 20/12/1
f 21/13/1 22/15/1 23/16/1 24/14/1
f 25/15/1 26/17/1 27/18/1 28/16/1
f 29/17/1 30/19/1 31/20/1 32/18/1
f 33/19/1 34/21/1 35/22/1 36/20/1
f 37/21/1 38/23/1 39/24/1 40/22/1
f 41/23/1 42/25/1 43/26/1 44/24/1
f 45/25/1 46/27/1 47/28/1 48/26/1
f 49/5/1 50/6/1 51/7/1 52/8/1
f 53/6/1 54/9/1 55/10/1 56/7/1
f 57/9/1 58/11/1 59/12/1 60/10/1
f 61/11/1 62/13/1 63/14/1 64/12/1
f 65/29/1 66/30/1 67/2/1 68/1/1
f 69/31/1 70/32/1 71/6/1 72/5/1
f 73/32/1 74/33/1 75/9/1 76/6/1
f 77/33/1 78/34/1 79/11/1 80/9/1
f 81/34/1 82/35/1 83/13/1 84/11/1
f 85/35/1 86/36/1 87/15/1 88/13/1
f 89/36/1 90/37/1 91/17/1 92/15/1
f 93/37/1 94/38/1 95/19/1 96/17/1
f 97/38/1 98/39/1 99/21/1 100/19/1
f 101/39/1 102/40/1 103/23/1 104/21/1
f 105/40/1 106/41/1 107/25/1 108/23/1
f 109/41/1 110/42/1 111/27/1 112/25/1
f 113/31/1 114/32/1 115/6/1 116/5/1
f 117/32/1 118/33/1 119/9/1 120/6/1
f 121/33/1 122/34/1 123/11/1 124/9/1
f 125/34/1 126/35/1 127/13/1 128/11/1
f 129/43/1 130/44/1 131/30/1 132/29/1
f 133/45/1 134/46/1 135/32/1 136/31/1
f 137/46/1 138/47/1 139/33/1 140/32/1
f 141/47/1 142/48/1 143/34/1 144/33/1
f 145/48/1 146/49/1 147/35/1 148/34/1
f 149/49/1 150/50/1 151/36/1 152/35/1
f 153/50/1 154/51/1 155/37/1 156/36/1
f 157/51/1 158/52/1 159/38/1 160/37/1
f 161/52/1 162/53/1 163/39/1 164/38/1
f 165/53/1 166/54/1 167/40/1 168/39/1
f 169/54/1 170/55/1 171/41/1 172/40/1
f 173/55/1 174/56/1 175/42/1 176/41/1
f 177/45/1 178/46/1 179/32/1 180/31/1
f 181/46/1 182/47/1 183/33/1 184/32/1
f 185/47/1 186/48/1 187/34/1 188/33/1
f 189/48/1 190/49/1 191/35/1 192/34/1
f 193/57/1 194/58/1 195/44/1 196/43/1
f 197/59/1 198/60/1 199/46/1 200/45/1
f 201/60/1 202/61/1 203/47/1 204/46/1
f 205/61/1 206/62/1 207/48/1 208/47/1
f 209/62/1 210/63/1 211/49/1 212/48/1
f 213/63/1 214/64/1 215/50/1 216/49/1
f 217/64/1 218/65/1 219/51/1 220/50/1
f 221/65/1 222/66/1 223/52/1 224/51/1
f 225/66/1 226/67/1 227/53/1 228/52/1
f 229/67/1 230/68/1 231/54/1 232/53/1
f 233/68/1 234/69/1 235/55/1 236/54/1
f 237/69/1 238/70/1 239/56/1 240/55/1
f 241/59/1 242/60/1 243/46/1 244/45/1
f 245/60/1 246/61/1 247/47/1 248/46/1
f 249/61/1 250/62/1 251/48/1 252/47/1
f 253/62/1 254/63/1 255/49/1 256/48/1
f 257/71/1 258/72/1 259/58/1 260/57/1
f 261/73/1 262/74/1 263/60/1 264/59/1
f 265/74/1 266/75/1 267/61/1 268/60/1
f 269/75/1 270/76/1 271/62/1 272/61/1
f 273/76/1 274/77/1 275/63/1 276/62/1
f 277/77/1 278/78/1 279/64/1 280/63/1
f 281/78/1 282/79/1 283/65/1 284/64/1
f 285/79/1 286/80/1 287/66/1 288/65/1
f 289/80/1 290/81/1 291/67/1 292/66/1
f 293/81/1 294/82/1 295/68/1 296/67/1
f 297/82/1 298/83/1 299/69/1 300/68/1
f 301/83/1 302/84/1 303/70/1 304/69/1
f 305/73/1 306/74/1 307/60/1 308/59/1
f 309/74/1 310/75/1 311/61/1 312/60/1
f 313/75/1 314/76/1 315/62/1 316/61/1
f 317/76/1 318/77/1 319/63/1 320/62/1
f 321/85/1 322/86/1 323/72/1 324/71/1
f 325/87/1 326/88/1 327/74/1 328/73/1
f 329/88/1 330/89/1 331/75/1 332/74/1
f 333/89/1 334/90/1 335/76/1 336/75/1
f 337/90/1 338/91/1 339/77/1 340/76/1
f 341/91/1 342/92/1 343/78/1 344/77/1
f 345/92/1 346/93/1 347/79/1 348/78/1
f 349/93/1 350/94/1 351/80/1 352/79/1
f 353/94/1 354/95/1 355/81/1 356/80/1
f 357/95/1 358/96/1 359/82/1 360/81/1
f 361/96/1 362/97/1 363/83/1 364/82/1
f 365/97/1 366/98/1 367/84/1 368/83/1
f 369/87/1 370/88/1 371/74/1 372/73/1
f 373/88/1 374/89/1 375/75/1 376/74/1
f 377/89/1 378/90/1 379/76/1 380/75/1
f 381/90/1 382/91/1 383/77/1 384/76/1
f 385/99/1 386/100/1 387/86/1 388/85/1
f 389/101/1 390/102/1 391/88/1 392/87/1
f 393/102/1 394/103/1 395/89/1 396/88/1
f 397/103/1 398/104/1 399/90/1 400/89/1
f 401/104/1 402/105/1 403/91/1 404/90/1
f 405/105/1 406/106/1 407/92/1 408/91/1
f 409/106/1 410/107/1 411/93/1 412/92/1
f 413/107/1 414/108/1 415/94/1 416/93/1
f 417/108/1 418/109/1 419/95/1 420/94/1
f 421/109/1 422/110/1 423/96/1 424/95/1
f 425/110/1 426/111/1 427/97/1 428/96/1
f 429/111/1 430/112/1 431/98/1 432/97/1
f 433/101/1 434/102/1 435/88/1 436/87/1
f 437/102/1 438/103/1 439/89/1 440/88/1
f 441/103/1 442/104/1 443/90/1 444/89/1
f 445/104/1 446/105/1 447/91/1 448/90/1
f 449/113/1 450/114/1 451/100/1 452/99/1
f 453/115/1 454/116/1 455/102/1 456/101/1
f 457/116/1 458/117/1 459/103/1 460/102/1
f 461/117/1 462/118/1 463/104/1 464/103/1
f 465/118/1 466/119/1 467/105/1 468/104/1
f 469/119/1 470/120/1 471/106/1 472/105/1
f 473/120/1 474/121/1 475/107/1 476/106/1
f 477/121/1 478/122/1 479/108/1 480/107/1
f 481/122/1 482/123/1 483/109/1 484/108/1
f 485/123/1 486/124/1 487/110/1 488/109/1
f 489/124/1 490/125/1 491/111/1 492/110/1
f 493/125/1 494/126/1 495/112/1 496/111/1
f 497/115/1 498/116/1 499/102/1 500/101/1
f 501/116/1 502/117/1 503/103/1 504/102/1
f 505/117/1 506/118/1 507/104/1 508/103/1
f 509/118/1 510/119/1 511/105/1 512/104/1
f 513/127/1 514/128/1 515/114/1 516/113/1
f 517/115/1 518/116/1 519/102/1 520/101/1
f 521/116/1 522/117/1 523/103/1 524/102/1
f 525/117/1 526/118/1 527/104/1 528/103/1
f 529/118/1 530/119/1 531/105/1 532/104/1
f 533/119/1 534/120/1 535/106/1 536/105/1
f 537/120/1 538/121/1 539/107/1 540/106/1
f 541/121/1 542/122/1 543/108/1 544/107/1
f 545/122/1 546/123/1 547/109/1 548/108/1
f 549/123/1 550/124/1 551/110/1 552/109/1
f 553/124/1 554/125/1 555/111/1 556/110/1
f 557/125/1 558/126/1 559/112/1 560/111/1
f 561/115/1 562/116/1 563/102/1 564/101/1
f 565/116/1 566/117/1 567/103/1 568/102/1
f 569/117/1 570/118/1 571/104/1 572/103/1
f 573/118/1 574/119/1 575/105/1 576/104/1
f 577/57/1 578/58/1 579/44/1 580/43/1
f 581/129/1 582/130/1 583/116/1 584/115/1
f 585/130/1 586/131/1 587/117/1 588/116/1
f 589/131/1 590/132/1 591/118/1 592/117/1
f 593/132/1 594/133/1 595/119/1 596/118/1
f 597/133/1 598/134/1 599/120/1 600/119/1
f 601/134/1 602/135/1 603/121/1 604/120/1
f 605/135/1 606/136/1 607/122/1 608/121/1
f 609/136/1 610/137/1 611/123/1 612/122/1
f 613/137/1 614/138/1 615/124/1 616/123/1
f 617/138/1 618/139/1 619/125/1 620/124/1
f 621/139/1 622/140/1 623/126/1 624/125/1
f 625/129/1 626/130/1 627/116/1 628/115/1
f 629/130/1 630/131/1 631/117/1 632/116/1
f 633/131/1 634/132/1 635/118/1 636/117/1
f 637/132/1 638/133/1 639/119/1 640/118/1
f 641/71/1 642/72/1 643/58/1 644/57/1
f 645/129/1 646/130/1 647/116/1 648/115/1
f 649/85/1 650/86/1 651/72/1 652/71/1
f 653/129/1 654/130/1 655/116/1 656/115/1
f 657/99/1 658/100/1 659/86/1 660/85/1
f 661/129/1 662/130/1 663/116/1 664/115/1
f 665/113/1 666/114/1 667/100/1 668/99/1
f 669/129/1 670/130/1 671/116/1 672/115/1
f 673/127/1 674/128/1 675/114/1 676/113/1
f 677/129/1 678/130/1 679/116/1 680/115/1
f 681/57/1 682/58/1 683/44/1 684/43/1
f 685/129/1 686/130/1 687/116/1 688/115/1

