# Tiled2Unity generated file. Do not modify by hand.
# Wavefront file for 'Map1_mesh_0268.obj'

# Vertices (Count = 128)
v -96 -144 0
v -112 -144 0
v -112 -128 0
v -96 -128 0
v -96 -160 0
v -112 -160 0
v -112 -144 0
v -96 -144 0
v -192 -160 0
v -208 -160 0
v -208 -144 0
v -192 -144 0
v -80 -176 0
v -96 -176 0
v -96 -160 0
v -80 -160 0
v -96 -176 0
v -112 -176 0
v -112 -160 0
v -96 -160 0
v -112 -176 0
v -128 -176 0
v -128 -160 0
v -112 -160 0
v -128 -176 0
v -144 -176 0
v -144 -160 0
v -128 -160 0
v -144 -176 0
v -160 -176 0
v -160 -160 0
v -144 -160 0
v -160 -176 0
v -176 -176 0
v -176 -160 0
v -160 -160 0
v -176 -176 0
v -192 -176 0
v -192 -160 0
v -176 -160 0
v -192 -176 0
v -208 -176 0
v -208 -160 0
v -192 -160 0
v -208 -176 0
v -224 -176 0
v -224 -160 0
v -208 -160 0
v -224 -176 0
v -240 -176 0
v -240 -160 0
v -224 -160 0
v -80 -192 0
v -96 -192 0
v -96 -176 0
v -80 -176 0
v -80 -208 0
v -96 -208 0
v -96 -192 0
v -80 -192 0
v -80 -224 0
v -96 -224 0
v -96 -208 0
v -80 -208 0
v -96 -224 0
v -112 -224 0
v -112 -208 0
v -96 -208 0
v -112 -224 0
v -128 -224 0
v -128 -208 0
v -112 -208 0
v -128 -224 0
v -144 -224 0
v -144 -208 0
v -128 -208 0
v -144 -224 0
v -160 -224 0
v -160 -208 0
v -144 -208 0
v -160 -224 0
v -176 -224 0
v -176 -208 0
v -160 -208 0
v -80 -240 0
v -96 -240 0
v -96 -224 0
v -80 -224 0
v -96 -240 0
v -112 -240 0
v -112 -224 0
v -96 -224 0
v -112 -240 0
v -128 -240 0
v -128 -224 0
v -112 -224 0
v -128 -240 0
v -144 -240 0
v -144 -224 0
v -128 -224 0
v -144 -240 0
v -160 -240 0
v -160 -224 0
v -144 -224 0
v -160 -240 0
v -176 -240 0
v -176 -224 0
v -160 -224 0
v -96 -256 0
v -112 -256 0
v -112 -240 0
v -96 -240 0
v -112 -256 0
v -128 -256 0
v -128 -240 0
v -112 -240 0
v -128 -256 0
v -144 -256 0
v -144 -240 0
v -128 -240 0
v -144 -256 0
v -160 -256 0
v -160 -240 0
v -144 -240 0
v -160 -256 0
v -176 -256 0
v -176 -240 0
v -160 -240 0

# Texture cooridinates (Count = 46)
vt 0.4 0.92
vt 0.44 0.92
vt 0.44 0.96
vt 0.4 0.96
vt 0.4 0.88
vt 0.44 0.88
vt 0.24 0.92
vt 0.28 0.92
vt 0.28 0.96
vt 0.24 0.96
vt 0.32 0.92
vt 0.32 0.96
vt 0.36 0.92
vt 0.36 0.96
vt 0.24 0.88
vt 0.28 0.88
vt 0.4 0.8
vt 0.44 0.8
vt 0.44 0.84
vt 0.4 0.84
vt 0.28 0.52
vt 0.32 0.52
vt 0.32 0.56
vt 0.28 0.56
vt 0.36 0.52
vt 0.36 0.56
vt 0.4 0.52
vt 0.4 0.56
vt 0.44 0.52
vt 0.44 0.56
vt 0.48 0.52
vt 0.48 0.56
vt 0.36 0.84
vt 0.36 0.88
vt 0.28 0.48
vt 0.32 0.48
vt 0.36 0.48
vt 0.4 0.48
vt 0.44 0.48
vt 0.48 0.48
vt 0.28 0.44
vt 0.32 0.44
vt 0.36 0.44
vt 0.4 0.44
vt 0.44 0.44
vt 0.48 0.44

# Normal
vn 0 0 -1

# Mesh description
g Map1_mesh_0268

# Faces
f 1/1/1 2/2/1 3/3/1 4/4/1
f 5/5/1 6/6/1 7/2/1 8/1/1
f 9/1/1 10/2/1 11/3/1 12/4/1
f 13/7/1 14/8/1 15/9/1 16/10/1
f 17/8/1 18/11/1 19/12/1 20/9/1
f 21/11/1 22/13/1 23/14/1 24/12/1
f 25/13/1 26/1/1 27/4/1 28/14/1
f 29/8/1 30/11/1 31/12/1 32/9/1
f 33/11/1 34/13/1 35/14/1 36/12/1
f 37/13/1 38/1/1 39/4/1 40/14/1
f 41/5/1 42/6/1 43/2/1 44/1/1
f 45/11/1 46/13/1 47/14/1 48/12/1
f 49/13/1 50/1/1 51/4/1 52/14/1
f 53/15/1 54/16/1 55/8/1 56/7/1
f 57/17/1 58/18/1 59/19/1 60/20/1
f 61/17/1 62/18/1 63/19/1 64/20/1
f 65/21/1 66/22/1 67/23/1 68/24/1
f 69/22/1 70/25/1 71/26/1 72/23/1
f 73/25/1 74/27/1 75/28/1 76/26/1
f 77/27/1 78/29/1 79/30/1 80/28/1
f 81/29/1 82/31/1 83/32/1 84/30/1
f 85/33/1 86/20/1 87/5/1 88/34/1
f 89/35/1 90/36/1 91/22/1 92/21/1
f 93/36/1 94/37/1 95/25/1 96/22/1
f 97/37/1 98/38/1 99/27/1 100/25/1
f 101/38/1 102/39/1 103/29/1 104/27/1
f 105/39/1 106/40/1 107/31/1 108/29/1
f 109/41/1 110/42/1 111/36/1 112/35/1
f 113/42/1 114/43/1 115/37/1 116/36/1
f 117/43/1 118/44/1 119/38/1 120/37/1
f 121/44/1 122/45/1 123/39/1 124/38/1
f 125/45/1 126/46/1 127/40/1 128/39/1

