# Tiled2Unity generated file. Do not modify by hand.
# Wavefront file for 'Map1_mesh_0109.obj'

# Vertices (Count = 496)
v -32 -144 0
v -48 -144 0
v -48 -128 0
v -32 -128 0
v -48 -144 0
v -64 -144 0
v -64 -128 0
v -48 -128 0
v -64 -144 0
v -80 -144 0
v -80 -128 0
v -64 -128 0
v -80 -144 0
v -96 -144 0
v -96 -128 0
v -80 -128 0
v -112 -144 0
v -128 -144 0
v -128 -128 0
v -112 -128 0
v -128 -144 0
v -144 -144 0
v -144 -128 0
v -128 -128 0
v -144 -144 0
v -160 -144 0
v -160 -128 0
v -144 -128 0
v -176 -144 0
v -192 -144 0
v -192 -128 0
v -176 -128 0
v -192 -144 0
v -208 -144 0
v -208 -128 0
v -192 -128 0
v -208 -144 0
v -224 -144 0
v -224 -128 0
v -208 -128 0
v -224 -144 0
v -240 -144 0
v -240 -128 0
v -224 -128 0
v -240 -144 0
v -256 -144 0
v -256 -128 0
v -240 -128 0
v 0 -160 0
v -16 -160 0
v -16 -144 0
v 0 -144 0
v -16 -160 0
v -32 -160 0
v -32 -144 0
v -16 -144 0
v -32 -160 0
v -48 -160 0
v -48 -144 0
v -32 -144 0
v -48 -160 0
v -64 -160 0
v -64 -144 0
v -48 -144 0
v -64 -160 0
v -80 -160 0
v -80 -144 0
v -64 -144 0
v -80 -160 0
v -96 -160 0
v -96 -144 0
v -80 -144 0
v -96 -160 0
v -112 -160 0
v -112 -144 0
v -96 -144 0
v -112 -160 0
v -128 -160 0
v -128 -144 0
v -112 -144 0
v -128 -160 0
v -144 -160 0
v -144 -144 0
v -128 -144 0
v -144 -160 0
v -160 -160 0
v -160 -144 0
v -144 -144 0
v -160 -160 0
v -176 -160 0
v -176 -144 0
v -160 -144 0
v -176 -160 0
v -192 -160 0
v -192 -144 0
v -176 -144 0
v -192 -160 0
v -208 -160 0
v -208 -144 0
v -192 -144 0
v -208 -160 0
v -224 -160 0
v -224 -144 0
v -208 -144 0
v -224 -160 0
v -240 -160 0
v -240 -144 0
v -224 -144 0
v -240 -160 0
v -256 -160 0
v -256 -144 0
v -240 -144 0
v 0 -176 0
v -16 -176 0
v -16 -160 0
v 0 -160 0
v -16 -176 0
v -32 -176 0
v -32 -160 0
v -16 -160 0
v -32 -176 0
v -48 -176 0
v -48 -160 0
v -32 -160 0
v -48 -176 0
v -64 -176 0
v -64 -160 0
v -48 -160 0
v -64 -176 0
v -80 -176 0
v -80 -160 0
v -64 -160 0
v -80 -176 0
v -96 -176 0
v -96 -160 0
v -80 -160 0
v -96 -176 0
v -112 -176 0
v -112 -160 0
v -96 -160 0
v -112 -176 0
v -128 -176 0
v -128 -160 0
v -112 -160 0
v -128 -176 0
v -144 -176 0
v -144 -160 0
v -128 -160 0
v -144 -176 0
v -160 -176 0
v -160 -160 0
v -144 -160 0
v -160 -176 0
v -176 -176 0
v -176 -160 0
v -160 -160 0
v -176 -176 0
v -192 -176 0
v -192 -160 0
v -176 -160 0
v -192 -176 0
v -208 -176 0
v -208 -160 0
v -192 -160 0
v -208 -176 0
v -224 -176 0
v -224 -160 0
v -208 -160 0
v -224 -176 0
v -240 -176 0
v -240 -160 0
v -224 -160 0
v -240 -176 0
v -256 -176 0
v -256 -160 0
v -240 -160 0
v 0 -192 0
v -16 -192 0
v -16 -176 0
v 0 -176 0
v -16 -192 0
v -32 -192 0
v -32 -176 0
v -16 -176 0
v -32 -192 0
v -48 -192 0
v -48 -176 0
v -32 -176 0
v -48 -192 0
v -64 -192 0
v -64 -176 0
v -48 -176 0
v -64 -192 0
v -80 -192 0
v -80 -176 0
v -64 -176 0
v -80 -192 0
v -96 -192 0
v -96 -176 0
v -80 -176 0
v -96 -192 0
v -112 -192 0
v -112 -176 0
v -96 -176 0
v -112 -192 0
v -128 -192 0
v -128 -176 0
v -112 -176 0
v -128 -192 0
v -144 -192 0
v -144 -176 0
v -128 -176 0
v -144 -192 0
v -160 -192 0
v -160 -176 0
v -144 -176 0
v -160 -192 0
v -176 -192 0
v -176 -176 0
v -160 -176 0
v -176 -192 0
v -192 -192 0
v -192 -176 0
v -176 -176 0
v -192 -192 0
v -208 -192 0
v -208 -176 0
v -192 -176 0
v -208 -192 0
v -224 -192 0
v -224 -176 0
v -208 -176 0
v -224 -192 0
v -240 -192 0
v -240 -176 0
v -224 -176 0
v -240 -192 0
v -256 -192 0
v -256 -176 0
v -240 -176 0
v 0 -208 0
v -16 -208 0
v -16 -192 0
v 0 -192 0
v -16 -208 0
v -32 -208 0
v -32 -192 0
v -16 -192 0
v -32 -208 0
v -48 -208 0
v -48 -192 0
v -32 -192 0
v -48 -208 0
v -64 -208 0
v -64 -192 0
v -48 -192 0
v -64 -208 0
v -80 -208 0
v -80 -192 0
v -64 -192 0
v -80 -208 0
v -96 -208 0
v -96 -192 0
v -80 -192 0
v -96 -208 0
v -112 -208 0
v -112 -192 0
v -96 -192 0
v -112 -208 0
v -128 -208 0
v -128 -192 0
v -112 -192 0
v -128 -208 0
v -144 -208 0
v -144 -192 0
v -128 -192 0
v -144 -208 0
v -160 -208 0
v -160 -192 0
v -144 -192 0
v -160 -208 0
v -176 -208 0
v -176 -192 0
v -160 -192 0
v -176 -208 0
v -192 -208 0
v -192 -192 0
v -176 -192 0
v -192 -208 0
v -208 -208 0
v -208 -192 0
v -192 -192 0
v -208 -208 0
v -224 -208 0
v -224 -192 0
v -208 -192 0
v -224 -208 0
v -240 -208 0
v -240 -192 0
v -224 -192 0
v -240 -208 0
v -256 -208 0
v -256 -192 0
v -240 -192 0
v 0 -224 0
v -16 -224 0
v -16 -208 0
v 0 -208 0
v -16 -224 0
v -32 -224 0
v -32 -208 0
v -16 -208 0
v -32 -224 0
v -48 -224 0
v -48 -208 0
v -32 -208 0
v -48 -224 0
v -64 -224 0
v -64 -208 0
v -48 -208 0
v -64 -224 0
v -80 -224 0
v -80 -208 0
v -64 -208 0
v -80 -224 0
v -96 -224 0
v -96 -208 0
v -80 -208 0
v -96 -224 0
v -112 -224 0
v -112 -208 0
v -96 -208 0
v -112 -224 0
v -128 -224 0
v -128 -208 0
v -112 -208 0
v -128 -224 0
v -144 -224 0
v -144 -208 0
v -128 -208 0
v -144 -224 0
v -160 -224 0
v -160 -208 0
v -144 -208 0
v -160 -224 0
v -176 -224 0
v -176 -208 0
v -160 -208 0
v -176 -224 0
v -192 -224 0
v -192 -208 0
v -176 -208 0
v -192 -224 0
v -208 -224 0
v -208 -208 0
v -192 -208 0
v -208 -224 0
v -224 -224 0
v -224 -208 0
v -208 -208 0
v -224 -224 0
v -240 -224 0
v -240 -208 0
v -224 -208 0
v -240 -224 0
v -256 -224 0
v -256 -208 0
v -240 -208 0
v 0 -240 0
v -16 -240 0
v -16 -224 0
v 0 -224 0
v -16 -240 0
v -32 -240 0
v -32 -224 0
v -16 -224 0
v -32 -240 0
v -48 -240 0
v -48 -224 0
v -32 -224 0
v -48 -240 0
v -64 -240 0
v -64 -224 0
v -48 -224 0
v -64 -240 0
v -80 -240 0
v -80 -224 0
v -64 -224 0
v -80 -240 0
v -96 -240 0
v -96 -224 0
v -80 -224 0
v -96 -240 0
v -112 -240 0
v -112 -224 0
v -96 -224 0
v -112 -240 0
v -128 -240 0
v -128 -224 0
v -112 -224 0
v -128 -240 0
v -144 -240 0
v -144 -224 0
v -128 -224 0
v -144 -240 0
v -160 -240 0
v -160 -224 0
v -144 -224 0
v -160 -240 0
v -176 -240 0
v -176 -224 0
v -160 -224 0
v -176 -240 0
v -192 -240 0
v -192 -224 0
v -176 -224 0
v -192 -240 0
v -208 -240 0
v -208 -224 0
v -192 -224 0
v -208 -240 0
v -224 -240 0
v -224 -224 0
v -208 -224 0
v -224 -240 0
v -240 -240 0
v -240 -224 0
v -224 -224 0
v -240 -240 0
v -256 -240 0
v -256 -224 0
v -240 -224 0
v 0 -256 0
v -16 -256 0
v -16 -240 0
v 0 -240 0
v -16 -256 0
v -32 -256 0
v -32 -240 0
v -16 -240 0
v -32 -256 0
v -48 -256 0
v -48 -240 0
v -32 -240 0
v -48 -256 0
v -64 -256 0
v -64 -240 0
v -48 -240 0
v -64 -256 0
v -80 -256 0
v -80 -240 0
v -64 -240 0
v -80 -256 0
v -96 -256 0
v -96 -240 0
v -80 -240 0
v -96 -256 0
v -112 -256 0
v -112 -240 0
v -96 -240 0
v -112 -256 0
v -128 -256 0
v -128 -240 0
v -112 -240 0
v -128 -256 0
v -144 -256 0
v -144 -240 0
v -128 -240 0
v -144 -256 0
v -160 -256 0
v -160 -240 0
v -144 -240 0
v -160 -256 0
v -176 -256 0
v -176 -240 0
v -160 -240 0
v -176 -256 0
v -192 -256 0
v -192 -240 0
v -176 -240 0
v -192 -256 0
v -208 -256 0
v -208 -240 0
v -192 -240 0
v -208 -256 0
v -224 -256 0
v -224 -240 0
v -208 -240 0
v -224 -256 0
v -240 -256 0
v -240 -240 0
v -224 -240 0
v -240 -256 0
v -256 -256 0
v -256 -240 0
v -240 -240 0

# Texture cooridinates (Count = 36)
vt 0.1428571 0.862069
vt 0.1714286 0.862069
vt 0.1714286 0.8850574
vt 0.1428571 0.8850574
vt 0.1428571 0.816092
vt 0.1714286 0.816092
vt 0.1714286 0.8390805
vt 0.1428571 0.8390805
vt 0.1142857 0.8850574
vt 0.1428571 0.908046
vt 0.1142857 0.908046
vt 0.08571429 0.8390805
vt 0.1142857 0.8390805
vt 0.1142857 0.862069
vt 0.08571429 0.862069
vt 0.1142857 0.816092
vt 0.08571429 0.816092
vt 0.2857143 0.2873563
vt 0.3142857 0.2873563
vt 0.3142857 0.3103448
vt 0.2857143 0.3103448
vt 0.08571429 0.8850574
vt 0.1714286 0.908046
vt 0.2857143 0.2643678
vt 0.3142857 0.2643678
vt 0.08571429 0.908046
vt 0.2857143 0.2413793
vt 0.3142857 0.2413793
vt 0.2857143 0.2183908
vt 0.3142857 0.2183908
vt 0.2857143 0.1954023
vt 0.3142857 0.1954023
vt 0.2857143 0.1724138
vt 0.3142857 0.1724138
vt 0.2857143 0.1494253
vt 0.3142857 0.1494253

# Normal
vn 0 0 -1

# Mesh description
g Map1_mesh_0109

# Faces
f 1/1/1 2/2/1 3/3/1 4/4/1
f 5/5/1 6/6/1 7/7/1 8/8/1
f 9/5/1 10/6/1 11/7/1 12/8/1
f 13/9/1 14/4/1 15/10/1 16/11/1
f 17/12/1 18/13/1 19/14/1 20/15/1
f 21/16/1 22/5/1 23/8/1 24/13/1
f 25/12/1 26/13/1 27/14/1 28/15/1
f 29/1/1 30/2/1 31/3/1 32/4/1
f 33/17/1 34/16/1 35/13/1 36/12/1
f 37/17/1 38/16/1 39/13/1 40/12/1
f 41/9/1 42/4/1 43/10/1 44/11/1
f 45/5/1 46/6/1 47/7/1 48/8/1
f 49/18/1 50/19/1 51/20/1 52/21/1
f 53/16/1 54/5/1 55/8/1 56/13/1
f 57/1/1 58/2/1 59/3/1 60/4/1
f 61/14/1 62/1/1 63/4/1 64/9/1
f 65/16/1 66/5/1 67/8/1 68/13/1
f 69/5/1 70/6/1 71/7/1 72/8/1
f 73/8/1 74/7/1 75/2/1 76/1/1
f 77/5/1 78/6/1 79/7/1 80/8/1
f 81/15/1 82/14/1 83/9/1 84/22/1
f 85/16/1 86/5/1 87/8/1 88/13/1
f 89/5/1 90/6/1 91/7/1 92/8/1
f 93/13/1 94/8/1 95/1/1 96/14/1
f 97/9/1 98/4/1 99/10/1 100/11/1
f 101/1/1 102/2/1 103/3/1 104/4/1
f 105/13/1 106/8/1 107/1/1 108/14/1
f 109/4/1 110/3/1 111/23/1 112/10/1
f 113/24/1 114/25/1 115/19/1 116/18/1
f 117/22/1 118/9/1 119/11/1 120/26/1
f 121/4/1 122/3/1 123/23/1 124/10/1
f 125/13/1 126/8/1 127/1/1 128/14/1
f 129/9/1 130/4/1 131/10/1 132/11/1
f 133/4/1 134/3/1 135/23/1 136/10/1
f 137/22/1 138/9/1 139/11/1 140/26/1
f 141/22/1 142/9/1 143/11/1 144/26/1
f 145/22/1 146/9/1 147/11/1 148/26/1
f 149/9/1 150/4/1 151/10/1 152/11/1
f 153/14/1 154/1/1 155/4/1 156/9/1
f 157/5/1 158/6/1 159/7/1 160/8/1
f 161/22/1 162/9/1 163/11/1 164/26/1
f 165/4/1 166/3/1 167/23/1 168/10/1
f 169/13/1 170/8/1 171/1/1 172/14/1
f 173/9/1 174/4/1 175/10/1 176/11/1
f 177/27/1 178/28/1 179/25/1 180/24/1
f 181/15/1 182/14/1 183/9/1 184/22/1
f 185/14/1 186/1/1 187/4/1 188/9/1
f 189/15/1 190/14/1 191/9/1 192/22/1
f 193/22/1 194/9/1 195/11/1 196/26/1
f 197/9/1 198/4/1 199/10/1 200/11/1
f 201/4/1 202/3/1 203/23/1 204/10/1
f 205/15/1 206/14/1 207/9/1 208/22/1
f 209/15/1 210/14/1 211/9/1 212/22/1
f 213/14/1 214/1/1 215/4/1 216/9/1
f 217/1/1 218/2/1 219/3/1 220/4/1
f 221/4/1 222/3/1 223/23/1 224/10/1
f 225/15/1 226/14/1 227/9/1 228/22/1
f 229/4/1 230/3/1 231/23/1 232/10/1
f 233/17/1 234/16/1 235/13/1 236/12/1
f 237/5/1 238/6/1 239/7/1 240/8/1
f 241/29/1 242/30/1 243/28/1 244/27/1
f 245/12/1 246/13/1 247/14/1 248/15/1
f 249/13/1 250/8/1 251/1/1 252/14/1
f 253/12/1 254/13/1 255/14/1 256/15/1
f 257/15/1 258/14/1 259/9/1 260/22/1
f 261/14/1 262/1/1 263/4/1 264/9/1
f 265/1/1 266/2/1 267/3/1 268/4/1
f 269/22/1 270/9/1 271/11/1 272/26/1
f 273/12/1 274/13/1 275/14/1 276/15/1
f 277/13/1 278/8/1 279/1/1 280/14/1
f 281/8/1 282/7/1 283/2/1 284/1/1
f 285/1/1 286/2/1 287/3/1 288/4/1
f 289/1/1 290/2/1 291/3/1 292/4/1
f 293/12/1 294/13/1 295/14/1 296/15/1
f 297/14/1 298/1/1 299/4/1 300/9/1
f 301/5/1 302/6/1 303/7/1 304/8/1
f 305/31/1 306/32/1 307/30/1 308/29/1
f 309/22/1 310/9/1 311/11/1 312/26/1
f 313/9/1 314/4/1 315/10/1 316/11/1
f 317/17/1 318/16/1 319/13/1 320/12/1
f 321/12/1 322/13/1 323/14/1 324/15/1
f 325/13/1 326/8/1 327/1/1 328/14/1
f 329/8/1 330/7/1 331/2/1 332/1/1
f 333/15/1 334/14/1 335/9/1 336/22/1
f 337/17/1 338/16/1 339/13/1 340/12/1
f 341/22/1 342/9/1 343/11/1 344/26/1
f 345/9/1 346/4/1 347/10/1 348/11/1
f 349/4/1 350/3/1 351/23/1 352/10/1
f 353/8/1 354/7/1 355/2/1 356/1/1
f 357/17/1 358/16/1 359/13/1 360/12/1
f 361/15/1 362/14/1 363/9/1 364/22/1
f 365/5/1 366/6/1 367/7/1 368/8/1
f 369/33/1 370/34/1 371/32/1 372/31/1
f 373/22/1 374/9/1 375/11/1 376/26/1
f 377/9/1 378/4/1 379/10/1 380/11/1
f 381/12/1 382/13/1 383/14/1 384/15/1
f 385/17/1 386/16/1 387/13/1 388/12/1
f 389/16/1 390/5/1 391/8/1 392/13/1
f 393/5/1 394/6/1 395/7/1 396/8/1
f 397/12/1 398/13/1 399/14/1 400/15/1
f 401/22/1 402/9/1 403/11/1 404/26/1
f 405/22/1 406/9/1 407/11/1 408/26/1
f 409/9/1 410/4/1 411/10/1 412/11/1
f 413/22/1 414/9/1 415/11/1 416/26/1
f 417/9/1 418/4/1 419/10/1 420/11/1
f 421/4/1 422/3/1 423/23/1 424/10/1
f 425/1/1 426/2/1 427/3/1 428/4/1
f 429/8/1 430/7/1 431/2/1 432/1/1
f 433/35/1 434/36/1 435/34/1 436/33/1
f 437/15/1 438/14/1 439/9/1 440/22/1
f 441/14/1 442/1/1 443/4/1 444/9/1
f 445/17/1 446/16/1 447/13/1 448/12/1
f 449/17/1 450/16/1 451/13/1 452/12/1
f 453/17/1 454/16/1 455/13/1 456/12/1
f 457/17/1 458/16/1 459/13/1 460/12/1
f 461/9/1 462/4/1 463/10/1 464/11/1
f 465/15/1 466/14/1 467/9/1 468/22/1
f 469/15/1 470/14/1 471/9/1 472/22/1
f 473/14/1 474/1/1 475/4/1 476/9/1
f 477/15/1 478/14/1 479/9/1 480/22/1
f 481/14/1 482/1/1 483/4/1 484/9/1
f 485/1/1 486/2/1 487/3/1 488/4/1
f 489/22/1 490/9/1 491/11/1 492/26/1
f 493/1/1 494/2/1 495/3/1 496/4/1

