# Tiled2Unity generated file. Do not modify by hand.
# Wavefront file for 'Map1_mesh_0328.obj'

# Vertices (Count = 100)
v -192 -64 0
v -208 -64 0
v -208 -48 0
v -192 -48 0
v -208 -64 0
v -224 -64 0
v -224 -48 0
v -208 -48 0
v -224 -64 0
v -240 -64 0
v -240 -48 0
v -224 -48 0
v -240 -64 0
v -256 -64 0
v -256 -48 0
v -240 -48 0
v -176 -80 0
v -192 -80 0
v -192 -64 0
v -176 -64 0
v -192 -80 0
v -208 -80 0
v -208 -64 0
v -192 -64 0
v -160 -96 0
v -176 -96 0
v -176 -80 0
v -160 -80 0
v -176 -96 0
v -192 -96 0
v -192 -80 0
v -176 -80 0
v -144 -112 0
v -160 -112 0
v -160 -96 0
v -144 -96 0
v -160 -112 0
v -176 -112 0
v -176 -96 0
v -160 -96 0
v -128 -128 0
v -144 -128 0
v -144 -112 0
v -128 -112 0
v -144 -128 0
v -160 -128 0
v -160 -112 0
v -144 -112 0
v -48 -144 0
v -64 -144 0
v -64 -128 0
v -48 -128 0
v -112 -144 0
v -128 -144 0
v -128 -128 0
v -112 -128 0
v -128 -144 0
v -144 -144 0
v -144 -128 0
v -128 -128 0
v 0 -160 0
v -16 -160 0
v -16 -144 0
v 0 -144 0
v -32 -160 0
v -48 -160 0
v -48 -144 0
v -32 -144 0
v -240 -224 0
v -256 -224 0
v -256 -208 0
v -240 -208 0
v -208 -240 0
v -224 -240 0
v -224 -224 0
v -208 -224 0
v -224 -240 0
v -240 -240 0
v -240 -224 0
v -224 -224 0
v -240 -240 0
v -256 -240 0
v -256 -224 0
v -240 -224 0
v -176 -256 0
v -192 -256 0
v -192 -240 0
v -176 -240 0
v -192 -256 0
v -208 -256 0
v -208 -240 0
v -192 -240 0
v -208 -256 0
v -224 -256 0
v -224 -240 0
v -208 -240 0
v -224 -256 0
v -240 -256 0
v -240 -240 0
v -224 -240 0

# Texture cooridinates (Count = 23)
vt 0.12 0.84
vt 0.16 0.84
vt 0.16 0.88
vt 0.12 0.88
vt 0.08 0.8
vt 0.12 0.8
vt 0.08 0.84
vt 0.2 0.84
vt 0.2 0.88
vt 0.16 0.8
vt 0.04 0.8
vt 0.04 0.84
vt 0.04 0.96
vt 0.08 0.96
vt 0.08 1
vt 0.04 1
vt 0.2 0.92
vt 0.24 0.92
vt 0.24 0.96
vt 0.2 0.96
vt 0.04 0.92
vt 0.08 0.92
vt 0.24 0.88

# Normal
vn 0 0 -1

# Mesh description
g Map1_mesh_0328

# Faces
f 1/1/1 2/2/1 3/3/1 4/4/1
f 5/5/1 6/6/1 7/1/1 8/7/1
f 9/5/1 10/6/1 11/1/1 12/7/1
f 13/5/1 14/6/1 15/1/1 16/7/1
f 17/1/1 18/2/1 19/3/1 20/4/1
f 21/2/1 22/8/1 23/9/1 24/3/1
f 25/1/1 26/2/1 27/3/1 28/4/1
f 29/6/1 30/10/1 31/2/1 32/1/1
f 33/1/1 34/2/1 35/3/1 36/4/1
f 37/6/1 38/10/1 39/2/1 40/1/1
f 41/1/1 42/2/1 43/3/1 44/4/1
f 45/6/1 46/10/1 47/2/1 48/1/1
f 49/6/1 50/10/1 51/2/1 52/1/1
f 53/11/1 54/5/1 55/7/1 56/12/1
f 57/6/1 58/10/1 59/2/1 60/1/1
f 61/11/1 62/5/1 63/7/1 64/12/1
f 65/6/1 66/10/1 67/2/1 68/1/1
f 69/13/1 70/14/1 71/15/1 72/16/1
f 73/13/1 74/14/1 75/15/1 76/16/1
f 77/17/1 78/18/1 79/19/1 80/20/1
f 81/21/1 82/22/1 83/14/1 84/13/1
f 85/13/1 86/14/1 87/15/1 88/16/1
f 89/17/1 90/18/1 91/19/1 92/20/1
f 93/21/1 94/22/1 95/14/1 96/13/1
f 97/9/1 98/23/1 99/18/1 100/17/1

