# Tiled2Unity generated file. Do not modify by hand.
# Wavefront file for 'Map1_mesh_0319.obj'

# Vertices (Count = 64)
v -32 -128 0
v -48 -128 0
v -48 -112 0
v -32 -112 0
v -48 -128 0
v -64 -128 0
v -64 -112 0
v -48 -112 0
v -64 -128 0
v -80 -128 0
v -80 -112 0
v -64 -112 0
v -80 -128 0
v -96 -128 0
v -96 -112 0
v -80 -112 0
v -112 -128 0
v -128 -128 0
v -128 -112 0
v -112 -112 0
v -128 -128 0
v -144 -128 0
v -144 -112 0
v -128 -112 0
v -144 -128 0
v -160 -128 0
v -160 -112 0
v -144 -112 0
v -176 -128 0
v -192 -128 0
v -192 -112 0
v -176 -112 0
v -192 -128 0
v -208 -128 0
v -208 -112 0
v -192 -112 0
v -208 -128 0
v -224 -128 0
v -224 -112 0
v -208 -112 0
v -224 -128 0
v -240 -128 0
v -240 -112 0
v -224 -112 0
v -240 -128 0
v -256 -128 0
v -256 -112 0
v -240 -112 0
v -16 -144 0
v -32 -144 0
v -32 -128 0
v -16 -128 0
v -96 -144 0
v -112 -144 0
v -112 -128 0
v -96 -128 0
v -160 -144 0
v -176 -144 0
v -176 -128 0
v -160 -128 0
v 0 -160 0
v -16 -160 0
v -16 -144 0
v 0 -144 0

# Texture cooridinates (Count = 40)
vt 0.2721474 0.9411765
vt 0.2834869 0.9411765
vt 0.2834869 0.9705882
vt 0.2721474 0.9705882
vt 0.2948264 0.9411765
vt 0.2948264 0.9705882
vt 0.3061658 0.9411765
vt 0.3061658 0.9705882
vt 0.3175053 0.9411765
vt 0.3175053 0.9705882
vt 0.3288448 0.9411765
vt 0.3401843 0.9411765
vt 0.3401843 0.9705882
vt 0.3288448 0.9705882
vt 0.3515237 0.9411765
vt 0.3515237 0.9705882
vt 0.3628632 0.9411765
vt 0.3628632 0.9705882
vt 0.3742027 0.9411765
vt 0.3855422 0.9411765
vt 0.3855422 0.9705882
vt 0.3742027 0.9705882
vt 0.3968816 0.9411765
vt 0.3968816 0.9705882
vt 0.4082211 0.9411765
vt 0.4082211 0.9705882
vt 0.4195606 0.9411765
vt 0.4195606 0.9705882
vt 0.4309001 0.9411765
vt 0.4309001 0.9705882
vt 0.2608079 0.9117647
vt 0.2721474 0.9117647
vt 0.2608079 0.9411765
vt 0.3175053 0.9117647
vt 0.3288448 0.9117647
vt 0.3628632 0.9117647
vt 0.3742027 0.9117647
vt 0.2494685 0.8823529
vt 0.2608079 0.8823529
vt 0.2494685 0.9117647

# Normal
vn 0 0 -1

# Mesh description
g Map1_mesh_0319

# Faces
f 1/1/1 2/2/1 3/3/1 4/4/1
f 5/2/1 6/5/1 7/6/1 8/3/1
f 9/5/1 10/7/1 11/8/1 12/6/1
f 13/7/1 14/9/1 15/10/1 16/8/1
f 17/11/1 18/12/1 19/13/1 20/14/1
f 21/12/1 22/15/1 23/16/1 24/13/1
f 25/15/1 26/17/1 27/18/1 28/16/1
f 29/19/1 30/20/1 31/21/1 32/22/1
f 33/20/1 34/23/1 35/24/1 36/21/1
f 37/23/1 38/25/1 39/26/1 40/24/1
f 41/25/1 42/27/1 43/28/1 44/26/1
f 45/27/1 46/29/1 47/30/1 48/28/1
f 49/31/1 50/32/1 51/1/1 52/33/1
f 53/34/1 54/35/1 55/11/1 56/9/1
f 57/36/1 58/37/1 59/19/1 60/17/1
f 61/38/1 62/39/1 63/31/1 64/40/1

