# Tiled2Unity generated file. Do not modify by hand.
# Wavefront file for 'Map1_mesh_0261.obj'

# Vertices (Count = 56)
v -96 -128 0
v -112 -128 0
v -112 -112 0
v -96 -112 0
v -96 -144 0
v -112 -144 0
v -112 -128 0
v -96 -128 0
v -192 -144 0
v -208 -144 0
v -208 -128 0
v -192 -128 0
v -64 -160 0
v -80 -160 0
v -80 -144 0
v -64 -144 0
v -80 -160 0
v -96 -160 0
v -96 -144 0
v -80 -144 0
v -96 -160 0
v -112 -160 0
v -112 -144 0
v -96 -144 0
v -112 -160 0
v -128 -160 0
v -128 -144 0
v -112 -144 0
v -128 -160 0
v -144 -160 0
v -144 -144 0
v -128 -144 0
v -144 -160 0
v -160 -160 0
v -160 -144 0
v -144 -144 0
v -160 -160 0
v -176 -160 0
v -176 -144 0
v -160 -144 0
v -176 -160 0
v -192 -160 0
v -192 -144 0
v -176 -144 0
v -192 -160 0
v -208 -160 0
v -208 -144 0
v -192 -144 0
v -208 -160 0
v -224 -160 0
v -224 -144 0
v -208 -144 0
v -224 -160 0
v -240 -160 0
v -240 -144 0
v -224 -144 0

# Texture cooridinates (Count = 12)
vt 0.4 0.92
vt 0.44 0.92
vt 0.44 0.96
vt 0.4 0.96
vt 0.4 0.88
vt 0.44 0.88
vt 0.32 0.92
vt 0.36 0.92
vt 0.36 0.96
vt 0.32 0.96
vt 0.28 0.92
vt 0.28 0.96

# Normal
vn 0 0 -1

# Mesh description
g Map1_mesh_0261

# Faces
f 1/1/1 2/2/1 3/3/1 4/4/1
f 5/5/1 6/6/1 7/2/1 8/1/1
f 9/1/1 10/2/1 11/3/1 12/4/1
f 13/7/1 14/8/1 15/9/1 16/10/1
f 17/8/1 18/1/1 19/4/1 20/9/1
f 21/11/1 22/7/1 23/10/1 24/12/1
f 25/7/1 26/8/1 27/9/1 28/10/1
f 29/8/1 30/1/1 31/4/1 32/9/1
f 33/11/1 34/7/1 35/10/1 36/12/1
f 37/7/1 38/8/1 39/9/1 40/10/1
f 41/8/1 42/1/1 43/4/1 44/9/1
f 45/5/1 46/6/1 47/2/1 48/1/1
f 49/7/1 50/8/1 51/9/1 52/10/1
f 53/8/1 54/1/1 55/4/1 56/9/1

