# Tiled2Unity generated file. Do not modify by hand.
# Wavefront file for 'Map1_mesh_0264.obj'

# Vertices (Count = 116)
v -80 -176 0
v -96 -176 0
v -96 -160 0
v -80 -160 0
v -96 -176 0
v -112 -176 0
v -112 -160 0
v -96 -160 0
v -112 -176 0
v -128 -176 0
v -128 -160 0
v -112 -160 0
v -128 -176 0
v -144 -176 0
v -144 -160 0
v -128 -160 0
v -144 -176 0
v -160 -176 0
v -160 -160 0
v -144 -160 0
v -160 -176 0
v -176 -176 0
v -176 -160 0
v -160 -160 0
v -176 -176 0
v -192 -176 0
v -192 -160 0
v -176 -160 0
v -192 -176 0
v -208 -176 0
v -208 -160 0
v -192 -160 0
v -208 -176 0
v -224 -176 0
v -224 -160 0
v -208 -160 0
v -224 -176 0
v -240 -176 0
v -240 -160 0
v -224 -160 0
v -80 -192 0
v -96 -192 0
v -96 -176 0
v -80 -176 0
v -80 -208 0
v -96 -208 0
v -96 -192 0
v -80 -192 0
v -80 -224 0
v -96 -224 0
v -96 -208 0
v -80 -208 0
v -96 -224 0
v -112 -224 0
v -112 -208 0
v -96 -208 0
v -112 -224 0
v -128 -224 0
v -128 -208 0
v -112 -208 0
v -128 -224 0
v -144 -224 0
v -144 -208 0
v -128 -208 0
v -144 -224 0
v -160 -224 0
v -160 -208 0
v -144 -208 0
v -160 -224 0
v -176 -224 0
v -176 -208 0
v -160 -208 0
v -80 -240 0
v -96 -240 0
v -96 -224 0
v -80 -224 0
v -96 -240 0
v -112 -240 0
v -112 -224 0
v -96 -224 0
v -112 -240 0
v -128 -240 0
v -128 -224 0
v -112 -224 0
v -128 -240 0
v -144 -240 0
v -144 -224 0
v -128 -224 0
v -144 -240 0
v -160 -240 0
v -160 -224 0
v -144 -224 0
v -160 -240 0
v -176 -240 0
v -176 -224 0
v -160 -224 0
v -96 -256 0
v -112 -256 0
v -112 -240 0
v -96 -240 0
v -112 -256 0
v -128 -256 0
v -128 -240 0
v -112 -240 0
v -128 -256 0
v -144 -256 0
v -144 -240 0
v -128 -240 0
v -144 -256 0
v -160 -256 0
v -160 -240 0
v -144 -240 0
v -160 -256 0
v -176 -256 0
v -176 -240 0
v -160 -240 0

# Texture cooridinates (Count = 43)
vt 0.24 0.92
vt 0.28 0.92
vt 0.28 0.96
vt 0.24 0.96
vt 0.32 0.92
vt 0.32 0.96
vt 0.36 0.92
vt 0.36 0.96
vt 0.4 0.92
vt 0.4 0.96
vt 0.24 0.88
vt 0.28 0.88
vt 0.4 0.8
vt 0.44 0.8
vt 0.44 0.84
vt 0.4 0.84
vt 0.28 0.52
vt 0.32 0.52
vt 0.32 0.56
vt 0.28 0.56
vt 0.36 0.52
vt 0.36 0.56
vt 0.4 0.52
vt 0.4 0.56
vt 0.44 0.52
vt 0.44 0.56
vt 0.48 0.52
vt 0.48 0.56
vt 0.36 0.84
vt 0.4 0.88
vt 0.36 0.88
vt 0.28 0.48
vt 0.32 0.48
vt 0.36 0.48
vt 0.4 0.48
vt 0.44 0.48
vt 0.48 0.48
vt 0.28 0.44
vt 0.32 0.44
vt 0.36 0.44
vt 0.4 0.44
vt 0.44 0.44
vt 0.48 0.44

# Normal
vn 0 0 -1

# Mesh description
g Map1_mesh_0264

# Faces
f 1/1/1 2/2/1 3/3/1 4/4/1
f 5/2/1 6/5/1 7/6/1 8/3/1
f 9/5/1 10/7/1 11/8/1 12/6/1
f 13/7/1 14/9/1 15/10/1 16/8/1
f 17/2/1 18/5/1 19/6/1 20/3/1
f 21/5/1 22/7/1 23/8/1 24/6/1
f 25/7/1 26/9/1 27/10/1 28/8/1
f 29/2/1 30/5/1 31/6/1 32/3/1
f 33/5/1 34/7/1 35/8/1 36/6/1
f 37/7/1 38/9/1 39/10/1 40/8/1
f 41/11/1 42/12/1 43/2/1 44/1/1
f 45/13/1 46/14/1 47/15/1 48/16/1
f 49/13/1 50/14/1 51/15/1 52/16/1
f 53/17/1 54/18/1 55/19/1 56/20/1
f 57/18/1 58/21/1 59/22/1 60/19/1
f 61/21/1 62/23/1 63/24/1 64/22/1
f 65/23/1 66/25/1 67/26/1 68/24/1
f 69/25/1 70/27/1 71/28/1 72/26/1
f 73/29/1 74/16/1 75/30/1 76/31/1
f 77/32/1 78/33/1 79/18/1 80/17/1
f 81/33/1 82/34/1 83/21/1 84/18/1
f 85/34/1 86/35/1 87/23/1 88/21/1
f 89/35/1 90/36/1 91/25/1 92/23/1
f 93/36/1 94/37/1 95/27/1 96/25/1
f 97/38/1 98/39/1 99/33/1 100/32/1
f 101/39/1 102/40/1 103/34/1 104/33/1
f 105/40/1 106/41/1 107/35/1 108/34/1
f 109/41/1 110/42/1 111/36/1 112/35/1
f 113/42/1 114/43/1 115/37/1 116/36/1

