# Tiled2Unity generated file. Do not modify by hand.
# Wavefront file for 'Map1_mesh_0097.obj'

# Vertices (Count = 872)
v -32 -16 0
v -48 -16 0
v -48 0 0
v -32 0 0
v -48 -16 0
v -64 -16 0
v -64 0 0
v -48 0 0
v -64 -16 0
v -80 -16 0
v -80 0 0
v -64 0 0
v -80 -16 0
v -96 -16 0
v -96 0 0
v -80 0 0
v -96 -16 0
v -112 -16 0
v -112 0 0
v -96 0 0
v -112 -16 0
v -128 -16 0
v -128 0 0
v -112 0 0
v -128 -16 0
v -144 -16 0
v -144 0 0
v -128 0 0
v -144 -16 0
v -160 -16 0
v -160 0 0
v -144 0 0
v -160 -16 0
v -176 -16 0
v -176 0 0
v -160 0 0
v -176 -16 0
v -192 -16 0
v -192 0 0
v -176 0 0
v -192 -16 0
v -208 -16 0
v -208 0 0
v -192 0 0
v -208 -16 0
v -224 -16 0
v -224 0 0
v -208 0 0
v -224 -16 0
v -240 -16 0
v -240 0 0
v -224 0 0
v -240 -16 0
v -256 -16 0
v -256 0 0
v -240 0 0
v -64 -32 0
v -80 -32 0
v -80 -16 0
v -64 -16 0
v -80 -32 0
v -96 -32 0
v -96 -16 0
v -80 -16 0
v -96 -32 0
v -112 -32 0
v -112 -16 0
v -96 -16 0
v -112 -32 0
v -128 -32 0
v -128 -16 0
v -112 -16 0
v -128 -32 0
v -144 -32 0
v -144 -16 0
v -128 -16 0
v -144 -32 0
v -160 -32 0
v -160 -16 0
v -144 -16 0
v -160 -32 0
v -176 -32 0
v -176 -16 0
v -160 -16 0
v -176 -32 0
v -192 -32 0
v -192 -16 0
v -176 -16 0
v -192 -32 0
v -208 -32 0
v -208 -16 0
v -192 -16 0
v -208 -32 0
v -224 -32 0
v -224 -16 0
v -208 -16 0
v -224 -32 0
v -240 -32 0
v -240 -16 0
v -224 -16 0
v -240 -32 0
v -256 -32 0
v -256 -16 0
v -240 -16 0
v -64 -48 0
v -80 -48 0
v -80 -32 0
v -64 -32 0
v -80 -48 0
v -96 -48 0
v -96 -32 0
v -80 -32 0
v -96 -48 0
v -112 -48 0
v -112 -32 0
v -96 -32 0
v -112 -48 0
v -128 -48 0
v -128 -32 0
v -112 -32 0
v -128 -48 0
v -144 -48 0
v -144 -32 0
v -128 -32 0
v -144 -48 0
v -160 -48 0
v -160 -32 0
v -144 -32 0
v -160 -48 0
v -176 -48 0
v -176 -32 0
v -160 -32 0
v -176 -48 0
v -192 -48 0
v -192 -32 0
v -176 -32 0
v -192 -48 0
v -208 -48 0
v -208 -32 0
v -192 -32 0
v -208 -48 0
v -224 -48 0
v -224 -32 0
v -208 -32 0
v -224 -48 0
v -240 -48 0
v -240 -32 0
v -224 -32 0
v -240 -48 0
v -256 -48 0
v -256 -32 0
v -240 -32 0
v -64 -64 0
v -80 -64 0
v -80 -48 0
v -64 -48 0
v -80 -64 0
v -96 -64 0
v -96 -48 0
v -80 -48 0
v -96 -64 0
v -112 -64 0
v -112 -48 0
v -96 -48 0
v -112 -64 0
v -128 -64 0
v -128 -48 0
v -112 -48 0
v -128 -64 0
v -144 -64 0
v -144 -48 0
v -128 -48 0
v -144 -64 0
v -160 -64 0
v -160 -48 0
v -144 -48 0
v -160 -64 0
v -176 -64 0
v -176 -48 0
v -160 -48 0
v -176 -64 0
v -192 -64 0
v -192 -48 0
v -176 -48 0
v -192 -64 0
v -208 -64 0
v -208 -48 0
v -192 -48 0
v -208 -64 0
v -224 -64 0
v -224 -48 0
v -208 -48 0
v -224 -64 0
v -240 -64 0
v -240 -48 0
v -224 -48 0
v -240 -64 0
v -256 -64 0
v -256 -48 0
v -240 -48 0
v -64 -80 0
v -80 -80 0
v -80 -64 0
v -64 -64 0
v -80 -80 0
v -96 -80 0
v -96 -64 0
v -80 -64 0
v -96 -80 0
v -112 -80 0
v -112 -64 0
v -96 -64 0
v -112 -80 0
v -128 -80 0
v -128 -64 0
v -112 -64 0
v -128 -80 0
v -144 -80 0
v -144 -64 0
v -128 -64 0
v -144 -80 0
v -160 -80 0
v -160 -64 0
v -144 -64 0
v -160 -80 0
v -176 -80 0
v -176 -64 0
v -160 -64 0
v -176 -80 0
v -192 -80 0
v -192 -64 0
v -176 -64 0
v -192 -80 0
v -208 -80 0
v -208 -64 0
v -192 -64 0
v -208 -80 0
v -224 -80 0
v -224 -64 0
v -208 -64 0
v -224 -80 0
v -240 -80 0
v -240 -64 0
v -224 -64 0
v -240 -80 0
v -256 -80 0
v -256 -64 0
v -240 -64 0
v -64 -96 0
v -80 -96 0
v -80 -80 0
v -64 -80 0
v -80 -96 0
v -96 -96 0
v -96 -80 0
v -80 -80 0
v -96 -96 0
v -112 -96 0
v -112 -80 0
v -96 -80 0
v -112 -96 0
v -128 -96 0
v -128 -80 0
v -112 -80 0
v -128 -96 0
v -144 -96 0
v -144 -80 0
v -128 -80 0
v -144 -96 0
v -160 -96 0
v -160 -80 0
v -144 -80 0
v -160 -96 0
v -176 -96 0
v -176 -80 0
v -160 -80 0
v -176 -96 0
v -192 -96 0
v -192 -80 0
v -176 -80 0
v -192 -96 0
v -208 -96 0
v -208 -80 0
v -192 -80 0
v -208 -96 0
v -224 -96 0
v -224 -80 0
v -208 -80 0
v -224 -96 0
v -240 -96 0
v -240 -80 0
v -224 -80 0
v -64 -112 0
v -80 -112 0
v -80 -96 0
v -64 -96 0
v -80 -112 0
v -96 -112 0
v -96 -96 0
v -80 -96 0
v -96 -112 0
v -112 -112 0
v -112 -96 0
v -96 -96 0
v -112 -112 0
v -128 -112 0
v -128 -96 0
v -112 -96 0
v -128 -112 0
v -144 -112 0
v -144 -96 0
v -128 -96 0
v -144 -112 0
v -160 -112 0
v -160 -96 0
v -144 -96 0
v -160 -112 0
v -176 -112 0
v -176 -96 0
v -160 -96 0
v -176 -112 0
v -192 -112 0
v -192 -96 0
v -176 -96 0
v -192 -112 0
v -208 -112 0
v -208 -96 0
v -192 -96 0
v -208 -112 0
v -224 -112 0
v -224 -96 0
v -208 -96 0
v -224 -112 0
v -240 -112 0
v -240 -96 0
v -224 -96 0
v -64 -128 0
v -80 -128 0
v -80 -112 0
v -64 -112 0
v -80 -128 0
v -96 -128 0
v -96 -112 0
v -80 -112 0
v -96 -128 0
v -112 -128 0
v -112 -112 0
v -96 -112 0
v -112 -128 0
v -128 -128 0
v -128 -112 0
v -112 -112 0
v -128 -128 0
v -144 -128 0
v -144 -112 0
v -128 -112 0
v -144 -128 0
v -160 -128 0
v -160 -112 0
v -144 -112 0
v -160 -128 0
v -176 -128 0
v -176 -112 0
v -160 -112 0
v -176 -128 0
v -192 -128 0
v -192 -112 0
v -176 -112 0
v -192 -128 0
v -208 -128 0
v -208 -112 0
v -192 -112 0
v -208 -128 0
v -224 -128 0
v -224 -112 0
v -208 -112 0
v -224 -128 0
v -240 -128 0
v -240 -112 0
v -224 -112 0
v -64 -144 0
v -80 -144 0
v -80 -128 0
v -64 -128 0
v -80 -144 0
v -96 -144 0
v -96 -128 0
v -80 -128 0
v -96 -144 0
v -112 -144 0
v -112 -128 0
v -96 -128 0
v -112 -144 0
v -128 -144 0
v -128 -128 0
v -112 -128 0
v -128 -144 0
v -144 -144 0
v -144 -128 0
v -128 -128 0
v -144 -144 0
v -160 -144 0
v -160 -128 0
v -144 -128 0
v -160 -144 0
v -176 -144 0
v -176 -128 0
v -160 -128 0
v -176 -144 0
v -192 -144 0
v -192 -128 0
v -176 -128 0
v -192 -144 0
v -208 -144 0
v -208 -128 0
v -192 -128 0
v -208 -144 0
v -224 -144 0
v -224 -128 0
v -208 -128 0
v -224 -144 0
v -240 -144 0
v -240 -128 0
v -224 -128 0
v 0 -160 0
v -16 -160 0
v -16 -144 0
v 0 -144 0
v -16 -160 0
v -32 -160 0
v -32 -144 0
v -16 -144 0
v -32 -160 0
v -48 -160 0
v -48 -144 0
v -32 -144 0
v -48 -160 0
v -64 -160 0
v -64 -144 0
v -48 -144 0
v -64 -160 0
v -80 -160 0
v -80 -144 0
v -64 -144 0
v -80 -160 0
v -96 -160 0
v -96 -144 0
v -80 -144 0
v -96 -160 0
v -112 -160 0
v -112 -144 0
v -96 -144 0
v -112 -160 0
v -128 -160 0
v -128 -144 0
v -112 -144 0
v -128 -160 0
v -144 -160 0
v -144 -144 0
v -128 -144 0
v -144 -160 0
v -160 -160 0
v -160 -144 0
v -144 -144 0
v -160 -160 0
v -176 -160 0
v -176 -144 0
v -160 -144 0
v -176 -160 0
v -192 -160 0
v -192 -144 0
v -176 -144 0
v -192 -160 0
v -208 -160 0
v -208 -144 0
v -192 -144 0
v -208 -160 0
v -224 -160 0
v -224 -144 0
v -208 -144 0
v -224 -160 0
v -240 -160 0
v -240 -144 0
v -224 -144 0
v -240 -160 0
v -256 -160 0
v -256 -144 0
v -240 -144 0
v 0 -176 0
v -16 -176 0
v -16 -160 0
v 0 -160 0
v -16 -176 0
v -32 -176 0
v -32 -160 0
v -16 -160 0
v -32 -176 0
v -48 -176 0
v -48 -160 0
v -32 -160 0
v -48 -176 0
v -64 -176 0
v -64 -160 0
v -48 -160 0
v -64 -176 0
v -80 -176 0
v -80 -160 0
v -64 -160 0
v -80 -176 0
v -96 -176 0
v -96 -160 0
v -80 -160 0
v -96 -176 0
v -112 -176 0
v -112 -160 0
v -96 -160 0
v -112 -176 0
v -128 -176 0
v -128 -160 0
v -112 -160 0
v -128 -176 0
v -144 -176 0
v -144 -160 0
v -128 -160 0
v -144 -176 0
v -160 -176 0
v -160 -160 0
v -144 -160 0
v -160 -176 0
v -176 -176 0
v -176 -160 0
v -160 -160 0
v -176 -176 0
v -192 -176 0
v -192 -160 0
v -176 -160 0
v -192 -176 0
v -208 -176 0
v -208 -160 0
v -192 -160 0
v -208 -176 0
v -224 -176 0
v -224 -160 0
v -208 -160 0
v -224 -176 0
v -240 -176 0
v -240 -160 0
v -224 -160 0
v -240 -176 0
v -256 -176 0
v -256 -160 0
v -240 -160 0
v 0 -192 0
v -16 -192 0
v -16 -176 0
v 0 -176 0
v -16 -192 0
v -32 -192 0
v -32 -176 0
v -16 -176 0
v -32 -192 0
v -48 -192 0
v -48 -176 0
v -32 -176 0
v -48 -192 0
v -64 -192 0
v -64 -176 0
v -48 -176 0
v -64 -192 0
v -80 -192 0
v -80 -176 0
v -64 -176 0
v -80 -192 0
v -96 -192 0
v -96 -176 0
v -80 -176 0
v -96 -192 0
v -112 -192 0
v -112 -176 0
v -96 -176 0
v -112 -192 0
v -128 -192 0
v -128 -176 0
v -112 -176 0
v -128 -192 0
v -144 -192 0
v -144 -176 0
v -128 -176 0
v -144 -192 0
v -160 -192 0
v -160 -176 0
v -144 -176 0
v -160 -192 0
v -176 -192 0
v -176 -176 0
v -160 -176 0
v -176 -192 0
v -192 -192 0
v -192 -176 0
v -176 -176 0
v -192 -192 0
v -208 -192 0
v -208 -176 0
v -192 -176 0
v -208 -192 0
v -224 -192 0
v -224 -176 0
v -208 -176 0
v -224 -192 0
v -240 -192 0
v -240 -176 0
v -224 -176 0
v -240 -192 0
v -256 -192 0
v -256 -176 0
v -240 -176 0
v 0 -208 0
v -16 -208 0
v -16 -192 0
v 0 -192 0
v -16 -208 0
v -32 -208 0
v -32 -192 0
v -16 -192 0
v -32 -208 0
v -48 -208 0
v -48 -192 0
v -32 -192 0
v -48 -208 0
v -64 -208 0
v -64 -192 0
v -48 -192 0
v -64 -208 0
v -80 -208 0
v -80 -192 0
v -64 -192 0
v -80 -208 0
v -96 -208 0
v -96 -192 0
v -80 -192 0
v -96 -208 0
v -112 -208 0
v -112 -192 0
v -96 -192 0
v -112 -208 0
v -128 -208 0
v -128 -192 0
v -112 -192 0
v -128 -208 0
v -144 -208 0
v -144 -192 0
v -128 -192 0
v -144 -208 0
v -160 -208 0
v -160 -192 0
v -144 -192 0
v -160 -208 0
v -176 -208 0
v -176 -192 0
v -160 -192 0
v -176 -208 0
v -192 -208 0
v -192 -192 0
v -176 -192 0
v -192 -208 0
v -208 -208 0
v -208 -192 0
v -192 -192 0
v -208 -208 0
v -224 -208 0
v -224 -192 0
v -208 -192 0
v -224 -208 0
v -240 -208 0
v -240 -192 0
v -224 -192 0
v -240 -208 0
v -256 -208 0
v -256 -192 0
v -240 -192 0
v 0 -224 0
v -16 -224 0
v -16 -208 0
v 0 -208 0
v -16 -224 0
v -32 -224 0
v -32 -208 0
v -16 -208 0
v -32 -224 0
v -48 -224 0
v -48 -208 0
v -32 -208 0
v -48 -224 0
v -64 -224 0
v -64 -208 0
v -48 -208 0
v -64 -224 0
v -80 -224 0
v -80 -208 0
v -64 -208 0
v -80 -224 0
v -96 -224 0
v -96 -208 0
v -80 -208 0
v -96 -224 0
v -112 -224 0
v -112 -208 0
v -96 -208 0
v -112 -224 0
v -128 -224 0
v -128 -208 0
v -112 -208 0
v -128 -224 0
v -144 -224 0
v -144 -208 0
v -128 -208 0
v -144 -224 0
v -160 -224 0
v -160 -208 0
v -144 -208 0
v -160 -224 0
v -176 -224 0
v -176 -208 0
v -160 -208 0
v -176 -224 0
v -192 -224 0
v -192 -208 0
v -176 -208 0
v -192 -224 0
v -208 -224 0
v -208 -208 0
v -192 -208 0
v -208 -224 0
v -224 -224 0
v -224 -208 0
v -208 -208 0
v -224 -224 0
v -240 -224 0
v -240 -208 0
v -224 -208 0
v -240 -224 0
v -256 -224 0
v -256 -208 0
v -240 -208 0
v 0 -240 0
v -16 -240 0
v -16 -224 0
v 0 -224 0
v -16 -240 0
v -32 -240 0
v -32 -224 0
v -16 -224 0
v -32 -240 0
v -48 -240 0
v -48 -224 0
v -32 -224 0
v -48 -240 0
v -64 -240 0
v -64 -224 0
v -48 -224 0
v -64 -240 0
v -80 -240 0
v -80 -224 0
v -64 -224 0
v -80 -240 0
v -96 -240 0
v -96 -224 0
v -80 -224 0
v -96 -240 0
v -112 -240 0
v -112 -224 0
v -96 -224 0
v -112 -240 0
v -128 -240 0
v -128 -224 0
v -112 -224 0
v -128 -240 0
v -144 -240 0
v -144 -224 0
v -128 -224 0
v -144 -240 0
v -160 -240 0
v -160 -224 0
v -144 -224 0
v -160 -240 0
v -176 -240 0
v -176 -224 0
v -160 -224 0
v -176 -240 0
v -192 -240 0
v -192 -224 0
v -176 -224 0
v -192 -240 0
v -208 -240 0
v -208 -224 0
v -192 -224 0
v -208 -240 0
v -224 -240 0
v -224 -224 0
v -208 -224 0
v -224 -240 0
v -240 -240 0
v -240 -224 0
v -224 -224 0
v -240 -240 0
v -256 -240 0
v -256 -224 0
v -240 -224 0
v 0 -256 0
v -16 -256 0
v -16 -240 0
v 0 -240 0
v -16 -256 0
v -32 -256 0
v -32 -240 0
v -16 -240 0
v -32 -256 0
v -48 -256 0
v -48 -240 0
v -32 -240 0
v -48 -256 0
v -64 -256 0
v -64 -240 0
v -48 -240 0
v -64 -256 0
v -80 -256 0
v -80 -240 0
v -64 -240 0
v -80 -256 0
v -96 -256 0
v -96 -240 0
v -80 -240 0
v -96 -256 0
v -112 -256 0
v -112 -240 0
v -96 -240 0
v -112 -256 0
v -128 -256 0
v -128 -240 0
v -112 -240 0
v -128 -256 0
v -144 -256 0
v -144 -240 0
v -128 -240 0
v -144 -256 0
v -160 -256 0
v -160 -240 0
v -144 -240 0
v -160 -256 0
v -176 -256 0
v -176 -240 0
v -160 -240 0
v -176 -256 0
v -192 -256 0
v -192 -240 0
v -176 -240 0
v -192 -256 0
v -208 -256 0
v -208 -240 0
v -192 -240 0
v -208 -256 0
v -224 -256 0
v -224 -240 0
v -208 -240 0
v -224 -256 0
v -240 -256 0
v -240 -240 0
v -224 -240 0
v -240 -256 0
v -256 -256 0
v -256 -240 0
v -240 -240 0

# Texture cooridinates (Count = 216)
vt 0.6 0.7931035
vt 0.6285715 0.7931035
vt 0.6285715 0.816092
vt 0.6 0.816092
vt 0.6571429 0.7931035
vt 0.6571429 0.816092
vt 0.6857143 0.7931035
vt 0.7142857 0.7931035
vt 0.7142857 0.816092
vt 0.6857143 0.816092
vt 0.7428572 0.7931035
vt 0.7428572 0.816092
vt 0.7714286 0.7931035
vt 0.7714286 0.816092
vt 0.8 0.7931035
vt 0.8 0.816092
vt 0.8285714 0.7931035
vt 0.8285714 0.816092
vt 0.8571429 0.7931035
vt 0.8571429 0.816092
vt 0.8857143 0.7931035
vt 0.8857143 0.816092
vt 0.9142857 0.7931035
vt 0.9142857 0.816092
vt 0.9428571 0.7931035
vt 0.9428571 0.816092
vt 0.9714286 0.7931035
vt 0.9714286 0.816092
vt 0.9714286 0.4482759
vt 1 0.4482759
vt 1 0.4712644
vt 0.9714286 0.4712644
vt 0 0.7931035
vt 0.02857143 0.7931035
vt 0.02857143 0.816092
vt 0 0.816092
vt 0.6857143 0.4712644
vt 0.7142857 0.4712644
vt 0.7142857 0.4942529
vt 0.6857143 0.4942529
vt 0.7142857 0.8850574
vt 0.7428572 0.8850574
vt 0.7428572 0.908046
vt 0.7142857 0.908046
vt 0.7714286 0.8850574
vt 0.7714286 0.908046
vt 0.8 0.8850574
vt 0.8 0.908046
vt 0.8285714 0.8850574
vt 0.8285714 0.908046
vt 0.8571429 0.8850574
vt 0.8571429 0.908046
vt 0.8857143 0.8850574
vt 0.8857143 0.908046
vt 0.9142857 0.8850574
vt 0.9142857 0.908046
vt 0.9428571 0.8850574
vt 0.9428571 0.908046
vt 0.9714286 0.8850574
vt 0.9714286 0.908046
vt 0.9714286 0.4252874
vt 1 0.4252874
vt 0.6857143 0.4482759
vt 0.7142857 0.4482759
vt 0.7142857 0.862069
vt 0.7428572 0.862069
vt 0.7714286 0.862069
vt 0.8 0.862069
vt 0.8285714 0.862069
vt 0.8571429 0.862069
vt 0.8857143 0.862069
vt 0.9142857 0.862069
vt 0.9428571 0.862069
vt 0.9714286 0.862069
vt 0.9714286 0.4022989
vt 1 0.4022989
vt 0.6857143 0.4252874
vt 0.7142857 0.4252874
vt 0.7142857 0.8390805
vt 0.7428572 0.8390805
vt 0.7714286 0.8390805
vt 0.8 0.8390805
vt 0.8285714 0.8390805
vt 0.8571429 0.8390805
vt 0.8857143 0.8390805
vt 0.9142857 0.8390805
vt 0.9428571 0.8390805
vt 0.9714286 0.8390805
vt 0.9714286 0.3793104
vt 1 0.3793104
vt 0.6857143 0.4022989
vt 0.7142857 0.4022989
vt 0.9714286 0.3563218
vt 1 0.3563218
vt 0.6857143 0.3793104
vt 0.7142857 0.3793104
vt 0.6857143 0.3563218
vt 0.7142857 0.3563218
vt 0.7142857 0.6321839
vt 0.7428572 0.6321839
vt 0.7428572 0.6551724
vt 0.7142857 0.6551724
vt 0.7714286 0.6321839
vt 0.7714286 0.6551724
vt 0.8 0.6321839
vt 0.8 0.6551724
vt 0.8285714 0.6321839
vt 0.8285714 0.6551724
vt 0.8571429 0.6321839
vt 0.8571429 0.6551724
vt 0.8857143 0.6321839
vt 0.8857143 0.6551724
vt 0.9142857 0.6321839
vt 0.9142857 0.6551724
vt 0.9428571 0.6321839
vt 0.9428571 0.6551724
vt 0.9714286 0.6321839
vt 0.9714286 0.6551724
vt 0.6857143 0.3333333
vt 0.7142857 0.3333333
vt 0.5428572 0.9770115
vt 0.5714286 0.9770115
vt 0.5714286 1
vt 0.5428572 1
vt 0.6 0.9770115
vt 0.6 1
vt 0.6285715 0.9770115
vt 0.6285715 1
vt 0.6571429 0.9770115
vt 0.6571429 1
vt 0 0.7471265
vt 0.02857143 0.7471265
vt 0.02857143 0.770115
vt 0 0.770115
vt 0.5428572 0.954023
vt 0.5714286 0.954023
vt 0.6 0.954023
vt 0.6285715 0.954023
vt 0.6571429 0.954023
vt 0 0.7241379
vt 0.02857143 0.7241379
vt 0.5428572 0.9310345
vt 0.5714286 0.9310345
vt 0.6 0.9310345
vt 0.6285715 0.9310345
vt 0.6571429 0.9310345
vt 0 0.7011495
vt 0.02857143 0.7011495
vt 0.5428572 0.908046
vt 0.5714286 0.908046
vt 0.6 0.908046
vt 0.6285715 0.908046
vt 0.6571429 0.908046
vt 0.7428572 0.4482759
vt 0.7428572 0.4712644
vt 0.7714286 0.4482759
vt 0.7714286 0.4712644
vt 0.8 0.4482759
vt 0.8 0.4712644
vt 0.8285714 0.4482759
vt 0.8285714 0.4712644
vt 0.8571429 0.4482759
vt 0.8571429 0.4712644
vt 0.8857143 0.4482759
vt 0.8857143 0.4712644
vt 0.9142857 0.4482759
vt 0.9142857 0.4712644
vt 0.9428571 0.4482759
vt 0.9428571 0.4712644
vt 0 0.6781609
vt 0.02857143 0.6781609
vt 0.5428572 0.8850574
vt 0.5714286 0.8850574
vt 0.6 0.8850574
vt 0.6285715 0.8850574
vt 0.6571429 0.8850574
vt 0.7428572 0.4252874
vt 0.7714286 0.4252874
vt 0.8 0.4252874
vt 0.8285714 0.4252874
vt 0.8571429 0.4252874
vt 0.8857143 0.4252874
vt 0.9142857 0.4252874
vt 0.9428571 0.4252874
vt 0 0.6551724
vt 0.02857143 0.6551724
vt 0.5428572 0.862069
vt 0.5714286 0.862069
vt 0.6 0.862069
vt 0.6285715 0.862069
vt 0.6571429 0.862069
vt 0.7428572 0.4022989
vt 0.7714286 0.4022989
vt 0.8 0.4022989
vt 0.8285714 0.4022989
vt 0.8571429 0.4022989
vt 0.8857143 0.4022989
vt 0.9142857 0.4022989
vt 0.9428571 0.4022989
vt 0 0.6321839
vt 0.02857143 0.6321839
vt 0.5428572 0.8390805
vt 0.5714286 0.8390805
vt 0.6 0.8390805
vt 0.6285715 0.8390805
vt 0.6571429 0.8390805
vt 0.7428572 0.3793104
vt 0.7714286 0.3793104
vt 0.8 0.3793104
vt 0.8285714 0.3793104
vt 0.8571429 0.3793104
vt 0.8857143 0.3793104
vt 0.9142857 0.3793104
vt 0.9428571 0.3793104
vt 0 0.6091954
vt 0.02857143 0.6091954

# Normal
vn 0 0 -1

# Mesh description
g Map1_mesh_0097

# Faces
f 1/1/1 2/2/1 3/3/1 4/4/1
f 5/2/1 6/5/1 7/6/1 8/3/1
f 9/7/1 10/8/1 11/9/1 12/10/1
f 13/8/1 14/11/1 15/12/1 16/9/1
f 17/11/1 18/13/1 19/14/1 20/12/1
f 21/13/1 22/15/1 23/16/1 24/14/1
f 25/15/1 26/17/1 27/18/1 28/16/1
f 29/17/1 30/19/1 31/20/1 32/18/1
f 33/19/1 34/21/1 35/22/1 36/20/1
f 37/21/1 38/23/1 39/24/1 40/22/1
f 41/23/1 42/25/1 43/26/1 44/24/1
f 45/25/1 46/27/1 47/28/1 48/26/1
f 49/29/1 50/30/1 51/31/1 52/32/1
f 53/33/1 54/34/1 55/35/1 56/36/1
f 57/37/1 58/38/1 59/39/1 60/40/1
f 61/41/1 62/42/1 63/43/1 64/44/1
f 65/42/1 66/45/1 67/46/1 68/43/1
f 69/45/1 70/47/1 71/48/1 72/46/1
f 73/47/1 74/49/1 75/50/1 76/48/1
f 77/49/1 78/51/1 79/52/1 80/50/1
f 81/51/1 82/53/1 83/54/1 84/52/1
f 85/53/1 86/55/1 87/56/1 88/54/1
f 89/55/1 90/57/1 91/58/1 92/56/1
f 93/57/1 94/59/1 95/60/1 96/58/1
f 97/61/1 98/62/1 99/30/1 100/29/1
f 101/33/1 102/34/1 103/35/1 104/36/1
f 105/63/1 106/64/1 107/38/1 108/37/1
f 109/65/1 110/66/1 111/42/1 112/41/1
f 113/66/1 114/67/1 115/45/1 116/42/1
f 117/67/1 118/68/1 119/47/1 120/45/1
f 121/68/1 122/69/1 123/49/1 124/47/1
f 125/69/1 126/70/1 127/51/1 128/49/1
f 129/70/1 130/71/1 131/53/1 132/51/1
f 133/71/1 134/72/1 135/55/1 136/53/1
f 137/72/1 138/73/1 139/57/1 140/55/1
f 141/73/1 142/74/1 143/59/1 144/57/1
f 145/75/1 146/76/1 147/62/1 148/61/1
f 149/33/1 150/34/1 151/35/1 152/36/1
f 153/77/1 154/78/1 155/64/1 156/63/1
f 157/79/1 158/80/1 159/66/1 160/65/1
f 161/80/1 162/81/1 163/67/1 164/66/1
f 165/81/1 166/82/1 167/68/1 168/67/1
f 169/82/1 170/83/1 171/69/1 172/68/1
f 173/83/1 174/84/1 175/70/1 176/69/1
f 177/84/1 178/85/1 179/71/1 180/70/1
f 181/85/1 182/86/1 183/72/1 184/71/1
f 185/86/1 186/87/1 187/73/1 188/72/1
f 189/87/1 190/88/1 191/74/1 192/73/1
f 193/89/1 194/90/1 195/76/1 196/75/1
f 197/33/1 198/34/1 199/35/1 200/36/1
f 201/91/1 202/92/1 203/78/1 204/77/1
f 205/9/1 206/12/1 207/80/1 208/79/1
f 209/12/1 210/14/1 211/81/1 212/80/1
f 213/14/1 214/16/1 215/82/1 216/81/1
f 217/16/1 218/18/1 219/83/1 220/82/1
f 221/18/1 222/20/1 223/84/1 224/83/1
f 225/20/1 226/22/1 227/85/1 228/84/1
f 229/22/1 230/24/1 231/86/1 232/85/1
f 233/24/1 234/26/1 235/87/1 236/86/1
f 237/26/1 238/28/1 239/88/1 240/87/1
f 241/93/1 242/94/1 243/90/1 244/89/1
f 245/33/1 246/34/1 247/35/1 248/36/1
f 249/95/1 250/96/1 251/92/1 252/91/1
f 253/8/1 254/11/1 255/12/1 256/9/1
f 257/11/1 258/13/1 259/14/1 260/12/1
f 261/13/1 262/15/1 263/16/1 264/14/1
f 265/15/1 266/17/1 267/18/1 268/16/1
f 269/17/1 270/19/1 271/20/1 272/18/1
f 273/19/1 274/21/1 275/22/1 276/20/1
f 277/21/1 278/23/1 279/24/1 280/22/1
f 281/23/1 282/25/1 283/26/1 284/24/1
f 285/25/1 286/27/1 287/28/1 288/26/1
f 289/29/1 290/30/1 291/31/1 292/32/1
f 293/97/1 294/98/1 295/96/1 296/95/1
f 297/99/1 298/100/1 299/101/1 300/102/1
f 301/100/1 302/103/1 303/104/1 304/101/1
f 305/103/1 306/105/1 307/106/1 308/104/1
f 309/105/1 310/107/1 311/108/1 312/106/1
f 313/107/1 314/109/1 315/110/1 316/108/1
f 317/109/1 318/111/1 319/112/1 320/110/1
f 321/111/1 322/113/1 323/114/1 324/112/1
f 325/113/1 326/115/1 327/116/1 328/114/1
f 329/115/1 330/117/1 331/118/1 332/116/1
f 333/61/1 334/62/1 335/30/1 336/29/1
f 337/119/1 338/120/1 339/98/1 340/97/1
f 341/41/1 342/42/1 343/43/1 344/44/1
f 345/42/1 346/45/1 347/46/1 348/43/1
f 349/45/1 350/47/1 351/48/1 352/46/1
f 353/47/1 354/49/1 355/50/1 356/48/1
f 357/49/1 358/51/1 359/52/1 360/50/1
f 361/51/1 362/53/1 363/54/1 364/52/1
f 365/53/1 366/55/1 367/56/1 368/54/1
f 369/55/1 370/57/1 371/58/1 372/56/1
f 373/57/1 374/59/1 375/60/1 376/58/1
f 377/75/1 378/76/1 379/62/1 380/61/1
f 381/77/1 382/78/1 383/64/1 384/63/1
f 385/65/1 386/66/1 387/42/1 388/41/1
f 389/66/1 390/67/1 391/45/1 392/42/1
f 393/67/1 394/68/1 395/47/1 396/45/1
f 397/68/1 398/69/1 399/49/1 400/47/1
f 401/69/1 402/70/1 403/51/1 404/49/1
f 405/70/1 406/71/1 407/53/1 408/51/1
f 409/71/1 410/72/1 411/55/1 412/53/1
f 413/72/1 414/73/1 415/57/1 416/55/1
f 417/73/1 418/74/1 419/59/1 420/57/1
f 421/89/1 422/90/1 423/76/1 424/75/1
f 425/121/1 426/122/1 427/123/1 428/124/1
f 429/122/1 430/125/1 431/126/1 432/123/1
f 433/125/1 434/127/1 435/128/1 436/126/1
f 437/127/1 438/129/1 439/130/1 440/128/1
f 441/91/1 442/92/1 443/78/1 444/77/1
f 445/79/1 446/80/1 447/66/1 448/65/1
f 449/80/1 450/81/1 451/67/1 452/66/1
f 453/81/1 454/82/1 455/68/1 456/67/1
f 457/82/1 458/83/1 459/69/1 460/68/1
f 461/83/1 462/84/1 463/70/1 464/69/1
f 465/84/1 466/85/1 467/71/1 468/70/1
f 469/85/1 470/86/1 471/72/1 472/71/1
f 473/86/1 474/87/1 475/73/1 476/72/1
f 477/87/1 478/88/1 479/74/1 480/73/1
f 481/93/1 482/94/1 483/90/1 484/89/1
f 485/131/1 486/132/1 487/133/1 488/134/1
f 489/135/1 490/136/1 491/122/1 492/121/1
f 493/136/1 494/137/1 495/125/1 496/122/1
f 497/137/1 498/138/1 499/127/1 500/125/1
f 501/138/1 502/139/1 503/129/1 504/127/1
f 505/95/1 506/96/1 507/92/1 508/91/1
f 509/9/1 510/12/1 511/80/1 512/79/1
f 513/12/1 514/14/1 515/81/1 516/80/1
f 517/14/1 518/16/1 519/82/1 520/81/1
f 521/16/1 522/18/1 523/83/1 524/82/1
f 525/18/1 526/20/1 527/84/1 528/83/1
f 529/20/1 530/22/1 531/85/1 532/84/1
f 533/22/1 534/24/1 535/86/1 536/85/1
f 537/24/1 538/26/1 539/87/1 540/86/1
f 541/26/1 542/28/1 543/88/1 544/87/1
f 545/75/1 546/76/1 547/62/1 548/61/1
f 549/140/1 550/141/1 551/132/1 552/131/1
f 553/142/1 554/143/1 555/136/1 556/135/1
f 557/143/1 558/144/1 559/137/1 560/136/1
f 561/144/1 562/145/1 563/138/1 564/137/1
f 565/145/1 566/146/1 567/139/1 568/138/1
f 569/97/1 570/98/1 571/96/1 572/95/1
f 573/8/1 574/11/1 575/12/1 576/9/1
f 577/11/1 578/13/1 579/14/1 580/12/1
f 581/13/1 582/15/1 583/16/1 584/14/1
f 585/15/1 586/17/1 587/18/1 588/16/1
f 589/17/1 590/19/1 591/20/1 592/18/1
f 593/19/1 594/21/1 595/22/1 596/20/1
f 597/21/1 598/23/1 599/24/1 600/22/1
f 601/23/1 602/25/1 603/26/1 604/24/1
f 605/25/1 606/27/1 607/28/1 608/26/1
f 609/89/1 610/90/1 611/76/1 612/75/1
f 613/147/1 614/148/1 615/141/1 616/140/1
f 617/149/1 618/150/1 619/143/1 620/142/1
f 621/150/1 622/151/1 623/144/1 624/143/1
f 625/151/1 626/152/1 627/145/1 628/144/1
f 629/152/1 630/153/1 631/146/1 632/145/1
f 633/119/1 634/120/1 635/98/1 636/97/1
f 637/64/1 638/154/1 639/155/1 640/38/1
f 641/154/1 642/156/1 643/157/1 644/155/1
f 645/156/1 646/158/1 647/159/1 648/157/1
f 649/158/1 650/160/1 651/161/1 652/159/1
f 653/160/1 654/162/1 655/163/1 656/161/1
f 657/162/1 658/164/1 659/165/1 660/163/1
f 661/164/1 662/166/1 663/167/1 664/165/1
f 665/166/1 666/168/1 667/169/1 668/167/1
f 669/168/1 670/29/1 671/32/1 672/169/1
f 673/93/1 674/94/1 675/90/1 676/89/1
f 677/170/1 678/171/1 679/148/1 680/147/1
f 681/172/1 682/173/1 683/150/1 684/149/1
f 685/173/1 686/174/1 687/151/1 688/150/1
f 689/174/1 690/175/1 691/152/1 692/151/1
f 693/175/1 694/176/1 695/153/1 696/152/1
f 697/77/1 698/78/1 699/64/1 700/63/1
f 701/78/1 702/177/1 703/154/1 704/64/1
f 705/177/1 706/178/1 707/156/1 708/154/1
f 709/178/1 710/179/1 711/158/1 712/156/1
f 713/179/1 714/180/1 715/160/1 716/158/1
f 717/180/1 718/181/1 719/162/1 720/160/1
f 721/181/1 722/182/1 723/164/1 724/162/1
f 725/182/1 726/183/1 727/166/1 728/164/1
f 729/183/1 730/184/1 731/168/1 732/166/1
f 733/184/1 734/61/1 735/29/1 736/168/1
f 737/61/1 738/62/1 739/30/1 740/29/1
f 741/185/1 742/186/1 743/171/1 744/170/1
f 745/187/1 746/188/1 747/173/1 748/172/1
f 749/188/1 750/189/1 751/174/1 752/173/1
f 753/189/1 754/190/1 755/175/1 756/174/1
f 757/190/1 758/191/1 759/176/1 760/175/1
f 761/91/1 762/92/1 763/78/1 764/77/1
f 765/92/1 766/192/1 767/177/1 768/78/1
f 769/192/1 770/193/1 771/178/1 772/177/1
f 773/193/1 774/194/1 775/179/1 776/178/1
f 777/194/1 778/195/1 779/180/1 780/179/1
f 781/195/1 782/196/1 783/181/1 784/180/1
f 785/196/1 786/197/1 787/182/1 788/181/1
f 789/197/1 790/198/1 791/183/1 792/182/1
f 793/198/1 794/199/1 795/184/1 796/183/1
f 797/199/1 798/75/1 799/61/1 800/184/1
f 801/75/1 802/76/1 803/62/1 804/61/1
f 805/200/1 806/201/1 807/186/1 808/185/1
f 809/202/1 810/203/1 811/188/1 812/187/1
f 813/203/1 814/204/1 815/189/1 816/188/1
f 817/204/1 818/205/1 819/190/1 820/189/1
f 821/205/1 822/206/1 823/191/1 824/190/1
f 825/95/1 826/96/1 827/92/1 828/91/1
f 829/96/1 830/207/1 831/192/1 832/92/1
f 833/207/1 834/208/1 835/193/1 836/192/1
f 837/208/1 838/209/1 839/194/1 840/193/1
f 841/209/1 842/210/1 843/195/1 844/194/1
f 845/210/1 846/211/1 847/196/1 848/195/1
f 849/211/1 850/212/1 851/197/1 852/196/1
f 853/212/1 854/213/1 855/198/1 856/197/1
f 857/213/1 858/214/1 859/199/1 860/198/1
f 861/214/1 862/89/1 863/75/1 864/199/1
f 865/89/1 866/90/1 867/76/1 868/75/1
f 869/215/1 870/216/1 871/201/1 872/200/1

