# Tiled2Unity generated file. Do not modify by hand.
# Wavefront file for 'Map1_mesh_0291.obj'

# Vertices (Count = 28)
v -16 -112 0
v -32 -112 0
v -32 -96 0
v -16 -96 0
v -48 -112 0
v -64 -112 0
v -64 -96 0
v -48 -96 0
v -112 -112 0
v -128 -112 0
v -128 -96 0
v -112 -96 0
v -176 -112 0
v -192 -112 0
v -192 -96 0
v -176 -96 0
v -224 -112 0
v -240 -112 0
v -240 -96 0
v -224 -96 0
v -128 -128 0
v -144 -128 0
v -144 -112 0
v -128 -112 0
v -160 -128 0
v -176 -128 0
v -176 -112 0
v -160 -112 0

# Texture cooridinates (Count = 8)
vt 0.04 0.8
vt 0.08 0.8
vt 0.08 0.84
vt 0.04 0.84
vt 0.12 0.8
vt 0.16 0.8
vt 0.16 0.84
vt 0.12 0.84

# Normal
vn 0 0 -1

# Mesh description
g Map1_mesh_0291

# Faces
f 1/1/1 2/2/1 3/3/1 4/4/1
f 5/5/1 6/6/1 7/7/1 8/8/1
f 9/1/1 10/2/1 11/3/1 12/4/1
f 13/5/1 14/6/1 15/7/1 16/8/1
f 17/1/1 18/2/1 19/3/1 20/4/1
f 21/1/1 22/2/1 23/3/1 24/4/1
f 25/5/1 26/6/1 27/7/1 28/8/1

