# Tiled2Unity generated file. Do not modify by hand.
# Wavefront file for 'Map1_mesh_0211.obj'

# Vertices (Count = 92)
v -32 -144 0
v -48 -144 0
v -48 -128 0
v -32 -128 0
v -144 -144 0
v -160 -144 0
v -160 -128 0
v -144 -128 0
v -240 -144 0
v -256 -144 0
v -256 -128 0
v -240 -128 0
v -16 -160 0
v -32 -160 0
v -32 -144 0
v -16 -144 0
v -144 -160 0
v -160 -160 0
v -160 -144 0
v -144 -144 0
v -16 -176 0
v -32 -176 0
v -32 -160 0
v -16 -160 0
v -16 -192 0
v -32 -192 0
v -32 -176 0
v -16 -176 0
v -32 -192 0
v -48 -192 0
v -48 -176 0
v -32 -176 0
v -48 -192 0
v -64 -192 0
v -64 -176 0
v -48 -176 0
v -64 -192 0
v -80 -192 0
v -80 -176 0
v -64 -176 0
v -80 -192 0
v -96 -192 0
v -96 -176 0
v -80 -176 0
v -96 -192 0
v -112 -192 0
v -112 -176 0
v -96 -176 0
v -112 -192 0
v -128 -192 0
v -128 -176 0
v -112 -176 0
v -16 -208 0
v -32 -208 0
v -32 -192 0
v -16 -192 0
v -80 -208 0
v -96 -208 0
v -96 -192 0
v -80 -192 0
v -96 -208 0
v -112 -208 0
v -112 -192 0
v -96 -192 0
v -112 -208 0
v -128 -208 0
v -128 -192 0
v -112 -192 0
v -16 -224 0
v -32 -224 0
v -32 -208 0
v -16 -208 0
v -96 -224 0
v -112 -224 0
v -112 -208 0
v -96 -208 0
v -112 -224 0
v -128 -224 0
v -128 -208 0
v -112 -208 0
v -16 -240 0
v -32 -240 0
v -32 -224 0
v -16 -224 0
v -16 -256 0
v -32 -256 0
v -32 -240 0
v -16 -240 0
v -160 -256 0
v -176 -256 0
v -176 -240 0
v -160 -240 0

# Texture cooridinates (Count = 41)
vt 0.4 0.88
vt 0.44 0.88
vt 0.44 0.92
vt 0.4 0.92
vt 0.44 0.96
vt 0.4 0.96
vt 0.24 0.88
vt 0.28 0.88
vt 0.28 0.92
vt 0.24 0.92
vt 0.4 0.8
vt 0.44 0.8
vt 0.44 0.84
vt 0.4 0.84
vt 0.36 0.84
vt 0.36 0.88
vt 0.32 0.88
vt 0.36 0.92
vt 0.32 0.92
vt 0.52 0.76
vt 0.48 0.76
vt 0.48 0.8
vt 0.52 0.8
vt 0.44 0.76
vt 0.2 0.52
vt 0.24 0.52
vt 0.24 0.56
vt 0.2 0.56
vt 0.28 0.52
vt 0.28 0.56
vt 0.48 0.84
vt 0.2 0.48
vt 0.24 0.48
vt 0.28 0.48
vt 0.2 0.44
vt 0.24 0.44
vt 0.28 0.44
vt 0.52 0.88
vt 0.56 0.88
vt 0.56 0.92
vt 0.52 0.92

# Normal
vn 0 0 -1

# Mesh description
g Map1_mesh_0211

# Faces
f 1/1/1 2/2/1 3/3/1 4/4/1
f 5/4/1 6/3/1 7/5/1 8/6/1
f 9/1/1 10/2/1 11/3/1 12/4/1
f 13/7/1 14/8/1 15/9/1 16/10/1
f 17/1/1 18/2/1 19/3/1 20/4/1
f 21/11/1 22/12/1 23/13/1 24/14/1
f 25/15/1 26/14/1 27/1/1 28/16/1
f 29/17/1 30/16/1 31/18/1 32/19/1
f 33/17/1 34/16/1 35/18/1 36/19/1
f 37/20/1 38/21/1 39/22/1 40/23/1
f 41/21/1 42/24/1 43/12/1 44/22/1
f 45/25/1 46/26/1 47/27/1 48/28/1
f 49/26/1 50/29/1 51/30/1 52/27/1
f 53/11/1 54/12/1 55/13/1 56/14/1
f 57/12/1 58/22/1 59/31/1 60/13/1
f 61/32/1 62/33/1 63/26/1 64/25/1
f 65/33/1 66/34/1 67/29/1 68/26/1
f 69/11/1 70/12/1 71/13/1 72/14/1
f 73/35/1 74/36/1 75/33/1 76/32/1
f 77/36/1 78/37/1 79/34/1 80/33/1
f 81/11/1 82/12/1 83/13/1 84/14/1
f 85/11/1 86/12/1 87/13/1 88/14/1
f 89/38/1 90/39/1 91/40/1 92/41/1

