# Tiled2Unity generated file. Do not modify by hand.
# Wavefront file for 'Map1_mesh_0239.obj'

# Vertices (Count = 140)
v 0 -16 0
v -16 -16 0
v -16 0 0
v 0 0 0
v -16 -16 0
v -32 -16 0
v -32 0 0
v -16 0 0
v -32 -16 0
v -48 -16 0
v -48 0 0
v -32 0 0
v -48 -16 0
v -64 -16 0
v -64 0 0
v -48 0 0
v -64 -16 0
v -80 -16 0
v -80 0 0
v -64 0 0
v -80 -16 0
v -96 -16 0
v -96 0 0
v -80 0 0
v -96 -16 0
v -112 -16 0
v -112 0 0
v -96 0 0
v -112 -16 0
v -128 -16 0
v -128 0 0
v -112 0 0
v -128 -16 0
v -144 -16 0
v -144 0 0
v -128 0 0
v -144 -16 0
v -160 -16 0
v -160 0 0
v -144 0 0
v -160 -16 0
v -176 -16 0
v -176 0 0
v -160 0 0
v -176 -16 0
v -192 -16 0
v -192 0 0
v -176 0 0
v -208 -16 0
v -224 -16 0
v -224 0 0
v -208 0 0
v -224 -16 0
v -240 -16 0
v -240 0 0
v -224 0 0
v -240 -16 0
v -256 -16 0
v -256 0 0
v -240 0 0
v 0 -32 0
v -16 -32 0
v -16 -16 0
v 0 -16 0
v -16 -32 0
v -32 -32 0
v -32 -16 0
v -16 -16 0
v -32 -32 0
v -48 -32 0
v -48 -16 0
v -32 -16 0
v -48 -32 0
v -64 -32 0
v -64 -16 0
v -48 -16 0
v -64 -32 0
v -80 -32 0
v -80 -16 0
v -64 -16 0
v -80 -32 0
v -96 -32 0
v -96 -16 0
v -80 -16 0
v -96 -32 0
v -112 -32 0
v -112 -16 0
v -96 -16 0
v -112 -32 0
v -128 -32 0
v -128 -16 0
v -112 -16 0
v -128 -32 0
v -144 -32 0
v -144 -16 0
v -128 -16 0
v -144 -32 0
v -160 -32 0
v -160 -16 0
v -144 -16 0
v -160 -32 0
v -176 -32 0
v -176 -16 0
v -160 -16 0
v -176 -32 0
v -192 -32 0
v -192 -16 0
v -176 -16 0
v -192 -32 0
v -208 -32 0
v -208 -16 0
v -192 -16 0
v -208 -32 0
v -224 -32 0
v -224 -16 0
v -208 -16 0
v -224 -32 0
v -240 -32 0
v -240 -16 0
v -224 -16 0
v -240 -32 0
v -256 -32 0
v -256 -16 0
v -240 -16 0
v -240 -208 0
v -256 -208 0
v -256 -192 0
v -240 -192 0
v -240 -224 0
v -256 -224 0
v -256 -208 0
v -240 -208 0
v -240 -240 0
v -256 -240 0
v -256 -224 0
v -240 -224 0
v -240 -256 0
v -256 -256 0
v -256 -240 0
v -240 -240 0

# Texture cooridinates (Count = 34)
vt 0.1474132 0.9117647
vt 0.1587527 0.9117647
vt 0.1587527 0.9411765
vt 0.1474132 0.9411765
vt 0.2041106 0.8823529
vt 0.21545 0.8823529
vt 0.21545 0.9117647
vt 0.2041106 0.9117647
vt 0.2267895 0.8823529
vt 0.2267895 0.9117647
vt 0.238129 0.8823529
vt 0.238129 0.9117647
vt 0.1133948 0.8823529
vt 0.1247342 0.8823529
vt 0.1247342 0.9117647
vt 0.1133948 0.9117647
vt 0.1360737 0.8823529
vt 0.1360737 0.9117647
vt 0.1474132 0.8823529
vt 0.1587527 0.8823529
vt 0.1700921 0.8823529
vt 0.1700921 0.9117647
vt 0.1360737 0.9411765
vt 0.1247342 0.9411765
vt 0.1814316 0.5588235
vt 0.1927711 0.5588235
vt 0.1927711 0.5882353
vt 0.1814316 0.5882353
vt 0.1814316 0.5294118
vt 0.1927711 0.5294118
vt 0.1814316 0.5
vt 0.1927711 0.5
vt 0.1814316 0.4705882
vt 0.1927711 0.4705882

# Normal
vn 0 0 -1

# Mesh description
g Map1_mesh_0239

# Faces
f 1/1/1 2/2/1 3/3/1 4/4/1
f 5/5/1 6/6/1 7/7/1 8/8/1
f 9/6/1 10/9/1 11/10/1 12/7/1
f 13/9/1 14/11/1 15/12/1 16/10/1
f 17/13/1 18/14/1 19/15/1 20/16/1
f 21/14/1 22/17/1 23/18/1 24/15/1
f 25/17/1 26/19/1 27/1/1 28/18/1
f 29/19/1 30/20/1 31/2/1 32/1/1
f 33/20/1 34/21/1 35/22/1 36/2/1
f 37/15/1 38/18/1 39/23/1 40/24/1
f 41/18/1 42/1/1 43/4/1 44/23/1
f 45/1/1 46/2/1 47/3/1 48/4/1
f 49/6/1 50/9/1 51/10/1 52/7/1
f 53/9/1 54/11/1 55/12/1 56/10/1
f 57/13/1 58/14/1 59/15/1 60/16/1
f 61/15/1 62/18/1 63/23/1 64/24/1
f 65/18/1 66/1/1 67/4/1 68/23/1
f 69/1/1 70/2/1 71/3/1 72/4/1
f 73/5/1 74/6/1 75/7/1 76/8/1
f 77/6/1 78/9/1 79/10/1 80/7/1
f 81/9/1 82/11/1 83/12/1 84/10/1
f 85/13/1 86/14/1 87/15/1 88/16/1
f 89/14/1 90/17/1 91/18/1 92/15/1
f 93/17/1 94/19/1 95/1/1 96/18/1
f 97/19/1 98/20/1 99/2/1 100/1/1
f 101/20/1 102/21/1 103/22/1 104/2/1
f 105/15/1 106/18/1 107/23/1 108/24/1
f 109/18/1 110/1/1 111/4/1 112/23/1
f 113/1/1 114/2/1 115/3/1 116/4/1
f 117/5/1 118/6/1 119/7/1 120/8/1
f 121/6/1 122/9/1 123/10/1 124/7/1
f 125/25/1 126/26/1 127/27/1 128/28/1
f 129/29/1 130/30/1 131/26/1 132/25/1
f 133/31/1 134/32/1 135/30/1 136/29/1
f 137/33/1 138/34/1 139/32/1 140/31/1

