# Tiled2Unity generated file. Do not modify by hand.
# Wavefront file for 'Map1_mesh_0308.obj'

# Vertices (Count = 44)
v -160 -16 0
v -176 -16 0
v -176 0 0
v -160 0 0
v -192 -16 0
v -208 -16 0
v -208 0 0
v -192 0 0
v -96 -160 0
v -112 -160 0
v -112 -144 0
v -96 -144 0
v -144 -160 0
v -160 -160 0
v -160 -144 0
v -144 -144 0
v -16 -176 0
v -32 -176 0
v -32 -160 0
v -16 -160 0
v -16 -192 0
v -32 -192 0
v -32 -176 0
v -16 -176 0
v -16 -208 0
v -32 -208 0
v -32 -192 0
v -16 -192 0
v 0 -224 0
v -16 -224 0
v -16 -208 0
v 0 -208 0
v -16 -224 0
v -32 -224 0
v -32 -208 0
v -16 -208 0
v -16 -240 0
v -32 -240 0
v -32 -224 0
v -16 -224 0
v -16 -256 0
v -32 -256 0
v -32 -240 0
v -16 -240 0

# Texture cooridinates (Count = 23)
vt 0.04 0.8
vt 0.08 0.8
vt 0.08 0.84
vt 0.04 0.84
vt 0.12 0.8
vt 0.16 0.8
vt 0.16 0.84
vt 0.12 0.84
vt 0.04 0.96
vt 0.08 0.96
vt 0.08 1
vt 0.04 1
vt 0.16 0.92
vt 0.2 0.92
vt 0.2 0.96
vt 0.16 0.96
vt 0 0.88
vt 0.04 0.88
vt 0.04 0.92
vt 0 0.92
vt 0.12 0.96
vt 0.16 1
vt 0.12 1

# Normal
vn 0 0 -1

# Mesh description
g Map1_mesh_0308

# Faces
f 1/1/1 2/2/1 3/3/1 4/4/1
f 5/5/1 6/6/1 7/7/1 8/8/1
f 9/9/1 10/10/1 11/11/1 12/12/1
f 13/13/1 14/14/1 15/15/1 16/16/1
f 17/9/1 18/10/1 19/11/1 20/12/1
f 21/17/1 22/18/1 23/19/1 24/20/1
f 25/17/1 26/18/1 27/19/1 28/20/1
f 29/21/1 30/16/1 31/22/1 32/23/1
f 33/17/1 34/18/1 35/19/1 36/20/1
f 37/17/1 38/18/1 39/19/1 40/20/1
f 41/17/1 42/18/1 43/19/1 44/20/1

