# Tiled2Unity generated file. Do not modify by hand.
# Wavefront file for 'Map1_mesh_0266.obj'

# Vertices (Count = 12)
v 0 -224 0
v -16 -224 0
v -16 -208 0
v 0 -208 0
v 0 -240 0
v -16 -240 0
v -16 -224 0
v 0 -224 0
v 0 -256 0
v -16 -256 0
v -16 -240 0
v 0 -240 0

# Texture cooridinates (Count = 8)
vt 0.24 0.52
vt 0.28 0.52
vt 0.28 0.56
vt 0.24 0.56
vt 0.24 0.48
vt 0.28 0.48
vt 0.24 0.44
vt 0.28 0.44

# Normal
vn 0 0 -1

# Mesh description
g Map1_mesh_0266

# Faces
f 1/1/1 2/2/1 3/3/1 4/4/1
f 5/5/1 6/6/1 7/2/1 8/1/1
f 9/7/1 10/8/1 11/6/1 12/5/1

