# Tiled2Unity generated file. Do not modify by hand.
# Wavefront file for 'Map1_mesh_0301.obj'

# Vertices (Count = 136)
v -48 -16 0
v -64 -16 0
v -64 0 0
v -48 0 0
v -64 -16 0
v -80 -16 0
v -80 0 0
v -64 0 0
v -80 -16 0
v -96 -16 0
v -96 0 0
v -80 0 0
v -96 -16 0
v -112 -16 0
v -112 0 0
v -96 0 0
v -112 -16 0
v -128 -16 0
v -128 0 0
v -112 0 0
v -128 -16 0
v -144 -16 0
v -144 0 0
v -128 0 0
v -144 -16 0
v -160 -16 0
v -160 0 0
v -144 0 0
v -160 -16 0
v -176 -16 0
v -176 0 0
v -160 0 0
v -176 -16 0
v -192 -16 0
v -192 0 0
v -176 0 0
v -192 -16 0
v -208 -16 0
v -208 0 0
v -192 0 0
v -208 -16 0
v -224 -16 0
v -224 0 0
v -208 0 0
v -224 -16 0
v -240 -16 0
v -240 0 0
v -224 0 0
v -240 -16 0
v -256 -16 0
v -256 0 0
v -240 0 0
v -48 -32 0
v -64 -32 0
v -64 -16 0
v -48 -16 0
v -48 -48 0
v -64 -48 0
v -64 -32 0
v -48 -32 0
v -48 -64 0
v -64 -64 0
v -64 -48 0
v -48 -48 0
v -48 -80 0
v -64 -80 0
v -64 -64 0
v -48 -64 0
v -48 -96 0
v -64 -96 0
v -64 -80 0
v -48 -80 0
v -48 -112 0
v -64 -112 0
v -64 -96 0
v -48 -96 0
v -48 -128 0
v -64 -128 0
v -64 -112 0
v -48 -112 0
v -48 -144 0
v -64 -144 0
v -64 -128 0
v -48 -128 0
v -48 -160 0
v -64 -160 0
v -64 -144 0
v -48 -144 0
v -64 -160 0
v -80 -160 0
v -80 -144 0
v -64 -144 0
v -80 -160 0
v -96 -160 0
v -96 -144 0
v -80 -144 0
v -96 -160 0
v -112 -160 0
v -112 -144 0
v -96 -144 0
v -112 -160 0
v -128 -160 0
v -128 -144 0
v -112 -144 0
v -128 -160 0
v -144 -160 0
v -144 -144 0
v -128 -144 0
v -144 -160 0
v -160 -160 0
v -160 -144 0
v -144 -144 0
v -160 -160 0
v -176 -160 0
v -176 -144 0
v -160 -144 0
v -176 -160 0
v -192 -160 0
v -192 -144 0
v -176 -144 0
v -192 -160 0
v -208 -160 0
v -208 -144 0
v -192 -144 0
v -208 -160 0
v -224 -160 0
v -224 -144 0
v -208 -144 0
v -224 -160 0
v -240 -160 0
v -240 -144 0
v -224 -144 0
v -240 -160 0
v -256 -160 0
v -256 -144 0
v -240 -144 0

# Texture cooridinates (Count = 16)
vt 0.12 0.28
vt 0.16 0.28
vt 0.16 0.32
vt 0.12 0.32
vt 0.08 0.24
vt 0.12 0.24
vt 0.08 0.28
vt 0.2 0.32
vt 0.2 0.36
vt 0.16 0.36
vt 0.12 0.36
vt 0.16 0.4
vt 0.12 0.4
vt 0.08 0.4
vt 0.12 0.44
vt 0.08 0.44

# Normal
vn 0 0 -1

# Mesh description
g Map1_mesh_0301

# Faces
f 1/1/1 2/2/1 3/3/1 4/4/1
f 5/5/1 6/6/1 7/1/1 8/7/1
f 9/5/1 10/6/1 11/1/1 12/7/1
f 13/5/1 14/6/1 15/1/1 16/7/1
f 17/5/1 18/6/1 19/1/1 20/7/1
f 21/5/1 22/6/1 23/1/1 24/7/1
f 25/5/1 26/6/1 27/1/1 28/7/1
f 29/5/1 30/6/1 31/1/1 32/7/1
f 33/5/1 34/6/1 35/1/1 36/7/1
f 37/5/1 38/6/1 39/1/1 40/7/1
f 41/5/1 42/6/1 43/1/1 44/7/1
f 45/5/1 46/6/1 47/1/1 48/7/1
f 49/5/1 50/6/1 51/1/1 52/7/1
f 53/3/1 54/8/1 55/9/1 56/10/1
f 57/3/1 58/8/1 59/9/1 60/10/1
f 61/3/1 62/8/1 63/9/1 64/10/1
f 65/3/1 66/8/1 67/9/1 68/10/1
f 69/3/1 70/8/1 71/9/1 72/10/1
f 73/3/1 74/8/1 75/9/1 76/10/1
f 77/3/1 78/8/1 79/9/1 80/10/1
f 81/3/1 82/8/1 83/9/1 84/10/1
f 85/11/1 86/10/1 87/12/1 88/13/1
f 89/14/1 90/13/1 91/15/1 92/16/1
f 93/14/1 94/13/1 95/15/1 96/16/1
f 97/14/1 98/13/1 99/15/1 100/16/1
f 101/14/1 102/13/1 103/15/1 104/16/1
f 105/14/1 106/13/1 107/15/1 108/16/1
f 109/14/1 110/13/1 111/15/1 112/16/1
f 113/14/1 114/13/1 115/15/1 116/16/1
f 117/14/1 118/13/1 119/15/1 120/16/1
f 121/14/1 122/13/1 123/15/1 124/16/1
f 125/14/1 126/13/1 127/15/1 128/16/1
f 129/14/1 130/13/1 131/15/1 132/16/1
f 133/14/1 134/13/1 135/15/1 136/16/1

