# Tiled2Unity generated file. Do not modify by hand.
# Wavefront file for 'Map1_mesh_0329.obj'

# Vertices (Count = 32)
v -16 -16 0
v -32 -16 0
v -32 0 0
v -16 0 0
v -48 -16 0
v -64 -16 0
v -64 0 0
v -48 0 0
v -112 -16 0
v -128 -16 0
v -128 0 0
v -112 0 0
v -176 -16 0
v -192 -16 0
v -192 0 0
v -176 0 0
v -240 -16 0
v -256 -16 0
v -256 0 0
v -240 0 0
v -128 -32 0
v -144 -32 0
v -144 -16 0
v -128 -16 0
v -160 -32 0
v -176 -32 0
v -176 -16 0
v -160 -16 0
v 0 -64 0
v -16 -64 0
v -16 -48 0
v 0 -48 0

# Texture cooridinates (Count = 12)
vt 0.04 0.8
vt 0.08 0.8
vt 0.08 0.84
vt 0.04 0.84
vt 0.12 0.8
vt 0.16 0.8
vt 0.16 0.84
vt 0.12 0.84
vt 0.12 0.96
vt 0.16 0.96
vt 0.16 1
vt 0.12 1

# Normal
vn 0 0 -1

# Mesh description
g Map1_mesh_0329

# Faces
f 1/1/1 2/2/1 3/3/1 4/4/1
f 5/5/1 6/6/1 7/7/1 8/8/1
f 9/1/1 10/2/1 11/3/1 12/4/1
f 13/5/1 14/6/1 15/7/1 16/8/1
f 17/1/1 18/2/1 19/3/1 20/4/1
f 21/1/1 22/2/1 23/3/1 24/4/1
f 25/5/1 26/6/1 27/7/1 28/8/1
f 29/9/1 30/10/1 31/11/1 32/12/1

