# Tiled2Unity generated file. Do not modify by hand.
# Wavefront file for 'Map1_mesh_0339.obj'

# Vertices (Count = 76)
v 0 -48 0
v -16 -48 0
v -16 -32 0
v 0 -32 0
v -16 -48 0
v -32 -48 0
v -32 -32 0
v -16 -32 0
v -32 -48 0
v -48 -48 0
v -48 -32 0
v -32 -32 0
v -48 -48 0
v -64 -48 0
v -64 -32 0
v -48 -32 0
v -64 -48 0
v -80 -48 0
v -80 -32 0
v -64 -32 0
v -80 -48 0
v -96 -48 0
v -96 -32 0
v -80 -32 0
v -96 -48 0
v -112 -48 0
v -112 -32 0
v -96 -32 0
v -112 -48 0
v -128 -48 0
v -128 -32 0
v -112 -32 0
v -128 -48 0
v -144 -48 0
v -144 -32 0
v -128 -32 0
v -144 -48 0
v -160 -48 0
v -160 -32 0
v -144 -32 0
v -160 -48 0
v -176 -48 0
v -176 -32 0
v -160 -32 0
v -176 -48 0
v -192 -48 0
v -192 -32 0
v -176 -32 0
v -192 -48 0
v -208 -48 0
v -208 -32 0
v -192 -32 0
v -64 -64 0
v -80 -64 0
v -80 -48 0
v -64 -48 0
v -144 -64 0
v -160 -64 0
v -160 -48 0
v -144 -48 0
v -64 -80 0
v -80 -80 0
v -80 -64 0
v -64 -64 0
v -144 -80 0
v -160 -80 0
v -160 -64 0
v -144 -64 0
v -64 -96 0
v -80 -96 0
v -80 -80 0
v -64 -80 0
v -144 -96 0
v -160 -96 0
v -160 -80 0
v -144 -80 0

# Texture cooridinates (Count = 40)
vt 0.6803685 0.08823532
vt 0.691708 0.08823532
vt 0.691708 0.1176471
vt 0.6803685 0.1176471
vt 0.7030475 0.08823532
vt 0.7030475 0.1176471
vt 0.7143869 0.08823532
vt 0.7143869 0.1176471
vt 0.7257264 0.08823532
vt 0.7257264 0.1176471
vt 0.7370659 0.08823532
vt 0.7370659 0.1176471
vt 0.7484054 0.08823532
vt 0.7484054 0.1176471
vt 0.7597449 0.08823532
vt 0.7597449 0.1176471
vt 0.7710843 0.08823532
vt 0.7710843 0.1176471
vt 0.7824238 0.08823532
vt 0.7824238 0.1176471
vt 0.7937633 0.08823532
vt 0.7937633 0.1176471
vt 0.8051028 0.08823532
vt 0.8051028 0.1176471
vt 0.8164423 0.08823532
vt 0.8164423 0.1176471
vt 0.8277817 0.08823532
vt 0.8277817 0.1176471
vt 0.7257264 0.05882353
vt 0.7370659 0.05882353
vt 0.7824238 0.05882353
vt 0.7937633 0.05882353
vt 0.7257264 0.02941179
vt 0.7370659 0.02941179
vt 0.7824238 0.02941179
vt 0.7937633 0.02941179
vt 0.7257264 0
vt 0.7370659 0
vt 0.7824238 0
vt 0.7937633 0

# Normal
vn 0 0 -1

# Mesh description
g Map1_mesh_0339

# Faces
f 1/1/1 2/2/1 3/3/1 4/4/1
f 5/2/1 6/5/1 7/6/1 8/3/1
f 9/5/1 10/7/1 11/8/1 12/6/1
f 13/7/1 14/9/1 15/10/1 16/8/1
f 17/9/1 18/11/1 19/12/1 20/10/1
f 21/11/1 22/13/1 23/14/1 24/12/1
f 25/13/1 26/15/1 27/16/1 28/14/1
f 29/15/1 30/17/1 31/18/1 32/16/1
f 33/17/1 34/19/1 35/20/1 36/18/1
f 37/19/1 38/21/1 39/22/1 40/20/1
f 41/21/1 42/23/1 43/24/1 44/22/1
f 45/23/1 46/25/1 47/26/1 48/24/1
f 49/25/1 50/27/1 51/28/1 52/26/1
f 53/29/1 54/30/1 55/11/1 56/9/1
f 57/31/1 58/32/1 59/21/1 60/19/1
f 61/33/1 62/34/1 63/30/1 64/29/1
f 65/35/1 66/36/1 67/32/1 68/31/1
f 69/37/1 70/38/1 71/34/1 72/33/1
f 73/39/1 74/40/1 75/36/1 76/35/1

