# Tiled2Unity generated file. Do not modify by hand.
# Wavefront file for 'Map1_mesh_0209.obj'

# Vertices (Count = 220)
v 0 -144 0
v -16 -144 0
v -16 -128 0
v 0 -128 0
v -64 -144 0
v -80 -144 0
v -80 -128 0
v -64 -128 0
v -96 -144 0
v -112 -144 0
v -112 -128 0
v -96 -128 0
v -112 -144 0
v -128 -144 0
v -128 -128 0
v -112 -128 0
v -128 -144 0
v -144 -144 0
v -144 -128 0
v -128 -128 0
v -144 -144 0
v -160 -144 0
v -160 -128 0
v -144 -128 0
v -160 -144 0
v -176 -144 0
v -176 -128 0
v -160 -128 0
v -176 -144 0
v -192 -144 0
v -192 -128 0
v -176 -128 0
v -192 -144 0
v -208 -144 0
v -208 -128 0
v -192 -128 0
v -96 -160 0
v -112 -160 0
v -112 -144 0
v -96 -144 0
v -112 -160 0
v -128 -160 0
v -128 -144 0
v -112 -144 0
v -128 -160 0
v -144 -160 0
v -144 -144 0
v -128 -144 0
v -144 -160 0
v -160 -160 0
v -160 -144 0
v -144 -144 0
v -160 -160 0
v -176 -160 0
v -176 -144 0
v -160 -144 0
v -176 -160 0
v -192 -160 0
v -192 -144 0
v -176 -144 0
v -192 -160 0
v -208 -160 0
v -208 -144 0
v -192 -144 0
v -96 -176 0
v -112 -176 0
v -112 -160 0
v -96 -160 0
v -112 -176 0
v -128 -176 0
v -128 -160 0
v -112 -160 0
v -128 -176 0
v -144 -176 0
v -144 -160 0
v -128 -160 0
v -144 -176 0
v -160 -176 0
v -160 -160 0
v -144 -160 0
v -160 -176 0
v -176 -176 0
v -176 -160 0
v -160 -160 0
v -176 -176 0
v -192 -176 0
v -192 -160 0
v -176 -160 0
v -192 -176 0
v -208 -176 0
v -208 -160 0
v -192 -160 0
v 0 -192 0
v -16 -192 0
v -16 -176 0
v 0 -176 0
v -16 -192 0
v -32 -192 0
v -32 -176 0
v -16 -176 0
v -96 -192 0
v -112 -192 0
v -112 -176 0
v -96 -176 0
v -112 -192 0
v -128 -192 0
v -128 -176 0
v -112 -176 0
v -128 -192 0
v -144 -192 0
v -144 -176 0
v -128 -176 0
v -144 -192 0
v -160 -192 0
v -160 -176 0
v -144 -176 0
v -160 -192 0
v -176 -192 0
v -176 -176 0
v -160 -176 0
v -176 -192 0
v -192 -192 0
v -192 -176 0
v -176 -176 0
v -192 -192 0
v -208 -192 0
v -208 -176 0
v -192 -176 0
v 0 -208 0
v -16 -208 0
v -16 -192 0
v 0 -192 0
v -16 -208 0
v -32 -208 0
v -32 -192 0
v -16 -192 0
v -96 -208 0
v -112 -208 0
v -112 -192 0
v -96 -192 0
v -112 -208 0
v -128 -208 0
v -128 -192 0
v -112 -192 0
v -128 -208 0
v -144 -208 0
v -144 -192 0
v -128 -192 0
v -144 -208 0
v -160 -208 0
v -160 -192 0
v -144 -192 0
v -160 -208 0
v -176 -208 0
v -176 -192 0
v -160 -192 0
v -176 -208 0
v -192 -208 0
v -192 -192 0
v -176 -192 0
v -192 -208 0
v -208 -208 0
v -208 -192 0
v -192 -192 0
v 0 -224 0
v -16 -224 0
v -16 -208 0
v 0 -208 0
v -16 -224 0
v -32 -224 0
v -32 -208 0
v -16 -208 0
v -96 -224 0
v -112 -224 0
v -112 -208 0
v -96 -208 0
v -160 -224 0
v -176 -224 0
v -176 -208 0
v -160 -208 0
v -176 -224 0
v -192 -224 0
v -192 -208 0
v -176 -208 0
v -192 -224 0
v -208 -224 0
v -208 -208 0
v -192 -208 0
v -96 -240 0
v -112 -240 0
v -112 -224 0
v -96 -224 0
v -160 -240 0
v -176 -240 0
v -176 -224 0
v -160 -224 0
v -176 -240 0
v -192 -240 0
v -192 -224 0
v -176 -224 0
v -192 -240 0
v -208 -240 0
v -208 -224 0
v -192 -224 0
v -96 -256 0
v -112 -256 0
v -112 -240 0
v -96 -240 0
v -160 -256 0
v -176 -256 0
v -176 -240 0
v -160 -240 0
v -176 -256 0
v -192 -256 0
v -192 -240 0
v -176 -240 0
v -192 -256 0
v -208 -256 0
v -208 -240 0
v -192 -240 0

# Texture cooridinates (Count = 26)
vt 0.4 0.88
vt 0.44 0.88
vt 0.44 0.92
vt 0.4 0.92
vt 0.76 0.76
vt 0.8 0.76
vt 0.8 0.8
vt 0.76 0.8
vt 0.84 0.76
vt 0.84 0.8
vt 0.88 0.76
vt 0.88 0.8
vt 0.44 0.96
vt 0.4 0.96
vt 0.48 0.68
vt 0.52 0.68
vt 0.52 0.72
vt 0.48 0.72
vt 0.56 0.68
vt 0.56 0.72
vt 0.48 0.64
vt 0.52 0.64
vt 0.56 0.64
vt 0.48 0.6
vt 0.52 0.6
vt 0.56 0.6

# Normal
vn 0 0 -1

# Mesh description
g Map1_mesh_0209

# Faces
f 1/1/1 2/2/1 3/3/1 4/4/1
f 5/1/1 6/2/1 7/3/1 8/4/1
f 9/5/1 10/6/1 11/7/1 12/8/1
f 13/5/1 14/6/1 15/7/1 16/8/1
f 17/6/1 18/9/1 19/10/1 20/7/1
f 21/9/1 22/11/1 23/12/1 24/10/1
f 25/5/1 26/6/1 27/7/1 28/8/1
f 29/4/1 30/3/1 31/13/1 32/14/1
f 33/9/1 34/11/1 35/12/1 36/10/1
f 37/5/1 38/6/1 39/7/1 40/8/1
f 41/5/1 42/6/1 43/7/1 44/8/1
f 45/6/1 46/9/1 47/10/1 48/7/1
f 49/9/1 50/11/1 51/12/1 52/10/1
f 53/5/1 54/6/1 55/7/1 56/8/1
f 57/1/1 58/2/1 59/3/1 60/4/1
f 61/9/1 62/11/1 63/12/1 64/10/1
f 65/5/1 66/6/1 67/7/1 68/8/1
f 69/5/1 70/6/1 71/7/1 72/8/1
f 73/6/1 74/9/1 75/10/1 76/7/1
f 77/9/1 78/11/1 79/12/1 80/10/1
f 81/5/1 82/6/1 83/7/1 84/8/1
f 85/6/1 86/9/1 87/10/1 88/7/1
f 89/9/1 90/11/1 91/12/1 92/10/1
f 93/15/1 94/16/1 95/17/1 96/18/1
f 97/16/1 98/19/1 99/20/1 100/17/1
f 101/5/1 102/6/1 103/7/1 104/8/1
f 105/5/1 106/6/1 107/7/1 108/8/1
f 109/6/1 110/9/1 111/10/1 112/7/1
f 113/9/1 114/11/1 115/12/1 116/10/1
f 117/5/1 118/6/1 119/7/1 120/8/1
f 121/6/1 122/9/1 123/10/1 124/7/1
f 125/9/1 126/11/1 127/12/1 128/10/1
f 129/21/1 130/22/1 131/16/1 132/15/1
f 133/22/1 134/23/1 135/19/1 136/16/1
f 137/5/1 138/6/1 139/7/1 140/8/1
f 141/5/1 142/6/1 143/7/1 144/8/1
f 145/6/1 146/9/1 147/10/1 148/7/1
f 149/9/1 150/11/1 151/12/1 152/10/1
f 153/5/1 154/6/1 155/7/1 156/8/1
f 157/6/1 158/9/1 159/10/1 160/7/1
f 161/9/1 162/11/1 163/12/1 164/10/1
f 165/24/1 166/25/1 167/22/1 168/21/1
f 169/25/1 170/26/1 171/23/1 172/22/1
f 173/5/1 174/6/1 175/7/1 176/8/1
f 177/5/1 178/6/1 179/7/1 180/8/1
f 181/6/1 182/9/1 183/10/1 184/7/1
f 185/9/1 186/11/1 187/12/1 188/10/1
f 189/5/1 190/6/1 191/7/1 192/8/1
f 193/5/1 194/6/1 195/7/1 196/8/1
f 197/6/1 198/9/1 199/10/1 200/7/1
f 201/9/1 202/11/1 203/12/1 204/10/1
f 205/5/1 206/6/1 207/7/1 208/8/1
f 209/5/1 210/6/1 211/7/1 212/8/1
f 213/6/1 214/9/1 215/10/1 216/7/1
f 217/9/1 218/11/1 219/12/1 220/10/1

