# Tiled2Unity generated file. Do not modify by hand.
# Wavefront file for 'Map1_mesh_0255.obj'

# Vertices (Count = 64)
v -16 -16 0
v -32 -16 0
v -32 0 0
v -16 0 0
v -144 -16 0
v -160 -16 0
v -160 0 0
v -144 0 0
v -160 -16 0
v -176 -16 0
v -176 0 0
v -160 0 0
v -176 -16 0
v -192 -16 0
v -192 0 0
v -176 0 0
v -192 -16 0
v -208 -16 0
v -208 0 0
v -192 0 0
v -208 -16 0
v -224 -16 0
v -224 0 0
v -208 0 0
v -224 -16 0
v -240 -16 0
v -240 0 0
v -224 0 0
v -240 -16 0
v -256 -16 0
v -256 0 0
v -240 0 0
v -16 -32 0
v -32 -32 0
v -32 -16 0
v -16 -16 0
v -144 -32 0
v -160 -32 0
v -160 -16 0
v -144 -16 0
v -160 -32 0
v -176 -32 0
v -176 -16 0
v -160 -16 0
v -176 -32 0
v -192 -32 0
v -192 -16 0
v -176 -16 0
v -192 -32 0
v -208 -32 0
v -208 -16 0
v -192 -16 0
v -208 -32 0
v -224 -32 0
v -224 -16 0
v -208 -16 0
v -224 -32 0
v -240 -32 0
v -240 -16 0
v -224 -16 0
v -240 -32 0
v -256 -32 0
v -256 -16 0
v -240 -16 0

# Texture cooridinates (Count = 27)
vt 0.52 0.88
vt 0.56 0.88
vt 0.56 0.92
vt 0.52 0.92
vt 0.84 0.84
vt 0.88 0.84
vt 0.88 0.88
vt 0.84 0.88
vt 0.92 0.84
vt 0.92 0.88
vt 0.68 0.84
vt 0.72 0.84
vt 0.72 0.88
vt 0.68 0.88
vt 0.76 0.84
vt 0.76 0.88
vt 0.8 0.84
vt 0.8 0.88
vt 0.52 0.84
vt 0.56 0.84
vt 0.84 0.8
vt 0.88 0.8
vt 0.92 0.8
vt 0.68 0.8
vt 0.72 0.8
vt 0.76 0.8
vt 0.8 0.8

# Normal
vn 0 0 -1

# Mesh description
g Map1_mesh_0255

# Faces
f 1/1/1 2/2/1 3/3/1 4/4/1
f 5/5/1 6/6/1 7/7/1 8/8/1
f 9/6/1 10/9/1 11/10/1 12/7/1
f 13/11/1 14/12/1 15/13/1 16/14/1
f 17/12/1 18/15/1 19/16/1 20/13/1
f 21/15/1 22/17/1 23/18/1 24/16/1
f 25/11/1 26/12/1 27/13/1 28/14/1
f 29/12/1 30/15/1 31/16/1 32/13/1
f 33/19/1 34/20/1 35/2/1 36/1/1
f 37/21/1 38/22/1 39/6/1 40/5/1
f 41/22/1 42/23/1 43/9/1 44/6/1
f 45/24/1 46/25/1 47/12/1 48/11/1
f 49/25/1 50/26/1 51/15/1 52/12/1
f 53/26/1 54/27/1 55/17/1 56/15/1
f 57/24/1 58/25/1 59/12/1 60/11/1
f 61/25/1 62/26/1 63/15/1 64/12/1

