# Tiled2Unity generated file. Do not modify by hand.
# Wavefront file for 'Map1_mesh_0235.obj'

# Vertices (Count = 88)
v -32 -144 0
v -48 -144 0
v -48 -128 0
v -32 -128 0
v -48 -144 0
v -64 -144 0
v -64 -128 0
v -48 -128 0
v -64 -144 0
v -80 -144 0
v -80 -128 0
v -64 -128 0
v -80 -144 0
v -96 -144 0
v -96 -128 0
v -80 -128 0
v -224 -144 0
v -240 -144 0
v -240 -128 0
v -224 -128 0
v -32 -160 0
v -48 -160 0
v -48 -144 0
v -32 -144 0
v -48 -160 0
v -64 -160 0
v -64 -144 0
v -48 -144 0
v -64 -160 0
v -80 -160 0
v -80 -144 0
v -64 -144 0
v -80 -160 0
v -96 -160 0
v -96 -144 0
v -80 -144 0
v -224 -160 0
v -240 -160 0
v -240 -144 0
v -224 -144 0
v -32 -176 0
v -48 -176 0
v -48 -160 0
v -32 -160 0
v -48 -176 0
v -64 -176 0
v -64 -160 0
v -48 -160 0
v -64 -176 0
v -80 -176 0
v -80 -160 0
v -64 -160 0
v -80 -176 0
v -96 -176 0
v -96 -160 0
v -80 -160 0
v -128 -176 0
v -144 -176 0
v -144 -160 0
v -128 -160 0
v -144 -176 0
v -160 -176 0
v -160 -160 0
v -144 -160 0
v -128 -192 0
v -144 -192 0
v -144 -176 0
v -128 -176 0
v -144 -192 0
v -160 -192 0
v -160 -176 0
v -144 -176 0
v -240 -192 0
v -256 -192 0
v -256 -176 0
v -240 -176 0
v -128 -208 0
v -144 -208 0
v -144 -192 0
v -128 -192 0
v -144 -208 0
v -160 -208 0
v -160 -192 0
v -144 -192 0
v -240 -208 0
v -256 -208 0
v -256 -192 0
v -240 -192 0

# Texture cooridinates (Count = 44)
vt 0.52 0.8
vt 0.56 0.8
vt 0.56 0.84
vt 0.52 0.84
vt 0.6 0.8
vt 0.6 0.84
vt 0.64 0.8
vt 0.64 0.84
vt 0.68 0.8
vt 0.68 0.84
vt 0.24 0.92
vt 0.28 0.92
vt 0.28 0.96
vt 0.24 0.96
vt 0.52 0.76
vt 0.56 0.76
vt 0.6 0.76
vt 0.64 0.76
vt 0.68 0.76
vt 0.24 0.88
vt 0.28 0.88
vt 0.52 0.72
vt 0.56 0.72
vt 0.6 0.72
vt 0.64 0.72
vt 0.68 0.72
vt 0.2 0.52
vt 0.24 0.52
vt 0.24 0.56
vt 0.2 0.56
vt 0.28 0.52
vt 0.28 0.56
vt 0.2 0.48
vt 0.24 0.48
vt 0.28 0.48
vt 0.44 0.76
vt 0.48 0.76
vt 0.48 0.8
vt 0.44 0.8
vt 0.2 0.44
vt 0.24 0.44
vt 0.28 0.44
vt 0.48 0.84
vt 0.44 0.84

# Normal
vn 0 0 -1

# Mesh description
g Map1_mesh_0235

# Faces
f 1/1/1 2/2/1 3/3/1 4/4/1
f 5/2/1 6/5/1 7/6/1 8/3/1
f 9/5/1 10/7/1 11/8/1 12/6/1
f 13/7/1 14/9/1 15/10/1 16/8/1
f 17/11/1 18/12/1 19/13/1 20/14/1
f 21/15/1 22/16/1 23/2/1 24/1/1
f 25/16/1 26/17/1 27/5/1 28/2/1
f 29/17/1 30/18/1 31/7/1 32/5/1
f 33/18/1 34/19/1 35/9/1 36/7/1
f 37/20/1 38/21/1 39/12/1 40/11/1
f 41/22/1 42/23/1 43/16/1 44/15/1
f 45/23/1 46/24/1 47/17/1 48/16/1
f 49/24/1 50/25/1 51/18/1 52/17/1
f 53/25/1 54/26/1 55/19/1 56/18/1
f 57/27/1 58/28/1 59/29/1 60/30/1
f 61/28/1 62/31/1 63/32/1 64/29/1
f 65/33/1 66/34/1 67/28/1 68/27/1
f 69/34/1 70/35/1 71/31/1 72/28/1
f 73/36/1 74/37/1 75/38/1 76/39/1
f 77/40/1 78/41/1 79/34/1 80/33/1
f 81/41/1 82/42/1 83/35/1 84/34/1
f 85/39/1 86/38/1 87/43/1 88/44/1

