# Tiled2Unity generated file. Do not modify by hand.
# Wavefront file for 'Map1_mesh_0323.obj'

# Vertices (Count = 160)
v -160 -16 0
v -176 -16 0
v -176 0 0
v -160 0 0
v -192 -16 0
v -208 -16 0
v -208 0 0
v -192 0 0
v -160 -32 0
v -176 -32 0
v -176 -16 0
v -160 -16 0
v -208 -32 0
v -224 -32 0
v -224 -16 0
v -208 -16 0
v -240 -32 0
v -256 -32 0
v -256 -16 0
v -240 -16 0
v -48 -48 0
v -64 -48 0
v -64 -32 0
v -48 -32 0
v -64 -48 0
v -80 -48 0
v -80 -32 0
v -64 -32 0
v -80 -48 0
v -96 -48 0
v -96 -32 0
v -80 -32 0
v -96 -48 0
v -112 -48 0
v -112 -32 0
v -96 -32 0
v -112 -48 0
v -128 -48 0
v -128 -32 0
v -112 -32 0
v -128 -48 0
v -144 -48 0
v -144 -32 0
v -128 -32 0
v -160 -48 0
v -176 -48 0
v -176 -32 0
v -160 -32 0
v 0 -64 0
v -16 -64 0
v -16 -48 0
v 0 -48 0
v -16 -64 0
v -32 -64 0
v -32 -48 0
v -16 -48 0
v -32 -64 0
v -48 -64 0
v -48 -48 0
v -32 -48 0
v -48 -64 0
v -64 -64 0
v -64 -48 0
v -48 -48 0
v -128 -64 0
v -144 -64 0
v -144 -48 0
v -128 -48 0
v -144 -64 0
v -160 -64 0
v -160 -48 0
v -144 -48 0
v -160 -64 0
v -176 -64 0
v -176 -48 0
v -160 -48 0
v -176 -176 0
v -192 -176 0
v -192 -160 0
v -176 -160 0
v -192 -176 0
v -208 -176 0
v -208 -160 0
v -192 -160 0
v -208 -176 0
v -224 -176 0
v -224 -160 0
v -208 -160 0
v -48 -192 0
v -64 -192 0
v -64 -176 0
v -48 -176 0
v -64 -192 0
v -80 -192 0
v -80 -176 0
v -64 -176 0
v -80 -192 0
v -96 -192 0
v -96 -176 0
v -80 -176 0
v -176 -192 0
v -192 -192 0
v -192 -176 0
v -176 -176 0
v -208 -192 0
v -224 -192 0
v -224 -176 0
v -208 -176 0
v -16 -208 0
v -32 -208 0
v -32 -192 0
v -16 -192 0
v -32 -208 0
v -48 -208 0
v -48 -192 0
v -32 -192 0
v -48 -208 0
v -64 -208 0
v -64 -192 0
v -48 -192 0
v -80 -208 0
v -96 -208 0
v -96 -192 0
v -80 -192 0
v 0 -224 0
v -16 -224 0
v -16 -208 0
v 0 -208 0
v -16 -224 0
v -32 -224 0
v -32 -208 0
v -16 -208 0
v -32 -224 0
v -48 -224 0
v -48 -208 0
v -32 -208 0
v -80 -224 0
v -96 -224 0
v -96 -208 0
v -80 -208 0
v 0 -240 0
v -16 -240 0
v -16 -224 0
v 0 -224 0
v -32 -240 0
v -48 -240 0
v -48 -224 0
v -32 -224 0
v -80 -240 0
v -96 -240 0
v -96 -224 0
v -80 -224 0
v 0 -256 0
v -16 -256 0
v -16 -240 0
v 0 -240 0
v -32 -256 0
v -48 -256 0
v -48 -240 0
v -32 -240 0

# Texture cooridinates (Count = 34)
vt 0.16 0.88
vt 0.2 0.88
vt 0.2 0.92
vt 0.16 0.92
vt 0.04 0.8
vt 0.08 0.8
vt 0.08 0.84
vt 0.04 0.84
vt 0.12 0.8
vt 0.16 0.8
vt 0.16 0.84
vt 0.12 0.84
vt 0.12 0.88
vt 0.08 0.88
vt 0.04 0.88
vt 0.04 0.96
vt 0.08 0.96
vt 0.08 1
vt 0.04 1
vt 0.12 0.96
vt 0.12 1
vt 0.16 0.96
vt 0.16 1
vt 0.24 0.92
vt 0.24 0.96
vt 0.2 0.96
vt 0.04 0.92
vt 0.08 0.92
vt 0.12 0.92
vt 0.24 0.88
vt 0.2 0.84
vt 0.24 0.84
vt 0.2 0.8
vt 0.24 0.8

# Normal
vn 0 0 -1

# Mesh description
g Map1_mesh_0323

# Faces
f 1/1/1 2/2/1 3/3/1 4/4/1
f 5/5/1 6/6/1 7/7/1 8/8/1
f 9/1/1 10/2/1 11/3/1 12/4/1
f 13/5/1 14/6/1 15/7/1 16/8/1
f 17/9/1 18/10/1 19/11/1 20/12/1
f 21/12/1 22/11/1 23/1/1 24/13/1
f 25/6/1 26/9/1 27/12/1 28/7/1
f 29/6/1 30/9/1 31/12/1 32/7/1
f 33/6/1 34/9/1 35/12/1 36/7/1
f 37/6/1 38/9/1 39/12/1 40/7/1
f 41/8/1 42/7/1 43/14/1 44/15/1
f 45/1/1 46/2/1 47/3/1 48/4/1
f 49/6/1 50/9/1 51/12/1 52/7/1
f 53/6/1 54/9/1 55/12/1 56/7/1
f 57/6/1 58/9/1 59/12/1 60/7/1
f 61/9/1 62/10/1 63/11/1 64/12/1
f 65/5/1 66/6/1 67/7/1 68/8/1
f 69/6/1 70/9/1 71/12/1 72/7/1
f 73/9/1 74/10/1 75/11/1 76/12/1
f 77/16/1 78/17/1 79/18/1 80/19/1
f 81/17/1 82/20/1 83/21/1 84/18/1
f 85/20/1 86/22/1 87/23/1 88/21/1
f 89/16/1 90/17/1 91/18/1 92/19/1
f 93/17/1 94/20/1 95/21/1 96/18/1
f 97/3/1 98/24/1 99/25/1 100/26/1
f 101/27/1 102/28/1 103/17/1 104/16/1
f 105/29/1 106/4/1 107/22/1 108/20/1
f 109/16/1 110/17/1 111/18/1 112/19/1
f 113/3/1 114/24/1 115/25/1 116/26/1
f 117/27/1 118/28/1 119/17/1 120/16/1
f 121/2/1 122/30/1 123/24/1 124/3/1
f 125/3/1 126/24/1 127/25/1 128/26/1
f 129/27/1 130/28/1 131/17/1 132/16/1
f 133/2/1 134/30/1 135/24/1 136/3/1
f 137/31/1 138/32/1 139/30/1 140/2/1
f 141/2/1 142/30/1 143/24/1 144/3/1
f 145/31/1 146/32/1 147/30/1 148/2/1
f 149/33/1 150/34/1 151/32/1 152/31/1
f 153/31/1 154/32/1 155/30/1 156/2/1
f 157/33/1 158/34/1 159/32/1 160/31/1

