# Tiled2Unity generated file. Do not modify by hand.
# Wavefront file for 'Map1_mesh_0107.obj'

# Vertices (Count = 56)
v -224 -160 0
v -240 -160 0
v -240 -144 0
v -224 -144 0
v -240 -160 0
v -256 -160 0
v -256 -144 0
v -240 -144 0
v -224 -176 0
v -240 -176 0
v -240 -160 0
v -224 -160 0
v -240 -176 0
v -256 -176 0
v -256 -160 0
v -240 -160 0
v -224 -192 0
v -240 -192 0
v -240 -176 0
v -224 -176 0
v -240 -192 0
v -256 -192 0
v -256 -176 0
v -240 -176 0
v -224 -208 0
v -240 -208 0
v -240 -192 0
v -224 -192 0
v -240 -208 0
v -256 -208 0
v -256 -192 0
v -240 -192 0
v -224 -224 0
v -240 -224 0
v -240 -208 0
v -224 -208 0
v -240 -224 0
v -256 -224 0
v -256 -208 0
v -240 -208 0
v -224 -240 0
v -240 -240 0
v -240 -224 0
v -224 -224 0
v -240 -240 0
v -256 -240 0
v -256 -224 0
v -240 -224 0
v -224 -256 0
v -240 -256 0
v -240 -240 0
v -224 -240 0
v -240 -256 0
v -256 -256 0
v -256 -240 0
v -240 -240 0

# Texture cooridinates (Count = 24)
vt 0.2285714 0.2873563
vt 0.2571429 0.2873563
vt 0.2571429 0.3103448
vt 0.2285714 0.3103448
vt 0.2857143 0.2873563
vt 0.2857143 0.3103448
vt 0.2285714 0.2643678
vt 0.2571429 0.2643678
vt 0.2857143 0.2643678
vt 0.2285714 0.2413793
vt 0.2571429 0.2413793
vt 0.2857143 0.2413793
vt 0.2285714 0.2183908
vt 0.2571429 0.2183908
vt 0.2857143 0.2183908
vt 0.2285714 0.1954023
vt 0.2571429 0.1954023
vt 0.2857143 0.1954023
vt 0.2285714 0.1724138
vt 0.2571429 0.1724138
vt 0.2857143 0.1724138
vt 0.2285714 0.1494253
vt 0.2571429 0.1494253
vt 0.2857143 0.1494253

# Normal
vn 0 0 -1

# Mesh description
g Map1_mesh_0107

# Faces
f 1/1/1 2/2/1 3/3/1 4/4/1
f 5/2/1 6/5/1 7/6/1 8/3/1
f 9/7/1 10/8/1 11/2/1 12/1/1
f 13/8/1 14/9/1 15/5/1 16/2/1
f 17/10/1 18/11/1 19/8/1 20/7/1
f 21/11/1 22/12/1 23/9/1 24/8/1
f 25/13/1 26/14/1 27/11/1 28/10/1
f 29/14/1 30/15/1 31/12/1 32/11/1
f 33/16/1 34/17/1 35/14/1 36/13/1
f 37/17/1 38/18/1 39/15/1 40/14/1
f 41/19/1 42/20/1 43/17/1 44/16/1
f 45/20/1 46/21/1 47/18/1 48/17/1
f 49/22/1 50/23/1 51/20/1 52/19/1
f 53/23/1 54/24/1 55/21/1 56/20/1

