# Tiled2Unity generated file. Do not modify by hand.
# Wavefront file for 'Map1_mesh_0314.obj'

# Vertices (Count = 32)
v -224 -16 0
v -240 -16 0
v -240 0 0
v -224 0 0
v -32 -128 0
v -48 -128 0
v -48 -112 0
v -32 -112 0
v -64 -128 0
v -80 -128 0
v -80 -112 0
v -64 -112 0
v -128 -128 0
v -144 -128 0
v -144 -112 0
v -128 -112 0
v -192 -128 0
v -208 -128 0
v -208 -112 0
v -192 -112 0
v -240 -128 0
v -256 -128 0
v -256 -112 0
v -240 -112 0
v -144 -144 0
v -160 -144 0
v -160 -128 0
v -144 -128 0
v -176 -144 0
v -192 -144 0
v -192 -128 0
v -176 -128 0

# Texture cooridinates (Count = 12)
vt 0 0.88
vt 0.04 0.88
vt 0.04 0.92
vt 0 0.92
vt 0.04 0.8
vt 0.08 0.8
vt 0.08 0.84
vt 0.04 0.84
vt 0.12 0.8
vt 0.16 0.8
vt 0.16 0.84
vt 0.12 0.84

# Normal
vn 0 0 -1

# Mesh description
g Map1_mesh_0314

# Faces
f 1/1/1 2/2/1 3/3/1 4/4/1
f 5/5/1 6/6/1 7/7/1 8/8/1
f 9/9/1 10/10/1 11/11/1 12/12/1
f 13/5/1 14/6/1 15/7/1 16/8/1
f 17/9/1 18/10/1 19/11/1 20/12/1
f 21/5/1 22/6/1 23/7/1 24/8/1
f 25/5/1 26/6/1 27/7/1 28/8/1
f 29/9/1 30/10/1 31/11/1 32/12/1

