# Tiled2Unity generated file. Do not modify by hand.
# Wavefront file for 'Map1_mesh_0289.obj'

# Vertices (Count = 64)
v -16 -112 0
v -32 -112 0
v -32 -96 0
v -16 -96 0
v -48 -112 0
v -64 -112 0
v -64 -96 0
v -48 -96 0
v -80 -112 0
v -96 -112 0
v -96 -96 0
v -80 -96 0
v -144 -112 0
v -160 -112 0
v -160 -96 0
v -144 -96 0
v -208 -112 0
v -224 -112 0
v -224 -96 0
v -208 -96 0
v -160 -128 0
v -176 -128 0
v -176 -112 0
v -160 -112 0
v -192 -128 0
v -208 -128 0
v -208 -112 0
v -192 -112 0
v -112 -224 0
v -128 -224 0
v -128 -208 0
v -112 -208 0
v -128 -224 0
v -144 -224 0
v -144 -208 0
v -128 -208 0
v -144 -224 0
v -160 -224 0
v -160 -208 0
v -144 -208 0
v -112 -240 0
v -128 -240 0
v -128 -224 0
v -112 -224 0
v -144 -240 0
v -160 -240 0
v -160 -224 0
v -144 -224 0
v -48 -256 0
v -64 -256 0
v -64 -240 0
v -48 -240 0
v -112 -256 0
v -128 -256 0
v -128 -240 0
v -112 -240 0
v -128 -256 0
v -144 -256 0
v -144 -240 0
v -128 -240 0
v -144 -256 0
v -160 -256 0
v -160 -240 0
v -144 -240 0

# Texture cooridinates (Count = 24)
vt 0.12 0.8
vt 0.16 0.8
vt 0.16 0.84
vt 0.12 0.84
vt 0.04 0.8
vt 0.08 0.8
vt 0.08 0.84
vt 0.04 0.84
vt 0.04 0.96
vt 0.08 0.96
vt 0.08 1
vt 0.04 1
vt 0.12 0.96
vt 0.12 1
vt 0.16 0.96
vt 0.16 1
vt 0 0.88
vt 0.04 0.88
vt 0.04 0.92
vt 0 0.92
vt 0.16 0.88
vt 0.2 0.88
vt 0.2 0.92
vt 0.16 0.92

# Normal
vn 0 0 -1

# Mesh description
g Map1_mesh_0289

# Faces
f 1/1/1 2/2/1 3/3/1 4/4/1
f 5/5/1 6/6/1 7/7/1 8/8/1
f 9/1/1 10/2/1 11/3/1 12/4/1
f 13/5/1 14/6/1 15/7/1 16/8/1
f 17/1/1 18/2/1 19/3/1 20/4/1
f 21/5/1 22/6/1 23/7/1 24/8/1
f 25/1/1 26/2/1 27/3/1 28/4/1
f 29/9/1 30/10/1 31/11/1 32/12/1
f 33/10/1 34/13/1 35/14/1 36/11/1
f 37/13/1 38/15/1 39/16/1 40/14/1
f 41/17/1 42/18/1 43/19/1 44/20/1
f 45/21/1 46/22/1 47/23/1 48/24/1
f 49/13/1 50/15/1 51/16/1 52/14/1
f 53/5/1 54/6/1 55/7/1 56/8/1
f 57/6/1 58/1/1 59/4/1 60/7/1
f 61/1/1 62/2/1 63/3/1 64/4/1

