# Tiled2Unity generated file. Do not modify by hand.
# Wavefront file for 'Map1_mesh_0091.obj'

# Vertices (Count = 384)
v -64 -16 0
v -80 -16 0
v -80 0 0
v -64 0 0
v -80 -16 0
v -96 -16 0
v -96 0 0
v -80 0 0
v -96 -16 0
v -112 -16 0
v -112 0 0
v -96 0 0
v -112 -16 0
v -128 -16 0
v -128 0 0
v -112 0 0
v -128 -16 0
v -144 -16 0
v -144 0 0
v -128 0 0
v -144 -16 0
v -160 -16 0
v -160 0 0
v -144 0 0
v -160 -16 0
v -176 -16 0
v -176 0 0
v -160 0 0
v -176 -16 0
v -192 -16 0
v -192 0 0
v -176 0 0
v -192 -16 0
v -208 -16 0
v -208 0 0
v -192 0 0
v -208 -16 0
v -224 -16 0
v -224 0 0
v -208 0 0
v -224 -16 0
v -240 -16 0
v -240 0 0
v -224 0 0
v -240 -16 0
v -256 -16 0
v -256 0 0
v -240 0 0
v -64 -160 0
v -80 -160 0
v -80 -144 0
v -64 -144 0
v -80 -160 0
v -96 -160 0
v -96 -144 0
v -80 -144 0
v -96 -160 0
v -112 -160 0
v -112 -144 0
v -96 -144 0
v -112 -160 0
v -128 -160 0
v -128 -144 0
v -112 -144 0
v -128 -160 0
v -144 -160 0
v -144 -144 0
v -128 -144 0
v -144 -160 0
v -160 -160 0
v -160 -144 0
v -144 -144 0
v -160 -160 0
v -176 -160 0
v -176 -144 0
v -160 -144 0
v -176 -160 0
v -192 -160 0
v -192 -144 0
v -176 -144 0
v -192 -160 0
v -208 -160 0
v -208 -144 0
v -192 -144 0
v -208 -160 0
v -224 -160 0
v -224 -144 0
v -208 -144 0
v -224 -160 0
v -240 -160 0
v -240 -144 0
v -224 -144 0
v -240 -160 0
v -256 -160 0
v -256 -144 0
v -240 -144 0
v -64 -176 0
v -80 -176 0
v -80 -160 0
v -64 -160 0
v -80 -176 0
v -96 -176 0
v -96 -160 0
v -80 -160 0
v -96 -176 0
v -112 -176 0
v -112 -160 0
v -96 -160 0
v -112 -176 0
v -128 -176 0
v -128 -160 0
v -112 -160 0
v -128 -176 0
v -144 -176 0
v -144 -160 0
v -128 -160 0
v -144 -176 0
v -160 -176 0
v -160 -160 0
v -144 -160 0
v -160 -176 0
v -176 -176 0
v -176 -160 0
v -160 -160 0
v -176 -176 0
v -192 -176 0
v -192 -160 0
v -176 -160 0
v -192 -176 0
v -208 -176 0
v -208 -160 0
v -192 -160 0
v -208 -176 0
v -224 -176 0
v -224 -160 0
v -208 -160 0
v -224 -176 0
v -240 -176 0
v -240 -160 0
v -224 -160 0
v -240 -176 0
v -256 -176 0
v -256 -160 0
v -240 -160 0
v -64 -192 0
v -80 -192 0
v -80 -176 0
v -64 -176 0
v -80 -192 0
v -96 -192 0
v -96 -176 0
v -80 -176 0
v -96 -192 0
v -112 -192 0
v -112 -176 0
v -96 -176 0
v -112 -192 0
v -128 -192 0
v -128 -176 0
v -112 -176 0
v -128 -192 0
v -144 -192 0
v -144 -176 0
v -128 -176 0
v -144 -192 0
v -160 -192 0
v -160 -176 0
v -144 -176 0
v -160 -192 0
v -176 -192 0
v -176 -176 0
v -160 -176 0
v -176 -192 0
v -192 -192 0
v -192 -176 0
v -176 -176 0
v -192 -192 0
v -208 -192 0
v -208 -176 0
v -192 -176 0
v -208 -192 0
v -224 -192 0
v -224 -176 0
v -208 -176 0
v -224 -192 0
v -240 -192 0
v -240 -176 0
v -224 -176 0
v -240 -192 0
v -256 -192 0
v -256 -176 0
v -240 -176 0
v -64 -208 0
v -80 -208 0
v -80 -192 0
v -64 -192 0
v -80 -208 0
v -96 -208 0
v -96 -192 0
v -80 -192 0
v -96 -208 0
v -112 -208 0
v -112 -192 0
v -96 -192 0
v -112 -208 0
v -128 -208 0
v -128 -192 0
v -112 -192 0
v -128 -208 0
v -144 -208 0
v -144 -192 0
v -128 -192 0
v -144 -208 0
v -160 -208 0
v -160 -192 0
v -144 -192 0
v -160 -208 0
v -176 -208 0
v -176 -192 0
v -160 -192 0
v -176 -208 0
v -192 -208 0
v -192 -192 0
v -176 -192 0
v -192 -208 0
v -208 -208 0
v -208 -192 0
v -192 -192 0
v -208 -208 0
v -224 -208 0
v -224 -192 0
v -208 -192 0
v -224 -208 0
v -240 -208 0
v -240 -192 0
v -224 -192 0
v -240 -208 0
v -256 -208 0
v -256 -192 0
v -240 -192 0
v -64 -224 0
v -80 -224 0
v -80 -208 0
v -64 -208 0
v -80 -224 0
v -96 -224 0
v -96 -208 0
v -80 -208 0
v -96 -224 0
v -112 -224 0
v -112 -208 0
v -96 -208 0
v -112 -224 0
v -128 -224 0
v -128 -208 0
v -112 -208 0
v -128 -224 0
v -144 -224 0
v -144 -208 0
v -128 -208 0
v -144 -224 0
v -160 -224 0
v -160 -208 0
v -144 -208 0
v -160 -224 0
v -176 -224 0
v -176 -208 0
v -160 -208 0
v -176 -224 0
v -192 -224 0
v -192 -208 0
v -176 -208 0
v -192 -224 0
v -208 -224 0
v -208 -208 0
v -192 -208 0
v -208 -224 0
v -224 -224 0
v -224 -208 0
v -208 -208 0
v -224 -224 0
v -240 -224 0
v -240 -208 0
v -224 -208 0
v -240 -224 0
v -256 -224 0
v -256 -208 0
v -240 -208 0
v -64 -240 0
v -80 -240 0
v -80 -224 0
v -64 -224 0
v -80 -240 0
v -96 -240 0
v -96 -224 0
v -80 -224 0
v -96 -240 0
v -112 -240 0
v -112 -224 0
v -96 -224 0
v -112 -240 0
v -128 -240 0
v -128 -224 0
v -112 -224 0
v -128 -240 0
v -144 -240 0
v -144 -224 0
v -128 -224 0
v -144 -240 0
v -160 -240 0
v -160 -224 0
v -144 -224 0
v -160 -240 0
v -176 -240 0
v -176 -224 0
v -160 -224 0
v -176 -240 0
v -192 -240 0
v -192 -224 0
v -176 -224 0
v -192 -240 0
v -208 -240 0
v -208 -224 0
v -192 -224 0
v -208 -240 0
v -224 -240 0
v -224 -224 0
v -208 -224 0
v -224 -240 0
v -240 -240 0
v -240 -224 0
v -224 -224 0
v -240 -240 0
v -256 -240 0
v -256 -224 0
v -240 -224 0
v -64 -256 0
v -80 -256 0
v -80 -240 0
v -64 -240 0
v -80 -256 0
v -96 -256 0
v -96 -240 0
v -80 -240 0
v -96 -256 0
v -112 -256 0
v -112 -240 0
v -96 -240 0
v -112 -256 0
v -128 -256 0
v -128 -240 0
v -112 -240 0
v -128 -256 0
v -144 -256 0
v -144 -240 0
v -128 -240 0
v -144 -256 0
v -160 -256 0
v -160 -240 0
v -144 -240 0
v -160 -256 0
v -176 -256 0
v -176 -240 0
v -160 -240 0
v -176 -256 0
v -192 -256 0
v -192 -240 0
v -176 -240 0
v -192 -256 0
v -208 -256 0
v -208 -240 0
v -192 -240 0
v -208 -256 0
v -224 -256 0
v -224 -240 0
v -208 -240 0
v -224 -256 0
v -240 -256 0
v -240 -240 0
v -224 -240 0
v -240 -256 0
v -256 -256 0
v -256 -240 0
v -240 -240 0

# Texture cooridinates (Count = 140)
vt 0.3714286 0.3333333
vt 0.4 0.3333333
vt 0.4 0.3563218
vt 0.3714286 0.3563218
vt 0.4285714 0.3333333
vt 0.4285714 0.3563218
vt 0.4571429 0.3333333
vt 0.4571429 0.3563218
vt 0.4857143 0.3333333
vt 0.4857143 0.3563218
vt 0.5142857 0.3333333
vt 0.5142857 0.3563218
vt 0.5428572 0.3333333
vt 0.5428572 0.3563218
vt 0.5714286 0.3333333
vt 0.5714286 0.3563218
vt 0.6 0.3333333
vt 0.6 0.3563218
vt 0.6285715 0.3333333
vt 0.6285715 0.3563218
vt 0.6571429 0.3333333
vt 0.6571429 0.3563218
vt 0 0.3333333
vt 0.02857143 0.3333333
vt 0.02857143 0.3563218
vt 0 0.3563218
vt 0.05714286 0.3333333
vt 0.05714286 0.3563218
vt 0.3714286 0.9770115
vt 0.4 0.9770115
vt 0.4 1
vt 0.3714286 1
vt 0.4285714 0.9770115
vt 0.4285714 1
vt 0.4571429 0.9770115
vt 0.4571429 1
vt 0.4857143 0.9770115
vt 0.4857143 1
vt 0.5142857 0.9770115
vt 0.5142857 1
vt 0.5428572 0.9770115
vt 0.5428572 1
vt 0.5714286 0.9770115
vt 0.5714286 1
vt 0.6 0.9770115
vt 0.6 1
vt 0.6285715 0.9770115
vt 0.6285715 1
vt 0.6571429 0.9770115
vt 0.6571429 1
vt 0.3428572 0.7471265
vt 0.3714286 0.7471265
vt 0.3714286 0.770115
vt 0.3428572 0.770115
vt 0.4 0.7471265
vt 0.4 0.770115
vt 0.3714286 0.954023
vt 0.4 0.954023
vt 0.4285714 0.954023
vt 0.4571429 0.954023
vt 0.4857143 0.954023
vt 0.5142857 0.954023
vt 0.5428572 0.954023
vt 0.5714286 0.954023
vt 0.6 0.954023
vt 0.6285715 0.954023
vt 0.6571429 0.954023
vt 0.3428572 0.7241379
vt 0.3714286 0.7241379
vt 0.4 0.7241379
vt 0.3714286 0.9310345
vt 0.4 0.9310345
vt 0.4285714 0.9310345
vt 0.4571429 0.9310345
vt 0.4857143 0.9310345
vt 0.5142857 0.9310345
vt 0.5428572 0.9310345
vt 0.5714286 0.9310345
vt 0.6 0.9310345
vt 0.6285715 0.9310345
vt 0.6571429 0.9310345
vt 0.3428572 0.7011495
vt 0.3714286 0.7011495
vt 0.4 0.7011495
vt 0.3714286 0.908046
vt 0.4 0.908046
vt 0.4285714 0.908046
vt 0.4571429 0.908046
vt 0.4857143 0.908046
vt 0.5142857 0.908046
vt 0.5428572 0.908046
vt 0.5714286 0.908046
vt 0.6 0.908046
vt 0.6285715 0.908046
vt 0.6571429 0.908046
vt 0.3428572 0.6781609
vt 0.3714286 0.6781609
vt 0.4 0.6781609
vt 0.3714286 0.8850574
vt 0.4 0.8850574
vt 0.4285714 0.8850574
vt 0.4571429 0.8850574
vt 0.4857143 0.8850574
vt 0.5142857 0.8850574
vt 0.5428572 0.8850574
vt 0.5714286 0.8850574
vt 0.6 0.8850574
vt 0.6285715 0.8850574
vt 0.6571429 0.8850574
vt 0.3428572 0.6551724
vt 0.3714286 0.6551724
vt 0.4 0.6551724
vt 0.3714286 0.862069
vt 0.4 0.862069
vt 0.4285714 0.862069
vt 0.4571429 0.862069
vt 0.4857143 0.862069
vt 0.5142857 0.862069
vt 0.5428572 0.862069
vt 0.5714286 0.862069
vt 0.6 0.862069
vt 0.6285715 0.862069
vt 0.6571429 0.862069
vt 0.3428572 0.6321839
vt 0.3714286 0.6321839
vt 0.4 0.6321839
vt 0.3714286 0.8390805
vt 0.4 0.8390805
vt 0.4285714 0.8390805
vt 0.4571429 0.8390805
vt 0.4857143 0.8390805
vt 0.5142857 0.8390805
vt 0.5428572 0.8390805
vt 0.5714286 0.8390805
vt 0.6 0.8390805
vt 0.6285715 0.8390805
vt 0.6571429 0.8390805
vt 0.3428572 0.6091954
vt 0.3714286 0.6091954
vt 0.4 0.6091954

# Normal
vn 0 0 -1

# Mesh description
g Map1_mesh_0091

# Faces
f 1/1/1 2/2/1 3/3/1 4/4/1
f 5/2/1 6/5/1 7/6/1 8/3/1
f 9/5/1 10/7/1 11/8/1 12/6/1
f 13/7/1 14/9/1 15/10/1 16/8/1
f 17/9/1 18/11/1 19/12/1 20/10/1
f 21/11/1 22/13/1 23/14/1 24/12/1
f 25/13/1 26/15/1 27/16/1 28/14/1
f 29/15/1 30/17/1 31/18/1 32/16/1
f 33/17/1 34/19/1 35/20/1 36/18/1
f 37/19/1 38/21/1 39/22/1 40/20/1
f 41/23/1 42/24/1 43/25/1 44/26/1
f 45/24/1 46/27/1 47/28/1 48/25/1
f 49/29/1 50/30/1 51/31/1 52/32/1
f 53/30/1 54/33/1 55/34/1 56/31/1
f 57/33/1 58/35/1 59/36/1 60/34/1
f 61/35/1 62/37/1 63/38/1 64/36/1
f 65/37/1 66/39/1 67/40/1 68/38/1
f 69/39/1 70/41/1 71/42/1 72/40/1
f 73/41/1 74/43/1 75/44/1 76/42/1
f 77/43/1 78/45/1 79/46/1 80/44/1
f 81/45/1 82/47/1 83/48/1 84/46/1
f 85/47/1 86/49/1 87/50/1 88/48/1
f 89/51/1 90/52/1 91/53/1 92/54/1
f 93/52/1 94/55/1 95/56/1 96/53/1
f 97/57/1 98/58/1 99/30/1 100/29/1
f 101/58/1 102/59/1 103/33/1 104/30/1
f 105/59/1 106/60/1 107/35/1 108/33/1
f 109/60/1 110/61/1 111/37/1 112/35/1
f 113/61/1 114/62/1 115/39/1 116/37/1
f 117/62/1 118/63/1 119/41/1 120/39/1
f 121/63/1 122/64/1 123/43/1 124/41/1
f 125/64/1 126/65/1 127/45/1 128/43/1
f 129/65/1 130/66/1 131/47/1 132/45/1
f 133/66/1 134/67/1 135/49/1 136/47/1
f 137/68/1 138/69/1 139/52/1 140/51/1
f 141/69/1 142/70/1 143/55/1 144/52/1
f 145/71/1 146/72/1 147/58/1 148/57/1
f 149/72/1 150/73/1 151/59/1 152/58/1
f 153/73/1 154/74/1 155/60/1 156/59/1
f 157/74/1 158/75/1 159/61/1 160/60/1
f 161/75/1 162/76/1 163/62/1 164/61/1
f 165/76/1 166/77/1 167/63/1 168/62/1
f 169/77/1 170/78/1 171/64/1 172/63/1
f 173/78/1 174/79/1 175/65/1 176/64/1
f 177/79/1 178/80/1 179/66/1 180/65/1
f 181/80/1 182/81/1 183/67/1 184/66/1
f 185/82/1 186/83/1 187/69/1 188/68/1
f 189/83/1 190/84/1 191/70/1 192/69/1
f 193/85/1 194/86/1 195/72/1 196/71/1
f 197/86/1 198/87/1 199/73/1 200/72/1
f 201/87/1 202/88/1 203/74/1 204/73/1
f 205/88/1 206/89/1 207/75/1 208/74/1
f 209/89/1 210/90/1 211/76/1 212/75/1
f 213/90/1 214/91/1 215/77/1 216/76/1
f 217/91/1 218/92/1 219/78/1 220/77/1
f 221/92/1 222/93/1 223/79/1 224/78/1
f 225/93/1 226/94/1 227/80/1 228/79/1
f 229/94/1 230/95/1 231/81/1 232/80/1
f 233/96/1 234/97/1 235/83/1 236/82/1
f 237/97/1 238/98/1 239/84/1 240/83/1
f 241/99/1 242/100/1 243/86/1 244/85/1
f 245/100/1 246/101/1 247/87/1 248/86/1
f 249/101/1 250/102/1 251/88/1 252/87/1
f 253/102/1 254/103/1 255/89/1 256/88/1
f 257/103/1 258/104/1 259/90/1 260/89/1
f 261/104/1 262/105/1 263/91/1 264/90/1
f 265/105/1 266/106/1 267/92/1 268/91/1
f 269/106/1 270/107/1 271/93/1 272/92/1
f 273/107/1 274/108/1 275/94/1 276/93/1
f 277/108/1 278/109/1 279/95/1 280/94/1
f 281/110/1 282/111/1 283/97/1 284/96/1
f 285/111/1 286/112/1 287/98/1 288/97/1
f 289/113/1 290/114/1 291/100/1 292/99/1
f 293/114/1 294/115/1 295/101/1 296/100/1
f 297/115/1 298/116/1 299/102/1 300/101/1
f 301/116/1 302/117/1 303/103/1 304/102/1
f 305/117/1 306/118/1 307/104/1 308/103/1
f 309/118/1 310/119/1 311/105/1 312/104/1
f 313/119/1 314/120/1 315/106/1 316/105/1
f 317/120/1 318/121/1 319/107/1 320/106/1
f 321/121/1 322/122/1 323/108/1 324/107/1
f 325/122/1 326/123/1 327/109/1 328/108/1
f 329/124/1 330/125/1 331/111/1 332/110/1
f 333/125/1 334/126/1 335/112/1 336/111/1
f 337/127/1 338/128/1 339/114/1 340/113/1
f 341/128/1 342/129/1 343/115/1 344/114/1
f 345/129/1 346/130/1 347/116/1 348/115/1
f 349/130/1 350/131/1 351/117/1 352/116/1
f 353/131/1 354/132/1 355/118/1 356/117/1
f 357/132/1 358/133/1 359/119/1 360/118/1
f 361/133/1 362/134/1 363/120/1 364/119/1
f 365/134/1 366/135/1 367/121/1 368/120/1
f 369/135/1 370/136/1 371/122/1 372/121/1
f 373/136/1 374/137/1 375/123/1 376/122/1
f 377/138/1 378/139/1 379/125/1 380/124/1
f 381/139/1 382/140/1 383/126/1 384/125/1

