# Tiled2Unity generated file. Do not modify by hand.
# Wavefront file for 'Map1_mesh_0311.obj'

# Vertices (Count = 36)
v -64 -16 0
v -80 -16 0
v -80 0 0
v -64 0 0
v -112 -16 0
v -128 -16 0
v -128 0 0
v -112 0 0
v -16 -128 0
v -32 -128 0
v -32 -112 0
v -16 -112 0
v -80 -128 0
v -96 -128 0
v -96 -112 0
v -80 -112 0
v -144 -128 0
v -160 -128 0
v -160 -112 0
v -144 -112 0
v -208 -128 0
v -224 -128 0
v -224 -112 0
v -208 -112 0
v -240 -128 0
v -256 -128 0
v -256 -112 0
v -240 -112 0
v -96 -144 0
v -112 -144 0
v -112 -128 0
v -96 -128 0
v -128 -144 0
v -144 -144 0
v -144 -128 0
v -128 -128 0

# Texture cooridinates (Count = 16)
vt 0.04 0.96
vt 0.08 0.96
vt 0.08 1
vt 0.04 1
vt 0.16 0.92
vt 0.2 0.92
vt 0.2 0.96
vt 0.16 0.96
vt 0.12 0.8
vt 0.16 0.8
vt 0.16 0.84
vt 0.12 0.84
vt 0.04 0.8
vt 0.08 0.8
vt 0.08 0.84
vt 0.04 0.84

# Normal
vn 0 0 -1

# Mesh description
g Map1_mesh_0311

# Faces
f 1/1/1 2/2/1 3/3/1 4/4/1
f 5/5/1 6/6/1 7/7/1 8/8/1
f 9/9/1 10/10/1 11/11/1 12/12/1
f 13/13/1 14/14/1 15/15/1 16/16/1
f 17/9/1 18/10/1 19/11/1 20/12/1
f 21/13/1 22/14/1 23/15/1 24/16/1
f 25/9/1 26/10/1 27/11/1 28/12/1
f 29/13/1 30/14/1 31/15/1 32/16/1
f 33/9/1 34/10/1 35/11/1 36/12/1

