# Tiled2Unity generated file. Do not modify by hand.
# Wavefront file for 'Map1_mesh_0340.obj'

# Vertices (Count = 32)
v -64 -16 0
v -80 -16 0
v -80 0 0
v -64 0 0
v -64 -32 0
v -80 -32 0
v -80 -16 0
v -64 -16 0
v -144 -32 0
v -160 -32 0
v -160 -16 0
v -144 -16 0
v -160 -32 0
v -176 -32 0
v -176 -16 0
v -160 -16 0
v -176 -32 0
v -192 -32 0
v -192 -16 0
v -176 -16 0
v -64 -48 0
v -80 -48 0
v -80 -32 0
v -64 -32 0
v -144 -48 0
v -160 -48 0
v -160 -32 0
v -144 -32 0
v -176 -48 0
v -192 -48 0
v -192 -32 0
v -176 -32 0

# Texture cooridinates (Count = 15)
vt 0.16 0.88
vt 0.2 0.88
vt 0.2 0.92
vt 0.16 0.92
vt 0.04 0.96
vt 0.08 0.96
vt 0.08 1
vt 0.04 1
vt 0.12 0.96
vt 0.12 1
vt 0.16 0.96
vt 0.16 1
vt 0.12 0.92
vt 0.04 0.92
vt 0.08 0.92

# Normal
vn 0 0 -1

# Mesh description
g Map1_mesh_0340

# Faces
f 1/1/1 2/2/1 3/3/1 4/4/1
f 5/1/1 6/2/1 7/3/1 8/4/1
f 9/5/1 10/6/1 11/7/1 12/8/1
f 13/6/1 14/9/1 15/10/1 16/7/1
f 17/9/1 18/11/1 19/12/1 20/10/1
f 21/13/1 22/4/1 23/11/1 24/9/1
f 25/14/1 26/15/1 27/6/1 28/5/1
f 29/13/1 30/4/1 31/11/1 32/9/1

