# Tiled2Unity generated file. Do not modify by hand.
# Wavefront file for 'Map1_mesh_0270.obj'

# Vertices (Count = 20)
v 0 -144 0
v -16 -144 0
v -16 -128 0
v 0 -128 0
v 0 -160 0
v -16 -160 0
v -16 -144 0
v 0 -144 0
v 0 -224 0
v -16 -224 0
v -16 -208 0
v 0 -208 0
v 0 -240 0
v -16 -240 0
v -16 -224 0
v 0 -224 0
v 0 -256 0
v -16 -256 0
v -16 -240 0
v 0 -240 0

# Texture cooridinates (Count = 14)
vt 0.4 0.92
vt 0.44 0.92
vt 0.44 0.96
vt 0.4 0.96
vt 0.4 0.88
vt 0.44 0.88
vt 0.24 0.52
vt 0.28 0.52
vt 0.28 0.56
vt 0.24 0.56
vt 0.24 0.48
vt 0.28 0.48
vt 0.24 0.44
vt 0.28 0.44

# Normal
vn 0 0 -1

# Mesh description
g Map1_mesh_0270

# Faces
f 1/1/1 2/2/1 3/3/1 4/4/1
f 5/5/1 6/6/1 7/2/1 8/1/1
f 9/7/1 10/8/1 11/9/1 12/10/1
f 13/11/1 14/12/1 15/8/1 16/7/1
f 17/13/1 18/14/1 19/12/1 20/11/1

