# Tiled2Unity generated file. Do not modify by hand.
# Wavefront file for 'Map1_mesh_0007.obj'

# Vertices (Count = 640)
v 0 -112 0
v -16 -112 0
v -16 -96 0
v 0 -96 0
v -16 -112 0
v -32 -112 0
v -32 -96 0
v -16 -96 0
v -32 -112 0
v -48 -112 0
v -48 -96 0
v -32 -96 0
v -48 -112 0
v -64 -112 0
v -64 -96 0
v -48 -96 0
v -64 -112 0
v -80 -112 0
v -80 -96 0
v -64 -96 0
v -80 -112 0
v -96 -112 0
v -96 -96 0
v -80 -96 0
v -96 -112 0
v -112 -112 0
v -112 -96 0
v -96 -96 0
v -112 -112 0
v -128 -112 0
v -128 -96 0
v -112 -96 0
v -128 -112 0
v -144 -112 0
v -144 -96 0
v -128 -96 0
v -144 -112 0
v -160 -112 0
v -160 -96 0
v -144 -96 0
v -160 -112 0
v -176 -112 0
v -176 -96 0
v -160 -96 0
v -176 -112 0
v -192 -112 0
v -192 -96 0
v -176 -96 0
v -192 -112 0
v -208 -112 0
v -208 -96 0
v -192 -96 0
v -208 -112 0
v -224 -112 0
v -224 -96 0
v -208 -96 0
v -224 -112 0
v -240 -112 0
v -240 -96 0
v -224 -96 0
v -240 -112 0
v -256 -112 0
v -256 -96 0
v -240 -96 0
v 0 -128 0
v -16 -128 0
v -16 -112 0
v 0 -112 0
v -16 -128 0
v -32 -128 0
v -32 -112 0
v -16 -112 0
v -32 -128 0
v -48 -128 0
v -48 -112 0
v -32 -112 0
v -48 -128 0
v -64 -128 0
v -64 -112 0
v -48 -112 0
v -64 -128 0
v -80 -128 0
v -80 -112 0
v -64 -112 0
v -80 -128 0
v -96 -128 0
v -96 -112 0
v -80 -112 0
v -96 -128 0
v -112 -128 0
v -112 -112 0
v -96 -112 0
v -112 -128 0
v -128 -128 0
v -128 -112 0
v -112 -112 0
v -128 -128 0
v -144 -128 0
v -144 -112 0
v -128 -112 0
v -144 -128 0
v -160 -128 0
v -160 -112 0
v -144 -112 0
v -160 -128 0
v -176 -128 0
v -176 -112 0
v -160 -112 0
v -176 -128 0
v -192 -128 0
v -192 -112 0
v -176 -112 0
v -192 -128 0
v -208 -128 0
v -208 -112 0
v -192 -112 0
v -208 -128 0
v -224 -128 0
v -224 -112 0
v -208 -112 0
v -224 -128 0
v -240 -128 0
v -240 -112 0
v -224 -112 0
v -240 -128 0
v -256 -128 0
v -256 -112 0
v -240 -112 0
v 0 -144 0
v -16 -144 0
v -16 -128 0
v 0 -128 0
v -16 -144 0
v -32 -144 0
v -32 -128 0
v -16 -128 0
v -32 -144 0
v -48 -144 0
v -48 -128 0
v -32 -128 0
v -48 -144 0
v -64 -144 0
v -64 -128 0
v -48 -128 0
v -64 -144 0
v -80 -144 0
v -80 -128 0
v -64 -128 0
v -80 -144 0
v -96 -144 0
v -96 -128 0
v -80 -128 0
v -96 -144 0
v -112 -144 0
v -112 -128 0
v -96 -128 0
v -112 -144 0
v -128 -144 0
v -128 -128 0
v -112 -128 0
v -128 -144 0
v -144 -144 0
v -144 -128 0
v -128 -128 0
v -144 -144 0
v -160 -144 0
v -160 -128 0
v -144 -128 0
v -160 -144 0
v -176 -144 0
v -176 -128 0
v -160 -128 0
v -176 -144 0
v -192 -144 0
v -192 -128 0
v -176 -128 0
v -192 -144 0
v -208 -144 0
v -208 -128 0
v -192 -128 0
v -208 -144 0
v -224 -144 0
v -224 -128 0
v -208 -128 0
v -224 -144 0
v -240 -144 0
v -240 -128 0
v -224 -128 0
v -240 -144 0
v -256 -144 0
v -256 -128 0
v -240 -128 0
v 0 -160 0
v -16 -160 0
v -16 -144 0
v 0 -144 0
v -16 -160 0
v -32 -160 0
v -32 -144 0
v -16 -144 0
v -32 -160 0
v -48 -160 0
v -48 -144 0
v -32 -144 0
v -48 -160 0
v -64 -160 0
v -64 -144 0
v -48 -144 0
v -64 -160 0
v -80 -160 0
v -80 -144 0
v -64 -144 0
v -80 -160 0
v -96 -160 0
v -96 -144 0
v -80 -144 0
v -96 -160 0
v -112 -160 0
v -112 -144 0
v -96 -144 0
v -112 -160 0
v -128 -160 0
v -128 -144 0
v -112 -144 0
v -128 -160 0
v -144 -160 0
v -144 -144 0
v -128 -144 0
v -144 -160 0
v -160 -160 0
v -160 -144 0
v -144 -144 0
v -160 -160 0
v -176 -160 0
v -176 -144 0
v -160 -144 0
v -176 -160 0
v -192 -160 0
v -192 -144 0
v -176 -144 0
v -192 -160 0
v -208 -160 0
v -208 -144 0
v -192 -144 0
v -208 -160 0
v -224 -160 0
v -224 -144 0
v -208 -144 0
v -224 -160 0
v -240 -160 0
v -240 -144 0
v -224 -144 0
v -240 -160 0
v -256 -160 0
v -256 -144 0
v -240 -144 0
v 0 -176 0
v -16 -176 0
v -16 -160 0
v 0 -160 0
v -16 -176 0
v -32 -176 0
v -32 -160 0
v -16 -160 0
v -32 -176 0
v -48 -176 0
v -48 -160 0
v -32 -160 0
v -48 -176 0
v -64 -176 0
v -64 -160 0
v -48 -160 0
v -64 -176 0
v -80 -176 0
v -80 -160 0
v -64 -160 0
v -80 -176 0
v -96 -176 0
v -96 -160 0
v -80 -160 0
v -96 -176 0
v -112 -176 0
v -112 -160 0
v -96 -160 0
v -112 -176 0
v -128 -176 0
v -128 -160 0
v -112 -160 0
v -128 -176 0
v -144 -176 0
v -144 -160 0
v -128 -160 0
v -144 -176 0
v -160 -176 0
v -160 -160 0
v -144 -160 0
v -160 -176 0
v -176 -176 0
v -176 -160 0
v -160 -160 0
v -176 -176 0
v -192 -176 0
v -192 -160 0
v -176 -160 0
v -192 -176 0
v -208 -176 0
v -208 -160 0
v -192 -160 0
v -208 -176 0
v -224 -176 0
v -224 -160 0
v -208 -160 0
v -224 -176 0
v -240 -176 0
v -240 -160 0
v -224 -160 0
v -240 -176 0
v -256 -176 0
v -256 -160 0
v -240 -160 0
v 0 -192 0
v -16 -192 0
v -16 -176 0
v 0 -176 0
v -16 -192 0
v -32 -192 0
v -32 -176 0
v -16 -176 0
v -32 -192 0
v -48 -192 0
v -48 -176 0
v -32 -176 0
v -48 -192 0
v -64 -192 0
v -64 -176 0
v -48 -176 0
v -64 -192 0
v -80 -192 0
v -80 -176 0
v -64 -176 0
v -80 -192 0
v -96 -192 0
v -96 -176 0
v -80 -176 0
v -96 -192 0
v -112 -192 0
v -112 -176 0
v -96 -176 0
v -112 -192 0
v -128 -192 0
v -128 -176 0
v -112 -176 0
v -128 -192 0
v -144 -192 0
v -144 -176 0
v -128 -176 0
v -144 -192 0
v -160 -192 0
v -160 -176 0
v -144 -176 0
v -160 -192 0
v -176 -192 0
v -176 -176 0
v -160 -176 0
v -176 -192 0
v -192 -192 0
v -192 -176 0
v -176 -176 0
v -192 -192 0
v -208 -192 0
v -208 -176 0
v -192 -176 0
v -208 -192 0
v -224 -192 0
v -224 -176 0
v -208 -176 0
v -224 -192 0
v -240 -192 0
v -240 -176 0
v -224 -176 0
v -240 -192 0
v -256 -192 0
v -256 -176 0
v -240 -176 0
v 0 -208 0
v -16 -208 0
v -16 -192 0
v 0 -192 0
v -16 -208 0
v -32 -208 0
v -32 -192 0
v -16 -192 0
v -32 -208 0
v -48 -208 0
v -48 -192 0
v -32 -192 0
v -48 -208 0
v -64 -208 0
v -64 -192 0
v -48 -192 0
v -64 -208 0
v -80 -208 0
v -80 -192 0
v -64 -192 0
v -80 -208 0
v -96 -208 0
v -96 -192 0
v -80 -192 0
v -96 -208 0
v -112 -208 0
v -112 -192 0
v -96 -192 0
v -112 -208 0
v -128 -208 0
v -128 -192 0
v -112 -192 0
v -128 -208 0
v -144 -208 0
v -144 -192 0
v -128 -192 0
v -144 -208 0
v -160 -208 0
v -160 -192 0
v -144 -192 0
v -160 -208 0
v -176 -208 0
v -176 -192 0
v -160 -192 0
v -176 -208 0
v -192 -208 0
v -192 -192 0
v -176 -192 0
v -192 -208 0
v -208 -208 0
v -208 -192 0
v -192 -192 0
v -208 -208 0
v -224 -208 0
v -224 -192 0
v -208 -192 0
v -224 -208 0
v -240 -208 0
v -240 -192 0
v -224 -192 0
v -240 -208 0
v -256 -208 0
v -256 -192 0
v -240 -192 0
v 0 -224 0
v -16 -224 0
v -16 -208 0
v 0 -208 0
v -16 -224 0
v -32 -224 0
v -32 -208 0
v -16 -208 0
v -32 -224 0
v -48 -224 0
v -48 -208 0
v -32 -208 0
v -48 -224 0
v -64 -224 0
v -64 -208 0
v -48 -208 0
v -64 -224 0
v -80 -224 0
v -80 -208 0
v -64 -208 0
v -80 -224 0
v -96 -224 0
v -96 -208 0
v -80 -208 0
v -96 -224 0
v -112 -224 0
v -112 -208 0
v -96 -208 0
v -112 -224 0
v -128 -224 0
v -128 -208 0
v -112 -208 0
v -128 -224 0
v -144 -224 0
v -144 -208 0
v -128 -208 0
v -144 -224 0
v -160 -224 0
v -160 -208 0
v -144 -208 0
v -160 -224 0
v -176 -224 0
v -176 -208 0
v -160 -208 0
v -176 -224 0
v -192 -224 0
v -192 -208 0
v -176 -208 0
v -192 -224 0
v -208 -224 0
v -208 -208 0
v -192 -208 0
v -208 -224 0
v -224 -224 0
v -224 -208 0
v -208 -208 0
v -224 -224 0
v -240 -224 0
v -240 -208 0
v -224 -208 0
v -240 -224 0
v -256 -224 0
v -256 -208 0
v -240 -208 0
v 0 -240 0
v -16 -240 0
v -16 -224 0
v 0 -224 0
v -16 -240 0
v -32 -240 0
v -32 -224 0
v -16 -224 0
v -32 -240 0
v -48 -240 0
v -48 -224 0
v -32 -224 0
v -48 -240 0
v -64 -240 0
v -64 -224 0
v -48 -224 0
v -64 -240 0
v -80 -240 0
v -80 -224 0
v -64 -224 0
v -80 -240 0
v -96 -240 0
v -96 -224 0
v -80 -224 0
v -96 -240 0
v -112 -240 0
v -112 -224 0
v -96 -224 0
v -112 -240 0
v -128 -240 0
v -128 -224 0
v -112 -224 0
v -128 -240 0
v -144 -240 0
v -144 -224 0
v -128 -224 0
v -144 -240 0
v -160 -240 0
v -160 -224 0
v -144 -224 0
v -160 -240 0
v -176 -240 0
v -176 -224 0
v -160 -224 0
v -176 -240 0
v -192 -240 0
v -192 -224 0
v -176 -224 0
v -192 -240 0
v -208 -240 0
v -208 -224 0
v -192 -224 0
v -208 -240 0
v -224 -240 0
v -224 -224 0
v -208 -224 0
v -224 -240 0
v -240 -240 0
v -240 -224 0
v -224 -224 0
v -240 -240 0
v -256 -240 0
v -256 -224 0
v -240 -224 0
v 0 -256 0
v -16 -256 0
v -16 -240 0
v 0 -240 0
v -16 -256 0
v -32 -256 0
v -32 -240 0
v -16 -240 0
v -32 -256 0
v -48 -256 0
v -48 -240 0
v -32 -240 0
v -48 -256 0
v -64 -256 0
v -64 -240 0
v -48 -240 0
v -64 -256 0
v -80 -256 0
v -80 -240 0
v -64 -240 0
v -80 -256 0
v -96 -256 0
v -96 -240 0
v -80 -240 0
v -96 -256 0
v -112 -256 0
v -112 -240 0
v -96 -240 0
v -112 -256 0
v -128 -256 0
v -128 -240 0
v -112 -240 0
v -128 -256 0
v -144 -256 0
v -144 -240 0
v -128 -240 0
v -144 -256 0
v -160 -256 0
v -160 -240 0
v -144 -240 0
v -160 -256 0
v -176 -256 0
v -176 -240 0
v -160 -240 0
v -176 -256 0
v -192 -256 0
v -192 -240 0
v -176 -240 0
v -192 -256 0
v -208 -256 0
v -208 -240 0
v -192 -240 0
v -208 -256 0
v -224 -256 0
v -224 -240 0
v -208 -240 0
v -224 -256 0
v -240 -256 0
v -240 -240 0
v -224 -240 0
v -240 -256 0
v -256 -256 0
v -256 -240 0
v -240 -240 0

# Texture cooridinates (Count = 187)
vt 0.8387097 0.9411765
vt 0.8709677 0.9411765
vt 0.8709677 1
vt 0.8387097 1
vt 0.9032258 0.9411765
vt 0.9032258 1
vt 0.9354839 0.9411765
vt 0.9354839 1
vt 0.9677419 0.9411765
vt 0.9677419 1
vt 1 0.9411765
vt 1 1
vt 0 0.9411765
vt 0.03225806 0.9411765
vt 0.03225806 1
vt 0 1
vt 0.06451613 0.9411765
vt 0.06451613 1
vt 0.09677419 0.9411765
vt 0.09677419 1
vt 0.1290323 0.9411765
vt 0.1290323 1
vt 0.1612903 0.9411765
vt 0.1612903 1
vt 0.1935484 0.9411765
vt 0.1935484 1
vt 0.2258064 0.9411765
vt 0.2258064 1
vt 0.2580645 0.9411765
vt 0.2580645 1
vt 0.2903226 0.9411765
vt 0.2903226 1
vt 0.3225806 0.9411765
vt 0.3225806 1
vt 0.8387097 0.8823529
vt 0.8709677 0.8823529
vt 0.9032258 0.8823529
vt 0.9354839 0.8823529
vt 0.9677419 0.8823529
vt 1 0.8823529
vt 0 0.8823529
vt 0.03225806 0.8823529
vt 0.06451613 0.8823529
vt 0.09677419 0.8823529
vt 0.1290323 0.8823529
vt 0.1612903 0.8823529
vt 0.1935484 0.8823529
vt 0.2258064 0.8823529
vt 0.2580645 0.8823529
vt 0.2903226 0.8823529
vt 0.3225806 0.8823529
vt 0.8387097 0.8235294
vt 0.8709677 0.8235294
vt 0.9032258 0.8235294
vt 0.9354839 0.8235294
vt 0.9677419 0.8235294
vt 1 0.8235294
vt 0 0.8235294
vt 0.03225806 0.8235294
vt 0.06451613 0.8235294
vt 0.09677419 0.8235294
vt 0.1290323 0.8235294
vt 0.1612903 0.8235294
vt 0.1935484 0.8235294
vt 0.2258064 0.8235294
vt 0.2580645 0.8235294
vt 0.2903226 0.8235294
vt 0.3225806 0.8235294
vt 0.8387097 0.7647059
vt 0.8709677 0.7647059
vt 0.9032258 0.7647059
vt 0.9354839 0.7647059
vt 0.9677419 0.7647059
vt 1 0.7647059
vt 0 0.7647059
vt 0.03225806 0.7647059
vt 0.06451613 0.7647059
vt 0.09677419 0.7647059
vt 0.1290323 0.7647059
vt 0.1612903 0.7647059
vt 0.1935484 0.7647059
vt 0.2258064 0.7647059
vt 0.2580645 0.7647059
vt 0.2903226 0.7647059
vt 0.3225806 0.7647059
vt 0.8387097 0.7058823
vt 0.8709677 0.7058823
vt 0.9032258 0.7058823
vt 0.9354839 0.7058823
vt 0.9677419 0.7058823
vt 1 0.7058823
vt 0 0.7058823
vt 0.03225806 0.7058823
vt 0.06451613 0.7058823
vt 0.09677419 0.7058823
vt 0.1290323 0.7058823
vt 0.1612903 0.7058823
vt 0.1935484 0.7058823
vt 0.2258064 0.7058823
vt 0.2580645 0.7058823
vt 0.2903226 0.7058823
vt 0.3225806 0.7058823
vt 0.8387097 0.6470588
vt 0.8709677 0.6470588
vt 0.9032258 0.6470588
vt 0.9354839 0.6470588
vt 0.9677419 0.6470588
vt 1 0.6470588
vt 0 0.6470588
vt 0.03225806 0.6470588
vt 0.06451613 0.6470588
vt 0.09677419 0.6470588
vt 0.1290323 0.6470588
vt 0.1612903 0.6470588
vt 0.1935484 0.6470588
vt 0.2258064 0.6470588
vt 0.2580645 0.6470588
vt 0.2903226 0.6470588
vt 0.3225806 0.6470588
vt 0.8387097 0.5882353
vt 0.8709677 0.5882353
vt 0.9032258 0.5882353
vt 0.9354839 0.5882353
vt 0.9677419 0.5882353
vt 1 0.5882353
vt 0 0.5882353
vt 0.03225806 0.5882353
vt 0.06451613 0.5882353
vt 0.09677419 0.5882353
vt 0.1290323 0.5882353
vt 0.1612903 0.5882353
vt 0.1935484 0.5882353
vt 0.2258064 0.5882353
vt 0.2580645 0.5882353
vt 0.2903226 0.5882353
vt 0.3225806 0.5882353
vt 0.8387097 0.5294118
vt 0.8709677 0.5294118
vt 0.9032258 0.5294118
vt 0.9354839 0.5294118
vt 0.9677419 0.5294118
vt 1 0.5294118
vt 0 0.5294118
vt 0.03225806 0.5294118
vt 0.06451613 0.5294118
vt 0.09677419 0.5294118
vt 0.1290323 0.5294118
vt 0.1612903 0.5294118
vt 0.1935484 0.5294118
vt 0.2258064 0.5294118
vt 0.2580645 0.5294118
vt 0.2903226 0.5294118
vt 0.3225806 0.5294118
vt 0.8387097 0.4705882
vt 0.8709677 0.4705882
vt 0.9032258 0.4705882
vt 0.9354839 0.4705882
vt 0.9677419 0.4705882
vt 1 0.4705882
vt 0 0.4705882
vt 0.03225806 0.4705882
vt 0.06451613 0.4705882
vt 0.09677419 0.4705882
vt 0.1290323 0.4705882
vt 0.1612903 0.4705882
vt 0.1935484 0.4705882
vt 0.2258064 0.4705882
vt 0.2580645 0.4705882
vt 0.2903226 0.4705882
vt 0.3225806 0.4705882
vt 0.8387097 0.4117647
vt 0.8709677 0.4117647
vt 0.9032258 0.4117647
vt 0.9354839 0.4117647
vt 0.9677419 0.4117647
vt 1 0.4117647
vt 0 0.4117647
vt 0.03225806 0.4117647
vt 0.06451613 0.4117647
vt 0.09677419 0.4117647
vt 0.1290323 0.4117647
vt 0.1612903 0.4117647
vt 0.1935484 0.4117647
vt 0.2258064 0.4117647
vt 0.2580645 0.4117647
vt 0.2903226 0.4117647
vt 0.3225806 0.4117647

# Normal
vn 0 0 -1

# Mesh description
g Map1_mesh_0007

# Faces
f 1/1/1 2/2/1 3/3/1 4/4/1
f 5/2/1 6/5/1 7/6/1 8/3/1
f 9/5/1 10/7/1 11/8/1 12/6/1
f 13/7/1 14/9/1 15/10/1 16/8/1
f 17/9/1 18/11/1 19/12/1 20/10/1
f 21/9/1 22/11/1 23/12/1 24/10/1
f 25/13/1 26/14/1 27/15/1 28/16/1
f 29/14/1 30/17/1 31/18/1 32/15/1
f 33/17/1 34/19/1 35/20/1 36/18/1
f 37/19/1 38/21/1 39/22/1 40/20/1
f 41/21/1 42/23/1 43/24/1 44/22/1
f 45/23/1 46/25/1 47/26/1 48/24/1
f 49/25/1 50/27/1 51/28/1 52/26/1
f 53/27/1 54/29/1 55/30/1 56/28/1
f 57/29/1 58/31/1 59/32/1 60/30/1
f 61/31/1 62/33/1 63/34/1 64/32/1
f 65/35/1 66/36/1 67/2/1 68/1/1
f 69/36/1 70/37/1 71/5/1 72/2/1
f 73/37/1 74/38/1 75/7/1 76/5/1
f 77/38/1 78/39/1 79/9/1 80/7/1
f 81/39/1 82/40/1 83/11/1 84/9/1
f 85/39/1 86/40/1 87/11/1 88/9/1
f 89/41/1 90/42/1 91/14/1 92/13/1
f 93/42/1 94/43/1 95/17/1 96/14/1
f 97/43/1 98/44/1 99/19/1 100/17/1
f 101/44/1 102/45/1 103/21/1 104/19/1
f 105/45/1 106/46/1 107/23/1 108/21/1
f 109/46/1 110/47/1 111/25/1 112/23/1
f 113/47/1 114/48/1 115/27/1 116/25/1
f 117/48/1 118/49/1 119/29/1 120/27/1
f 121/49/1 122/50/1 123/31/1 124/29/1
f 125/50/1 126/51/1 127/33/1 128/31/1
f 129/52/1 130/53/1 131/36/1 132/35/1
f 133/53/1 134/54/1 135/37/1 136/36/1
f 137/54/1 138/55/1 139/38/1 140/37/1
f 141/55/1 142/56/1 143/39/1 144/38/1
f 145/56/1 146/57/1 147/40/1 148/39/1
f 149/56/1 150/57/1 151/40/1 152/39/1
f 153/58/1 154/59/1 155/42/1 156/41/1
f 157/59/1 158/60/1 159/43/1 160/42/1
f 161/60/1 162/61/1 163/44/1 164/43/1
f 165/61/1 166/62/1 167/45/1 168/44/1
f 169/62/1 170/63/1 171/46/1 172/45/1
f 173/63/1 174/64/1 175/47/1 176/46/1
f 177/64/1 178/65/1 179/48/1 180/47/1
f 181/65/1 182/66/1 183/49/1 184/48/1
f 185/66/1 186/67/1 187/50/1 188/49/1
f 189/67/1 190/68/1 191/51/1 192/50/1
f 193/69/1 194/70/1 195/53/1 196/52/1
f 197/70/1 198/71/1 199/54/1 200/53/1
f 201/71/1 202/72/1 203/55/1 204/54/1
f 205/72/1 206/73/1 207/56/1 208/55/1
f 209/73/1 210/74/1 211/57/1 212/56/1
f 213/73/1 214/74/1 215/57/1 216/56/1
f 217/75/1 218/76/1 219/59/1 220/58/1
f 221/76/1 222/77/1 223/60/1 224/59/1
f 225/77/1 226/78/1 227/61/1 228/60/1
f 229/78/1 230/79/1 231/62/1 232/61/1
f 233/79/1 234/80/1 235/63/1 236/62/1
f 237/80/1 238/81/1 239/64/1 240/63/1
f 241/81/1 242/82/1 243/65/1 244/64/1
f 245/82/1 246/83/1 247/66/1 248/65/1
f 249/83/1 250/84/1 251/67/1 252/66/1
f 253/84/1 254/85/1 255/68/1 256/67/1
f 257/86/1 258/87/1 259/70/1 260/69/1
f 261/87/1 262/88/1 263/71/1 264/70/1
f 265/88/1 266/89/1 267/72/1 268/71/1
f 269/89/1 270/90/1 271/73/1 272/72/1
f 273/90/1 274/91/1 275/74/1 276/73/1
f 277/90/1 278/91/1 279/74/1 280/73/1
f 281/92/1 282/93/1 283/76/1 284/75/1
f 285/93/1 286/94/1 287/77/1 288/76/1
f 289/94/1 290/95/1 291/78/1 292/77/1
f 293/95/1 294/96/1 295/79/1 296/78/1
f 297/96/1 298/97/1 299/80/1 300/79/1
f 301/97/1 302/98/1 303/81/1 304/80/1
f 305/98/1 306/99/1 307/82/1 308/81/1
f 309/99/1 310/100/1 311/83/1 312/82/1
f 313/100/1 314/101/1 315/84/1 316/83/1
f 317/101/1 318/102/1 319/85/1 320/84/1
f 321/103/1 322/104/1 323/87/1 324/86/1
f 325/104/1 326/105/1 327/88/1 328/87/1
f 329/105/1 330/106/1 331/89/1 332/88/1
f 333/106/1 334/107/1 335/90/1 336/89/1
f 337/107/1 338/108/1 339/91/1 340/90/1
f 341/107/1 342/108/1 343/91/1 344/90/1
f 345/109/1 346/110/1 347/93/1 348/92/1
f 349/110/1 350/111/1 351/94/1 352/93/1
f 353/111/1 354/112/1 355/95/1 356/94/1
f 357/112/1 358/113/1 359/96/1 360/95/1
f 361/113/1 362/114/1 363/97/1 364/96/1
f 365/114/1 366/115/1 367/98/1 368/97/1
f 369/115/1 370/116/1 371/99/1 372/98/1
f 373/116/1 374/117/1 375/100/1 376/99/1
f 377/117/1 378/118/1 379/101/1 380/100/1
f 381/118/1 382/119/1 383/102/1 384/101/1
f 385/120/1 386/121/1 387/104/1 388/103/1
f 389/121/1 390/122/1 391/105/1 392/104/1
f 393/122/1 394/123/1 395/106/1 396/105/1
f 397/123/1 398/124/1 399/107/1 400/106/1
f 401/124/1 402/125/1 403/108/1 404/107/1
f 405/124/1 406/125/1 407/108/1 408/107/1
f 409/126/1 410/127/1 411/110/1 412/109/1
f 413/127/1 414/128/1 415/111/1 416/110/1
f 417/128/1 418/129/1 419/112/1 420/111/1
f 421/129/1 422/130/1 423/113/1 424/112/1
f 425/130/1 426/131/1 427/114/1 428/113/1
f 429/131/1 430/132/1 431/115/1 432/114/1
f 433/132/1 434/133/1 435/116/1 436/115/1
f 437/133/1 438/134/1 439/117/1 440/116/1
f 441/134/1 442/135/1 443/118/1 444/117/1
f 445/135/1 446/136/1 447/119/1 448/118/1
f 449/137/1 450/138/1 451/121/1 452/120/1
f 453/138/1 454/139/1 455/122/1 456/121/1
f 457/139/1 458/140/1 459/123/1 460/122/1
f 461/140/1 462/141/1 463/124/1 464/123/1
f 465/141/1 466/142/1 467/125/1 468/124/1
f 469/141/1 470/142/1 471/125/1 472/124/1
f 473/143/1 474/144/1 475/127/1 476/126/1
f 477/144/1 478/145/1 479/128/1 480/127/1
f 481/145/1 482/146/1 483/129/1 484/128/1
f 485/146/1 486/147/1 487/130/1 488/129/1
f 489/147/1 490/148/1 491/131/1 492/130/1
f 493/148/1 494/149/1 495/132/1 496/131/1
f 497/149/1 498/150/1 499/133/1 500/132/1
f 501/150/1 502/151/1 503/134/1 504/133/1
f 505/151/1 506/152/1 507/135/1 508/134/1
f 509/152/1 510/153/1 511/136/1 512/135/1
f 513/154/1 514/155/1 515/138/1 516/137/1
f 517/155/1 518/156/1 519/139/1 520/138/1
f 521/156/1 522/157/1 523/140/1 524/139/1
f 525/157/1 526/158/1 527/141/1 528/140/1
f 529/158/1 530/159/1 531/142/1 532/141/1
f 533/158/1 534/159/1 535/142/1 536/141/1
f 537/160/1 538/161/1 539/144/1 540/143/1
f 541/161/1 542/162/1 543/145/1 544/144/1
f 545/162/1 546/163/1 547/146/1 548/145/1
f 549/163/1 550/164/1 551/147/1 552/146/1
f 553/164/1 554/165/1 555/148/1 556/147/1
f 557/165/1 558/166/1 559/149/1 560/148/1
f 561/166/1 562/167/1 563/150/1 564/149/1
f 565/167/1 566/168/1 567/151/1 568/150/1
f 569/168/1 570/169/1 571/152/1 572/151/1
f 573/169/1 574/170/1 575/153/1 576/152/1
f 577/171/1 578/172/1 579/155/1 580/154/1
f 581/172/1 582/173/1 583/156/1 584/155/1
f 585/173/1 586/174/1 587/157/1 588/156/1
f 589/174/1 590/175/1 591/158/1 592/157/1
f 593/175/1 594/176/1 595/159/1 596/158/1
f 597/175/1 598/176/1 599/159/1 600/158/1
f 601/177/1 602/178/1 603/161/1 604/160/1
f 605/178/1 606/179/1 607/162/1 608/161/1
f 609/179/1 610/180/1 611/163/1 612/162/1
f 613/180/1 614/181/1 615/164/1 616/163/1
f 617/181/1 618/182/1 619/165/1 620/164/1
f 621/182/1 622/183/1 623/166/1 624/165/1
f 625/183/1 626/184/1 627/167/1 628/166/1
f 629/184/1 630/185/1 631/168/1 632/167/1
f 633/185/1 634/186/1 635/169/1 636/168/1
f 637/186/1 638/187/1 639/170/1 640/169/1

