# Tiled2Unity generated file. Do not modify by hand.
# Wavefront file for 'Map1_mesh_0151.obj'

# Vertices (Count = 24)
v -48 -16 0
v -64 -16 0
v -64 0 0
v -48 0 0
v -96 -16 0
v -112 -16 0
v -112 0 0
v -96 0 0
v 0 -64 0
v -16 -64 0
v -16 -48 0
v 0 -48 0
v -160 -64 0
v -176 -64 0
v -176 -48 0
v -160 -48 0
v 0 -80 0
v -16 -80 0
v -16 -64 0
v 0 -64 0
v -176 -80 0
v -192 -80 0
v -192 -64 0
v -176 -64 0

# Texture cooridinates (Count = 4)
vt 0.1020553 0.5294118
vt 0.1133948 0.5294118
vt 0.1133948 0.5588235
vt 0.1020553 0.5588235

# Normal
vn 0 0 -1

# Mesh description
g Map1_mesh_0151

# Faces
f 1/1/1 2/2/1 3/3/1 4/4/1
f 5/1/1 6/2/1 7/3/1 8/4/1
f 9/1/1 10/2/1 11/3/1 12/4/1
f 13/1/1 14/2/1 15/3/1 16/4/1
f 17/1/1 18/2/1 19/3/1 20/4/1
f 21/1/1 22/2/1 23/3/1 24/4/1

