# Tiled2Unity generated file. Do not modify by hand.
# Wavefront file for 'Map1_mesh_0299.obj'

# Vertices (Count = 72)
v -192 -16 0
v -208 -16 0
v -208 0 0
v -192 0 0
v -224 -16 0
v -240 -16 0
v -240 0 0
v -224 0 0
v 0 -144 0
v -16 -144 0
v -16 -128 0
v 0 -128 0
v -80 -144 0
v -96 -144 0
v -96 -128 0
v -80 -128 0
v 0 -160 0
v -16 -160 0
v -16 -144 0
v 0 -144 0
v -80 -160 0
v -96 -160 0
v -96 -144 0
v -80 -144 0
v -80 -176 0
v -96 -176 0
v -96 -160 0
v -80 -160 0
v -80 -192 0
v -96 -192 0
v -96 -176 0
v -80 -176 0
v -208 -192 0
v -224 -192 0
v -224 -176 0
v -208 -176 0
v -224 -192 0
v -240 -192 0
v -240 -176 0
v -224 -176 0
v -240 -192 0
v -256 -192 0
v -256 -176 0
v -240 -176 0
v -80 -208 0
v -96 -208 0
v -96 -192 0
v -80 -192 0
v -80 -224 0
v -96 -224 0
v -96 -208 0
v -80 -208 0
v -80 -240 0
v -96 -240 0
v -96 -224 0
v -80 -224 0
v -80 -256 0
v -96 -256 0
v -96 -240 0
v -80 -240 0
v -112 -256 0
v -128 -256 0
v -128 -240 0
v -112 -240 0
v -128 -256 0
v -144 -256 0
v -144 -240 0
v -128 -240 0
v -144 -256 0
v -160 -256 0
v -160 -240 0
v -144 -240 0

# Texture cooridinates (Count = 24)
vt 0.04 0.8
vt 0.08 0.8
vt 0.08 0.84
vt 0.04 0.84
vt 0.12 0.8
vt 0.16 0.8
vt 0.16 0.84
vt 0.12 0.84
vt 0.04 0.96
vt 0.08 0.96
vt 0.08 1
vt 0.04 1
vt 0.12 0.96
vt 0.16 0.96
vt 0.16 1
vt 0.12 1
vt 0 0.88
vt 0.04 0.88
vt 0.04 0.92
vt 0 0.92
vt 0.16 0.88
vt 0.2 0.88
vt 0.2 0.92
vt 0.16 0.92

# Normal
vn 0 0 -1

# Mesh description
g Map1_mesh_0299

# Faces
f 1/1/1 2/2/1 3/3/1 4/4/1
f 5/5/1 6/6/1 7/7/1 8/8/1
f 9/9/1 10/10/1 11/11/1 12/12/1
f 13/13/1 14/14/1 15/15/1 16/16/1
f 17/17/1 18/18/1 19/19/1 20/20/1
f 21/21/1 22/22/1 23/23/1 24/24/1
f 25/21/1 26/22/1 27/23/1 28/24/1
f 29/21/1 30/22/1 31/23/1 32/24/1
f 33/9/1 34/10/1 35/11/1 36/12/1
f 37/10/1 38/13/1 39/16/1 40/11/1
f 41/13/1 42/14/1 43/15/1 44/16/1
f 45/21/1 46/22/1 47/23/1 48/24/1
f 49/21/1 50/22/1 51/23/1 52/24/1
f 53/21/1 54/22/1 55/23/1 56/24/1
f 57/5/1 58/6/1 59/7/1 60/8/1
f 61/9/1 62/10/1 63/11/1 64/12/1
f 65/10/1 66/13/1 67/16/1 68/11/1
f 69/13/1 70/14/1 71/15/1 72/16/1

