# Tiled2Unity generated file. Do not modify by hand.
# Wavefront file for 'Map1_mesh_0207.obj'

# Vertices (Count = 40)
v -48 -144 0
v -64 -144 0
v -64 -128 0
v -48 -128 0
v -160 -144 0
v -176 -144 0
v -176 -128 0
v -160 -128 0
v -160 -160 0
v -176 -160 0
v -176 -144 0
v -160 -144 0
v -176 -192 0
v -192 -192 0
v -192 -176 0
v -176 -176 0
v -192 -192 0
v -208 -192 0
v -208 -176 0
v -192 -176 0
v -176 -208 0
v -192 -208 0
v -192 -192 0
v -176 -192 0
v -192 -208 0
v -208 -208 0
v -208 -192 0
v -192 -192 0
v -176 -224 0
v -192 -224 0
v -192 -208 0
v -176 -208 0
v -192 -224 0
v -208 -224 0
v -208 -208 0
v -192 -208 0
v -144 -256 0
v -160 -256 0
v -160 -240 0
v -144 -240 0

# Texture cooridinates (Count = 22)
vt 0.4 0.88
vt 0.44 0.88
vt 0.44 0.92
vt 0.4 0.92
vt 0.44 0.96
vt 0.4 0.96
vt 0.2 0.52
vt 0.24 0.52
vt 0.24 0.56
vt 0.2 0.56
vt 0.28 0.52
vt 0.28 0.56
vt 0.2 0.48
vt 0.24 0.48
vt 0.28 0.48
vt 0.2 0.44
vt 0.24 0.44
vt 0.28 0.44
vt 0.52 0.88
vt 0.56 0.88
vt 0.56 0.92
vt 0.52 0.92

# Normal
vn 0 0 -1

# Mesh description
g Map1_mesh_0207

# Faces
f 1/1/1 2/2/1 3/3/1 4/4/1
f 5/4/1 6/3/1 7/5/1 8/6/1
f 9/1/1 10/2/1 11/3/1 12/4/1
f 13/7/1 14/8/1 15/9/1 16/10/1
f 17/8/1 18/11/1 19/12/1 20/9/1
f 21/13/1 22/14/1 23/8/1 24/7/1
f 25/14/1 26/15/1 27/11/1 28/8/1
f 29/16/1 30/17/1 31/14/1 32/13/1
f 33/17/1 34/18/1 35/15/1 36/14/1
f 37/19/1 38/20/1 39/21/1 40/22/1

