# Tiled2Unity generated file. Do not modify by hand.
# Wavefront file for 'Map1_mesh_0233.obj'

# Vertices (Count = 32)
v 0 -128 0
v -16 -128 0
v -16 -112 0
v 0 -112 0
v -16 -128 0
v -32 -128 0
v -32 -112 0
v -16 -112 0
v -32 -128 0
v -48 -128 0
v -48 -112 0
v -32 -112 0
v -48 -128 0
v -64 -128 0
v -64 -112 0
v -48 -112 0
v -64 -128 0
v -80 -128 0
v -80 -112 0
v -64 -112 0
v -80 -128 0
v -96 -128 0
v -96 -112 0
v -80 -112 0
v -96 -128 0
v -112 -128 0
v -112 -112 0
v -96 -112 0
v -112 -128 0
v -128 -128 0
v -128 -112 0
v -112 -112 0

# Texture cooridinates (Count = 20)
vt 0.2041106 0.8823529
vt 0.21545 0.8823529
vt 0.21545 0.9117647
vt 0.2041106 0.9117647
vt 0.2267895 0.8823529
vt 0.2267895 0.9117647
vt 0.238129 0.8823529
vt 0.238129 0.9117647
vt 0.1133948 0.8823529
vt 0.1247342 0.8823529
vt 0.1247342 0.9117647
vt 0.1133948 0.9117647
vt 0.1360737 0.8823529
vt 0.1360737 0.9117647
vt 0.1474132 0.8823529
vt 0.1474132 0.9117647
vt 0.1587527 0.8823529
vt 0.1587527 0.9117647
vt 0.1700921 0.8823529
vt 0.1700921 0.9117647

# Normal
vn 0 0 -1

# Mesh description
g Map1_mesh_0233

# Faces
f 1/1/1 2/2/1 3/3/1 4/4/1
f 5/2/1 6/5/1 7/6/1 8/3/1
f 9/5/1 10/7/1 11/8/1 12/6/1
f 13/9/1 14/10/1 15/11/1 16/12/1
f 17/10/1 18/13/1 19/14/1 20/11/1
f 21/13/1 22/15/1 23/16/1 24/14/1
f 25/15/1 26/17/1 27/18/1 28/16/1
f 29/17/1 30/19/1 31/20/1 32/18/1

