# Tiled2Unity generated file. Do not modify by hand.
# Wavefront file for 'Map1_mesh_0238.obj'

# Vertices (Count = 56)
v -224 -48 0
v -240 -48 0
v -240 -32 0
v -224 -32 0
v -224 -64 0
v -240 -64 0
v -240 -48 0
v -224 -48 0
v 0 -80 0
v -16 -80 0
v -16 -64 0
v 0 -64 0
v -16 -80 0
v -32 -80 0
v -32 -64 0
v -16 -64 0
v -144 -80 0
v -160 -80 0
v -160 -64 0
v -144 -64 0
v 0 -96 0
v -16 -96 0
v -16 -80 0
v 0 -80 0
v -16 -96 0
v -32 -96 0
v -32 -80 0
v -16 -80 0
v -144 -96 0
v -160 -96 0
v -160 -80 0
v -144 -80 0
v 0 -112 0
v -16 -112 0
v -16 -96 0
v 0 -96 0
v -16 -112 0
v -32 -112 0
v -32 -96 0
v -16 -96 0
v -64 -160 0
v -80 -160 0
v -80 -144 0
v -64 -144 0
v -80 -160 0
v -96 -160 0
v -96 -144 0
v -80 -144 0
v -64 -176 0
v -80 -176 0
v -80 -160 0
v -64 -160 0
v -80 -176 0
v -96 -176 0
v -96 -160 0
v -80 -160 0

# Texture cooridinates (Count = 24)
vt 0.4 0.92
vt 0.44 0.92
vt 0.44 0.96
vt 0.4 0.96
vt 0.4 0.88
vt 0.44 0.88
vt 0.6 0.8
vt 0.64 0.8
vt 0.64 0.84
vt 0.6 0.84
vt 0.68 0.8
vt 0.68 0.84
vt 0.6 0.76
vt 0.64 0.76
vt 0.68 0.76
vt 0.6 0.72
vt 0.64 0.72
vt 0.68 0.72
vt 0.72 0.76
vt 0.72 0.8
vt 0.76 0.76
vt 0.76 0.8
vt 0.72 0.72
vt 0.76 0.72

# Normal
vn 0 0 -1

# Mesh description
g Map1_mesh_0238

# Faces
f 1/1/1 2/2/1 3/3/1 4/4/1
f 5/5/1 6/6/1 7/2/1 8/1/1
f 9/7/1 10/8/1 11/9/1 12/10/1
f 13/8/1 14/11/1 15/12/1 16/9/1
f 17/1/1 18/2/1 19/3/1 20/4/1
f 21/13/1 22/14/1 23/8/1 24/7/1
f 25/14/1 26/15/1 27/11/1 28/8/1
f 29/5/1 30/6/1 31/2/1 32/1/1
f 33/16/1 34/17/1 35/14/1 36/13/1
f 37/17/1 38/18/1 39/15/1 40/14/1
f 41/15/1 42/19/1 43/20/1 44/11/1
f 45/19/1 46/21/1 47/22/1 48/20/1
f 49/18/1 50/23/1 51/19/1 52/15/1
f 53/23/1 54/24/1 55/21/1 56/19/1

