# Tiled2Unity generated file. Do not modify by hand.
# Wavefront file for 'Map1_mesh_0269.obj'

# Vertices (Count = 68)
v -48 -144 0
v -64 -144 0
v -64 -128 0
v -48 -128 0
v -48 -160 0
v -64 -160 0
v -64 -144 0
v -48 -144 0
v -160 -176 0
v -176 -176 0
v -176 -160 0
v -160 -160 0
v -176 -176 0
v -192 -176 0
v -192 -160 0
v -176 -160 0
v -192 -176 0
v -208 -176 0
v -208 -160 0
v -192 -160 0
v -208 -176 0
v -224 -176 0
v -224 -160 0
v -208 -160 0
v -224 -176 0
v -240 -176 0
v -240 -160 0
v -224 -160 0
v -240 -176 0
v -256 -176 0
v -256 -160 0
v -240 -160 0
v -32 -208 0
v -48 -208 0
v -48 -192 0
v -32 -192 0
v -48 -208 0
v -64 -208 0
v -64 -192 0
v -48 -192 0
v -32 -224 0
v -48 -224 0
v -48 -208 0
v -32 -208 0
v -48 -224 0
v -64 -224 0
v -64 -208 0
v -48 -208 0
v -240 -224 0
v -256 -224 0
v -256 -208 0
v -240 -208 0
v -32 -240 0
v -48 -240 0
v -48 -224 0
v -32 -224 0
v -48 -240 0
v -64 -240 0
v -64 -224 0
v -48 -224 0
v -240 -240 0
v -256 -240 0
v -256 -224 0
v -240 -224 0
v -240 -256 0
v -256 -256 0
v -256 -240 0
v -240 -240 0

# Texture cooridinates (Count = 24)
vt 0.4 0.92
vt 0.44 0.92
vt 0.44 0.96
vt 0.4 0.96
vt 0.4 0.88
vt 0.44 0.88
vt 0.28 0.92
vt 0.32 0.92
vt 0.32 0.96
vt 0.28 0.96
vt 0.36 0.92
vt 0.36 0.96
vt 0.2 0.52
vt 0.24 0.52
vt 0.24 0.56
vt 0.2 0.56
vt 0.28 0.52
vt 0.28 0.56
vt 0.2 0.48
vt 0.24 0.48
vt 0.28 0.48
vt 0.2 0.44
vt 0.24 0.44
vt 0.28 0.44

# Normal
vn 0 0 -1

# Mesh description
g Map1_mesh_0269

# Faces
f 1/1/1 2/2/1 3/3/1 4/4/1
f 5/5/1 6/6/1 7/2/1 8/1/1
f 9/7/1 10/8/1 11/9/1 12/10/1
f 13/8/1 14/11/1 15/12/1 16/9/1
f 17/11/1 18/1/1 19/4/1 20/12/1
f 21/7/1 22/8/1 23/9/1 24/10/1
f 25/8/1 26/11/1 27/12/1 28/9/1
f 29/11/1 30/1/1 31/4/1 32/12/1
f 33/13/1 34/14/1 35/15/1 36/16/1
f 37/14/1 38/17/1 39/18/1 40/15/1
f 41/19/1 42/20/1 43/14/1 44/13/1
f 45/20/1 46/21/1 47/17/1 48/14/1
f 49/13/1 50/14/1 51/15/1 52/16/1
f 53/22/1 54/23/1 55/20/1 56/19/1
f 57/23/1 58/24/1 59/21/1 60/20/1
f 61/19/1 62/20/1 63/14/1 64/13/1
f 65/22/1 66/23/1 67/20/1 68/19/1

