# Tiled2Unity generated file. Do not modify by hand.
# Wavefront file for 'Map1_mesh_0134.obj'

# Vertices (Count = 116)
v 0 -16 0
v -16 -16 0
v -16 0 0
v 0 0 0
v -16 -16 0
v -32 -16 0
v -32 0 0
v -16 0 0
v -32 -16 0
v -48 -16 0
v -48 0 0
v -32 0 0
v -48 -16 0
v -64 -16 0
v -64 0 0
v -48 0 0
v -64 -16 0
v -80 -16 0
v -80 0 0
v -64 0 0
v -80 -16 0
v -96 -16 0
v -96 0 0
v -80 0 0
v -96 -16 0
v -112 -16 0
v -112 0 0
v -96 0 0
v -112 -16 0
v -128 -16 0
v -128 0 0
v -112 0 0
v -128 -16 0
v -144 -16 0
v -144 0 0
v -128 0 0
v -144 -16 0
v -160 -16 0
v -160 0 0
v -144 0 0
v -160 -16 0
v -176 -16 0
v -176 0 0
v -160 0 0
v -176 -16 0
v -192 -16 0
v -192 0 0
v -176 0 0
v -192 -16 0
v -208 -16 0
v -208 0 0
v -192 0 0
v -208 -16 0
v -224 -16 0
v -224 0 0
v -208 0 0
v -224 -16 0
v -240 -16 0
v -240 0 0
v -224 0 0
v -240 -16 0
v -256 -16 0
v -256 0 0
v -240 0 0
v 0 -32 0
v -16 -32 0
v -16 -16 0
v 0 -16 0
v -16 -32 0
v -32 -32 0
v -32 -16 0
v -16 -16 0
v -32 -32 0
v -48 -32 0
v -48 -16 0
v -32 -16 0
v -48 -32 0
v -64 -32 0
v -64 -16 0
v -48 -16 0
v -64 -32 0
v -80 -32 0
v -80 -16 0
v -64 -16 0
v -80 -32 0
v -96 -32 0
v -96 -16 0
v -80 -16 0
v -144 -32 0
v -160 -32 0
v -160 -16 0
v -144 -16 0
v -160 -32 0
v -176 -32 0
v -176 -16 0
v -160 -16 0
v -176 -32 0
v -192 -32 0
v -192 -16 0
v -176 -16 0
v -192 -32 0
v -208 -32 0
v -208 -16 0
v -192 -16 0
v -208 -32 0
v -224 -32 0
v -224 -16 0
v -208 -16 0
v -224 -32 0
v -240 -32 0
v -240 -16 0
v -224 -16 0
v -240 -32 0
v -256 -32 0
v -256 -16 0
v -240 -16 0

# Texture cooridinates (Count = 51)
vt 0.4 0.5862069
vt 0.4285714 0.5862069
vt 0.4285714 0.6091954
vt 0.4 0.6091954
vt 0.4571429 0.5862069
vt 0.4571429 0.6091954
vt 0.4857143 0.5862069
vt 0.4857143 0.6091954
vt 0.5142857 0.5862069
vt 0.5142857 0.6091954
vt 0.5428572 0.5862069
vt 0.5428572 0.6091954
vt 0.5714286 0.5862069
vt 0.5714286 0.6091954
vt 0.6 0.5862069
vt 0.6 0.6091954
vt 0.6285715 0.5862069
vt 0.6285715 0.6091954
vt 0.6571429 0.5862069
vt 0.6571429 0.6091954
vt 0.3428572 0.816092
vt 0.3714286 0.816092
vt 0.3714286 0.8390805
vt 0.3428572 0.8390805
vt 0.4 0.816092
vt 0.4 0.8390805
vt 0.4285714 0.816092
vt 0.4285714 0.8390805
vt 0.4571429 0.816092
vt 0.4571429 0.8390805
vt 0.4857143 0.816092
vt 0.4857143 0.8390805
vt 0.5142857 0.816092
vt 0.5142857 0.8390805
vt 0.5428572 0.816092
vt 0.5428572 0.8390805
vt 0.4 0.5632184
vt 0.4285714 0.5632184
vt 0.4571429 0.5632184
vt 0.4857143 0.5632184
vt 0.5142857 0.5632184
vt 0.5428572 0.5632184
vt 0.5714286 0.5632184
vt 0.3428572 0.7931035
vt 0.3714286 0.7931035
vt 0.4 0.7931035
vt 0.4285714 0.7931035
vt 0.4571429 0.7931035
vt 0.4857143 0.7931035
vt 0.5142857 0.7931035
vt 0.5428572 0.7931035

# Normal
vn 0 0 -1

# Mesh description
g Map1_mesh_0134

# Faces
f 1/1/1 2/2/1 3/3/1 4/4/1
f 5/2/1 6/5/1 7/6/1 8/3/1
f 9/5/1 10/7/1 11/8/1 12/6/1
f 13/7/1 14/9/1 15/10/1 16/8/1
f 17/9/1 18/11/1 19/12/1 20/10/1
f 21/11/1 22/13/1 23/14/1 24/12/1
f 25/13/1 26/15/1 27/16/1 28/14/1
f 29/15/1 30/17/1 31/18/1 32/16/1
f 33/17/1 34/19/1 35/20/1 36/18/1
f 37/21/1 38/22/1 39/23/1 40/24/1
f 41/22/1 42/25/1 43/26/1 44/23/1
f 45/25/1 46/27/1 47/28/1 48/26/1
f 49/27/1 50/29/1 51/30/1 52/28/1
f 53/29/1 54/31/1 55/32/1 56/30/1
f 57/31/1 58/33/1 59/34/1 60/32/1
f 61/33/1 62/35/1 63/36/1 64/34/1
f 65/37/1 66/38/1 67/2/1 68/1/1
f 69/38/1 70/39/1 71/5/1 72/2/1
f 73/39/1 74/40/1 75/7/1 76/5/1
f 77/40/1 78/41/1 79/9/1 80/7/1
f 81/41/1 82/42/1 83/11/1 84/9/1
f 85/42/1 86/43/1 87/13/1 88/11/1
f 89/44/1 90/45/1 91/22/1 92/21/1
f 93/45/1 94/46/1 95/25/1 96/22/1
f 97/46/1 98/47/1 99/27/1 100/25/1
f 101/47/1 102/48/1 103/29/1 104/27/1
f 105/48/1 106/49/1 107/31/1 108/29/1
f 109/49/1 110/50/1 111/33/1 112/31/1
f 113/50/1 114/51/1 115/35/1 116/33/1

