# Tiled2Unity generated file. Do not modify by hand.
# Wavefront file for 'Map1_mesh_0278.obj'

# Vertices (Count = 60)
v 0 -240 0
v -16 -240 0
v -16 -224 0
v 0 -224 0
v -16 -240 0
v -32 -240 0
v -32 -224 0
v -16 -224 0
v -48 -240 0
v -64 -240 0
v -64 -224 0
v -48 -224 0
v -64 -240 0
v -80 -240 0
v -80 -224 0
v -64 -224 0
v -80 -240 0
v -96 -240 0
v -96 -224 0
v -80 -224 0
v -112 -240 0
v -128 -240 0
v -128 -224 0
v -112 -224 0
v -128 -240 0
v -144 -240 0
v -144 -224 0
v -128 -224 0
v -144 -240 0
v -160 -240 0
v -160 -224 0
v -144 -224 0
v -160 -240 0
v -176 -240 0
v -176 -224 0
v -160 -224 0
v -176 -240 0
v -192 -240 0
v -192 -224 0
v -176 -224 0
v -240 -240 0
v -256 -240 0
v -256 -224 0
v -240 -224 0
v -32 -256 0
v -48 -256 0
v -48 -240 0
v -32 -240 0
v -96 -256 0
v -112 -256 0
v -112 -240 0
v -96 -240 0
v -192 -256 0
v -208 -256 0
v -208 -240 0
v -192 -240 0
v -224 -256 0
v -240 -256 0
v -240 -240 0
v -224 -240 0

# Texture cooridinates (Count = 40)
vt 0.2948264 0.9411765
vt 0.3061658 0.9411765
vt 0.3061658 0.9705882
vt 0.2948264 0.9705882
vt 0.3175053 0.9411765
vt 0.3175053 0.9705882
vt 0.3288448 0.9411765
vt 0.3401843 0.9411765
vt 0.3401843 0.9705882
vt 0.3288448 0.9705882
vt 0.3515237 0.9411765
vt 0.3515237 0.9705882
vt 0.3628632 0.9411765
vt 0.3628632 0.9705882
vt 0.3742027 0.9411765
vt 0.3855422 0.9411765
vt 0.3855422 0.9705882
vt 0.3742027 0.9705882
vt 0.3968816 0.9411765
vt 0.3968816 0.9705882
vt 0.4082211 0.9411765
vt 0.4082211 0.9705882
vt 0.4195606 0.9411765
vt 0.4195606 0.9705882
vt 0.4309001 0.9411765
vt 0.4309001 0.9705882
vt 0.4649185 0.9411765
vt 0.476258 0.9411765
vt 0.476258 0.9705882
vt 0.4649185 0.9705882
vt 0.3175053 0.9117647
vt 0.3288448 0.9117647
vt 0.3628632 0.9117647
vt 0.3742027 0.9117647
vt 0.4309001 0.9117647
vt 0.4422396 0.9117647
vt 0.4422396 0.9411765
vt 0.453579 0.9117647
vt 0.4649185 0.9117647
vt 0.453579 0.9411765

# Normal
vn 0 0 -1

# Mesh description
g Map1_mesh_0278

# Faces
f 1/1/1 2/2/1 3/3/1 4/4/1
f 5/2/1 6/5/1 7/6/1 8/3/1
f 9/7/1 10/8/1 11/9/1 12/10/1
f 13/8/1 14/11/1 15/12/1 16/9/1
f 17/11/1 18/13/1 19/14/1 20/12/1
f 21/15/1 22/16/1 23/17/1 24/18/1
f 25/16/1 26/19/1 27/20/1 28/17/1
f 29/19/1 30/21/1 31/22/1 32/20/1
f 33/21/1 34/23/1 35/24/1 36/22/1
f 37/23/1 38/25/1 39/26/1 40/24/1
f 41/27/1 42/28/1 43/29/1 44/30/1
f 45/31/1 46/32/1 47/7/1 48/5/1
f 49/33/1 50/34/1 51/15/1 52/13/1
f 53/35/1 54/36/1 55/37/1 56/25/1
f 57/38/1 58/39/1 59/27/1 60/40/1

