# Tiled2Unity generated file. Do not modify by hand.
# Wavefront file for 'Map1_mesh_0264.obj'

# Vertices (Count = 64)
v -32 -128 0
v -48 -128 0
v -48 -112 0
v -32 -112 0
v -240 -128 0
v -256 -128 0
v -256 -112 0
v -240 -112 0
v -32 -144 0
v -48 -144 0
v -48 -128 0
v -32 -128 0
v -144 -144 0
v -160 -144 0
v -160 -128 0
v -144 -128 0
v -240 -144 0
v -256 -144 0
v -256 -128 0
v -240 -128 0
v 0 -160 0
v -16 -160 0
v -16 -144 0
v 0 -144 0
v -16 -160 0
v -32 -160 0
v -32 -144 0
v -16 -144 0
v -32 -160 0
v -48 -160 0
v -48 -144 0
v -32 -144 0
v -48 -160 0
v -64 -160 0
v -64 -144 0
v -48 -144 0
v -64 -160 0
v -80 -160 0
v -80 -144 0
v -64 -144 0
v -80 -160 0
v -96 -160 0
v -96 -144 0
v -80 -144 0
v -96 -160 0
v -112 -160 0
v -112 -144 0
v -96 -144 0
v -112 -160 0
v -128 -160 0
v -128 -144 0
v -112 -144 0
v -144 -160 0
v -160 -160 0
v -160 -144 0
v -144 -144 0
v -224 -160 0
v -240 -160 0
v -240 -144 0
v -224 -144 0
v -240 -160 0
v -256 -160 0
v -256 -144 0
v -240 -144 0

# Texture cooridinates (Count = 12)
vt 0.4 0.92
vt 0.44 0.92
vt 0.44 0.96
vt 0.4 0.96
vt 0.4 0.88
vt 0.44 0.88
vt 0.32 0.92
vt 0.36 0.92
vt 0.36 0.96
vt 0.32 0.96
vt 0.28 0.92
vt 0.28 0.96

# Normal
vn 0 0 -1

# Mesh description
g Map1_mesh_0264

# Faces
f 1/1/1 2/2/1 3/3/1 4/4/1
f 5/1/1 6/2/1 7/3/1 8/4/1
f 9/5/1 10/6/1 11/2/1 12/1/1
f 13/1/1 14/2/1 15/3/1 16/4/1
f 17/5/1 18/6/1 19/2/1 20/1/1
f 21/7/1 22/8/1 23/9/1 24/10/1
f 25/8/1 26/1/1 27/4/1 28/9/1
f 29/11/1 30/7/1 31/10/1 32/12/1
f 33/7/1 34/8/1 35/9/1 36/10/1
f 37/8/1 38/1/1 39/4/1 40/9/1
f 41/11/1 42/7/1 43/10/1 44/12/1
f 45/7/1 46/8/1 47/9/1 48/10/1
f 49/8/1 50/1/1 51/4/1 52/9/1
f 53/5/1 54/6/1 55/2/1 56/1/1
f 57/11/1 58/7/1 59/10/1 60/12/1
f 61/7/1 62/8/1 63/9/1 64/10/1

