# Tiled2Unity generated file. Do not modify by hand.
# Wavefront file for 'Map1_mesh_0351.obj'

# Vertices (Count = 124)
v -144 -16 0
v -160 -16 0
v -160 0 0
v -144 0 0
v -160 -16 0
v -176 -16 0
v -176 0 0
v -160 0 0
v -176 -16 0
v -192 -16 0
v -192 0 0
v -176 0 0
v -192 -16 0
v -208 -16 0
v -208 0 0
v -192 0 0
v -224 -16 0
v -240 -16 0
v -240 0 0
v -224 0 0
v -112 -32 0
v -128 -32 0
v -128 -16 0
v -112 -16 0
v -128 -32 0
v -144 -32 0
v -144 -16 0
v -128 -16 0
v -144 -32 0
v -160 -32 0
v -160 -16 0
v -144 -16 0
v -160 -32 0
v -176 -32 0
v -176 -16 0
v -160 -16 0
v -192 -32 0
v -208 -32 0
v -208 -16 0
v -192 -16 0
v -224 -32 0
v -240 -32 0
v -240 -16 0
v -224 -16 0
v 0 -48 0
v -16 -48 0
v -16 -32 0
v 0 -32 0
v -16 -48 0
v -32 -48 0
v -32 -32 0
v -16 -32 0
v -32 -48 0
v -48 -48 0
v -48 -32 0
v -32 -32 0
v -48 -48 0
v -64 -48 0
v -64 -32 0
v -48 -32 0
v -64 -48 0
v -80 -48 0
v -80 -32 0
v -64 -32 0
v -80 -48 0
v -96 -48 0
v -96 -32 0
v -80 -32 0
v -96 -48 0
v -112 -48 0
v -112 -32 0
v -96 -32 0
v -112 -48 0
v -128 -48 0
v -128 -32 0
v -112 -32 0
v -128 -48 0
v -144 -48 0
v -144 -32 0
v -128 -32 0
v -160 -48 0
v -176 -48 0
v -176 -32 0
v -160 -32 0
v -192 -48 0
v -208 -48 0
v -208 -32 0
v -192 -32 0
v -32 -64 0
v -48 -64 0
v -48 -48 0
v -32 -48 0
v -96 -64 0
v -112 -64 0
v -112 -48 0
v -96 -48 0
v -128 -64 0
v -144 -64 0
v -144 -48 0
v -128 -48 0
v -160 -64 0
v -176 -64 0
v -176 -48 0
v -160 -48 0
v -32 -80 0
v -48 -80 0
v -48 -64 0
v -32 -64 0
v -96 -80 0
v -112 -80 0
v -112 -64 0
v -96 -64 0
v -128 -80 0
v -144 -80 0
v -144 -64 0
v -128 -64 0
v -32 -96 0
v -48 -96 0
v -48 -80 0
v -32 -80 0
v -96 -96 0
v -112 -96 0
v -112 -80 0
v -96 -80 0

# Texture cooridinates (Count = 25)
vt 0.04 0.96
vt 0.08 0.96
vt 0.08 1
vt 0.04 1
vt 0.2 0.92
vt 0.24 0.92
vt 0.24 0.96
vt 0.2 0.96
vt 0.04 0.92
vt 0.08 0.92
vt 0.2 0.88
vt 0.24 0.88
vt 0.2 0.84
vt 0.24 0.84
vt 0.2 0.8
vt 0.24 0.8
vt 0.32 0.96
vt 0.36 0.96
vt 0.36 1
vt 0.32 1
vt 0.4 0.96
vt 0.4 1
vt 0.28 0.96
vt 0.28 1
vt 0.24 1

# Normal
vn 0 0 -1

# Mesh description
g Map1_mesh_0351

# Faces
f 1/1/1 2/2/1 3/3/1 4/4/1
f 5/5/1 6/6/1 7/7/1 8/8/1
f 9/9/1 10/10/1 11/2/1 12/1/1
f 13/11/1 14/12/1 15/6/1 16/5/1
f 17/13/1 18/14/1 19/12/1 20/11/1
f 21/1/1 22/2/1 23/3/1 24/4/1
f 25/5/1 26/6/1 27/7/1 28/8/1
f 29/9/1 30/10/1 31/2/1 32/1/1
f 33/11/1 34/12/1 35/6/1 36/5/1
f 37/13/1 38/14/1 39/12/1 40/11/1
f 41/15/1 42/16/1 43/14/1 44/13/1
f 45/17/1 46/18/1 47/19/1 48/20/1
f 49/18/1 50/21/1 51/22/1 52/19/1
f 53/5/1 54/6/1 55/7/1 56/8/1
f 57/7/1 58/23/1 59/24/1 60/25/1
f 61/23/1 62/17/1 63/20/1 64/24/1
f 65/17/1 66/18/1 67/19/1 68/20/1
f 69/5/1 70/6/1 71/7/1 72/8/1
f 73/9/1 74/10/1 75/2/1 76/1/1
f 77/11/1 78/12/1 79/6/1 80/5/1
f 81/13/1 82/14/1 83/12/1 84/11/1
f 85/15/1 86/16/1 87/14/1 88/13/1
f 89/11/1 90/12/1 91/6/1 92/5/1
f 93/11/1 94/12/1 95/6/1 96/5/1
f 97/13/1 98/14/1 99/12/1 100/11/1
f 101/15/1 102/16/1 103/14/1 104/13/1
f 105/13/1 106/14/1 107/12/1 108/11/1
f 109/13/1 110/14/1 111/12/1 112/11/1
f 113/15/1 114/16/1 115/14/1 116/13/1
f 117/15/1 118/16/1 119/14/1 120/13/1
f 121/15/1 122/16/1 123/14/1 124/13/1

