# Tiled2Unity generated file. Do not modify by hand.
# Wavefront file for 'Map1_mesh_0312.obj'

# Vertices (Count = 68)
v -64 -16 0
v -80 -16 0
v -80 0 0
v -64 0 0
v -64 -32 0
v -80 -32 0
v -80 -16 0
v -64 -16 0
v -160 -112 0
v -176 -112 0
v -176 -96 0
v -160 -96 0
v -64 -128 0
v -80 -128 0
v -80 -112 0
v -64 -112 0
v -96 -128 0
v -112 -128 0
v -112 -112 0
v -96 -112 0
v -160 -128 0
v -176 -128 0
v -176 -112 0
v -160 -112 0
v -224 -128 0
v -240 -128 0
v -240 -112 0
v -224 -112 0
v -64 -144 0
v -80 -144 0
v -80 -128 0
v -64 -128 0
v -176 -144 0
v -192 -144 0
v -192 -128 0
v -176 -128 0
v -208 -144 0
v -224 -144 0
v -224 -128 0
v -208 -128 0
v -64 -160 0
v -80 -160 0
v -80 -144 0
v -64 -144 0
v -64 -176 0
v -80 -176 0
v -80 -160 0
v -64 -160 0
v -64 -192 0
v -80 -192 0
v -80 -176 0
v -64 -176 0
v -64 -208 0
v -80 -208 0
v -80 -192 0
v -64 -192 0
v -64 -224 0
v -80 -224 0
v -80 -208 0
v -64 -208 0
v -64 -240 0
v -80 -240 0
v -80 -224 0
v -64 -224 0
v -64 -256 0
v -80 -256 0
v -80 -240 0
v -64 -240 0

# Texture cooridinates (Count = 18)
vt 0.16 0.88
vt 0.2 0.88
vt 0.2 0.92
vt 0.16 0.92
vt 0.12 0.92
vt 0.16 0.96
vt 0.12 0.96
vt 0.04 0.84
vt 0.08 0.84
vt 0.08 0.88
vt 0.04 0.88
vt 0.12 0.84
vt 0.16 0.84
vt 0.12 0.88
vt 0.12 0.8
vt 0.16 0.8
vt 0.04 0.8
vt 0.08 0.8

# Normal
vn 0 0 -1

# Mesh description
g Map1_mesh_0312

# Faces
f 1/1/1 2/2/1 3/3/1 4/4/1
f 5/5/1 6/4/1 7/6/1 8/7/1
f 9/8/1 10/9/1 11/10/1 12/11/1
f 13/12/1 14/13/1 15/1/1 16/14/1
f 17/15/1 18/16/1 19/13/1 20/12/1
f 21/17/1 22/18/1 23/9/1 24/8/1
f 25/15/1 26/16/1 27/13/1 28/12/1
f 29/1/1 30/2/1 31/3/1 32/4/1
f 33/17/1 34/18/1 35/9/1 36/8/1
f 37/15/1 38/16/1 39/13/1 40/12/1
f 41/1/1 42/2/1 43/3/1 44/4/1
f 45/1/1 46/2/1 47/3/1 48/4/1
f 49/1/1 50/2/1 51/3/1 52/4/1
f 53/1/1 54/2/1 55/3/1 56/4/1
f 57/1/1 58/2/1 59/3/1 60/4/1
f 61/1/1 62/2/1 63/3/1 64/4/1
f 65/1/1 66/2/1 67/3/1 68/4/1

