# Tiled2Unity generated file. Do not modify by hand.
# Wavefront file for 'Map1_mesh_0332.obj'

# Vertices (Count = 52)
v 0 -16 0
v -16 -16 0
v -16 0 0
v 0 0 0
v -64 -16 0
v -80 -16 0
v -80 0 0
v -64 0 0
v -96 -16 0
v -112 -16 0
v -112 0 0
v -96 0 0
v -160 -16 0
v -176 -16 0
v -176 0 0
v -160 0 0
v -224 -16 0
v -240 -16 0
v -240 0 0
v -224 0 0
v -176 -32 0
v -192 -32 0
v -192 -16 0
v -176 -16 0
v -208 -32 0
v -224 -32 0
v -224 -16 0
v -208 -16 0
v -112 -160 0
v -128 -160 0
v -128 -144 0
v -112 -144 0
v -176 -160 0
v -192 -160 0
v -192 -144 0
v -176 -144 0
v -112 -176 0
v -128 -176 0
v -128 -160 0
v -112 -160 0
v -176 -176 0
v -192 -176 0
v -192 -160 0
v -176 -160 0
v -112 -192 0
v -128 -192 0
v -128 -176 0
v -112 -176 0
v -176 -192 0
v -192 -192 0
v -192 -176 0
v -176 -176 0

# Texture cooridinates (Count = 26)
vt 0.12 0.8
vt 0.16 0.8
vt 0.16 0.84
vt 0.12 0.84
vt 0.04 0.8
vt 0.08 0.8
vt 0.08 0.84
vt 0.04 0.84
vt 0.04 0.96
vt 0.08 0.96
vt 0.08 1
vt 0.04 1
vt 0.12 0.96
vt 0.16 0.96
vt 0.16 1
vt 0.12 1
vt 0 0.88
vt 0.04 0.88
vt 0.04 0.92
vt 0 0.92
vt 0.16 0.88
vt 0.2 0.88
vt 0.2 0.92
vt 0.16 0.92
vt 0.08 0.92
vt 0.12 0.92

# Normal
vn 0 0 -1

# Mesh description
g Map1_mesh_0332

# Faces
f 1/1/1 2/2/1 3/3/1 4/4/1
f 5/5/1 6/6/1 7/7/1 8/8/1
f 9/1/1 10/2/1 11/3/1 12/4/1
f 13/5/1 14/6/1 15/7/1 16/8/1
f 17/1/1 18/2/1 19/3/1 20/4/1
f 21/5/1 22/6/1 23/7/1 24/8/1
f 25/1/1 26/2/1 27/3/1 28/4/1
f 29/9/1 30/10/1 31/11/1 32/12/1
f 33/13/1 34/14/1 35/15/1 36/16/1
f 37/17/1 38/18/1 39/19/1 40/20/1
f 41/21/1 42/22/1 43/23/1 44/24/1
f 45/19/1 46/25/1 47/10/1 48/9/1
f 49/26/1 50/24/1 51/14/1 52/13/1

