# Tiled2Unity generated file. Do not modify by hand.
# Wavefront file for 'Map1_mesh_0205.obj'

# Vertices (Count = 64)
v -96 -144 0
v -112 -144 0
v -112 -128 0
v -96 -128 0
v -192 -144 0
v -208 -144 0
v -208 -128 0
v -192 -128 0
v -192 -160 0
v -208 -160 0
v -208 -144 0
v -192 -144 0
v -224 -160 0
v -240 -160 0
v -240 -144 0
v -224 -144 0
v -112 -176 0
v -128 -176 0
v -128 -160 0
v -112 -160 0
v -128 -176 0
v -144 -176 0
v -144 -160 0
v -128 -160 0
v -224 -176 0
v -240 -176 0
v -240 -160 0
v -224 -160 0
v -224 -192 0
v -240 -192 0
v -240 -176 0
v -224 -176 0
v -224 -208 0
v -240 -208 0
v -240 -192 0
v -224 -192 0
v -224 -224 0
v -240 -224 0
v -240 -208 0
v -224 -208 0
v -224 -240 0
v -240 -240 0
v -240 -224 0
v -224 -224 0
v -128 -256 0
v -144 -256 0
v -144 -240 0
v -128 -240 0
v -144 -256 0
v -160 -256 0
v -160 -240 0
v -144 -240 0
v -160 -256 0
v -176 -256 0
v -176 -240 0
v -160 -240 0
v -176 -256 0
v -192 -256 0
v -192 -240 0
v -176 -240 0
v -224 -256 0
v -240 -256 0
v -240 -240 0
v -224 -240 0

# Texture cooridinates (Count = 28)
vt 0.4 0.88
vt 0.44 0.88
vt 0.44 0.92
vt 0.4 0.92
vt 0.44 0.96
vt 0.4 0.96
vt 0.24 0.92
vt 0.28 0.92
vt 0.28 0.96
vt 0.24 0.96
vt 0.56 0.92
vt 0.6 0.92
vt 0.6 0.96
vt 0.56 0.96
vt 0.64 0.92
vt 0.64 0.96
vt 0.24 0.88
vt 0.28 0.88
vt 0.4 0.8
vt 0.44 0.8
vt 0.44 0.84
vt 0.4 0.84
vt 0.68 0.76
vt 0.72 0.76
vt 0.72 0.8
vt 0.68 0.8
vt 0.76 0.76
vt 0.76 0.8

# Normal
vn 0 0 -1

# Mesh description
g Map1_mesh_0205

# Faces
f 1/1/1 2/2/1 3/3/1 4/4/1
f 5/4/1 6/3/1 7/5/1 8/6/1
f 9/1/1 10/2/1 11/3/1 12/4/1
f 13/7/1 14/8/1 15/9/1 16/10/1
f 17/11/1 18/12/1 19/13/1 20/14/1
f 21/12/1 22/15/1 23/16/1 24/13/1
f 25/17/1 26/18/1 27/8/1 28/7/1
f 29/19/1 30/20/1 31/21/1 32/22/1
f 33/19/1 34/20/1 35/21/1 36/22/1
f 37/19/1 38/20/1 39/21/1 40/22/1
f 41/19/1 42/20/1 43/21/1 44/22/1
f 45/23/1 46/24/1 47/25/1 48/26/1
f 49/24/1 50/27/1 51/28/1 52/25/1
f 53/23/1 54/24/1 55/25/1 56/26/1
f 57/24/1 58/27/1 59/28/1 60/25/1
f 61/19/1 62/20/1 63/21/1 64/22/1

