# Tiled2Unity generated file. Do not modify by hand.
# Wavefront file for 'Map1_mesh_0262.obj'

# Vertices (Count = 36)
v -48 -128 0
v -64 -128 0
v -64 -112 0
v -48 -112 0
v -48 -144 0
v -64 -144 0
v -64 -128 0
v -48 -128 0
v -160 -144 0
v -176 -144 0
v -176 -128 0
v -160 -128 0
v -160 -160 0
v -176 -160 0
v -176 -144 0
v -160 -144 0
v -176 -160 0
v -192 -160 0
v -192 -144 0
v -176 -144 0
v -192 -160 0
v -208 -160 0
v -208 -144 0
v -192 -144 0
v -208 -160 0
v -224 -160 0
v -224 -144 0
v -208 -144 0
v -224 -160 0
v -240 -160 0
v -240 -144 0
v -224 -144 0
v -240 -160 0
v -256 -160 0
v -256 -144 0
v -240 -144 0

# Texture cooridinates (Count = 12)
vt 0.4 0.92
vt 0.44 0.92
vt 0.44 0.96
vt 0.4 0.96
vt 0.4 0.88
vt 0.44 0.88
vt 0.32 0.92
vt 0.36 0.92
vt 0.36 0.96
vt 0.32 0.96
vt 0.28 0.92
vt 0.28 0.96

# Normal
vn 0 0 -1

# Mesh description
g Map1_mesh_0262

# Faces
f 1/1/1 2/2/1 3/3/1 4/4/1
f 5/5/1 6/6/1 7/2/1 8/1/1
f 9/1/1 10/2/1 11/3/1 12/4/1
f 13/5/1 14/6/1 15/2/1 16/1/1
f 17/7/1 18/8/1 19/9/1 20/10/1
f 21/8/1 22/1/1 23/4/1 24/9/1
f 25/11/1 26/7/1 27/10/1 28/12/1
f 29/7/1 30/8/1 31/9/1 32/10/1
f 33/8/1 34/1/1 35/4/1 36/9/1

