# Tiled2Unity generated file. Do not modify by hand.
# Wavefront file for 'Level2_mesh_0069.obj'

# Vertices (Count = 288)
v -240 -16 0
v -256 -16 0
v -256 0 0
v -240 0 0
v -240 -32 0
v -256 -32 0
v -256 -16 0
v -240 -16 0
v -16 -48 0
v -32 -48 0
v -32 -32 0
v -16 -32 0
v -32 -48 0
v -48 -48 0
v -48 -32 0
v -32 -32 0
v -48 -48 0
v -64 -48 0
v -64 -32 0
v -48 -32 0
v -64 -48 0
v -80 -48 0
v -80 -32 0
v -64 -32 0
v -80 -48 0
v -96 -48 0
v -96 -32 0
v -80 -32 0
v -96 -48 0
v -112 -48 0
v -112 -32 0
v -96 -32 0
v -112 -48 0
v -128 -48 0
v -128 -32 0
v -112 -32 0
v -128 -48 0
v -144 -48 0
v -144 -32 0
v -128 -32 0
v -144 -48 0
v -160 -48 0
v -160 -32 0
v -144 -32 0
v -160 -48 0
v -176 -48 0
v -176 -32 0
v -160 -32 0
v -176 -48 0
v -192 -48 0
v -192 -32 0
v -176 -32 0
v -192 -48 0
v -208 -48 0
v -208 -32 0
v -192 -32 0
v -208 -48 0
v -224 -48 0
v -224 -32 0
v -208 -32 0
v -224 -48 0
v -240 -48 0
v -240 -32 0
v -224 -32 0
v -240 -48 0
v -256 -48 0
v -256 -32 0
v -240 -32 0
v -16 -64 0
v -32 -64 0
v -32 -48 0
v -16 -48 0
v -32 -64 0
v -48 -64 0
v -48 -48 0
v -32 -48 0
v -48 -64 0
v -64 -64 0
v -64 -48 0
v -48 -48 0
v -64 -64 0
v -80 -64 0
v -80 -48 0
v -64 -48 0
v -80 -64 0
v -96 -64 0
v -96 -48 0
v -80 -48 0
v -96 -64 0
v -112 -64 0
v -112 -48 0
v -96 -48 0
v -112 -64 0
v -128 -64 0
v -128 -48 0
v -112 -48 0
v -128 -64 0
v -144 -64 0
v -144 -48 0
v -128 -48 0
v -144 -64 0
v -160 -64 0
v -160 -48 0
v -144 -48 0
v -160 -64 0
v -176 -64 0
v -176 -48 0
v -160 -48 0
v -176 -64 0
v -192 -64 0
v -192 -48 0
v -176 -48 0
v -192 -64 0
v -208 -64 0
v -208 -48 0
v -192 -48 0
v -208 -64 0
v -224 -64 0
v -224 -48 0
v -208 -48 0
v -224 -64 0
v -240 -64 0
v -240 -48 0
v -224 -48 0
v -240 -64 0
v -256 -64 0
v -256 -48 0
v -240 -48 0
v -16 -80 0
v -32 -80 0
v -32 -64 0
v -16 -64 0
v -32 -80 0
v -48 -80 0
v -48 -64 0
v -32 -64 0
v -48 -80 0
v -64 -80 0
v -64 -64 0
v -48 -64 0
v -64 -80 0
v -80 -80 0
v -80 -64 0
v -64 -64 0
v -80 -80 0
v -96 -80 0
v -96 -64 0
v -80 -64 0
v -96 -80 0
v -112 -80 0
v -112 -64 0
v -96 -64 0
v -112 -80 0
v -128 -80 0
v -128 -64 0
v -112 -64 0
v -128 -80 0
v -144 -80 0
v -144 -64 0
v -128 -64 0
v -144 -80 0
v -160 -80 0
v -160 -64 0
v -144 -64 0
v -160 -80 0
v -176 -80 0
v -176 -64 0
v -160 -64 0
v -176 -80 0
v -192 -80 0
v -192 -64 0
v -176 -64 0
v -192 -80 0
v -208 -80 0
v -208 -64 0
v -192 -64 0
v -208 -80 0
v -224 -80 0
v -224 -64 0
v -208 -64 0
v -224 -80 0
v -240 -80 0
v -240 -64 0
v -224 -64 0
v -240 -80 0
v -256 -80 0
v -256 -64 0
v -240 -64 0
v -16 -96 0
v -32 -96 0
v -32 -80 0
v -16 -80 0
v -32 -96 0
v -48 -96 0
v -48 -80 0
v -32 -80 0
v -48 -96 0
v -64 -96 0
v -64 -80 0
v -48 -80 0
v -64 -96 0
v -80 -96 0
v -80 -80 0
v -64 -80 0
v -80 -96 0
v -96 -96 0
v -96 -80 0
v -80 -80 0
v -96 -96 0
v -112 -96 0
v -112 -80 0
v -96 -80 0
v -112 -96 0
v -128 -96 0
v -128 -80 0
v -112 -80 0
v -128 -96 0
v -144 -96 0
v -144 -80 0
v -128 -80 0
v -144 -96 0
v -160 -96 0
v -160 -80 0
v -144 -80 0
v -160 -96 0
v -176 -96 0
v -176 -80 0
v -160 -80 0
v -176 -96 0
v -192 -96 0
v -192 -80 0
v -176 -80 0
v -192 -96 0
v -208 -96 0
v -208 -80 0
v -192 -80 0
v -208 -96 0
v -224 -96 0
v -224 -80 0
v -208 -80 0
v -224 -96 0
v -240 -96 0
v -240 -80 0
v -224 -80 0
v -240 -96 0
v -256 -96 0
v -256 -80 0
v -240 -80 0
v -16 -112 0
v -32 -112 0
v -32 -96 0
v -16 -96 0
v -32 -112 0
v -48 -112 0
v -48 -96 0
v -32 -96 0
v -48 -112 0
v -64 -112 0
v -64 -96 0
v -48 -96 0
v -64 -112 0
v -80 -112 0
v -80 -96 0
v -64 -96 0
v -80 -112 0
v -96 -112 0
v -96 -96 0
v -80 -96 0
v -16 -128 0
v -32 -128 0
v -32 -112 0
v -16 -112 0
v -32 -128 0
v -48 -128 0
v -48 -112 0
v -32 -112 0
v -48 -128 0
v -64 -128 0
v -64 -112 0
v -48 -112 0
v -64 -128 0
v -80 -128 0
v -80 -112 0
v -64 -112 0
v -80 -128 0
v -96 -128 0
v -96 -112 0
v -80 -112 0

# Texture cooridinates (Count = 88)
vt 0.6923077 0.48
vt 0.6923077 0.44
vt 0.7692308 0.44
vt 0.7692308 0.48
vt 0.6153846 0.48
vt 0.6153846 0.44
vt 0.6923077 0.4
vt 0.7692308 0.4
vt 0.6923077 0.36
vt 0.7692308 0.36
vt 0.6923077 0.32
vt 0.7692308 0.32
vt 0.6923077 0.28
vt 0.7692308 0.28
vt 0.07692308 0.07999998
vt 0.07692308 0.12
vt 0 0.12
vt 0 0.07999998
vt 0.07692308 0.16
vt 0 0.16
vt 0.07692308 0.2
vt 0 0.2
vt 0.07692308 0.24
vt 0 0.24
vt 0.07692308 0.28
vt 0 0.28
vt 0.07692308 0.32
vt 0 0.32
vt 0.07692308 0.36
vt 0 0.36
vt 0.07692308 0.4
vt 0 0.4
vt 0.07692308 0.44
vt 0 0.44
vt 0.5384616 0.48
vt 0.5384616 0.44
vt 0.6153846 0.4
vt 0.6153846 0.36
vt 0.6153846 0.32
vt 0.6153846 0.28
vt 0.1538462 0.07999998
vt 0.1538462 0.12
vt 0.1538462 0.16
vt 0.1538462 0.2
vt 0.1538462 0.24
vt 0.1538462 0.28
vt 0.1538462 0.32
vt 0.1538462 0.36
vt 0.1538462 0.4
vt 0.1538462 0.44
vt 0.4615385 0.48
vt 0.4615385 0.44
vt 0.5384616 0.4
vt 0.5384616 0.36
vt 0.5384616 0.32
vt 0.5384616 0.28
vt 0.2307692 0.07999998
vt 0.2307692 0.12
vt 0.2307692 0.16
vt 0.2307692 0.2
vt 0.2307692 0.24
vt 0.2307692 0.28
vt 0.2307692 0.32
vt 0.2307692 0.36
vt 0.2307692 0.4
vt 0.2307692 0.44
vt 0.3846154 0.48
vt 0.3846154 0.44
vt 0.4615385 0.4
vt 0.4615385 0.36
vt 0.4615385 0.32
vt 0.4615385 0.28
vt 0.3076923 0.07999998
vt 0.3076923 0.12
vt 0.3076923 0.16
vt 0.3076923 0.2
vt 0.3076923 0.24
vt 0.3076923 0.28
vt 0.3076923 0.32
vt 0.3076923 0.36
vt 0.3076923 0.4
vt 0.3076923 0.44
vt 0.3076923 0.48
vt 0.2307692 0.48
vt 0.3846154 0.4
vt 0.3846154 0.36
vt 0.3846154 0.32
vt 0.3846154 0.28

# Normal
vn 0 0 -1

# Mesh description
g Level2_mesh_0069

# Faces
f 1/1/1 2/2/1 3/3/1 4/4/1
f 5/5/1 6/6/1 7/2/1 8/1/1
f 9/1/1 10/2/1 11/3/1 12/4/1
f 13/2/1 14/7/1 15/8/1 16/3/1
f 17/7/1 18/9/1 19/10/1 20/8/1
f 21/9/1 22/11/1 23/12/1 24/10/1
f 25/11/1 26/13/1 27/14/1 28/12/1
f 29/15/1 30/16/1 31/17/1 32/18/1
f 33/16/1 34/19/1 35/20/1 36/17/1
f 37/19/1 38/21/1 39/22/1 40/20/1
f 41/21/1 42/23/1 43/24/1 44/22/1
f 45/23/1 46/25/1 47/26/1 48/24/1
f 49/25/1 50/27/1 51/28/1 52/26/1
f 53/27/1 54/29/1 55/30/1 56/28/1
f 57/29/1 58/31/1 59/32/1 60/30/1
f 61/31/1 62/33/1 63/34/1 64/32/1
f 65/35/1 66/36/1 67/6/1 68/5/1
f 69/5/1 70/6/1 71/2/1 72/1/1
f 73/6/1 74/37/1 75/7/1 76/2/1
f 77/37/1 78/38/1 79/9/1 80/7/1
f 81/38/1 82/39/1 83/11/1 84/9/1
f 85/39/1 86/40/1 87/13/1 88/11/1
f 89/41/1 90/42/1 91/16/1 92/15/1
f 93/42/1 94/43/1 95/19/1 96/16/1
f 97/43/1 98/44/1 99/21/1 100/19/1
f 101/44/1 102/45/1 103/23/1 104/21/1
f 105/45/1 106/46/1 107/25/1 108/23/1
f 109/46/1 110/47/1 111/27/1 112/25/1
f 113/47/1 114/48/1 115/29/1 116/27/1
f 117/48/1 118/49/1 119/31/1 120/29/1
f 121/49/1 122/50/1 123/33/1 124/31/1
f 125/51/1 126/52/1 127/36/1 128/35/1
f 129/35/1 130/36/1 131/6/1 132/5/1
f 133/36/1 134/53/1 135/37/1 136/6/1
f 137/53/1 138/54/1 139/38/1 140/37/1
f 141/54/1 142/55/1 143/39/1 144/38/1
f 145/55/1 146/56/1 147/40/1 148/39/1
f 149/57/1 150/58/1 151/42/1 152/41/1
f 153/58/1 154/59/1 155/43/1 156/42/1
f 157/59/1 158/60/1 159/44/1 160/43/1
f 161/60/1 162/61/1 163/45/1 164/44/1
f 165/61/1 166/62/1 167/46/1 168/45/1
f 169/62/1 170/63/1 171/47/1 172/46/1
f 173/63/1 174/64/1 175/48/1 176/47/1
f 177/64/1 178/65/1 179/49/1 180/48/1
f 181/65/1 182/66/1 183/50/1 184/49/1
f 185/67/1 186/68/1 187/52/1 188/51/1
f 189/51/1 190/52/1 191/36/1 192/35/1
f 193/52/1 194/69/1 195/53/1 196/36/1
f 197/69/1 198/70/1 199/54/1 200/53/1
f 201/70/1 202/71/1 203/55/1 204/54/1
f 205/71/1 206/72/1 207/56/1 208/55/1
f 209/73/1 210/74/1 211/58/1 212/57/1
f 213/74/1 214/75/1 215/59/1 216/58/1
f 217/75/1 218/76/1 219/60/1 220/59/1
f 221/76/1 222/77/1 223/61/1 224/60/1
f 225/77/1 226/78/1 227/62/1 228/61/1
f 229/78/1 230/79/1 231/63/1 232/62/1
f 233/79/1 234/80/1 235/64/1 236/63/1
f 237/80/1 238/81/1 239/65/1 240/64/1
f 241/81/1 242/82/1 243/66/1 244/65/1
f 245/82/1 246/83/1 247/84/1 248/66/1
f 249/67/1 250/68/1 251/52/1 252/51/1
f 253/68/1 254/85/1 255/69/1 256/52/1
f 257/85/1 258/86/1 259/70/1 260/69/1
f 261/86/1 262/87/1 263/71/1 264/70/1
f 265/87/1 266/88/1 267/72/1 268/71/1
f 269/83/1 270/82/1 271/68/1 272/67/1
f 273/82/1 274/81/1 275/85/1 276/68/1
f 277/81/1 278/80/1 279/86/1 280/85/1
f 281/80/1 282/79/1 283/87/1 284/86/1
f 285/79/1 286/78/1 287/88/1 288/87/1

