# Tiled2Unity generated file. Do not modify by hand.
# Wavefront file for 'Level2_mesh_0141.obj'

# Vertices (Count = 64)
v 0 -16 0
v -16 -16 0
v -16 0 0
v 0 0 0
v -16 -16 0
v -32 -16 0
v -32 0 0
v -16 0 0
v -32 -16 0
v -48 -16 0
v -48 0 0
v -32 0 0
v -48 -16 0
v -64 -16 0
v -64 0 0
v -48 0 0
v -64 -16 0
v -80 -16 0
v -80 0 0
v -64 0 0
v -80 -16 0
v -96 -16 0
v -96 0 0
v -80 0 0
v -96 -16 0
v -112 -16 0
v -112 0 0
v -96 0 0
v -112 -16 0
v -128 -16 0
v -128 0 0
v -112 0 0
v -128 -16 0
v -144 -16 0
v -144 0 0
v -128 0 0
v -144 -16 0
v -160 -16 0
v -160 0 0
v -144 0 0
v 0 -32 0
v -16 -32 0
v -16 -16 0
v 0 -16 0
v -16 -32 0
v -32 -32 0
v -32 -16 0
v -16 -16 0
v -32 -32 0
v -48 -32 0
v -48 -16 0
v -32 -16 0
v -48 -32 0
v -64 -32 0
v -64 -16 0
v -48 -16 0
v -64 -32 0
v -80 -32 0
v -80 -16 0
v -64 -16 0
v -80 -32 0
v -96 -32 0
v -96 -16 0
v -80 -16 0

# Texture cooridinates (Count = 18)
vt 0.08695652 0.5714285
vt 0.1304348 0.5714285
vt 0.1304348 0.6428571
vt 0.08695652 0.6428571
vt 0.1304348 0.5
vt 0.173913 0.5
vt 0.173913 0.5714285
vt 0.04347826 0.6428571
vt 0.08695652 0.7142857
vt 0.04347826 0.7142857
vt 0 0.4285714
vt 0.04347826 0.4285714
vt 0.04347826 0.5
vt 0 0.5
vt 0.04347826 0.5714285
vt 0 0.5714285
vt 0.1304348 0.4285714
vt 0.173913 0.4285714

# Normal
vn 0 0 -1

# Mesh description
g Level2_mesh_0141

# Faces
f 1/1/1 2/2/1 3/3/1 4/4/1
f 5/5/1 6/6/1 7/7/1 8/2/1
f 9/8/1 10/4/1 11/9/1 12/10/1
f 13/11/1 14/12/1 15/13/1 16/14/1
f 17/14/1 18/13/1 19/15/1 20/16/1
f 21/11/1 22/12/1 23/13/1 24/14/1
f 25/11/1 26/12/1 27/13/1 28/14/1
f 29/5/1 30/6/1 31/7/1 32/2/1
f 33/1/1 34/2/1 35/3/1 36/4/1
f 37/11/1 38/12/1 39/13/1 40/14/1
f 41/8/1 42/4/1 43/9/1 44/10/1
f 45/14/1 46/13/1 47/15/1 48/16/1
f 49/14/1 50/13/1 51/15/1 52/16/1
f 53/17/1 54/18/1 55/6/1 56/5/1
f 57/17/1 58/18/1 59/6/1 60/5/1
f 61/17/1 62/18/1 63/6/1 64/5/1

