# Tiled2Unity generated file. Do not modify by hand.
# Wavefront file for 'Level2_mesh_0260.obj'

# Vertices (Count = 96)
v -64 -144 0
v -80 -144 0
v -80 -128 0
v -64 -128 0
v -144 -144 0
v -160 -144 0
v -160 -128 0
v -144 -128 0
v -224 -144 0
v -240 -144 0
v -240 -128 0
v -224 -128 0
v -64 -160 0
v -80 -160 0
v -80 -144 0
v -64 -144 0
v -144 -160 0
v -160 -160 0
v -160 -144 0
v -144 -144 0
v -224 -160 0
v -240 -160 0
v -240 -144 0
v -224 -144 0
v -64 -176 0
v -80 -176 0
v -80 -160 0
v -64 -160 0
v -144 -176 0
v -160 -176 0
v -160 -160 0
v -144 -160 0
v -224 -176 0
v -240 -176 0
v -240 -160 0
v -224 -160 0
v -64 -192 0
v -80 -192 0
v -80 -176 0
v -64 -176 0
v -144 -192 0
v -160 -192 0
v -160 -176 0
v -144 -176 0
v -224 -192 0
v -240 -192 0
v -240 -176 0
v -224 -176 0
v -64 -208 0
v -80 -208 0
v -80 -192 0
v -64 -192 0
v -144 -208 0
v -160 -208 0
v -160 -192 0
v -144 -192 0
v -224 -208 0
v -240 -208 0
v -240 -192 0
v -224 -192 0
v -64 -224 0
v -80 -224 0
v -80 -208 0
v -64 -208 0
v -144 -224 0
v -160 -224 0
v -160 -208 0
v -144 -208 0
v -224 -224 0
v -240 -224 0
v -240 -208 0
v -224 -208 0
v -64 -240 0
v -80 -240 0
v -80 -224 0
v -64 -224 0
v -144 -240 0
v -160 -240 0
v -160 -224 0
v -144 -224 0
v -224 -240 0
v -240 -240 0
v -240 -224 0
v -224 -224 0
v -64 -256 0
v -80 -256 0
v -80 -240 0
v -64 -240 0
v -144 -256 0
v -160 -256 0
v -160 -240 0
v -144 -240 0
v -224 -256 0
v -240 -256 0
v -240 -240 0
v -224 -240 0

# Texture cooridinates (Count = 8)
vt 0.16 0.32
vt 0.2 0.32
vt 0.2 0.36
vt 0.16 0.36
vt 0 0.32
vt 0.04 0.32
vt 0.04 0.36
vt 0 0.36

# Normal
vn 0 0 -1

# Mesh description
g Level2_mesh_0260

# Faces
f 1/1/1 2/2/1 3/3/1 4/4/1
f 5/5/1 6/6/1 7/7/1 8/8/1
f 9/1/1 10/2/1 11/3/1 12/4/1
f 13/1/1 14/2/1 15/3/1 16/4/1
f 17/5/1 18/6/1 19/7/1 20/8/1
f 21/1/1 22/2/1 23/3/1 24/4/1
f 25/1/1 26/2/1 27/3/1 28/4/1
f 29/5/1 30/6/1 31/7/1 32/8/1
f 33/1/1 34/2/1 35/3/1 36/4/1
f 37/1/1 38/2/1 39/3/1 40/4/1
f 41/5/1 42/6/1 43/7/1 44/8/1
f 45/1/1 46/2/1 47/3/1 48/4/1
f 49/1/1 50/2/1 51/3/1 52/4/1
f 53/5/1 54/6/1 55/7/1 56/8/1
f 57/1/1 58/2/1 59/3/1 60/4/1
f 61/1/1 62/2/1 63/3/1 64/4/1
f 65/5/1 66/6/1 67/7/1 68/8/1
f 69/1/1 70/2/1 71/3/1 72/4/1
f 73/1/1 74/2/1 75/3/1 76/4/1
f 77/5/1 78/6/1 79/7/1 80/8/1
f 81/1/1 82/2/1 83/3/1 84/4/1
f 85/1/1 86/2/1 87/3/1 88/4/1
f 89/5/1 90/6/1 91/7/1 92/8/1
f 93/1/1 94/2/1 95/3/1 96/4/1

