# Tiled2Unity generated file. Do not modify by hand.
# Wavefront file for 'Level2_mesh_0141.obj'

# Vertices (Count = 128)
v -128 -16 0
v -144 -16 0
v -144 0 0
v -128 0 0
v -240 -16 0
v -256 -16 0
v -256 0 0
v -240 0 0
v -128 -32 0
v -144 -32 0
v -144 -16 0
v -128 -16 0
v -240 -32 0
v -256 -32 0
v -256 -16 0
v -240 -16 0
v -128 -48 0
v -144 -48 0
v -144 -32 0
v -128 -32 0
v -240 -48 0
v -256 -48 0
v -256 -32 0
v -240 -32 0
v -128 -64 0
v -144 -64 0
v -144 -48 0
v -128 -48 0
v -240 -64 0
v -256 -64 0
v -256 -48 0
v -240 -48 0
v -128 -80 0
v -144 -80 0
v -144 -64 0
v -128 -64 0
v -240 -80 0
v -256 -80 0
v -256 -64 0
v -240 -64 0
v -128 -96 0
v -144 -96 0
v -144 -80 0
v -128 -80 0
v -240 -96 0
v -256 -96 0
v -256 -80 0
v -240 -80 0
v -128 -112 0
v -144 -112 0
v -144 -96 0
v -128 -96 0
v -240 -112 0
v -256 -112 0
v -256 -96 0
v -240 -96 0
v -128 -128 0
v -144 -128 0
v -144 -112 0
v -128 -112 0
v -240 -128 0
v -256 -128 0
v -256 -112 0
v -240 -112 0
v -128 -144 0
v -144 -144 0
v -144 -128 0
v -128 -128 0
v -240 -144 0
v -256 -144 0
v -256 -128 0
v -240 -128 0
v -128 -160 0
v -144 -160 0
v -144 -144 0
v -128 -144 0
v -240 -160 0
v -256 -160 0
v -256 -144 0
v -240 -144 0
v -128 -176 0
v -144 -176 0
v -144 -160 0
v -128 -160 0
v -240 -176 0
v -256 -176 0
v -256 -160 0
v -240 -160 0
v -128 -192 0
v -144 -192 0
v -144 -176 0
v -128 -176 0
v -240 -192 0
v -256 -192 0
v -256 -176 0
v -240 -176 0
v -128 -208 0
v -144 -208 0
v -144 -192 0
v -128 -192 0
v -240 -208 0
v -256 -208 0
v -256 -192 0
v -240 -192 0
v -128 -224 0
v -144 -224 0
v -144 -208 0
v -128 -208 0
v -240 -224 0
v -256 -224 0
v -256 -208 0
v -240 -208 0
v -128 -240 0
v -144 -240 0
v -144 -224 0
v -128 -224 0
v -240 -240 0
v -256 -240 0
v -256 -224 0
v -240 -224 0
v -128 -256 0
v -144 -256 0
v -144 -240 0
v -128 -240 0
v -240 -256 0
v -256 -256 0
v -256 -240 0
v -240 -240 0

# Texture cooridinates (Count = 4)
vt 0.16 0.52
vt 0.2 0.52
vt 0.2 0.56
vt 0.16 0.56

# Normal
vn 0 0 -1

# Mesh description
g Level2_mesh_0141

# Faces
f 1/1/1 2/2/1 3/3/1 4/4/1
f 5/1/1 6/2/1 7/3/1 8/4/1
f 9/1/1 10/2/1 11/3/1 12/4/1
f 13/1/1 14/2/1 15/3/1 16/4/1
f 17/1/1 18/2/1 19/3/1 20/4/1
f 21/1/1 22/2/1 23/3/1 24/4/1
f 25/1/1 26/2/1 27/3/1 28/4/1
f 29/1/1 30/2/1 31/3/1 32/4/1
f 33/1/1 34/2/1 35/3/1 36/4/1
f 37/1/1 38/2/1 39/3/1 40/4/1
f 41/1/1 42/2/1 43/3/1 44/4/1
f 45/1/1 46/2/1 47/3/1 48/4/1
f 49/1/1 50/2/1 51/3/1 52/4/1
f 53/1/1 54/2/1 55/3/1 56/4/1
f 57/1/1 58/2/1 59/3/1 60/4/1
f 61/1/1 62/2/1 63/3/1 64/4/1
f 65/1/1 66/2/1 67/3/1 68/4/1
f 69/1/1 70/2/1 71/3/1 72/4/1
f 73/1/1 74/2/1 75/3/1 76/4/1
f 77/1/1 78/2/1 79/3/1 80/4/1
f 81/1/1 82/2/1 83/3/1 84/4/1
f 85/1/1 86/2/1 87/3/1 88/4/1
f 89/1/1 90/2/1 91/3/1 92/4/1
f 93/1/1 94/2/1 95/3/1 96/4/1
f 97/1/1 98/2/1 99/3/1 100/4/1
f 101/1/1 102/2/1 103/3/1 104/4/1
f 105/1/1 106/2/1 107/3/1 108/4/1
f 109/1/1 110/2/1 111/3/1 112/4/1
f 113/1/1 114/2/1 115/3/1 116/4/1
f 117/1/1 118/2/1 119/3/1 120/4/1
f 121/1/1 122/2/1 123/3/1 124/4/1
f 125/1/1 126/2/1 127/3/1 128/4/1

