# Tiled2Unity generated file. Do not modify by hand.
# Wavefront file for 'Level2_mesh_0207.obj'

# Vertices (Count = 260)
v -80 -16 0
v -96 -16 0
v -96 0 0
v -80 0 0
v -96 -16 0
v -112 -16 0
v -112 0 0
v -96 0 0
v -112 -16 0
v -128 -16 0
v -128 0 0
v -112 0 0
v -128 -16 0
v -144 -16 0
v -144 0 0
v -128 0 0
v -240 -16 0
v -256 -16 0
v -256 0 0
v -240 0 0
v -80 -32 0
v -96 -32 0
v -96 -16 0
v -80 -16 0
v -96 -32 0
v -112 -32 0
v -112 -16 0
v -96 -16 0
v -112 -32 0
v -128 -32 0
v -128 -16 0
v -112 -16 0
v -128 -32 0
v -144 -32 0
v -144 -16 0
v -128 -16 0
v -240 -32 0
v -256 -32 0
v -256 -16 0
v -240 -16 0
v -80 -48 0
v -96 -48 0
v -96 -32 0
v -80 -32 0
v -96 -48 0
v -112 -48 0
v -112 -32 0
v -96 -32 0
v -112 -48 0
v -128 -48 0
v -128 -32 0
v -112 -32 0
v -128 -48 0
v -144 -48 0
v -144 -32 0
v -128 -32 0
v -240 -48 0
v -256 -48 0
v -256 -32 0
v -240 -32 0
v -80 -64 0
v -96 -64 0
v -96 -48 0
v -80 -48 0
v -96 -64 0
v -112 -64 0
v -112 -48 0
v -96 -48 0
v -112 -64 0
v -128 -64 0
v -128 -48 0
v -112 -48 0
v -128 -64 0
v -144 -64 0
v -144 -48 0
v -128 -48 0
v -240 -64 0
v -256 -64 0
v -256 -48 0
v -240 -48 0
v -80 -80 0
v -96 -80 0
v -96 -64 0
v -80 -64 0
v -96 -80 0
v -112 -80 0
v -112 -64 0
v -96 -64 0
v -112 -80 0
v -128 -80 0
v -128 -64 0
v -112 -64 0
v -128 -80 0
v -144 -80 0
v -144 -64 0
v -128 -64 0
v -240 -80 0
v -256 -80 0
v -256 -64 0
v -240 -64 0
v -80 -96 0
v -96 -96 0
v -96 -80 0
v -80 -80 0
v -96 -96 0
v -112 -96 0
v -112 -80 0
v -96 -80 0
v -112 -96 0
v -128 -96 0
v -128 -80 0
v -112 -80 0
v -128 -96 0
v -144 -96 0
v -144 -80 0
v -128 -80 0
v -240 -96 0
v -256 -96 0
v -256 -80 0
v -240 -80 0
v -80 -112 0
v -96 -112 0
v -96 -96 0
v -80 -96 0
v -96 -112 0
v -112 -112 0
v -112 -96 0
v -96 -96 0
v -112 -112 0
v -128 -112 0
v -128 -96 0
v -112 -96 0
v -128 -112 0
v -144 -112 0
v -144 -96 0
v -128 -96 0
v -240 -112 0
v -256 -112 0
v -256 -96 0
v -240 -96 0
v -80 -128 0
v -96 -128 0
v -96 -112 0
v -80 -112 0
v -96 -128 0
v -112 -128 0
v -112 -112 0
v -96 -112 0
v -112 -128 0
v -128 -128 0
v -128 -112 0
v -112 -112 0
v -128 -128 0
v -144 -128 0
v -144 -112 0
v -128 -112 0
v -240 -128 0
v -256 -128 0
v -256 -112 0
v -240 -112 0
v -80 -144 0
v -96 -144 0
v -96 -128 0
v -80 -128 0
v -96 -144 0
v -112 -144 0
v -112 -128 0
v -96 -128 0
v -112 -144 0
v -128 -144 0
v -128 -128 0
v -112 -128 0
v -128 -144 0
v -144 -144 0
v -144 -128 0
v -128 -128 0
v -240 -144 0
v -256 -144 0
v -256 -128 0
v -240 -128 0
v -80 -160 0
v -96 -160 0
v -96 -144 0
v -80 -144 0
v -96 -160 0
v -112 -160 0
v -112 -144 0
v -96 -144 0
v -112 -160 0
v -128 -160 0
v -128 -144 0
v -112 -144 0
v -128 -160 0
v -144 -160 0
v -144 -144 0
v -128 -144 0
v -240 -160 0
v -256 -160 0
v -256 -144 0
v -240 -144 0
v -80 -176 0
v -96 -176 0
v -96 -160 0
v -80 -160 0
v -96 -176 0
v -112 -176 0
v -112 -160 0
v -96 -160 0
v -112 -176 0
v -128 -176 0
v -128 -160 0
v -112 -160 0
v -128 -176 0
v -144 -176 0
v -144 -160 0
v -128 -160 0
v -240 -176 0
v -256 -176 0
v -256 -160 0
v -240 -160 0
v -80 -192 0
v -96 -192 0
v -96 -176 0
v -80 -176 0
v -96 -192 0
v -112 -192 0
v -112 -176 0
v -96 -176 0
v -112 -192 0
v -128 -192 0
v -128 -176 0
v -112 -176 0
v -128 -192 0
v -144 -192 0
v -144 -176 0
v -128 -176 0
v -240 -192 0
v -256 -192 0
v -256 -176 0
v -240 -176 0
v -80 -208 0
v -96 -208 0
v -96 -192 0
v -80 -192 0
v -96 -208 0
v -112 -208 0
v -112 -192 0
v -96 -192 0
v -112 -208 0
v -128 -208 0
v -128 -192 0
v -112 -192 0
v -128 -208 0
v -144 -208 0
v -144 -192 0
v -128 -192 0
v -240 -208 0
v -256 -208 0
v -256 -192 0
v -240 -192 0

# Texture cooridinates (Count = 60)
vt 0.68 0.28
vt 0.68 0.32
vt 0.64 0.32
vt 0.64 0.28
vt 0.68 0.36
vt 0.64 0.36
vt 0.68 0.4
vt 0.64 0.4
vt 0.68 0.44
vt 0.64 0.44
vt 0.72 0.28
vt 0.72 0.32
vt 0.72 0.36
vt 0.72 0.4
vt 0.72 0.44
vt 0.76 0.28
vt 0.76 0.32
vt 0.76 0.36
vt 0.76 0.4
vt 0.76 0.44
vt 0.8 0.28
vt 0.8 0.32
vt 0.8 0.36
vt 0.8 0.4
vt 0.8 0.44
vt 0.84 0.28
vt 0.84 0.32
vt 0.84 0.36
vt 0.84 0.4
vt 0.84 0.44
vt 0.88 0.28
vt 0.88 0.32
vt 0.88 0.36
vt 0.88 0.4
vt 0.88 0.44
vt 0.48 0.28
vt 0.48 0.32
vt 0.44 0.32
vt 0.44 0.28
vt 0.48 0.36
vt 0.44 0.36
vt 0.48 0.4
vt 0.44 0.4
vt 0.48 0.44
vt 0.44 0.44
vt 0.52 0.28
vt 0.52 0.32
vt 0.52 0.36
vt 0.52 0.4
vt 0.52 0.44
vt 0.56 0.28
vt 0.56 0.32
vt 0.56 0.36
vt 0.56 0.4
vt 0.56 0.44
vt 0.6 0.28
vt 0.6 0.32
vt 0.6 0.36
vt 0.6 0.4
vt 0.6 0.44

# Normal
vn 0 0 -1

# Mesh description
g Level2_mesh_0207

# Faces
f 1/1/1 2/2/1 3/3/1 4/4/1
f 5/2/1 6/5/1 7/6/1 8/3/1
f 9/5/1 10/7/1 11/8/1 12/6/1
f 13/7/1 14/9/1 15/10/1 16/8/1
f 17/1/1 18/2/1 19/3/1 20/4/1
f 21/11/1 22/12/1 23/2/1 24/1/1
f 25/12/1 26/13/1 27/5/1 28/2/1
f 29/13/1 30/14/1 31/7/1 32/5/1
f 33/14/1 34/15/1 35/9/1 36/7/1
f 37/11/1 38/12/1 39/2/1 40/1/1
f 41/16/1 42/17/1 43/12/1 44/11/1
f 45/17/1 46/18/1 47/13/1 48/12/1
f 49/18/1 50/19/1 51/14/1 52/13/1
f 53/19/1 54/20/1 55/15/1 56/14/1
f 57/16/1 58/17/1 59/12/1 60/11/1
f 61/21/1 62/22/1 63/17/1 64/16/1
f 65/22/1 66/23/1 67/18/1 68/17/1
f 69/23/1 70/24/1 71/19/1 72/18/1
f 73/24/1 74/25/1 75/20/1 76/19/1
f 77/21/1 78/22/1 79/17/1 80/16/1
f 81/26/1 82/27/1 83/22/1 84/21/1
f 85/27/1 86/28/1 87/23/1 88/22/1
f 89/28/1 90/29/1 91/24/1 92/23/1
f 93/29/1 94/30/1 95/25/1 96/24/1
f 97/26/1 98/27/1 99/22/1 100/21/1
f 101/31/1 102/32/1 103/27/1 104/26/1
f 105/32/1 106/33/1 107/28/1 108/27/1
f 109/33/1 110/34/1 111/29/1 112/28/1
f 113/34/1 114/35/1 115/30/1 116/29/1
f 117/31/1 118/32/1 119/27/1 120/26/1
f 121/36/1 122/37/1 123/38/1 124/39/1
f 125/37/1 126/40/1 127/41/1 128/38/1
f 129/40/1 130/42/1 131/43/1 132/41/1
f 133/42/1 134/44/1 135/45/1 136/43/1
f 137/36/1 138/37/1 139/38/1 140/39/1
f 141/46/1 142/47/1 143/37/1 144/36/1
f 145/47/1 146/48/1 147/40/1 148/37/1
f 149/48/1 150/49/1 151/42/1 152/40/1
f 153/49/1 154/50/1 155/44/1 156/42/1
f 157/46/1 158/47/1 159/37/1 160/36/1
f 161/51/1 162/52/1 163/47/1 164/46/1
f 165/52/1 166/53/1 167/48/1 168/47/1
f 169/53/1 170/54/1 171/49/1 172/48/1
f 173/54/1 174/55/1 175/50/1 176/49/1
f 177/51/1 178/52/1 179/47/1 180/46/1
f 181/56/1 182/57/1 183/52/1 184/51/1
f 185/57/1 186/58/1 187/53/1 188/52/1
f 189/58/1 190/59/1 191/54/1 192/53/1
f 193/59/1 194/60/1 195/55/1 196/54/1
f 197/56/1 198/57/1 199/52/1 200/51/1
f 201/4/1 202/3/1 203/57/1 204/56/1
f 205/3/1 206/6/1 207/58/1 208/57/1
f 209/6/1 210/8/1 211/59/1 212/58/1
f 213/8/1 214/10/1 215/60/1 216/59/1
f 217/4/1 218/3/1 219/57/1 220/56/1
f 221/1/1 222/2/1 223/3/1 224/4/1
f 225/2/1 226/5/1 227/6/1 228/3/1
f 229/5/1 230/7/1 231/8/1 232/6/1
f 233/7/1 234/9/1 235/10/1 236/8/1
f 237/1/1 238/2/1 239/3/1 240/4/1
f 241/11/1 242/12/1 243/2/1 244/1/1
f 245/12/1 246/13/1 247/5/1 248/2/1
f 249/13/1 250/14/1 251/7/1 252/5/1
f 253/14/1 254/15/1 255/9/1 256/7/1
f 257/11/1 258/12/1 259/2/1 260/1/1

