# Tiled2Unity generated file. Do not modify by hand.
# Wavefront file for 'Level2_mesh_0139.obj'

# Vertices (Count = 128)
v 0 -16 0
v -16 -16 0
v -16 0 0
v 0 0 0
v -16 -16 0
v -32 -16 0
v -32 0 0
v -16 0 0
v -32 -16 0
v -48 -16 0
v -48 0 0
v -32 0 0
v -48 -16 0
v -64 -16 0
v -64 0 0
v -48 0 0
v -64 -16 0
v -80 -16 0
v -80 0 0
v -64 0 0
v -80 -16 0
v -96 -16 0
v -96 0 0
v -80 0 0
v -96 -16 0
v -112 -16 0
v -112 0 0
v -96 0 0
v -112 -16 0
v -128 -16 0
v -128 0 0
v -112 0 0
v -128 -16 0
v -144 -16 0
v -144 0 0
v -128 0 0
v -144 -16 0
v -160 -16 0
v -160 0 0
v -144 0 0
v -160 -16 0
v -176 -16 0
v -176 0 0
v -160 0 0
v -176 -16 0
v -192 -16 0
v -192 0 0
v -176 0 0
v -192 -16 0
v -208 -16 0
v -208 0 0
v -192 0 0
v -208 -16 0
v -224 -16 0
v -224 0 0
v -208 0 0
v -224 -16 0
v -240 -16 0
v -240 0 0
v -224 0 0
v -240 -16 0
v -256 -16 0
v -256 0 0
v -240 0 0
v 0 -32 0
v -16 -32 0
v -16 -16 0
v 0 -16 0
v -16 -32 0
v -32 -32 0
v -32 -16 0
v -16 -16 0
v -32 -32 0
v -48 -32 0
v -48 -16 0
v -32 -16 0
v -48 -32 0
v -64 -32 0
v -64 -16 0
v -48 -16 0
v -64 -32 0
v -80 -32 0
v -80 -16 0
v -64 -16 0
v -80 -32 0
v -96 -32 0
v -96 -16 0
v -80 -16 0
v -96 -32 0
v -112 -32 0
v -112 -16 0
v -96 -16 0
v -112 -32 0
v -128 -32 0
v -128 -16 0
v -112 -16 0
v -128 -32 0
v -144 -32 0
v -144 -16 0
v -128 -16 0
v -144 -32 0
v -160 -32 0
v -160 -16 0
v -144 -16 0
v -160 -32 0
v -176 -32 0
v -176 -16 0
v -160 -16 0
v -176 -32 0
v -192 -32 0
v -192 -16 0
v -176 -16 0
v -192 -32 0
v -208 -32 0
v -208 -16 0
v -192 -16 0
v -208 -32 0
v -224 -32 0
v -224 -16 0
v -208 -16 0
v -224 -32 0
v -240 -32 0
v -240 -16 0
v -224 -16 0
v -240 -32 0
v -256 -32 0
v -256 -16 0
v -240 -16 0

# Texture cooridinates (Count = 18)
vt 0 0.4285714
vt 0.04347826 0.4285714
vt 0.04347826 0.5
vt 0 0.5
vt 0.04347826 0.5714285
vt 0 0.5714285
vt 0.1304348 0.5
vt 0.173913 0.5
vt 0.173913 0.5714285
vt 0.1304348 0.5714285
vt 0.08695652 0.5714285
vt 0.1304348 0.6428571
vt 0.08695652 0.6428571
vt 0.1304348 0.4285714
vt 0.173913 0.4285714
vt 0.04347826 0.6428571
vt 0.08695652 0.7142857
vt 0.04347826 0.7142857

# Normal
vn 0 0 -1

# Mesh description
g Level2_mesh_0139

# Faces
f 1/1/1 2/2/1 3/3/1 4/4/1
f 5/1/1 6/2/1 7/3/1 8/4/1
f 9/4/1 10/3/1 11/5/1 12/6/1
f 13/7/1 14/8/1 15/9/1 16/10/1
f 17/7/1 18/8/1 19/9/1 20/10/1
f 21/11/1 22/10/1 23/12/1 24/13/1
f 25/1/1 26/2/1 27/3/1 28/4/1
f 29/4/1 30/3/1 31/5/1 32/6/1
f 33/14/1 34/15/1 35/8/1 36/7/1
f 37/16/1 38/13/1 39/17/1 40/18/1
f 41/1/1 42/2/1 43/3/1 44/4/1
f 45/4/1 46/3/1 47/5/1 48/6/1
f 49/11/1 50/10/1 51/12/1 52/13/1
f 53/11/1 54/10/1 55/12/1 56/13/1
f 57/11/1 58/10/1 59/12/1 60/13/1
f 61/16/1 62/13/1 63/17/1 64/18/1
f 65/1/1 66/2/1 67/3/1 68/4/1
f 69/4/1 70/3/1 71/5/1 72/6/1
f 73/7/1 74/8/1 75/9/1 76/10/1
f 77/7/1 78/8/1 79/9/1 80/10/1
f 81/14/1 82/15/1 83/8/1 84/7/1
f 85/7/1 86/8/1 87/9/1 88/10/1
f 89/4/1 90/3/1 91/5/1 92/6/1
f 93/14/1 94/15/1 95/8/1 96/7/1
f 97/1/1 98/2/1 99/3/1 100/4/1
f 101/7/1 102/8/1 103/9/1 104/10/1
f 105/4/1 106/3/1 107/5/1 108/6/1
f 109/7/1 110/8/1 111/9/1 112/10/1
f 113/16/1 114/13/1 115/17/1 116/18/1
f 117/4/1 118/3/1 119/5/1 120/6/1
f 121/14/1 122/15/1 123/8/1 124/7/1
f 125/14/1 126/15/1 127/8/1 128/7/1

