# Tiled2Unity generated file. Do not modify by hand.
# Wavefront file for 'Level2_mesh_0248.obj'

# Vertices (Count = 32)
v 0 -80 0
v -16 -80 0
v -16 -64 0
v 0 -64 0
v -16 -80 0
v -32 -80 0
v -32 -64 0
v -16 -64 0
v -32 -80 0
v -48 -80 0
v -48 -64 0
v -32 -64 0
v -48 -80 0
v -64 -80 0
v -64 -64 0
v -48 -64 0
v -64 -80 0
v -80 -80 0
v -80 -64 0
v -64 -64 0
v -80 -80 0
v -96 -80 0
v -96 -64 0
v -80 -64 0
v 0 -192 0
v -16 -192 0
v -16 -176 0
v 0 -176 0
v 0 -208 0
v -16 -208 0
v -16 -192 0
v 0 -192 0

# Texture cooridinates (Count = 14)
vt 0.28 0.92
vt 0.32 0.92
vt 0.32 0.96
vt 0.28 0.96
vt 0.36 0.92
vt 0.36 0.96
vt 0.4 0.92
vt 0.4 0.96
vt 0.84 0.92
vt 0.88 0.92
vt 0.88 0.96
vt 0.84 0.96
vt 0.84 0.88
vt 0.88 0.88

# Normal
vn 0 0 -1

# Mesh description
g Level2_mesh_0248

# Faces
f 1/1/1 2/2/1 3/3/1 4/4/1
f 5/2/1 6/5/1 7/6/1 8/3/1
f 9/5/1 10/7/1 11/8/1 12/6/1
f 13/1/1 14/2/1 15/3/1 16/4/1
f 17/2/1 18/5/1 19/6/1 20/3/1
f 21/5/1 22/7/1 23/8/1 24/6/1
f 25/9/1 26/10/1 27/11/1 28/12/1
f 29/13/1 30/14/1 31/10/1 32/9/1

