# Tiled2Unity generated file. Do not modify by hand.
# Wavefront file for 'Level2_mesh_0201.obj'

# Vertices (Count = 160)
v -80 -144 0
v -96 -144 0
v -96 -128 0
v -80 -128 0
v -96 -144 0
v -112 -144 0
v -112 -128 0
v -96 -128 0
v -112 -144 0
v -128 -144 0
v -128 -128 0
v -112 -128 0
v -128 -144 0
v -144 -144 0
v -144 -128 0
v -128 -128 0
v -240 -144 0
v -256 -144 0
v -256 -128 0
v -240 -128 0
v -80 -160 0
v -96 -160 0
v -96 -144 0
v -80 -144 0
v -96 -160 0
v -112 -160 0
v -112 -144 0
v -96 -144 0
v -112 -160 0
v -128 -160 0
v -128 -144 0
v -112 -144 0
v -128 -160 0
v -144 -160 0
v -144 -144 0
v -128 -144 0
v -240 -160 0
v -256 -160 0
v -256 -144 0
v -240 -144 0
v -80 -176 0
v -96 -176 0
v -96 -160 0
v -80 -160 0
v -96 -176 0
v -112 -176 0
v -112 -160 0
v -96 -160 0
v -112 -176 0
v -128 -176 0
v -128 -160 0
v -112 -160 0
v -128 -176 0
v -144 -176 0
v -144 -160 0
v -128 -160 0
v -240 -176 0
v -256 -176 0
v -256 -160 0
v -240 -160 0
v -80 -192 0
v -96 -192 0
v -96 -176 0
v -80 -176 0
v -96 -192 0
v -112 -192 0
v -112 -176 0
v -96 -176 0
v -112 -192 0
v -128 -192 0
v -128 -176 0
v -112 -176 0
v -128 -192 0
v -144 -192 0
v -144 -176 0
v -128 -176 0
v -240 -192 0
v -256 -192 0
v -256 -176 0
v -240 -176 0
v -80 -208 0
v -96 -208 0
v -96 -192 0
v -80 -192 0
v -96 -208 0
v -112 -208 0
v -112 -192 0
v -96 -192 0
v -112 -208 0
v -128 -208 0
v -128 -192 0
v -112 -192 0
v -128 -208 0
v -144 -208 0
v -144 -192 0
v -128 -192 0
v -240 -208 0
v -256 -208 0
v -256 -192 0
v -240 -192 0
v -80 -224 0
v -96 -224 0
v -96 -208 0
v -80 -208 0
v -96 -224 0
v -112 -224 0
v -112 -208 0
v -96 -208 0
v -112 -224 0
v -128 -224 0
v -128 -208 0
v -112 -208 0
v -128 -224 0
v -144 -224 0
v -144 -208 0
v -128 -208 0
v -240 -224 0
v -256 -224 0
v -256 -208 0
v -240 -208 0
v -80 -240 0
v -96 -240 0
v -96 -224 0
v -80 -224 0
v -96 -240 0
v -112 -240 0
v -112 -224 0
v -96 -224 0
v -112 -240 0
v -128 -240 0
v -128 -224 0
v -112 -224 0
v -128 -240 0
v -144 -240 0
v -144 -224 0
v -128 -224 0
v -240 -240 0
v -256 -240 0
v -256 -224 0
v -240 -224 0
v -80 -256 0
v -96 -256 0
v -96 -240 0
v -80 -240 0
v -96 -256 0
v -112 -256 0
v -112 -240 0
v -96 -240 0
v -112 -256 0
v -128 -256 0
v -128 -240 0
v -112 -240 0
v -128 -256 0
v -144 -256 0
v -144 -240 0
v -128 -240 0
v -240 -256 0
v -256 -256 0
v -256 -240 0
v -240 -240 0

# Texture cooridinates (Count = 45)
vt 0.48 0.28
vt 0.48 0.32
vt 0.44 0.32
vt 0.44 0.28
vt 0.48 0.36
vt 0.44 0.36
vt 0.48 0.4
vt 0.44 0.4
vt 0.48 0.44
vt 0.44 0.44
vt 0.52 0.28
vt 0.52 0.32
vt 0.52 0.36
vt 0.52 0.4
vt 0.52 0.44
vt 0.56 0.28
vt 0.56 0.32
vt 0.56 0.36
vt 0.56 0.4
vt 0.56 0.44
vt 0.6 0.28
vt 0.6 0.32
vt 0.6 0.36
vt 0.6 0.4
vt 0.6 0.44
vt 0.64 0.28
vt 0.64 0.32
vt 0.64 0.36
vt 0.64 0.4
vt 0.64 0.44
vt 0.68 0.28
vt 0.68 0.32
vt 0.68 0.36
vt 0.68 0.4
vt 0.68 0.44
vt 0.72 0.28
vt 0.72 0.32
vt 0.72 0.36
vt 0.72 0.4
vt 0.72 0.44
vt 0.76 0.28
vt 0.76 0.32
vt 0.76 0.36
vt 0.76 0.4
vt 0.76 0.44

# Normal
vn 0 0 -1

# Mesh description
g Level2_mesh_0201

# Faces
f 1/1/1 2/2/1 3/3/1 4/4/1
f 5/2/1 6/5/1 7/6/1 8/3/1
f 9/5/1 10/7/1 11/8/1 12/6/1
f 13/7/1 14/9/1 15/10/1 16/8/1
f 17/1/1 18/2/1 19/3/1 20/4/1
f 21/11/1 22/12/1 23/2/1 24/1/1
f 25/12/1 26/13/1 27/5/1 28/2/1
f 29/13/1 30/14/1 31/7/1 32/5/1
f 33/14/1 34/15/1 35/9/1 36/7/1
f 37/11/1 38/12/1 39/2/1 40/1/1
f 41/16/1 42/17/1 43/12/1 44/11/1
f 45/17/1 46/18/1 47/13/1 48/12/1
f 49/18/1 50/19/1 51/14/1 52/13/1
f 53/19/1 54/20/1 55/15/1 56/14/1
f 57/16/1 58/17/1 59/12/1 60/11/1
f 61/21/1 62/22/1 63/17/1 64/16/1
f 65/22/1 66/23/1 67/18/1 68/17/1
f 69/23/1 70/24/1 71/19/1 72/18/1
f 73/24/1 74/25/1 75/20/1 76/19/1
f 77/21/1 78/22/1 79/17/1 80/16/1
f 81/26/1 82/27/1 83/22/1 84/21/1
f 85/27/1 86/28/1 87/23/1 88/22/1
f 89/28/1 90/29/1 91/24/1 92/23/1
f 93/29/1 94/30/1 95/25/1 96/24/1
f 97/26/1 98/27/1 99/22/1 100/21/1
f 101/31/1 102/32/1 103/27/1 104/26/1
f 105/32/1 106/33/1 107/28/1 108/27/1
f 109/33/1 110/34/1 111/29/1 112/28/1
f 113/34/1 114/35/1 115/30/1 116/29/1
f 117/31/1 118/32/1 119/27/1 120/26/1
f 121/36/1 122/37/1 123/32/1 124/31/1
f 125/37/1 126/38/1 127/33/1 128/32/1
f 129/38/1 130/39/1 131/34/1 132/33/1
f 133/39/1 134/40/1 135/35/1 136/34/1
f 137/36/1 138/37/1 139/32/1 140/31/1
f 141/41/1 142/42/1 143/37/1 144/36/1
f 145/42/1 146/43/1 147/38/1 148/37/1
f 149/43/1 150/44/1 151/39/1 152/38/1
f 153/44/1 154/45/1 155/40/1 156/39/1
f 157/41/1 158/42/1 159/37/1 160/36/1

