# Tiled2Unity generated file. Do not modify by hand.
# Wavefront file for 'Level2_mesh_0038.obj'

# Vertices (Count = 396)
v -80 -128 0
v -96 -128 0
v -96 -112 0
v -80 -112 0
v -96 -128 0
v -112 -128 0
v -112 -112 0
v -96 -112 0
v -112 -128 0
v -128 -128 0
v -128 -112 0
v -112 -112 0
v -128 -128 0
v -144 -128 0
v -144 -112 0
v -128 -112 0
v -144 -128 0
v -160 -128 0
v -160 -112 0
v -144 -112 0
v -160 -128 0
v -176 -128 0
v -176 -112 0
v -160 -112 0
v -176 -128 0
v -192 -128 0
v -192 -112 0
v -176 -112 0
v -192 -128 0
v -208 -128 0
v -208 -112 0
v -192 -112 0
v -208 -128 0
v -224 -128 0
v -224 -112 0
v -208 -112 0
v -224 -128 0
v -240 -128 0
v -240 -112 0
v -224 -112 0
v -240 -128 0
v -256 -128 0
v -256 -112 0
v -240 -112 0
v -80 -144 0
v -96 -144 0
v -96 -128 0
v -80 -128 0
v -96 -144 0
v -112 -144 0
v -112 -128 0
v -96 -128 0
v -112 -144 0
v -128 -144 0
v -128 -128 0
v -112 -128 0
v -128 -144 0
v -144 -144 0
v -144 -128 0
v -128 -128 0
v -144 -144 0
v -160 -144 0
v -160 -128 0
v -144 -128 0
v -160 -144 0
v -176 -144 0
v -176 -128 0
v -160 -128 0
v -176 -144 0
v -192 -144 0
v -192 -128 0
v -176 -128 0
v -192 -144 0
v -208 -144 0
v -208 -128 0
v -192 -128 0
v -208 -144 0
v -224 -144 0
v -224 -128 0
v -208 -128 0
v -224 -144 0
v -240 -144 0
v -240 -128 0
v -224 -128 0
v -240 -144 0
v -256 -144 0
v -256 -128 0
v -240 -128 0
v -80 -160 0
v -96 -160 0
v -96 -144 0
v -80 -144 0
v -96 -160 0
v -112 -160 0
v -112 -144 0
v -96 -144 0
v -112 -160 0
v -128 -160 0
v -128 -144 0
v -112 -144 0
v -128 -160 0
v -144 -160 0
v -144 -144 0
v -128 -144 0
v -144 -160 0
v -160 -160 0
v -160 -144 0
v -144 -144 0
v -160 -160 0
v -176 -160 0
v -176 -144 0
v -160 -144 0
v -176 -160 0
v -192 -160 0
v -192 -144 0
v -176 -144 0
v -192 -160 0
v -208 -160 0
v -208 -144 0
v -192 -144 0
v -208 -160 0
v -224 -160 0
v -224 -144 0
v -208 -144 0
v -224 -160 0
v -240 -160 0
v -240 -144 0
v -224 -144 0
v -240 -160 0
v -256 -160 0
v -256 -144 0
v -240 -144 0
v -80 -176 0
v -96 -176 0
v -96 -160 0
v -80 -160 0
v -96 -176 0
v -112 -176 0
v -112 -160 0
v -96 -160 0
v -112 -176 0
v -128 -176 0
v -128 -160 0
v -112 -160 0
v -128 -176 0
v -144 -176 0
v -144 -160 0
v -128 -160 0
v -144 -176 0
v -160 -176 0
v -160 -160 0
v -144 -160 0
v -160 -176 0
v -176 -176 0
v -176 -160 0
v -160 -160 0
v -176 -176 0
v -192 -176 0
v -192 -160 0
v -176 -160 0
v -192 -176 0
v -208 -176 0
v -208 -160 0
v -192 -160 0
v -208 -176 0
v -224 -176 0
v -224 -160 0
v -208 -160 0
v -224 -176 0
v -240 -176 0
v -240 -160 0
v -224 -160 0
v -240 -176 0
v -256 -176 0
v -256 -160 0
v -240 -160 0
v -80 -192 0
v -96 -192 0
v -96 -176 0
v -80 -176 0
v -96 -192 0
v -112 -192 0
v -112 -176 0
v -96 -176 0
v -112 -192 0
v -128 -192 0
v -128 -176 0
v -112 -176 0
v -128 -192 0
v -144 -192 0
v -144 -176 0
v -128 -176 0
v -144 -192 0
v -160 -192 0
v -160 -176 0
v -144 -176 0
v -160 -192 0
v -176 -192 0
v -176 -176 0
v -160 -176 0
v -176 -192 0
v -192 -192 0
v -192 -176 0
v -176 -176 0
v -192 -192 0
v -208 -192 0
v -208 -176 0
v -192 -176 0
v -208 -192 0
v -224 -192 0
v -224 -176 0
v -208 -176 0
v -224 -192 0
v -240 -192 0
v -240 -176 0
v -224 -176 0
v -240 -192 0
v -256 -192 0
v -256 -176 0
v -240 -176 0
v -80 -208 0
v -96 -208 0
v -96 -192 0
v -80 -192 0
v -96 -208 0
v -112 -208 0
v -112 -192 0
v -96 -192 0
v -112 -208 0
v -128 -208 0
v -128 -192 0
v -112 -192 0
v -128 -208 0
v -144 -208 0
v -144 -192 0
v -128 -192 0
v -144 -208 0
v -160 -208 0
v -160 -192 0
v -144 -192 0
v -160 -208 0
v -176 -208 0
v -176 -192 0
v -160 -192 0
v -176 -208 0
v -192 -208 0
v -192 -192 0
v -176 -192 0
v -192 -208 0
v -208 -208 0
v -208 -192 0
v -192 -192 0
v -208 -208 0
v -224 -208 0
v -224 -192 0
v -208 -192 0
v -224 -208 0
v -240 -208 0
v -240 -192 0
v -224 -192 0
v -240 -208 0
v -256 -208 0
v -256 -192 0
v -240 -192 0
v -80 -224 0
v -96 -224 0
v -96 -208 0
v -80 -208 0
v -96 -224 0
v -112 -224 0
v -112 -208 0
v -96 -208 0
v -112 -224 0
v -128 -224 0
v -128 -208 0
v -112 -208 0
v -128 -224 0
v -144 -224 0
v -144 -208 0
v -128 -208 0
v -144 -224 0
v -160 -224 0
v -160 -208 0
v -144 -208 0
v -160 -224 0
v -176 -224 0
v -176 -208 0
v -160 -208 0
v -176 -224 0
v -192 -224 0
v -192 -208 0
v -176 -208 0
v -192 -224 0
v -208 -224 0
v -208 -208 0
v -192 -208 0
v -208 -224 0
v -224 -224 0
v -224 -208 0
v -208 -208 0
v -224 -224 0
v -240 -224 0
v -240 -208 0
v -224 -208 0
v -240 -224 0
v -256 -224 0
v -256 -208 0
v -240 -208 0
v -80 -240 0
v -96 -240 0
v -96 -224 0
v -80 -224 0
v -96 -240 0
v -112 -240 0
v -112 -224 0
v -96 -224 0
v -112 -240 0
v -128 -240 0
v -128 -224 0
v -112 -224 0
v -128 -240 0
v -144 -240 0
v -144 -224 0
v -128 -224 0
v -144 -240 0
v -160 -240 0
v -160 -224 0
v -144 -224 0
v -160 -240 0
v -176 -240 0
v -176 -224 0
v -160 -224 0
v -176 -240 0
v -192 -240 0
v -192 -224 0
v -176 -224 0
v -192 -240 0
v -208 -240 0
v -208 -224 0
v -192 -224 0
v -208 -240 0
v -224 -240 0
v -224 -224 0
v -208 -224 0
v -224 -240 0
v -240 -240 0
v -240 -224 0
v -224 -224 0
v -240 -240 0
v -256 -240 0
v -256 -224 0
v -240 -224 0
v -80 -256 0
v -96 -256 0
v -96 -240 0
v -80 -240 0
v -96 -256 0
v -112 -256 0
v -112 -240 0
v -96 -240 0
v -112 -256 0
v -128 -256 0
v -128 -240 0
v -112 -240 0
v -128 -256 0
v -144 -256 0
v -144 -240 0
v -128 -240 0
v -144 -256 0
v -160 -256 0
v -160 -240 0
v -144 -240 0
v -160 -256 0
v -176 -256 0
v -176 -240 0
v -160 -240 0
v -176 -256 0
v -192 -256 0
v -192 -240 0
v -176 -240 0
v -192 -256 0
v -208 -256 0
v -208 -240 0
v -192 -240 0
v -208 -256 0
v -224 -256 0
v -224 -240 0
v -208 -240 0
v -224 -256 0
v -240 -256 0
v -240 -240 0
v -224 -240 0
v -240 -256 0
v -256 -256 0
v -256 -240 0
v -240 -240 0

# Texture cooridinates (Count = 29)
vt 0.6571429 0.5172414
vt 0.6285715 0.5172414
vt 0.6285715 0.5402299
vt 0.6571429 0.5402299
vt 0.6571429 0.4942529
vt 0.6285715 0.4942529
vt 0.6 0.4942529
vt 0.6 0.5172414
vt 0.6571429 0.4712644
vt 0.6285715 0.4712644
vt 0.6 0.4712644
vt 0.6571429 0.4482759
vt 0.6285715 0.4482759
vt 0.6 0.4482759
vt 0.6571429 0.4252874
vt 0.6285715 0.4252874
vt 0.6 0.4252874
vt 0.6571429 0.4022989
vt 0.6285715 0.4022989
vt 0.6 0.4022989
vt 0.6571429 0.3793104
vt 0.6285715 0.3793104
vt 0.6 0.3793104
vt 0.6571429 0.3563218
vt 0.6285715 0.3563218
vt 0.6 0.3563218
vt 0.6571429 0.3333333
vt 0.6285715 0.3333333
vt 0.6 0.3333333

# Normal
vn 0 0 -1

# Mesh description
g Level2_mesh_0038

# Faces
f 1/1/1 2/2/1 3/3/1 4/4/1
f 5/1/1 6/2/1 7/3/1 8/4/1
f 9/1/1 10/2/1 11/3/1 12/4/1
f 13/1/1 14/2/1 15/3/1 16/4/1
f 17/1/1 18/2/1 19/3/1 20/4/1
f 21/1/1 22/2/1 23/3/1 24/4/1
f 25/1/1 26/2/1 27/3/1 28/4/1
f 29/1/1 30/2/1 31/3/1 32/4/1
f 33/1/1 34/2/1 35/3/1 36/4/1
f 37/1/1 38/2/1 39/3/1 40/4/1
f 41/1/1 42/2/1 43/3/1 44/4/1
f 45/5/1 46/6/1 47/2/1 48/1/1
f 49/6/1 50/7/1 51/8/1 52/2/1
f 53/5/1 54/6/1 55/2/1 56/1/1
f 57/6/1 58/7/1 59/8/1 60/2/1
f 61/5/1 62/6/1 63/2/1 64/1/1
f 65/6/1 66/7/1 67/8/1 68/2/1
f 69/5/1 70/6/1 71/2/1 72/1/1
f 73/6/1 74/7/1 75/8/1 76/2/1
f 77/5/1 78/6/1 79/2/1 80/1/1
f 81/6/1 82/7/1 83/8/1 84/2/1
f 85/5/1 86/6/1 87/2/1 88/1/1
f 89/9/1 90/10/1 91/6/1 92/5/1
f 93/10/1 94/11/1 95/7/1 96/6/1
f 97/9/1 98/10/1 99/6/1 100/5/1
f 101/10/1 102/11/1 103/7/1 104/6/1
f 105/9/1 106/10/1 107/6/1 108/5/1
f 109/10/1 110/11/1 111/7/1 112/6/1
f 113/9/1 114/10/1 115/6/1 116/5/1
f 117/10/1 118/11/1 119/7/1 120/6/1
f 121/9/1 122/10/1 123/6/1 124/5/1
f 125/10/1 126/11/1 127/7/1 128/6/1
f 129/9/1 130/10/1 131/6/1 132/5/1
f 133/12/1 134/13/1 135/10/1 136/9/1
f 137/13/1 138/14/1 139/11/1 140/10/1
f 141/12/1 142/13/1 143/10/1 144/9/1
f 145/13/1 146/14/1 147/11/1 148/10/1
f 149/12/1 150/13/1 151/10/1 152/9/1
f 153/13/1 154/14/1 155/11/1 156/10/1
f 157/12/1 158/13/1 159/10/1 160/9/1
f 161/13/1 162/14/1 163/11/1 164/10/1
f 165/12/1 166/13/1 167/10/1 168/9/1
f 169/13/1 170/14/1 171/11/1 172/10/1
f 173/12/1 174/13/1 175/10/1 176/9/1
f 177/15/1 178/16/1 179/13/1 180/12/1
f 181/16/1 182/17/1 183/14/1 184/13/1
f 185/15/1 186/16/1 187/13/1 188/12/1
f 189/16/1 190/17/1 191/14/1 192/13/1
f 193/15/1 194/16/1 195/13/1 196/12/1
f 197/16/1 198/17/1 199/14/1 200/13/1
f 201/15/1 202/16/1 203/13/1 204/12/1
f 205/16/1 206/17/1 207/14/1 208/13/1
f 209/15/1 210/16/1 211/13/1 212/12/1
f 213/16/1 214/17/1 215/14/1 216/13/1
f 217/15/1 218/16/1 219/13/1 220/12/1
f 221/18/1 222/19/1 223/16/1 224/15/1
f 225/19/1 226/20/1 227/17/1 228/16/1
f 229/18/1 230/19/1 231/16/1 232/15/1
f 233/19/1 234/20/1 235/17/1 236/16/1
f 237/18/1 238/19/1 239/16/1 240/15/1
f 241/19/1 242/20/1 243/17/1 244/16/1
f 245/18/1 246/19/1 247/16/1 248/15/1
f 249/19/1 250/20/1 251/17/1 252/16/1
f 253/18/1 254/19/1 255/16/1 256/15/1
f 257/19/1 258/20/1 259/17/1 260/16/1
f 261/18/1 262/19/1 263/16/1 264/15/1
f 265/21/1 266/22/1 267/19/1 268/18/1
f 269/22/1 270/23/1 271/20/1 272/19/1
f 273/21/1 274/22/1 275/19/1 276/18/1
f 277/22/1 278/23/1 279/20/1 280/19/1
f 281/21/1 282/22/1 283/19/1 284/18/1
f 285/22/1 286/23/1 287/20/1 288/19/1
f 289/21/1 290/22/1 291/19/1 292/18/1
f 293/22/1 294/23/1 295/20/1 296/19/1
f 297/21/1 298/22/1 299/19/1 300/18/1
f 301/22/1 302/23/1 303/20/1 304/19/1
f 305/21/1 306/22/1 307/19/1 308/18/1
f 309/24/1 310/25/1 311/22/1 312/21/1
f 313/25/1 314/26/1 315/23/1 316/22/1
f 317/24/1 318/25/1 319/22/1 320/21/1
f 321/25/1 322/26/1 323/23/1 324/22/1
f 325/24/1 326/25/1 327/22/1 328/21/1
f 329/25/1 330/26/1 331/23/1 332/22/1
f 333/24/1 334/25/1 335/22/1 336/21/1
f 337/25/1 338/26/1 339/23/1 340/22/1
f 341/24/1 342/25/1 343/22/1 344/21/1
f 345/25/1 346/26/1 347/23/1 348/22/1
f 349/24/1 350/25/1 351/22/1 352/21/1
f 353/27/1 354/28/1 355/25/1 356/24/1
f 357/28/1 358/29/1 359/26/1 360/25/1
f 361/27/1 362/28/1 363/25/1 364/24/1
f 365/28/1 366/29/1 367/26/1 368/25/1
f 369/27/1 370/28/1 371/25/1 372/24/1
f 373/28/1 374/29/1 375/26/1 376/25/1
f 377/27/1 378/28/1 379/25/1 380/24/1
f 381/28/1 382/29/1 383/26/1 384/25/1
f 385/27/1 386/28/1 387/25/1 388/24/1
f 389/28/1 390/29/1 391/26/1 392/25/1
f 393/27/1 394/28/1 395/25/1 396/24/1

