# Tiled2Unity generated file. Do not modify by hand.
# Wavefront file for 'Level2_mesh_0164.obj'

# Vertices (Count = 104)
v 0 -16 0
v -16 -16 0
v -16 0 0
v 0 0 0
v -16 -16 0
v -32 -16 0
v -32 0 0
v -16 0 0
v -32 -16 0
v -48 -16 0
v -48 0 0
v -32 0 0
v -80 -16 0
v -96 -16 0
v -96 0 0
v -80 0 0
v -96 -16 0
v -112 -16 0
v -112 0 0
v -96 0 0
v -112 -16 0
v -128 -16 0
v -128 0 0
v -112 0 0
v -128 -16 0
v -144 -16 0
v -144 0 0
v -128 0 0
v 0 -32 0
v -16 -32 0
v -16 -16 0
v 0 -16 0
v -16 -32 0
v -32 -32 0
v -32 -16 0
v -16 -16 0
v -32 -32 0
v -48 -32 0
v -48 -16 0
v -32 -16 0
v -80 -32 0
v -96 -32 0
v -96 -16 0
v -80 -16 0
v -96 -32 0
v -112 -32 0
v -112 -16 0
v -96 -16 0
v -112 -32 0
v -128 -32 0
v -128 -16 0
v -112 -16 0
v -128 -32 0
v -144 -32 0
v -144 -16 0
v -128 -16 0
v 0 -64 0
v -16 -64 0
v -16 -48 0
v 0 -48 0
v -16 -64 0
v -32 -64 0
v -32 -48 0
v -16 -48 0
v -32 -64 0
v -48 -64 0
v -48 -48 0
v -32 -48 0
v -48 -64 0
v -64 -64 0
v -64 -48 0
v -48 -48 0
v 0 -80 0
v -16 -80 0
v -16 -64 0
v 0 -64 0
v -16 -80 0
v -32 -80 0
v -32 -64 0
v -16 -64 0
v -32 -80 0
v -48 -80 0
v -48 -64 0
v -32 -64 0
v -48 -80 0
v -64 -80 0
v -64 -64 0
v -48 -64 0
v 0 -96 0
v -16 -96 0
v -16 -80 0
v 0 -80 0
v -16 -96 0
v -32 -96 0
v -32 -80 0
v -16 -80 0
v -32 -96 0
v -48 -96 0
v -48 -80 0
v -32 -80 0
v -48 -96 0
v -64 -96 0
v -64 -80 0
v -48 -80 0

# Texture cooridinates (Count = 20)
vt 0.07937633 0.5294118
vt 0.0907158 0.5294118
vt 0.0907158 0.5588235
vt 0.07937633 0.5588235
vt 0.1020553 0.5294118
vt 0.1020553 0.5588235
vt 0.1133948 0.5294118
vt 0.1133948 0.5588235
vt 0.06803685 0.5294118
vt 0.06803685 0.5588235
vt 0.07937633 0.5
vt 0.0907158 0.5
vt 0.1020553 0.5
vt 0.1133948 0.5
vt 0.06803685 0.5
vt 0.07937633 0.5882353
vt 0.06803685 0.5882353
vt 0.0907158 0.5882353
vt 0.1020553 0.5882353
vt 0.1133948 0.5882353

# Normal
vn 0 0 -1

# Mesh description
g Level2_mesh_0164

# Faces
f 1/1/1 2/2/1 3/3/1 4/4/1
f 5/2/1 6/5/1 7/6/1 8/3/1
f 9/5/1 10/7/1 11/8/1 12/6/1
f 13/9/1 14/1/1 15/4/1 16/10/1
f 17/1/1 18/2/1 19/3/1 20/4/1
f 21/2/1 22/5/1 23/6/1 24/3/1
f 25/5/1 26/7/1 27/8/1 28/6/1
f 29/11/1 30/12/1 31/2/1 32/1/1
f 33/12/1 34/13/1 35/5/1 36/2/1
f 37/13/1 38/14/1 39/7/1 40/5/1
f 41/15/1 42/11/1 43/1/1 44/9/1
f 45/11/1 46/12/1 47/2/1 48/1/1
f 49/12/1 50/13/1 51/5/1 52/2/1
f 53/13/1 54/14/1 55/7/1 56/5/1
f 57/10/1 58/4/1 59/16/1 60/17/1
f 61/4/1 62/3/1 63/18/1 64/16/1
f 65/3/1 66/6/1 67/19/1 68/18/1
f 69/6/1 70/8/1 71/20/1 72/19/1
f 73/9/1 74/1/1 75/4/1 76/10/1
f 77/1/1 78/2/1 79/3/1 80/4/1
f 81/2/1 82/5/1 83/6/1 84/3/1
f 85/5/1 86/7/1 87/8/1 88/6/1
f 89/15/1 90/11/1 91/1/1 92/9/1
f 93/11/1 94/12/1 95/2/1 96/1/1
f 97/12/1 98/13/1 99/5/1 100/2/1
f 101/13/1 102/14/1 103/7/1 104/5/1

