# Tiled2Unity generated file. Do not modify by hand.
# Wavefront file for 'Level2_mesh_0151.obj'

# Vertices (Count = 48)
v 0 -208 0
v -16 -208 0
v -16 -192 0
v 0 -192 0
v -16 -208 0
v -32 -208 0
v -32 -192 0
v -16 -192 0
v -32 -208 0
v -48 -208 0
v -48 -192 0
v -32 -192 0
v -48 -208 0
v -64 -208 0
v -64 -192 0
v -48 -192 0
v 0 -224 0
v -16 -224 0
v -16 -208 0
v 0 -208 0
v -16 -224 0
v -32 -224 0
v -32 -208 0
v -16 -208 0
v -32 -224 0
v -48 -224 0
v -48 -208 0
v -32 -208 0
v -48 -224 0
v -64 -224 0
v -64 -208 0
v -48 -208 0
v 0 -240 0
v -16 -240 0
v -16 -224 0
v 0 -224 0
v -16 -240 0
v -32 -240 0
v -32 -224 0
v -16 -224 0
v -32 -240 0
v -48 -240 0
v -48 -224 0
v -32 -224 0
v -48 -240 0
v -64 -240 0
v -64 -224 0
v -48 -224 0

# Texture cooridinates (Count = 20)
vt 0.8844791 0.6764706
vt 0.8958186 0.6764706
vt 0.8958186 0.7058823
vt 0.8844791 0.7058823
vt 0.907158 0.6764706
vt 0.907158 0.7058823
vt 0.9184975 0.6764706
vt 0.9184975 0.7058823
vt 0.929837 0.6764706
vt 0.929837 0.7058823
vt 0.8844791 0.6470588
vt 0.8958186 0.6470588
vt 0.907158 0.6470588
vt 0.9184975 0.6470588
vt 0.929837 0.6470588
vt 0.8844791 0.6176471
vt 0.8958186 0.6176471
vt 0.907158 0.6176471
vt 0.9184975 0.6176471
vt 0.929837 0.6176471

# Normal
vn 0 0 -1

# Mesh description
g Level2_mesh_0151

# Faces
f 1/1/1 2/2/1 3/3/1 4/4/1
f 5/2/1 6/5/1 7/6/1 8/3/1
f 9/5/1 10/7/1 11/8/1 12/6/1
f 13/7/1 14/9/1 15/10/1 16/8/1
f 17/11/1 18/12/1 19/2/1 20/1/1
f 21/12/1 22/13/1 23/5/1 24/2/1
f 25/13/1 26/14/1 27/7/1 28/5/1
f 29/14/1 30/15/1 31/9/1 32/7/1
f 33/16/1 34/17/1 35/12/1 36/11/1
f 37/17/1 38/18/1 39/13/1 40/12/1
f 41/18/1 42/19/1 43/14/1 44/13/1
f 45/19/1 46/20/1 47/15/1 48/14/1

