# Tiled2Unity generated file. Do not modify by hand.
# Wavefront file for 'Level2_mesh_0155.obj'

# Vertices (Count = 12)
v -48 -96 0
v -64 -96 0
v -64 -80 0
v -48 -80 0
v -80 -96 0
v -96 -96 0
v -96 -80 0
v -80 -80 0
v -224 -96 0
v -240 -96 0
v -240 -80 0
v -224 -80 0

# Texture cooridinates (Count = 6)
vt 0.56 0.12
vt 0.6 0.12
vt 0.6 0.16
vt 0.56 0.16
vt 0.6 0.2
vt 0.56 0.2

# Normal
vn 0 0 -1

# Mesh description
g Level2_mesh_0155

# Faces
f 1/1/1 2/2/1 3/3/1 4/4/1
f 5/4/1 6/3/1 7/5/1 8/6/1
f 9/1/1 10/2/1 11/3/1 12/4/1

