# Tiled2Unity generated file. Do not modify by hand.
# Wavefront file for 'Level2_mesh_0205.obj'

# Vertices (Count = 592)
v 0 -16 0
v -16 -16 0
v -16 0 0
v 0 0 0
v -16 -16 0
v -32 -16 0
v -32 0 0
v -16 0 0
v -32 -16 0
v -48 -16 0
v -48 0 0
v -32 0 0
v -160 -16 0
v -176 -16 0
v -176 0 0
v -160 0 0
v -176 -16 0
v -192 -16 0
v -192 0 0
v -176 0 0
v -192 -16 0
v -208 -16 0
v -208 0 0
v -192 0 0
v -208 -16 0
v -224 -16 0
v -224 0 0
v -208 0 0
v 0 -32 0
v -16 -32 0
v -16 -16 0
v 0 -16 0
v -16 -32 0
v -32 -32 0
v -32 -16 0
v -16 -16 0
v -32 -32 0
v -48 -32 0
v -48 -16 0
v -32 -16 0
v -160 -32 0
v -176 -32 0
v -176 -16 0
v -160 -16 0
v -176 -32 0
v -192 -32 0
v -192 -16 0
v -176 -16 0
v -192 -32 0
v -208 -32 0
v -208 -16 0
v -192 -16 0
v -208 -32 0
v -224 -32 0
v -224 -16 0
v -208 -16 0
v 0 -48 0
v -16 -48 0
v -16 -32 0
v 0 -32 0
v -16 -48 0
v -32 -48 0
v -32 -32 0
v -16 -32 0
v -32 -48 0
v -48 -48 0
v -48 -32 0
v -32 -32 0
v -160 -48 0
v -176 -48 0
v -176 -32 0
v -160 -32 0
v -176 -48 0
v -192 -48 0
v -192 -32 0
v -176 -32 0
v -192 -48 0
v -208 -48 0
v -208 -32 0
v -192 -32 0
v -208 -48 0
v -224 -48 0
v -224 -32 0
v -208 -32 0
v 0 -64 0
v -16 -64 0
v -16 -48 0
v 0 -48 0
v -16 -64 0
v -32 -64 0
v -32 -48 0
v -16 -48 0
v -32 -64 0
v -48 -64 0
v -48 -48 0
v -32 -48 0
v -160 -64 0
v -176 -64 0
v -176 -48 0
v -160 -48 0
v -176 -64 0
v -192 -64 0
v -192 -48 0
v -176 -48 0
v -192 -64 0
v -208 -64 0
v -208 -48 0
v -192 -48 0
v -208 -64 0
v -224 -64 0
v -224 -48 0
v -208 -48 0
v 0 -80 0
v -16 -80 0
v -16 -64 0
v 0 -64 0
v -16 -80 0
v -32 -80 0
v -32 -64 0
v -16 -64 0
v -32 -80 0
v -48 -80 0
v -48 -64 0
v -32 -64 0
v -160 -80 0
v -176 -80 0
v -176 -64 0
v -160 -64 0
v -176 -80 0
v -192 -80 0
v -192 -64 0
v -176 -64 0
v -192 -80 0
v -208 -80 0
v -208 -64 0
v -192 -64 0
v -208 -80 0
v -224 -80 0
v -224 -64 0
v -208 -64 0
v 0 -96 0
v -16 -96 0
v -16 -80 0
v 0 -80 0
v -16 -96 0
v -32 -96 0
v -32 -80 0
v -16 -80 0
v -32 -96 0
v -48 -96 0
v -48 -80 0
v -32 -80 0
v -160 -96 0
v -176 -96 0
v -176 -80 0
v -160 -80 0
v -176 -96 0
v -192 -96 0
v -192 -80 0
v -176 -80 0
v -192 -96 0
v -208 -96 0
v -208 -80 0
v -192 -80 0
v -208 -96 0
v -224 -96 0
v -224 -80 0
v -208 -80 0
v 0 -112 0
v -16 -112 0
v -16 -96 0
v 0 -96 0
v -16 -112 0
v -32 -112 0
v -32 -96 0
v -16 -96 0
v -32 -112 0
v -48 -112 0
v -48 -96 0
v -32 -96 0
v -160 -112 0
v -176 -112 0
v -176 -96 0
v -160 -96 0
v -176 -112 0
v -192 -112 0
v -192 -96 0
v -176 -96 0
v -192 -112 0
v -208 -112 0
v -208 -96 0
v -192 -96 0
v -208 -112 0
v -224 -112 0
v -224 -96 0
v -208 -96 0
v 0 -128 0
v -16 -128 0
v -16 -112 0
v 0 -112 0
v -16 -128 0
v -32 -128 0
v -32 -112 0
v -16 -112 0
v -32 -128 0
v -48 -128 0
v -48 -112 0
v -32 -112 0
v -48 -128 0
v -64 -128 0
v -64 -112 0
v -48 -112 0
v -64 -128 0
v -80 -128 0
v -80 -112 0
v -64 -112 0
v -80 -128 0
v -96 -128 0
v -96 -112 0
v -80 -112 0
v -96 -128 0
v -112 -128 0
v -112 -112 0
v -96 -112 0
v -112 -128 0
v -128 -128 0
v -128 -112 0
v -112 -112 0
v -128 -128 0
v -144 -128 0
v -144 -112 0
v -128 -112 0
v -144 -128 0
v -160 -128 0
v -160 -112 0
v -144 -112 0
v -160 -128 0
v -176 -128 0
v -176 -112 0
v -160 -112 0
v -176 -128 0
v -192 -128 0
v -192 -112 0
v -176 -112 0
v -192 -128 0
v -208 -128 0
v -208 -112 0
v -192 -112 0
v -208 -128 0
v -224 -128 0
v -224 -112 0
v -208 -112 0
v -224 -128 0
v -240 -128 0
v -240 -112 0
v -224 -112 0
v -240 -128 0
v -256 -128 0
v -256 -112 0
v -240 -112 0
v 0 -144 0
v -16 -144 0
v -16 -128 0
v 0 -128 0
v -16 -144 0
v -32 -144 0
v -32 -128 0
v -16 -128 0
v -32 -144 0
v -48 -144 0
v -48 -128 0
v -32 -128 0
v -48 -144 0
v -64 -144 0
v -64 -128 0
v -48 -128 0
v -64 -144 0
v -80 -144 0
v -80 -128 0
v -64 -128 0
v -80 -144 0
v -96 -144 0
v -96 -128 0
v -80 -128 0
v -96 -144 0
v -112 -144 0
v -112 -128 0
v -96 -128 0
v -112 -144 0
v -128 -144 0
v -128 -128 0
v -112 -128 0
v -128 -144 0
v -144 -144 0
v -144 -128 0
v -128 -128 0
v -144 -144 0
v -160 -144 0
v -160 -128 0
v -144 -128 0
v -160 -144 0
v -176 -144 0
v -176 -128 0
v -160 -128 0
v -176 -144 0
v -192 -144 0
v -192 -128 0
v -176 -128 0
v -192 -144 0
v -208 -144 0
v -208 -128 0
v -192 -128 0
v -208 -144 0
v -224 -144 0
v -224 -128 0
v -208 -128 0
v -224 -144 0
v -240 -144 0
v -240 -128 0
v -224 -128 0
v -240 -144 0
v -256 -144 0
v -256 -128 0
v -240 -128 0
v 0 -160 0
v -16 -160 0
v -16 -144 0
v 0 -144 0
v -16 -160 0
v -32 -160 0
v -32 -144 0
v -16 -144 0
v -32 -160 0
v -48 -160 0
v -48 -144 0
v -32 -144 0
v -48 -160 0
v -64 -160 0
v -64 -144 0
v -48 -144 0
v -64 -160 0
v -80 -160 0
v -80 -144 0
v -64 -144 0
v -80 -160 0
v -96 -160 0
v -96 -144 0
v -80 -144 0
v -96 -160 0
v -112 -160 0
v -112 -144 0
v -96 -144 0
v -112 -160 0
v -128 -160 0
v -128 -144 0
v -112 -144 0
v -128 -160 0
v -144 -160 0
v -144 -144 0
v -128 -144 0
v -144 -160 0
v -160 -160 0
v -160 -144 0
v -144 -144 0
v -160 -160 0
v -176 -160 0
v -176 -144 0
v -160 -144 0
v -176 -160 0
v -192 -160 0
v -192 -144 0
v -176 -144 0
v -192 -160 0
v -208 -160 0
v -208 -144 0
v -192 -144 0
v -208 -160 0
v -224 -160 0
v -224 -144 0
v -208 -144 0
v -224 -160 0
v -240 -160 0
v -240 -144 0
v -224 -144 0
v -240 -160 0
v -256 -160 0
v -256 -144 0
v -240 -144 0
v 0 -176 0
v -16 -176 0
v -16 -160 0
v 0 -160 0
v -16 -176 0
v -32 -176 0
v -32 -160 0
v -16 -160 0
v -32 -176 0
v -48 -176 0
v -48 -160 0
v -32 -160 0
v -48 -176 0
v -64 -176 0
v -64 -160 0
v -48 -160 0
v -64 -176 0
v -80 -176 0
v -80 -160 0
v -64 -160 0
v -80 -176 0
v -96 -176 0
v -96 -160 0
v -80 -160 0
v -96 -176 0
v -112 -176 0
v -112 -160 0
v -96 -160 0
v -112 -176 0
v -128 -176 0
v -128 -160 0
v -112 -160 0
v -128 -176 0
v -144 -176 0
v -144 -160 0
v -128 -160 0
v -144 -176 0
v -160 -176 0
v -160 -160 0
v -144 -160 0
v -160 -176 0
v -176 -176 0
v -176 -160 0
v -160 -160 0
v -176 -176 0
v -192 -176 0
v -192 -160 0
v -176 -160 0
v -192 -176 0
v -208 -176 0
v -208 -160 0
v -192 -160 0
v -208 -176 0
v -224 -176 0
v -224 -160 0
v -208 -160 0
v -224 -176 0
v -240 -176 0
v -240 -160 0
v -224 -160 0
v -240 -176 0
v -256 -176 0
v -256 -160 0
v -240 -160 0
v 0 -192 0
v -16 -192 0
v -16 -176 0
v 0 -176 0
v -16 -192 0
v -32 -192 0
v -32 -176 0
v -16 -176 0
v -32 -192 0
v -48 -192 0
v -48 -176 0
v -32 -176 0
v -160 -192 0
v -176 -192 0
v -176 -176 0
v -160 -176 0
v -176 -192 0
v -192 -192 0
v -192 -176 0
v -176 -176 0
v -192 -192 0
v -208 -192 0
v -208 -176 0
v -192 -176 0
v -208 -192 0
v -224 -192 0
v -224 -176 0
v -208 -176 0
v 0 -208 0
v -16 -208 0
v -16 -192 0
v 0 -192 0
v -16 -208 0
v -32 -208 0
v -32 -192 0
v -16 -192 0
v -32 -208 0
v -48 -208 0
v -48 -192 0
v -32 -192 0
v -160 -208 0
v -176 -208 0
v -176 -192 0
v -160 -192 0
v -176 -208 0
v -192 -208 0
v -192 -192 0
v -176 -192 0
v -192 -208 0
v -208 -208 0
v -208 -192 0
v -192 -192 0
v -208 -208 0
v -224 -208 0
v -224 -192 0
v -208 -192 0
v 0 -224 0
v -16 -224 0
v -16 -208 0
v 0 -208 0
v -16 -224 0
v -32 -224 0
v -32 -208 0
v -16 -208 0
v -32 -224 0
v -48 -224 0
v -48 -208 0
v -32 -208 0
v -160 -224 0
v -176 -224 0
v -176 -208 0
v -160 -208 0
v -176 -224 0
v -192 -224 0
v -192 -208 0
v -176 -208 0
v -192 -224 0
v -208 -224 0
v -208 -208 0
v -192 -208 0
v -208 -224 0
v -224 -224 0
v -224 -208 0
v -208 -208 0
v 0 -240 0
v -16 -240 0
v -16 -224 0
v 0 -224 0
v -16 -240 0
v -32 -240 0
v -32 -224 0
v -16 -224 0
v -32 -240 0
v -48 -240 0
v -48 -224 0
v -32 -224 0
v -160 -240 0
v -176 -240 0
v -176 -224 0
v -160 -224 0
v -176 -240 0
v -192 -240 0
v -192 -224 0
v -176 -224 0
v -192 -240 0
v -208 -240 0
v -208 -224 0
v -192 -224 0
v -208 -240 0
v -224 -240 0
v -224 -224 0
v -208 -224 0
v 0 -256 0
v -16 -256 0
v -16 -240 0
v 0 -240 0
v -16 -256 0
v -32 -256 0
v -32 -240 0
v -16 -240 0
v -32 -256 0
v -48 -256 0
v -48 -240 0
v -32 -240 0
v -160 -256 0
v -176 -256 0
v -176 -240 0
v -160 -240 0
v -176 -256 0
v -192 -256 0
v -192 -240 0
v -176 -240 0
v -192 -256 0
v -208 -256 0
v -208 -240 0
v -192 -240 0
v -208 -256 0
v -224 -256 0
v -224 -240 0
v -208 -240 0

# Texture cooridinates (Count = 60)
vt 0.64 0.32
vt 0.64 0.36
vt 0.6 0.36
vt 0.6 0.32
vt 0.64 0.4
vt 0.6 0.4
vt 0.64 0.44
vt 0.6 0.44
vt 0.64 0.28
vt 0.6 0.28
vt 0.68 0.32
vt 0.68 0.36
vt 0.68 0.4
vt 0.68 0.44
vt 0.68 0.28
vt 0.72 0.32
vt 0.72 0.36
vt 0.72 0.4
vt 0.72 0.44
vt 0.72 0.28
vt 0.76 0.32
vt 0.76 0.36
vt 0.76 0.4
vt 0.76 0.44
vt 0.76 0.28
vt 0.8 0.32
vt 0.8 0.36
vt 0.8 0.4
vt 0.8 0.44
vt 0.8 0.28
vt 0.84 0.32
vt 0.84 0.36
vt 0.84 0.4
vt 0.84 0.44
vt 0.84 0.28
vt 0.88 0.32
vt 0.88 0.36
vt 0.88 0.4
vt 0.88 0.44
vt 0.88 0.28
vt 0.44 0.4
vt 0.48 0.4
vt 0.48 0.44
vt 0.44 0.44
vt 0.52 0.4
vt 0.52 0.44
vt 0.56 0.4
vt 0.56 0.44
vt 0.44 0.36
vt 0.48 0.36
vt 0.52 0.36
vt 0.56 0.36
vt 0.44 0.32
vt 0.48 0.32
vt 0.52 0.32
vt 0.56 0.32
vt 0.44 0.28
vt 0.48 0.28
vt 0.52 0.28
vt 0.56 0.28

# Normal
vn 0 0 -1

# Mesh description
g Level2_mesh_0205

# Faces
f 1/1/1 2/2/1 3/3/1 4/4/1
f 5/2/1 6/5/1 7/6/1 8/3/1
f 9/5/1 10/7/1 11/8/1 12/6/1
f 13/9/1 14/1/1 15/4/1 16/10/1
f 17/1/1 18/2/1 19/3/1 20/4/1
f 21/2/1 22/5/1 23/6/1 24/3/1
f 25/5/1 26/7/1 27/8/1 28/6/1
f 29/11/1 30/12/1 31/2/1 32/1/1
f 33/12/1 34/13/1 35/5/1 36/2/1
f 37/13/1 38/14/1 39/7/1 40/5/1
f 41/15/1 42/11/1 43/1/1 44/9/1
f 45/11/1 46/12/1 47/2/1 48/1/1
f 49/12/1 50/13/1 51/5/1 52/2/1
f 53/13/1 54/14/1 55/7/1 56/5/1
f 57/16/1 58/17/1 59/12/1 60/11/1
f 61/17/1 62/18/1 63/13/1 64/12/1
f 65/18/1 66/19/1 67/14/1 68/13/1
f 69/20/1 70/16/1 71/11/1 72/15/1
f 73/16/1 74/17/1 75/12/1 76/11/1
f 77/17/1 78/18/1 79/13/1 80/12/1
f 81/18/1 82/19/1 83/14/1 84/13/1
f 85/21/1 86/22/1 87/17/1 88/16/1
f 89/22/1 90/23/1 91/18/1 92/17/1
f 93/23/1 94/24/1 95/19/1 96/18/1
f 97/25/1 98/21/1 99/16/1 100/20/1
f 101/21/1 102/22/1 103/17/1 104/16/1
f 105/22/1 106/23/1 107/18/1 108/17/1
f 109/23/1 110/24/1 111/19/1 112/18/1
f 113/26/1 114/27/1 115/22/1 116/21/1
f 117/27/1 118/28/1 119/23/1 120/22/1
f 121/28/1 122/29/1 123/24/1 124/23/1
f 125/30/1 126/26/1 127/21/1 128/25/1
f 129/26/1 130/27/1 131/22/1 132/21/1
f 133/27/1 134/28/1 135/23/1 136/22/1
f 137/28/1 138/29/1 139/24/1 140/23/1
f 141/31/1 142/32/1 143/27/1 144/26/1
f 145/32/1 146/33/1 147/28/1 148/27/1
f 149/33/1 150/34/1 151/29/1 152/28/1
f 153/35/1 154/31/1 155/26/1 156/30/1
f 157/31/1 158/32/1 159/27/1 160/26/1
f 161/32/1 162/33/1 163/28/1 164/27/1
f 165/33/1 166/34/1 167/29/1 168/28/1
f 169/36/1 170/37/1 171/32/1 172/31/1
f 173/37/1 174/38/1 175/33/1 176/32/1
f 177/38/1 178/39/1 179/34/1 180/33/1
f 181/40/1 182/36/1 183/31/1 184/35/1
f 185/36/1 186/37/1 187/32/1 188/31/1
f 189/37/1 190/38/1 191/33/1 192/32/1
f 193/38/1 194/39/1 195/34/1 196/33/1
f 197/6/1 198/5/1 199/7/1 200/8/1
f 201/5/1 202/13/1 203/14/1 204/7/1
f 205/13/1 206/18/1 207/19/1 208/14/1
f 209/18/1 210/23/1 211/24/1 212/19/1
f 213/23/1 214/28/1 215/29/1 216/24/1
f 217/28/1 218/33/1 219/34/1 220/29/1
f 221/33/1 222/38/1 223/39/1 224/34/1
f 225/41/1 226/42/1 227/43/1 228/44/1
f 229/42/1 230/45/1 231/46/1 232/43/1
f 233/45/1 234/47/1 235/48/1 236/46/1
f 237/47/1 238/6/1 239/8/1 240/48/1
f 241/6/1 242/5/1 243/7/1 244/8/1
f 245/5/1 246/13/1 247/14/1 248/7/1
f 249/13/1 250/18/1 251/19/1 252/14/1
f 253/18/1 254/23/1 255/24/1 256/19/1
f 257/23/1 258/28/1 259/29/1 260/24/1
f 261/3/1 262/2/1 263/5/1 264/6/1
f 265/2/1 266/12/1 267/13/1 268/5/1
f 269/12/1 270/17/1 271/18/1 272/13/1
f 273/17/1 274/22/1 275/23/1 276/18/1
f 277/22/1 278/27/1 279/28/1 280/23/1
f 281/27/1 282/32/1 283/33/1 284/28/1
f 285/32/1 286/37/1 287/38/1 288/33/1
f 289/49/1 290/50/1 291/42/1 292/41/1
f 293/50/1 294/51/1 295/45/1 296/42/1
f 297/51/1 298/52/1 299/47/1 300/45/1
f 301/52/1 302/3/1 303/6/1 304/47/1
f 305/3/1 306/2/1 307/5/1 308/6/1
f 309/2/1 310/12/1 311/13/1 312/5/1
f 313/12/1 314/17/1 315/18/1 316/13/1
f 317/17/1 318/22/1 319/23/1 320/18/1
f 321/22/1 322/27/1 323/28/1 324/23/1
f 325/4/1 326/1/1 327/2/1 328/3/1
f 329/1/1 330/11/1 331/12/1 332/2/1
f 333/11/1 334/16/1 335/17/1 336/12/1
f 337/16/1 338/21/1 339/22/1 340/17/1
f 341/21/1 342/26/1 343/27/1 344/22/1
f 345/26/1 346/31/1 347/32/1 348/27/1
f 349/31/1 350/36/1 351/37/1 352/32/1
f 353/53/1 354/54/1 355/50/1 356/49/1
f 357/54/1 358/55/1 359/51/1 360/50/1
f 361/55/1 362/56/1 363/52/1 364/51/1
f 365/56/1 366/4/1 367/3/1 368/52/1
f 369/4/1 370/1/1 371/2/1 372/3/1
f 373/1/1 374/11/1 375/12/1 376/2/1
f 377/11/1 378/16/1 379/17/1 380/12/1
f 381/16/1 382/21/1 383/22/1 384/17/1
f 385/21/1 386/26/1 387/27/1 388/22/1
f 389/10/1 390/9/1 391/1/1 392/4/1
f 393/9/1 394/15/1 395/11/1 396/1/1
f 397/15/1 398/20/1 399/16/1 400/11/1
f 401/20/1 402/25/1 403/21/1 404/16/1
f 405/25/1 406/30/1 407/26/1 408/21/1
f 409/30/1 410/35/1 411/31/1 412/26/1
f 413/35/1 414/40/1 415/36/1 416/31/1
f 417/57/1 418/58/1 419/54/1 420/53/1
f 421/58/1 422/59/1 423/55/1 424/54/1
f 425/59/1 426/60/1 427/56/1 428/55/1
f 429/60/1 430/10/1 431/4/1 432/56/1
f 433/10/1 434/9/1 435/1/1 436/4/1
f 437/9/1 438/15/1 439/11/1 440/1/1
f 441/15/1 442/20/1 443/16/1 444/11/1
f 445/20/1 446/25/1 447/21/1 448/16/1
f 449/25/1 450/30/1 451/26/1 452/21/1
f 453/54/1 454/50/1 455/49/1 456/53/1
f 457/50/1 458/42/1 459/41/1 460/49/1
f 461/42/1 462/43/1 463/44/1 464/41/1
f 465/58/1 466/54/1 467/53/1 468/57/1
f 469/54/1 470/50/1 471/49/1 472/53/1
f 473/50/1 474/42/1 475/41/1 476/49/1
f 477/42/1 478/43/1 479/44/1 480/41/1
f 481/55/1 482/51/1 483/50/1 484/54/1
f 485/51/1 486/45/1 487/42/1 488/50/1
f 489/45/1 490/46/1 491/43/1 492/42/1
f 493/59/1 494/55/1 495/54/1 496/58/1
f 497/55/1 498/51/1 499/50/1 500/54/1
f 501/51/1 502/45/1 503/42/1 504/50/1
f 505/45/1 506/46/1 507/43/1 508/42/1
f 509/56/1 510/52/1 511/51/1 512/55/1
f 513/52/1 514/47/1 515/45/1 516/51/1
f 517/47/1 518/48/1 519/46/1 520/45/1
f 521/60/1 522/56/1 523/55/1 524/59/1
f 525/56/1 526/52/1 527/51/1 528/55/1
f 529/52/1 530/47/1 531/45/1 532/51/1
f 533/47/1 534/48/1 535/46/1 536/45/1
f 537/4/1 538/3/1 539/52/1 540/56/1
f 541/3/1 542/6/1 543/47/1 544/52/1
f 545/6/1 546/8/1 547/48/1 548/47/1
f 549/10/1 550/4/1 551/56/1 552/60/1
f 553/4/1 554/3/1 555/52/1 556/56/1
f 557/3/1 558/6/1 559/47/1 560/52/1
f 561/6/1 562/8/1 563/48/1 564/47/1
f 565/1/1 566/2/1 567/3/1 568/4/1
f 569/2/1 570/5/1 571/6/1 572/3/1
f 573/5/1 574/7/1 575/8/1 576/6/1
f 577/9/1 578/1/1 579/4/1 580/10/1
f 581/1/1 582/2/1 583/3/1 584/4/1
f 585/2/1 586/5/1 587/6/1 588/3/1
f 589/5/1 590/7/1 591/8/1 592/6/1

