# Tiled2Unity generated file. Do not modify by hand.
# Wavefront file for 'Level2_mesh_0177.obj'

# Vertices (Count = 12)
v 0 -16 0
v -16 -16 0
v -16 0 0
v 0 0 0
v -16 -16 0
v -32 -16 0
v -32 0 0
v -16 0 0
v -32 -16 0
v -48 -16 0
v -48 0 0
v -32 0 0

# Texture cooridinates (Count = 4)
vt 0.5652174 0.8571429
vt 0.6086956 0.8571429
vt 0.6086956 0.9285714
vt 0.5652174 0.9285714

# Normal
vn 0 0 -1

# Mesh description
g Level2_mesh_0177

# Faces
f 1/1/1 2/2/1 3/3/1 4/4/1
f 5/1/1 6/2/1 7/3/1 8/4/1
f 9/1/1 10/2/1 11/3/1 12/4/1

