# Tiled2Unity generated file. Do not modify by hand.
# Wavefront file for 'Level2_mesh_0168.obj'

# Vertices (Count = 60)
v 0 -32 0
v -16 -32 0
v -16 -16 0
v 0 -16 0
v 0 -48 0
v -16 -48 0
v -16 -32 0
v 0 -32 0
v 0 -64 0
v -16 -64 0
v -16 -48 0
v 0 -48 0
v 0 -80 0
v -16 -80 0
v -16 -64 0
v 0 -64 0
v 0 -96 0
v -16 -96 0
v -16 -80 0
v 0 -80 0
v 0 -112 0
v -16 -112 0
v -16 -96 0
v 0 -96 0
v 0 -128 0
v -16 -128 0
v -16 -112 0
v 0 -112 0
v 0 -144 0
v -16 -144 0
v -16 -128 0
v 0 -128 0
v 0 -160 0
v -16 -160 0
v -16 -144 0
v 0 -144 0
v 0 -176 0
v -16 -176 0
v -16 -160 0
v 0 -160 0
v 0 -192 0
v -16 -192 0
v -16 -176 0
v 0 -176 0
v 0 -208 0
v -16 -208 0
v -16 -192 0
v 0 -192 0
v 0 -224 0
v -16 -224 0
v -16 -208 0
v 0 -208 0
v 0 -240 0
v -16 -240 0
v -16 -224 0
v 0 -224 0
v 0 -256 0
v -16 -256 0
v -16 -240 0
v 0 -240 0

# Texture cooridinates (Count = 10)
vt 0.84 0.56
vt 0.88 0.56
vt 0.88 0.6
vt 0.84 0.6
vt 0.84 0.52
vt 0.88 0.52
vt 0.84 0.48
vt 0.88 0.48
vt 0.84 0.44
vt 0.88 0.44

# Normal
vn 0 0 -1

# Mesh description
g Level2_mesh_0168

# Faces
f 1/1/1 2/2/1 3/3/1 4/4/1
f 5/5/1 6/6/1 7/2/1 8/1/1
f 9/7/1 10/8/1 11/6/1 12/5/1
f 13/9/1 14/10/1 15/8/1 16/7/1
f 17/1/1 18/2/1 19/3/1 20/4/1
f 21/5/1 22/6/1 23/2/1 24/1/1
f 25/7/1 26/8/1 27/6/1 28/5/1
f 29/9/1 30/10/1 31/8/1 32/7/1
f 33/1/1 34/2/1 35/3/1 36/4/1
f 37/5/1 38/6/1 39/2/1 40/1/1
f 41/7/1 42/8/1 43/6/1 44/5/1
f 45/9/1 46/10/1 47/8/1 48/7/1
f 49/1/1 50/2/1 51/3/1 52/4/1
f 53/5/1 54/6/1 55/2/1 56/1/1
f 57/7/1 58/8/1 59/6/1 60/5/1

