# Tiled2Unity generated file. Do not modify by hand.
# Wavefront file for 'Level2_mesh_0244.obj'

# Vertices (Count = 16)
v -64 -16 0
v -80 -16 0
v -80 0 0
v -64 0 0
v -64 -32 0
v -80 -32 0
v -80 -16 0
v -64 -16 0
v -16 -80 0
v -32 -80 0
v -32 -64 0
v -16 -64 0
v -96 -96 0
v -112 -96 0
v -112 -80 0
v -96 -80 0

# Texture cooridinates (Count = 4)
vt 0.6086956 0.9285714
vt 0.6086956 1
vt 0.5652174 1
vt 0.5652174 0.9285714

# Normal
vn 0 0 -1

# Mesh description
g Level2_mesh_0244

# Faces
f 1/1/1 2/2/1 3/3/1 4/4/1
f 5/1/1 6/2/1 7/3/1 8/4/1
f 9/1/1 10/2/1 11/3/1 12/4/1
f 13/1/1 14/2/1 15/3/1 16/4/1

