# Tiled2Unity generated file. Do not modify by hand.
# Wavefront file for 'Level2_mesh_0160.obj'

# Vertices (Count = 8)
v -240 -16 0
v -256 -16 0
v -256 0 0
v -240 0 0
v -240 -32 0
v -256 -32 0
v -256 -16 0
v -240 -16 0

# Texture cooridinates (Count = 6)
vt 0.06803685 0.5294118
vt 0.07937633 0.5294118
vt 0.07937633 0.5588235
vt 0.06803685 0.5588235
vt 0.06803685 0.5
vt 0.07937633 0.5

# Normal
vn 0 0 -1

# Mesh description
g Level2_mesh_0160

# Faces
f 1/1/1 2/2/1 3/3/1 4/4/1
f 5/5/1 6/6/1 7/2/1 8/1/1

