# Tiled2Unity generated file. Do not modify by hand.
# Wavefront file for 'Level2_mesh_0257.obj'

# Vertices (Count = 12)
v -160 -64 0
v -176 -64 0
v -176 -48 0
v -160 -48 0
v -160 -80 0
v -176 -80 0
v -176 -64 0
v -160 -64 0
v -208 -128 0
v -224 -128 0
v -224 -112 0
v -208 -112 0

# Texture cooridinates (Count = 10)
vt 0.52 0.88
vt 0.56 0.88
vt 0.56 0.92
vt 0.52 0.92
vt 0.52 0.84
vt 0.56 0.84
vt 0.16 0.76
vt 0.2 0.76
vt 0.2 0.8
vt 0.16 0.8

# Normal
vn 0 0 -1

# Mesh description
g Level2_mesh_0257

# Faces
f 1/1/1 2/2/1 3/3/1 4/4/1
f 5/5/1 6/6/1 7/2/1 8/1/1
f 9/7/1 10/8/1 11/9/1 12/10/1

