# Tiled2Unity generated file. Do not modify by hand.
# Wavefront file for 'Level2_mesh_0070.obj'

# Vertices (Count = 32)
v -16 -32 0
v -32 -32 0
v -32 -16 0
v -16 -16 0
v -32 -32 0
v -48 -32 0
v -48 -16 0
v -32 -16 0
v -48 -32 0
v -64 -32 0
v -64 -16 0
v -48 -16 0
v -64 -32 0
v -80 -32 0
v -80 -16 0
v -64 -16 0
v -16 -48 0
v -32 -48 0
v -32 -32 0
v -16 -32 0
v -32 -48 0
v -48 -48 0
v -48 -32 0
v -32 -32 0
v -48 -48 0
v -64 -48 0
v -64 -32 0
v -48 -32 0
v -64 -48 0
v -80 -48 0
v -80 -32 0
v -64 -32 0

# Texture cooridinates (Count = 10)
vt 0.5102764 0.05882353
vt 0.5216159 0.05882353
vt 0.5216159 0.08823532
vt 0.5102764 0.08823532
vt 0.5329553 0.05882353
vt 0.5329553 0.08823532
vt 0.5442948 0.05882353
vt 0.5442948 0.08823532
vt 0.5556343 0.05882353
vt 0.5556343 0.08823532

# Normal
vn 0 0 -1

# Mesh description
g Level2_mesh_0070

# Faces
f 1/1/1 2/2/1 3/3/1 4/4/1
f 5/2/1 6/5/1 7/6/1 8/3/1
f 9/5/1 10/7/1 11/8/1 12/6/1
f 13/7/1 14/9/1 15/10/1 16/8/1
f 17/1/1 18/2/1 19/3/1 20/4/1
f 21/2/1 22/5/1 23/6/1 24/3/1
f 25/5/1 26/7/1 27/8/1 28/6/1
f 29/7/1 30/9/1 31/10/1 32/8/1

