# Tiled2Unity generated file. Do not modify by hand.
# Wavefront file for 'Level2_mesh_0198.obj'

# Vertices (Count = 40)
v -96 -16 0
v -112 -16 0
v -112 0 0
v -96 0 0
v -128 -16 0
v -144 -16 0
v -144 0 0
v -128 0 0
v -208 -16 0
v -224 -16 0
v -224 0 0
v -208 0 0
v -240 -16 0
v -256 -16 0
v -256 0 0
v -240 0 0
v -96 -32 0
v -112 -32 0
v -112 -16 0
v -96 -16 0
v -128 -32 0
v -144 -32 0
v -144 -16 0
v -128 -16 0
v -208 -32 0
v -224 -32 0
v -224 -16 0
v -208 -16 0
v -240 -32 0
v -256 -32 0
v -256 -16 0
v -240 -16 0
v -208 -48 0
v -224 -48 0
v -224 -32 0
v -208 -32 0
v -240 -48 0
v -256 -48 0
v -256 -32 0
v -240 -32 0

# Texture cooridinates (Count = 8)
vt 0.3043478 0.7857143
vt 0.3478261 0.7857143
vt 0.3478261 0.8571429
vt 0.3043478 0.8571429
vt 0.3043478 0.2857143
vt 0.3478261 0.2857143
vt 0.3478261 0.3571429
vt 0.3043478 0.3571429

# Normal
vn 0 0 -1

# Mesh description
g Level2_mesh_0198

# Faces
f 1/1/1 2/2/1 3/3/1 4/4/1
f 5/1/1 6/2/1 7/3/1 8/4/1
f 9/1/1 10/2/1 11/3/1 12/4/1
f 13/1/1 14/2/1 15/3/1 16/4/1
f 17/5/1 18/6/1 19/7/1 20/8/1
f 21/5/1 22/6/1 23/7/1 24/8/1
f 25/1/1 26/2/1 27/3/1 28/4/1
f 29/1/1 30/2/1 31/3/1 32/4/1
f 33/5/1 34/6/1 35/7/1 36/8/1
f 37/5/1 38/6/1 39/7/1 40/8/1

