# Tiled2Unity generated file. Do not modify by hand.
# Wavefront file for 'Level2_mesh_0241.obj'

# Vertices (Count = 32)
v -16 -16 0
v -32 -16 0
v -32 0 0
v -16 0 0
v -96 -32 0
v -112 -32 0
v -112 -16 0
v -96 -16 0
v -224 -32 0
v -240 -32 0
v -240 -16 0
v -224 -16 0
v -96 -48 0
v -112 -48 0
v -112 -32 0
v -96 -32 0
v -224 -48 0
v -240 -48 0
v -240 -32 0
v -224 -32 0
v -96 -64 0
v -112 -64 0
v -112 -48 0
v -96 -48 0
v -48 -96 0
v -64 -96 0
v -64 -80 0
v -48 -80 0
v -176 -96 0
v -192 -96 0
v -192 -80 0
v -176 -80 0

# Texture cooridinates (Count = 4)
vt 0.6086956 0.9285714
vt 0.6086956 1
vt 0.5652174 1
vt 0.5652174 0.9285714

# Normal
vn 0 0 -1

# Mesh description
g Level2_mesh_0241

# Faces
f 1/1/1 2/2/1 3/3/1 4/4/1
f 5/1/1 6/2/1 7/3/1 8/4/1
f 9/1/1 10/2/1 11/3/1 12/4/1
f 13/1/1 14/2/1 15/3/1 16/4/1
f 17/1/1 18/2/1 19/3/1 20/4/1
f 21/1/1 22/2/1 23/3/1 24/4/1
f 25/1/1 26/2/1 27/3/1 28/4/1
f 29/1/1 30/2/1 31/3/1 32/4/1

