# Tiled2Unity generated file. Do not modify by hand.
# Wavefront file for 'Level2_mesh_0089.obj'

# Vertices (Count = 68)
v -192 -240 0
v -208 -240 0
v -208 -224 0
v -192 -224 0
v -208 -240 0
v -224 -240 0
v -224 -224 0
v -208 -224 0
v -224 -240 0
v -240 -240 0
v -240 -224 0
v -224 -224 0
v -240 -240 0
v -256 -240 0
v -256 -224 0
v -240 -224 0
v -32 -256 0
v -48 -256 0
v -48 -240 0
v -32 -240 0
v -48 -256 0
v -64 -256 0
v -64 -240 0
v -48 -240 0
v -64 -256 0
v -80 -256 0
v -80 -240 0
v -64 -240 0
v -80 -256 0
v -96 -256 0
v -96 -240 0
v -80 -240 0
v -96 -256 0
v -112 -256 0
v -112 -240 0
v -96 -240 0
v -112 -256 0
v -128 -256 0
v -128 -240 0
v -112 -240 0
v -128 -256 0
v -144 -256 0
v -144 -240 0
v -128 -240 0
v -144 -256 0
v -160 -256 0
v -160 -240 0
v -144 -240 0
v -160 -256 0
v -176 -256 0
v -176 -240 0
v -160 -240 0
v -176 -256 0
v -192 -256 0
v -192 -240 0
v -176 -240 0
v -192 -256 0
v -208 -256 0
v -208 -240 0
v -192 -240 0
v -208 -256 0
v -224 -256 0
v -224 -240 0
v -208 -240 0
v -224 -256 0
v -240 -256 0
v -240 -240 0
v -224 -240 0

# Texture cooridinates (Count = 22)
vt 0 0.5
vt 0.04347826 0.5
vt 0.04347826 0.5714285
vt 0 0.5714285
vt 0 0.8571429
vt 0.04347826 0.8571429
vt 0.04347826 0.9285714
vt 0 0.9285714
vt 0.08695652 0.5714285
vt 0.1304348 0.5714285
vt 0.1304348 0.6428571
vt 0.08695652 0.6428571
vt 0 0.4285714
vt 0.04347826 0.4285714
vt 0.04347826 0.6428571
vt 0.08695652 0.7142857
vt 0.04347826 0.7142857
vt 0.1304348 0.5
vt 0.173913 0.5
vt 0.173913 0.5714285
vt 0 0.7857143
vt 0.04347826 0.7857143

# Normal
vn 0 0 -1

# Mesh description
g Level2_mesh_0089

# Faces
f 1/1/1 2/2/1 3/3/1 4/4/1
f 5/5/1 6/6/1 7/7/1 8/8/1
f 9/9/1 10/10/1 11/11/1 12/12/1
f 13/13/1 14/14/1 15/2/1 16/1/1
f 17/5/1 18/6/1 19/7/1 20/8/1
f 21/13/1 22/14/1 23/2/1 24/1/1
f 25/1/1 26/2/1 27/3/1 28/4/1
f 29/15/1 30/12/1 31/16/1 32/17/1
f 33/1/1 34/2/1 35/3/1 36/4/1
f 37/9/1 38/10/1 39/11/1 40/12/1
f 41/13/1 42/14/1 43/2/1 44/1/1
f 45/18/1 46/19/1 47/20/1 48/10/1
f 49/13/1 50/14/1 51/2/1 52/1/1
f 53/1/1 54/2/1 55/3/1 56/4/1
f 57/13/1 58/14/1 59/2/1 60/1/1
f 61/21/1 62/22/1 63/6/1 64/5/1
f 65/9/1 66/10/1 67/11/1 68/12/1

