# Tiled2Unity generated file. Do not modify by hand.
# Wavefront file for 'Level2_mesh_0239.obj'

# Vertices (Count = 40)
v -48 -16 0
v -64 -16 0
v -64 0 0
v -48 0 0
v -160 -16 0
v -176 -16 0
v -176 0 0
v -160 0 0
v -48 -32 0
v -64 -32 0
v -64 -16 0
v -48 -16 0
v -144 -32 0
v -160 -32 0
v -160 -16 0
v -144 -16 0
v -160 -32 0
v -176 -32 0
v -176 -16 0
v -160 -16 0
v -240 -64 0
v -256 -64 0
v -256 -48 0
v -240 -48 0
v -176 -80 0
v -192 -80 0
v -192 -64 0
v -176 -64 0
v -240 -80 0
v -256 -80 0
v -256 -64 0
v -240 -64 0
v -80 -96 0
v -96 -96 0
v -96 -80 0
v -80 -80 0
v -240 -96 0
v -256 -96 0
v -256 -80 0
v -240 -80 0

# Texture cooridinates (Count = 4)
vt 0.6086956 0.9285714
vt 0.6086956 1
vt 0.5652174 1
vt 0.5652174 0.9285714

# Normal
vn 0 0 -1

# Mesh description
g Level2_mesh_0239

# Faces
f 1/1/1 2/2/1 3/3/1 4/4/1
f 5/1/1 6/2/1 7/3/1 8/4/1
f 9/1/1 10/2/1 11/3/1 12/4/1
f 13/1/1 14/2/1 15/3/1 16/4/1
f 17/1/1 18/2/1 19/3/1 20/4/1
f 21/1/1 22/2/1 23/3/1 24/4/1
f 25/1/1 26/2/1 27/3/1 28/4/1
f 29/1/1 30/2/1 31/3/1 32/4/1
f 33/1/1 34/2/1 35/3/1 36/4/1
f 37/1/1 38/2/1 39/3/1 40/4/1

