# Tiled2Unity generated file. Do not modify by hand.
# Wavefront file for 'Level2_mesh_0294.obj'

# Vertices (Count = 144)
v 0 -16 0
v -16 -16 0
v -16 0 0
v 0 0 0
v -16 -16 0
v -32 -16 0
v -32 0 0
v -16 0 0
v -32 -16 0
v -48 -16 0
v -48 0 0
v -32 0 0
v -48 -16 0
v -64 -16 0
v -64 0 0
v -48 0 0
v -64 -16 0
v -80 -16 0
v -80 0 0
v -64 0 0
v -80 -16 0
v -96 -16 0
v -96 0 0
v -80 0 0
v -96 -16 0
v -112 -16 0
v -112 0 0
v -96 0 0
v -112 -16 0
v -128 -16 0
v -128 0 0
v -112 0 0
v -128 -16 0
v -144 -16 0
v -144 0 0
v -128 0 0
v -144 -16 0
v -160 -16 0
v -160 0 0
v -144 0 0
v -160 -16 0
v -176 -16 0
v -176 0 0
v -160 0 0
v -176 -16 0
v -192 -16 0
v -192 0 0
v -176 0 0
v -192 -16 0
v -208 -16 0
v -208 0 0
v -192 0 0
v 0 -96 0
v -16 -96 0
v -16 -80 0
v 0 -80 0
v -16 -96 0
v -32 -96 0
v -32 -80 0
v -16 -80 0
v -32 -96 0
v -48 -96 0
v -48 -80 0
v -32 -80 0
v -48 -96 0
v -64 -96 0
v -64 -80 0
v -48 -80 0
v -64 -96 0
v -80 -96 0
v -80 -80 0
v -64 -80 0
v -80 -96 0
v -96 -96 0
v -96 -80 0
v -80 -80 0
v -96 -96 0
v -112 -96 0
v -112 -80 0
v -96 -80 0
v -112 -96 0
v -128 -96 0
v -128 -80 0
v -112 -80 0
v -128 -96 0
v -144 -96 0
v -144 -80 0
v -128 -80 0
v -144 -96 0
v -160 -96 0
v -160 -80 0
v -144 -80 0
v -160 -96 0
v -176 -96 0
v -176 -80 0
v -160 -80 0
v -176 -96 0
v -192 -96 0
v -192 -80 0
v -176 -80 0
v -192 -96 0
v -208 -96 0
v -208 -80 0
v -192 -80 0
v -192 -112 0
v -208 -112 0
v -208 -96 0
v -192 -96 0
v -192 -128 0
v -208 -128 0
v -208 -112 0
v -192 -112 0
v -192 -144 0
v -208 -144 0
v -208 -128 0
v -192 -128 0
v -192 -160 0
v -208 -160 0
v -208 -144 0
v -192 -144 0
v -192 -176 0
v -208 -176 0
v -208 -160 0
v -192 -160 0
v -192 -192 0
v -208 -192 0
v -208 -176 0
v -192 -176 0
v -192 -208 0
v -208 -208 0
v -208 -192 0
v -192 -192 0
v -192 -224 0
v -208 -224 0
v -208 -208 0
v -192 -208 0
v -192 -240 0
v -208 -240 0
v -208 -224 0
v -192 -224 0
v -192 -256 0
v -208 -256 0
v -208 -240 0
v -192 -240 0

# Texture cooridinates (Count = 24)
vt 0.08 0.24
vt 0.12 0.24
vt 0.12 0.28
vt 0.08 0.28
vt 0.2 0.36
vt 0.24 0.36
vt 0.24 0.4
vt 0.2 0.4
vt 0.16 0.24
vt 0.16 0.28
vt 0.08 0.4
vt 0.12 0.4
vt 0.12 0.44
vt 0.08 0.44
vt 0.2 0.24
vt 0.2 0.28
vt 0.16 0.36
vt 0.16 0.4
vt 0.16 0.32
vt 0.2 0.32
vt 0.2 0.16
vt 0.16 0.16
vt 0.16 0.2
vt 0.2 0.2

# Normal
vn 0 0 -1

# Mesh description
g Level2_mesh_0294

# Faces
f 1/1/1 2/2/1 3/3/1 4/4/1
f 5/1/1 6/2/1 7/3/1 8/4/1
f 9/1/1 10/2/1 11/3/1 12/4/1
f 13/1/1 14/2/1 15/3/1 16/4/1
f 17/1/1 18/2/1 19/3/1 20/4/1
f 21/1/1 22/2/1 23/3/1 24/4/1
f 25/5/1 26/6/1 27/7/1 28/8/1
f 29/1/1 30/2/1 31/3/1 32/4/1
f 33/1/1 34/2/1 35/3/1 36/4/1
f 37/1/1 38/2/1 39/3/1 40/4/1
f 41/1/1 42/2/1 43/3/1 44/4/1
f 45/1/1 46/2/1 47/3/1 48/4/1
f 49/2/1 50/9/1 51/10/1 52/3/1
f 53/11/1 54/12/1 55/13/1 56/14/1
f 57/11/1 58/12/1 59/13/1 60/14/1
f 61/11/1 62/12/1 63/13/1 64/14/1
f 65/11/1 66/12/1 67/13/1 68/14/1
f 69/11/1 70/12/1 71/13/1 72/14/1
f 73/11/1 74/12/1 75/13/1 76/14/1
f 77/9/1 78/15/1 79/16/1 80/10/1
f 81/11/1 82/12/1 83/13/1 84/14/1
f 85/11/1 86/12/1 87/13/1 88/14/1
f 89/11/1 90/12/1 91/13/1 92/14/1
f 93/11/1 94/12/1 95/13/1 96/14/1
f 97/11/1 98/12/1 99/13/1 100/14/1
f 101/17/1 102/5/1 103/8/1 104/18/1
f 105/19/1 106/20/1 107/5/1 108/17/1
f 109/19/1 110/20/1 111/5/1 112/17/1
f 113/21/1 114/22/1 115/23/1 116/24/1
f 117/19/1 118/20/1 119/5/1 120/17/1
f 121/19/1 122/20/1 123/5/1 124/17/1
f 125/19/1 126/20/1 127/5/1 128/17/1
f 129/19/1 130/20/1 131/5/1 132/17/1
f 133/19/1 134/20/1 135/5/1 136/17/1
f 137/21/1 138/22/1 139/23/1 140/24/1
f 141/19/1 142/20/1 143/5/1 144/17/1

