# Tiled2Unity generated file. Do not modify by hand.
# Wavefront file for 'Level2_mesh_0104.obj'

# Vertices (Count = 1024)
v 0 -16 0
v -16 -16 0
v -16 0 0
v 0 0 0
v -16 -16 0
v -32 -16 0
v -32 0 0
v -16 0 0
v -32 -16 0
v -48 -16 0
v -48 0 0
v -32 0 0
v -48 -16 0
v -64 -16 0
v -64 0 0
v -48 0 0
v -64 -16 0
v -80 -16 0
v -80 0 0
v -64 0 0
v -80 -16 0
v -96 -16 0
v -96 0 0
v -80 0 0
v -96 -16 0
v -112 -16 0
v -112 0 0
v -96 0 0
v -112 -16 0
v -128 -16 0
v -128 0 0
v -112 0 0
v -128 -16 0
v -144 -16 0
v -144 0 0
v -128 0 0
v -144 -16 0
v -160 -16 0
v -160 0 0
v -144 0 0
v -160 -16 0
v -176 -16 0
v -176 0 0
v -160 0 0
v -176 -16 0
v -192 -16 0
v -192 0 0
v -176 0 0
v -192 -16 0
v -208 -16 0
v -208 0 0
v -192 0 0
v -208 -16 0
v -224 -16 0
v -224 0 0
v -208 0 0
v -224 -16 0
v -240 -16 0
v -240 0 0
v -224 0 0
v -240 -16 0
v -256 -16 0
v -256 0 0
v -240 0 0
v 0 -32 0
v -16 -32 0
v -16 -16 0
v 0 -16 0
v -16 -32 0
v -32 -32 0
v -32 -16 0
v -16 -16 0
v -32 -32 0
v -48 -32 0
v -48 -16 0
v -32 -16 0
v -48 -32 0
v -64 -32 0
v -64 -16 0
v -48 -16 0
v -64 -32 0
v -80 -32 0
v -80 -16 0
v -64 -16 0
v -80 -32 0
v -96 -32 0
v -96 -16 0
v -80 -16 0
v -96 -32 0
v -112 -32 0
v -112 -16 0
v -96 -16 0
v -112 -32 0
v -128 -32 0
v -128 -16 0
v -112 -16 0
v -128 -32 0
v -144 -32 0
v -144 -16 0
v -128 -16 0
v -144 -32 0
v -160 -32 0
v -160 -16 0
v -144 -16 0
v -160 -32 0
v -176 -32 0
v -176 -16 0
v -160 -16 0
v -176 -32 0
v -192 -32 0
v -192 -16 0
v -176 -16 0
v -192 -32 0
v -208 -32 0
v -208 -16 0
v -192 -16 0
v -208 -32 0
v -224 -32 0
v -224 -16 0
v -208 -16 0
v -224 -32 0
v -240 -32 0
v -240 -16 0
v -224 -16 0
v -240 -32 0
v -256 -32 0
v -256 -16 0
v -240 -16 0
v 0 -48 0
v -16 -48 0
v -16 -32 0
v 0 -32 0
v -16 -48 0
v -32 -48 0
v -32 -32 0
v -16 -32 0
v -32 -48 0
v -48 -48 0
v -48 -32 0
v -32 -32 0
v -48 -48 0
v -64 -48 0
v -64 -32 0
v -48 -32 0
v -64 -48 0
v -80 -48 0
v -80 -32 0
v -64 -32 0
v -80 -48 0
v -96 -48 0
v -96 -32 0
v -80 -32 0
v -96 -48 0
v -112 -48 0
v -112 -32 0
v -96 -32 0
v -112 -48 0
v -128 -48 0
v -128 -32 0
v -112 -32 0
v -128 -48 0
v -144 -48 0
v -144 -32 0
v -128 -32 0
v -144 -48 0
v -160 -48 0
v -160 -32 0
v -144 -32 0
v -160 -48 0
v -176 -48 0
v -176 -32 0
v -160 -32 0
v -176 -48 0
v -192 -48 0
v -192 -32 0
v -176 -32 0
v -192 -48 0
v -208 -48 0
v -208 -32 0
v -192 -32 0
v -208 -48 0
v -224 -48 0
v -224 -32 0
v -208 -32 0
v -224 -48 0
v -240 -48 0
v -240 -32 0
v -224 -32 0
v -240 -48 0
v -256 -48 0
v -256 -32 0
v -240 -32 0
v 0 -64 0
v -16 -64 0
v -16 -48 0
v 0 -48 0
v -16 -64 0
v -32 -64 0
v -32 -48 0
v -16 -48 0
v -32 -64 0
v -48 -64 0
v -48 -48 0
v -32 -48 0
v -48 -64 0
v -64 -64 0
v -64 -48 0
v -48 -48 0
v -64 -64 0
v -80 -64 0
v -80 -48 0
v -64 -48 0
v -80 -64 0
v -96 -64 0
v -96 -48 0
v -80 -48 0
v -96 -64 0
v -112 -64 0
v -112 -48 0
v -96 -48 0
v -112 -64 0
v -128 -64 0
v -128 -48 0
v -112 -48 0
v -128 -64 0
v -144 -64 0
v -144 -48 0
v -128 -48 0
v -144 -64 0
v -160 -64 0
v -160 -48 0
v -144 -48 0
v -160 -64 0
v -176 -64 0
v -176 -48 0
v -160 -48 0
v -176 -64 0
v -192 -64 0
v -192 -48 0
v -176 -48 0
v -192 -64 0
v -208 -64 0
v -208 -48 0
v -192 -48 0
v -208 -64 0
v -224 -64 0
v -224 -48 0
v -208 -48 0
v -224 -64 0
v -240 -64 0
v -240 -48 0
v -224 -48 0
v -240 -64 0
v -256 -64 0
v -256 -48 0
v -240 -48 0
v 0 -80 0
v -16 -80 0
v -16 -64 0
v 0 -64 0
v -16 -80 0
v -32 -80 0
v -32 -64 0
v -16 -64 0
v -32 -80 0
v -48 -80 0
v -48 -64 0
v -32 -64 0
v -48 -80 0
v -64 -80 0
v -64 -64 0
v -48 -64 0
v -64 -80 0
v -80 -80 0
v -80 -64 0
v -64 -64 0
v -80 -80 0
v -96 -80 0
v -96 -64 0
v -80 -64 0
v -96 -80 0
v -112 -80 0
v -112 -64 0
v -96 -64 0
v -112 -80 0
v -128 -80 0
v -128 -64 0
v -112 -64 0
v -128 -80 0
v -144 -80 0
v -144 -64 0
v -128 -64 0
v -144 -80 0
v -160 -80 0
v -160 -64 0
v -144 -64 0
v -160 -80 0
v -176 -80 0
v -176 -64 0
v -160 -64 0
v -176 -80 0
v -192 -80 0
v -192 -64 0
v -176 -64 0
v -192 -80 0
v -208 -80 0
v -208 -64 0
v -192 -64 0
v -208 -80 0
v -224 -80 0
v -224 -64 0
v -208 -64 0
v -224 -80 0
v -240 -80 0
v -240 -64 0
v -224 -64 0
v -240 -80 0
v -256 -80 0
v -256 -64 0
v -240 -64 0
v 0 -96 0
v -16 -96 0
v -16 -80 0
v 0 -80 0
v -16 -96 0
v -32 -96 0
v -32 -80 0
v -16 -80 0
v -32 -96 0
v -48 -96 0
v -48 -80 0
v -32 -80 0
v -48 -96 0
v -64 -96 0
v -64 -80 0
v -48 -80 0
v -64 -96 0
v -80 -96 0
v -80 -80 0
v -64 -80 0
v -80 -96 0
v -96 -96 0
v -96 -80 0
v -80 -80 0
v -96 -96 0
v -112 -96 0
v -112 -80 0
v -96 -80 0
v -112 -96 0
v -128 -96 0
v -128 -80 0
v -112 -80 0
v -128 -96 0
v -144 -96 0
v -144 -80 0
v -128 -80 0
v -144 -96 0
v -160 -96 0
v -160 -80 0
v -144 -80 0
v -160 -96 0
v -176 -96 0
v -176 -80 0
v -160 -80 0
v -176 -96 0
v -192 -96 0
v -192 -80 0
v -176 -80 0
v -192 -96 0
v -208 -96 0
v -208 -80 0
v -192 -80 0
v -208 -96 0
v -224 -96 0
v -224 -80 0
v -208 -80 0
v -224 -96 0
v -240 -96 0
v -240 -80 0
v -224 -80 0
v -240 -96 0
v -256 -96 0
v -256 -80 0
v -240 -80 0
v 0 -112 0
v -16 -112 0
v -16 -96 0
v 0 -96 0
v -16 -112 0
v -32 -112 0
v -32 -96 0
v -16 -96 0
v -32 -112 0
v -48 -112 0
v -48 -96 0
v -32 -96 0
v -48 -112 0
v -64 -112 0
v -64 -96 0
v -48 -96 0
v -64 -112 0
v -80 -112 0
v -80 -96 0
v -64 -96 0
v -80 -112 0
v -96 -112 0
v -96 -96 0
v -80 -96 0
v -96 -112 0
v -112 -112 0
v -112 -96 0
v -96 -96 0
v -112 -112 0
v -128 -112 0
v -128 -96 0
v -112 -96 0
v -128 -112 0
v -144 -112 0
v -144 -96 0
v -128 -96 0
v -144 -112 0
v -160 -112 0
v -160 -96 0
v -144 -96 0
v -160 -112 0
v -176 -112 0
v -176 -96 0
v -160 -96 0
v -176 -112 0
v -192 -112 0
v -192 -96 0
v -176 -96 0
v -192 -112 0
v -208 -112 0
v -208 -96 0
v -192 -96 0
v -208 -112 0
v -224 -112 0
v -224 -96 0
v -208 -96 0
v -224 -112 0
v -240 -112 0
v -240 -96 0
v -224 -96 0
v -240 -112 0
v -256 -112 0
v -256 -96 0
v -240 -96 0
v 0 -128 0
v -16 -128 0
v -16 -112 0
v 0 -112 0
v -16 -128 0
v -32 -128 0
v -32 -112 0
v -16 -112 0
v -32 -128 0
v -48 -128 0
v -48 -112 0
v -32 -112 0
v -48 -128 0
v -64 -128 0
v -64 -112 0
v -48 -112 0
v -64 -128 0
v -80 -128 0
v -80 -112 0
v -64 -112 0
v -80 -128 0
v -96 -128 0
v -96 -112 0
v -80 -112 0
v -96 -128 0
v -112 -128 0
v -112 -112 0
v -96 -112 0
v -112 -128 0
v -128 -128 0
v -128 -112 0
v -112 -112 0
v -128 -128 0
v -144 -128 0
v -144 -112 0
v -128 -112 0
v -144 -128 0
v -160 -128 0
v -160 -112 0
v -144 -112 0
v -160 -128 0
v -176 -128 0
v -176 -112 0
v -160 -112 0
v -176 -128 0
v -192 -128 0
v -192 -112 0
v -176 -112 0
v -192 -128 0
v -208 -128 0
v -208 -112 0
v -192 -112 0
v -208 -128 0
v -224 -128 0
v -224 -112 0
v -208 -112 0
v -224 -128 0
v -240 -128 0
v -240 -112 0
v -224 -112 0
v -240 -128 0
v -256 -128 0
v -256 -112 0
v -240 -112 0
v 0 -144 0
v -16 -144 0
v -16 -128 0
v 0 -128 0
v -16 -144 0
v -32 -144 0
v -32 -128 0
v -16 -128 0
v -32 -144 0
v -48 -144 0
v -48 -128 0
v -32 -128 0
v -48 -144 0
v -64 -144 0
v -64 -128 0
v -48 -128 0
v -64 -144 0
v -80 -144 0
v -80 -128 0
v -64 -128 0
v -80 -144 0
v -96 -144 0
v -96 -128 0
v -80 -128 0
v -96 -144 0
v -112 -144 0
v -112 -128 0
v -96 -128 0
v -112 -144 0
v -128 -144 0
v -128 -128 0
v -112 -128 0
v -128 -144 0
v -144 -144 0
v -144 -128 0
v -128 -128 0
v -144 -144 0
v -160 -144 0
v -160 -128 0
v -144 -128 0
v -160 -144 0
v -176 -144 0
v -176 -128 0
v -160 -128 0
v -176 -144 0
v -192 -144 0
v -192 -128 0
v -176 -128 0
v -192 -144 0
v -208 -144 0
v -208 -128 0
v -192 -128 0
v -208 -144 0
v -224 -144 0
v -224 -128 0
v -208 -128 0
v -224 -144 0
v -240 -144 0
v -240 -128 0
v -224 -128 0
v -240 -144 0
v -256 -144 0
v -256 -128 0
v -240 -128 0
v 0 -160 0
v -16 -160 0
v -16 -144 0
v 0 -144 0
v -16 -160 0
v -32 -160 0
v -32 -144 0
v -16 -144 0
v -32 -160 0
v -48 -160 0
v -48 -144 0
v -32 -144 0
v -48 -160 0
v -64 -160 0
v -64 -144 0
v -48 -144 0
v -64 -160 0
v -80 -160 0
v -80 -144 0
v -64 -144 0
v -80 -160 0
v -96 -160 0
v -96 -144 0
v -80 -144 0
v -96 -160 0
v -112 -160 0
v -112 -144 0
v -96 -144 0
v -112 -160 0
v -128 -160 0
v -128 -144 0
v -112 -144 0
v -128 -160 0
v -144 -160 0
v -144 -144 0
v -128 -144 0
v -144 -160 0
v -160 -160 0
v -160 -144 0
v -144 -144 0
v -160 -160 0
v -176 -160 0
v -176 -144 0
v -160 -144 0
v -176 -160 0
v -192 -160 0
v -192 -144 0
v -176 -144 0
v -192 -160 0
v -208 -160 0
v -208 -144 0
v -192 -144 0
v -208 -160 0
v -224 -160 0
v -224 -144 0
v -208 -144 0
v -224 -160 0
v -240 -160 0
v -240 -144 0
v -224 -144 0
v -240 -160 0
v -256 -160 0
v -256 -144 0
v -240 -144 0
v 0 -176 0
v -16 -176 0
v -16 -160 0
v 0 -160 0
v -16 -176 0
v -32 -176 0
v -32 -160 0
v -16 -160 0
v -32 -176 0
v -48 -176 0
v -48 -160 0
v -32 -160 0
v -48 -176 0
v -64 -176 0
v -64 -160 0
v -48 -160 0
v -64 -176 0
v -80 -176 0
v -80 -160 0
v -64 -160 0
v -80 -176 0
v -96 -176 0
v -96 -160 0
v -80 -160 0
v -96 -176 0
v -112 -176 0
v -112 -160 0
v -96 -160 0
v -112 -176 0
v -128 -176 0
v -128 -160 0
v -112 -160 0
v -128 -176 0
v -144 -176 0
v -144 -160 0
v -128 -160 0
v -144 -176 0
v -160 -176 0
v -160 -160 0
v -144 -160 0
v -160 -176 0
v -176 -176 0
v -176 -160 0
v -160 -160 0
v -176 -176 0
v -192 -176 0
v -192 -160 0
v -176 -160 0
v -192 -176 0
v -208 -176 0
v -208 -160 0
v -192 -160 0
v -208 -176 0
v -224 -176 0
v -224 -160 0
v -208 -160 0
v -224 -176 0
v -240 -176 0
v -240 -160 0
v -224 -160 0
v -240 -176 0
v -256 -176 0
v -256 -160 0
v -240 -160 0
v 0 -192 0
v -16 -192 0
v -16 -176 0
v 0 -176 0
v -16 -192 0
v -32 -192 0
v -32 -176 0
v -16 -176 0
v -32 -192 0
v -48 -192 0
v -48 -176 0
v -32 -176 0
v -48 -192 0
v -64 -192 0
v -64 -176 0
v -48 -176 0
v -64 -192 0
v -80 -192 0
v -80 -176 0
v -64 -176 0
v -80 -192 0
v -96 -192 0
v -96 -176 0
v -80 -176 0
v -96 -192 0
v -112 -192 0
v -112 -176 0
v -96 -176 0
v -112 -192 0
v -128 -192 0
v -128 -176 0
v -112 -176 0
v -128 -192 0
v -144 -192 0
v -144 -176 0
v -128 -176 0
v -144 -192 0
v -160 -192 0
v -160 -176 0
v -144 -176 0
v -160 -192 0
v -176 -192 0
v -176 -176 0
v -160 -176 0
v -176 -192 0
v -192 -192 0
v -192 -176 0
v -176 -176 0
v -192 -192 0
v -208 -192 0
v -208 -176 0
v -192 -176 0
v -208 -192 0
v -224 -192 0
v -224 -176 0
v -208 -176 0
v -224 -192 0
v -240 -192 0
v -240 -176 0
v -224 -176 0
v -240 -192 0
v -256 -192 0
v -256 -176 0
v -240 -176 0
v 0 -208 0
v -16 -208 0
v -16 -192 0
v 0 -192 0
v -16 -208 0
v -32 -208 0
v -32 -192 0
v -16 -192 0
v -32 -208 0
v -48 -208 0
v -48 -192 0
v -32 -192 0
v -48 -208 0
v -64 -208 0
v -64 -192 0
v -48 -192 0
v -64 -208 0
v -80 -208 0
v -80 -192 0
v -64 -192 0
v -80 -208 0
v -96 -208 0
v -96 -192 0
v -80 -192 0
v -96 -208 0
v -112 -208 0
v -112 -192 0
v -96 -192 0
v -112 -208 0
v -128 -208 0
v -128 -192 0
v -112 -192 0
v -128 -208 0
v -144 -208 0
v -144 -192 0
v -128 -192 0
v -144 -208 0
v -160 -208 0
v -160 -192 0
v -144 -192 0
v -160 -208 0
v -176 -208 0
v -176 -192 0
v -160 -192 0
v -176 -208 0
v -192 -208 0
v -192 -192 0
v -176 -192 0
v -192 -208 0
v -208 -208 0
v -208 -192 0
v -192 -192 0
v -208 -208 0
v -224 -208 0
v -224 -192 0
v -208 -192 0
v -224 -208 0
v -240 -208 0
v -240 -192 0
v -224 -192 0
v -240 -208 0
v -256 -208 0
v -256 -192 0
v -240 -192 0
v 0 -224 0
v -16 -224 0
v -16 -208 0
v 0 -208 0
v -16 -224 0
v -32 -224 0
v -32 -208 0
v -16 -208 0
v -32 -224 0
v -48 -224 0
v -48 -208 0
v -32 -208 0
v -48 -224 0
v -64 -224 0
v -64 -208 0
v -48 -208 0
v -64 -224 0
v -80 -224 0
v -80 -208 0
v -64 -208 0
v -80 -224 0
v -96 -224 0
v -96 -208 0
v -80 -208 0
v -96 -224 0
v -112 -224 0
v -112 -208 0
v -96 -208 0
v -112 -224 0
v -128 -224 0
v -128 -208 0
v -112 -208 0
v -128 -224 0
v -144 -224 0
v -144 -208 0
v -128 -208 0
v -144 -224 0
v -160 -224 0
v -160 -208 0
v -144 -208 0
v -160 -224 0
v -176 -224 0
v -176 -208 0
v -160 -208 0
v -176 -224 0
v -192 -224 0
v -192 -208 0
v -176 -208 0
v -192 -224 0
v -208 -224 0
v -208 -208 0
v -192 -208 0
v -208 -224 0
v -224 -224 0
v -224 -208 0
v -208 -208 0
v -224 -224 0
v -240 -224 0
v -240 -208 0
v -224 -208 0
v -240 -224 0
v -256 -224 0
v -256 -208 0
v -240 -208 0
v 0 -240 0
v -16 -240 0
v -16 -224 0
v 0 -224 0
v -16 -240 0
v -32 -240 0
v -32 -224 0
v -16 -224 0
v -32 -240 0
v -48 -240 0
v -48 -224 0
v -32 -224 0
v -48 -240 0
v -64 -240 0
v -64 -224 0
v -48 -224 0
v -64 -240 0
v -80 -240 0
v -80 -224 0
v -64 -224 0
v -80 -240 0
v -96 -240 0
v -96 -224 0
v -80 -224 0
v -96 -240 0
v -112 -240 0
v -112 -224 0
v -96 -224 0
v -112 -240 0
v -128 -240 0
v -128 -224 0
v -112 -224 0
v -128 -240 0
v -144 -240 0
v -144 -224 0
v -128 -224 0
v -144 -240 0
v -160 -240 0
v -160 -224 0
v -144 -224 0
v -160 -240 0
v -176 -240 0
v -176 -224 0
v -160 -224 0
v -176 -240 0
v -192 -240 0
v -192 -224 0
v -176 -224 0
v -192 -240 0
v -208 -240 0
v -208 -224 0
v -192 -224 0
v -208 -240 0
v -224 -240 0
v -224 -224 0
v -208 -224 0
v -224 -240 0
v -240 -240 0
v -240 -224 0
v -224 -224 0
v -240 -240 0
v -256 -240 0
v -256 -224 0
v -240 -224 0
v 0 -256 0
v -16 -256 0
v -16 -240 0
v 0 -240 0
v -16 -256 0
v -32 -256 0
v -32 -240 0
v -16 -240 0
v -32 -256 0
v -48 -256 0
v -48 -240 0
v -32 -240 0
v -48 -256 0
v -64 -256 0
v -64 -240 0
v -48 -240 0
v -64 -256 0
v -80 -256 0
v -80 -240 0
v -64 -240 0
v -80 -256 0
v -96 -256 0
v -96 -240 0
v -80 -240 0
v -96 -256 0
v -112 -256 0
v -112 -240 0
v -96 -240 0
v -112 -256 0
v -128 -256 0
v -128 -240 0
v -112 -240 0
v -128 -256 0
v -144 -256 0
v -144 -240 0
v -128 -240 0
v -144 -256 0
v -160 -256 0
v -160 -240 0
v -144 -240 0
v -160 -256 0
v -176 -256 0
v -176 -240 0
v -160 -240 0
v -176 -256 0
v -192 -256 0
v -192 -240 0
v -176 -240 0
v -192 -256 0
v -208 -256 0
v -208 -240 0
v -192 -240 0
v -208 -256 0
v -224 -256 0
v -224 -240 0
v -208 -240 0
v -224 -256 0
v -240 -256 0
v -240 -240 0
v -224 -240 0
v -240 -256 0
v -256 -256 0
v -256 -240 0
v -240 -240 0

# Texture cooridinates (Count = 36)
vt 0 0.0714286
vt 0.04347826 0.0714286
vt 0.04347826 0.1428571
vt 0 0.1428571
vt 0.08695652 0.0714286
vt 0.08695652 0.1428571
vt 0.1304348 0.0714286
vt 0.1304348 0.1428571
vt 0.173913 0.0714286
vt 0.173913 0.1428571
vt 0 0.5
vt 0.04347826 0.5
vt 0.04347826 0.5714285
vt 0 0.5714285
vt 0.3478261 0.2857143
vt 0.3913043 0.2857143
vt 0.3913043 0.3571429
vt 0.3478261 0.3571429
vt 0.4347826 0.2857143
vt 0.4347826 0.3571429
vt 0.4782609 0.2857143
vt 0.4782609 0.3571429
vt 0.3478261 0.2142857
vt 0.3913043 0.2142857
vt 0.4347826 0.2142857
vt 0.4782609 0.2142857
vt 0.5217391 0.2142857
vt 0.5217391 0.2857143
vt 0.3043478 0.2142857
vt 0.3043478 0.2857143
vt 0.3478261 0.1428571
vt 0.3913043 0.1428571
vt 0.4347826 0.1428571
vt 0.4782609 0.1428571
vt 0.5217391 0.1428571
vt 0.3043478 0.1428571

# Normal
vn 0 0 -1

# Mesh description
g Level2_mesh_0104

# Faces
f 1/1/1 2/2/1 3/3/1 4/4/1
f 5/2/1 6/5/1 7/6/1 8/3/1
f 9/5/1 10/7/1 11/8/1 12/6/1
f 13/7/1 14/9/1 15/10/1 16/8/1
f 17/11/1 18/12/1 19/13/1 20/14/1
f 21/11/1 22/12/1 23/13/1 24/14/1
f 25/11/1 26/12/1 27/13/1 28/14/1
f 29/11/1 30/12/1 31/13/1 32/14/1
f 33/1/1 34/2/1 35/3/1 36/4/1
f 37/2/1 38/5/1 39/6/1 40/3/1
f 41/5/1 42/7/1 43/8/1 44/6/1
f 45/7/1 46/9/1 47/10/1 48/8/1
f 49/11/1 50/12/1 51/13/1 52/14/1
f 53/11/1 54/12/1 55/13/1 56/14/1
f 57/11/1 58/12/1 59/13/1 60/14/1
f 61/11/1 62/12/1 63/13/1 64/14/1
f 65/15/1 66/16/1 67/17/1 68/18/1
f 69/16/1 70/19/1 71/20/1 72/17/1
f 73/16/1 74/19/1 75/20/1 76/17/1
f 77/19/1 78/21/1 79/22/1 80/20/1
f 81/11/1 82/12/1 83/13/1 84/14/1
f 85/11/1 86/12/1 87/13/1 88/14/1
f 89/11/1 90/12/1 91/13/1 92/14/1
f 93/11/1 94/12/1 95/13/1 96/14/1
f 97/15/1 98/16/1 99/17/1 100/18/1
f 101/16/1 102/19/1 103/20/1 104/17/1
f 105/16/1 106/19/1 107/20/1 108/17/1
f 109/19/1 110/21/1 111/22/1 112/20/1
f 113/11/1 114/12/1 115/13/1 116/14/1
f 117/11/1 118/12/1 119/13/1 120/14/1
f 121/11/1 122/12/1 123/13/1 124/14/1
f 125/11/1 126/12/1 127/13/1 128/14/1
f 129/23/1 130/24/1 131/16/1 132/15/1
f 133/24/1 134/25/1 135/19/1 136/16/1
f 137/24/1 138/25/1 139/19/1 140/16/1
f 141/25/1 142/26/1 143/21/1 144/19/1
f 145/26/1 146/27/1 147/28/1 148/21/1
f 149/11/1 150/12/1 151/13/1 152/14/1
f 153/11/1 154/12/1 155/13/1 156/14/1
f 157/29/1 158/23/1 159/15/1 160/30/1
f 161/23/1 162/24/1 163/16/1 164/15/1
f 165/24/1 166/25/1 167/19/1 168/16/1
f 169/24/1 170/25/1 171/19/1 172/16/1
f 173/25/1 174/26/1 175/21/1 176/19/1
f 177/26/1 178/27/1 179/28/1 180/21/1
f 181/11/1 182/12/1 183/13/1 184/14/1
f 185/11/1 186/12/1 187/13/1 188/14/1
f 189/29/1 190/23/1 191/15/1 192/30/1
f 193/16/1 194/19/1 195/20/1 196/17/1
f 197/24/1 198/25/1 199/19/1 200/16/1
f 201/24/1 202/25/1 203/19/1 204/16/1
f 205/24/1 206/25/1 207/19/1 208/16/1
f 209/16/1 210/19/1 211/20/1 212/17/1
f 213/19/1 214/21/1 215/22/1 216/20/1
f 217/15/1 218/16/1 219/17/1 220/18/1
f 221/16/1 222/19/1 223/20/1 224/17/1
f 225/16/1 226/19/1 227/20/1 228/17/1
f 229/24/1 230/25/1 231/19/1 232/16/1
f 233/24/1 234/25/1 235/19/1 236/16/1
f 237/24/1 238/25/1 239/19/1 240/16/1
f 241/16/1 242/19/1 243/20/1 244/17/1
f 245/19/1 246/21/1 247/22/1 248/20/1
f 249/15/1 250/16/1 251/17/1 252/18/1
f 253/16/1 254/19/1 255/20/1 256/17/1
f 257/31/1 258/32/1 259/24/1 260/23/1
f 261/32/1 262/33/1 263/25/1 264/24/1
f 265/33/1 266/34/1 267/26/1 268/25/1
f 269/34/1 270/35/1 271/27/1 272/26/1
f 273/33/1 274/34/1 275/26/1 276/25/1
f 277/34/1 278/35/1 279/27/1 280/26/1
f 281/36/1 282/31/1 283/23/1 284/29/1
f 285/31/1 286/32/1 287/24/1 288/23/1
f 289/32/1 290/33/1 291/25/1 292/24/1
f 293/36/1 294/31/1 295/23/1 296/29/1
f 297/31/1 298/32/1 299/24/1 300/23/1
f 301/32/1 302/33/1 303/25/1 304/24/1
f 305/33/1 306/34/1 307/26/1 308/25/1
f 309/34/1 310/35/1 311/27/1 312/26/1
f 313/36/1 314/31/1 315/23/1 316/29/1
f 317/36/1 318/31/1 319/23/1 320/29/1
f 321/32/1 322/33/1 323/25/1 324/24/1
f 325/33/1 326/34/1 327/26/1 328/25/1
f 329/34/1 330/35/1 331/27/1 332/26/1
f 333/32/1 334/33/1 335/25/1 336/24/1
f 337/33/1 338/34/1 339/26/1 340/25/1
f 341/34/1 342/35/1 343/27/1 344/26/1
f 345/36/1 346/31/1 347/23/1 348/29/1
f 349/36/1 350/31/1 351/23/1 352/29/1
f 353/31/1 354/32/1 355/24/1 356/23/1
f 357/32/1 358/33/1 359/25/1 360/24/1
f 361/33/1 362/34/1 363/26/1 364/25/1
f 365/34/1 366/35/1 367/27/1 368/26/1
f 369/33/1 370/34/1 371/26/1 372/25/1
f 373/34/1 374/35/1 375/27/1 376/26/1
f 377/36/1 378/31/1 379/23/1 380/29/1
f 381/31/1 382/32/1 383/24/1 384/23/1
f 385/36/1 386/31/1 387/23/1 388/29/1
f 389/31/1 390/32/1 391/24/1 392/23/1
f 393/32/1 394/33/1 395/25/1 396/24/1
f 397/33/1 398/34/1 399/26/1 400/25/1
f 401/34/1 402/35/1 403/27/1 404/26/1
f 405/34/1 406/35/1 407/27/1 408/26/1
f 409/36/1 410/31/1 411/23/1 412/29/1
f 413/36/1 414/31/1 415/23/1 416/29/1
f 417/31/1 418/32/1 419/24/1 420/23/1
f 421/32/1 422/33/1 423/25/1 424/24/1
f 425/33/1 426/34/1 427/26/1 428/25/1
f 429/34/1 430/35/1 431/27/1 432/26/1
f 433/33/1 434/34/1 435/26/1 436/25/1
f 437/34/1 438/35/1 439/27/1 440/26/1
f 441/36/1 442/31/1 443/23/1 444/29/1
f 445/31/1 446/32/1 447/24/1 448/23/1
f 449/36/1 450/31/1 451/23/1 452/29/1
f 453/31/1 454/32/1 455/24/1 456/23/1
f 457/32/1 458/33/1 459/25/1 460/24/1
f 461/33/1 462/34/1 463/26/1 464/25/1
f 465/34/1 466/35/1 467/27/1 468/26/1
f 469/34/1 470/35/1 471/27/1 472/26/1
f 473/36/1 474/31/1 475/23/1 476/29/1
f 477/36/1 478/31/1 479/23/1 480/29/1
f 481/31/1 482/32/1 483/24/1 484/23/1
f 485/32/1 486/33/1 487/25/1 488/24/1
f 489/33/1 490/34/1 491/26/1 492/25/1
f 493/34/1 494/35/1 495/27/1 496/26/1
f 497/33/1 498/34/1 499/26/1 500/25/1
f 501/34/1 502/35/1 503/27/1 504/26/1
f 505/36/1 506/31/1 507/23/1 508/29/1
f 509/36/1 510/31/1 511/23/1 512/29/1
f 513/36/1 514/31/1 515/23/1 516/29/1
f 517/36/1 518/31/1 519/23/1 520/29/1
f 521/31/1 522/32/1 523/24/1 524/23/1
f 525/32/1 526/33/1 527/25/1 528/24/1
f 529/33/1 530/34/1 531/26/1 532/25/1
f 533/34/1 534/35/1 535/27/1 536/26/1
f 537/36/1 538/31/1 539/23/1 540/29/1
f 541/31/1 542/32/1 543/24/1 544/23/1
f 545/32/1 546/33/1 547/25/1 548/24/1
f 549/36/1 550/31/1 551/23/1 552/29/1
f 553/31/1 554/32/1 555/24/1 556/23/1
f 557/32/1 558/33/1 559/25/1 560/24/1
f 561/33/1 562/34/1 563/26/1 564/25/1
f 565/34/1 566/35/1 567/27/1 568/26/1
f 569/36/1 570/31/1 571/23/1 572/29/1
f 573/31/1 574/32/1 575/24/1 576/23/1
f 577/32/1 578/33/1 579/25/1 580/24/1
f 581/36/1 582/31/1 583/23/1 584/29/1
f 585/31/1 586/32/1 587/24/1 588/23/1
f 589/32/1 590/33/1 591/25/1 592/24/1
f 593/33/1 594/34/1 595/26/1 596/25/1
f 597/34/1 598/35/1 599/27/1 600/26/1
f 601/36/1 602/31/1 603/23/1 604/29/1
f 605/31/1 606/32/1 607/24/1 608/23/1
f 609/36/1 610/31/1 611/23/1 612/29/1
f 613/31/1 614/32/1 615/24/1 616/23/1
f 617/32/1 618/33/1 619/25/1 620/24/1
f 621/33/1 622/34/1 623/26/1 624/25/1
f 625/34/1 626/35/1 627/27/1 628/26/1
f 629/34/1 630/35/1 631/27/1 632/26/1
f 633/36/1 634/31/1 635/23/1 636/29/1
f 637/31/1 638/32/1 639/24/1 640/23/1
f 641/32/1 642/33/1 643/25/1 644/24/1
f 645/33/1 646/34/1 647/26/1 648/25/1
f 649/34/1 650/35/1 651/27/1 652/26/1
f 653/32/1 654/33/1 655/25/1 656/24/1
f 657/33/1 658/34/1 659/26/1 660/25/1
f 661/34/1 662/35/1 663/27/1 664/26/1
f 665/36/1 666/31/1 667/23/1 668/29/1
f 669/31/1 670/32/1 671/24/1 672/23/1
f 673/32/1 674/33/1 675/25/1 676/24/1
f 677/33/1 678/34/1 679/26/1 680/25/1
f 681/34/1 682/35/1 683/27/1 684/26/1
f 685/32/1 686/33/1 687/25/1 688/24/1
f 689/33/1 690/34/1 691/26/1 692/25/1
f 693/34/1 694/35/1 695/27/1 696/26/1
f 697/36/1 698/31/1 699/23/1 700/29/1
f 701/31/1 702/32/1 703/24/1 704/23/1
f 705/36/1 706/31/1 707/23/1 708/29/1
f 709/36/1 710/31/1 711/23/1 712/29/1
f 713/31/1 714/32/1 715/24/1 716/23/1
f 717/32/1 718/33/1 719/25/1 720/24/1
f 721/33/1 722/34/1 723/26/1 724/25/1
f 725/34/1 726/35/1 727/27/1 728/26/1
f 729/36/1 730/31/1 731/23/1 732/29/1
f 733/31/1 734/32/1 735/24/1 736/23/1
f 737/32/1 738/33/1 739/25/1 740/24/1
f 741/33/1 742/34/1 743/26/1 744/25/1
f 745/34/1 746/35/1 747/27/1 748/26/1
f 749/34/1 750/35/1 751/27/1 752/26/1
f 753/34/1 754/35/1 755/27/1 756/26/1
f 757/34/1 758/35/1 759/27/1 760/26/1
f 761/36/1 762/31/1 763/23/1 764/29/1
f 765/36/1 766/31/1 767/23/1 768/29/1
f 769/36/1 770/31/1 771/23/1 772/29/1
f 773/36/1 774/31/1 775/23/1 776/29/1
f 777/31/1 778/32/1 779/24/1 780/23/1
f 781/32/1 782/33/1 783/25/1 784/24/1
f 785/33/1 786/34/1 787/26/1 788/25/1
f 789/34/1 790/35/1 791/27/1 792/26/1
f 793/36/1 794/31/1 795/23/1 796/29/1
f 797/31/1 798/32/1 799/24/1 800/23/1
f 801/32/1 802/33/1 803/25/1 804/24/1
f 805/36/1 806/31/1 807/23/1 808/29/1
f 809/31/1 810/32/1 811/24/1 812/23/1
f 813/32/1 814/33/1 815/25/1 816/24/1
f 817/33/1 818/34/1 819/26/1 820/25/1
f 821/34/1 822/35/1 823/27/1 824/26/1
f 825/36/1 826/31/1 827/23/1 828/29/1
f 829/31/1 830/32/1 831/24/1 832/23/1
f 833/32/1 834/33/1 835/25/1 836/24/1
f 837/36/1 838/31/1 839/23/1 840/29/1
f 841/31/1 842/32/1 843/24/1 844/23/1
f 845/32/1 846/33/1 847/25/1 848/24/1
f 849/33/1 850/34/1 851/26/1 852/25/1
f 853/34/1 854/35/1 855/27/1 856/26/1
f 857/36/1 858/31/1 859/23/1 860/29/1
f 861/31/1 862/32/1 863/24/1 864/23/1
f 865/36/1 866/31/1 867/23/1 868/29/1
f 869/36/1 870/31/1 871/23/1 872/29/1
f 873/31/1 874/32/1 875/24/1 876/23/1
f 877/32/1 878/33/1 879/25/1 880/24/1
f 881/33/1 882/34/1 883/26/1 884/25/1
f 885/34/1 886/35/1 887/27/1 888/26/1
f 889/36/1 890/31/1 891/23/1 892/29/1
f 893/31/1 894/32/1 895/24/1 896/23/1
f 897/36/1 898/31/1 899/23/1 900/29/1
f 901/36/1 902/31/1 903/23/1 904/29/1
f 905/31/1 906/32/1 907/24/1 908/23/1
f 909/32/1 910/33/1 911/25/1 912/24/1
f 913/33/1 914/34/1 915/26/1 916/25/1
f 917/34/1 918/35/1 919/27/1 920/26/1
f 921/36/1 922/31/1 923/23/1 924/29/1
f 925/36/1 926/31/1 927/23/1 928/29/1
f 929/36/1 930/31/1 931/23/1 932/29/1
f 933/36/1 934/31/1 935/23/1 936/29/1
f 937/31/1 938/32/1 939/24/1 940/23/1
f 941/32/1 942/33/1 943/25/1 944/24/1
f 945/33/1 946/34/1 947/26/1 948/25/1
f 949/34/1 950/35/1 951/27/1 952/26/1
f 953/36/1 954/31/1 955/23/1 956/29/1
f 957/36/1 958/31/1 959/23/1 960/29/1
f 961/36/1 962/31/1 963/23/1 964/29/1
f 965/31/1 966/32/1 967/24/1 968/23/1
f 969/32/1 970/33/1 971/25/1 972/24/1
f 973/33/1 974/34/1 975/26/1 976/25/1
f 977/34/1 978/35/1 979/27/1 980/26/1
f 981/11/1 982/12/1 983/13/1 984/14/1
f 985/11/1 986/12/1 987/13/1 988/14/1
f 989/11/1 990/12/1 991/13/1 992/14/1
f 993/11/1 994/12/1 995/13/1 996/14/1
f 997/11/1 998/12/1 999/13/1 1000/14/1
f 1001/11/1 1002/12/1 1003/13/1 1004/14/1
f 1005/11/1 1006/12/1 1007/13/1 1008/14/1
f 1009/11/1 1010/12/1 1011/13/1 1012/14/1
f 1013/11/1 1014/12/1 1015/13/1 1016/14/1
f 1017/11/1 1018/12/1 1019/13/1 1020/14/1
f 1021/11/1 1022/12/1 1023/13/1 1024/14/1

