# Tiled2Unity generated file. Do not modify by hand.
# Wavefront file for 'Level2_mesh_0248.obj'

# Vertices (Count = 116)
v 0 -128 0
v -16 -128 0
v -16 -112 0
v 0 -112 0
v -16 -128 0
v -32 -128 0
v -32 -112 0
v -16 -112 0
v -32 -128 0
v -48 -128 0
v -48 -112 0
v -32 -112 0
v -48 -128 0
v -64 -128 0
v -64 -112 0
v -48 -112 0
v -64 -128 0
v -80 -128 0
v -80 -112 0
v -64 -112 0
v -80 -128 0
v -96 -128 0
v -96 -112 0
v -80 -112 0
v -144 -128 0
v -160 -128 0
v -160 -112 0
v -144 -112 0
v -160 -128 0
v -176 -128 0
v -176 -112 0
v -160 -112 0
v -176 -128 0
v -192 -128 0
v -192 -112 0
v -176 -112 0
v -192 -128 0
v -208 -128 0
v -208 -112 0
v -192 -112 0
v -208 -128 0
v -224 -128 0
v -224 -112 0
v -208 -112 0
v -224 -128 0
v -240 -128 0
v -240 -112 0
v -224 -112 0
v -240 -128 0
v -256 -128 0
v -256 -112 0
v -240 -112 0
v -80 -144 0
v -96 -144 0
v -96 -128 0
v -80 -128 0
v -240 -144 0
v -256 -144 0
v -256 -128 0
v -240 -128 0
v -80 -160 0
v -96 -160 0
v -96 -144 0
v -80 -144 0
v -240 -160 0
v -256 -160 0
v -256 -144 0
v -240 -144 0
v -80 -176 0
v -96 -176 0
v -96 -160 0
v -80 -160 0
v -240 -176 0
v -256 -176 0
v -256 -160 0
v -240 -160 0
v -80 -192 0
v -96 -192 0
v -96 -176 0
v -80 -176 0
v -240 -192 0
v -256 -192 0
v -256 -176 0
v -240 -176 0
v -80 -208 0
v -96 -208 0
v -96 -192 0
v -80 -192 0
v -240 -208 0
v -256 -208 0
v -256 -192 0
v -240 -192 0
v -80 -224 0
v -96 -224 0
v -96 -208 0
v -80 -208 0
v -240 -224 0
v -256 -224 0
v -256 -208 0
v -240 -208 0
v -80 -240 0
v -96 -240 0
v -96 -224 0
v -80 -224 0
v -240 -240 0
v -256 -240 0
v -256 -224 0
v -240 -224 0
v -80 -256 0
v -96 -256 0
v -96 -240 0
v -80 -240 0
v -240 -256 0
v -256 -256 0
v -256 -240 0
v -240 -240 0

# Texture cooridinates (Count = 16)
vt 0.32 0.92
vt 0.36 0.92
vt 0.36 0.96
vt 0.32 0.96
vt 0.4 0.92
vt 0.4 0.96
vt 0.28 0.92
vt 0.28 0.96
vt 0.24 0.92
vt 0.24 0.96
vt 0.28 0.88
vt 0.24 0.88
vt 0.4 0.8
vt 0.44 0.8
vt 0.44 0.84
vt 0.4 0.84

# Normal
vn 0 0 -1

# Mesh description
g Level2_mesh_0248

# Faces
f 1/1/1 2/2/1 3/3/1 4/4/1
f 5/2/1 6/5/1 7/6/1 8/3/1
f 9/7/1 10/1/1 11/4/1 12/8/1
f 13/1/1 14/2/1 15/3/1 16/4/1
f 17/2/1 18/5/1 19/6/1 20/3/1
f 21/7/1 22/9/1 23/10/1 24/8/1
f 25/7/1 26/1/1 27/4/1 28/8/1
f 29/1/1 30/2/1 31/3/1 32/4/1
f 33/2/1 34/5/1 35/6/1 36/3/1
f 37/7/1 38/1/1 39/4/1 40/8/1
f 41/1/1 42/2/1 43/3/1 44/4/1
f 45/2/1 46/5/1 47/6/1 48/3/1
f 49/7/1 50/9/1 51/10/1 52/8/1
f 53/11/1 54/12/1 55/9/1 56/7/1
f 57/11/1 58/12/1 59/9/1 60/7/1
f 61/9/1 62/7/1 63/8/1 64/10/1
f 65/9/1 66/7/1 67/8/1 68/10/1
f 69/12/1 70/11/1 71/7/1 72/9/1
f 73/12/1 74/11/1 75/7/1 76/9/1
f 77/13/1 78/14/1 79/15/1 80/16/1
f 81/13/1 82/14/1 83/15/1 84/16/1
f 85/13/1 86/14/1 87/15/1 88/16/1
f 89/13/1 90/14/1 91/15/1 92/16/1
f 93/13/1 94/14/1 95/15/1 96/16/1
f 97/13/1 98/14/1 99/15/1 100/16/1
f 101/13/1 102/14/1 103/15/1 104/16/1
f 105/13/1 106/14/1 107/15/1 108/16/1
f 109/13/1 110/14/1 111/15/1 112/16/1
f 113/13/1 114/14/1 115/15/1 116/16/1

