# Tiled2Unity generated file. Do not modify by hand.
# Wavefront file for 'Level2_mesh_0106.obj'

# Vertices (Count = 1024)
v 0 -16 0
v -16 -16 0
v -16 0 0
v 0 0 0
v -16 -16 0
v -32 -16 0
v -32 0 0
v -16 0 0
v -32 -16 0
v -48 -16 0
v -48 0 0
v -32 0 0
v -48 -16 0
v -64 -16 0
v -64 0 0
v -48 0 0
v -64 -16 0
v -80 -16 0
v -80 0 0
v -64 0 0
v -80 -16 0
v -96 -16 0
v -96 0 0
v -80 0 0
v -96 -16 0
v -112 -16 0
v -112 0 0
v -96 0 0
v -112 -16 0
v -128 -16 0
v -128 0 0
v -112 0 0
v -128 -16 0
v -144 -16 0
v -144 0 0
v -128 0 0
v -144 -16 0
v -160 -16 0
v -160 0 0
v -144 0 0
v -160 -16 0
v -176 -16 0
v -176 0 0
v -160 0 0
v -176 -16 0
v -192 -16 0
v -192 0 0
v -176 0 0
v -192 -16 0
v -208 -16 0
v -208 0 0
v -192 0 0
v -208 -16 0
v -224 -16 0
v -224 0 0
v -208 0 0
v -224 -16 0
v -240 -16 0
v -240 0 0
v -224 0 0
v -240 -16 0
v -256 -16 0
v -256 0 0
v -240 0 0
v 0 -32 0
v -16 -32 0
v -16 -16 0
v 0 -16 0
v -16 -32 0
v -32 -32 0
v -32 -16 0
v -16 -16 0
v -32 -32 0
v -48 -32 0
v -48 -16 0
v -32 -16 0
v -48 -32 0
v -64 -32 0
v -64 -16 0
v -48 -16 0
v -64 -32 0
v -80 -32 0
v -80 -16 0
v -64 -16 0
v -80 -32 0
v -96 -32 0
v -96 -16 0
v -80 -16 0
v -96 -32 0
v -112 -32 0
v -112 -16 0
v -96 -16 0
v -112 -32 0
v -128 -32 0
v -128 -16 0
v -112 -16 0
v -128 -32 0
v -144 -32 0
v -144 -16 0
v -128 -16 0
v -144 -32 0
v -160 -32 0
v -160 -16 0
v -144 -16 0
v -160 -32 0
v -176 -32 0
v -176 -16 0
v -160 -16 0
v -176 -32 0
v -192 -32 0
v -192 -16 0
v -176 -16 0
v -192 -32 0
v -208 -32 0
v -208 -16 0
v -192 -16 0
v -208 -32 0
v -224 -32 0
v -224 -16 0
v -208 -16 0
v -224 -32 0
v -240 -32 0
v -240 -16 0
v -224 -16 0
v -240 -32 0
v -256 -32 0
v -256 -16 0
v -240 -16 0
v 0 -48 0
v -16 -48 0
v -16 -32 0
v 0 -32 0
v -16 -48 0
v -32 -48 0
v -32 -32 0
v -16 -32 0
v -32 -48 0
v -48 -48 0
v -48 -32 0
v -32 -32 0
v -48 -48 0
v -64 -48 0
v -64 -32 0
v -48 -32 0
v -64 -48 0
v -80 -48 0
v -80 -32 0
v -64 -32 0
v -80 -48 0
v -96 -48 0
v -96 -32 0
v -80 -32 0
v -96 -48 0
v -112 -48 0
v -112 -32 0
v -96 -32 0
v -112 -48 0
v -128 -48 0
v -128 -32 0
v -112 -32 0
v -128 -48 0
v -144 -48 0
v -144 -32 0
v -128 -32 0
v -144 -48 0
v -160 -48 0
v -160 -32 0
v -144 -32 0
v -160 -48 0
v -176 -48 0
v -176 -32 0
v -160 -32 0
v -176 -48 0
v -192 -48 0
v -192 -32 0
v -176 -32 0
v -192 -48 0
v -208 -48 0
v -208 -32 0
v -192 -32 0
v -208 -48 0
v -224 -48 0
v -224 -32 0
v -208 -32 0
v -224 -48 0
v -240 -48 0
v -240 -32 0
v -224 -32 0
v -240 -48 0
v -256 -48 0
v -256 -32 0
v -240 -32 0
v 0 -64 0
v -16 -64 0
v -16 -48 0
v 0 -48 0
v -16 -64 0
v -32 -64 0
v -32 -48 0
v -16 -48 0
v -32 -64 0
v -48 -64 0
v -48 -48 0
v -32 -48 0
v -48 -64 0
v -64 -64 0
v -64 -48 0
v -48 -48 0
v -64 -64 0
v -80 -64 0
v -80 -48 0
v -64 -48 0
v -80 -64 0
v -96 -64 0
v -96 -48 0
v -80 -48 0
v -96 -64 0
v -112 -64 0
v -112 -48 0
v -96 -48 0
v -112 -64 0
v -128 -64 0
v -128 -48 0
v -112 -48 0
v -128 -64 0
v -144 -64 0
v -144 -48 0
v -128 -48 0
v -144 -64 0
v -160 -64 0
v -160 -48 0
v -144 -48 0
v -160 -64 0
v -176 -64 0
v -176 -48 0
v -160 -48 0
v -176 -64 0
v -192 -64 0
v -192 -48 0
v -176 -48 0
v -192 -64 0
v -208 -64 0
v -208 -48 0
v -192 -48 0
v -208 -64 0
v -224 -64 0
v -224 -48 0
v -208 -48 0
v -224 -64 0
v -240 -64 0
v -240 -48 0
v -224 -48 0
v -240 -64 0
v -256 -64 0
v -256 -48 0
v -240 -48 0
v 0 -80 0
v -16 -80 0
v -16 -64 0
v 0 -64 0
v -16 -80 0
v -32 -80 0
v -32 -64 0
v -16 -64 0
v -32 -80 0
v -48 -80 0
v -48 -64 0
v -32 -64 0
v -48 -80 0
v -64 -80 0
v -64 -64 0
v -48 -64 0
v -64 -80 0
v -80 -80 0
v -80 -64 0
v -64 -64 0
v -80 -80 0
v -96 -80 0
v -96 -64 0
v -80 -64 0
v -96 -80 0
v -112 -80 0
v -112 -64 0
v -96 -64 0
v -112 -80 0
v -128 -80 0
v -128 -64 0
v -112 -64 0
v -128 -80 0
v -144 -80 0
v -144 -64 0
v -128 -64 0
v -144 -80 0
v -160 -80 0
v -160 -64 0
v -144 -64 0
v -160 -80 0
v -176 -80 0
v -176 -64 0
v -160 -64 0
v -176 -80 0
v -192 -80 0
v -192 -64 0
v -176 -64 0
v -192 -80 0
v -208 -80 0
v -208 -64 0
v -192 -64 0
v -208 -80 0
v -224 -80 0
v -224 -64 0
v -208 -64 0
v -224 -80 0
v -240 -80 0
v -240 -64 0
v -224 -64 0
v -240 -80 0
v -256 -80 0
v -256 -64 0
v -240 -64 0
v 0 -96 0
v -16 -96 0
v -16 -80 0
v 0 -80 0
v -16 -96 0
v -32 -96 0
v -32 -80 0
v -16 -80 0
v -32 -96 0
v -48 -96 0
v -48 -80 0
v -32 -80 0
v -48 -96 0
v -64 -96 0
v -64 -80 0
v -48 -80 0
v -64 -96 0
v -80 -96 0
v -80 -80 0
v -64 -80 0
v -80 -96 0
v -96 -96 0
v -96 -80 0
v -80 -80 0
v -96 -96 0
v -112 -96 0
v -112 -80 0
v -96 -80 0
v -112 -96 0
v -128 -96 0
v -128 -80 0
v -112 -80 0
v -128 -96 0
v -144 -96 0
v -144 -80 0
v -128 -80 0
v -144 -96 0
v -160 -96 0
v -160 -80 0
v -144 -80 0
v -160 -96 0
v -176 -96 0
v -176 -80 0
v -160 -80 0
v -176 -96 0
v -192 -96 0
v -192 -80 0
v -176 -80 0
v -192 -96 0
v -208 -96 0
v -208 -80 0
v -192 -80 0
v -208 -96 0
v -224 -96 0
v -224 -80 0
v -208 -80 0
v -224 -96 0
v -240 -96 0
v -240 -80 0
v -224 -80 0
v -240 -96 0
v -256 -96 0
v -256 -80 0
v -240 -80 0
v 0 -112 0
v -16 -112 0
v -16 -96 0
v 0 -96 0
v -16 -112 0
v -32 -112 0
v -32 -96 0
v -16 -96 0
v -32 -112 0
v -48 -112 0
v -48 -96 0
v -32 -96 0
v -48 -112 0
v -64 -112 0
v -64 -96 0
v -48 -96 0
v -64 -112 0
v -80 -112 0
v -80 -96 0
v -64 -96 0
v -80 -112 0
v -96 -112 0
v -96 -96 0
v -80 -96 0
v -96 -112 0
v -112 -112 0
v -112 -96 0
v -96 -96 0
v -112 -112 0
v -128 -112 0
v -128 -96 0
v -112 -96 0
v -128 -112 0
v -144 -112 0
v -144 -96 0
v -128 -96 0
v -144 -112 0
v -160 -112 0
v -160 -96 0
v -144 -96 0
v -160 -112 0
v -176 -112 0
v -176 -96 0
v -160 -96 0
v -176 -112 0
v -192 -112 0
v -192 -96 0
v -176 -96 0
v -192 -112 0
v -208 -112 0
v -208 -96 0
v -192 -96 0
v -208 -112 0
v -224 -112 0
v -224 -96 0
v -208 -96 0
v -224 -112 0
v -240 -112 0
v -240 -96 0
v -224 -96 0
v -240 -112 0
v -256 -112 0
v -256 -96 0
v -240 -96 0
v 0 -128 0
v -16 -128 0
v -16 -112 0
v 0 -112 0
v -16 -128 0
v -32 -128 0
v -32 -112 0
v -16 -112 0
v -32 -128 0
v -48 -128 0
v -48 -112 0
v -32 -112 0
v -48 -128 0
v -64 -128 0
v -64 -112 0
v -48 -112 0
v -64 -128 0
v -80 -128 0
v -80 -112 0
v -64 -112 0
v -80 -128 0
v -96 -128 0
v -96 -112 0
v -80 -112 0
v -96 -128 0
v -112 -128 0
v -112 -112 0
v -96 -112 0
v -112 -128 0
v -128 -128 0
v -128 -112 0
v -112 -112 0
v -128 -128 0
v -144 -128 0
v -144 -112 0
v -128 -112 0
v -144 -128 0
v -160 -128 0
v -160 -112 0
v -144 -112 0
v -160 -128 0
v -176 -128 0
v -176 -112 0
v -160 -112 0
v -176 -128 0
v -192 -128 0
v -192 -112 0
v -176 -112 0
v -192 -128 0
v -208 -128 0
v -208 -112 0
v -192 -112 0
v -208 -128 0
v -224 -128 0
v -224 -112 0
v -208 -112 0
v -224 -128 0
v -240 -128 0
v -240 -112 0
v -224 -112 0
v -240 -128 0
v -256 -128 0
v -256 -112 0
v -240 -112 0
v 0 -144 0
v -16 -144 0
v -16 -128 0
v 0 -128 0
v -16 -144 0
v -32 -144 0
v -32 -128 0
v -16 -128 0
v -32 -144 0
v -48 -144 0
v -48 -128 0
v -32 -128 0
v -48 -144 0
v -64 -144 0
v -64 -128 0
v -48 -128 0
v -64 -144 0
v -80 -144 0
v -80 -128 0
v -64 -128 0
v -80 -144 0
v -96 -144 0
v -96 -128 0
v -80 -128 0
v -96 -144 0
v -112 -144 0
v -112 -128 0
v -96 -128 0
v -112 -144 0
v -128 -144 0
v -128 -128 0
v -112 -128 0
v -128 -144 0
v -144 -144 0
v -144 -128 0
v -128 -128 0
v -144 -144 0
v -160 -144 0
v -160 -128 0
v -144 -128 0
v -160 -144 0
v -176 -144 0
v -176 -128 0
v -160 -128 0
v -176 -144 0
v -192 -144 0
v -192 -128 0
v -176 -128 0
v -192 -144 0
v -208 -144 0
v -208 -128 0
v -192 -128 0
v -208 -144 0
v -224 -144 0
v -224 -128 0
v -208 -128 0
v -224 -144 0
v -240 -144 0
v -240 -128 0
v -224 -128 0
v -240 -144 0
v -256 -144 0
v -256 -128 0
v -240 -128 0
v 0 -160 0
v -16 -160 0
v -16 -144 0
v 0 -144 0
v -16 -160 0
v -32 -160 0
v -32 -144 0
v -16 -144 0
v -32 -160 0
v -48 -160 0
v -48 -144 0
v -32 -144 0
v -48 -160 0
v -64 -160 0
v -64 -144 0
v -48 -144 0
v -64 -160 0
v -80 -160 0
v -80 -144 0
v -64 -144 0
v -80 -160 0
v -96 -160 0
v -96 -144 0
v -80 -144 0
v -96 -160 0
v -112 -160 0
v -112 -144 0
v -96 -144 0
v -112 -160 0
v -128 -160 0
v -128 -144 0
v -112 -144 0
v -128 -160 0
v -144 -160 0
v -144 -144 0
v -128 -144 0
v -144 -160 0
v -160 -160 0
v -160 -144 0
v -144 -144 0
v -160 -160 0
v -176 -160 0
v -176 -144 0
v -160 -144 0
v -176 -160 0
v -192 -160 0
v -192 -144 0
v -176 -144 0
v -192 -160 0
v -208 -160 0
v -208 -144 0
v -192 -144 0
v -208 -160 0
v -224 -160 0
v -224 -144 0
v -208 -144 0
v -224 -160 0
v -240 -160 0
v -240 -144 0
v -224 -144 0
v -240 -160 0
v -256 -160 0
v -256 -144 0
v -240 -144 0
v 0 -176 0
v -16 -176 0
v -16 -160 0
v 0 -160 0
v -16 -176 0
v -32 -176 0
v -32 -160 0
v -16 -160 0
v -32 -176 0
v -48 -176 0
v -48 -160 0
v -32 -160 0
v -48 -176 0
v -64 -176 0
v -64 -160 0
v -48 -160 0
v -64 -176 0
v -80 -176 0
v -80 -160 0
v -64 -160 0
v -80 -176 0
v -96 -176 0
v -96 -160 0
v -80 -160 0
v -96 -176 0
v -112 -176 0
v -112 -160 0
v -96 -160 0
v -112 -176 0
v -128 -176 0
v -128 -160 0
v -112 -160 0
v -128 -176 0
v -144 -176 0
v -144 -160 0
v -128 -160 0
v -144 -176 0
v -160 -176 0
v -160 -160 0
v -144 -160 0
v -160 -176 0
v -176 -176 0
v -176 -160 0
v -160 -160 0
v -176 -176 0
v -192 -176 0
v -192 -160 0
v -176 -160 0
v -192 -176 0
v -208 -176 0
v -208 -160 0
v -192 -160 0
v -208 -176 0
v -224 -176 0
v -224 -160 0
v -208 -160 0
v -224 -176 0
v -240 -176 0
v -240 -160 0
v -224 -160 0
v -240 -176 0
v -256 -176 0
v -256 -160 0
v -240 -160 0
v 0 -192 0
v -16 -192 0
v -16 -176 0
v 0 -176 0
v -16 -192 0
v -32 -192 0
v -32 -176 0
v -16 -176 0
v -32 -192 0
v -48 -192 0
v -48 -176 0
v -32 -176 0
v -48 -192 0
v -64 -192 0
v -64 -176 0
v -48 -176 0
v -64 -192 0
v -80 -192 0
v -80 -176 0
v -64 -176 0
v -80 -192 0
v -96 -192 0
v -96 -176 0
v -80 -176 0
v -96 -192 0
v -112 -192 0
v -112 -176 0
v -96 -176 0
v -112 -192 0
v -128 -192 0
v -128 -176 0
v -112 -176 0
v -128 -192 0
v -144 -192 0
v -144 -176 0
v -128 -176 0
v -144 -192 0
v -160 -192 0
v -160 -176 0
v -144 -176 0
v -160 -192 0
v -176 -192 0
v -176 -176 0
v -160 -176 0
v -176 -192 0
v -192 -192 0
v -192 -176 0
v -176 -176 0
v -192 -192 0
v -208 -192 0
v -208 -176 0
v -192 -176 0
v -208 -192 0
v -224 -192 0
v -224 -176 0
v -208 -176 0
v -224 -192 0
v -240 -192 0
v -240 -176 0
v -224 -176 0
v -240 -192 0
v -256 -192 0
v -256 -176 0
v -240 -176 0
v 0 -208 0
v -16 -208 0
v -16 -192 0
v 0 -192 0
v -16 -208 0
v -32 -208 0
v -32 -192 0
v -16 -192 0
v -32 -208 0
v -48 -208 0
v -48 -192 0
v -32 -192 0
v -48 -208 0
v -64 -208 0
v -64 -192 0
v -48 -192 0
v -64 -208 0
v -80 -208 0
v -80 -192 0
v -64 -192 0
v -80 -208 0
v -96 -208 0
v -96 -192 0
v -80 -192 0
v -96 -208 0
v -112 -208 0
v -112 -192 0
v -96 -192 0
v -112 -208 0
v -128 -208 0
v -128 -192 0
v -112 -192 0
v -128 -208 0
v -144 -208 0
v -144 -192 0
v -128 -192 0
v -144 -208 0
v -160 -208 0
v -160 -192 0
v -144 -192 0
v -160 -208 0
v -176 -208 0
v -176 -192 0
v -160 -192 0
v -176 -208 0
v -192 -208 0
v -192 -192 0
v -176 -192 0
v -192 -208 0
v -208 -208 0
v -208 -192 0
v -192 -192 0
v -208 -208 0
v -224 -208 0
v -224 -192 0
v -208 -192 0
v -224 -208 0
v -240 -208 0
v -240 -192 0
v -224 -192 0
v -240 -208 0
v -256 -208 0
v -256 -192 0
v -240 -192 0
v 0 -224 0
v -16 -224 0
v -16 -208 0
v 0 -208 0
v -16 -224 0
v -32 -224 0
v -32 -208 0
v -16 -208 0
v -32 -224 0
v -48 -224 0
v -48 -208 0
v -32 -208 0
v -48 -224 0
v -64 -224 0
v -64 -208 0
v -48 -208 0
v -64 -224 0
v -80 -224 0
v -80 -208 0
v -64 -208 0
v -80 -224 0
v -96 -224 0
v -96 -208 0
v -80 -208 0
v -96 -224 0
v -112 -224 0
v -112 -208 0
v -96 -208 0
v -112 -224 0
v -128 -224 0
v -128 -208 0
v -112 -208 0
v -128 -224 0
v -144 -224 0
v -144 -208 0
v -128 -208 0
v -144 -224 0
v -160 -224 0
v -160 -208 0
v -144 -208 0
v -160 -224 0
v -176 -224 0
v -176 -208 0
v -160 -208 0
v -176 -224 0
v -192 -224 0
v -192 -208 0
v -176 -208 0
v -192 -224 0
v -208 -224 0
v -208 -208 0
v -192 -208 0
v -208 -224 0
v -224 -224 0
v -224 -208 0
v -208 -208 0
v -224 -224 0
v -240 -224 0
v -240 -208 0
v -224 -208 0
v -240 -224 0
v -256 -224 0
v -256 -208 0
v -240 -208 0
v 0 -240 0
v -16 -240 0
v -16 -224 0
v 0 -224 0
v -16 -240 0
v -32 -240 0
v -32 -224 0
v -16 -224 0
v -32 -240 0
v -48 -240 0
v -48 -224 0
v -32 -224 0
v -48 -240 0
v -64 -240 0
v -64 -224 0
v -48 -224 0
v -64 -240 0
v -80 -240 0
v -80 -224 0
v -64 -224 0
v -80 -240 0
v -96 -240 0
v -96 -224 0
v -80 -224 0
v -96 -240 0
v -112 -240 0
v -112 -224 0
v -96 -224 0
v -112 -240 0
v -128 -240 0
v -128 -224 0
v -112 -224 0
v -128 -240 0
v -144 -240 0
v -144 -224 0
v -128 -224 0
v -144 -240 0
v -160 -240 0
v -160 -224 0
v -144 -224 0
v -160 -240 0
v -176 -240 0
v -176 -224 0
v -160 -224 0
v -176 -240 0
v -192 -240 0
v -192 -224 0
v -176 -224 0
v -192 -240 0
v -208 -240 0
v -208 -224 0
v -192 -224 0
v -208 -240 0
v -224 -240 0
v -224 -224 0
v -208 -224 0
v -224 -240 0
v -240 -240 0
v -240 -224 0
v -224 -224 0
v -240 -240 0
v -256 -240 0
v -256 -224 0
v -240 -224 0
v 0 -256 0
v -16 -256 0
v -16 -240 0
v 0 -240 0
v -16 -256 0
v -32 -256 0
v -32 -240 0
v -16 -240 0
v -32 -256 0
v -48 -256 0
v -48 -240 0
v -32 -240 0
v -48 -256 0
v -64 -256 0
v -64 -240 0
v -48 -240 0
v -64 -256 0
v -80 -256 0
v -80 -240 0
v -64 -240 0
v -80 -256 0
v -96 -256 0
v -96 -240 0
v -80 -240 0
v -96 -256 0
v -112 -256 0
v -112 -240 0
v -96 -240 0
v -112 -256 0
v -128 -256 0
v -128 -240 0
v -112 -240 0
v -128 -256 0
v -144 -256 0
v -144 -240 0
v -128 -240 0
v -144 -256 0
v -160 -256 0
v -160 -240 0
v -144 -240 0
v -160 -256 0
v -176 -256 0
v -176 -240 0
v -160 -240 0
v -176 -256 0
v -192 -256 0
v -192 -240 0
v -176 -240 0
v -192 -256 0
v -208 -256 0
v -208 -240 0
v -192 -240 0
v -208 -256 0
v -224 -256 0
v -224 -240 0
v -208 -240 0
v -224 -256 0
v -240 -256 0
v -240 -240 0
v -224 -240 0
v -240 -256 0
v -256 -256 0
v -256 -240 0
v -240 -240 0

# Texture cooridinates (Count = 36)
vt 0.1304348 0.0714286
vt 0.173913 0.0714286
vt 0.173913 0.1428571
vt 0.1304348 0.1428571
vt 0 0.5
vt 0.04347826 0.5
vt 0.04347826 0.5714285
vt 0 0.5714285
vt 0 0.0714286
vt 0.04347826 0.0714286
vt 0.04347826 0.1428571
vt 0 0.1428571
vt 0.08695652 0.0714286
vt 0.08695652 0.1428571
vt 0.4347826 0.2857143
vt 0.4782609 0.2857143
vt 0.4782609 0.3571429
vt 0.4347826 0.3571429
vt 0.3478261 0.2857143
vt 0.3913043 0.2857143
vt 0.3913043 0.3571429
vt 0.3478261 0.3571429
vt 0.4347826 0.2142857
vt 0.4782609 0.2142857
vt 0.5217391 0.2142857
vt 0.5217391 0.2857143
vt 0.3043478 0.2142857
vt 0.3478261 0.2142857
vt 0.3043478 0.2857143
vt 0.3913043 0.2142857
vt 0.4782609 0.1428571
vt 0.5217391 0.1428571
vt 0.4347826 0.1428571
vt 0.3043478 0.1428571
vt 0.3478261 0.1428571
vt 0.3913043 0.1428571

# Normal
vn 0 0 -1

# Mesh description
g Level2_mesh_0106

# Faces
f 1/1/1 2/2/1 3/3/1 4/4/1
f 5/5/1 6/6/1 7/7/1 8/8/1
f 9/5/1 10/6/1 11/7/1 12/8/1
f 13/5/1 14/6/1 15/7/1 16/8/1
f 17/5/1 18/6/1 19/7/1 20/8/1
f 21/9/1 22/10/1 23/11/1 24/12/1
f 25/10/1 26/13/1 27/14/1 28/11/1
f 29/13/1 30/1/1 31/4/1 32/14/1
f 33/1/1 34/2/1 35/3/1 36/4/1
f 37/5/1 38/6/1 39/7/1 40/8/1
f 41/5/1 42/6/1 43/7/1 44/8/1
f 45/5/1 46/6/1 47/7/1 48/8/1
f 49/5/1 50/6/1 51/7/1 52/8/1
f 53/9/1 54/10/1 55/11/1 56/12/1
f 57/10/1 58/13/1 59/14/1 60/11/1
f 61/13/1 62/1/1 63/4/1 64/14/1
f 65/15/1 66/16/1 67/17/1 68/18/1
f 69/5/1 70/6/1 71/7/1 72/8/1
f 73/5/1 74/6/1 75/7/1 76/8/1
f 77/5/1 78/6/1 79/7/1 80/8/1
f 81/5/1 82/6/1 83/7/1 84/8/1
f 85/19/1 86/20/1 87/21/1 88/22/1
f 89/20/1 90/15/1 91/18/1 92/21/1
f 93/20/1 94/15/1 95/18/1 96/21/1
f 97/15/1 98/16/1 99/17/1 100/18/1
f 101/5/1 102/6/1 103/7/1 104/8/1
f 105/5/1 106/6/1 107/7/1 108/8/1
f 109/5/1 110/6/1 111/7/1 112/8/1
f 113/5/1 114/6/1 115/7/1 116/8/1
f 117/19/1 118/20/1 119/21/1 120/22/1
f 121/20/1 122/15/1 123/18/1 124/21/1
f 125/20/1 126/15/1 127/18/1 128/21/1
f 129/23/1 130/24/1 131/16/1 132/15/1
f 133/24/1 134/25/1 135/26/1 136/16/1
f 137/5/1 138/6/1 139/7/1 140/8/1
f 141/5/1 142/6/1 143/7/1 144/8/1
f 145/27/1 146/28/1 147/19/1 148/29/1
f 149/28/1 150/30/1 151/20/1 152/19/1
f 153/30/1 154/23/1 155/15/1 156/20/1
f 157/30/1 158/23/1 159/15/1 160/20/1
f 161/23/1 162/24/1 163/16/1 164/15/1
f 165/24/1 166/25/1 167/26/1 168/16/1
f 169/5/1 170/6/1 171/7/1 172/8/1
f 173/5/1 174/6/1 175/7/1 176/8/1
f 177/27/1 178/28/1 179/19/1 180/29/1
f 181/28/1 182/30/1 183/20/1 184/19/1
f 185/30/1 186/23/1 187/15/1 188/20/1
f 189/30/1 190/23/1 191/15/1 192/20/1
f 193/30/1 194/23/1 195/15/1 196/20/1
f 197/20/1 198/15/1 199/18/1 200/21/1
f 201/15/1 202/16/1 203/17/1 204/18/1
f 205/19/1 206/20/1 207/21/1 208/22/1
f 209/20/1 210/15/1 211/18/1 212/21/1
f 213/20/1 214/15/1 215/18/1 216/21/1
f 217/30/1 218/23/1 219/15/1 220/20/1
f 221/30/1 222/23/1 223/15/1 224/20/1
f 225/30/1 226/23/1 227/15/1 228/20/1
f 229/20/1 230/15/1 231/18/1 232/21/1
f 233/15/1 234/16/1 235/17/1 236/18/1
f 237/19/1 238/20/1 239/21/1 240/22/1
f 241/20/1 242/15/1 243/18/1 244/21/1
f 245/20/1 246/15/1 247/18/1 248/21/1
f 249/30/1 250/23/1 251/15/1 252/20/1
f 253/30/1 254/23/1 255/15/1 256/20/1
f 257/31/1 258/32/1 259/25/1 260/24/1
f 261/33/1 262/31/1 263/24/1 264/23/1
f 265/31/1 266/32/1 267/25/1 268/24/1
f 269/34/1 270/35/1 271/28/1 272/27/1
f 273/35/1 274/36/1 275/30/1 276/28/1
f 277/36/1 278/33/1 279/23/1 280/30/1
f 281/34/1 282/35/1 283/28/1 284/27/1
f 285/35/1 286/36/1 287/30/1 288/28/1
f 289/36/1 290/33/1 291/23/1 292/30/1
f 293/33/1 294/31/1 295/24/1 296/23/1
f 297/31/1 298/32/1 299/25/1 300/24/1
f 301/34/1 302/35/1 303/28/1 304/27/1
f 305/34/1 306/35/1 307/28/1 308/27/1
f 309/34/1 310/35/1 311/28/1 312/27/1
f 313/35/1 314/36/1 315/30/1 316/28/1
f 317/36/1 318/33/1 319/23/1 320/30/1
f 321/36/1 322/33/1 323/23/1 324/30/1
f 325/33/1 326/31/1 327/24/1 328/23/1
f 329/31/1 330/32/1 331/25/1 332/24/1
f 333/34/1 334/35/1 335/28/1 336/27/1
f 337/34/1 338/35/1 339/28/1 340/27/1
f 341/35/1 342/36/1 343/30/1 344/28/1
f 345/36/1 346/33/1 347/23/1 348/30/1
f 349/33/1 350/31/1 351/24/1 352/23/1
f 353/31/1 354/32/1 355/25/1 356/24/1
f 357/33/1 358/31/1 359/24/1 360/23/1
f 361/31/1 362/32/1 363/25/1 364/24/1
f 365/34/1 366/35/1 367/28/1 368/27/1
f 369/35/1 370/36/1 371/30/1 372/28/1
f 373/36/1 374/33/1 375/23/1 376/30/1
f 377/33/1 378/31/1 379/24/1 380/23/1
f 381/31/1 382/32/1 383/25/1 384/24/1
f 385/33/1 386/31/1 387/24/1 388/23/1
f 389/31/1 390/32/1 391/25/1 392/24/1
f 393/31/1 394/32/1 395/25/1 396/24/1
f 397/34/1 398/35/1 399/28/1 400/27/1
f 401/34/1 402/35/1 403/28/1 404/27/1
f 405/35/1 406/36/1 407/30/1 408/28/1
f 409/36/1 410/33/1 411/23/1 412/30/1
f 413/33/1 414/31/1 415/24/1 416/23/1
f 417/31/1 418/32/1 419/25/1 420/24/1
f 421/33/1 422/31/1 423/24/1 424/23/1
f 425/31/1 426/32/1 427/25/1 428/24/1
f 429/34/1 430/35/1 431/28/1 432/27/1
f 433/35/1 434/36/1 435/30/1 436/28/1
f 437/34/1 438/35/1 439/28/1 440/27/1
f 441/35/1 442/36/1 443/30/1 444/28/1
f 445/36/1 446/33/1 447/23/1 448/30/1
f 449/33/1 450/31/1 451/24/1 452/23/1
f 453/31/1 454/32/1 455/25/1 456/24/1
f 457/31/1 458/32/1 459/25/1 460/24/1
f 461/34/1 462/35/1 463/28/1 464/27/1
f 465/34/1 466/35/1 467/28/1 468/27/1
f 469/35/1 470/36/1 471/30/1 472/28/1
f 473/36/1 474/33/1 475/23/1 476/30/1
f 477/33/1 478/31/1 479/24/1 480/23/1
f 481/31/1 482/32/1 483/25/1 484/24/1
f 485/33/1 486/31/1 487/24/1 488/23/1
f 489/31/1 490/32/1 491/25/1 492/24/1
f 493/34/1 494/35/1 495/28/1 496/27/1
f 497/34/1 498/35/1 499/28/1 500/27/1
f 501/35/1 502/36/1 503/30/1 504/28/1
f 505/36/1 506/33/1 507/23/1 508/30/1
f 509/33/1 510/31/1 511/24/1 512/23/1
f 513/36/1 514/33/1 515/23/1 516/30/1
f 517/33/1 518/31/1 519/24/1 520/23/1
f 521/31/1 522/32/1 523/25/1 524/24/1
f 525/34/1 526/35/1 527/28/1 528/27/1
f 529/35/1 530/36/1 531/30/1 532/28/1
f 533/36/1 534/33/1 535/23/1 536/30/1
f 537/34/1 538/35/1 539/28/1 540/27/1
f 541/35/1 542/36/1 543/30/1 544/28/1
f 545/36/1 546/33/1 547/23/1 548/30/1
f 549/33/1 550/31/1 551/24/1 552/23/1
f 553/31/1 554/32/1 555/25/1 556/24/1
f 557/34/1 558/35/1 559/28/1 560/27/1
f 561/35/1 562/36/1 563/30/1 564/28/1
f 565/36/1 566/33/1 567/23/1 568/30/1
f 569/33/1 570/31/1 571/24/1 572/23/1
f 573/31/1 574/32/1 575/25/1 576/24/1
f 577/36/1 578/33/1 579/23/1 580/30/1
f 581/33/1 582/31/1 583/24/1 584/23/1
f 585/31/1 586/32/1 587/25/1 588/24/1
f 589/34/1 590/35/1 591/28/1 592/27/1
f 593/35/1 594/36/1 595/30/1 596/28/1
f 597/34/1 598/35/1 599/28/1 600/27/1
f 601/35/1 602/36/1 603/30/1 604/28/1
f 605/36/1 606/33/1 607/23/1 608/30/1
f 609/33/1 610/31/1 611/24/1 612/23/1
f 613/31/1 614/32/1 615/25/1 616/24/1
f 617/31/1 618/32/1 619/25/1 620/24/1
f 621/34/1 622/35/1 623/28/1 624/27/1
f 625/35/1 626/36/1 627/30/1 628/28/1
f 629/36/1 630/33/1 631/23/1 632/30/1
f 633/33/1 634/31/1 635/24/1 636/23/1
f 637/31/1 638/32/1 639/25/1 640/24/1
f 641/36/1 642/33/1 643/23/1 644/30/1
f 645/33/1 646/31/1 647/24/1 648/23/1
f 649/31/1 650/32/1 651/25/1 652/24/1
f 653/34/1 654/35/1 655/28/1 656/27/1
f 657/35/1 658/36/1 659/30/1 660/28/1
f 661/36/1 662/33/1 663/23/1 664/30/1
f 665/33/1 666/31/1 667/24/1 668/23/1
f 669/31/1 670/32/1 671/25/1 672/24/1
f 673/36/1 674/33/1 675/23/1 676/30/1
f 677/33/1 678/31/1 679/24/1 680/23/1
f 681/31/1 682/32/1 683/25/1 684/24/1
f 685/34/1 686/35/1 687/28/1 688/27/1
f 689/35/1 690/36/1 691/30/1 692/28/1
f 693/36/1 694/33/1 695/23/1 696/30/1
f 697/34/1 698/35/1 699/28/1 700/27/1
f 701/35/1 702/36/1 703/30/1 704/28/1
f 705/36/1 706/33/1 707/23/1 708/30/1
f 709/33/1 710/31/1 711/24/1 712/23/1
f 713/31/1 714/32/1 715/25/1 716/24/1
f 717/34/1 718/35/1 719/28/1 720/27/1
f 721/35/1 722/36/1 723/30/1 724/28/1
f 725/36/1 726/33/1 727/23/1 728/30/1
f 729/33/1 730/31/1 731/24/1 732/23/1
f 733/31/1 734/32/1 735/25/1 736/24/1
f 737/31/1 738/32/1 739/25/1 740/24/1
f 741/31/1 742/32/1 743/25/1 744/24/1
f 745/31/1 746/32/1 747/25/1 748/24/1
f 749/34/1 750/35/1 751/28/1 752/27/1
f 753/34/1 754/35/1 755/28/1 756/27/1
f 757/35/1 758/36/1 759/30/1 760/28/1
f 761/36/1 762/33/1 763/23/1 764/30/1
f 765/33/1 766/31/1 767/24/1 768/23/1
f 769/36/1 770/33/1 771/23/1 772/30/1
f 773/33/1 774/31/1 775/24/1 776/23/1
f 777/31/1 778/32/1 779/25/1 780/24/1
f 781/34/1 782/35/1 783/28/1 784/27/1
f 785/35/1 786/36/1 787/30/1 788/28/1
f 789/36/1 790/33/1 791/23/1 792/30/1
f 793/34/1 794/35/1 795/28/1 796/27/1
f 797/35/1 798/36/1 799/30/1 800/28/1
f 801/36/1 802/33/1 803/23/1 804/30/1
f 805/33/1 806/31/1 807/24/1 808/23/1
f 809/31/1 810/32/1 811/25/1 812/24/1
f 813/34/1 814/35/1 815/28/1 816/27/1
f 817/35/1 818/36/1 819/30/1 820/28/1
f 821/36/1 822/33/1 823/23/1 824/30/1
f 825/33/1 826/31/1 827/24/1 828/23/1
f 829/31/1 830/32/1 831/25/1 832/24/1
f 833/36/1 834/33/1 835/23/1 836/30/1
f 837/33/1 838/31/1 839/24/1 840/23/1
f 841/31/1 842/32/1 843/25/1 844/24/1
f 845/34/1 846/35/1 847/28/1 848/27/1
f 849/35/1 850/36/1 851/30/1 852/28/1
f 853/34/1 854/35/1 855/28/1 856/27/1
f 857/34/1 858/35/1 859/28/1 860/27/1
f 861/35/1 862/36/1 863/30/1 864/28/1
f 865/36/1 866/33/1 867/23/1 868/30/1
f 869/33/1 870/31/1 871/24/1 872/23/1
f 873/31/1 874/32/1 875/25/1 876/24/1
f 877/34/1 878/35/1 879/28/1 880/27/1
f 881/35/1 882/36/1 883/30/1 884/28/1
f 885/34/1 886/35/1 887/28/1 888/27/1
f 889/34/1 890/35/1 891/28/1 892/27/1
f 893/35/1 894/36/1 895/30/1 896/28/1
f 897/36/1 898/33/1 899/23/1 900/30/1
f 901/33/1 902/31/1 903/24/1 904/23/1
f 905/31/1 906/32/1 907/25/1 908/24/1
f 909/34/1 910/35/1 911/28/1 912/27/1
f 913/34/1 914/35/1 915/28/1 916/27/1
f 917/34/1 918/35/1 919/28/1 920/27/1
f 921/34/1 922/35/1 923/28/1 924/27/1
f 925/35/1 926/36/1 927/30/1 928/28/1
f 929/36/1 930/33/1 931/23/1 932/30/1
f 933/33/1 934/31/1 935/24/1 936/23/1
f 937/31/1 938/32/1 939/25/1 940/24/1
f 941/34/1 942/35/1 943/28/1 944/27/1
f 945/34/1 946/35/1 947/28/1 948/27/1
f 949/34/1 950/35/1 951/28/1 952/27/1
f 953/34/1 954/35/1 955/28/1 956/27/1
f 957/35/1 958/36/1 959/30/1 960/28/1
f 961/33/1 962/31/1 963/24/1 964/23/1
f 965/31/1 966/32/1 967/25/1 968/24/1
f 969/5/1 970/6/1 971/7/1 972/8/1
f 973/5/1 974/6/1 975/7/1 976/8/1
f 977/5/1 978/6/1 979/7/1 980/8/1
f 981/5/1 982/6/1 983/7/1 984/8/1
f 985/5/1 986/6/1 987/7/1 988/8/1
f 989/5/1 990/6/1 991/7/1 992/8/1
f 993/5/1 994/6/1 995/7/1 996/8/1
f 997/5/1 998/6/1 999/7/1 1000/8/1
f 1001/5/1 1002/6/1 1003/7/1 1004/8/1
f 1005/5/1 1006/6/1 1007/7/1 1008/8/1
f 1009/5/1 1010/6/1 1011/7/1 1012/8/1
f 1013/5/1 1014/6/1 1015/7/1 1016/8/1
f 1017/5/1 1018/6/1 1019/7/1 1020/8/1
f 1021/5/1 1022/6/1 1023/7/1 1024/8/1

