# Tiled2Unity generated file. Do not modify by hand.
# Wavefront file for 'Level2_mesh_0165.obj'

# Vertices (Count = 32)
v -16 -16 0
v -32 -16 0
v -32 0 0
v -16 0 0
v -32 -16 0
v -48 -16 0
v -48 0 0
v -32 0 0
v -48 -16 0
v -64 -16 0
v -64 0 0
v -48 0 0
v -64 -16 0
v -80 -16 0
v -80 0 0
v -64 0 0
v -16 -32 0
v -32 -32 0
v -32 -16 0
v -16 -16 0
v -32 -32 0
v -48 -32 0
v -48 -16 0
v -32 -16 0
v -48 -32 0
v -64 -32 0
v -64 -16 0
v -48 -16 0
v -64 -32 0
v -80 -32 0
v -80 -16 0
v -64 -16 0

# Texture cooridinates (Count = 15)
vt 0.01133948 0.5
vt 0.02267895 0.5
vt 0.02267895 0.5294118
vt 0.01133948 0.5294118
vt 0.03401843 0.5
vt 0.03401843 0.5294118
vt 0.0453579 0.5
vt 0.0453579 0.5294118
vt 0.05669738 0.5
vt 0.05669738 0.5294118
vt 0.01133948 0.4705882
vt 0.02267895 0.4705882
vt 0.03401843 0.4705882
vt 0.0453579 0.4705882
vt 0.05669738 0.4705882

# Normal
vn 0 0 -1

# Mesh description
g Level2_mesh_0165

# Faces
f 1/1/1 2/2/1 3/3/1 4/4/1
f 5/2/1 6/5/1 7/6/1 8/3/1
f 9/5/1 10/7/1 11/8/1 12/6/1
f 13/7/1 14/9/1 15/10/1 16/8/1
f 17/11/1 18/12/1 19/2/1 20/1/1
f 21/12/1 22/13/1 23/5/1 24/2/1
f 25/13/1 26/14/1 27/7/1 28/5/1
f 29/14/1 30/15/1 31/9/1 32/7/1

