# Tiled2Unity generated file. Do not modify by hand.
# Wavefront file for 'Level2_mesh_0128.obj'

# Vertices (Count = 552)
v -48 -16 0
v -64 -16 0
v -64 0 0
v -48 0 0
v -64 -16 0
v -80 -16 0
v -80 0 0
v -64 0 0
v -80 -16 0
v -96 -16 0
v -96 0 0
v -80 0 0
v -96 -16 0
v -112 -16 0
v -112 0 0
v -96 0 0
v -112 -16 0
v -128 -16 0
v -128 0 0
v -112 0 0
v -128 -16 0
v -144 -16 0
v -144 0 0
v -128 0 0
v -144 -16 0
v -160 -16 0
v -160 0 0
v -144 0 0
v -160 -16 0
v -176 -16 0
v -176 0 0
v -160 0 0
v -176 -16 0
v -192 -16 0
v -192 0 0
v -176 0 0
v -192 -16 0
v -208 -16 0
v -208 0 0
v -192 0 0
v -208 -16 0
v -224 -16 0
v -224 0 0
v -208 0 0
v -224 -16 0
v -240 -16 0
v -240 0 0
v -224 0 0
v -240 -16 0
v -256 -16 0
v -256 0 0
v -240 0 0
v -32 -32 0
v -48 -32 0
v -48 -16 0
v -32 -16 0
v -48 -32 0
v -64 -32 0
v -64 -16 0
v -48 -16 0
v -64 -32 0
v -80 -32 0
v -80 -16 0
v -64 -16 0
v -80 -32 0
v -96 -32 0
v -96 -16 0
v -80 -16 0
v -96 -32 0
v -112 -32 0
v -112 -16 0
v -96 -16 0
v -112 -32 0
v -128 -32 0
v -128 -16 0
v -112 -16 0
v -128 -32 0
v -144 -32 0
v -144 -16 0
v -128 -16 0
v -144 -32 0
v -160 -32 0
v -160 -16 0
v -144 -16 0
v -160 -32 0
v -176 -32 0
v -176 -16 0
v -160 -16 0
v -176 -32 0
v -192 -32 0
v -192 -16 0
v -176 -16 0
v -192 -32 0
v -208 -32 0
v -208 -16 0
v -192 -16 0
v -208 -32 0
v -224 -32 0
v -224 -16 0
v -208 -16 0
v -224 -32 0
v -240 -32 0
v -240 -16 0
v -224 -16 0
v -240 -32 0
v -256 -32 0
v -256 -16 0
v -240 -16 0
v -16 -48 0
v -32 -48 0
v -32 -32 0
v -16 -32 0
v -32 -48 0
v -48 -48 0
v -48 -32 0
v -32 -32 0
v -48 -48 0
v -64 -48 0
v -64 -32 0
v -48 -32 0
v -64 -48 0
v -80 -48 0
v -80 -32 0
v -64 -32 0
v -80 -48 0
v -96 -48 0
v -96 -32 0
v -80 -32 0
v -96 -48 0
v -112 -48 0
v -112 -32 0
v -96 -32 0
v -112 -48 0
v -128 -48 0
v -128 -32 0
v -112 -32 0
v -128 -48 0
v -144 -48 0
v -144 -32 0
v -128 -32 0
v -144 -48 0
v -160 -48 0
v -160 -32 0
v -144 -32 0
v -160 -48 0
v -176 -48 0
v -176 -32 0
v -160 -32 0
v -176 -48 0
v -192 -48 0
v -192 -32 0
v -176 -32 0
v -192 -48 0
v -208 -48 0
v -208 -32 0
v -192 -32 0
v -208 -48 0
v -224 -48 0
v -224 -32 0
v -208 -32 0
v -224 -48 0
v -240 -48 0
v -240 -32 0
v -224 -32 0
v -240 -48 0
v -256 -48 0
v -256 -32 0
v -240 -32 0
v 0 -64 0
v -16 -64 0
v -16 -48 0
v 0 -48 0
v -16 -64 0
v -32 -64 0
v -32 -48 0
v -16 -48 0
v -32 -64 0
v -48 -64 0
v -48 -48 0
v -32 -48 0
v -48 -64 0
v -64 -64 0
v -64 -48 0
v -48 -48 0
v -64 -64 0
v -80 -64 0
v -80 -48 0
v -64 -48 0
v -80 -64 0
v -96 -64 0
v -96 -48 0
v -80 -48 0
v -96 -64 0
v -112 -64 0
v -112 -48 0
v -96 -48 0
v -112 -64 0
v -128 -64 0
v -128 -48 0
v -112 -48 0
v -128 -64 0
v -144 -64 0
v -144 -48 0
v -128 -48 0
v -144 -64 0
v -160 -64 0
v -160 -48 0
v -144 -48 0
v -160 -64 0
v -176 -64 0
v -176 -48 0
v -160 -48 0
v -176 -64 0
v -192 -64 0
v -192 -48 0
v -176 -48 0
v -192 -64 0
v -208 -64 0
v -208 -48 0
v -192 -48 0
v -208 -64 0
v -224 -64 0
v -224 -48 0
v -208 -48 0
v -224 -64 0
v -240 -64 0
v -240 -48 0
v -224 -48 0
v -240 -64 0
v -256 -64 0
v -256 -48 0
v -240 -48 0
v 0 -80 0
v -16 -80 0
v -16 -64 0
v 0 -64 0
v -16 -80 0
v -32 -80 0
v -32 -64 0
v -16 -64 0
v -32 -80 0
v -48 -80 0
v -48 -64 0
v -32 -64 0
v -48 -80 0
v -64 -80 0
v -64 -64 0
v -48 -64 0
v -64 -80 0
v -80 -80 0
v -80 -64 0
v -64 -64 0
v -80 -80 0
v -96 -80 0
v -96 -64 0
v -80 -64 0
v -96 -80 0
v -112 -80 0
v -112 -64 0
v -96 -64 0
v -112 -80 0
v -128 -80 0
v -128 -64 0
v -112 -64 0
v -128 -80 0
v -144 -80 0
v -144 -64 0
v -128 -64 0
v -144 -80 0
v -160 -80 0
v -160 -64 0
v -144 -64 0
v -160 -80 0
v -176 -80 0
v -176 -64 0
v -160 -64 0
v -176 -80 0
v -192 -80 0
v -192 -64 0
v -176 -64 0
v -192 -80 0
v -208 -80 0
v -208 -64 0
v -192 -64 0
v -208 -80 0
v -224 -80 0
v -224 -64 0
v -208 -64 0
v -224 -80 0
v -240 -80 0
v -240 -64 0
v -224 -64 0
v -240 -80 0
v -256 -80 0
v -256 -64 0
v -240 -64 0
v 0 -96 0
v -16 -96 0
v -16 -80 0
v 0 -80 0
v -16 -96 0
v -32 -96 0
v -32 -80 0
v -16 -80 0
v -32 -96 0
v -48 -96 0
v -48 -80 0
v -32 -80 0
v -48 -96 0
v -64 -96 0
v -64 -80 0
v -48 -80 0
v -64 -96 0
v -80 -96 0
v -80 -80 0
v -64 -80 0
v -80 -96 0
v -96 -96 0
v -96 -80 0
v -80 -80 0
v -96 -96 0
v -112 -96 0
v -112 -80 0
v -96 -80 0
v -112 -96 0
v -128 -96 0
v -128 -80 0
v -112 -80 0
v -128 -96 0
v -144 -96 0
v -144 -80 0
v -128 -80 0
v -144 -96 0
v -160 -96 0
v -160 -80 0
v -144 -80 0
v -160 -96 0
v -176 -96 0
v -176 -80 0
v -160 -80 0
v -176 -96 0
v -192 -96 0
v -192 -80 0
v -176 -80 0
v -192 -96 0
v -208 -96 0
v -208 -80 0
v -192 -80 0
v -208 -96 0
v -224 -96 0
v -224 -80 0
v -208 -80 0
v -224 -96 0
v -240 -96 0
v -240 -80 0
v -224 -80 0
v -240 -96 0
v -256 -96 0
v -256 -80 0
v -240 -80 0
v 0 -112 0
v -16 -112 0
v -16 -96 0
v 0 -96 0
v -16 -112 0
v -32 -112 0
v -32 -96 0
v -16 -96 0
v -32 -112 0
v -48 -112 0
v -48 -96 0
v -32 -96 0
v -48 -112 0
v -64 -112 0
v -64 -96 0
v -48 -96 0
v -64 -112 0
v -80 -112 0
v -80 -96 0
v -64 -96 0
v -80 -112 0
v -96 -112 0
v -96 -96 0
v -80 -96 0
v -96 -112 0
v -112 -112 0
v -112 -96 0
v -96 -96 0
v -112 -112 0
v -128 -112 0
v -128 -96 0
v -112 -96 0
v -128 -112 0
v -144 -112 0
v -144 -96 0
v -128 -96 0
v -144 -112 0
v -160 -112 0
v -160 -96 0
v -144 -96 0
v -160 -112 0
v -176 -112 0
v -176 -96 0
v -160 -96 0
v -176 -112 0
v -192 -112 0
v -192 -96 0
v -176 -96 0
v -192 -112 0
v -208 -112 0
v -208 -96 0
v -192 -96 0
v -208 -112 0
v -224 -112 0
v -224 -96 0
v -208 -96 0
v -224 -112 0
v -240 -112 0
v -240 -96 0
v -224 -96 0
v -240 -112 0
v -256 -112 0
v -256 -96 0
v -240 -96 0
v 0 -128 0
v -16 -128 0
v -16 -112 0
v 0 -112 0
v -16 -128 0
v -32 -128 0
v -32 -112 0
v -16 -112 0
v -32 -128 0
v -48 -128 0
v -48 -112 0
v -32 -112 0
v -48 -128 0
v -64 -128 0
v -64 -112 0
v -48 -112 0
v -64 -128 0
v -80 -128 0
v -80 -112 0
v -64 -112 0
v -80 -128 0
v -96 -128 0
v -96 -112 0
v -80 -112 0
v -96 -128 0
v -112 -128 0
v -112 -112 0
v -96 -112 0
v -112 -128 0
v -128 -128 0
v -128 -112 0
v -112 -112 0
v -128 -128 0
v -144 -128 0
v -144 -112 0
v -128 -112 0
v -144 -128 0
v -160 -128 0
v -160 -112 0
v -144 -112 0
v -160 -128 0
v -176 -128 0
v -176 -112 0
v -160 -112 0
v -176 -128 0
v -192 -128 0
v -192 -112 0
v -176 -112 0
v -192 -128 0
v -208 -128 0
v -208 -112 0
v -192 -112 0
v -208 -128 0
v -224 -128 0
v -224 -112 0
v -208 -112 0
v -224 -128 0
v -240 -128 0
v -240 -112 0
v -224 -112 0
v -240 -128 0
v -256 -128 0
v -256 -112 0
v -240 -112 0
v 0 -144 0
v -16 -144 0
v -16 -128 0
v 0 -128 0
v -16 -144 0
v -32 -144 0
v -32 -128 0
v -16 -128 0
v -32 -144 0
v -48 -144 0
v -48 -128 0
v -32 -128 0
v -48 -144 0
v -64 -144 0
v -64 -128 0
v -48 -128 0
v -64 -144 0
v -80 -144 0
v -80 -128 0
v -64 -128 0
v -80 -144 0
v -96 -144 0
v -96 -128 0
v -80 -128 0
v -96 -144 0
v -112 -144 0
v -112 -128 0
v -96 -128 0
v -112 -144 0
v -128 -144 0
v -128 -128 0
v -112 -128 0
v -128 -144 0
v -144 -144 0
v -144 -128 0
v -128 -128 0
v -144 -144 0
v -160 -144 0
v -160 -128 0
v -144 -128 0
v -160 -144 0
v -176 -144 0
v -176 -128 0
v -160 -128 0
v -176 -144 0
v -192 -144 0
v -192 -128 0
v -176 -128 0
v -192 -144 0
v -208 -144 0
v -208 -128 0
v -192 -128 0
v -208 -144 0
v -224 -144 0
v -224 -128 0
v -208 -128 0
v -224 -144 0
v -240 -144 0
v -240 -128 0
v -224 -128 0
v -240 -144 0
v -256 -144 0
v -256 -128 0
v -240 -128 0

# Texture cooridinates (Count = 18)
vt 0.1304348 0.4285714
vt 0.173913 0.4285714
vt 0.173913 0.5
vt 0.1304348 0.5
vt 0 0.5
vt 0.04347826 0.5
vt 0.04347826 0.5714285
vt 0 0.5714285
vt 0.173913 0.5714285
vt 0.1304348 0.5714285
vt 0.08695652 0.5714285
vt 0.1304348 0.6428571
vt 0.08695652 0.6428571
vt 0 0.4285714
vt 0.04347826 0.4285714
vt 0.04347826 0.6428571
vt 0.08695652 0.7142857
vt 0.04347826 0.7142857

# Normal
vn 0 0 -1

# Mesh description
g Level2_mesh_0128

# Faces
f 1/1/1 2/2/1 3/3/1 4/4/1
f 5/1/1 6/2/1 7/3/1 8/4/1
f 9/1/1 10/2/1 11/3/1 12/4/1
f 13/1/1 14/2/1 15/3/1 16/4/1
f 17/5/1 18/6/1 19/7/1 20/8/1
f 21/4/1 22/3/1 23/9/1 24/10/1
f 25/4/1 26/3/1 27/9/1 28/10/1
f 29/4/1 30/3/1 31/9/1 32/10/1
f 33/4/1 34/3/1 35/9/1 36/10/1
f 37/4/1 38/3/1 39/9/1 40/10/1
f 41/4/1 42/3/1 43/9/1 44/10/1
f 45/4/1 46/3/1 47/9/1 48/10/1
f 49/4/1 50/3/1 51/9/1 52/10/1
f 53/1/1 54/2/1 55/3/1 56/4/1
f 57/1/1 58/2/1 59/3/1 60/4/1
f 61/1/1 62/2/1 63/3/1 64/4/1
f 65/11/1 66/10/1 67/12/1 68/13/1
f 69/1/1 70/2/1 71/3/1 72/4/1
f 73/4/1 74/3/1 75/9/1 76/10/1
f 77/4/1 78/3/1 79/9/1 80/10/1
f 81/5/1 82/6/1 83/7/1 84/8/1
f 85/4/1 86/3/1 87/9/1 88/10/1
f 89/5/1 90/6/1 91/7/1 92/8/1
f 93/4/1 94/3/1 95/9/1 96/10/1
f 97/4/1 98/3/1 99/9/1 100/10/1
f 101/4/1 102/3/1 103/9/1 104/10/1
f 105/4/1 106/3/1 107/9/1 108/10/1
f 109/1/1 110/2/1 111/3/1 112/4/1
f 113/1/1 114/2/1 115/3/1 116/4/1
f 117/1/1 118/2/1 119/3/1 120/4/1
f 121/1/1 122/2/1 123/3/1 124/4/1
f 125/1/1 126/2/1 127/3/1 128/4/1
f 129/14/1 130/15/1 131/6/1 132/5/1
f 133/4/1 134/3/1 135/9/1 136/10/1
f 137/4/1 138/3/1 139/9/1 140/10/1
f 141/4/1 142/3/1 143/9/1 144/10/1
f 145/4/1 146/3/1 147/9/1 148/10/1
f 149/11/1 150/10/1 151/12/1 152/13/1
f 153/16/1 154/13/1 155/17/1 156/18/1
f 157/5/1 158/6/1 159/7/1 160/8/1
f 161/11/1 162/10/1 163/12/1 164/13/1
f 165/5/1 166/6/1 167/7/1 168/8/1
f 169/1/1 170/2/1 171/3/1 172/4/1
f 173/1/1 174/2/1 175/3/1 176/4/1
f 177/1/1 178/2/1 179/3/1 180/4/1
f 181/1/1 182/2/1 183/3/1 184/4/1
f 185/1/1 186/2/1 187/3/1 188/4/1
f 189/1/1 190/2/1 191/3/1 192/4/1
f 193/4/1 194/3/1 195/9/1 196/10/1
f 197/4/1 198/3/1 199/9/1 200/10/1
f 201/4/1 202/3/1 203/9/1 204/10/1
f 205/4/1 206/3/1 207/9/1 208/10/1
f 209/4/1 210/3/1 211/9/1 212/10/1
f 213/4/1 214/3/1 215/9/1 216/10/1
f 217/1/1 218/2/1 219/3/1 220/4/1
f 221/14/1 222/15/1 223/6/1 224/5/1
f 225/4/1 226/3/1 227/9/1 228/10/1
f 229/4/1 230/3/1 231/9/1 232/10/1
f 233/1/1 234/2/1 235/3/1 236/4/1
f 237/1/1 238/2/1 239/3/1 240/4/1
f 241/1/1 242/2/1 243/3/1 244/4/1
f 245/1/1 246/2/1 247/3/1 248/4/1
f 249/1/1 250/2/1 251/3/1 252/4/1
f 253/1/1 254/2/1 255/3/1 256/4/1
f 257/14/1 258/15/1 259/6/1 260/5/1
f 261/4/1 262/3/1 263/9/1 264/10/1
f 265/4/1 266/3/1 267/9/1 268/10/1
f 269/4/1 270/3/1 271/9/1 272/10/1
f 273/5/1 274/6/1 275/7/1 276/8/1
f 277/14/1 278/15/1 279/6/1 280/5/1
f 281/4/1 282/3/1 283/9/1 284/10/1
f 285/5/1 286/6/1 287/7/1 288/8/1
f 289/16/1 290/13/1 291/17/1 292/18/1
f 293/4/1 294/3/1 295/9/1 296/10/1
f 297/1/1 298/2/1 299/3/1 300/4/1
f 301/1/1 302/2/1 303/3/1 304/4/1
f 305/1/1 306/2/1 307/3/1 308/4/1
f 309/1/1 310/2/1 311/3/1 312/4/1
f 313/1/1 314/2/1 315/3/1 316/4/1
f 317/11/1 318/10/1 319/12/1 320/13/1
f 321/5/1 322/6/1 323/7/1 324/8/1
f 325/11/1 326/10/1 327/12/1 328/13/1
f 329/4/1 330/3/1 331/9/1 332/10/1
f 333/4/1 334/3/1 335/9/1 336/10/1
f 337/4/1 338/3/1 339/9/1 340/10/1
f 341/4/1 342/3/1 343/9/1 344/10/1
f 345/11/1 346/10/1 347/12/1 348/13/1
f 349/4/1 350/3/1 351/9/1 352/10/1
f 353/4/1 354/3/1 355/9/1 356/10/1
f 357/4/1 358/3/1 359/9/1 360/10/1
f 361/1/1 362/2/1 363/3/1 364/4/1
f 365/1/1 366/2/1 367/3/1 368/4/1
f 369/1/1 370/2/1 371/3/1 372/4/1
f 373/1/1 374/2/1 375/3/1 376/4/1
f 377/1/1 378/2/1 379/3/1 380/4/1
f 381/1/1 382/2/1 383/3/1 384/4/1
f 385/1/1 386/2/1 387/3/1 388/4/1
f 389/14/1 390/15/1 391/6/1 392/5/1
f 393/11/1 394/10/1 395/12/1 396/13/1
f 397/1/1 398/2/1 399/3/1 400/4/1
f 401/16/1 402/13/1 403/17/1 404/18/1
f 405/4/1 406/3/1 407/9/1 408/10/1
f 409/4/1 410/3/1 411/9/1 412/10/1
f 413/4/1 414/3/1 415/9/1 416/10/1
f 417/4/1 418/3/1 419/9/1 420/10/1
f 421/4/1 422/3/1 423/9/1 424/10/1
f 425/1/1 426/2/1 427/3/1 428/4/1
f 429/1/1 430/2/1 431/3/1 432/4/1
f 433/1/1 434/2/1 435/3/1 436/4/1
f 437/1/1 438/2/1 439/3/1 440/4/1
f 441/1/1 442/2/1 443/3/1 444/4/1
f 445/1/1 446/2/1 447/3/1 448/4/1
f 449/14/1 450/15/1 451/6/1 452/5/1
f 453/4/1 454/3/1 455/9/1 456/10/1
f 457/1/1 458/2/1 459/3/1 460/4/1
f 461/1/1 462/2/1 463/3/1 464/4/1
f 465/5/1 466/6/1 467/7/1 468/8/1
f 469/1/1 470/2/1 471/3/1 472/4/1
f 473/5/1 474/6/1 475/7/1 476/8/1
f 477/4/1 478/3/1 479/9/1 480/10/1
f 481/16/1 482/13/1 483/17/1 484/18/1
f 485/4/1 486/3/1 487/9/1 488/10/1
f 489/1/1 490/2/1 491/3/1 492/4/1
f 493/1/1 494/2/1 495/3/1 496/4/1
f 497/1/1 498/2/1 499/3/1 500/4/1
f 501/1/1 502/2/1 503/3/1 504/4/1
f 505/1/1 506/2/1 507/3/1 508/4/1
f 509/16/1 510/13/1 511/17/1 512/18/1
f 513/5/1 514/6/1 515/7/1 516/8/1
f 517/4/1 518/3/1 519/9/1 520/10/1
f 521/11/1 522/10/1 523/12/1 524/13/1
f 525/5/1 526/6/1 527/7/1 528/8/1
f 529/14/1 530/15/1 531/6/1 532/5/1
f 533/16/1 534/13/1 535/17/1 536/18/1
f 537/16/1 538/13/1 539/17/1 540/18/1
f 541/14/1 542/15/1 543/6/1 544/5/1
f 545/16/1 546/13/1 547/17/1 548/18/1
f 549/14/1 550/15/1 551/6/1 552/5/1

