# Tiled2Unity generated file. Do not modify by hand.
# Wavefront file for 'Level2_mesh_0208.obj'

# Vertices (Count = 412)
v 0 -16 0
v -16 -16 0
v -16 0 0
v 0 0 0
v -16 -16 0
v -32 -16 0
v -32 0 0
v -16 0 0
v -32 -16 0
v -48 -16 0
v -48 0 0
v -32 0 0
v -160 -16 0
v -176 -16 0
v -176 0 0
v -160 0 0
v -176 -16 0
v -192 -16 0
v -192 0 0
v -176 0 0
v -192 -16 0
v -208 -16 0
v -208 0 0
v -192 0 0
v -208 -16 0
v -224 -16 0
v -224 0 0
v -208 0 0
v 0 -32 0
v -16 -32 0
v -16 -16 0
v 0 -16 0
v -16 -32 0
v -32 -32 0
v -32 -16 0
v -16 -16 0
v -32 -32 0
v -48 -32 0
v -48 -16 0
v -32 -16 0
v -160 -32 0
v -176 -32 0
v -176 -16 0
v -160 -16 0
v -176 -32 0
v -192 -32 0
v -192 -16 0
v -176 -16 0
v -192 -32 0
v -208 -32 0
v -208 -16 0
v -192 -16 0
v -208 -32 0
v -224 -32 0
v -224 -16 0
v -208 -16 0
v 0 -48 0
v -16 -48 0
v -16 -32 0
v 0 -32 0
v -16 -48 0
v -32 -48 0
v -32 -32 0
v -16 -32 0
v -32 -48 0
v -48 -48 0
v -48 -32 0
v -32 -32 0
v -160 -48 0
v -176 -48 0
v -176 -32 0
v -160 -32 0
v -176 -48 0
v -192 -48 0
v -192 -32 0
v -176 -32 0
v -192 -48 0
v -208 -48 0
v -208 -32 0
v -192 -32 0
v -208 -48 0
v -224 -48 0
v -224 -32 0
v -208 -32 0
v 0 -64 0
v -16 -64 0
v -16 -48 0
v 0 -48 0
v -16 -64 0
v -32 -64 0
v -32 -48 0
v -16 -48 0
v -32 -64 0
v -48 -64 0
v -48 -48 0
v -32 -48 0
v -160 -64 0
v -176 -64 0
v -176 -48 0
v -160 -48 0
v -176 -64 0
v -192 -64 0
v -192 -48 0
v -176 -48 0
v -192 -64 0
v -208 -64 0
v -208 -48 0
v -192 -48 0
v -208 -64 0
v -224 -64 0
v -224 -48 0
v -208 -48 0
v 0 -80 0
v -16 -80 0
v -16 -64 0
v 0 -64 0
v -16 -80 0
v -32 -80 0
v -32 -64 0
v -16 -64 0
v -32 -80 0
v -48 -80 0
v -48 -64 0
v -32 -64 0
v -160 -80 0
v -176 -80 0
v -176 -64 0
v -160 -64 0
v -176 -80 0
v -192 -80 0
v -192 -64 0
v -176 -64 0
v -192 -80 0
v -208 -80 0
v -208 -64 0
v -192 -64 0
v -208 -80 0
v -224 -80 0
v -224 -64 0
v -208 -64 0
v 0 -96 0
v -16 -96 0
v -16 -80 0
v 0 -80 0
v -16 -96 0
v -32 -96 0
v -32 -80 0
v -16 -80 0
v -32 -96 0
v -48 -96 0
v -48 -80 0
v -32 -80 0
v -160 -96 0
v -176 -96 0
v -176 -80 0
v -160 -80 0
v -176 -96 0
v -192 -96 0
v -192 -80 0
v -176 -80 0
v -192 -96 0
v -208 -96 0
v -208 -80 0
v -192 -80 0
v -208 -96 0
v -224 -96 0
v -224 -80 0
v -208 -80 0
v 0 -112 0
v -16 -112 0
v -16 -96 0
v 0 -96 0
v -16 -112 0
v -32 -112 0
v -32 -96 0
v -16 -96 0
v -32 -112 0
v -48 -112 0
v -48 -96 0
v -32 -96 0
v -160 -112 0
v -176 -112 0
v -176 -96 0
v -160 -96 0
v -176 -112 0
v -192 -112 0
v -192 -96 0
v -176 -96 0
v -192 -112 0
v -208 -112 0
v -208 -96 0
v -192 -96 0
v -208 -112 0
v -224 -112 0
v -224 -96 0
v -208 -96 0
v 0 -128 0
v -16 -128 0
v -16 -112 0
v 0 -112 0
v -16 -128 0
v -32 -128 0
v -32 -112 0
v -16 -112 0
v -32 -128 0
v -48 -128 0
v -48 -112 0
v -32 -112 0
v -160 -128 0
v -176 -128 0
v -176 -112 0
v -160 -112 0
v -176 -128 0
v -192 -128 0
v -192 -112 0
v -176 -112 0
v -192 -128 0
v -208 -128 0
v -208 -112 0
v -192 -112 0
v -208 -128 0
v -224 -128 0
v -224 -112 0
v -208 -112 0
v 0 -144 0
v -16 -144 0
v -16 -128 0
v 0 -128 0
v -16 -144 0
v -32 -144 0
v -32 -128 0
v -16 -128 0
v -32 -144 0
v -48 -144 0
v -48 -128 0
v -32 -128 0
v -160 -144 0
v -176 -144 0
v -176 -128 0
v -160 -128 0
v -176 -144 0
v -192 -144 0
v -192 -128 0
v -176 -128 0
v -192 -144 0
v -208 -144 0
v -208 -128 0
v -192 -128 0
v -208 -144 0
v -224 -144 0
v -224 -128 0
v -208 -128 0
v 0 -160 0
v -16 -160 0
v -16 -144 0
v 0 -144 0
v -16 -160 0
v -32 -160 0
v -32 -144 0
v -16 -144 0
v -32 -160 0
v -48 -160 0
v -48 -144 0
v -32 -144 0
v -160 -160 0
v -176 -160 0
v -176 -144 0
v -160 -144 0
v -176 -160 0
v -192 -160 0
v -192 -144 0
v -176 -144 0
v -192 -160 0
v -208 -160 0
v -208 -144 0
v -192 -144 0
v -208 -160 0
v -224 -160 0
v -224 -144 0
v -208 -144 0
v 0 -176 0
v -16 -176 0
v -16 -160 0
v 0 -160 0
v -16 -176 0
v -32 -176 0
v -32 -160 0
v -16 -160 0
v -32 -176 0
v -48 -176 0
v -48 -160 0
v -32 -160 0
v -160 -176 0
v -176 -176 0
v -176 -160 0
v -160 -160 0
v -176 -176 0
v -192 -176 0
v -192 -160 0
v -176 -160 0
v -192 -176 0
v -208 -176 0
v -208 -160 0
v -192 -160 0
v -208 -176 0
v -224 -176 0
v -224 -160 0
v -208 -160 0
v 0 -192 0
v -16 -192 0
v -16 -176 0
v 0 -176 0
v -16 -192 0
v -32 -192 0
v -32 -176 0
v -16 -176 0
v -32 -192 0
v -48 -192 0
v -48 -176 0
v -32 -176 0
v -160 -192 0
v -176 -192 0
v -176 -176 0
v -160 -176 0
v -176 -192 0
v -192 -192 0
v -192 -176 0
v -176 -176 0
v -192 -192 0
v -208 -192 0
v -208 -176 0
v -192 -176 0
v -208 -192 0
v -224 -192 0
v -224 -176 0
v -208 -176 0
v 0 -208 0
v -16 -208 0
v -16 -192 0
v 0 -192 0
v -16 -208 0
v -32 -208 0
v -32 -192 0
v -16 -192 0
v -32 -208 0
v -48 -208 0
v -48 -192 0
v -32 -192 0
v -160 -208 0
v -176 -208 0
v -176 -192 0
v -160 -192 0
v -176 -208 0
v -192 -208 0
v -192 -192 0
v -176 -192 0
v -192 -208 0
v -208 -208 0
v -208 -192 0
v -192 -192 0
v -208 -208 0
v -224 -208 0
v -224 -192 0
v -208 -192 0
v -160 -224 0
v -176 -224 0
v -176 -208 0
v -160 -208 0
v -176 -224 0
v -192 -224 0
v -192 -208 0
v -176 -208 0
v -192 -224 0
v -208 -224 0
v -208 -208 0
v -192 -208 0
v -208 -224 0
v -224 -224 0
v -224 -208 0
v -208 -208 0
v -160 -240 0
v -176 -240 0
v -176 -224 0
v -160 -224 0
v -176 -240 0
v -192 -240 0
v -192 -224 0
v -176 -224 0
v -192 -240 0
v -208 -240 0
v -208 -224 0
v -192 -224 0
v -208 -240 0
v -224 -240 0
v -224 -224 0
v -208 -224 0
v -160 -256 0
v -176 -256 0
v -176 -240 0
v -160 -240 0
v -176 -256 0
v -192 -256 0
v -192 -240 0
v -176 -240 0
v -192 -256 0
v -208 -256 0
v -208 -240 0
v -192 -240 0
v -208 -256 0
v -224 -256 0
v -224 -240 0
v -208 -240 0

# Texture cooridinates (Count = 60)
vt 0.68 0.32
vt 0.68 0.36
vt 0.64 0.36
vt 0.64 0.32
vt 0.68 0.4
vt 0.64 0.4
vt 0.68 0.44
vt 0.64 0.44
vt 0.68 0.28
vt 0.64 0.28
vt 0.72 0.32
vt 0.72 0.36
vt 0.72 0.4
vt 0.72 0.44
vt 0.72 0.28
vt 0.76 0.32
vt 0.76 0.36
vt 0.76 0.4
vt 0.76 0.44
vt 0.76 0.28
vt 0.8 0.32
vt 0.8 0.36
vt 0.8 0.4
vt 0.8 0.44
vt 0.8 0.28
vt 0.84 0.32
vt 0.84 0.36
vt 0.84 0.4
vt 0.84 0.44
vt 0.84 0.28
vt 0.88 0.32
vt 0.88 0.36
vt 0.88 0.4
vt 0.88 0.44
vt 0.88 0.28
vt 0.48 0.32
vt 0.48 0.36
vt 0.44 0.36
vt 0.44 0.32
vt 0.48 0.4
vt 0.44 0.4
vt 0.48 0.44
vt 0.44 0.44
vt 0.48 0.28
vt 0.44 0.28
vt 0.52 0.32
vt 0.52 0.36
vt 0.52 0.4
vt 0.52 0.44
vt 0.52 0.28
vt 0.56 0.32
vt 0.56 0.36
vt 0.56 0.4
vt 0.56 0.44
vt 0.56 0.28
vt 0.6 0.32
vt 0.6 0.36
vt 0.6 0.4
vt 0.6 0.44
vt 0.6 0.28

# Normal
vn 0 0 -1

# Mesh description
g Level2_mesh_0208

# Faces
f 1/1/1 2/2/1 3/3/1 4/4/1
f 5/2/1 6/5/1 7/6/1 8/3/1
f 9/5/1 10/7/1 11/8/1 12/6/1
f 13/9/1 14/1/1 15/4/1 16/10/1
f 17/1/1 18/2/1 19/3/1 20/4/1
f 21/2/1 22/5/1 23/6/1 24/3/1
f 25/5/1 26/7/1 27/8/1 28/6/1
f 29/11/1 30/12/1 31/2/1 32/1/1
f 33/12/1 34/13/1 35/5/1 36/2/1
f 37/13/1 38/14/1 39/7/1 40/5/1
f 41/15/1 42/11/1 43/1/1 44/9/1
f 45/11/1 46/12/1 47/2/1 48/1/1
f 49/12/1 50/13/1 51/5/1 52/2/1
f 53/13/1 54/14/1 55/7/1 56/5/1
f 57/16/1 58/17/1 59/12/1 60/11/1
f 61/17/1 62/18/1 63/13/1 64/12/1
f 65/18/1 66/19/1 67/14/1 68/13/1
f 69/20/1 70/16/1 71/11/1 72/15/1
f 73/16/1 74/17/1 75/12/1 76/11/1
f 77/17/1 78/18/1 79/13/1 80/12/1
f 81/18/1 82/19/1 83/14/1 84/13/1
f 85/21/1 86/22/1 87/17/1 88/16/1
f 89/22/1 90/23/1 91/18/1 92/17/1
f 93/23/1 94/24/1 95/19/1 96/18/1
f 97/25/1 98/21/1 99/16/1 100/20/1
f 101/21/1 102/22/1 103/17/1 104/16/1
f 105/22/1 106/23/1 107/18/1 108/17/1
f 109/23/1 110/24/1 111/19/1 112/18/1
f 113/26/1 114/27/1 115/22/1 116/21/1
f 117/27/1 118/28/1 119/23/1 120/22/1
f 121/28/1 122/29/1 123/24/1 124/23/1
f 125/30/1 126/26/1 127/21/1 128/25/1
f 129/26/1 130/27/1 131/22/1 132/21/1
f 133/27/1 134/28/1 135/23/1 136/22/1
f 137/28/1 138/29/1 139/24/1 140/23/1
f 141/31/1 142/32/1 143/27/1 144/26/1
f 145/32/1 146/33/1 147/28/1 148/27/1
f 149/33/1 150/34/1 151/29/1 152/28/1
f 153/35/1 154/31/1 155/26/1 156/30/1
f 157/31/1 158/32/1 159/27/1 160/26/1
f 161/32/1 162/33/1 163/28/1 164/27/1
f 165/33/1 166/34/1 167/29/1 168/28/1
f 169/36/1 170/37/1 171/38/1 172/39/1
f 173/37/1 174/40/1 175/41/1 176/38/1
f 177/40/1 178/42/1 179/43/1 180/41/1
f 181/44/1 182/36/1 183/39/1 184/45/1
f 185/36/1 186/37/1 187/38/1 188/39/1
f 189/37/1 190/40/1 191/41/1 192/38/1
f 193/40/1 194/42/1 195/43/1 196/41/1
f 197/46/1 198/47/1 199/37/1 200/36/1
f 201/47/1 202/48/1 203/40/1 204/37/1
f 205/48/1 206/49/1 207/42/1 208/40/1
f 209/50/1 210/46/1 211/36/1 212/44/1
f 213/46/1 214/47/1 215/37/1 216/36/1
f 217/47/1 218/48/1 219/40/1 220/37/1
f 221/48/1 222/49/1 223/42/1 224/40/1
f 225/51/1 226/52/1 227/47/1 228/46/1
f 229/52/1 230/53/1 231/48/1 232/47/1
f 233/53/1 234/54/1 235/49/1 236/48/1
f 237/55/1 238/51/1 239/46/1 240/50/1
f 241/51/1 242/52/1 243/47/1 244/46/1
f 245/52/1 246/53/1 247/48/1 248/47/1
f 249/53/1 250/54/1 251/49/1 252/48/1
f 253/56/1 254/57/1 255/52/1 256/51/1
f 257/57/1 258/58/1 259/53/1 260/52/1
f 261/58/1 262/59/1 263/54/1 264/53/1
f 265/60/1 266/56/1 267/51/1 268/55/1
f 269/56/1 270/57/1 271/52/1 272/51/1
f 273/57/1 274/58/1 275/53/1 276/52/1
f 277/58/1 278/59/1 279/54/1 280/53/1
f 281/4/1 282/3/1 283/57/1 284/56/1
f 285/3/1 286/6/1 287/58/1 288/57/1
f 289/6/1 290/8/1 291/59/1 292/58/1
f 293/10/1 294/4/1 295/56/1 296/60/1
f 297/4/1 298/3/1 299/57/1 300/56/1
f 301/3/1 302/6/1 303/58/1 304/57/1
f 305/6/1 306/8/1 307/59/1 308/58/1
f 309/1/1 310/2/1 311/3/1 312/4/1
f 313/2/1 314/5/1 315/6/1 316/3/1
f 317/5/1 318/7/1 319/8/1 320/6/1
f 321/9/1 322/1/1 323/4/1 324/10/1
f 325/1/1 326/2/1 327/3/1 328/4/1
f 329/2/1 330/5/1 331/6/1 332/3/1
f 333/5/1 334/7/1 335/8/1 336/6/1
f 337/11/1 338/12/1 339/2/1 340/1/1
f 341/12/1 342/13/1 343/5/1 344/2/1
f 345/13/1 346/14/1 347/7/1 348/5/1
f 349/15/1 350/11/1 351/1/1 352/9/1
f 353/11/1 354/12/1 355/2/1 356/1/1
f 357/12/1 358/13/1 359/5/1 360/2/1
f 361/13/1 362/14/1 363/7/1 364/5/1
f 365/20/1 366/16/1 367/11/1 368/15/1
f 369/16/1 370/17/1 371/12/1 372/11/1
f 373/17/1 374/18/1 375/13/1 376/12/1
f 377/18/1 378/19/1 379/14/1 380/13/1
f 381/25/1 382/21/1 383/16/1 384/20/1
f 385/21/1 386/22/1 387/17/1 388/16/1
f 389/22/1 390/23/1 391/18/1 392/17/1
f 393/23/1 394/24/1 395/19/1 396/18/1
f 397/30/1 398/26/1 399/21/1 400/25/1
f 401/26/1 402/27/1 403/22/1 404/21/1
f 405/27/1 406/28/1 407/23/1 408/22/1
f 409/28/1 410/29/1 411/24/1 412/23/1

