# Tiled2Unity generated file. Do not modify by hand.
# Wavefront file for 'Level2_mesh_0183.obj'

# Vertices (Count = 12)
v -208 -256 0
v -224 -256 0
v -224 -240 0
v -208 -240 0
v -224 -256 0
v -240 -256 0
v -240 -240 0
v -224 -240 0
v -240 -256 0
v -256 -256 0
v -256 -240 0
v -240 -240 0

# Texture cooridinates (Count = 4)
vt 0.5652174 0.9285714
vt 0.6086956 0.9285714
vt 0.6086956 1
vt 0.5652174 1

# Normal
vn 0 0 -1

# Mesh description
g Level2_mesh_0183

# Faces
f 1/1/1 2/2/1 3/3/1 4/4/1
f 5/1/1 6/2/1 7/3/1 8/4/1
f 9/1/1 10/2/1 11/3/1 12/4/1

