# Tiled2Unity generated file. Do not modify by hand.
# Wavefront file for 'Level2_mesh_0211.obj'

# Vertices (Count = 128)
v -160 -16 0
v -176 -16 0
v -176 0 0
v -160 0 0
v -176 -16 0
v -192 -16 0
v -192 0 0
v -176 0 0
v -192 -16 0
v -208 -16 0
v -208 0 0
v -192 0 0
v -208 -16 0
v -224 -16 0
v -224 0 0
v -208 0 0
v -144 -32 0
v -160 -32 0
v -160 -16 0
v -144 -16 0
v -160 -32 0
v -176 -32 0
v -176 -16 0
v -160 -16 0
v -176 -32 0
v -192 -32 0
v -192 -16 0
v -176 -16 0
v -192 -32 0
v -208 -32 0
v -208 -16 0
v -192 -16 0
v -208 -32 0
v -224 -32 0
v -224 -16 0
v -208 -16 0
v -224 -32 0
v -240 -32 0
v -240 -16 0
v -224 -16 0
v -240 -32 0
v -256 -32 0
v -256 -16 0
v -240 -16 0
v -144 -48 0
v -160 -48 0
v -160 -32 0
v -144 -32 0
v -160 -48 0
v -176 -48 0
v -176 -32 0
v -160 -32 0
v -176 -48 0
v -192 -48 0
v -192 -32 0
v -176 -32 0
v -192 -48 0
v -208 -48 0
v -208 -32 0
v -192 -32 0
v -208 -48 0
v -224 -48 0
v -224 -32 0
v -208 -32 0
v -224 -48 0
v -240 -48 0
v -240 -32 0
v -224 -32 0
v -240 -48 0
v -256 -48 0
v -256 -32 0
v -240 -32 0
v -144 -64 0
v -160 -64 0
v -160 -48 0
v -144 -48 0
v -160 -64 0
v -176 -64 0
v -176 -48 0
v -160 -48 0
v -176 -64 0
v -192 -64 0
v -192 -48 0
v -176 -48 0
v -192 -64 0
v -208 -64 0
v -208 -48 0
v -192 -48 0
v -208 -64 0
v -224 -64 0
v -224 -48 0
v -208 -48 0
v -224 -64 0
v -240 -64 0
v -240 -48 0
v -224 -48 0
v -240 -64 0
v -256 -64 0
v -256 -48 0
v -240 -48 0
v -144 -80 0
v -160 -80 0
v -160 -64 0
v -144 -64 0
v -160 -80 0
v -176 -80 0
v -176 -64 0
v -160 -64 0
v -176 -80 0
v -192 -80 0
v -192 -64 0
v -176 -64 0
v -192 -80 0
v -208 -80 0
v -208 -64 0
v -192 -64 0
v -208 -80 0
v -224 -80 0
v -224 -64 0
v -208 -64 0
v -224 -80 0
v -240 -80 0
v -240 -64 0
v -224 -64 0
v -240 -80 0
v -256 -80 0
v -256 -64 0
v -240 -64 0

# Texture cooridinates (Count = 50)
vt 0.88 0.28
vt 0.88 0.32
vt 0.84 0.32
vt 0.84 0.28
vt 0.88 0.36
vt 0.84 0.36
vt 0.88 0.4
vt 0.84 0.4
vt 0.88 0.44
vt 0.84 0.44
vt 0.92 0.4
vt 0.92 0.44
vt 0.44 0.4
vt 0.48 0.4
vt 0.48 0.44
vt 0.44 0.44
vt 0.52 0.4
vt 0.52 0.44
vt 0.56 0.4
vt 0.56 0.44
vt 0.6 0.4
vt 0.6 0.44
vt 0.64 0.4
vt 0.64 0.44
vt 0.68 0.4
vt 0.68 0.44
vt 0.92 0.36
vt 0.44 0.36
vt 0.48 0.36
vt 0.52 0.36
vt 0.56 0.36
vt 0.6 0.36
vt 0.64 0.36
vt 0.68 0.36
vt 0.92 0.32
vt 0.44 0.32
vt 0.48 0.32
vt 0.52 0.32
vt 0.56 0.32
vt 0.6 0.32
vt 0.64 0.32
vt 0.68 0.32
vt 0.92 0.28
vt 0.44 0.28
vt 0.48 0.28
vt 0.52 0.28
vt 0.56 0.28
vt 0.6 0.28
vt 0.64 0.28
vt 0.68 0.28

# Normal
vn 0 0 -1

# Mesh description
g Level2_mesh_0211

# Faces
f 1/1/1 2/2/1 3/3/1 4/4/1
f 5/2/1 6/5/1 7/6/1 8/3/1
f 9/5/1 10/7/1 11/8/1 12/6/1
f 13/7/1 14/9/1 15/10/1 16/8/1
f 17/7/1 18/11/1 19/12/1 20/9/1
f 21/13/1 22/14/1 23/15/1 24/16/1
f 25/14/1 26/17/1 27/18/1 28/15/1
f 29/17/1 30/19/1 31/20/1 32/18/1
f 33/19/1 34/21/1 35/22/1 36/20/1
f 37/21/1 38/23/1 39/24/1 40/22/1
f 41/23/1 42/25/1 43/26/1 44/24/1
f 45/5/1 46/27/1 47/11/1 48/7/1
f 49/28/1 50/29/1 51/14/1 52/13/1
f 53/29/1 54/30/1 55/17/1 56/14/1
f 57/30/1 58/31/1 59/19/1 60/17/1
f 61/31/1 62/32/1 63/21/1 64/19/1
f 65/32/1 66/33/1 67/23/1 68/21/1
f 69/33/1 70/34/1 71/25/1 72/23/1
f 73/2/1 74/35/1 75/27/1 76/5/1
f 77/36/1 78/37/1 79/29/1 80/28/1
f 81/37/1 82/38/1 83/30/1 84/29/1
f 85/38/1 86/39/1 87/31/1 88/30/1
f 89/39/1 90/40/1 91/32/1 92/31/1
f 93/40/1 94/41/1 95/33/1 96/32/1
f 97/41/1 98/42/1 99/34/1 100/33/1
f 101/1/1 102/43/1 103/35/1 104/2/1
f 105/44/1 106/45/1 107/37/1 108/36/1
f 109/45/1 110/46/1 111/38/1 112/37/1
f 113/46/1 114/47/1 115/39/1 116/38/1
f 117/47/1 118/48/1 119/40/1 120/39/1
f 121/48/1 122/49/1 123/41/1 124/40/1
f 125/49/1 126/50/1 127/42/1 128/41/1

