# Tiled2Unity generated file. Do not modify by hand.
# Wavefront file for 'Level2_mesh_0259.obj'

# Vertices (Count = 16)
v -80 -112 0
v -96 -112 0
v -96 -96 0
v -80 -96 0
v -176 -112 0
v -192 -112 0
v -192 -96 0
v -176 -96 0
v -128 -128 0
v -144 -128 0
v -144 -112 0
v -128 -112 0
v -176 -128 0
v -192 -128 0
v -192 -112 0
v -176 -112 0

# Texture cooridinates (Count = 4)
vt 0.16 0.76
vt 0.2 0.76
vt 0.2 0.8
vt 0.16 0.8

# Normal
vn 0 0 -1

# Mesh description
g Level2_mesh_0259

# Faces
f 1/1/1 2/2/1 3/3/1 4/4/1
f 5/1/1 6/2/1 7/3/1 8/4/1
f 9/1/1 10/2/1 11/3/1 12/4/1
f 13/1/1 14/2/1 15/3/1 16/4/1

