# Tiled2Unity generated file. Do not modify by hand.
# Wavefront file for 'Level2_mesh_0278.obj'

# Vertices (Count = 44)
v -128 -96 0
v -144 -96 0
v -144 -80 0
v -128 -80 0
v -128 -112 0
v -144 -112 0
v -144 -96 0
v -128 -96 0
v -128 -128 0
v -144 -128 0
v -144 -112 0
v -128 -112 0
v -128 -144 0
v -144 -144 0
v -144 -128 0
v -128 -128 0
v -128 -160 0
v -144 -160 0
v -144 -144 0
v -128 -144 0
v -128 -176 0
v -144 -176 0
v -144 -160 0
v -128 -160 0
v -128 -192 0
v -144 -192 0
v -144 -176 0
v -128 -176 0
v -128 -208 0
v -144 -208 0
v -144 -192 0
v -128 -192 0
v -128 -224 0
v -144 -224 0
v -144 -208 0
v -128 -208 0
v -128 -240 0
v -144 -240 0
v -144 -224 0
v -128 -224 0
v -128 -256 0
v -144 -256 0
v -144 -240 0
v -128 -240 0

# Texture cooridinates (Count = 4)
vt 0.04347826 0.7857143
vt 0.08695652 0.7857143
vt 0.08695652 0.8571429
vt 0.04347826 0.8571429

# Normal
vn 0 0 -1

# Mesh description
g Level2_mesh_0278

# Faces
f 1/1/1 2/2/1 3/3/1 4/4/1
f 5/1/1 6/2/1 7/3/1 8/4/1
f 9/1/1 10/2/1 11/3/1 12/4/1
f 13/1/1 14/2/1 15/3/1 16/4/1
f 17/1/1 18/2/1 19/3/1 20/4/1
f 21/1/1 22/2/1 23/3/1 24/4/1
f 25/1/1 26/2/1 27/3/1 28/4/1
f 29/1/1 30/2/1 31/3/1 32/4/1
f 33/1/1 34/2/1 35/3/1 36/4/1
f 37/1/1 38/2/1 39/3/1 40/4/1
f 41/1/1 42/2/1 43/3/1 44/4/1

