# Tiled2Unity generated file. Do not modify by hand.
# Wavefront file for 'Level2_mesh_0291.obj'

# Vertices (Count = 36)
v 0 -224 0
v -16 -224 0
v -16 -208 0
v 0 -208 0
v -16 -224 0
v -32 -224 0
v -32 -208 0
v -16 -208 0
v -32 -224 0
v -48 -224 0
v -48 -208 0
v -32 -208 0
v -48 -224 0
v -64 -224 0
v -64 -208 0
v -48 -208 0
v -16 -240 0
v -32 -240 0
v -32 -224 0
v -16 -224 0
v -32 -240 0
v -48 -240 0
v -48 -224 0
v -32 -224 0
v -48 -240 0
v -64 -240 0
v -64 -224 0
v -48 -224 0
v 0 -256 0
v -16 -256 0
v -16 -240 0
v 0 -240 0
v -16 -256 0
v -32 -256 0
v -32 -240 0
v -16 -240 0

# Texture cooridinates (Count = 13)
vt 0.1304348 0.9285714
vt 0.173913 0.9285714
vt 0.173913 1
vt 0.1304348 1
vt 0.173913 0.7142857
vt 0.2173913 0.7142857
vt 0.2173913 0.7857143
vt 0.173913 0.7857143
vt 0.1304348 0.6428571
vt 0.173913 0.6428571
vt 0.1304348 0.7142857
vt 0.2608696 0.7142857
vt 0.2608696 0.7857143

# Normal
vn 0 0 -1

# Mesh description
g Level2_mesh_0291

# Faces
f 1/1/1 2/2/1 3/3/1 4/4/1
f 5/1/1 6/2/1 7/3/1 8/4/1
f 9/1/1 10/2/1 11/3/1 12/4/1
f 13/1/1 14/2/1 15/3/1 16/4/1
f 17/5/1 18/6/1 19/7/1 20/8/1
f 21/9/1 22/10/1 23/5/1 24/11/1
f 25/6/1 26/12/1 27/13/1 28/7/1
f 29/9/1 30/10/1 31/5/1 32/11/1
f 33/6/1 34/12/1 35/13/1 36/7/1

