# Tiled2Unity generated file. Do not modify by hand.
# Wavefront file for 'Level2_mesh_0078.obj'

# Vertices (Count = 192)
v 0 -16 0
v -16 -16 0
v -16 0 0
v 0 0 0
v -16 -16 0
v -32 -16 0
v -32 0 0
v -16 0 0
v -32 -16 0
v -48 -16 0
v -48 0 0
v -32 0 0
v 0 -32 0
v -16 -32 0
v -16 -16 0
v 0 -16 0
v -16 -32 0
v -32 -32 0
v -32 -16 0
v -16 -16 0
v -32 -32 0
v -48 -32 0
v -48 -16 0
v -32 -16 0
v 0 -48 0
v -16 -48 0
v -16 -32 0
v 0 -32 0
v -16 -48 0
v -32 -48 0
v -32 -32 0
v -16 -32 0
v -32 -48 0
v -48 -48 0
v -48 -32 0
v -32 -32 0
v 0 -64 0
v -16 -64 0
v -16 -48 0
v 0 -48 0
v -16 -64 0
v -32 -64 0
v -32 -48 0
v -16 -48 0
v -32 -64 0
v -48 -64 0
v -48 -48 0
v -32 -48 0
v 0 -80 0
v -16 -80 0
v -16 -64 0
v 0 -64 0
v -16 -80 0
v -32 -80 0
v -32 -64 0
v -16 -64 0
v -32 -80 0
v -48 -80 0
v -48 -64 0
v -32 -64 0
v 0 -96 0
v -16 -96 0
v -16 -80 0
v 0 -80 0
v -16 -96 0
v -32 -96 0
v -32 -80 0
v -16 -80 0
v -32 -96 0
v -48 -96 0
v -48 -80 0
v -32 -80 0
v 0 -112 0
v -16 -112 0
v -16 -96 0
v 0 -96 0
v -16 -112 0
v -32 -112 0
v -32 -96 0
v -16 -96 0
v -32 -112 0
v -48 -112 0
v -48 -96 0
v -32 -96 0
v 0 -128 0
v -16 -128 0
v -16 -112 0
v 0 -112 0
v -16 -128 0
v -32 -128 0
v -32 -112 0
v -16 -112 0
v -32 -128 0
v -48 -128 0
v -48 -112 0
v -32 -112 0
v 0 -144 0
v -16 -144 0
v -16 -128 0
v 0 -128 0
v -16 -144 0
v -32 -144 0
v -32 -128 0
v -16 -128 0
v -32 -144 0
v -48 -144 0
v -48 -128 0
v -32 -128 0
v 0 -160 0
v -16 -160 0
v -16 -144 0
v 0 -144 0
v -16 -160 0
v -32 -160 0
v -32 -144 0
v -16 -144 0
v -32 -160 0
v -48 -160 0
v -48 -144 0
v -32 -144 0
v 0 -176 0
v -16 -176 0
v -16 -160 0
v 0 -160 0
v -16 -176 0
v -32 -176 0
v -32 -160 0
v -16 -160 0
v -32 -176 0
v -48 -176 0
v -48 -160 0
v -32 -160 0
v 0 -192 0
v -16 -192 0
v -16 -176 0
v 0 -176 0
v -16 -192 0
v -32 -192 0
v -32 -176 0
v -16 -176 0
v -32 -192 0
v -48 -192 0
v -48 -176 0
v -32 -176 0
v 0 -208 0
v -16 -208 0
v -16 -192 0
v 0 -192 0
v -16 -208 0
v -32 -208 0
v -32 -192 0
v -16 -192 0
v -32 -208 0
v -48 -208 0
v -48 -192 0
v -32 -192 0
v 0 -224 0
v -16 -224 0
v -16 -208 0
v 0 -208 0
v -16 -224 0
v -32 -224 0
v -32 -208 0
v -16 -208 0
v -32 -224 0
v -48 -224 0
v -48 -208 0
v -32 -208 0
v 0 -240 0
v -16 -240 0
v -16 -224 0
v 0 -224 0
v -16 -240 0
v -32 -240 0
v -32 -224 0
v -16 -224 0
v -32 -240 0
v -48 -240 0
v -48 -224 0
v -32 -224 0
v 0 -256 0
v -16 -256 0
v -16 -240 0
v 0 -240 0
v -16 -256 0
v -32 -256 0
v -32 -240 0
v -16 -240 0
v -32 -256 0
v -48 -256 0
v -48 -240 0
v -32 -240 0

# Texture cooridinates (Count = 36)
vt 0.5714286 0.9770115
vt 0.6 0.9770115
vt 0.6 1
vt 0.5714286 1
vt 0.6285715 0.9770115
vt 0.6285715 1
vt 0.6571429 0.9770115
vt 0.6571429 1
vt 0.5714286 0.954023
vt 0.6 0.954023
vt 0.6285715 0.954023
vt 0.6571429 0.954023
vt 0.5714286 0.9310345
vt 0.6 0.9310345
vt 0.6285715 0.9310345
vt 0.6571429 0.9310345
vt 0.5714286 0.908046
vt 0.6 0.908046
vt 0.6285715 0.908046
vt 0.6571429 0.908046
vt 0.5714286 0.8850574
vt 0.6 0.8850574
vt 0.6285715 0.8850574
vt 0.6571429 0.8850574
vt 0.5714286 0.862069
vt 0.6 0.862069
vt 0.6285715 0.862069
vt 0.6571429 0.862069
vt 0.5714286 0.8390805
vt 0.6 0.8390805
vt 0.6285715 0.8390805
vt 0.6571429 0.8390805
vt 0.5714286 0.816092
vt 0.6 0.816092
vt 0.6285715 0.816092
vt 0.6571429 0.816092

# Normal
vn 0 0 -1

# Mesh description
g Level2_mesh_0078

# Faces
f 1/1/1 2/2/1 3/3/1 4/4/1
f 5/2/1 6/5/1 7/6/1 8/3/1
f 9/5/1 10/7/1 11/8/1 12/6/1
f 13/9/1 14/10/1 15/2/1 16/1/1
f 17/10/1 18/11/1 19/5/1 20/2/1
f 21/11/1 22/12/1 23/7/1 24/5/1
f 25/13/1 26/14/1 27/10/1 28/9/1
f 29/14/1 30/15/1 31/11/1 32/10/1
f 33/15/1 34/16/1 35/12/1 36/11/1
f 37/17/1 38/18/1 39/14/1 40/13/1
f 41/18/1 42/19/1 43/15/1 44/14/1
f 45/19/1 46/20/1 47/16/1 48/15/1
f 49/21/1 50/22/1 51/18/1 52/17/1
f 53/22/1 54/23/1 55/19/1 56/18/1
f 57/23/1 58/24/1 59/20/1 60/19/1
f 61/25/1 62/26/1 63/22/1 64/21/1
f 65/26/1 66/27/1 67/23/1 68/22/1
f 69/27/1 70/28/1 71/24/1 72/23/1
f 73/29/1 74/30/1 75/26/1 76/25/1
f 77/30/1 78/31/1 79/27/1 80/26/1
f 81/31/1 82/32/1 83/28/1 84/27/1
f 85/33/1 86/34/1 87/30/1 88/29/1
f 89/34/1 90/35/1 91/31/1 92/30/1
f 93/35/1 94/36/1 95/32/1 96/31/1
f 97/21/1 98/22/1 99/18/1 100/17/1
f 101/22/1 102/23/1 103/19/1 104/18/1
f 105/23/1 106/24/1 107/20/1 108/19/1
f 109/25/1 110/26/1 111/22/1 112/21/1
f 113/26/1 114/27/1 115/23/1 116/22/1
f 117/27/1 118/28/1 119/24/1 120/23/1
f 121/29/1 122/30/1 123/26/1 124/25/1
f 125/30/1 126/31/1 127/27/1 128/26/1
f 129/31/1 130/32/1 131/28/1 132/27/1
f 133/29/1 134/30/1 135/26/1 136/25/1
f 137/30/1 138/31/1 139/27/1 140/26/1
f 141/31/1 142/32/1 143/28/1 144/27/1
f 145/21/1 146/22/1 147/18/1 148/17/1
f 149/22/1 150/23/1 151/19/1 152/18/1
f 153/23/1 154/24/1 155/20/1 156/19/1
f 157/25/1 158/26/1 159/22/1 160/21/1
f 161/26/1 162/27/1 163/23/1 164/22/1
f 165/27/1 166/28/1 167/24/1 168/23/1
f 169/29/1 170/30/1 171/26/1 172/25/1
f 173/30/1 174/31/1 175/27/1 176/26/1
f 177/31/1 178/32/1 179/28/1 180/27/1
f 181/21/1 182/22/1 183/18/1 184/17/1
f 185/22/1 186/23/1 187/19/1 188/18/1
f 189/23/1 190/24/1 191/20/1 192/19/1

