# Tiled2Unity generated file. Do not modify by hand.
# Wavefront file for 'Level2_mesh_0274.obj'

# Vertices (Count = 208)
v -64 -16 0
v -80 -16 0
v -80 0 0
v -64 0 0
v -144 -16 0
v -160 -16 0
v -160 0 0
v -144 0 0
v -224 -16 0
v -240 -16 0
v -240 0 0
v -224 0 0
v -64 -32 0
v -80 -32 0
v -80 -16 0
v -64 -16 0
v -144 -32 0
v -160 -32 0
v -160 -16 0
v -144 -16 0
v -224 -32 0
v -240 -32 0
v -240 -16 0
v -224 -16 0
v -64 -48 0
v -80 -48 0
v -80 -32 0
v -64 -32 0
v -144 -48 0
v -160 -48 0
v -160 -32 0
v -144 -32 0
v -224 -48 0
v -240 -48 0
v -240 -32 0
v -224 -32 0
v -64 -64 0
v -80 -64 0
v -80 -48 0
v -64 -48 0
v -144 -64 0
v -160 -64 0
v -160 -48 0
v -144 -48 0
v -224 -64 0
v -240 -64 0
v -240 -48 0
v -224 -48 0
v -64 -80 0
v -80 -80 0
v -80 -64 0
v -64 -64 0
v -144 -80 0
v -160 -80 0
v -160 -64 0
v -144 -64 0
v -224 -80 0
v -240 -80 0
v -240 -64 0
v -224 -64 0
v -64 -96 0
v -80 -96 0
v -80 -80 0
v -64 -80 0
v -144 -96 0
v -160 -96 0
v -160 -80 0
v -144 -80 0
v -224 -96 0
v -240 -96 0
v -240 -80 0
v -224 -80 0
v 0 -112 0
v -16 -112 0
v -16 -96 0
v 0 -96 0
v -16 -112 0
v -32 -112 0
v -32 -96 0
v -16 -96 0
v -32 -112 0
v -48 -112 0
v -48 -96 0
v -32 -96 0
v -48 -112 0
v -64 -112 0
v -64 -96 0
v -48 -96 0
v -64 -112 0
v -80 -112 0
v -80 -96 0
v -64 -96 0
v -144 -112 0
v -160 -112 0
v -160 -96 0
v -144 -96 0
v -160 -112 0
v -176 -112 0
v -176 -96 0
v -160 -96 0
v -176 -112 0
v -192 -112 0
v -192 -96 0
v -176 -96 0
v -192 -112 0
v -208 -112 0
v -208 -96 0
v -192 -96 0
v -208 -112 0
v -224 -112 0
v -224 -96 0
v -208 -96 0
v -224 -112 0
v -240 -112 0
v -240 -96 0
v -224 -96 0
v 0 -192 0
v -16 -192 0
v -16 -176 0
v 0 -176 0
v -16 -192 0
v -32 -192 0
v -32 -176 0
v -16 -176 0
v -32 -192 0
v -48 -192 0
v -48 -176 0
v -32 -176 0
v -48 -192 0
v -64 -192 0
v -64 -176 0
v -48 -176 0
v -64 -192 0
v -80 -192 0
v -80 -176 0
v -64 -176 0
v -144 -192 0
v -160 -192 0
v -160 -176 0
v -144 -176 0
v -160 -192 0
v -176 -192 0
v -176 -176 0
v -160 -176 0
v -176 -192 0
v -192 -192 0
v -192 -176 0
v -176 -176 0
v -192 -192 0
v -208 -192 0
v -208 -176 0
v -192 -176 0
v -208 -192 0
v -224 -192 0
v -224 -176 0
v -208 -176 0
v -224 -192 0
v -240 -192 0
v -240 -176 0
v -224 -176 0
v -64 -208 0
v -80 -208 0
v -80 -192 0
v -64 -192 0
v -144 -208 0
v -160 -208 0
v -160 -192 0
v -144 -192 0
v -224 -208 0
v -240 -208 0
v -240 -192 0
v -224 -192 0
v -64 -224 0
v -80 -224 0
v -80 -208 0
v -64 -208 0
v -144 -224 0
v -160 -224 0
v -160 -208 0
v -144 -208 0
v -224 -224 0
v -240 -224 0
v -240 -208 0
v -224 -208 0
v -64 -240 0
v -80 -240 0
v -80 -224 0
v -64 -224 0
v -144 -240 0
v -160 -240 0
v -160 -224 0
v -144 -224 0
v -224 -240 0
v -240 -240 0
v -240 -224 0
v -224 -224 0
v -64 -256 0
v -80 -256 0
v -80 -240 0
v -64 -240 0
v -144 -256 0
v -160 -256 0
v -160 -240 0
v -144 -240 0
v -224 -256 0
v -240 -256 0
v -240 -240 0
v -224 -240 0

# Texture cooridinates (Count = 33)
vt 0.16 0.32
vt 0.2 0.32
vt 0.2 0.36
vt 0.16 0.36
vt 0 0.32
vt 0.04 0.32
vt 0.04 0.36
vt 0 0.36
vt 0.08 0.24
vt 0.12 0.24
vt 0.12 0.28
vt 0.08 0.28
vt 0.24 0.36
vt 0.24 0.4
vt 0.2 0.4
vt 0.16 0.24
vt 0.16 0.28
vt 0.04 0.24
vt 0.04 0.28
vt 0.08 0.4
vt 0.12 0.4
vt 0.12 0.44
vt 0.08 0.44
vt 0.24 0.44
vt 0.2 0.44
vt 0.16 0.4
vt 0.16 0.44
vt 0.04 0.4
vt 0.04 0.44
vt 0.2 0.16
vt 0.16 0.16
vt 0.16 0.2
vt 0.2 0.2

# Normal
vn 0 0 -1

# Mesh description
g Level2_mesh_0274

# Faces
f 1/1/1 2/2/1 3/3/1 4/4/1
f 5/5/1 6/6/1 7/7/1 8/8/1
f 9/1/1 10/2/1 11/3/1 12/4/1
f 13/1/1 14/2/1 15/3/1 16/4/1
f 17/5/1 18/6/1 19/7/1 20/8/1
f 21/1/1 22/2/1 23/3/1 24/4/1
f 25/1/1 26/2/1 27/3/1 28/4/1
f 29/5/1 30/6/1 31/7/1 32/8/1
f 33/1/1 34/2/1 35/3/1 36/4/1
f 37/1/1 38/2/1 39/3/1 40/4/1
f 41/5/1 42/6/1 43/7/1 44/8/1
f 45/1/1 46/2/1 47/3/1 48/4/1
f 49/1/1 50/2/1 51/3/1 52/4/1
f 53/5/1 54/6/1 55/7/1 56/8/1
f 57/1/1 58/2/1 59/3/1 60/4/1
f 61/1/1 62/2/1 63/3/1 64/4/1
f 65/5/1 66/6/1 67/7/1 68/8/1
f 69/1/1 70/2/1 71/3/1 72/4/1
f 73/9/1 74/10/1 75/11/1 76/12/1
f 77/9/1 78/10/1 79/11/1 80/12/1
f 81/9/1 82/10/1 83/11/1 84/12/1
f 85/3/1 86/13/1 87/14/1 88/15/1
f 89/10/1 90/16/1 91/17/1 92/11/1
f 93/18/1 94/9/1 95/12/1 96/19/1
f 97/3/1 98/13/1 99/14/1 100/15/1
f 101/9/1 102/10/1 103/11/1 104/12/1
f 105/9/1 106/10/1 107/11/1 108/12/1
f 109/3/1 110/13/1 111/14/1 112/15/1
f 113/10/1 114/16/1 115/17/1 116/11/1
f 117/20/1 118/21/1 119/22/1 120/23/1
f 121/20/1 122/21/1 123/22/1 124/23/1
f 125/15/1 126/14/1 127/24/1 128/25/1
f 129/20/1 130/21/1 131/22/1 132/23/1
f 133/21/1 134/26/1 135/27/1 136/22/1
f 137/28/1 138/20/1 139/23/1 140/29/1
f 141/15/1 142/14/1 143/24/1 144/25/1
f 145/20/1 146/21/1 147/22/1 148/23/1
f 149/20/1 150/21/1 151/22/1 152/23/1
f 153/15/1 154/14/1 155/24/1 156/25/1
f 157/21/1 158/26/1 159/27/1 160/22/1
f 161/1/1 162/2/1 163/3/1 164/4/1
f 165/5/1 166/6/1 167/7/1 168/8/1
f 169/1/1 170/2/1 171/3/1 172/4/1
f 173/1/1 174/2/1 175/3/1 176/4/1
f 177/5/1 178/6/1 179/7/1 180/8/1
f 181/1/1 182/2/1 183/3/1 184/4/1
f 185/1/1 186/2/1 187/3/1 188/4/1
f 189/5/1 190/6/1 191/7/1 192/8/1
f 193/1/1 194/2/1 195/3/1 196/4/1
f 197/30/1 198/31/1 199/32/1 200/33/1
f 201/31/1 202/30/1 203/33/1 204/32/1
f 205/30/1 206/31/1 207/32/1 208/33/1

