# Tiled2Unity generated file. Do not modify by hand.
# Wavefront file for 'Level2_mesh_0176.obj'

# Vertices (Count = 20)
v -80 -16 0
v -96 -16 0
v -96 0 0
v -80 0 0
v -96 -16 0
v -112 -16 0
v -112 0 0
v -96 0 0
v -112 -16 0
v -128 -16 0
v -128 0 0
v -112 0 0
v -128 -16 0
v -144 -16 0
v -144 0 0
v -128 0 0
v -240 -16 0
v -256 -16 0
v -256 0 0
v -240 0 0

# Texture cooridinates (Count = 4)
vt 0.5652174 0.8571429
vt 0.6086956 0.8571429
vt 0.6086956 0.9285714
vt 0.5652174 0.9285714

# Normal
vn 0 0 -1

# Mesh description
g Level2_mesh_0176

# Faces
f 1/1/1 2/2/1 3/3/1 4/4/1
f 5/1/1 6/2/1 7/3/1 8/4/1
f 9/1/1 10/2/1 11/3/1 12/4/1
f 13/1/1 14/2/1 15/3/1 16/4/1
f 17/1/1 18/2/1 19/3/1 20/4/1

