# Tiled2Unity generated file. Do not modify by hand.
# Wavefront file for 'Level2_mesh_0280.obj'

# Vertices (Count = 92)
v -80 -16 0
v -96 -16 0
v -96 0 0
v -80 0 0
v -96 -16 0
v -112 -16 0
v -112 0 0
v -96 0 0
v -112 -16 0
v -128 -16 0
v -128 0 0
v -112 0 0
v -128 -16 0
v -144 -16 0
v -144 0 0
v -128 0 0
v -144 -16 0
v -160 -16 0
v -160 0 0
v -144 0 0
v -160 -16 0
v -176 -16 0
v -176 0 0
v -160 0 0
v -176 -16 0
v -192 -16 0
v -192 0 0
v -176 0 0
v -192 -16 0
v -208 -16 0
v -208 0 0
v -192 0 0
v -208 -16 0
v -224 -16 0
v -224 0 0
v -208 0 0
v -224 -16 0
v -240 -16 0
v -240 0 0
v -224 0 0
v -240 -16 0
v -256 -16 0
v -256 0 0
v -240 0 0
v -80 -32 0
v -96 -32 0
v -96 -16 0
v -80 -16 0
v -80 -48 0
v -96 -48 0
v -96 -32 0
v -80 -32 0
v -80 -64 0
v -96 -64 0
v -96 -48 0
v -80 -48 0
v -80 -80 0
v -96 -80 0
v -96 -64 0
v -80 -64 0
v -80 -96 0
v -96 -96 0
v -96 -80 0
v -80 -80 0
v -80 -112 0
v -96 -112 0
v -96 -96 0
v -80 -96 0
v -80 -128 0
v -96 -128 0
v -96 -112 0
v -80 -112 0
v -80 -144 0
v -96 -144 0
v -96 -128 0
v -80 -128 0
v -80 -160 0
v -96 -160 0
v -96 -144 0
v -80 -144 0
v -80 -176 0
v -96 -176 0
v -96 -160 0
v -80 -160 0
v -80 -192 0
v -96 -192 0
v -96 -176 0
v -80 -176 0
v -80 -208 0
v -96 -208 0
v -96 -192 0
v -80 -192 0

# Texture cooridinates (Count = 11)
vt 0.28 0.28
vt 0.32 0.28
vt 0.32 0.32
vt 0.28 0.32
vt 0.32 0.24
vt 0.36 0.24
vt 0.36 0.28
vt 0.4 0.24
vt 0.44 0.24
vt 0.44 0.28
vt 0.4 0.28

# Normal
vn 0 0 -1

# Mesh description
g Level2_mesh_0280

# Faces
f 1/1/1 2/2/1 3/3/1 4/4/1
f 5/5/1 6/6/1 7/7/1 8/2/1
f 9/8/1 10/9/1 11/10/1 12/11/1
f 13/5/1 14/6/1 15/7/1 16/2/1
f 17/5/1 18/6/1 19/7/1 20/2/1
f 21/5/1 22/6/1 23/7/1 24/2/1
f 25/5/1 26/6/1 27/7/1 28/2/1
f 29/8/1 30/9/1 31/10/1 32/11/1
f 33/5/1 34/6/1 35/7/1 36/2/1
f 37/5/1 38/6/1 39/7/1 40/2/1
f 41/5/1 42/6/1 43/7/1 44/2/1
f 45/1/1 46/2/1 47/3/1 48/4/1
f 49/1/1 50/2/1 51/3/1 52/4/1
f 53/1/1 54/2/1 55/3/1 56/4/1
f 57/1/1 58/2/1 59/3/1 60/4/1
f 61/1/1 62/2/1 63/3/1 64/4/1
f 65/1/1 66/2/1 67/3/1 68/4/1
f 69/1/1 70/2/1 71/3/1 72/4/1
f 73/1/1 74/2/1 75/3/1 76/4/1
f 77/1/1 78/2/1 79/3/1 80/4/1
f 81/1/1 82/2/1 83/3/1 84/4/1
f 85/1/1 86/2/1 87/3/1 88/4/1
f 89/1/1 90/2/1 91/3/1 92/4/1

