# Tiled2Unity generated file. Do not modify by hand.
# Wavefront file for 'Level2_mesh_0245.obj'

# Vertices (Count = 24)
v -32 -144 0
v -48 -144 0
v -48 -128 0
v -32 -128 0
v -32 -160 0
v -48 -160 0
v -48 -144 0
v -32 -144 0
v -176 -240 0
v -192 -240 0
v -192 -224 0
v -176 -224 0
v -192 -240 0
v -208 -240 0
v -208 -224 0
v -192 -224 0
v -176 -256 0
v -192 -256 0
v -192 -240 0
v -176 -240 0
v -192 -256 0
v -208 -256 0
v -208 -240 0
v -192 -240 0

# Texture cooridinates (Count = 15)
vt 0.24 0.92
vt 0.28 0.92
vt 0.28 0.96
vt 0.24 0.96
vt 0.24 0.88
vt 0.28 0.88
vt 0.2 0.52
vt 0.24 0.52
vt 0.24 0.56
vt 0.2 0.56
vt 0.28 0.52
vt 0.28 0.56
vt 0.2 0.48
vt 0.24 0.48
vt 0.28 0.48

# Normal
vn 0 0 -1

# Mesh description
g Level2_mesh_0245

# Faces
f 1/1/1 2/2/1 3/3/1 4/4/1
f 5/5/1 6/6/1 7/2/1 8/1/1
f 9/7/1 10/8/1 11/9/1 12/10/1
f 13/8/1 14/11/1 15/12/1 16/9/1
f 17/13/1 18/14/1 19/8/1 20/7/1
f 21/14/1 22/15/1 23/11/1 24/8/1

