# Tiled2Unity generated file. Do not modify by hand.
# Wavefront file for 'Level2_mesh_0295.obj'

# Vertices (Count = 76)
v -48 -16 0
v -64 -16 0
v -64 0 0
v -48 0 0
v -144 -16 0
v -160 -16 0
v -160 0 0
v -144 0 0
v -224 -16 0
v -240 -16 0
v -240 0 0
v -224 0 0
v -240 -16 0
v -256 -16 0
v -256 0 0
v -240 0 0
v 0 -32 0
v -16 -32 0
v -16 -16 0
v 0 -16 0
v -16 -32 0
v -32 -32 0
v -32 -16 0
v -16 -16 0
v -32 -32 0
v -48 -32 0
v -48 -16 0
v -32 -16 0
v -48 -32 0
v -64 -32 0
v -64 -16 0
v -48 -16 0
v -144 -32 0
v -160 -32 0
v -160 -16 0
v -144 -16 0
v -144 -48 0
v -160 -48 0
v -160 -32 0
v -144 -32 0
v -144 -64 0
v -160 -64 0
v -160 -48 0
v -144 -48 0
v -144 -80 0
v -160 -80 0
v -160 -64 0
v -144 -64 0
v -144 -96 0
v -160 -96 0
v -160 -80 0
v -144 -80 0
v -160 -96 0
v -176 -96 0
v -176 -80 0
v -160 -80 0
v -176 -96 0
v -192 -96 0
v -192 -80 0
v -176 -80 0
v -192 -96 0
v -208 -96 0
v -208 -80 0
v -192 -80 0
v -208 -96 0
v -224 -96 0
v -224 -80 0
v -208 -80 0
v -224 -96 0
v -240 -96 0
v -240 -80 0
v -224 -80 0
v -240 -96 0
v -256 -96 0
v -256 -80 0
v -240 -80 0

# Texture cooridinates (Count = 30)
vt 0 0.32
vt 0.04 0.32
vt 0.04 0.36
vt 0 0.36
vt 0.2 0.16
vt 0.16 0.16
vt 0.16 0.2
vt 0.2 0.2
vt 0.04 0.24
vt 0.08 0.24
vt 0.08 0.28
vt 0.04 0.28
vt 0.12 0.24
vt 0.12 0.28
vt 0.08 0.4
vt 0.12 0.4
vt 0.12 0.44
vt 0.08 0.44
vt 0.08 0.36
vt 0.04 0.4
vt 0.16 0.32
vt 0.2 0.32
vt 0.2 0.36
vt 0.16 0.36
vt 0.12 0.36
vt 0.16 0.4
vt 0.16 0.24
vt 0.2 0.24
vt 0.2 0.28
vt 0.16 0.28

# Normal
vn 0 0 -1

# Mesh description
g Level2_mesh_0295

# Faces
f 1/1/1 2/2/1 3/3/1 4/4/1
f 5/5/1 6/6/1 7/7/1 8/8/1
f 9/9/1 10/10/1 11/11/1 12/12/1
f 13/10/1 14/13/1 15/14/1 16/11/1
f 17/15/1 18/16/1 19/17/1 20/18/1
f 21/15/1 22/16/1 23/17/1 24/18/1
f 25/15/1 26/16/1 27/17/1 28/18/1
f 29/3/1 30/19/1 31/15/1 32/20/1
f 33/21/1 34/22/1 35/23/1 36/24/1
f 37/21/1 38/22/1 39/23/1 40/24/1
f 41/21/1 42/22/1 43/23/1 44/24/1
f 45/21/1 46/22/1 47/23/1 48/24/1
f 49/25/1 50/24/1 51/26/1 52/16/1
f 53/15/1 54/16/1 55/17/1 56/18/1
f 57/15/1 58/16/1 59/17/1 60/18/1
f 61/15/1 62/16/1 63/17/1 64/18/1
f 65/27/1 66/28/1 67/29/1 68/30/1
f 69/15/1 70/16/1 71/17/1 72/18/1
f 73/15/1 74/16/1 75/17/1 76/18/1

