# Tiled2Unity generated file. Do not modify by hand.
# Wavefront file for 'Level2_mesh_0050.obj'

# Vertices (Count = 380)
v -32 -80 0
v -48 -80 0
v -48 -64 0
v -32 -64 0
v -48 -80 0
v -64 -80 0
v -64 -64 0
v -48 -64 0
v -64 -80 0
v -80 -80 0
v -80 -64 0
v -64 -64 0
v -80 -80 0
v -96 -80 0
v -96 -64 0
v -80 -64 0
v -96 -80 0
v -112 -80 0
v -112 -64 0
v -96 -64 0
v -32 -96 0
v -48 -96 0
v -48 -80 0
v -32 -80 0
v -48 -96 0
v -64 -96 0
v -64 -80 0
v -48 -80 0
v -64 -96 0
v -80 -96 0
v -80 -80 0
v -64 -80 0
v -80 -96 0
v -96 -96 0
v -96 -80 0
v -80 -80 0
v -96 -96 0
v -112 -96 0
v -112 -80 0
v -96 -80 0
v -32 -112 0
v -48 -112 0
v -48 -96 0
v -32 -96 0
v -48 -112 0
v -64 -112 0
v -64 -96 0
v -48 -96 0
v -64 -112 0
v -80 -112 0
v -80 -96 0
v -64 -96 0
v -80 -112 0
v -96 -112 0
v -96 -96 0
v -80 -96 0
v -96 -112 0
v -112 -112 0
v -112 -96 0
v -96 -96 0
v -112 -112 0
v -128 -112 0
v -128 -96 0
v -112 -96 0
v -128 -112 0
v -144 -112 0
v -144 -96 0
v -128 -96 0
v -144 -112 0
v -160 -112 0
v -160 -96 0
v -144 -96 0
v -160 -112 0
v -176 -112 0
v -176 -96 0
v -160 -96 0
v -176 -112 0
v -192 -112 0
v -192 -96 0
v -176 -96 0
v -32 -128 0
v -48 -128 0
v -48 -112 0
v -32 -112 0
v -48 -128 0
v -64 -128 0
v -64 -112 0
v -48 -112 0
v -64 -128 0
v -80 -128 0
v -80 -112 0
v -64 -112 0
v -80 -128 0
v -96 -128 0
v -96 -112 0
v -80 -112 0
v -96 -128 0
v -112 -128 0
v -112 -112 0
v -96 -112 0
v -112 -128 0
v -128 -128 0
v -128 -112 0
v -112 -112 0
v -128 -128 0
v -144 -128 0
v -144 -112 0
v -128 -112 0
v -144 -128 0
v -160 -128 0
v -160 -112 0
v -144 -112 0
v -160 -128 0
v -176 -128 0
v -176 -112 0
v -160 -112 0
v -176 -128 0
v -192 -128 0
v -192 -112 0
v -176 -112 0
v -192 -128 0
v -208 -128 0
v -208 -112 0
v -192 -112 0
v -208 -128 0
v -224 -128 0
v -224 -112 0
v -208 -112 0
v -224 -128 0
v -240 -128 0
v -240 -112 0
v -224 -112 0
v -240 -128 0
v -256 -128 0
v -256 -112 0
v -240 -112 0
v -32 -144 0
v -48 -144 0
v -48 -128 0
v -32 -128 0
v -48 -144 0
v -64 -144 0
v -64 -128 0
v -48 -128 0
v -64 -144 0
v -80 -144 0
v -80 -128 0
v -64 -128 0
v -80 -144 0
v -96 -144 0
v -96 -128 0
v -80 -128 0
v -96 -144 0
v -112 -144 0
v -112 -128 0
v -96 -128 0
v -112 -144 0
v -128 -144 0
v -128 -128 0
v -112 -128 0
v -128 -144 0
v -144 -144 0
v -144 -128 0
v -128 -128 0
v -144 -144 0
v -160 -144 0
v -160 -128 0
v -144 -128 0
v -160 -144 0
v -176 -144 0
v -176 -128 0
v -160 -128 0
v -176 -144 0
v -192 -144 0
v -192 -128 0
v -176 -128 0
v -192 -144 0
v -208 -144 0
v -208 -128 0
v -192 -128 0
v -208 -144 0
v -224 -144 0
v -224 -128 0
v -208 -128 0
v -224 -144 0
v -240 -144 0
v -240 -128 0
v -224 -128 0
v -240 -144 0
v -256 -144 0
v -256 -128 0
v -240 -128 0
v -32 -160 0
v -48 -160 0
v -48 -144 0
v -32 -144 0
v -48 -160 0
v -64 -160 0
v -64 -144 0
v -48 -144 0
v -64 -160 0
v -80 -160 0
v -80 -144 0
v -64 -144 0
v -80 -160 0
v -96 -160 0
v -96 -144 0
v -80 -144 0
v -96 -160 0
v -112 -160 0
v -112 -144 0
v -96 -144 0
v -112 -160 0
v -128 -160 0
v -128 -144 0
v -112 -144 0
v -128 -160 0
v -144 -160 0
v -144 -144 0
v -128 -144 0
v -144 -160 0
v -160 -160 0
v -160 -144 0
v -144 -144 0
v -160 -160 0
v -176 -160 0
v -176 -144 0
v -160 -144 0
v -176 -160 0
v -192 -160 0
v -192 -144 0
v -176 -144 0
v -192 -160 0
v -208 -160 0
v -208 -144 0
v -192 -144 0
v -208 -160 0
v -224 -160 0
v -224 -144 0
v -208 -144 0
v -224 -160 0
v -240 -160 0
v -240 -144 0
v -224 -144 0
v -240 -160 0
v -256 -160 0
v -256 -144 0
v -240 -144 0
v 0 -176 0
v -16 -176 0
v -16 -160 0
v 0 -160 0
v -16 -176 0
v -32 -176 0
v -32 -160 0
v -16 -160 0
v -32 -176 0
v -48 -176 0
v -48 -160 0
v -32 -160 0
v -48 -176 0
v -64 -176 0
v -64 -160 0
v -48 -160 0
v -64 -176 0
v -80 -176 0
v -80 -160 0
v -64 -160 0
v -80 -176 0
v -96 -176 0
v -96 -160 0
v -80 -160 0
v -176 -176 0
v -192 -176 0
v -192 -160 0
v -176 -160 0
v -192 -176 0
v -208 -176 0
v -208 -160 0
v -192 -160 0
v -208 -176 0
v -224 -176 0
v -224 -160 0
v -208 -160 0
v -224 -176 0
v -240 -176 0
v -240 -160 0
v -224 -160 0
v -240 -176 0
v -256 -176 0
v -256 -160 0
v -240 -160 0
v 0 -192 0
v -16 -192 0
v -16 -176 0
v 0 -176 0
v -16 -192 0
v -32 -192 0
v -32 -176 0
v -16 -176 0
v -32 -192 0
v -48 -192 0
v -48 -176 0
v -32 -176 0
v -48 -192 0
v -64 -192 0
v -64 -176 0
v -48 -176 0
v -64 -192 0
v -80 -192 0
v -80 -176 0
v -64 -176 0
v -80 -192 0
v -96 -192 0
v -96 -176 0
v -80 -176 0
v -176 -192 0
v -192 -192 0
v -192 -176 0
v -176 -176 0
v -192 -192 0
v -208 -192 0
v -208 -176 0
v -192 -176 0
v -208 -192 0
v -224 -192 0
v -224 -176 0
v -208 -176 0
v -224 -192 0
v -240 -192 0
v -240 -176 0
v -224 -176 0
v -240 -192 0
v -256 -192 0
v -256 -176 0
v -240 -176 0
v 0 -208 0
v -16 -208 0
v -16 -192 0
v 0 -192 0
v -16 -208 0
v -32 -208 0
v -32 -192 0
v -16 -192 0
v -32 -208 0
v -48 -208 0
v -48 -192 0
v -32 -192 0
v -48 -208 0
v -64 -208 0
v -64 -192 0
v -48 -192 0
v -64 -208 0
v -80 -208 0
v -80 -192 0
v -64 -192 0
v -80 -208 0
v -96 -208 0
v -96 -192 0
v -80 -192 0
v -176 -208 0
v -192 -208 0
v -192 -192 0
v -176 -192 0
v -192 -208 0
v -208 -208 0
v -208 -192 0
v -192 -192 0
v -208 -208 0
v -224 -208 0
v -224 -192 0
v -208 -192 0
v -224 -208 0
v -240 -208 0
v -240 -192 0
v -224 -192 0
v -240 -208 0
v -256 -208 0
v -256 -192 0
v -240 -192 0

# Texture cooridinates (Count = 92)
vt 0.3846154 0.07999998
vt 0.3846154 0.12
vt 0.3076923 0.12
vt 0.3076923 0.07999998
vt 0.3846154 0.16
vt 0.3076923 0.16
vt 0.3846154 0.2
vt 0.3076923 0.2
vt 0.3846154 0.24
vt 0.3076923 0.24
vt 0.3846154 0.28
vt 0.3076923 0.28
vt 0.4615385 0.07999998
vt 0.4615385 0.12
vt 0.4615385 0.16
vt 0.4615385 0.2
vt 0.4615385 0.24
vt 0.4615385 0.28
vt 0.5384616 0.07999998
vt 0.5384616 0.12
vt 0.5384616 0.16
vt 0.5384616 0.2
vt 0.5384616 0.24
vt 0.5384616 0.28
vt 0.5384616 0.32
vt 0.4615385 0.32
vt 0.5384616 0.36
vt 0.4615385 0.36
vt 0.5384616 0.4
vt 0.4615385 0.4
vt 0.5384616 0.44
vt 0.4615385 0.44
vt 0.5384616 0.48
vt 0.4615385 0.48
vt 0.6153846 0.07999998
vt 0.6153846 0.12
vt 0.6153846 0.16
vt 0.6153846 0.2
vt 0.6153846 0.24
vt 0.6153846 0.28
vt 0.6153846 0.32
vt 0.6153846 0.36
vt 0.6153846 0.4
vt 0.6153846 0.44
vt 0.6923077 0.07999998
vt 0.6923077 0.12
vt 0.6923077 0.16
vt 0.6923077 0.2
vt 0.6923077 0.24
vt 0.6923077 0.28
vt 0.6923077 0.32
vt 0.6923077 0.36
vt 0.6923077 0.4
vt 0.6923077 0.44
vt 0.7692308 0.07999998
vt 0.7692308 0.12
vt 0.7692308 0.16
vt 0.7692308 0.2
vt 0.7692308 0.24
vt 0.7692308 0.28
vt 0.7692308 0.32
vt 0.7692308 0.36
vt 0.7692308 0.4
vt 0.7692308 0.44
vt 0.07692308 0.2
vt 0.07692308 0.24
vt 0 0.24
vt 0 0.2
vt 0.07692308 0.28
vt 0 0.28
vt 0.07692308 0.32
vt 0 0.32
vt 0.07692308 0.36
vt 0 0.36
vt 0.07692308 0.4
vt 0 0.4
vt 0.07692308 0.44
vt 0 0.44
vt 0.1538462 0.2
vt 0.1538462 0.24
vt 0.1538462 0.28
vt 0.1538462 0.32
vt 0.1538462 0.36
vt 0.1538462 0.4
vt 0.1538462 0.44
vt 0.2307692 0.2
vt 0.2307692 0.24
vt 0.2307692 0.28
vt 0.2307692 0.32
vt 0.2307692 0.36
vt 0.2307692 0.4
vt 0.2307692 0.44

# Normal
vn 0 0 -1

# Mesh description
g Level2_mesh_0050

# Faces
f 1/1/1 2/2/1 3/3/1 4/4/1
f 5/2/1 6/5/1 7/6/1 8/3/1
f 9/5/1 10/7/1 11/8/1 12/6/1
f 13/7/1 14/9/1 15/10/1 16/8/1
f 17/9/1 18/11/1 19/12/1 20/10/1
f 21/13/1 22/14/1 23/2/1 24/1/1
f 25/14/1 26/15/1 27/5/1 28/2/1
f 29/15/1 30/16/1 31/7/1 32/5/1
f 33/16/1 34/17/1 35/9/1 36/7/1
f 37/17/1 38/18/1 39/11/1 40/9/1
f 41/19/1 42/20/1 43/14/1 44/13/1
f 45/20/1 46/21/1 47/15/1 48/14/1
f 49/21/1 50/22/1 51/16/1 52/15/1
f 53/22/1 54/23/1 55/17/1 56/16/1
f 57/23/1 58/24/1 59/18/1 60/17/1
f 61/24/1 62/25/1 63/26/1 64/18/1
f 65/25/1 66/27/1 67/28/1 68/26/1
f 69/27/1 70/29/1 71/30/1 72/28/1
f 73/29/1 74/31/1 75/32/1 76/30/1
f 77/31/1 78/33/1 79/34/1 80/32/1
f 81/35/1 82/36/1 83/20/1 84/19/1
f 85/36/1 86/37/1 87/21/1 88/20/1
f 89/37/1 90/38/1 91/22/1 92/21/1
f 93/38/1 94/39/1 95/23/1 96/22/1
f 97/39/1 98/40/1 99/24/1 100/23/1
f 101/40/1 102/41/1 103/25/1 104/24/1
f 105/41/1 106/42/1 107/27/1 108/25/1
f 109/42/1 110/43/1 111/29/1 112/27/1
f 113/43/1 114/44/1 115/31/1 116/29/1
f 117/1/1 118/2/1 119/3/1 120/4/1
f 121/2/1 122/5/1 123/6/1 124/3/1
f 125/5/1 126/7/1 127/8/1 128/6/1
f 129/7/1 130/9/1 131/10/1 132/8/1
f 133/9/1 134/11/1 135/12/1 136/10/1
f 137/45/1 138/46/1 139/36/1 140/35/1
f 141/46/1 142/47/1 143/37/1 144/36/1
f 145/47/1 146/48/1 147/38/1 148/37/1
f 149/48/1 150/49/1 151/39/1 152/38/1
f 153/49/1 154/50/1 155/40/1 156/39/1
f 157/50/1 158/51/1 159/41/1 160/40/1
f 161/51/1 162/52/1 163/42/1 164/41/1
f 165/52/1 166/53/1 167/43/1 168/42/1
f 169/53/1 170/54/1 171/44/1 172/43/1
f 173/13/1 174/14/1 175/2/1 176/1/1
f 177/14/1 178/15/1 179/5/1 180/2/1
f 181/15/1 182/16/1 183/7/1 184/5/1
f 185/16/1 186/17/1 187/9/1 188/7/1
f 189/17/1 190/18/1 191/11/1 192/9/1
f 193/55/1 194/56/1 195/46/1 196/45/1
f 197/56/1 198/57/1 199/47/1 200/46/1
f 201/57/1 202/58/1 203/48/1 204/47/1
f 205/58/1 206/59/1 207/49/1 208/48/1
f 209/59/1 210/60/1 211/50/1 212/49/1
f 213/60/1 214/61/1 215/51/1 216/50/1
f 217/61/1 218/62/1 219/52/1 220/51/1
f 221/62/1 222/63/1 223/53/1 224/52/1
f 225/63/1 226/64/1 227/54/1 228/53/1
f 229/19/1 230/20/1 231/14/1 232/13/1
f 233/20/1 234/21/1 235/15/1 236/14/1
f 237/21/1 238/22/1 239/16/1 240/15/1
f 241/22/1 242/23/1 243/17/1 244/16/1
f 245/23/1 246/24/1 247/18/1 248/17/1
f 249/65/1 250/66/1 251/67/1 252/68/1
f 253/66/1 254/69/1 255/70/1 256/67/1
f 257/69/1 258/71/1 259/72/1 260/70/1
f 261/71/1 262/73/1 263/74/1 264/72/1
f 265/73/1 266/75/1 267/76/1 268/74/1
f 269/75/1 270/77/1 271/78/1 272/76/1
f 273/35/1 274/36/1 275/20/1 276/19/1
f 277/36/1 278/37/1 279/21/1 280/20/1
f 281/37/1 282/38/1 283/22/1 284/21/1
f 285/38/1 286/39/1 287/23/1 288/22/1
f 289/39/1 290/40/1 291/24/1 292/23/1
f 293/79/1 294/80/1 295/66/1 296/65/1
f 297/80/1 298/81/1 299/69/1 300/66/1
f 301/81/1 302/82/1 303/71/1 304/69/1
f 305/82/1 306/83/1 307/73/1 308/71/1
f 309/83/1 310/84/1 311/75/1 312/73/1
f 313/84/1 314/85/1 315/77/1 316/75/1
f 317/45/1 318/46/1 319/36/1 320/35/1
f 321/46/1 322/47/1 323/37/1 324/36/1
f 325/47/1 326/48/1 327/38/1 328/37/1
f 329/48/1 330/49/1 331/39/1 332/38/1
f 333/49/1 334/50/1 335/40/1 336/39/1
f 337/86/1 338/87/1 339/80/1 340/79/1
f 341/87/1 342/88/1 343/81/1 344/80/1
f 345/88/1 346/89/1 347/82/1 348/81/1
f 349/89/1 350/90/1 351/83/1 352/82/1
f 353/90/1 354/91/1 355/84/1 356/83/1
f 357/91/1 358/92/1 359/85/1 360/84/1
f 361/55/1 362/56/1 363/46/1 364/45/1
f 365/56/1 366/57/1 367/47/1 368/46/1
f 369/57/1 370/58/1 371/48/1 372/47/1
f 373/58/1 374/59/1 375/49/1 376/48/1
f 377/59/1 378/60/1 379/50/1 380/49/1

