# Tiled2Unity generated file. Do not modify by hand.
# Wavefront file for 'Level2_mesh_0279.obj'

# Vertices (Count = 12)
v -208 -16 0
v -224 -16 0
v -224 0 0
v -208 0 0
v -224 -16 0
v -240 -16 0
v -240 0 0
v -224 0 0
v -240 -16 0
v -256 -16 0
v -256 0 0
v -240 0 0

# Texture cooridinates (Count = 4)
vt 0.08 0.4
vt 0.12 0.4
vt 0.12 0.44
vt 0.08 0.44

# Normal
vn 0 0 -1

# Mesh description
g Level2_mesh_0279

# Faces
f 1/1/1 2/2/1 3/3/1 4/4/1
f 5/1/1 6/2/1 7/3/1 8/4/1
f 9/1/1 10/2/1 11/3/1 12/4/1

