# Tiled2Unity generated file. Do not modify by hand.
# Wavefront file for 'Level2_mesh_0136.obj'

# Vertices (Count = 56)
v -144 -16 0
v -160 -16 0
v -160 0 0
v -144 0 0
v -160 -16 0
v -176 -16 0
v -176 0 0
v -160 0 0
v -176 -16 0
v -192 -16 0
v -192 0 0
v -176 0 0
v -192 -16 0
v -208 -16 0
v -208 0 0
v -192 0 0
v -208 -16 0
v -224 -16 0
v -224 0 0
v -208 0 0
v -224 -16 0
v -240 -16 0
v -240 0 0
v -224 0 0
v -240 -16 0
v -256 -16 0
v -256 0 0
v -240 0 0
v -144 -32 0
v -160 -32 0
v -160 -16 0
v -144 -16 0
v -160 -32 0
v -176 -32 0
v -176 -16 0
v -160 -16 0
v -176 -32 0
v -192 -32 0
v -192 -16 0
v -176 -16 0
v -192 -32 0
v -208 -32 0
v -208 -16 0
v -192 -16 0
v -208 -32 0
v -224 -32 0
v -224 -16 0
v -208 -16 0
v -224 -32 0
v -240 -32 0
v -240 -16 0
v -224 -16 0
v -240 -32 0
v -256 -32 0
v -256 -16 0
v -240 -16 0

# Texture cooridinates (Count = 18)
vt 0.08695652 0.5714285
vt 0.1304348 0.5714285
vt 0.1304348 0.6428571
vt 0.08695652 0.6428571
vt 0.1304348 0.5
vt 0.173913 0.5
vt 0.173913 0.5714285
vt 0.1304348 0.4285714
vt 0.173913 0.4285714
vt 0 0.5
vt 0.04347826 0.5
vt 0.04347826 0.5714285
vt 0 0.5714285
vt 0 0.4285714
vt 0.04347826 0.4285714
vt 0.04347826 0.6428571
vt 0.08695652 0.7142857
vt 0.04347826 0.7142857

# Normal
vn 0 0 -1

# Mesh description
g Level2_mesh_0136

# Faces
f 1/1/1 2/2/1 3/3/1 4/4/1
f 5/5/1 6/6/1 7/7/1 8/2/1
f 9/8/1 10/9/1 11/6/1 12/5/1
f 13/10/1 14/11/1 15/12/1 16/13/1
f 17/1/1 18/2/1 19/3/1 20/4/1
f 21/14/1 22/15/1 23/11/1 24/10/1
f 25/10/1 26/11/1 27/12/1 28/13/1
f 29/10/1 30/11/1 31/12/1 32/13/1
f 33/8/1 34/9/1 35/6/1 36/5/1
f 37/16/1 38/4/1 39/17/1 40/18/1
f 41/8/1 42/9/1 43/6/1 44/5/1
f 45/16/1 46/4/1 47/17/1 48/18/1
f 49/16/1 50/4/1 51/17/1 52/18/1
f 53/16/1 54/4/1 55/17/1 56/18/1

