# Tiled2Unity generated file. Do not modify by hand.
# Wavefront file for 'Level2_mesh_0291.obj'

# Vertices (Count = 44)
v -64 -16 0
v -80 -16 0
v -80 0 0
v -64 0 0
v -144 -16 0
v -160 -16 0
v -160 0 0
v -144 0 0
v -224 -16 0
v -240 -16 0
v -240 0 0
v -224 0 0
v -64 -32 0
v -80 -32 0
v -80 -16 0
v -64 -16 0
v -80 -32 0
v -96 -32 0
v -96 -16 0
v -80 -16 0
v -96 -32 0
v -112 -32 0
v -112 -16 0
v -96 -16 0
v -112 -32 0
v -128 -32 0
v -128 -16 0
v -112 -16 0
v -128 -32 0
v -144 -32 0
v -144 -16 0
v -128 -16 0
v -144 -32 0
v -160 -32 0
v -160 -16 0
v -144 -16 0
v -224 -32 0
v -240 -32 0
v -240 -16 0
v -224 -16 0
v -240 -32 0
v -256 -32 0
v -256 -16 0
v -240 -16 0

# Texture cooridinates (Count = 16)
vt 0.16 0.32
vt 0.2 0.32
vt 0.2 0.36
vt 0.16 0.36
vt 0 0.32
vt 0.04 0.32
vt 0.04 0.36
vt 0 0.36
vt 0.12 0.36
vt 0.16 0.4
vt 0.12 0.4
vt 0.08 0.4
vt 0.12 0.44
vt 0.08 0.44
vt 0.08 0.36
vt 0.04 0.4

# Normal
vn 0 0 -1

# Mesh description
g Level2_mesh_0291

# Faces
f 1/1/1 2/2/1 3/3/1 4/4/1
f 5/5/1 6/6/1 7/7/1 8/8/1
f 9/1/1 10/2/1 11/3/1 12/4/1
f 13/9/1 14/4/1 15/10/1 16/11/1
f 17/12/1 18/11/1 19/13/1 20/14/1
f 21/12/1 22/11/1 23/13/1 24/14/1
f 25/12/1 26/11/1 27/13/1 28/14/1
f 29/12/1 30/11/1 31/13/1 32/14/1
f 33/7/1 34/15/1 35/12/1 36/16/1
f 37/9/1 38/4/1 39/10/1 40/11/1
f 41/12/1 42/11/1 43/13/1 44/14/1

