# Tiled2Unity generated file. Do not modify by hand.
# Wavefront file for 'Level2_mesh_0050.obj'

# Vertices (Count = 324)
v -48 -80 0
v -64 -80 0
v -64 -64 0
v -48 -64 0
v -64 -80 0
v -80 -80 0
v -80 -64 0
v -64 -64 0
v -80 -80 0
v -96 -80 0
v -96 -64 0
v -80 -64 0
v -96 -80 0
v -112 -80 0
v -112 -64 0
v -96 -64 0
v -112 -80 0
v -128 -80 0
v -128 -64 0
v -112 -64 0
v -128 -80 0
v -144 -80 0
v -144 -64 0
v -128 -64 0
v -144 -80 0
v -160 -80 0
v -160 -64 0
v -144 -64 0
v -160 -80 0
v -176 -80 0
v -176 -64 0
v -160 -64 0
v -176 -80 0
v -192 -80 0
v -192 -64 0
v -176 -64 0
v -192 -80 0
v -208 -80 0
v -208 -64 0
v -192 -64 0
v -208 -80 0
v -224 -80 0
v -224 -64 0
v -208 -64 0
v -48 -96 0
v -64 -96 0
v -64 -80 0
v -48 -80 0
v -64 -96 0
v -80 -96 0
v -80 -80 0
v -64 -80 0
v -80 -96 0
v -96 -96 0
v -96 -80 0
v -80 -80 0
v -96 -96 0
v -112 -96 0
v -112 -80 0
v -96 -80 0
v -112 -96 0
v -128 -96 0
v -128 -80 0
v -112 -80 0
v -128 -96 0
v -144 -96 0
v -144 -80 0
v -128 -80 0
v -144 -96 0
v -160 -96 0
v -160 -80 0
v -144 -80 0
v -160 -96 0
v -176 -96 0
v -176 -80 0
v -160 -80 0
v -176 -96 0
v -192 -96 0
v -192 -80 0
v -176 -80 0
v -192 -96 0
v -208 -96 0
v -208 -80 0
v -192 -80 0
v -208 -96 0
v -224 -96 0
v -224 -80 0
v -208 -80 0
v -48 -112 0
v -64 -112 0
v -64 -96 0
v -48 -96 0
v -64 -112 0
v -80 -112 0
v -80 -96 0
v -64 -96 0
v -80 -112 0
v -96 -112 0
v -96 -96 0
v -80 -96 0
v -96 -112 0
v -112 -112 0
v -112 -96 0
v -96 -96 0
v -112 -112 0
v -128 -112 0
v -128 -96 0
v -112 -96 0
v -128 -112 0
v -144 -112 0
v -144 -96 0
v -128 -96 0
v -144 -112 0
v -160 -112 0
v -160 -96 0
v -144 -96 0
v -160 -112 0
v -176 -112 0
v -176 -96 0
v -160 -96 0
v -176 -112 0
v -192 -112 0
v -192 -96 0
v -176 -96 0
v -192 -112 0
v -208 -112 0
v -208 -96 0
v -192 -96 0
v -208 -112 0
v -224 -112 0
v -224 -96 0
v -208 -96 0
v -176 -176 0
v -192 -176 0
v -192 -160 0
v -176 -160 0
v -192 -176 0
v -208 -176 0
v -208 -160 0
v -192 -160 0
v -208 -176 0
v -224 -176 0
v -224 -160 0
v -208 -160 0
v -224 -176 0
v -240 -176 0
v -240 -160 0
v -224 -160 0
v -240 -176 0
v -256 -176 0
v -256 -160 0
v -240 -160 0
v 0 -192 0
v -16 -192 0
v -16 -176 0
v 0 -176 0
v -16 -192 0
v -32 -192 0
v -32 -176 0
v -16 -176 0
v -32 -192 0
v -48 -192 0
v -48 -176 0
v -32 -176 0
v -48 -192 0
v -64 -192 0
v -64 -176 0
v -48 -176 0
v -64 -192 0
v -80 -192 0
v -80 -176 0
v -64 -176 0
v -80 -192 0
v -96 -192 0
v -96 -176 0
v -80 -176 0
v -96 -192 0
v -112 -192 0
v -112 -176 0
v -96 -176 0
v -112 -192 0
v -128 -192 0
v -128 -176 0
v -112 -176 0
v -128 -192 0
v -144 -192 0
v -144 -176 0
v -128 -176 0
v -144 -192 0
v -160 -192 0
v -160 -176 0
v -144 -176 0
v -160 -192 0
v -176 -192 0
v -176 -176 0
v -160 -176 0
v -176 -192 0
v -192 -192 0
v -192 -176 0
v -176 -176 0
v -192 -192 0
v -208 -192 0
v -208 -176 0
v -192 -176 0
v -208 -192 0
v -224 -192 0
v -224 -176 0
v -208 -176 0
v -224 -192 0
v -240 -192 0
v -240 -176 0
v -224 -176 0
v -240 -192 0
v -256 -192 0
v -256 -176 0
v -240 -176 0
v 0 -208 0
v -16 -208 0
v -16 -192 0
v 0 -192 0
v -16 -208 0
v -32 -208 0
v -32 -192 0
v -16 -192 0
v -32 -208 0
v -48 -208 0
v -48 -192 0
v -32 -192 0
v -48 -208 0
v -64 -208 0
v -64 -192 0
v -48 -192 0
v -64 -208 0
v -80 -208 0
v -80 -192 0
v -64 -192 0
v -80 -208 0
v -96 -208 0
v -96 -192 0
v -80 -192 0
v -96 -208 0
v -112 -208 0
v -112 -192 0
v -96 -192 0
v -112 -208 0
v -128 -208 0
v -128 -192 0
v -112 -192 0
v -128 -208 0
v -144 -208 0
v -144 -192 0
v -128 -192 0
v -144 -208 0
v -160 -208 0
v -160 -192 0
v -144 -192 0
v -160 -208 0
v -176 -208 0
v -176 -192 0
v -160 -192 0
v -224 -208 0
v -240 -208 0
v -240 -192 0
v -224 -192 0
v -240 -208 0
v -256 -208 0
v -256 -192 0
v -240 -192 0
v 0 -224 0
v -16 -224 0
v -16 -208 0
v 0 -208 0
v -16 -224 0
v -32 -224 0
v -32 -208 0
v -16 -208 0
v -32 -224 0
v -48 -224 0
v -48 -208 0
v -32 -208 0
v -48 -224 0
v -64 -224 0
v -64 -208 0
v -48 -208 0
v -64 -224 0
v -80 -224 0
v -80 -208 0
v -64 -208 0
v -80 -224 0
v -96 -224 0
v -96 -208 0
v -80 -208 0
v -96 -224 0
v -112 -224 0
v -112 -208 0
v -96 -208 0
v -112 -224 0
v -128 -224 0
v -128 -208 0
v -112 -208 0
v -128 -224 0
v -144 -224 0
v -144 -208 0
v -128 -208 0
v -144 -224 0
v -160 -224 0
v -160 -208 0
v -144 -208 0
v -160 -224 0
v -176 -224 0
v -176 -208 0
v -160 -208 0
v 0 -240 0
v -16 -240 0
v -16 -224 0
v 0 -224 0
v -16 -240 0
v -32 -240 0
v -32 -224 0
v -16 -224 0
v -32 -240 0
v -48 -240 0
v -48 -224 0
v -32 -224 0

# Texture cooridinates (Count = 68)
vt 0.1538462 0.44
vt 0.1538462 0.4
vt 0.2307692 0.4
vt 0.2307692 0.44
vt 0.1538462 0.36
vt 0.2307692 0.36
vt 0.1538462 0.32
vt 0.2307692 0.32
vt 0.1538462 0.28
vt 0.2307692 0.28
vt 0.1538462 0.24
vt 0.2307692 0.24
vt 0.1538462 0.2
vt 0.2307692 0.2
vt 0.1538462 0.16
vt 0.2307692 0.16
vt 0.1538462 0.12
vt 0.2307692 0.12
vt 0.1538462 0.07999998
vt 0.2307692 0.07999998
vt 0.1538462 0.04000002
vt 0.2307692 0.04000002
vt 0.1538462 0
vt 0.2307692 0
vt 0.07692308 0.44
vt 0.07692308 0.4
vt 0.07692308 0.36
vt 0.07692308 0.32
vt 0.07692308 0.28
vt 0.07692308 0.24
vt 0.07692308 0.2
vt 0.07692308 0.16
vt 0.07692308 0.12
vt 0.07692308 0.07999998
vt 0.07692308 0.04000002
vt 0.07692308 0
vt 0 0.44
vt 0 0.4
vt 0 0.36
vt 0 0.32
vt 0 0.28
vt 0 0.24
vt 0 0.2
vt 0 0.16
vt 0 0.12
vt 0 0.07999998
vt 0 0.04000002
vt 0 0
vt 0.4615385 0.44
vt 0.5384616 0.44
vt 0.5384616 0.48
vt 0.4615385 0.48
vt 0.6153846 0.44
vt 0.6153846 0.48
vt 0.6923077 0.44
vt 0.6923077 0.48
vt 0.4615385 0.4
vt 0.5384616 0.4
vt 0.6153846 0.4
vt 0.6923077 0.4
vt 0.4615385 0.36
vt 0.5384616 0.36
vt 0.6153846 0.36
vt 0.6923077 0.36
vt 0.4615385 0.32
vt 0.5384616 0.32
vt 0.6153846 0.32
vt 0.6923077 0.32

# Normal
vn 0 0 -1

# Mesh description
g Level2_mesh_0050

# Faces
f 1/1/1 2/2/1 3/3/1 4/4/1
f 5/2/1 6/5/1 7/6/1 8/3/1
f 9/5/1 10/7/1 11/8/1 12/6/1
f 13/7/1 14/9/1 15/10/1 16/8/1
f 17/9/1 18/11/1 19/12/1 20/10/1
f 21/11/1 22/13/1 23/14/1 24/12/1
f 25/13/1 26/15/1 27/16/1 28/14/1
f 29/15/1 30/17/1 31/18/1 32/16/1
f 33/17/1 34/19/1 35/20/1 36/18/1
f 37/19/1 38/21/1 39/22/1 40/20/1
f 41/21/1 42/23/1 43/24/1 44/22/1
f 45/25/1 46/26/1 47/2/1 48/1/1
f 49/26/1 50/27/1 51/5/1 52/2/1
f 53/27/1 54/28/1 55/7/1 56/5/1
f 57/28/1 58/29/1 59/9/1 60/7/1
f 61/29/1 62/30/1 63/11/1 64/9/1
f 65/30/1 66/31/1 67/13/1 68/11/1
f 69/31/1 70/32/1 71/15/1 72/13/1
f 73/32/1 74/33/1 75/17/1 76/15/1
f 77/33/1 78/34/1 79/19/1 80/17/1
f 81/34/1 82/35/1 83/21/1 84/19/1
f 85/35/1 86/36/1 87/23/1 88/21/1
f 89/37/1 90/38/1 91/26/1 92/25/1
f 93/38/1 94/39/1 95/27/1 96/26/1
f 97/39/1 98/40/1 99/28/1 100/27/1
f 101/40/1 102/41/1 103/29/1 104/28/1
f 105/41/1 106/42/1 107/30/1 108/29/1
f 109/42/1 110/43/1 111/31/1 112/30/1
f 113/43/1 114/44/1 115/32/1 116/31/1
f 117/44/1 118/45/1 119/33/1 120/32/1
f 121/45/1 122/46/1 123/34/1 124/33/1
f 125/46/1 126/47/1 127/35/1 128/34/1
f 129/47/1 130/48/1 131/36/1 132/35/1
f 133/36/1 134/35/1 135/47/1 136/48/1
f 137/35/1 138/34/1 139/46/1 140/47/1
f 141/34/1 142/33/1 143/45/1 144/46/1
f 145/33/1 146/32/1 147/44/1 148/45/1
f 149/32/1 150/31/1 151/43/1 152/44/1
f 153/49/1 154/50/1 155/51/1 156/52/1
f 157/50/1 158/53/1 159/54/1 160/51/1
f 161/53/1 162/55/1 163/56/1 164/54/1
f 165/34/1 166/33/1 167/45/1 168/46/1
f 169/33/1 170/32/1 171/44/1 172/45/1
f 173/32/1 174/31/1 175/43/1 176/44/1
f 177/31/1 178/30/1 179/42/1 180/43/1
f 181/30/1 182/29/1 183/41/1 184/42/1
f 185/29/1 186/28/1 187/40/1 188/41/1
f 189/28/1 190/27/1 191/39/1 192/40/1
f 193/27/1 194/26/1 195/38/1 196/39/1
f 197/26/1 198/25/1 199/37/1 200/38/1
f 201/21/1 202/19/1 203/34/1 204/35/1
f 205/19/1 206/17/1 207/33/1 208/34/1
f 209/17/1 210/15/1 211/32/1 212/33/1
f 213/15/1 214/13/1 215/31/1 216/32/1
f 217/57/1 218/58/1 219/50/1 220/49/1
f 221/58/1 222/59/1 223/53/1 224/50/1
f 225/59/1 226/60/1 227/55/1 228/53/1
f 229/19/1 230/17/1 231/33/1 232/34/1
f 233/17/1 234/15/1 235/32/1 236/33/1
f 237/15/1 238/13/1 239/31/1 240/32/1
f 241/13/1 242/11/1 243/30/1 244/31/1
f 245/11/1 246/9/1 247/29/1 248/30/1
f 249/9/1 250/7/1 251/28/1 252/29/1
f 253/7/1 254/5/1 255/27/1 256/28/1
f 257/5/1 258/2/1 259/26/1 260/27/1
f 261/18/1 262/16/1 263/15/1 264/17/1
f 265/16/1 266/14/1 267/13/1 268/15/1
f 269/61/1 270/62/1 271/58/1 272/57/1
f 273/62/1 274/63/1 275/59/1 276/58/1
f 277/63/1 278/64/1 279/60/1 280/59/1
f 281/20/1 282/18/1 283/17/1 284/19/1
f 285/18/1 286/16/1 287/15/1 288/17/1
f 289/16/1 290/14/1 291/13/1 292/15/1
f 293/14/1 294/12/1 295/11/1 296/13/1
f 297/12/1 298/10/1 299/9/1 300/11/1
f 301/10/1 302/8/1 303/7/1 304/9/1
f 305/8/1 306/6/1 307/5/1 308/7/1
f 309/6/1 310/3/1 311/2/1 312/5/1
f 313/65/1 314/66/1 315/62/1 316/61/1
f 317/66/1 318/67/1 319/63/1 320/62/1
f 321/67/1 322/68/1 323/64/1 324/63/1

