# Tiled2Unity generated file. Do not modify by hand.
# Wavefront file for 'Level2_mesh_0267.obj'

# Vertices (Count = 20)
v -208 -192 0
v -224 -192 0
v -224 -176 0
v -208 -176 0
v -208 -208 0
v -224 -208 0
v -224 -192 0
v -208 -192 0
v -208 -224 0
v -224 -224 0
v -224 -208 0
v -208 -208 0
v -208 -240 0
v -224 -240 0
v -224 -224 0
v -208 -224 0
v -208 -256 0
v -224 -256 0
v -224 -240 0
v -208 -240 0

# Texture cooridinates (Count = 12)
vt 0.3714286 0.4252874
vt 0.3428572 0.4252874
vt 0.3428572 0.4482759
vt 0.3714286 0.4482759
vt 0.3714286 0.4022989
vt 0.3428572 0.4022989
vt 0.3714286 0.3793104
vt 0.3428572 0.3793104
vt 0.3714286 0.3563218
vt 0.3428572 0.3563218
vt 0.3714286 0.3333333
vt 0.3428572 0.3333333

# Normal
vn 0 0 -1

# Mesh description
g Level2_mesh_0267

# Faces
f 1/1/1 2/2/1 3/3/1 4/4/1
f 5/5/1 6/6/1 7/2/1 8/1/1
f 9/7/1 10/8/1 11/6/1 12/5/1
f 13/9/1 14/10/1 15/8/1 16/7/1
f 17/11/1 18/12/1 19/10/1 20/9/1

