# Tiled2Unity generated file. Do not modify by hand.
# Wavefront file for 'Level2_mesh_0156.obj'

# Vertices (Count = 264)
v -16 -32 0
v -32 -32 0
v -32 -16 0
v -16 -16 0
v -32 -32 0
v -48 -32 0
v -48 -16 0
v -32 -16 0
v -48 -32 0
v -64 -32 0
v -64 -16 0
v -48 -16 0
v -64 -32 0
v -80 -32 0
v -80 -16 0
v -64 -16 0
v -16 -48 0
v -32 -48 0
v -32 -32 0
v -16 -32 0
v -32 -48 0
v -48 -48 0
v -48 -32 0
v -32 -32 0
v -48 -48 0
v -64 -48 0
v -64 -32 0
v -48 -32 0
v -64 -48 0
v -80 -48 0
v -80 -32 0
v -64 -32 0
v 0 -64 0
v -16 -64 0
v -16 -48 0
v 0 -48 0
v -16 -64 0
v -32 -64 0
v -32 -48 0
v -16 -48 0
v -32 -64 0
v -48 -64 0
v -48 -48 0
v -32 -48 0
v -48 -64 0
v -64 -64 0
v -64 -48 0
v -48 -48 0
v -64 -64 0
v -80 -64 0
v -80 -48 0
v -64 -48 0
v -80 -64 0
v -96 -64 0
v -96 -48 0
v -80 -48 0
v 0 -80 0
v -16 -80 0
v -16 -64 0
v 0 -64 0
v -16 -80 0
v -32 -80 0
v -32 -64 0
v -16 -64 0
v -32 -80 0
v -48 -80 0
v -48 -64 0
v -32 -64 0
v -48 -80 0
v -64 -80 0
v -64 -64 0
v -48 -64 0
v -64 -80 0
v -80 -80 0
v -80 -64 0
v -64 -64 0
v -80 -80 0
v -96 -80 0
v -96 -64 0
v -80 -64 0
v -96 -80 0
v -112 -80 0
v -112 -64 0
v -96 -64 0
v -112 -80 0
v -128 -80 0
v -128 -64 0
v -112 -64 0
v -128 -80 0
v -144 -80 0
v -144 -64 0
v -128 -64 0
v -144 -80 0
v -160 -80 0
v -160 -64 0
v -144 -64 0
v -160 -80 0
v -176 -80 0
v -176 -64 0
v -160 -64 0
v -176 -80 0
v -192 -80 0
v -192 -64 0
v -176 -64 0
v -192 -80 0
v -208 -80 0
v -208 -64 0
v -192 -64 0
v -208 -80 0
v -224 -80 0
v -224 -64 0
v -208 -64 0
v -224 -80 0
v -240 -80 0
v -240 -64 0
v -224 -64 0
v -240 -80 0
v -256 -80 0
v -256 -64 0
v -240 -64 0
v -192 -96 0
v -208 -96 0
v -208 -80 0
v -192 -80 0
v -208 -96 0
v -224 -96 0
v -224 -80 0
v -208 -80 0
v -224 -96 0
v -240 -96 0
v -240 -80 0
v -224 -80 0
v -240 -96 0
v -256 -96 0
v -256 -80 0
v -240 -80 0
v -64 -112 0
v -80 -112 0
v -80 -96 0
v -64 -96 0
v -80 -112 0
v -96 -112 0
v -96 -96 0
v -80 -96 0
v -96 -112 0
v -112 -112 0
v -112 -96 0
v -96 -96 0
v -112 -112 0
v -128 -112 0
v -128 -96 0
v -112 -96 0
v -192 -112 0
v -208 -112 0
v -208 -96 0
v -192 -96 0
v -208 -112 0
v -224 -112 0
v -224 -96 0
v -208 -96 0
v -224 -112 0
v -240 -112 0
v -240 -96 0
v -224 -96 0
v -240 -112 0
v -256 -112 0
v -256 -96 0
v -240 -96 0
v -64 -128 0
v -80 -128 0
v -80 -112 0
v -64 -112 0
v -80 -128 0
v -96 -128 0
v -96 -112 0
v -80 -112 0
v -96 -128 0
v -112 -128 0
v -112 -112 0
v -96 -112 0
v -112 -128 0
v -128 -128 0
v -128 -112 0
v -112 -112 0
v -192 -128 0
v -208 -128 0
v -208 -112 0
v -192 -112 0
v -208 -128 0
v -224 -128 0
v -224 -112 0
v -208 -112 0
v -224 -128 0
v -240 -128 0
v -240 -112 0
v -224 -112 0
v -240 -128 0
v -256 -128 0
v -256 -112 0
v -240 -112 0
v -64 -144 0
v -80 -144 0
v -80 -128 0
v -64 -128 0
v -80 -144 0
v -96 -144 0
v -96 -128 0
v -80 -128 0
v -96 -144 0
v -112 -144 0
v -112 -128 0
v -96 -128 0
v -112 -144 0
v -128 -144 0
v -128 -128 0
v -112 -128 0
v -144 -144 0
v -160 -144 0
v -160 -128 0
v -144 -128 0
v -160 -144 0
v -176 -144 0
v -176 -128 0
v -160 -128 0
v -176 -144 0
v -192 -144 0
v -192 -128 0
v -176 -128 0
v -192 -144 0
v -208 -144 0
v -208 -128 0
v -192 -128 0
v -144 -160 0
v -160 -160 0
v -160 -144 0
v -144 -144 0
v -160 -160 0
v -176 -160 0
v -176 -144 0
v -160 -144 0
v -176 -160 0
v -192 -160 0
v -192 -144 0
v -176 -144 0
v -192 -160 0
v -208 -160 0
v -208 -144 0
v -192 -144 0
v -144 -176 0
v -160 -176 0
v -160 -160 0
v -144 -160 0
v -160 -176 0
v -176 -176 0
v -176 -160 0
v -160 -160 0
v -176 -176 0
v -192 -176 0
v -192 -160 0
v -176 -160 0
v -192 -176 0
v -208 -176 0
v -208 -160 0
v -192 -160 0

# Texture cooridinates (Count = 61)
vt 0.5216159 0.02941179
vt 0.5329553 0.02941179
vt 0.5329553 0.05882353
vt 0.5216159 0.05882353
vt 0.5442948 0.02941179
vt 0.5442948 0.05882353
vt 0.5216159 0
vt 0.5329553 0
vt 0.5442948 0
vt 0.5216159 0.8823529
vt 0.5329553 0.8823529
vt 0.5329553 0.9117647
vt 0.5216159 0.9117647
vt 0.5442948 0.8823529
vt 0.5442948 0.9117647
vt 0.5556343 0.8823529
vt 0.5556343 0.9117647
vt 0.5669738 0.8823529
vt 0.5669738 0.9117647
vt 0.5783132 0.8823529
vt 0.5783132 0.9117647
vt 0.5896527 0.8823529
vt 0.5896527 0.9117647
vt 0.0453579 0.9117647
vt 0.05669738 0.9117647
vt 0.05669738 0.9411765
vt 0.0453579 0.9411765
vt 0.06803685 0.9117647
vt 0.06803685 0.9411765
vt 0.4875974 0.8823529
vt 0.4989369 0.8823529
vt 0.4989369 0.9117647
vt 0.4875974 0.9117647
vt 0.3742027 0.8823529
vt 0.3855422 0.8823529
vt 0.3855422 0.9117647
vt 0.3742027 0.9117647
vt 0.21545 0.9117647
vt 0.2267895 0.9117647
vt 0.2267895 0.9411765
vt 0.21545 0.9411765
vt 0.06803685 0.5588235
vt 0.07937633 0.5588235
vt 0.07937633 0.5882353
vt 0.06803685 0.5882353
vt 0.0907158 0.5588235
vt 0.0907158 0.5882353
vt 0.1020553 0.5588235
vt 0.1020553 0.5882353
vt 0.1133948 0.5588235
vt 0.1133948 0.5882353
vt 0.06803685 0.5294118
vt 0.07937633 0.5294118
vt 0.0907158 0.5294118
vt 0.1020553 0.5294118
vt 0.1133948 0.5294118
vt 0.06803685 0.5
vt 0.07937633 0.5
vt 0.0907158 0.5
vt 0.1020553 0.5
vt 0.1133948 0.5

# Normal
vn 0 0 -1

# Mesh description
g Level2_mesh_0156

# Faces
f 1/1/1 2/2/1 3/3/1 4/4/1
f 5/2/1 6/5/1 7/6/1 8/3/1
f 9/1/1 10/2/1 11/3/1 12/4/1
f 13/2/1 14/5/1 15/6/1 16/3/1
f 17/7/1 18/8/1 19/2/1 20/1/1
f 21/8/1 22/9/1 23/5/1 24/2/1
f 25/7/1 26/8/1 27/2/1 28/1/1
f 29/8/1 30/9/1 31/5/1 32/2/1
f 33/10/1 34/11/1 35/12/1 36/13/1
f 37/11/1 38/14/1 39/15/1 40/12/1
f 41/14/1 42/16/1 43/17/1 44/15/1
f 45/16/1 46/18/1 47/19/1 48/17/1
f 49/18/1 50/20/1 51/21/1 52/19/1
f 53/20/1 54/22/1 55/23/1 56/21/1
f 57/11/1 58/14/1 59/15/1 60/12/1
f 61/14/1 62/16/1 63/17/1 64/15/1
f 65/16/1 66/18/1 67/19/1 68/17/1
f 69/18/1 70/20/1 71/21/1 72/19/1
f 73/20/1 74/22/1 75/23/1 76/21/1
f 77/24/1 78/25/1 79/26/1 80/27/1
f 81/25/1 82/28/1 83/29/1 84/26/1
f 85/30/1 86/31/1 87/32/1 88/33/1
f 89/34/1 90/35/1 91/36/1 92/37/1
f 93/38/1 94/39/1 95/40/1 96/41/1
f 97/10/1 98/11/1 99/12/1 100/13/1
f 101/11/1 102/14/1 103/15/1 104/12/1
f 105/14/1 106/16/1 107/17/1 108/15/1
f 109/16/1 110/18/1 111/19/1 112/17/1
f 113/18/1 114/20/1 115/21/1 116/19/1
f 117/20/1 118/22/1 119/23/1 120/21/1
f 121/42/1 122/43/1 123/44/1 124/45/1
f 125/43/1 126/46/1 127/47/1 128/44/1
f 129/46/1 130/48/1 131/49/1 132/47/1
f 133/48/1 134/50/1 135/51/1 136/49/1
f 137/42/1 138/43/1 139/44/1 140/45/1
f 141/43/1 142/46/1 143/47/1 144/44/1
f 145/46/1 146/48/1 147/49/1 148/47/1
f 149/48/1 150/50/1 151/51/1 152/49/1
f 153/52/1 154/53/1 155/43/1 156/42/1
f 157/53/1 158/54/1 159/46/1 160/43/1
f 161/54/1 162/55/1 163/48/1 164/46/1
f 165/55/1 166/56/1 167/50/1 168/48/1
f 169/52/1 170/53/1 171/43/1 172/42/1
f 173/53/1 174/54/1 175/46/1 176/43/1
f 177/54/1 178/55/1 179/48/1 180/46/1
f 181/55/1 182/56/1 183/50/1 184/48/1
f 185/57/1 186/58/1 187/53/1 188/52/1
f 189/58/1 190/59/1 191/54/1 192/53/1
f 193/59/1 194/60/1 195/55/1 196/54/1
f 197/60/1 198/61/1 199/56/1 200/55/1
f 201/57/1 202/58/1 203/53/1 204/52/1
f 205/58/1 206/59/1 207/54/1 208/53/1
f 209/59/1 210/60/1 211/55/1 212/54/1
f 213/60/1 214/61/1 215/56/1 216/55/1
f 217/42/1 218/43/1 219/44/1 220/45/1
f 221/43/1 222/46/1 223/47/1 224/44/1
f 225/46/1 226/48/1 227/49/1 228/47/1
f 229/48/1 230/50/1 231/51/1 232/49/1
f 233/52/1 234/53/1 235/43/1 236/42/1
f 237/53/1 238/54/1 239/46/1 240/43/1
f 241/54/1 242/55/1 243/48/1 244/46/1
f 245/55/1 246/56/1 247/50/1 248/48/1
f 249/57/1 250/58/1 251/53/1 252/52/1
f 253/58/1 254/59/1 255/54/1 256/53/1
f 257/59/1 258/60/1 259/55/1 260/54/1
f 261/60/1 262/61/1 263/56/1 264/55/1

